<?xml version="1.0" encoding="UTF-8" standalone="no"?>
<!-- Created with Inkscape (http://www.inkscape.org/) -->

<svg
   xmlns:dc="http://purl.org/dc/elements/1.1/"
   xmlns:cc="http://creativecommons.org/ns#"
   xmlns:rdf="http://www.w3.org/1999/02/22-rdf-syntax-ns#"
   xmlns:svg="http://www.w3.org/2000/svg"
   xmlns="http://www.w3.org/2000/svg"
   xmlns:sodipodi="http://sodipodi.sourceforge.net/DTD/sodipodi-0.dtd"
   xmlns:inkscape="http://www.inkscape.org/namespaces/inkscape"
   version="1.1"
   id="svg2"
   xml:space="preserve"
   width="793.70135"
   height="1054.488"
   viewBox="0 0 793.70135 1054.488"
   sodipodi:docname="table5.svg"
   inkscape:version="0.92.0 r15299"><metadata
     id="metadata8"><rdf:RDF><cc:Work
         rdf:about=""><dc:format>image/svg+xml</dc:format><dc:type
           rdf:resource="http://purl.org/dc/dcmitype/StillImage" /><dc:title></dc:title></cc:Work></rdf:RDF></metadata><defs
     id="defs6" /><sodipodi:namedview
     pagecolor="#ffffff"
     bordercolor="#666666"
     borderopacity="1"
     objecttolerance="10"
     gridtolerance="10"
     guidetolerance="10"
     inkscape:pageopacity="0"
     inkscape:pageshadow="2"
     inkscape:window-width="1920"
     inkscape:window-height="988"
     id="namedview4"
     showgrid="false"
     inkscape:zoom="0.89522116"
     inkscape:cx="393.94096"
     inkscape:cy="379.32922"
     inkscape:window-x="0"
     inkscape:window-y="27"
     inkscape:window-maximized="1"
     inkscape:current-layer="g10" /><g
     id="g10"
     inkscape:groupmode="layer"
     inkscape:label="fulltext"
     transform="matrix(1.3333333,0,0,-1.3333333,0,1054.488)"><g
       id="g74"
       transform="translate(35.887,249.732)"><path
         d="m 0,0 h 514.034 l -0.453,-0.51 H 0.454"
         style="fill:#231f20;fill-opacity:1;fill-rule:evenodd;stroke:#231f20;stroke-width:0.75;stroke-linecap:round;stroke-linejoin:round;stroke-miterlimit:10;stroke-dasharray:none;stroke-opacity:1"
         id="path76"
         inkscape:connector-curvature="0" /></g><g
       id="g78"
       transform="translate(549.921,249.732)"><path
         d="m 0,0 v -127.049 l -0.454,0.51 V -0.51"
         style="fill:#231f20;fill-opacity:1;fill-rule:evenodd;stroke:#231f20;stroke-width:0.75;stroke-linecap:round;stroke-linejoin:round;stroke-miterlimit:10;stroke-dasharray:none;stroke-opacity:1"
         id="path80"
         inkscape:connector-curvature="0" /></g><g
       id="g82"
       transform="translate(549.921,122.683)"><path
         d="m 0,0 h -514.035 l 0.454,0.51 H -0.454"
         style="fill:#231f20;fill-opacity:1;fill-rule:evenodd;stroke:#231f20;stroke-width:0.75;stroke-linecap:round;stroke-linejoin:round;stroke-miterlimit:10;stroke-dasharray:none;stroke-opacity:1"
         id="path84"
         inkscape:connector-curvature="0" /></g><g
       id="g86"
       transform="translate(35.887,122.683)"><path
         d="m 0,0 v 127.049 l 0.454,-0.51 V 0.51"
         style="fill:#231f20;fill-opacity:1;fill-rule:evenodd;stroke:#231f20;stroke-width:0.75;stroke-linecap:round;stroke-linejoin:round;stroke-miterlimit:10;stroke-dasharray:none;stroke-opacity:1"
         id="path88"
         inkscape:connector-curvature="0" /></g><g
       id="g90"
       transform="translate(38.835,232.951)"><path
         d="M 0,0 H 508.138 V -0.964 H 0"
         style="fill:#231f20;fill-opacity:1;fill-rule:evenodd;stroke:#231f20;stroke-width:0.75;stroke-linecap:round;stroke-linejoin:round;stroke-miterlimit:10;stroke-dasharray:none;stroke-opacity:1"
         id="path92"
         inkscape:connector-curvature="0" /></g><g
       id="g94"
       transform="translate(229.266,214.299)"><path
         d="M 0,0 H -114.633 V 0.227 H 0"
         style="fill:#231f20;fill-opacity:1;fill-rule:evenodd;stroke:#231f20;stroke-width:0.75;stroke-linecap:round;stroke-linejoin:round;stroke-miterlimit:10;stroke-dasharray:none;stroke-opacity:1"
         id="path96"
         inkscape:connector-curvature="0" /></g><g
       id="g98"
       transform="translate(365.839,214.299)"><path
         d="M 0,0 H -114.633 V 0.227 H 0"
         style="fill:#231f20;fill-opacity:1;fill-rule:evenodd;stroke:#231f20;stroke-width:0.75;stroke-linecap:round;stroke-linejoin:round;stroke-miterlimit:10;stroke-dasharray:none;stroke-opacity:1"
         id="path100"
         inkscape:connector-curvature="0" /></g><g
       id="g102"
       transform="translate(80.22,191.849)"><path
         d="M 0,0 H -41.386 V 0.283 H 0"
         style="fill:#231f20;fill-opacity:1;fill-rule:evenodd;stroke:#231f20;stroke-width:0.75;stroke-linecap:round;stroke-linejoin:round;stroke-miterlimit:10;stroke-dasharray:none;stroke-opacity:1"
         id="path104"
         inkscape:connector-curvature="0" /></g><g
       id="g106"
       transform="translate(114.633,191.849)"><path
         d="M 0,0 H -34.413 V 0.283 H 0"
         style="fill:#231f20;fill-opacity:1;fill-rule:evenodd;stroke:#231f20;stroke-width:0.75;stroke-linecap:round;stroke-linejoin:round;stroke-miterlimit:10;stroke-dasharray:none;stroke-opacity:1"
         id="path108"
         inkscape:connector-curvature="0" /></g><g
       id="g110"
       transform="translate(207.836,191.849)"><path
         d="M 0,0 H -93.203 V 0.283 H 0"
         style="fill:#231f20;fill-opacity:1;fill-rule:evenodd;stroke:#231f20;stroke-width:0.75;stroke-linecap:round;stroke-linejoin:round;stroke-miterlimit:10;stroke-dasharray:none;stroke-opacity:1"
         id="path112"
         inkscape:connector-curvature="0" /></g><g
       id="g114"
       transform="translate(251.206,191.849)"><path
         d="M 0,0 H -43.37 V 0.283 H 0"
         style="fill:#231f20;fill-opacity:1;fill-rule:evenodd;stroke:#231f20;stroke-width:0.75;stroke-linecap:round;stroke-linejoin:round;stroke-miterlimit:10;stroke-dasharray:none;stroke-opacity:1"
         id="path116"
         inkscape:connector-curvature="0" /></g><g
       id="g118"
       transform="translate(344.409,191.849)"><path
         d="M 0,0 H -93.203 V 0.283 H 0"
         style="fill:#231f20;fill-opacity:1;fill-rule:evenodd;stroke:#231f20;stroke-width:0.75;stroke-linecap:round;stroke-linejoin:round;stroke-miterlimit:10;stroke-dasharray:none;stroke-opacity:1"
         id="path120"
         inkscape:connector-curvature="0" /></g><g
       id="g122"
       transform="translate(387.836,191.849)"><path
         d="M 0,0 H -43.427 V 0.283 H 0"
         style="fill:#231f20;fill-opacity:1;fill-rule:evenodd;stroke:#231f20;stroke-width:0.75;stroke-linecap:round;stroke-linejoin:round;stroke-miterlimit:10;stroke-dasharray:none;stroke-opacity:1"
         id="path124"
         inkscape:connector-curvature="0" /></g><g
       id="g126"
       transform="translate(495.269,191.849)"><path
         d="M 0,0 H -107.433 V 0.283 H 0"
         style="fill:#231f20;fill-opacity:1;fill-rule:evenodd;stroke:#231f20;stroke-width:0.75;stroke-linecap:round;stroke-linejoin:round;stroke-miterlimit:10;stroke-dasharray:none;stroke-opacity:1"
         id="path128"
         inkscape:connector-curvature="0" /></g><g
       id="g130"
       transform="translate(546.973,191.849)"><path
         d="M 0,0 H -51.704 V 0.283 H 0"
         style="fill:#231f20;fill-opacity:1;fill-rule:evenodd;stroke:#231f20;stroke-width:0.75;stroke-linecap:round;stroke-linejoin:round;stroke-miterlimit:10;stroke-dasharray:none;stroke-opacity:1"
         id="path132"
         inkscape:connector-curvature="0" /></g><g
       id="g134"
       transform="translate(38.835,141.052)"><path
         d="M 0,0 H 508.138 V -0.964 H 0"
         style="fill:#231f20;fill-opacity:1;fill-rule:evenodd;stroke:#231f20;stroke-width:0.75;stroke-linecap:round;stroke-linejoin:round;stroke-miterlimit:10;stroke-dasharray:none;stroke-opacity:1"
         id="path136"
         inkscape:connector-curvature="0" /></g><text
       transform="matrix(1,0,0,-1,39.8551,238.4503)"
       style="font-variant:normal;font-weight:normal;font-size:8.46819973px;font-family:AdvOT919a0533;-inkscape-font-specification:AdvOT919a0533;writing-mode:lr-tb;fill:#231f20;fill-opacity:1;fill-rule:nonzero;stroke:none"
       id="text140"><tspan
         x="0 3.260257 6.7830281 10.483631 12.3297 18.707947 22.230719"
         y="0"
         sodipodi:role="line"
         id="tspan138">Table5.</tspan></text>
<text
       transform="matrix(1,0,0,-1,72.5102,238.4503)"
       style="font-variant:normal;font-weight:normal;font-size:7.97020006px;font-family:AdvTT6780a46b;-inkscape-font-specification:AdvTT6780a46b;writing-mode:lr-tb;fill:#231f20;fill-opacity:1;fill-rule:nonzero;stroke:none"
       id="text144"><tspan
         x="0 6.6328006 10.697602 12.60248 17.161434 21.720388 26.984707 28.889584 33.368835 36.604736 42.461239 44.86824 47.522316 52.001572 61.452633 66.099258 69.996689 73.23259 77.297394 79.202271 81.107147 85.6661 92.292526 96.189949 101.53317 105.59798 109.49541 113.14576 120.29821 122.95229 124.85717 131.66371 138.3826 143.02922 147.50848 149.41336 153.97231 156.62639 160.88885 165.53548 172.00011 175.89754 178.55161"
         y="0"
         sodipodi:role="line"
         id="tspan142">Weightlossfrombaselineateachtimepoint,byarm</tspan></text>
<text
       transform="matrix(1,0,0,-1,42.859462,220.76204)"
       style="font-variant:normal;font-weight:normal;font-size:7.97020006px;font-family:AdvOT65f8a23b;-inkscape-font-specification:AdvOT65f8a23b;writing-mode:lr-tb;fill:#231f20;fill-opacity:1;fill-rule:nonzero;stroke:none"
       id="text148"><tspan
         x="0 3.7300537 5.4675574 11.859657"
         y="0"
         sodipodi:role="line"
         id="tspan146">Time</tspan></text>
<text
       transform="matrix(1,0,0,-1,83.73543,220.76204)"
       style="font-variant:normal;font-weight:normal;font-size:7.97020006px;font-family:AdvTT6780a46b;-inkscape-font-specification:AdvTT6780a46b;writing-mode:lr-tb;fill:#231f20;fill-opacity:1;fill-rule:nonzero;stroke:none"
       id="text152"><tspan
         x="0"
         y="0"
         id="tspan150">N</tspan></text>
<text
       transform="matrix(1,0,0,-1,154.94199,220.76204)"
       style="font-variant:normal;font-weight:normal;font-size:7.97020006px;font-family:AdvOT65f8a23b;-inkscape-font-specification:AdvOT65f8a23b;writing-mode:lr-tb;fill:#231f20;fill-opacity:1;fill-rule:nonzero;stroke:none"
       id="text158"><tspan
         x="0 4.893703 7.7948556 11.93936 16.083864 20.465082 23.780685 27.92519 30.411892 145.98299 149.8804 153.77783 157.50789 232.89323 237.37248 241.51698 243.25449 247.39899 250.30014 252.78685 256.34952 263.10986 269.50195 273.06464 277.20914 284.08582 288.23032 289.96783 292.20746 294.44708 298.00977 300.49646 304.05914 308.29132 311.60693 315.09549 352.79611 356.69354 360.59097 369.35022 373.74979"
         y="0"
         sodipodi:role="line"
         id="tspan154">Usualcare10TTAdjustedmeandifference*95%CI</tspan><tspan
         x="-40.308491 -35.908939 -31.676764 -27.532259 -23.300083 -19.155579 -12.983456 -10.74383 -8.2571268 -4.1126232 4.8745742 9.0190783 13.163582 16.064735 19.627415 21.364918 23.102421 27.334599 58.05175 61.702099 63.359901 67.504402 96.262482 100.66203 104.89421 109.03871 113.27089 117.41539 123.58752 125.82714 128.31384 132.45834 141.50214 145.64664 149.79114 152.69229 156.25497 157.99248 159.72998 163.96216 194.62273 198.27307 199.93088 204.07538"
         y="22.393871"
         sodipodi:role="line"
         id="tspan156">ChangefrombaselineS.d.ChangefrombaselineS.d.</tspan></text>
<text
       transform="matrix(1,0,0,-1,42.860259,181.1334)"
       style="font-variant:normal;font-weight:normal;font-size:7.97020006px;font-family:AdvTT6780a46b;-inkscape-font-specification:AdvTT6780a46b;writing-mode:lr-tb;fill:#231f20;fill-opacity:1;fill-rule:nonzero;stroke:none"
       id="text162"><tspan
         x="0 37.361111 41.505615 45.650116"
         y="0"
         sodipodi:role="line"
         id="tspan160">3383</tspan></text>
<text
       transform="matrix(1,0,0,-1,140.82597,181.1334)"
       style="font-variant:normal;font-weight:normal;font-size:7.97020006px;font-family:'AdvTT6780a46b 22';-inkscape-font-specification:'AdvTT6780a46b 22';writing-mode:lr-tb;fill:#231f20;fill-opacity:1;fill-rule:nonzero;stroke:none"
       id="text166"><tspan
         x="0"
         y="0"
         id="tspan164">−</tspan></text>
<text
       transform="matrix(1,0,0,-1,146.89209,181.1334)"
       style="font-variant:normal;font-weight:normal;font-size:7.97020006px;font-family:AdvTT6780a46b;-inkscape-font-specification:AdvTT6780a46b;writing-mode:lr-tb;fill:#231f20;fill-opacity:1;fill-rule:nonzero;stroke:none"
       id="text170"><tspan
         x="0 4.1445041 5.8023057 9.9468098"
         y="0"
         sodipodi:role="line"
         id="tspan168">0.84</tspan></text>
<text
       transform="matrix(1,0,0,-1,209.14095,181.1334)"
       style="font-variant:normal;font-weight:normal;font-size:7.97020006px;font-family:'AdvTT6780a46b 22';-inkscape-font-specification:'AdvTT6780a46b 22';writing-mode:lr-tb;fill:#231f20;fill-opacity:1;fill-rule:nonzero;stroke:none"
       id="text174"><tspan
         x="0"
         y="0"
         id="tspan172">−</tspan></text>
<text
       transform="matrix(1,0,0,-1,215.15048,181.1334)"
       style="font-variant:normal;font-weight:normal;font-size:7.97020006px;font-family:AdvTT6780a46b;-inkscape-font-specification:AdvTT6780a46b;writing-mode:lr-tb;fill:#231f20;fill-opacity:1;fill-rule:nonzero;stroke:none"
       id="text178"><tspan
         x="0 4.1445041 5.8023057 9.9468098"
         y="0"
         sodipodi:role="line"
         id="tspan176">2.83</tspan></text>
<text
       transform="matrix(1,0,0,-1,277.45592,181.1334)"
       style="font-variant:normal;font-weight:normal;font-size:7.97020006px;font-family:'AdvTT6780a46b 22';-inkscape-font-specification:'AdvTT6780a46b 22';writing-mode:lr-tb;fill:#231f20;fill-opacity:1;fill-rule:nonzero;stroke:none"
       id="text182"><tspan
         x="0"
         y="0"
         id="tspan180">−</tspan></text>
<text
       transform="matrix(1,0,0,-1,283.46545,181.1334)"
       style="font-variant:normal;font-weight:normal;font-size:7.97020006px;font-family:AdvTT6780a46b;-inkscape-font-specification:AdvTT6780a46b;writing-mode:lr-tb;fill:#231f20;fill-opacity:1;fill-rule:nonzero;stroke:none"
       id="text186"><tspan
         x="0 4.1445041 5.8023057 9.9468098"
         y="0"
         sodipodi:role="line"
         id="tspan184">1.68</tspan></text>
<text
       transform="matrix(1,0,0,-1,347.81207,181.1334)"
       style="font-variant:normal;font-weight:normal;font-size:7.97020006px;font-family:'AdvTT6780a46b 22';-inkscape-font-specification:'AdvTT6780a46b 22';writing-mode:lr-tb;fill:#231f20;fill-opacity:1;fill-rule:nonzero;stroke:none"
       id="text190"><tspan
         x="0"
         y="0"
         id="tspan188">−</tspan></text>
<text
       transform="matrix(1,0,0,-1,353.87819,181.1334)"
       style="font-variant:normal;font-weight:normal;font-size:7.97020006px;font-family:AdvTT6780a46b;-inkscape-font-specification:AdvTT6780a46b;writing-mode:lr-tb;fill:#231f20;fill-opacity:1;fill-rule:nonzero;stroke:none"
       id="text194"><tspan
         x="0 4.1445041 5.8023057"
         y="0"
         sodipodi:role="line"
         id="tspan192">3.2</tspan></text>
<text
       transform="matrix(1,0,0,-1,421.17298,181.1334)"
       style="font-variant:normal;font-weight:normal;font-size:7.97020006px;font-family:'AdvTT6780a46b 22';-inkscape-font-specification:'AdvTT6780a46b 22';writing-mode:lr-tb;fill:#231f20;fill-opacity:1;fill-rule:nonzero;stroke:none"
       id="text198"><tspan
         x="0"
         y="0"
         id="tspan196">−</tspan></text>
<text
       transform="matrix(1,0,0,-1,427.23909,181.1334)"
       style="font-variant:normal;font-weight:normal;font-size:7.97020006px;font-family:AdvTT6780a46b;-inkscape-font-specification:AdvTT6780a46b;writing-mode:lr-tb;fill:#231f20;fill-opacity:1;fill-rule:nonzero;stroke:none"
       id="text202"><tspan
         x="0 4.1445041 5.8023057 9.9468098 68.031235"
         y="0"
         sodipodi:role="line"
         id="tspan200">0.87(</tspan></text>
<text
       transform="matrix(1,0,0,-1,497.48206,181.1334)"
       style="font-variant:normal;font-weight:normal;font-size:7.97020006px;font-family:'AdvTT6780a46b 22';-inkscape-font-specification:'AdvTT6780a46b 22';writing-mode:lr-tb;fill:#231f20;fill-opacity:1;fill-rule:nonzero;stroke:none"
       id="text206"><tspan
         x="0"
         y="0"
         id="tspan204">−</tspan></text>
<text
       transform="matrix(1,0,0,-1,502.24426,181.1334)"
       style="font-variant:normal;font-weight:normal;font-size:7.97020006px;font-family:AdvTT6780a46b;-inkscape-font-specification:AdvTT6780a46b;writing-mode:lr-tb;fill:#231f20;fill-opacity:1;fill-rule:nonzero;stroke:none"
       id="text210"><tspan
         x="0 4.1445041 5.8023057 9.9468098 14.091313"
         y="0"
         sodipodi:role="line"
         id="tspan208">1.47,</tspan></text>
<text
       transform="matrix(1,0,0,-1,520.61318,181.1334)"
       style="font-variant:normal;font-weight:normal;font-size:7.97020006px;font-family:'AdvTT6780a46b 22';-inkscape-font-specification:'AdvTT6780a46b 22';writing-mode:lr-tb;fill:#231f20;fill-opacity:1;fill-rule:nonzero;stroke:none"
       id="text214"><tspan
         x="0"
         y="0"
         id="tspan212">−</tspan></text>
<text
       transform="matrix(1,0,0,-1,526.67929,181.1334)"
       style="font-variant:normal;font-weight:normal;font-size:7.97020006px;font-family:AdvTT6780a46b;-inkscape-font-specification:AdvTT6780a46b;writing-mode:lr-tb;fill:#231f20;fill-opacity:1;fill-rule:nonzero;stroke:none"
       id="text220"><tspan
         x="0 4.1445041 5.8023057 9.9468098 14.091313"
         y="0"
         sodipodi:role="line"
         id="tspan216">0.27)</tspan><tspan
         x="-483.81903 -446.45792 -442.31342 -438.16891"
         y="8.9577074"
         sodipodi:role="line"
         id="tspan218">6336</tspan></text>
<text
       transform="matrix(1,0,0,-1,140.82597,172.1757)"
       style="font-variant:normal;font-weight:normal;font-size:7.97020006px;font-family:'AdvTT6780a46b 22';-inkscape-font-specification:'AdvTT6780a46b 22';writing-mode:lr-tb;fill:#231f20;fill-opacity:1;fill-rule:nonzero;stroke:none"
       id="text224"><tspan
         x="0"
         y="0"
         id="tspan222">−</tspan></text>
<text
       transform="matrix(1,0,0,-1,146.89209,172.1757)"
       style="font-variant:normal;font-weight:normal;font-size:7.97020006px;font-family:AdvTT6780a46b;-inkscape-font-specification:AdvTT6780a46b;writing-mode:lr-tb;fill:#231f20;fill-opacity:1;fill-rule:nonzero;stroke:none"
       id="text228"><tspan
         x="0 4.1445041 5.8023057 9.9468098"
         y="0"
         sodipodi:role="line"
         id="tspan226">1.64</tspan></text>
<text
       transform="matrix(1,0,0,-1,209.14095,172.1757)"
       style="font-variant:normal;font-weight:normal;font-size:7.97020006px;font-family:'AdvTT6780a46b 22';-inkscape-font-specification:'AdvTT6780a46b 22';writing-mode:lr-tb;fill:#231f20;fill-opacity:1;fill-rule:nonzero;stroke:none"
       id="text232"><tspan
         x="0"
         y="0"
         id="tspan230">−</tspan></text>
<text
       transform="matrix(1,0,0,-1,215.15048,172.1757)"
       style="font-variant:normal;font-weight:normal;font-size:7.97020006px;font-family:AdvTT6780a46b;-inkscape-font-specification:AdvTT6780a46b;writing-mode:lr-tb;fill:#231f20;fill-opacity:1;fill-rule:nonzero;stroke:none"
       id="text236"><tspan
         x="0 4.1445041 5.8023057 9.9468098"
         y="0"
         sodipodi:role="line"
         id="tspan234">3.83</tspan></text>
<text
       transform="matrix(1,0,0,-1,277.45592,172.1757)"
       style="font-variant:normal;font-weight:normal;font-size:7.97020006px;font-family:'AdvTT6780a46b 22';-inkscape-font-specification:'AdvTT6780a46b 22';writing-mode:lr-tb;fill:#231f20;fill-opacity:1;fill-rule:nonzero;stroke:none"
       id="text240"><tspan
         x="0"
         y="0"
         id="tspan238">−</tspan></text>
<text
       transform="matrix(1,0,0,-1,283.46545,172.1757)"
       style="font-variant:normal;font-weight:normal;font-size:7.97020006px;font-family:AdvTT6780a46b;-inkscape-font-specification:AdvTT6780a46b;writing-mode:lr-tb;fill:#231f20;fill-opacity:1;fill-rule:nonzero;stroke:none"
       id="text244"><tspan
         x="0 4.1445041 5.8023057 9.9468098"
         y="0"
         sodipodi:role="line"
         id="tspan242">2.54</tspan></text>
<text
       transform="matrix(1,0,0,-1,345.7709,172.1757)"
       style="font-variant:normal;font-weight:normal;font-size:7.97020006px;font-family:'AdvTT6780a46b 22';-inkscape-font-specification:'AdvTT6780a46b 22';writing-mode:lr-tb;fill:#231f20;fill-opacity:1;fill-rule:nonzero;stroke:none"
       id="text248"><tspan
         x="0"
         y="0"
         id="tspan246">−</tspan></text>
<text
       transform="matrix(1,0,0,-1,351.78043,172.1757)"
       style="font-variant:normal;font-weight:normal;font-size:7.97020006px;font-family:AdvTT6780a46b;-inkscape-font-specification:AdvTT6780a46b;writing-mode:lr-tb;fill:#231f20;fill-opacity:1;fill-rule:nonzero;stroke:none"
       id="text252"><tspan
         x="0 4.1445041 5.8023057 9.9468098"
         y="0"
         sodipodi:role="line"
         id="tspan250">5.04</tspan></text>
<text
       transform="matrix(1,0,0,-1,421.17298,172.1757)"
       style="font-variant:normal;font-weight:normal;font-size:7.97020006px;font-family:'AdvTT6780a46b 22';-inkscape-font-specification:'AdvTT6780a46b 22';writing-mode:lr-tb;fill:#231f20;fill-opacity:1;fill-rule:nonzero;stroke:none"
       id="text256"><tspan
         x="0"
         y="0"
         id="tspan254">−</tspan></text>
<text
       transform="matrix(1,0,0,-1,427.23909,172.1757)"
       style="font-variant:normal;font-weight:normal;font-size:7.97020006px;font-family:AdvTT6780a46b;-inkscape-font-specification:AdvTT6780a46b;writing-mode:lr-tb;fill:#231f20;fill-opacity:1;fill-rule:nonzero;stroke:none"
       id="text260"><tspan
         x="0 4.1445041 5.8023057 9.9468098 71.036003"
         y="0"
         sodipodi:role="line"
         id="tspan258">0.88(</tspan></text>
<text
       transform="matrix(1,0,0,-1,500.54341,172.1757)"
       style="font-variant:normal;font-weight:normal;font-size:7.97020006px;font-family:'AdvTT6780a46b 22';-inkscape-font-specification:'AdvTT6780a46b 22';writing-mode:lr-tb;fill:#231f20;fill-opacity:1;fill-rule:nonzero;stroke:none"
       id="text264"><tspan
         x="0"
         y="0"
         id="tspan262">−</tspan></text>
<text
       transform="matrix(1,0,0,-1,505.24902,172.1757)"
       style="font-variant:normal;font-weight:normal;font-size:7.97020006px;font-family:AdvTT6780a46b;-inkscape-font-specification:AdvTT6780a46b;writing-mode:lr-tb;fill:#231f20;fill-opacity:1;fill-rule:nonzero;stroke:none"
       id="text270"><tspan
         x="0 4.1445041 5.8023057 9.9468098 14.091313 18.368122 22.512627 24.170429 28.314932 32.459438"
         y="0"
         sodipodi:role="line"
         id="tspan266">1.82,0.06)</tspan><tspan
         x="-462.38876 -458.24426 -425.02844 -420.88394 -416.73944"
         y="8.9577074"
         sodipodi:role="line"
         id="tspan268">12292</tspan></text>
<text
       transform="matrix(1,0,0,-1,140.82597,163.21799)"
       style="font-variant:normal;font-weight:normal;font-size:7.97020006px;font-family:'AdvTT6780a46b 22';-inkscape-font-specification:'AdvTT6780a46b 22';writing-mode:lr-tb;fill:#231f20;fill-opacity:1;fill-rule:nonzero;stroke:none"
       id="text274"><tspan
         x="0"
         y="0"
         id="tspan272">−</tspan></text>
<text
       transform="matrix(1,0,0,-1,146.89209,163.21799)"
       style="font-variant:normal;font-weight:normal;font-size:7.97020006px;font-family:AdvTT6780a46b;-inkscape-font-specification:AdvTT6780a46b;writing-mode:lr-tb;fill:#231f20;fill-opacity:1;fill-rule:nonzero;stroke:none"
       id="text278"><tspan
         x="0 4.1445041 5.8023057 9.9468098"
         y="0"
         sodipodi:role="line"
         id="tspan276">2.32</tspan></text>
<text
       transform="matrix(1,0,0,-1,209.14095,163.21799)"
       style="font-variant:normal;font-weight:normal;font-size:7.97020006px;font-family:'AdvTT6780a46b 22';-inkscape-font-specification:'AdvTT6780a46b 22';writing-mode:lr-tb;fill:#231f20;fill-opacity:1;fill-rule:nonzero;stroke:none"
       id="text282"><tspan
         x="0"
         y="0"
         id="tspan280">−</tspan></text>
<text
       transform="matrix(1,0,0,-1,215.15048,163.21799)"
       style="font-variant:normal;font-weight:normal;font-size:7.97020006px;font-family:AdvTT6780a46b;-inkscape-font-specification:AdvTT6780a46b;writing-mode:lr-tb;fill:#231f20;fill-opacity:1;fill-rule:nonzero;stroke:none"
       id="text286"><tspan
         x="0 4.1445041 5.8023057 9.9468098"
         y="0"
         sodipodi:role="line"
         id="tspan284">5.03</tspan></text>
<text
       transform="matrix(1,0,0,-1,277.45592,163.21799)"
       style="font-variant:normal;font-weight:normal;font-size:7.97020006px;font-family:'AdvTT6780a46b 22';-inkscape-font-specification:'AdvTT6780a46b 22';writing-mode:lr-tb;fill:#231f20;fill-opacity:1;fill-rule:nonzero;stroke:none"
       id="text290"><tspan
         x="0"
         y="0"
         id="tspan288">−</tspan></text>
<text
       transform="matrix(1,0,0,-1,283.46545,163.21799)"
       style="font-variant:normal;font-weight:normal;font-size:7.97020006px;font-family:AdvTT6780a46b;-inkscape-font-specification:AdvTT6780a46b;writing-mode:lr-tb;fill:#231f20;fill-opacity:1;fill-rule:nonzero;stroke:none"
       id="text294"><tspan
         x="0 4.1445041 5.8023057 9.9468098"
         y="0"
         sodipodi:role="line"
         id="tspan292">2.36</tspan></text>
<text
       transform="matrix(1,0,0,-1,345.7709,163.21799)"
       style="font-variant:normal;font-weight:normal;font-size:7.97020006px;font-family:'AdvTT6780a46b 22';-inkscape-font-specification:'AdvTT6780a46b 22';writing-mode:lr-tb;fill:#231f20;fill-opacity:1;fill-rule:nonzero;stroke:none"
       id="text298"><tspan
         x="0"
         y="0"
         id="tspan296">−</tspan></text>
<text
       transform="matrix(1,0,0,-1,351.78043,163.21799)"
       style="font-variant:normal;font-weight:normal;font-size:7.97020006px;font-family:AdvTT6780a46b;-inkscape-font-specification:AdvTT6780a46b;writing-mode:lr-tb;fill:#231f20;fill-opacity:1;fill-rule:nonzero;stroke:none"
       id="text302"><tspan
         x="0 4.1445041 5.8023057 9.9468098"
         y="0"
         sodipodi:role="line"
         id="tspan300">5.48</tspan></text>
<text
       transform="matrix(1,0,0,-1,421.17298,163.21799)"
       style="font-variant:normal;font-weight:normal;font-size:7.97020006px;font-family:'AdvTT6780a46b 22';-inkscape-font-specification:'AdvTT6780a46b 22';writing-mode:lr-tb;fill:#231f20;fill-opacity:1;fill-rule:nonzero;stroke:none"
       id="text306"><tspan
         x="0"
         y="0"
         id="tspan304">−</tspan></text>
<text
       transform="matrix(1,0,0,-1,427.23909,163.21799)"
       style="font-variant:normal;font-weight:normal;font-size:7.97020006px;font-family:AdvTT6780a46b;-inkscape-font-specification:AdvTT6780a46b;writing-mode:lr-tb;fill:#231f20;fill-opacity:1;fill-rule:nonzero;stroke:none"
       id="text310"><tspan
         x="0 4.1445041 5.8023057 9.9468098 71.036003"
         y="0"
         sodipodi:role="line"
         id="tspan308">0.06(</tspan></text>
<text
       transform="matrix(1,0,0,-1,500.54341,163.21799)"
       style="font-variant:normal;font-weight:normal;font-size:7.97020006px;font-family:'AdvTT6780a46b 22';-inkscape-font-specification:'AdvTT6780a46b 22';writing-mode:lr-tb;fill:#231f20;fill-opacity:1;fill-rule:nonzero;stroke:none"
       id="text314"><tspan
         x="0"
         y="0"
         id="tspan312">−</tspan></text>
<text
       transform="matrix(1,0,0,-1,505.24902,163.21799)"
       style="font-variant:normal;font-weight:normal;font-size:7.97020006px;font-family:AdvTT6780a46b;-inkscape-font-specification:AdvTT6780a46b;writing-mode:lr-tb;fill:#231f20;fill-opacity:1;fill-rule:nonzero;stroke:none"
       id="text320"><tspan
         x="0 4.1445041 5.8023057 9.9468098 14.091313 18.368122 22.512627 24.170429 28.314932 32.459438"
         y="0"
         sodipodi:role="line"
         id="tspan316">1.25,1.13)</tspan><tspan
         x="-462.38876 -458.24426 -425.02844 -420.88394 -416.73944"
         y="8.9577074"
         sodipodi:role="line"
         id="tspan318">18252</tspan></text>
<text
       transform="matrix(1,0,0,-1,140.82597,154.26028)"
       style="font-variant:normal;font-weight:normal;font-size:7.97020006px;font-family:'AdvTT6780a46b 22';-inkscape-font-specification:'AdvTT6780a46b 22';writing-mode:lr-tb;fill:#231f20;fill-opacity:1;fill-rule:nonzero;stroke:none"
       id="text324"><tspan
         x="0"
         y="0"
         id="tspan322">−</tspan></text>
<text
       transform="matrix(1,0,0,-1,146.89209,154.26028)"
       style="font-variant:normal;font-weight:normal;font-size:7.97020006px;font-family:AdvTT6780a46b;-inkscape-font-specification:AdvTT6780a46b;writing-mode:lr-tb;fill:#231f20;fill-opacity:1;fill-rule:nonzero;stroke:none"
       id="text328"><tspan
         x="0 4.1445041 5.8023057 9.9468098"
         y="0"
         sodipodi:role="line"
         id="tspan326">3.29</tspan></text>
<text
       transform="matrix(1,0,0,-1,209.14095,154.26028)"
       style="font-variant:normal;font-weight:normal;font-size:7.97020006px;font-family:'AdvTT6780a46b 22';-inkscape-font-specification:'AdvTT6780a46b 22';writing-mode:lr-tb;fill:#231f20;fill-opacity:1;fill-rule:nonzero;stroke:none"
       id="text332"><tspan
         x="0"
         y="0"
         id="tspan330">−</tspan></text>
<text
       transform="matrix(1,0,0,-1,215.15048,154.26028)"
       style="font-variant:normal;font-weight:normal;font-size:7.97020006px;font-family:AdvTT6780a46b;-inkscape-font-specification:AdvTT6780a46b;writing-mode:lr-tb;fill:#231f20;fill-opacity:1;fill-rule:nonzero;stroke:none"
       id="text336"><tspan
         x="0 4.1445041 5.8023057 9.9468098"
         y="0"
         sodipodi:role="line"
         id="tspan334">7.63</tspan></text>
<text
       transform="matrix(1,0,0,-1,277.45592,154.26028)"
       style="font-variant:normal;font-weight:normal;font-size:7.97020006px;font-family:'AdvTT6780a46b 22';-inkscape-font-specification:'AdvTT6780a46b 22';writing-mode:lr-tb;fill:#231f20;fill-opacity:1;fill-rule:nonzero;stroke:none"
       id="text340"><tspan
         x="0"
         y="0"
         id="tspan338">−</tspan></text>
<text
       transform="matrix(1,0,0,-1,283.46545,154.26028)"
       style="font-variant:normal;font-weight:normal;font-size:7.97020006px;font-family:AdvTT6780a46b;-inkscape-font-specification:AdvTT6780a46b;writing-mode:lr-tb;fill:#231f20;fill-opacity:1;fill-rule:nonzero;stroke:none"
       id="text344"><tspan
         x="0 4.1445041 5.8023057 9.9468098"
         y="0"
         sodipodi:role="line"
         id="tspan342">2.05</tspan></text>
<text
       transform="matrix(1,0,0,-1,345.7709,154.26028)"
       style="font-variant:normal;font-weight:normal;font-size:7.97020006px;font-family:'AdvTT6780a46b 22';-inkscape-font-specification:'AdvTT6780a46b 22';writing-mode:lr-tb;fill:#231f20;fill-opacity:1;fill-rule:nonzero;stroke:none"
       id="text348"><tspan
         x="0"
         y="0"
         id="tspan346">−</tspan></text>
<text
       transform="matrix(1,0,0,-1,351.78043,154.26028)"
       style="font-variant:normal;font-weight:normal;font-size:7.97020006px;font-family:AdvTT6780a46b;-inkscape-font-specification:AdvTT6780a46b;writing-mode:lr-tb;fill:#231f20;fill-opacity:1;fill-rule:nonzero;stroke:none"
       id="text352"><tspan
         x="0 4.1445041 5.8023057 9.9468098 75.45787 79.602371 81.260178 85.404678 146.49387"
         y="0"
         sodipodi:role="line"
         id="tspan350">5.041.18(</tspan></text>
<text
       transform="matrix(1,0,0,-1,500.54341,154.26028)"
       style="font-variant:normal;font-weight:normal;font-size:7.97020006px;font-family:'AdvTT6780a46b 22';-inkscape-font-specification:'AdvTT6780a46b 22';writing-mode:lr-tb;fill:#231f20;fill-opacity:1;fill-rule:nonzero;stroke:none"
       id="text356"><tspan
         x="0"
         y="0"
         id="tspan354">−</tspan></text>
<text
       transform="matrix(1,0,0,-1,505.24902,154.26028)"
       style="font-variant:normal;font-weight:normal;font-size:7.97020006px;font-family:AdvTT6780a46b;-inkscape-font-specification:AdvTT6780a46b;writing-mode:lr-tb;fill:#231f20;fill-opacity:1;fill-rule:nonzero;stroke:none"
       id="text362"><tspan
         x="0 4.1445041 5.8023057 9.9468098 14.091313 18.368122 22.512627 24.170429 28.314932 32.459438"
         y="0"
         sodipodi:role="line"
         id="tspan358">0.41,2.77)</tspan><tspan
         x="-462.38876 -458.24426 -425.02844 -420.88394 -416.73944"
         y="8.9577074"
         sodipodi:role="line"
         id="tspan360">24290</tspan></text>
<text
       transform="matrix(1,0,0,-1,140.82597,145.30257)"
       style="font-variant:normal;font-weight:normal;font-size:7.97020006px;font-family:'AdvTT6780a46b 22';-inkscape-font-specification:'AdvTT6780a46b 22';writing-mode:lr-tb;fill:#231f20;fill-opacity:1;fill-rule:nonzero;stroke:none"
       id="text366"><tspan
         x="0"
         y="0"
         id="tspan364">−</tspan></text>
<text
       transform="matrix(1,0,0,-1,146.89209,145.30257)"
       style="font-variant:normal;font-weight:normal;font-size:7.97020006px;font-family:AdvTT6780a46b;-inkscape-font-specification:AdvTT6780a46b;writing-mode:lr-tb;fill:#231f20;fill-opacity:1;fill-rule:nonzero;stroke:none"
       id="text370"><tspan
         x="0 4.1445041 5.8023057 9.9468098"
         y="0"
         sodipodi:role="line"
         id="tspan368">2.96</tspan></text>
<text
       transform="matrix(1,0,0,-1,209.14095,145.30257)"
       style="font-variant:normal;font-weight:normal;font-size:7.97020006px;font-family:'AdvTT6780a46b 22';-inkscape-font-specification:'AdvTT6780a46b 22';writing-mode:lr-tb;fill:#231f20;fill-opacity:1;fill-rule:nonzero;stroke:none"
       id="text374"><tspan
         x="0"
         y="0"
         id="tspan372">−</tspan></text>
<text
       transform="matrix(1,0,0,-1,215.15048,145.30257)"
       style="font-variant:normal;font-weight:normal;font-size:7.97020006px;font-family:AdvTT6780a46b;-inkscape-font-specification:AdvTT6780a46b;writing-mode:lr-tb;fill:#231f20;fill-opacity:1;fill-rule:nonzero;stroke:none"
       id="text378"><tspan
         x="0 4.1445041 5.8023057 9.9468098"
         y="0"
         sodipodi:role="line"
         id="tspan376">7.16</tspan></text>
<text
       transform="matrix(1,0,0,-1,277.45592,145.30257)"
       style="font-variant:normal;font-weight:normal;font-size:7.97020006px;font-family:'AdvTT6780a46b 22';-inkscape-font-specification:'AdvTT6780a46b 22';writing-mode:lr-tb;fill:#231f20;fill-opacity:1;fill-rule:nonzero;stroke:none"
       id="text382"><tspan
         x="0"
         y="0"
         id="tspan380">−</tspan></text>
<text
       transform="matrix(1,0,0,-1,283.46545,145.30257)"
       style="font-variant:normal;font-weight:normal;font-size:7.97020006px;font-family:AdvTT6780a46b;-inkscape-font-specification:AdvTT6780a46b;writing-mode:lr-tb;fill:#231f20;fill-opacity:1;fill-rule:nonzero;stroke:none"
       id="text386"><tspan
         x="0 4.1445041 5.8023057 9.9468098"
         y="0"
         sodipodi:role="line"
         id="tspan384">2.15</tspan></text>
<text
       transform="matrix(1,0,0,-1,346.39496,145.30257)"
       style="font-variant:normal;font-weight:normal;font-size:7.97020006px;font-family:'AdvTT6780a46b 22';-inkscape-font-specification:'AdvTT6780a46b 22';writing-mode:lr-tb;fill:#231f20;fill-opacity:1;fill-rule:nonzero;stroke:none"
       id="text390"><tspan
         x="0"
         y="0"
         id="tspan388">−</tspan></text>
<text
       transform="matrix(1,0,0,-1,351.10057,145.30257)"
       style="font-variant:normal;font-weight:normal;font-size:7.97020006px;font-family:AdvTT6780a46b;-inkscape-font-specification:AdvTT6780a46b;writing-mode:lr-tb;fill:#231f20;fill-opacity:1;fill-rule:nonzero;stroke:none"
       id="text394"><tspan
         x="0 4.1445041 5.8023057 9.9468098 76.138527 80.283028 81.940826 86.085335 147.17453"
         y="0"
         sodipodi:role="line"
         id="tspan392">5.750.75(</tspan></text>
<text
       transform="matrix(1,0,0,-1,500.54341,145.30257)"
       style="font-variant:normal;font-weight:normal;font-size:7.97020006px;font-family:'AdvTT6780a46b 22';-inkscape-font-specification:'AdvTT6780a46b 22';writing-mode:lr-tb;fill:#231f20;fill-opacity:1;fill-rule:nonzero;stroke:none"
       id="text398"><tspan
         x="0"
         y="0"
         id="tspan396">−</tspan></text>
<text
       transform="matrix(1,0,0,-1,505.24902,145.30257)"
       style="font-variant:normal;font-weight:normal;font-size:7.97020006px;font-family:AdvTT6780a46b;-inkscape-font-specification:AdvTT6780a46b;writing-mode:lr-tb;fill:#231f20;fill-opacity:1;fill-rule:nonzero;stroke:none"
       id="text402"><tspan
         x="0 4.1445041 5.8023057 9.9468098 14.091313 18.368122 22.512627 24.170429 28.314932 32.459438"
         y="0"
         sodipodi:role="line"
         id="tspan400">0.73,2.24)</tspan></text>
<text
       transform="matrix(1,0,0,-1,39.8551,130.337)"
       style="font-variant:normal;font-weight:normal;font-size:7.47179985px;font-family:AdvTT6780a46b;-inkscape-font-specification:AdvTT6780a46b;writing-mode:lr-tb;fill:#231f20;fill-opacity:1;fill-rule:nonzero;stroke:none"
       id="text406"><tspan
         x="0 4.7445931 9.1006527 13.456712 15.944821 19.75544 23.491339 25.2771 28.930809 31.418919 33.204678 37.403831 41.778568 44.812122 48.864826 53.37854 55.164299 59.18338 62.605465 66.804619"
         y="0"
         sodipodi:role="line"
         id="tspan404">Abbreviations:CI,con</tspan></text>
<text
       transform="matrix(1,0,0,-1,111.00457,130.337)"
       style="font-variant:normal;font-weight:normal;font-size:7.47179985px;font-family:'AdvTT6780a46b +fb';-inkscape-font-specification:'AdvTT6780a46b +fb';writing-mode:lr-tb;fill:#231f20;fill-opacity:1;fill-rule:nonzero;stroke:none"
       id="text410"><tspan
         x="0"
         y="0"
         id="tspan408">ﬁ</tspan></text>
<text
       transform="matrix(1,0,0,-1,114.97284,130.337)"
       style="font-variant:normal;font-weight:normal;font-size:7.47179985px;font-family:AdvTT6780a46b;-inkscape-font-specification:AdvTT6780a46b;writing-mode:lr-tb;fill:#231f20;fill-opacity:1;fill-rule:nonzero;stroke:none"
       id="text414"><tspan
         x="0 4.3560596 8.1666775 12.440547 15.862632 22.165094 23.950855 28.224724 30.712833 34.523453 37.187149 40.92305 44.576759 46.362518 50.395798 54.281132 58.16647 62.243832 65.588951 69.614014 72.959137 76.769753 83.560127 86.905251 91.104408 97.959778 101.7704 103.55616 107.91222 110.94577 115.02313 118.1314 122.87599 127.23206 129.10001 133.29915 136.3327 138.82082 142.63144 149.48979 151.74628 155.94543 160.8275 165.18356 168.83728 171.87082 175.68144 177.46721 179.25296 183.52684 189.90849 195.51309 199.32372 201.10948 205.38335 209.65721 214.68199 218.33571 222.60957 229.47766 232.51122 234.29697 236.78508 240.5957"
         y="0"
         sodipodi:role="line"
         id="tspan412">denceinterval;10TT,TenTopTips.*Adjustedforbaselineweightandsite.</tspan></text>
</g></svg>