<?xml version="1.0" encoding="UTF-8" standalone="no"?>
<!-- Created with Inkscape (http://www.inkscape.org/) -->

<svg
   xmlns:dc="http://purl.org/dc/elements/1.1/"
   xmlns:cc="http://creativecommons.org/ns#"
   xmlns:rdf="http://www.w3.org/1999/02/22-rdf-syntax-ns#"
   xmlns:svg="http://www.w3.org/2000/svg"
   xmlns="http://www.w3.org/2000/svg"
   xmlns:sodipodi="http://sodipodi.sourceforge.net/DTD/sodipodi-0.dtd"
   xmlns:inkscape="http://www.inkscape.org/namespaces/inkscape"
   version="1.1"
   id="svg2"
   xml:space="preserve"
   width="793.70135"
   height="1054.488"
   viewBox="0 0 793.70135 1054.488"
   sodipodi:docname="table2.svg"
   inkscape:version="0.92.0 r15299"><metadata
     id="metadata8"><rdf:RDF><cc:Work
         rdf:about=""><dc:format>image/svg+xml</dc:format><dc:type
           rdf:resource="http://purl.org/dc/dcmitype/StillImage" /><dc:title></dc:title></cc:Work></rdf:RDF></metadata><defs
     id="defs6" /><sodipodi:namedview
     pagecolor="#ffffff"
     bordercolor="#666666"
     borderopacity="1"
     objecttolerance="10"
     gridtolerance="10"
     guidetolerance="10"
     inkscape:pageopacity="0"
     inkscape:pageshadow="2"
     inkscape:window-width="1920"
     inkscape:window-height="988"
     id="namedview4"
     showgrid="false"
     inkscape:zoom="0.89522116"
     inkscape:cx="386.08302"
     inkscape:cy="570.44503"
     inkscape:window-x="0"
     inkscape:window-y="27"
     inkscape:window-maximized="1"
     inkscape:current-layer="g10" /><g
     id="g10"
     inkscape:groupmode="layer"
     inkscape:label="fulltext"
     transform="matrix(1.3333333,0,0,-1.3333333,0,1054.488)"><g
       id="g610"
       transform="translate(45.354,731.565)"><path
         d="m 0,0 h 514.034 l -0.51,-0.454 H 0.454"
         style="fill:#231f20;fill-opacity:1;fill-rule:evenodd;stroke:#231f20;stroke-width:0.75;stroke-linecap:round;stroke-linejoin:round;stroke-miterlimit:10;stroke-dasharray:none;stroke-opacity:1"
         id="path612"
         inkscape:connector-curvature="0" /></g><g
       id="g614"
       transform="translate(559.389,731.565)"><path
         d="m 0,0 v -185.272 l -0.51,0.51 V -0.454"
         style="fill:#231f20;fill-opacity:1;fill-rule:evenodd;stroke:#231f20;stroke-width:0.75;stroke-linecap:round;stroke-linejoin:round;stroke-miterlimit:10;stroke-dasharray:none;stroke-opacity:1"
         id="path616"
         inkscape:connector-curvature="0" /></g><g
       id="g618"
       transform="translate(559.389,546.293)"><path
         d="m 0,0 h -514.034 l 0.453,0.51 H -0.51"
         style="fill:#231f20;fill-opacity:1;fill-rule:evenodd;stroke:#231f20;stroke-width:0.75;stroke-linecap:round;stroke-linejoin:round;stroke-miterlimit:10;stroke-dasharray:none;stroke-opacity:1"
         id="path620"
         inkscape:connector-curvature="0" /></g><g
       id="g622"
       transform="translate(45.354,546.293)"><path
         d="m 0,0 v 185.272 l 0.454,-0.453 V 0.51"
         style="fill:#231f20;fill-opacity:1;fill-rule:evenodd;stroke:#231f20;stroke-width:0.75;stroke-linecap:round;stroke-linejoin:round;stroke-miterlimit:10;stroke-dasharray:none;stroke-opacity:1"
         id="path624"
         inkscape:connector-curvature="0" /></g><g
       id="g626"
       transform="translate(48.302,715.124)"><path
         d="M 0,0 H 508.138 V -0.964 H 0"
         style="fill:#231f20;fill-opacity:1;fill-rule:evenodd;stroke:#231f20;stroke-width:0.75;stroke-linecap:round;stroke-linejoin:round;stroke-miterlimit:10;stroke-dasharray:none;stroke-opacity:1"
         id="path628"
         inkscape:connector-curvature="0" /></g><g
       id="g630"
       transform="translate(81.524,696.472)"><path
         d="M 0,0 H -33.222 V 0.227 H 0"
         style="fill:#231f20;fill-opacity:1;fill-rule:evenodd;stroke:#231f20;stroke-width:0.75;stroke-linecap:round;stroke-linejoin:round;stroke-miterlimit:10;stroke-dasharray:none;stroke-opacity:1"
         id="path632"
         inkscape:connector-curvature="0" /></g><g
       id="g634"
       transform="translate(556.441,696.472)"><path
         d="M 0,0 H -474.916 V 0.227 H 0"
         style="fill:#231f20;fill-opacity:1;fill-rule:evenodd;stroke:#231f20;stroke-width:0.75;stroke-linecap:round;stroke-linejoin:round;stroke-miterlimit:10;stroke-dasharray:none;stroke-opacity:1"
         id="path636"
         inkscape:connector-curvature="0" /></g><g
       id="g638"
       transform="translate(48.302,564.945)"><path
         d="M 0,0 H 508.138 V -0.964 H 0"
         style="fill:#231f20;fill-opacity:1;fill-rule:evenodd;stroke:#231f20;stroke-width:0.75;stroke-linecap:round;stroke-linejoin:round;stroke-miterlimit:10;stroke-dasharray:none;stroke-opacity:1"
         id="path640"
         inkscape:connector-curvature="0" /></g><text
       transform="matrix(1,0,0,-1,49.3228,720.6234)"
       style="font-variant:normal;font-weight:normal;font-size:8.46819973px;font-family:AdvOT919a0533;-inkscape-font-specification:AdvOT919a0533;writing-mode:lr-tb;fill:#231f20;fill-opacity:1;fill-rule:nonzero;stroke:none"
       id="text644"><tspan
         x="0 3.260257 6.7830281 10.483631 12.3297 18.707947 22.230719"
         y="0"
         sodipodi:role="line"
         id="tspan642">Table2.</tspan></text>
<text
       transform="matrix(1,0,0,-1,81.9779,720.6234)"
       style="font-variant:normal;font-weight:normal;font-size:7.97020006px;font-family:AdvTT6780a46b;-inkscape-font-specification:AdvTT6780a46b;writing-mode:lr-tb;fill:#231f20;fill-opacity:1;fill-rule:nonzero;stroke:none"
       id="text648"><tspan
         x="0 5.3081532 8.544054 13.023307 16.920734 21.429478 25.079828 28.977257 31.631332 38.323112 42.802364 47.44899 50.103069 52.007946 56.487198 61.046154 66.895485 71.542107 78.006737 82.318619 87.132614"
         y="0"
         sodipodi:role="line"
         id="tspan646">UsualcareoptionsbyPCP</tspan></text>
<text
       transform="matrix(1,0,0,-1,52.327162,702.93514)"
       style="font-variant:normal;font-weight:normal;font-size:7.97020006px;font-family:AdvOT65f8a23b;-inkscape-font-specification:AdvOT65f8a23b;writing-mode:lr-tb;fill:#231f20;fill-opacity:1;fill-rule:nonzero;stroke:none"
       id="text652"><tspan
         x="0 3.9851 8.3846502 29.196436 34.090141 36.991291 41.135796 45.2803 49.661518 52.977123 57.121628 59.60833"
         y="0"
         sodipodi:role="line"
         id="tspan650">PCPUsualcare</tspan></text>
<text
       transform="matrix(1,0,0,-1,52.327162,685.75696)"
       style="font-variant:normal;font-weight:normal;font-size:7.97020006px;font-family:AdvTT6780a46b;-inkscape-font-specification:AdvTT6780a46b;writing-mode:lr-tb;fill:#231f20;fill-opacity:1;fill-rule:nonzero;stroke:none"
       id="text682"><tspan
         x="0 4.3118782 9.1258793 16.044012 29.196436 33.093864 34.998741 37.405743 41.328674 44.564575 47.218655 51.036377 52.941257 59.640209 63.537636 68.184265 72.169365 74.074242 77.724594 81.789398 86.515724 93.322273 97.801529 102.27122 104.17609 106.83017 111.30943 113.9635 115.86838 120.42733 127.61246 129.8521 136.65865 141.13789 145.69685 148.35092 152.90988 154.81476 161.22997 165.1274 169.77403 174.42065 178.8999 180.80478 185.36374 188.01782 194.7343 198.7991 203.35806 206.01213 209.24803 211.48766 216.21399 219.86435 224.3436 231.15015 237.9567 242.35466 246.9136 248.81848 251.47256 257.94516 260.59924 264.66403 266.95865 271.02347 273.67755 276.3316 280.22903 284.75931 286.99893 291.55789 295.37561 304.77167 309.4183 312.07239 316.13718 319.37308 323.02344 325.67752 327.5824 332.22903 334.88309 336.78796 341.26721 345.82617 350.06714 354.21164 361.00861 366.98627 371.05106 375.11588 378.93359 382.16949"
         y="0"
         sodipodi:role="line"
         id="tspan654">PCP1Lifestyleadvice+monitoring(monthlyappointments)+communityreferral(gymprescription:12weeks)</tspan><tspan
         x="0 4.3118782 9.1258793 16.044012 29.196436 33.093864 34.998741 37.405743 41.328674 44.564575 47.218655 51.036377 52.941257 59.640209 63.537636 68.184265 72.169365 74.074242 77.724594 81.789398 86.515724 89.1698 93.234604 95.468651 99.533455 102.18753 104.84161 108.73903 113.32668 115.98076 123.07742 127.72405 129.62892 133.69373 136.34781 138.25269 140.90675 142.81163 146.70906 151.26802 155.99435 162.70445 167.18372 171.74266 173.64754 176.30162 180.78087 183.43495 185.33983 189.89879 197.1158 199.35542 205.33307 209.39787 213.46268 217.28041 219.18529 225.63158 229.52901 234.17563 238.82227 243.30151 245.20639 249.76535 252.41942 259.22598 263.29077 267.84973 270.41693 273.65283"
         y="8.9577074"
         sodipodi:role="line"
         id="tspan656">PCP2Lifestyleadvice+referraltodietitian+monitoring(weeklyappointments)</tspan><tspan
         x="0 4.3118782 9.1258793 16.044012 29.196436 33.595985 37.660789 40.067791 43.993114 46.64719 49.301266 53.198692 57.768806 60.422882 67.519547 72.166176 74.071053 78.135857 80.789932 82.694809 85.348885 87.253761 91.151192 98.302856 100.54248 107.34903 109.25391 113.81286 115.71774 122.52429 127.00354 136.39882 143.20218 147.09961 151.74623 156.39285 160.87212 162.77699 167.33594 169.99002 176.70651 180.77132 185.33026 187.98434 191.22025"
         y="17.915417"
         sodipodi:role="line"
         id="tspan658">PCP3Referraltodietitian(minimum2appointments)</tspan><tspan
         x="0 4.3118782 9.1258793 16.044012 29.196436 33.595985 37.660789 40.067791 43.993114 46.64719 49.301266 53.198692 57.768806 60.422882 67.519547 72.166176 74.071053 78.135857 80.789932 82.694809 85.348885 87.253761 91.151192 98.302856 100.54248 107.34903 109.25391 113.81286 115.71774 122.52429 127.00354 136.39882 143.20218 147.09961 151.74623 156.39285 160.87212 162.77699 167.33594 169.99002 176.70651 180.77132 185.33026 187.98434 191.22025"
         y="26.873123"
         sodipodi:role="line"
         id="tspan660">PCP4Referraltodietitian(minimum2appointments)</tspan><tspan
         x="0 4.3118782 9.1258793 16.044012 29.196436 34.010437 38.380497 45.18705 51.993599 56.472851 61.031807 62.936684 65.590759 71.998001 74.652084 78.716881 81.011505 85.076309 87.730385 90.38446 94.281883 98.812149 101.05177 105.86578 109.76321 116.56976 121.21638 125.28118 132.42966 139.06245 143.12726 145.03214 149.59109 154.15004 159.41437 165.96587 169.8633 174.42224 178.31967 182.87863 186.94344 193.74998 197.73747 202.29643 204.9505 209.24565 213.39015 220.18713 226.16478 230.22958 234.29439 238.11212 240.08554 246.54857 249.78447 253.84927 257.08517 260.32108 262.22595 266.7052 271.26416 274.50006"
         y="35.887421"
         sodipodi:role="line"
         id="tspan662">PCP5Communityreferral(CamdenWeightManagement:12weeklysessions)</tspan><tspan
         x="0 4.3118782 9.1258793 16.044012 29.196436 33.093864 34.998741 37.405743 41.328674 44.564575 47.218655 51.036377 52.941257 59.640209 63.537636 68.184265 72.169365 74.074242 77.724594 81.789398 86.515724 89.1698 93.234604 95.468651 99.533455 102.18753 104.84161 108.73903 113.32668 115.98076 123.07742 127.72405 129.62892 133.69373 136.34781 138.25269 140.90675 142.81163 146.70906 151.26802 154.0018 158.56554 161.80144 165.61916 169.26952 173.82846 178.30772 180.2126 184.69185 189.25081 191.15569 194.39159 199.66626 204.14551 209.41701 213.06735 217.54662 224.35316 231.15971 235.63896 240.19792 242.1028 244.75687 251.14101 253.79507 257.85989 260.15451 264.2193 266.87338 269.52747 273.4249 278.01254 280.25217 285.06616 288.96359 295.77014 300.41678 304.37396 311.57425 316.63531 320.28568 322.93976 324.84464 328.82974 335.44101 340.74918 344.81396 348.7114 350.61627 353.27036 357.82932 362.08539 366.22989 373.02689 379.00452 383.06934 387.13412 390.95187 392.92529 399.38831 402.62421 406.68903 409.92493 413.16083 415.0657 419.54495 424.10391 427.33981"
         y="44.845127"
         sodipodi:role="line"
         id="tspan664">PCP6Lifestyleadvice+referraltodietitian/psychologistorcommunityreferral(CamdenActiveHealth:12weeklysessions)</tspan><tspan
         x="0 4.3118782 9.1258793 16.044012 29.196436 34.010437 38.380497 45.18705 51.993599 56.472851 61.031807 62.936684 65.590759 71.998001 74.652084 78.716881 81.011505 85.076309 87.730385 90.38446 94.281883 98.812149 101.47659 108.10939 112.17419 114.07906 118.63802 123.19698 128.46129 135.09409 138.99152 141.6456 145.29594 149.8549 153.91971 156.57378 159.80968 164.06339 168.20789 175.00487 180.98251 185.04732 189.11212 192.92986 194.83473 201.30972 204.54562 208.61043 211.84633 215.08223 216.98711 221.46635 226.02531 229.26122"
         y="53.802834"
         sodipodi:role="line"
         id="tspan666">PCP7Communityreferral(WeightWatchers:12weeklysessions)</tspan><tspan
         x="0 4.3118782 9.1258793 16.044012 29.196436 34.010437 38.380497 45.18705 51.993599 56.472851 61.031807 62.936684 65.590759 71.998001 74.652084 78.716881 81.011505 85.076309 87.730385 90.38446 94.281883 98.812149 101.47659 108.10939 112.17419 114.07906 118.63802 123.19698 128.46129 135.09409 138.99152 141.6456 145.29594 149.8549 153.91971 156.57378 159.80968 164.06339 168.20789 175.00487 180.98251 185.04732 189.11212 192.92986 194.83473 201.30972 204.54562 208.61043 211.84633 215.08223 216.98711 221.46635 226.02531 229.26122"
         y="62.760544"
         sodipodi:role="line"
         id="tspan668">PCP8Communityreferral(WeightWatchers:12weeklysessions)</tspan><tspan
         x="0 4.3118782 9.1258793 16.044012 29.196436 33.093864 34.998741 37.405743 41.328674 44.564575 47.218655 51.036377 52.941257 59.640209 63.537636 68.184265 72.169365 74.074242 77.724594 81.789398 86.515724 93.322273 97.801529 102.27122 104.17609 106.83017 111.30943 113.9635 115.86838 120.42733 124.98628 129.71262 133.36296 137.84222 144.56268 151.36925 155.8485 160.40746 162.31233 164.9664 171.43422 174.0883 178.15309 180.44772 184.51253 187.1666 189.82068 193.71811 198.24837 200.48799 205.13461 207.03949 211.10429 216.38934 220.28676 224.84572 232.09302 236.15782 239.97556 244.04034 246.69443 250.23399 252.13887 255.37477 262.08249 263.98737 265.89224 268.29926 272.36404 275.59995 278.1257 281.94342 283.8483 290.54089 293.19498 295.84903 299.74646 301.65134 306.2103 310.27512 312.92917 317.29926 324.1058 326.01068 330.56961 332.47449 339.28107 343.76031 353.18427 359.93103 363.82846 368.4751 373.12173 377.60098 379.50586 384.06482 386.71887 393.52545 397.59024 402.1492 404.7164 407.9523"
         y="71.718254"
         sodipodi:role="line"
         id="tspan670">PCP9Lifestyleadvice+monitoring+communityreferral(dietandexerciselifestyletrainer:minimum2appointments)</tspan><tspan
         x="0 4.3118782 9.1258793 15.930038 20.074543 29.195641 33.093067 34.997944 37.404945 41.327877 44.563778 47.217857 51.035583 52.94046 59.639412 63.536839 68.183464 72.168564 74.073448 77.723793 81.788597 86.514931 93.32148 97.800728 102.27042 104.17529 106.82938 111.30862 113.9627 115.86758 120.42654 127.61167 129.85129 136.65785 141.1371 145.69606 148.35013 152.90909 154.81396 161.22917 165.1266 169.77322 174.41986 178.89911 180.80399 185.36295 188.01701 194.73351 198.79831 203.35727 206.01134 209.24724"
         y="80.675957"
         sodipodi:role="line"
         id="tspan672">PCP10Lifestyleadvice+monitoring(monthlyappointments)</tspan><tspan
         x="0 4.3118782 9.1258793 15.930038 20.074543 29.195641 33.093067 34.997944 37.404945 41.327877 44.563778 47.217857 51.035583 52.94046 59.639412 63.536839 68.183464 72.168564 74.073448 77.723793 81.788597 86.514931 90.165276 94.644531 101.36341 108.16996 112.64922 117.20817 119.11304 121.76712 128.17834 130.83243 134.89723 137.30423 141.36903 144.0231 146.67719 150.45744 155.04988 157.28951 161.93613 163.841 167.90581 173.19086 176.8412 178.74608 183.22533 190.4814 194.96066 200.23215 204.79111 208.60883 215.41537 219.73363 223.87814 230.61853 236.59619 240.66098 244.72578 248.54352 251.77942"
         y="89.690254"
         sodipodi:role="line"
         id="tspan674">PCP11Lifestyleadvice+communityreferral(dietcluborgym:12weeks)</tspan><tspan
         x="0 4.3118782 9.1258793 15.930038 20.074543 29.195641 33.093067 34.997944 37.404945 41.327877 44.563778 47.217857 51.035583 52.94046 59.639412 63.536839 68.183464 72.168564 74.073448 77.723793 81.788597 86.514931 89.169006 93.233803 95.46785 99.532654 102.18673 104.84081 108.73824 113.32588 115.97996 123.07662 127.72325 129.62813 133.69293 136.34702 138.25189 140.90596 142.81084 146.70827 151.26723 155.99355 159.64391 164.12315 170.81015 177.6167 182.09596 186.65491 188.55978 191.21387 197.68169 200.33575 204.40056 206.69598 210.76079 213.41486 216.06894 219.96635 224.49663 226.73625 230.80106 235.2803 242.08685 246.15166 248.80574 252.04164 256.10645 261.34525 266.27722 270.01923 272.67331 274.57819 278.56326 280.46814 283.12222 289.5773 293.47473 298.03366 305.28098 309.13617 311.04105 313.69513 318.25406 322.31888 325.55478 331.41605 336.72421 339.3783 343.85754 348.33679 352.98343 357.21002 361.35452 368.15152 374.12915 378.19397 382.25876 386.07648 388.0499 394.51294 397.74884 401.81366 405.04956 408.28546 410.19034 414.66959 419.22855 422.46445"
         y="98.647964"
         sodipodi:role="line"
         id="tspan676">PCP12Lifestyleadvice+referraltodietitian+communityreferral(SomersetActivityandFitnessGroup:12weeklysessions)</tspan><tspan
         x="0 4.3118782 9.1258793 15.930038 20.074543 29.195641 33.093067 34.997944 37.404945 41.327877 44.563778 47.217857 51.035583 52.94046 59.52544 63.422867 68.069496 72.054596 73.959473 77.609825 81.674622 86.400955 93.207504 97.68676 102.15644 104.06133 106.7154 111.19465 113.84872 115.75361 120.31256 127.38372 129.62335 136.28404 143.09059 147.56984 152.1288 154.78288 159.34183 165.08276 169.7294 172.38347 176.86272 181.42168 184.07576 187.97318 194.77974 201.58629 205.55943 209.75494 215.73259 219.79739 223.8622 227.67992 229.65334 236.0032 238.4102 242.74918 247.96487 254.65506 260.63272 264.69751 268.76233 272.58005 275.68762 279.88315 282.5372 287.09616 291.16098 298.19467 305.00122 309.48047 314.03943 316.69351 321.25247 323.15735 326.97507 329.21469 333.39984 337.0502 341.52945 348.336 355.14255 359.6218 364.06918 365.97406 368.62811 375.01065 377.66473 381.72955 384.02417 388.08896 390.74304 393.39713 397.29456 401.71164 403.95126 408.59787 410.50275 414.56757 419.73941 423.38977 425.29465 429.7739 436.91681 441.39606 446.55435 451.11331 454.93106 461.73761 465.94269 470.08719 476.771 482.74863 486.81345 490.87823 494.69595 497.93185"
         y="107.60567"
         sodipodi:role="line"
         id="tspan678">PCP13Lifestyleadvice+monitoring(6monthsprogramme:weeklyfor4weeks,thenmonthly),communityreferral(dietcluborgym:12weeks)</tspan><tspan
         x="0 4.3118782 9.1258793 15.930038 20.074543 29.195641 33.093067 34.997944 37.404945 41.327877 44.563778 47.217857 51.035583 52.94046 59.639412 63.536839 68.183464 72.168564 74.073448 77.723793 81.788597 86.514931 90.165276 94.644531 101.36341 108.16996 112.64922 117.20817 119.11304 121.76712 128.17834 130.83243 134.89723 137.30423 141.36903 144.0231 146.67719 150.45744 155.04988 157.28951 161.35431 163.25919 165.16406 171.97061 178.77716 180.68204 185.15253 192.35281 198.98561 203.46486 206.11894 208.02382 212.67044 217.39677 221.95572 225.77345 235.15437 239.80099 242.45508 246.51988 249.75578 253.40613 256.06021 257.96509 262.61172 265.26578 267.17065 271.64993 276.20886 280.44983 284.59433 291.3913 297.36896 301.43375 305.49857 309.31628 312.55219"
         y="116.56338"
         sodipodi:role="line"
         id="tspan680">PCP14Lifestyleadvice+communityreferral(SlimmingWorld+gymprescription,12weeks)</tspan></text>
<text
       transform="matrix(1,0,0,-1,49.3228,554.2298)"
       style="font-variant:normal;font-weight:normal;font-size:7.47179985px;font-family:AdvTT6780a46b;-inkscape-font-specification:AdvTT6780a46b;writing-mode:lr-tb;fill:#231f20;fill-opacity:1;fill-rule:nonzero;stroke:none"
       id="text686"><tspan
         x="0 4.7445931 9.1006527 13.456712 15.944821 19.75544 23.491339 25.2771 28.930809 31.418919 33.204678 37.403831 41.6777 45.803627 49.845871 54.358841 57.424519 61.449577 65.805634 68.293747 70.079506 76.460426 80.114136 82.821167 88.88752 92.309608 95.963318 98.451424 104.76061 109.11668 113.39054 116.96954 120.00308 121.78885 125.21093 126.99669 130.65041 134.92427"
         y="0"
         sodipodi:role="line"
         id="tspan684">Abbreviation:PCP,primarycarephysician.</tspan></text>
</g></svg>