<?xml version="1.0" encoding="UTF-8" standalone="no"?>
<!-- Created with Inkscape (http://www.inkscape.org/) -->

<svg
   xmlns:dc="http://purl.org/dc/elements/1.1/"
   xmlns:cc="http://creativecommons.org/ns#"
   xmlns:rdf="http://www.w3.org/1999/02/22-rdf-syntax-ns#"
   xmlns:svg="http://www.w3.org/2000/svg"
   xmlns="http://www.w3.org/2000/svg"
   xmlns:sodipodi="http://sodipodi.sourceforge.net/DTD/sodipodi-0.dtd"
   xmlns:inkscape="http://www.inkscape.org/namespaces/inkscape"
   version="1.1"
   id="svg2"
   xml:space="preserve"
   width="793.70135"
   height="1054.488"
   viewBox="0 0 793.70135 1054.488"
   sodipodi:docname="table3.svg"
   inkscape:version="0.92.0 r15299"><metadata
     id="metadata8"><rdf:RDF><cc:Work
         rdf:about=""><dc:format>image/svg+xml</dc:format><dc:type
           rdf:resource="http://purl.org/dc/dcmitype/StillImage" /><dc:title></dc:title></cc:Work></rdf:RDF></metadata><defs
     id="defs6" /><sodipodi:namedview
     pagecolor="#ffffff"
     bordercolor="#666666"
     borderopacity="1"
     objecttolerance="10"
     gridtolerance="10"
     guidetolerance="10"
     inkscape:pageopacity="0"
     inkscape:pageshadow="2"
     inkscape:window-width="1920"
     inkscape:window-height="988"
     id="namedview4"
     showgrid="false"
     inkscape:zoom="0.89522116"
     inkscape:cx="126.2513"
     inkscape:cy="617.95213"
     inkscape:window-x="0"
     inkscape:window-y="27"
     inkscape:window-maximized="1"
     inkscape:current-layer="g10" /><g
     id="g10"
     inkscape:groupmode="layer"
     inkscape:label="fulltext"
     transform="matrix(1.3333333,0,0,-1.3333333,0,1054.488)"><g
       id="g298"
       transform="translate(45.354,512.901)"><path
         d="m 0,0 h 514.034 l -0.51,-0.51 H 0.454"
         style="fill:#231f20;fill-opacity:1;fill-rule:evenodd;stroke:#231f20;stroke-width:0.75;stroke-linecap:round;stroke-linejoin:round;stroke-miterlimit:10;stroke-dasharray:none;stroke-opacity:1"
         id="path300"
         inkscape:connector-curvature="0" /></g><g
       id="g302"
       transform="translate(559.389,512.901)"><path
         d="m 0,0 v -136.006 l -0.51,0.51 V -0.51"
         style="fill:#231f20;fill-opacity:1;fill-rule:evenodd;stroke:#231f20;stroke-width:0.75;stroke-linecap:round;stroke-linejoin:round;stroke-miterlimit:10;stroke-dasharray:none;stroke-opacity:1"
         id="path304"
         inkscape:connector-curvature="0" /></g><g
       id="g306"
       transform="translate(559.389,376.894)"><path
         d="m 0,0 h -514.034 l 0.453,0.51 H -0.51"
         style="fill:#231f20;fill-opacity:1;fill-rule:evenodd;stroke:#231f20;stroke-width:0.75;stroke-linecap:round;stroke-linejoin:round;stroke-miterlimit:10;stroke-dasharray:none;stroke-opacity:1"
         id="path308"
         inkscape:connector-curvature="0" /></g><g
       id="g310"
       transform="translate(45.354,376.894)"><path
         d="m 0,0 v 136.006 l 0.454,-0.51 V 0.51"
         style="fill:#231f20;fill-opacity:1;fill-rule:evenodd;stroke:#231f20;stroke-width:0.75;stroke-linecap:round;stroke-linejoin:round;stroke-miterlimit:10;stroke-dasharray:none;stroke-opacity:1"
         id="path312"
         inkscape:connector-curvature="0" /></g><g
       id="g314"
       transform="translate(48.302,496.46)"><path
         d="M 0,0 H 508.138 V -0.964 H 0"
         style="fill:#231f20;fill-opacity:1;fill-rule:evenodd;stroke:#231f20;stroke-width:0.75;stroke-linecap:round;stroke-linejoin:round;stroke-miterlimit:10;stroke-dasharray:none;stroke-opacity:1"
         id="path316"
         inkscape:connector-curvature="0" /></g><g
       id="g318"
       transform="translate(380.523,477.808)"><path
         d="M 0,0 H -101.82 V 0.227 H 0"
         style="fill:#231f20;fill-opacity:1;fill-rule:evenodd;stroke:#231f20;stroke-width:0.75;stroke-linecap:round;stroke-linejoin:round;stroke-miterlimit:10;stroke-dasharray:none;stroke-opacity:1"
         id="path320"
         inkscape:connector-curvature="0" /></g><g
       id="g322"
       transform="translate(242.872,455.357)"><path
         d="M 0,0 H -194.57 V 0.283 H 0"
         style="fill:#231f20;fill-opacity:1;fill-rule:evenodd;stroke:#231f20;stroke-width:0.75;stroke-linecap:round;stroke-linejoin:round;stroke-miterlimit:10;stroke-dasharray:none;stroke-opacity:1"
         id="path324"
         inkscape:connector-curvature="0" /></g><g
       id="g326"
       transform="translate(278.702,455.357)"><path
         d="M 0,0 H -35.83 V 0.283 H 0"
         style="fill:#231f20;fill-opacity:1;fill-rule:evenodd;stroke:#231f20;stroke-width:0.75;stroke-linecap:round;stroke-linejoin:round;stroke-miterlimit:10;stroke-dasharray:none;stroke-opacity:1"
         id="path328"
         inkscape:connector-curvature="0" /></g><g
       id="g330"
       transform="translate(348.094,455.357)"><path
         d="M 0,0 H -69.392 V 0.283 H 0"
         style="fill:#231f20;fill-opacity:1;fill-rule:evenodd;stroke:#231f20;stroke-width:0.75;stroke-linecap:round;stroke-linejoin:round;stroke-miterlimit:10;stroke-dasharray:none;stroke-opacity:1"
         id="path332"
         inkscape:connector-curvature="0" /></g><g
       id="g334"
       transform="translate(403.937,455.357)"><path
         d="M 0,0 H -55.842 V 0.283 H 0"
         style="fill:#231f20;fill-opacity:1;fill-rule:evenodd;stroke:#231f20;stroke-width:0.75;stroke-linecap:round;stroke-linejoin:round;stroke-miterlimit:10;stroke-dasharray:none;stroke-opacity:1"
         id="path336"
         inkscape:connector-curvature="0" /></g><g
       id="g338"
       transform="translate(459.326,455.357)"><path
         d="M 0,0 H -55.389 V 0.283 H 0"
         style="fill:#231f20;fill-opacity:1;fill-rule:evenodd;stroke:#231f20;stroke-width:0.75;stroke-linecap:round;stroke-linejoin:round;stroke-miterlimit:10;stroke-dasharray:none;stroke-opacity:1"
         id="path340"
         inkscape:connector-curvature="0" /></g><g
       id="g342"
       transform="translate(528.605,455.357)"><path
         d="M 0,0 H -69.279 V 0.283 H 0"
         style="fill:#231f20;fill-opacity:1;fill-rule:evenodd;stroke:#231f20;stroke-width:0.75;stroke-linecap:round;stroke-linejoin:round;stroke-miterlimit:10;stroke-dasharray:none;stroke-opacity:1"
         id="path344"
         inkscape:connector-curvature="0" /></g><g
       id="g346"
       transform="translate(556.441,455.357)"><path
         d="M 0,0 H -27.836 V 0.283 H 0"
         style="fill:#231f20;fill-opacity:1;fill-rule:evenodd;stroke:#231f20;stroke-width:0.75;stroke-linecap:round;stroke-linejoin:round;stroke-miterlimit:10;stroke-dasharray:none;stroke-opacity:1"
         id="path348"
         inkscape:connector-curvature="0" /></g><g
       id="g350"
       transform="translate(48.302,413.518)"><path
         d="M 0,0 H 508.138 V -0.964 H 0"
         style="fill:#231f20;fill-opacity:1;fill-rule:evenodd;stroke:#231f20;stroke-width:0.75;stroke-linecap:round;stroke-linejoin:round;stroke-miterlimit:10;stroke-dasharray:none;stroke-opacity:1"
         id="path352"
         inkscape:connector-curvature="0" /></g><text
       transform="matrix(1,0,0,-1,49.3228,501.9589)"
       style="font-variant:normal;font-weight:normal;font-size:8.46819973px;font-family:AdvOT919a0533;-inkscape-font-specification:AdvOT919a0533;writing-mode:lr-tb;fill:#231f20;fill-opacity:1;fill-rule:nonzero;stroke:none"
       id="text356"><tspan
         x="0 3.260257 6.7830281 10.483631 12.3297 18.707947 22.230719"
         y="0"
         sodipodi:role="line"
         id="tspan354">Table3.</tspan></text>
<text
       transform="matrix(1,0,0,-1,81.9779,501.9589)"
       style="font-variant:normal;font-weight:normal;font-size:7.97020006px;font-family:AdvTT6780a46b;-inkscape-font-specification:AdvTT6780a46b;writing-mode:lr-tb;fill:#231f20;fill-opacity:1;fill-rule:nonzero;stroke:none"
       id="text360"><tspan
         x="0 4.0648022 8.1296043 12.688559 15.924459 17.829338 20.483414 22.388292 26.373392 28.278269 30.839891 37.302929 41.200356 45.759308 49.656738 51.561615 55.379341 58.615242 62.680042 68.539734 70.946732 75.425987 80.615387 87.421936 89.326813 92.562714 95.798615 97.703491 102.26245 109.4707 114.11732 116.7714 118.67628 125.48283 129.38025 132.14671 138.60974 143.089 147.56825 150.22234 153.87268 158.35193 165.15848 169.10931"
         y="0"
         sodipodi:role="line"
         id="tspan358">Sensitivityanalysesformissingprimaryoutcomes</tspan></text>
<text
       transform="matrix(1,0,0,-1,52.327162,484.27064)"
       style="font-variant:normal;font-weight:normal;font-size:7.97020006px;font-family:AdvOT65f8a23b;-inkscape-font-specification:AdvOT65f8a23b;writing-mode:lr-tb;fill:#231f20;fill-opacity:1;fill-rule:nonzero;stroke:none"
       id="text364"><tspan
         x="0 6.137054 9.6997337 12.186436 16.418612 20.563116 194.28638 235.55927 241.69632 245.25899 249.4035 256.2515 261.80673 265.36942 267.1069 271.2514 275.48358 280.57178 283.88736 288.11954 292.26404 296.49622 300.64072 306.82001 309.05966 312.62231 316.76685 351.60696 356.74774 358.48526 360.72488 362.96451 366.52719 369.01389 372.57657 376.80875 380.12433 418.55984 422.45728 426.35471 435.11395 439.51349"
         y="0"
         sodipodi:role="line"
         id="tspan362">MethodNMeanweightchange(kg)Difference95%CI</tspan></text>
<text
       transform="matrix(1,0,0,-1,528.60559,484.27064)"
       style="font-variant:normal;font-weight:normal;font-size:7.97020006px;font-family:AdvTT6780a46b;-inkscape-font-specification:AdvTT6780a46b;writing-mode:lr-tb;fill:#231f20;fill-opacity:1;fill-rule:nonzero;stroke:none"
       id="text368"><tspan
         x="0"
         y="0"
         id="tspan366">P</tspan></text>
<text
       transform="matrix(1,0,0,-1,532.91428,484.27064)"
       style="font-variant:normal;font-weight:normal;font-size:7.97020006px;font-family:AdvOT65f8a23b;-inkscape-font-specification:AdvOT65f8a23b;writing-mode:lr-tb;fill:#231f20;fill-opacity:1;fill-rule:nonzero;stroke:none"
       id="text374"><tspan
         x="0 2.4070003 5.9696798 10.114183 11.851687 15.996191"
         y="0"
         sodipodi:role="line"
         id="tspan370">-value</tspan><tspan
         x="-248.71248 -243.81879 -240.91763 -236.77312 -232.62862 -228.30399 -223.90443 -219.75993 -217.27322 -176.20358 -172.30615 -168.40874 -164.67868"
         y="22.393871"
         sodipodi:role="line"
         id="tspan372">UsualCare10TT</tspan></text>
<text
       transform="matrix(1,0,0,-1,52.327162,444.642)"
       style="font-variant:normal;font-weight:normal;font-size:7.97020006px;font-family:AdvTT6780a46b;-inkscape-font-specification:AdvTT6780a46b;writing-mode:lr-tb;fill:#231f20;fill-opacity:1;fill-rule:nonzero;stroke:none"
       id="text378"><tspan
         x="0 4.1955132 6.8495898 8.754468 15.561019 19.458447 22.223309 28.686344 32.583771 37.142727 41.040154 42.94503 46.762756 49.998657 51.903538 190.54356 194.68808 198.83258"
         y="0"
         sodipodi:role="line"
         id="tspan376">Primaryanalysis383</tspan></text>
<text
       transform="matrix(1,0,0,-1,291.62843,444.642)"
       style="font-variant:normal;font-weight:normal;font-size:7.97020006px;font-family:'AdvTT6780a46b 22';-inkscape-font-specification:'AdvTT6780a46b 22';writing-mode:lr-tb;fill:#231f20;fill-opacity:1;fill-rule:nonzero;stroke:none"
       id="text382"><tspan
         x="0"
         y="0"
         id="tspan380">−</tspan></text>
<text
       transform="matrix(1,0,0,-1,297.69455,444.642)"
       style="font-variant:normal;font-weight:normal;font-size:7.97020006px;font-family:AdvTT6780a46b;-inkscape-font-specification:AdvTT6780a46b;writing-mode:lr-tb;fill:#231f20;fill-opacity:1;fill-rule:nonzero;stroke:none"
       id="text386"><tspan
         x="0 4.1445041 5.8023057 9.9468098"
         y="0"
         sodipodi:role="line"
         id="tspan384">0.84</tspan></text>
<text
       transform="matrix(1,0,0,-1,354.89827,444.642)"
       style="font-variant:normal;font-weight:normal;font-size:7.97020006px;font-family:'AdvTT6780a46b 22';-inkscape-font-specification:'AdvTT6780a46b 22';writing-mode:lr-tb;fill:#231f20;fill-opacity:1;fill-rule:nonzero;stroke:none"
       id="text390"><tspan
         x="0"
         y="0"
         id="tspan388">−</tspan></text>
<text
       transform="matrix(1,0,0,-1,360.96439,444.642)"
       style="font-variant:normal;font-weight:normal;font-size:7.97020006px;font-family:AdvTT6780a46b;-inkscape-font-specification:AdvTT6780a46b;writing-mode:lr-tb;fill:#231f20;fill-opacity:1;fill-rule:nonzero;stroke:none"
       id="text394"><tspan
         x="0 4.1445041 5.8023057 9.9468098"
         y="0"
         sodipodi:role="line"
         id="tspan392">1.68</tspan></text>
<text
       transform="matrix(1,0,0,-1,410.57091,444.642)"
       style="font-variant:normal;font-weight:normal;font-size:7.97020006px;font-family:'AdvTT6780a46b 22';-inkscape-font-specification:'AdvTT6780a46b 22';writing-mode:lr-tb;fill:#231f20;fill-opacity:1;fill-rule:nonzero;stroke:none"
       id="text398"><tspan
         x="0"
         y="0"
         id="tspan396">−</tspan></text>
<text
       transform="matrix(1,0,0,-1,416.58045,444.642)"
       style="font-variant:normal;font-weight:normal;font-size:7.97020006px;font-family:AdvTT6780a46b;-inkscape-font-specification:AdvTT6780a46b;writing-mode:lr-tb;fill:#231f20;fill-opacity:1;fill-rule:nonzero;stroke:none"
       id="text402"><tspan
         x="0 4.1445041 5.8023057 9.9468098"
         y="0"
         sodipodi:role="line"
         id="tspan400">0.87</tspan></text>
<text
       transform="matrix(1,0,0,-1,460.68753,444.642)"
       style="font-variant:normal;font-weight:normal;font-size:7.97020006px;font-family:'AdvTT6780a46b 22';-inkscape-font-specification:'AdvTT6780a46b 22';writing-mode:lr-tb;fill:#231f20;fill-opacity:1;fill-rule:nonzero;stroke:none"
       id="text406"><tspan
         x="0"
         y="0"
         id="tspan404">−</tspan></text>
<text
       transform="matrix(1,0,0,-1,466.69706,444.642)"
       style="font-variant:normal;font-weight:normal;font-size:7.97020006px;font-family:AdvTT6780a46b;-inkscape-font-specification:AdvTT6780a46b;writing-mode:lr-tb;fill:#231f20;fill-opacity:1;fill-rule:nonzero;stroke:none"
       id="text410"><tspan
         x="0 4.1445041 5.8023057 9.9468098 14.091313"
         y="0"
         sodipodi:role="line"
         id="tspan408">1.47,</tspan></text>
<text
       transform="matrix(1,0,0,-1,485.06598,444.642)"
       style="font-variant:normal;font-weight:normal;font-size:7.97020006px;font-family:'AdvTT6780a46b 22';-inkscape-font-specification:'AdvTT6780a46b 22';writing-mode:lr-tb;fill:#231f20;fill-opacity:1;fill-rule:nonzero;stroke:none"
       id="text414"><tspan
         x="0"
         y="0"
         id="tspan412">−</tspan></text>
<text
       transform="matrix(1,0,0,-1,491.1321,444.642)"
       style="font-variant:normal;font-weight:normal;font-size:7.97020006px;font-family:AdvTT6780a46b;-inkscape-font-specification:AdvTT6780a46b;writing-mode:lr-tb;fill:#231f20;fill-opacity:1;fill-rule:nonzero;stroke:none"
       id="text420"><tspan
         x="0 4.1445041 5.8023057 9.9468098 40.2519 44.396404 46.054207 50.198711 54.343216"
         y="0"
         sodipodi:role="line"
         id="tspan416">0.270.004</tspan><tspan
         x="-438.80493 -433.87299 -429.22635 -427.2338 -422.75455 -419.51865 -416.86456 -412.79977 -405.52777 -403.12076 -398.78177 -393.45291 -388.80627 -384.90884 -381.67294 -377.60815 -375.70328 -373.7984 -369.23944 -362.55643 -357.90979 -355.25574 -351.19092 -346.54428 -344.6394 -340.98907 -338.33499 -333.85574 -331.20166 -325.31088 -320.83163 -315.7865 -308.97995 -307.07507 -303.83917 -300.60327 -298.69839 -294.13943 -289.58047 -285.02151 -281.03482 -277.79892"
         y="8.9577074"
         sodipodi:role="line"
         id="tspan418">Adjustedforbaselinepredictorsofmissingness</tspan></text>
<text
       transform="matrix(1,0,0,-0.88879781,216.5669,439.2566)"
       style="font-variant:normal;font-weight:normal;font-size:5.97739983px;font-family:AdvTT6780a46b;-inkscape-font-specification:AdvTT6780a46b;writing-mode:lr-tb;fill:#231f20;fill-opacity:1;fill-rule:nonzero;stroke:none"
       id="text424"><tspan
         x="0"
         y="0"
         id="tspan422">a</tspan></text>
<text
       transform="matrix(1,0,0,-1,242.8724,435.6849)"
       style="font-variant:normal;font-weight:normal;font-size:7.97020006px;font-family:AdvTT6780a46b;-inkscape-font-specification:AdvTT6780a46b;writing-mode:lr-tb;fill:#231f20;fill-opacity:1;fill-rule:nonzero;stroke:none"
       id="text428"><tspan
         x="0 4.1445041 8.2890081"
         y="0"
         sodipodi:role="line"
         id="tspan426">378</tspan></text>
<text
       transform="matrix(1,0,0,-1,292.30916,435.6849)"
       style="font-variant:normal;font-weight:normal;font-size:7.97020006px;font-family:'AdvTT6780a46b 22';-inkscape-font-specification:'AdvTT6780a46b 22';writing-mode:lr-tb;fill:#231f20;fill-opacity:1;fill-rule:nonzero;stroke:none"
       id="text432"><tspan
         x="0"
         y="0"
         id="tspan430">−</tspan></text>
<text
       transform="matrix(1,0,0,-1,298.31869,435.6849)"
       style="font-variant:normal;font-weight:normal;font-size:7.97020006px;font-family:AdvTT6780a46b;-inkscape-font-specification:AdvTT6780a46b;writing-mode:lr-tb;fill:#231f20;fill-opacity:1;fill-rule:nonzero;stroke:none"
       id="text436"><tspan
         x="0 4.1445041 5.8023057 9.9468098"
         y="0"
         sodipodi:role="line"
         id="tspan434">0.83</tspan></text>
<text
       transform="matrix(1,0,0,-1,354.89834,435.6849)"
       style="font-variant:normal;font-weight:normal;font-size:7.97020006px;font-family:'AdvTT6780a46b 22';-inkscape-font-specification:'AdvTT6780a46b 22';writing-mode:lr-tb;fill:#231f20;fill-opacity:1;fill-rule:nonzero;stroke:none"
       id="text440"><tspan
         x="0"
         y="0"
         id="tspan438">−</tspan></text>
<text
       transform="matrix(1,0,0,-1,360.96446,435.6849)"
       style="font-variant:normal;font-weight:normal;font-size:7.97020006px;font-family:AdvTT6780a46b;-inkscape-font-specification:AdvTT6780a46b;writing-mode:lr-tb;fill:#231f20;fill-opacity:1;fill-rule:nonzero;stroke:none"
       id="text444"><tspan
         x="0 4.1445041 5.8023057 9.9468098"
         y="0"
         sodipodi:role="line"
         id="tspan442">1.67</tspan></text>
<text
       transform="matrix(1,0,0,-1,410.57099,435.6849)"
       style="font-variant:normal;font-weight:normal;font-size:7.97020006px;font-family:'AdvTT6780a46b 22';-inkscape-font-specification:'AdvTT6780a46b 22';writing-mode:lr-tb;fill:#231f20;fill-opacity:1;fill-rule:nonzero;stroke:none"
       id="text448"><tspan
         x="0"
         y="0"
         id="tspan446">−</tspan></text>
<text
       transform="matrix(1,0,0,-1,416.58052,435.6849)"
       style="font-variant:normal;font-weight:normal;font-size:7.97020006px;font-family:AdvTT6780a46b;-inkscape-font-specification:AdvTT6780a46b;writing-mode:lr-tb;fill:#231f20;fill-opacity:1;fill-rule:nonzero;stroke:none"
       id="text452"><tspan
         x="0 4.1445041 5.8023057 9.9468098"
         y="0"
         sodipodi:role="line"
         id="tspan450">0.94</tspan></text>
<text
       transform="matrix(1,0,0,-1,460.6876,435.6849)"
       style="font-variant:normal;font-weight:normal;font-size:7.97020006px;font-family:'AdvTT6780a46b 22';-inkscape-font-specification:'AdvTT6780a46b 22';writing-mode:lr-tb;fill:#231f20;fill-opacity:1;fill-rule:nonzero;stroke:none"
       id="text456"><tspan
         x="0"
         y="0"
         id="tspan454">−</tspan></text>
<text
       transform="matrix(1,0,0,-1,466.69714,435.6849)"
       style="font-variant:normal;font-weight:normal;font-size:7.97020006px;font-family:AdvTT6780a46b;-inkscape-font-specification:AdvTT6780a46b;writing-mode:lr-tb;fill:#231f20;fill-opacity:1;fill-rule:nonzero;stroke:none"
       id="text460"><tspan
         x="0 4.1445041 5.8023057 9.9468098 14.091313"
         y="0"
         sodipodi:role="line"
         id="tspan458">1.55,</tspan></text>
<text
       transform="matrix(1,0,0,-1,485.06606,435.6849)"
       style="font-variant:normal;font-weight:normal;font-size:7.97020006px;font-family:'AdvTT6780a46b 22';-inkscape-font-specification:'AdvTT6780a46b 22';writing-mode:lr-tb;fill:#231f20;fill-opacity:1;fill-rule:nonzero;stroke:none"
       id="text464"><tspan
         x="0"
         y="0"
         id="tspan462">−</tspan></text>
<text
       transform="matrix(1,0,0,-1,491.13217,435.6849)"
       style="font-variant:normal;font-weight:normal;font-size:7.97020006px;font-family:AdvTT6780a46b;-inkscape-font-specification:AdvTT6780a46b;writing-mode:lr-tb;fill:#231f20;fill-opacity:1;fill-rule:nonzero;stroke:none"
       id="text470"><tspan
         x="0 4.1445041 5.8023057 9.9468098 40.2519 44.396404 46.054207 50.198711 54.343216"
         y="0"
         sodipodi:role="line"
         id="tspan466">0.330.003</tspan><tspan
         x="-438.80493 -432.25345 -427.77417 -425.86929 -423.21524 -421.31036 -416.7522 -414.84732 -408.13483 -406.22995 -399.42337 -394.77676 -390.29752 -387.64343 -383.746 -381.09192 -379.18704 -374.70779"
         y="8.9577074"
         sodipodi:role="line"
         id="tspan468">Multipleimputation</tspan></text>
<text
       transform="matrix(1,0,0,-0.88879781,120.9259,430.2991)"
       style="font-variant:normal;font-weight:normal;font-size:5.97739983px;font-family:AdvTT6780a46b;-inkscape-font-specification:AdvTT6780a46b;writing-mode:lr-tb;fill:#231f20;fill-opacity:1;fill-rule:nonzero;stroke:none"
       id="text474"><tspan
         x="0"
         y="0"
         id="tspan472">b</tspan></text>
<text
       transform="matrix(1,0,0,-1,242.8724,426.7275)"
       style="font-variant:normal;font-weight:normal;font-size:7.97020006px;font-family:AdvTT6780a46b;-inkscape-font-specification:AdvTT6780a46b;writing-mode:lr-tb;fill:#231f20;fill-opacity:1;fill-rule:nonzero;stroke:none"
       id="text478"><tspan
         x="0 4.1445041 8.2890081"
         y="0"
         sodipodi:role="line"
         id="tspan476">537</tspan></text>
<text
       transform="matrix(1,0,0,-1,292.30916,426.7275)"
       style="font-variant:normal;font-weight:normal;font-size:7.97020006px;font-family:'AdvTT6780a46b 22';-inkscape-font-specification:'AdvTT6780a46b 22';writing-mode:lr-tb;fill:#231f20;fill-opacity:1;fill-rule:nonzero;stroke:none"
       id="text482"><tspan
         x="0"
         y="0"
         id="tspan480">−</tspan></text>
<text
       transform="matrix(1,0,0,-1,298.31869,426.7275)"
       style="font-variant:normal;font-weight:normal;font-size:7.97020006px;font-family:AdvTT6780a46b;-inkscape-font-specification:AdvTT6780a46b;writing-mode:lr-tb;fill:#231f20;fill-opacity:1;fill-rule:nonzero;stroke:none"
       id="text486"><tspan
         x="0 4.1445041 5.8023057 9.9468098"
         y="0"
         sodipodi:role="line"
         id="tspan484">0.78</tspan></text>
<text
       transform="matrix(1,0,0,-1,356.9961,426.7275)"
       style="font-variant:normal;font-weight:normal;font-size:7.97020006px;font-family:'AdvTT6780a46b 22';-inkscape-font-specification:'AdvTT6780a46b 22';writing-mode:lr-tb;fill:#231f20;fill-opacity:1;fill-rule:nonzero;stroke:none"
       id="text490"><tspan
         x="0"
         y="0"
         id="tspan488">−</tspan></text>
<text
       transform="matrix(1,0,0,-1,363.06222,426.7275)"
       style="font-variant:normal;font-weight:normal;font-size:7.97020006px;font-family:AdvTT6780a46b;-inkscape-font-specification:AdvTT6780a46b;writing-mode:lr-tb;fill:#231f20;fill-opacity:1;fill-rule:nonzero;stroke:none"
       id="text494"><tspan
         x="0 4.1445041 5.8023057"
         y="0"
         sodipodi:role="line"
         id="tspan492">1.8</tspan></text>
<text
       transform="matrix(1,0,0,-1,410.57099,426.7275)"
       style="font-variant:normal;font-weight:normal;font-size:7.97020006px;font-family:'AdvTT6780a46b 22';-inkscape-font-specification:'AdvTT6780a46b 22';writing-mode:lr-tb;fill:#231f20;fill-opacity:1;fill-rule:nonzero;stroke:none"
       id="text498"><tspan
         x="0"
         y="0"
         id="tspan496">−</tspan></text>
<text
       transform="matrix(1,0,0,-1,416.58052,426.7275)"
       style="font-variant:normal;font-weight:normal;font-size:7.97020006px;font-family:AdvTT6780a46b;-inkscape-font-specification:AdvTT6780a46b;writing-mode:lr-tb;fill:#231f20;fill-opacity:1;fill-rule:nonzero;stroke:none"
       id="text502"><tspan
         x="0 4.1445041 5.8023057 9.9468098"
         y="0"
         sodipodi:role="line"
         id="tspan500">1.03</tspan></text>
<text
       transform="matrix(1,0,0,-1,460.6876,426.7275)"
       style="font-variant:normal;font-weight:normal;font-size:7.97020006px;font-family:'AdvTT6780a46b 22';-inkscape-font-specification:'AdvTT6780a46b 22';writing-mode:lr-tb;fill:#231f20;fill-opacity:1;fill-rule:nonzero;stroke:none"
       id="text506"><tspan
         x="0"
         y="0"
         id="tspan504">−</tspan></text>
<text
       transform="matrix(1,0,0,-1,466.69714,426.7275)"
       style="font-variant:normal;font-weight:normal;font-size:7.97020006px;font-family:AdvTT6780a46b;-inkscape-font-specification:AdvTT6780a46b;writing-mode:lr-tb;fill:#231f20;fill-opacity:1;fill-rule:nonzero;stroke:none"
       id="text510"><tspan
         x="0 4.1445041 5.8023057 9.9468098 14.091313"
         y="0"
         sodipodi:role="line"
         id="tspan508">1.77,</tspan></text>
<text
       transform="matrix(1,0,0,-1,485.06606,426.7275)"
       style="font-variant:normal;font-weight:normal;font-size:7.97020006px;font-family:'AdvTT6780a46b 22';-inkscape-font-specification:'AdvTT6780a46b 22';writing-mode:lr-tb;fill:#231f20;fill-opacity:1;fill-rule:nonzero;stroke:none"
       id="text514"><tspan
         x="0"
         y="0"
         id="tspan512">−</tspan></text>
<text
       transform="matrix(1,0,0,-1,491.13217,426.7275)"
       style="font-variant:normal;font-weight:normal;font-size:7.97020006px;font-family:AdvTT6780a46b;-inkscape-font-specification:AdvTT6780a46b;writing-mode:lr-tb;fill:#231f20;fill-opacity:1;fill-rule:nonzero;stroke:none"
       id="text520"><tspan
         x="0 4.1445041 5.8023057 9.9468098 40.2519 44.396404 46.054207 50.198711 54.343216"
         y="0"
         sodipodi:role="line"
         id="tspan516">0.300.006</tspan><tspan
         x="-438.80493 -434.4054 -430.50797 -427.27206 -423.20724 -421.30237 -419.39749 -414.83856 -408.1922 -403.71295 -399.06631 -395.83041 -391.76562 -388.97446 -385.11926 -381.22183 -378.56775 -376.66287 -372.18362 -364.99371 -361.34335 -357.44592 -354.79187 -352.13779 -350.23291 -346.16809 -338.91602 -336.509 -332.02975 -329.27844 -323.30081 -319.40338 -316.7493 -248.26456 -244.12006 -239.97556"
         y="8.9577074"
         sodipodi:role="line"
         id="tspan518">Baselineobservationcarriedforward536</tspan></text>
<text
       transform="matrix(1,0,0,-1,292.30916,417.76979)"
       style="font-variant:normal;font-weight:normal;font-size:7.97020006px;font-family:'AdvTT6780a46b 22';-inkscape-font-specification:'AdvTT6780a46b 22';writing-mode:lr-tb;fill:#231f20;fill-opacity:1;fill-rule:nonzero;stroke:none"
       id="text524"><tspan
         x="0"
         y="0"
         id="tspan522">−</tspan></text>
<text
       transform="matrix(1,0,0,-1,298.31869,417.76979)"
       style="font-variant:normal;font-weight:normal;font-size:7.97020006px;font-family:AdvTT6780a46b;-inkscape-font-specification:AdvTT6780a46b;writing-mode:lr-tb;fill:#231f20;fill-opacity:1;fill-rule:nonzero;stroke:none"
       id="text528"><tspan
         x="0 4.1445041 5.8023057 9.9468098"
         y="0"
         sodipodi:role="line"
         id="tspan526">0.61</tspan></text>
<text
       transform="matrix(1,0,0,-1,354.89834,417.76979)"
       style="font-variant:normal;font-weight:normal;font-size:7.97020006px;font-family:'AdvTT6780a46b 22';-inkscape-font-specification:'AdvTT6780a46b 22';writing-mode:lr-tb;fill:#231f20;fill-opacity:1;fill-rule:nonzero;stroke:none"
       id="text532"><tspan
         x="0"
         y="0"
         id="tspan530">−</tspan></text>
<text
       transform="matrix(1,0,0,-1,360.96446,417.76979)"
       style="font-variant:normal;font-weight:normal;font-size:7.97020006px;font-family:AdvTT6780a46b;-inkscape-font-specification:AdvTT6780a46b;writing-mode:lr-tb;fill:#231f20;fill-opacity:1;fill-rule:nonzero;stroke:none"
       id="text536"><tspan
         x="0 4.1445041 5.8023057 9.9468098"
         y="0"
         sodipodi:role="line"
         id="tspan534">1.18</tspan></text>
<text
       transform="matrix(1,0,0,-1,410.57099,417.76979)"
       style="font-variant:normal;font-weight:normal;font-size:7.97020006px;font-family:'AdvTT6780a46b 22';-inkscape-font-specification:'AdvTT6780a46b 22';writing-mode:lr-tb;fill:#231f20;fill-opacity:1;fill-rule:nonzero;stroke:none"
       id="text540"><tspan
         x="0"
         y="0"
         id="tspan538">−</tspan></text>
<text
       transform="matrix(1,0,0,-1,416.58052,417.76979)"
       style="font-variant:normal;font-weight:normal;font-size:7.97020006px;font-family:AdvTT6780a46b;-inkscape-font-specification:AdvTT6780a46b;writing-mode:lr-tb;fill:#231f20;fill-opacity:1;fill-rule:nonzero;stroke:none"
       id="text544"><tspan
         x="0 4.1445041 5.8023057 9.9468098"
         y="0"
         sodipodi:role="line"
         id="tspan542">0.58</tspan></text>
<text
       transform="matrix(1,0,0,-1,460.6876,417.76979)"
       style="font-variant:normal;font-weight:normal;font-size:7.97020006px;font-family:'AdvTT6780a46b 22';-inkscape-font-specification:'AdvTT6780a46b 22';writing-mode:lr-tb;fill:#231f20;fill-opacity:1;fill-rule:nonzero;stroke:none"
       id="text548"><tspan
         x="0"
         y="0"
         id="tspan546">−</tspan></text>
<text
       transform="matrix(1,0,0,-1,466.69714,417.76979)"
       style="font-variant:normal;font-weight:normal;font-size:7.97020006px;font-family:AdvTT6780a46b;-inkscape-font-specification:AdvTT6780a46b;writing-mode:lr-tb;fill:#231f20;fill-opacity:1;fill-rule:nonzero;stroke:none"
       id="text552"><tspan
         x="0 4.1445041 5.8023057 9.9468098 14.091313"
         y="0"
         sodipodi:role="line"
         id="tspan550">1.02,</tspan></text>
<text
       transform="matrix(1,0,0,-1,485.06606,417.76979)"
       style="font-variant:normal;font-weight:normal;font-size:7.97020006px;font-family:'AdvTT6780a46b 22';-inkscape-font-specification:'AdvTT6780a46b 22';writing-mode:lr-tb;fill:#231f20;fill-opacity:1;fill-rule:nonzero;stroke:none"
       id="text556"><tspan
         x="0"
         y="0"
         id="tspan554">−</tspan></text>
<text
       transform="matrix(1,0,0,-1,491.13217,417.76979)"
       style="font-variant:normal;font-weight:normal;font-size:7.97020006px;font-family:AdvTT6780a46b;-inkscape-font-specification:AdvTT6780a46b;writing-mode:lr-tb;fill:#231f20;fill-opacity:1;fill-rule:nonzero;stroke:none"
       id="text560"><tspan
         x="0 4.1445041 5.8023057 9.9468098 42.348862 46.493366 48.151165 52.29567"
         y="0"
         sodipodi:role="line"
         id="tspan558">0.140.01</tspan></text>
<text
       transform="matrix(1,0,0,-1,49.3228,402.803)"
       style="font-variant:normal;font-weight:normal;font-size:7.47179985px;font-family:AdvTT6780a46b;-inkscape-font-specification:AdvTT6780a46b;writing-mode:lr-tb;fill:#231f20;fill-opacity:1;fill-rule:nonzero;stroke:none"
       id="text564"><tspan
         x="0 4.7445931 9.1006527 13.456712 15.944821 19.75544 23.491339 25.2771 28.930809 31.418919 33.204678 37.403831 41.6777 44.71125 48.411285 52.924999 54.710762 58.332344 61.754429 65.953575"
         y="0"
         sodipodi:role="line"
         id="tspan562">Abbreviations:CI,con</tspan></text>
<text
       transform="matrix(1,0,0,-1,119.56519,402.803)"
       style="font-variant:normal;font-weight:normal;font-size:7.47179985px;font-family:'AdvTT6780a46b +fb';-inkscape-font-specification:'AdvTT6780a46b +fb';writing-mode:lr-tb;fill:#231f20;fill-opacity:1;fill-rule:nonzero;stroke:none"
       id="text568"><tspan
         x="0"
         y="0"
         id="tspan566">ﬁ</tspan></text>
<text
       transform="matrix(1,0,0,-1,123.53346,402.803)"
       style="font-variant:normal;font-weight:normal;font-size:7.47179985px;font-family:AdvTT6780a46b;-inkscape-font-specification:AdvTT6780a46b;writing-mode:lr-tb;fill:#231f20;fill-opacity:1;fill-rule:nonzero;stroke:none"
       id="text572"><tspan
         x="0 4.3560596 8.1666775 12.440547 15.862632 21.768343 23.554102 27.827972 30.316082 34.126698 36.790398 40.526295 44.180008 45.965767 49.48872 53.374058 57.259392 61.336754 64.681877 68.310181 71.655312 75.465927 81.802757 85.147888 89.347038 95.748878 99.559494 101.34525 105.70132 108.73486"
         y="0"
         sodipodi:role="line"
         id="tspan570">denceinterval;10TT,TenTopTips.</tspan></text>
<text
       transform="matrix(1,0,0,-0.8887719,235.8991,406.1479)"
       style="font-variant:normal;font-weight:normal;font-size:5.60379982px;font-family:AdvTT6780a46b;-inkscape-font-specification:AdvTT6780a46b;writing-mode:lr-tb;fill:#231f20;fill-opacity:1;fill-rule:nonzero;stroke:none"
       id="text576"><tspan
         x="0"
         y="0"
         id="tspan574">a</tspan></text>
<text
       transform="matrix(1,0,0,-1,238.6771,402.803)"
       style="font-variant:normal;font-weight:normal;font-size:7.47179985px;font-family:AdvTT6780a46b;-inkscape-font-specification:AdvTT6780a46b;writing-mode:lr-tb;fill:#231f20;fill-opacity:1;fill-rule:nonzero;stroke:none"
       id="text580"><tspan
         x="0 4.1244335 7.7781439 10.811694 14.622313 16.408073 18.193832 22.467703 28.344273 33.948872 37.759487 39.54525 43.819118 48.092987 50.581097 54.251244 57.904957 62.178825 65.989441 69.557228 73.831848 77.642464 81.916328 86.272392 90.083008 92.176605 95.804916 100.16097 103.97159 108.32765 110.81576 112.60152 116.33742 119.99113 122.47924 124.265 128.46416 134.80621 138.45993 142.7338 149.14908 153.42296 155.20871 159.40787 162.82996 167.0291 170.06265 175.96239 177.74814 181.55876 185.29466 189.10529 190.89104"
         y="0"
         sodipodi:role="line"
         id="tspan578">Baselineweight,age,gender,deprivationandglucoselevel.</tspan></text>
<text
       transform="matrix(1,0,0,-0.8887719,433.1337,406.1479)"
       style="font-variant:normal;font-weight:normal;font-size:5.60379982px;font-family:AdvTT6780a46b;-inkscape-font-specification:AdvTT6780a46b;writing-mode:lr-tb;fill:#231f20;fill-opacity:1;fill-rule:nonzero;stroke:none"
       id="text584"><tspan
         x="0"
         y="0"
         id="tspan582">b</tspan></text>
<text
       transform="matrix(1,0,0,-1,436.3652,402.803)"
       style="font-variant:normal;font-weight:normal;font-size:7.47179985px;font-family:AdvTT6780a46b;-inkscape-font-specification:AdvTT6780a46b;writing-mode:lr-tb;fill:#231f20;fill-opacity:1;fill-rule:nonzero;stroke:none"
       id="text592"><tspan
         x="0 6.1418195 10.340971 12.126732 14.614841 16.4006 20.75666 22.542421 28.457844 30.243605 36.624523 40.980583 45.179733 47.667843 51.321552 53.809662 55.595421 59.794575 66.212105 72.593018 76.792175 81.148232 84.958847 88.830734 90.616493 94.890366 98.312447 100.09821 104.29736 108.65342 110.43918 114.71305"
         y="0"
         sodipodi:role="line"
         id="tspan586">Multipleimputationmodelincluding</tspan><tspan
         x="-387.03998 -382.68393 -379.03021 -375.99667 -372.18604 -370.4003 -368.61453 -364.34067 -357.90222 -354.86865 -350.66949 -347.24744 -345.46167 -341.26251 -336.90646 -333.09583 -326.7149 -322.51578 -318.24188 -315.75378 -312.10007 -307.74402 -303.47015 -301.68439 -298.1532 -292.54041 -288.88669 -284.61282 -277.68796 -274.03424 -269.76038 -267.27228 -262.99838 -260.51028 -256.31113 -251.95508 -247.75592 -241.375 -237.56439 -235.07628 -232.58817 -230.69406 -227.27199 -221.68008 -217.32402 -213.67032 -211.18221 -207.45154 -203.36969 -199.71599 -195.44211 -188.46046 -184.26131 -181.77321 -177.49933 -173.68872 -168.61909 -164.26305 -160.60933 -157.57578 -153.76517 -151.9794 -150.19363 -145.83011 -139.48058 -135.74467 -132.09096 -129.60286 -127.81709 -124.16338 -119.80733 -118.02156 -114.21095 -108.64221 -104.28616 -100.08701 -97.053452 -94.019897 -92.234138 -87.878082 -86.092323 -79.844398 -77.356293 -73.545677 -71.759911 -68.106201 -65.618095 -61.807476 -54.844505 -52.356396 -45.60413 -39.223213 -37.437454 -34.403904 -31.370352 -29.584593 -25.310722 -21.036854 -16.762983 -12.952365 -9.9188147 -4.2215672 -0.56785679 3.7060127 10.630877 14.830776 19.029928 21.518036 24.940121 29.139273 35.520191 39.330807 43.453747 45.239506 51.620426 55.976482 60.175636 62.663746 66.317451 68.805565 70.591324 74.790474 79.064346 84.72274 89.079544 92.890167 95.550873 97.840981 102.04088 104.52973 110.9114 114.72276"
         y="8.9571934"
         sodipodi:role="line"
         id="tspan588">baselinesociodemographicsandanthropometricsdata,andotherbaselinevariablespossiblyrelatedtomissingnessandoutcome.Imputationsperformed</tspan><tspan
         x="-387.03998 -384.00644 -381.51834 -379.03021 -375.3765 -372.8884"
         y="17.914389"
         sodipodi:role="line"
         id="tspan590">strati</tspan></text>
<text
       transform="matrix(1,0,0,-1,65.312623,384.88861)"
       style="font-variant:normal;font-weight:normal;font-size:7.47179985px;font-family:'AdvTT6780a46b +fb';-inkscape-font-specification:'AdvTT6780a46b +fb';writing-mode:lr-tb;fill:#231f20;fill-opacity:1;fill-rule:nonzero;stroke:none"
       id="text596"><tspan
         x="0"
         y="0"
         id="tspan594">ﬁ</tspan></text>
<text
       transform="matrix(1,0,0,-1,69.280896,384.88861)"
       style="font-variant:normal;font-weight:normal;font-size:7.47179985px;font-family:AdvTT6780a46b;-inkscape-font-specification:AdvTT6780a46b;writing-mode:lr-tb;fill:#231f20;fill-opacity:1;fill-rule:nonzero;stroke:none"
       id="text600"><tspan
         x="0 3.8106179 10.657776 15.013835 21.089155 23.577265 26.065374 27.851135 31.504845 35.82803 39.481739 41.969849 48.350765 52.381054 57.439461 61.638615 68.083786 72.43985 76.250465 81.235649 85.434799 90.192848 91.978607 98.35952 102.71558 106.91473 109.40284 113.05656 115.54466 117.33042 121.52957 125.80344"
         y="0"
         sodipodi:role="line"
         id="tspan598">edbytrialarm.Numberofimputations</tspan></text>
<text
       transform="matrix(1,0,0,-1,199.44712,384.88861)"
       style="font-variant:normal;font-weight:normal;font-size:7.47179985px;font-family:AdvOT8608a8d1;-inkscape-font-specification:AdvOT8608a8d1;writing-mode:lr-tb;fill:#231f20;fill-opacity:1;fill-rule:nonzero;stroke:none"
       id="text604"><tspan
         x="0"
         y="0"
         id="tspan602">=</tspan></text>
<text
       transform="matrix(1,0,0,-1,205.73987,384.88861)"
       style="font-variant:normal;font-weight:normal;font-size:7.47179985px;font-family:AdvTT6780a46b;-inkscape-font-specification:AdvTT6780a46b;writing-mode:lr-tb;fill:#231f20;fill-opacity:1;fill-rule:nonzero;stroke:none"
       id="text608"><tspan
         x="0 3.8853359 7.7706718 11.656008"
         y="0"
         sodipodi:role="line"
         id="tspan606">100.</tspan></text>
</g></svg>