<?xml version="1.0" encoding="UTF-8" standalone="no"?>
<!-- Created with Inkscape (http://www.inkscape.org/) -->

<svg
   xmlns:dc="http://purl.org/dc/elements/1.1/"
   xmlns:cc="http://creativecommons.org/ns#"
   xmlns:rdf="http://www.w3.org/1999/02/22-rdf-syntax-ns#"
   xmlns:svg="http://www.w3.org/2000/svg"
   xmlns="http://www.w3.org/2000/svg"
   xmlns:sodipodi="http://sodipodi.sourceforge.net/DTD/sodipodi-0.dtd"
   xmlns:inkscape="http://www.inkscape.org/namespaces/inkscape"
   version="1.1"
   id="svg2"
   xml:space="preserve"
   width="793.70135"
   height="1065.8267"
   viewBox="0 0 793.70135 1065.8267"
   sodipodi:docname="table4.svg"
   inkscape:version="0.92.0 r15299"><metadata
     id="metadata8"><rdf:RDF><cc:Work
         rdf:about=""><dc:format>image/svg+xml</dc:format><dc:type
           rdf:resource="http://purl.org/dc/dcmitype/StillImage" /><dc:title></dc:title></cc:Work></rdf:RDF></metadata><defs
     id="defs6"><clipPath
       clipPathUnits="userSpaceOnUse"
       id="clipPath22"><path
         d="M 0.03,799.37 H 595.276 V 0 H 0.03 Z"
         id="path20"
         inkscape:connector-curvature="0" /></clipPath></defs><sodipodi:namedview
     pagecolor="#ffffff"
     bordercolor="#666666"
     borderopacity="1"
     objecttolerance="10"
     gridtolerance="10"
     guidetolerance="10"
     inkscape:pageopacity="0"
     inkscape:pageshadow="2"
     inkscape:window-width="1920"
     inkscape:window-height="988"
     id="namedview4"
     showgrid="false"
     inkscape:zoom="2.5051308"
     inkscape:cx="489.74284"
     inkscape:cy="748.68196"
     inkscape:window-x="0"
     inkscape:window-y="27"
     inkscape:window-maximized="1"
     inkscape:current-layer="g10" /><g
     id="g10"
     inkscape:groupmode="layer"
     inkscape:label="fulltext"
     transform="matrix(1.3333333,0,0,-1.3333333,0,1065.8267)"><path
       d="M 262.332,540.796 H 476.097 V 670.269 H 262.332 Z"
       style="fill:#f5e0dc;fill-opacity:1;fill-rule:nonzero;stroke:none"
       id="path268"
       inkscape:connector-curvature="0" /><g
       id="g270"
       transform="translate(268.12601,564.21899)"><path
         d="M 0,0 H 202.176"
         style="fill:none;stroke:#000000;stroke-width:0.25;stroke-linecap:butt;stroke-linejoin:miter;stroke-miterlimit:10;stroke-dasharray:none;stroke-opacity:1"
         id="path272"
         inkscape:connector-curvature="0" /></g><g
       id="g274"
       transform="translate(268.12601,645.258)"><path
         d="m 0,0 h 83.089 57.685 61.402"
         style="fill:none;stroke:#000000;stroke-width:0.25;stroke-linecap:butt;stroke-linejoin:miter;stroke-miterlimit:10;stroke-dasharray:none;stroke-opacity:1"
         id="path276"
         inkscape:connector-curvature="0" /></g><text
       transform="matrix(1,0,0,-1,354.05,658.294)"
       style="font-variant:normal;font-weight:bold;font-size:7px;font-family:Shaker2Lancet;-inkscape-font-specification:Shaker2Lancet-Bold;writing-mode:lr-tb;fill:#000000;fill-opacity:1;fill-rule:nonzero;stroke:none"
       id="text284"><tspan
         x="0 4.4590001 7.6300001 10.864 12.509 15.148 18.872 20.16 22.841 26.187 28.868 31.507 34.678001 40.438999"
         y="0"
         sodipodi:role="line"
         id="tspan278">Health system </tspan><tspan
         x="0 3.7149 6.8838 9.1917 11.8706 15.5855 18.7544 21.5383 24.1752 25.930099 29.351"
         y="8.4980001"
         sodipodi:role="line"
         id="tspan280">perspective</tspan><tspan
         x="57.687 60.996601 64.6492 67.4338 69.1894 72.359001 74.996597 78.229202 79.872803 80.886398 84.601997 87.771599 90.0802 92.759804 96.475403 99.644997 102.4296 105.0672 106.8228 110.2444"
         y="0"
         sodipodi:role="line"
         id="tspan282">Societal perspective</tspan></text>
<text
       transform="matrix(1,0,0,-1,270.96,636.244)"
       style="font-variant:normal;font-weight:normal;font-size:7px;font-family:Shaker2Lancet;-inkscape-font-specification:Shaker2Lancet-Regular;writing-mode:lr-tb;fill:#000000;fill-opacity:1;fill-rule:nonzero;stroke:none"
       id="text322"><tspan
         x="0 3.563 7.105 9.625 11.97 13.293 16.764999 19.823999 21.952 23.093 27.377001 31.479 34.055 37.716 39.039001 42.490002 45.542 47.131001 50.722 53.780998 57.259998"
         y="0"
         sodipodi:role="line"
         id="tspan286">Cost per QALY gained </tspan><tspan
         x="0 3.052 5.3969998 6.7199998 10.094 11.417 16.954 20.496 24.087 26.431999 29.981001 32.500999 33.824001 35.993999 39.570999"
         y="8.4980001"
         sodipodi:role="line"
         id="tspan288">at 3 months ($)</tspan><tspan
         x="84.769997 88.347 92.134003 95.508003 98.882004"
         y="0"
         sodipodi:role="line"
         id="tspan290">$9333</tspan><tspan
         x="83.089996 85.260002 88.634003 92.428001 96.236 99.624001 100.758 103.103 106.645 107.968 111.356 115.15 116.025 119.196 123.004 126.791"
         y="8.4980001"
         sodipodi:role="line"
         id="tspan292">(3862 to 28 169)</tspan><tspan
         x="142.95399 146.53101 150.31799 153.713"
         y="0"
         sodipodi:role="line"
         id="tspan294">$957</tspan><tspan
         x="140.77699 142.94701 145.593 149.401 152.57201 156.289 159.68401 160.8166 163.16161 166.7036 168.02521 171.1962 174.91319 175.7868 179.5038 182.6748 186.4688"
         y="8.4980001"
         sodipodi:role="line"
         id="tspan296">(–6145 to 14 418)</tspan><tspan
         x="0 3.563 7.105 9.625 11.97 13.293 16.764999 19.823999 21.952 23.275 25.403 28.462 33.999001 35.588001 38.108002 40.627998 42.216999 45.758999 49.349998"
         y="19.872999"
         sodipodi:role="line"
         id="tspan298">Cost per remission </tspan><tspan
         x="0 3.052 5.3969998 6.7199998 10.094 11.417 16.954 20.496 24.087 26.431999 29.981001 32.500999 33.824001 35.993999 39.570999"
         y="28.371"
         sodipodi:role="line"
         id="tspan300">at 3 months ($)</tspan><tspan
         x="88.542999 92.120003 95.291 99.084999"
         y="19.872999"
         sodipodi:role="line"
         id="tspan302">$181</tspan><tspan
         x="83.089996 85.260002 89.054001 92.280998 93.415001 95.760002 99.302002 100.625 103.999 107.373 110.768"
         y="28.371"
         sodipodi:role="line"
         id="tspan304">(87 to 335)</tspan><tspan
         x="146.405 149.98199 153.153"
         y="19.872999"
         sodipodi:role="line"
         id="tspan306">$19</tspan><tspan
         x="140.77699 142.94701 145.593 148.76401 152.138 155.51199 156.646 158.991 162.533 163.856 167.244 170.632 174.41901"
         y="28.371"
         sodipodi:role="line"
         id="tspan308">(–133 to 229)</tspan><tspan
         x="0 3.4790001 6.9369998 9.3730001 11.634 12.873 16.261 19.236 21.280001 22.518999 26.117001 30.177 31.709999 32.949001 36.337002 39.794998 41.299999 44.806999 47.152"
         y="39.654999"
         sodipodi:role="line"
         id="tspan310">Cost per BDI point </tspan><tspan
         x="0 1.505 6.9580002 10.346 12.39 15.848 18.865 21.84 27.292999 30.268 33.775002 36.035999 37.174198 40.1422 42.403198 43.541401 46.831402 47.969601 53.4226 56.8806 60.3876 62.648602 66.113602 68.549599 69.687798 71.773804 75.2668"
         y="48.153"
         sodipodi:role="line"
         id="tspan312">improvement at 3 months ($)</tspan><tspan
         x="94.871002 98.447998"
         y="39.654999"
         sodipodi:role="line"
         id="tspan314">$6</tspan><tspan
         x="83.089996 85.260002 88.634003 89.767998 92.112999 95.654999 96.977997 100.149 103.537"
         y="48.153"
         sodipodi:role="line"
         id="tspan316">(3 to 12)</tspan><tspan
         x="150.192 153.769"
         y="39.654999"
         sodipodi:role="line"
         id="tspan318">$1</tspan><tspan
         x="140.77699 142.94701 145.593 148.98801 150.12199 152.467 156.009 157.332 161.12601"
         y="48.153"
         sodipodi:role="line"
         id="tspan320">(–5 to 8)</tspan></text>
<text
       transform="matrix(1,0,0,-1,268.126,571.676)"
       style="font-variant:normal;font-weight:normal;font-size:6.5px;font-family:Shaker2Lancet;-inkscape-font-specification:Shaker2Lancet-Regular;writing-mode:lr-tb;fill:#000000;fill-opacity:1;fill-rule:nonzero;stroke:none"
       id="text326"><tspan
         x="0 3.8740001 6.7340002 8.9375 11.7975 13.052 15.912 17.914 20.7805 22.035 27.202499 30.069 32.929001 36.289501 37.543999 39.584999 43.127499 46.306 50.804001 51.8895 55.223999 56.751499 58.7925 60.242001 61.496498 64.863503 68.6595 70.109001 73.293999 76.661003 79.449501 81.8675 84.649498 85.825996 89.622002 92.4105 95.582497 97.5065 100.295 102.583 104.871 106.2945 109.5315 112.814 113.9905 115.44 118.7225 121.55 124.3385 127.621 129.74651 132.98351 134.9075 137.397 138.8205"
         y="0"
         sodipodi:role="line"
         id="tspan324">Data are mean (95% CI). BDI=Beck Depression Inventory. </tspan></text>
<text
       transform="matrix(1,0,0,-1,268.126,555.59)"
       style="font-style:italic;font-variant:normal;font-weight:bold;font-size:7px;font-family:Shaker2Lancet;-inkscape-font-specification:Shaker2Lancet-BoldItalic;writing-mode:lr-tb;fill:#000000;fill-opacity:1;fill-rule:nonzero;stroke:none"
       id="text330"><tspan
         x="0 3.1429999 6.4749999 9.7930002 11.375 14.245 15.379 19.004999"
         y="0"
         sodipodi:role="line"
         id="tspan328">Table 4:</tspan></text>
<text
       transform="matrix(1,0,0,-1,289.896,555.59)"
       style="font-variant:normal;font-weight:bold;font-size:7px;font-family:Shaker2Lancet;-inkscape-font-specification:Shaker2Lancet-Bold;writing-mode:lr-tb;fill:#000000;fill-opacity:1;fill-rule:nonzero;stroke:none"
       id="text336"><tspan
         x="0 3.5840001 7.2379999 9.9189997 12.495 14.819 17.99 20.16 22.33 25.500299 28.285601 30.923901 32.680199 36.102501 39.2728 43.052101 46.222401 48.902699 51.583 52.870998 56.104301 59.883598 63.116901 64.7612 68.106499 70.786797 73.9571 76.637398 77.9254 80.248703 82.557999 86.211304 91.971603 93.259598 96.982903 100.1532 103.3865 105.0308 107.6691 111.3924 112.6804 115.3607 118.706 121.3863 124.0246 127.1949 132.9552 134.24319 137.4765 141.2558 144.9791 146.26711 148.9474 152.60069 155.386 157.1423 160.31261 162.9509 166.1842 167.82851"
         y="0"
         sodipodi:role="line"
         id="tspan332">Cost-eﬀ ectiveness analyses from health system and societal </tspan><tspan
         x="-21.77 -18.053699 -14.8834 -12.5741 -9.8937998 -6.1774998 -3.0072 -0.2219 2.4164 4.1726999 7.5949998 10.7653 13.4456 14.7336 17.0009 20.5072 24.335501 27.708799 31.208099 32.496101 34.252399 38.0317 40.669998 43.840302 46.149601 49.928902 53.162201 55.800499 57.556801 61.210098 64.989403 68.222702 69.866997 71.092003 74.8153 78.468597 80.1129 81.757202 84.990501 87.299797 89.980103"
         y="9.0019999"
         sodipodi:role="line"
         id="tspan334">perspectives (2015 international dollars)</tspan></text>
<g
       id="g338"
       transform="translate(262.332,670.269)"><path
         d="M 213.765,0 H 0 v -129.473 h 213.765 z"
         style="fill:none;stroke:#b30838;stroke-width:0.25;stroke-linecap:butt;stroke-linejoin:miter;stroke-miterlimit:4;stroke-dasharray:none;stroke-opacity:1"
         id="path340"
         inkscape:connector-curvature="0" /></g><g
       id="g342"
       transform="translate(262.332,670.269)"><path
         d="M 0,0 Z"
         style="fill:none;stroke:#b30838;stroke-width:0.25;stroke-linecap:butt;stroke-linejoin:miter;stroke-miterlimit:4;stroke-dasharray:none;stroke-opacity:1"
         id="path344"
         inkscape:connector-curvature="0" /></g></g></svg>