<?xml version="1.0" encoding="UTF-8" standalone="no"?>
<!-- Created with Inkscape (http://www.inkscape.org/) -->

<svg
   xmlns:dc="http://purl.org/dc/elements/1.1/"
   xmlns:cc="http://creativecommons.org/ns#"
   xmlns:rdf="http://www.w3.org/1999/02/22-rdf-syntax-ns#"
   xmlns:svg="http://www.w3.org/2000/svg"
   xmlns="http://www.w3.org/2000/svg"
   xmlns:sodipodi="http://sodipodi.sourceforge.net/DTD/sodipodi-0.dtd"
   xmlns:inkscape="http://www.inkscape.org/namespaces/inkscape"
   version="1.1"
   id="svg2"
   xml:space="preserve"
   width="793.70135"
   height="1065.8267"
   viewBox="0 0 793.70135 1065.8267"
   sodipodi:docname="table.svg"
   inkscape:version="0.92.0 r15299"><metadata
     id="metadata8"><rdf:RDF><cc:Work
         rdf:about=""><dc:format>image/svg+xml</dc:format><dc:type
           rdf:resource="http://purl.org/dc/dcmitype/StillImage" /><dc:title></dc:title></cc:Work></rdf:RDF></metadata><defs
     id="defs6"><clipPath
       clipPathUnits="userSpaceOnUse"
       id="clipPath22"><path
         d="M 0.03,799.37 H 595.276 V 0 H 0.03 Z"
         id="path20"
         inkscape:connector-curvature="0" /></clipPath></defs><sodipodi:namedview
     pagecolor="#ffffff"
     bordercolor="#666666"
     borderopacity="1"
     objecttolerance="10"
     gridtolerance="10"
     guidetolerance="10"
     inkscape:pageopacity="0"
     inkscape:pageshadow="2"
     inkscape:window-width="1920"
     inkscape:window-height="988"
     id="namedview4"
     showgrid="false"
     inkscape:zoom="1.2525654"
     inkscape:cx="570.1605"
     inkscape:cy="686.14563"
     inkscape:window-x="0"
     inkscape:window-y="27"
     inkscape:window-maximized="1"
     inkscape:current-layer="g10" /><g
     id="g10"
     inkscape:groupmode="layer"
     inkscape:label="fulltext"
     transform="matrix(1.3333333,0,0,-1.3333333,0,1065.8267)"><path
       d="M 262.33,329.34 H 566.804 V 670.269 H 262.33 Z"
       style="fill:#f5e0dc;fill-opacity:1;fill-rule:nonzero;stroke:none"
       id="path270"
       inkscape:connector-curvature="0" /><g
       id="g272"
       transform="translate(268.125,343.765)"><path
         d="M 0,0 H 292.885"
         style="fill:none;stroke:#000000;stroke-width:0.25;stroke-linecap:butt;stroke-linejoin:miter;stroke-miterlimit:10;stroke-dasharray:none;stroke-opacity:1"
         id="path274"
         inkscape:connector-curvature="0" /></g><path
       d="m 268.125,624.341 h 94.71 v -19.783 h -94.71 z m 94.71,0 h 53.433 v -19.783 h -53.433 z m 53.433,0 h 48.968 v -19.783 h -48.968 z m 48.968,0 h 52.087 v -19.783 h -52.087 z m 52.087,0 H 561.01 V 604.558 H 517.323 Z M 268.125,604.558 h 94.71 v -19.783 h -94.71 z m 94.71,0 h 53.433 v -19.783 h -53.433 z m 53.433,0 h 48.968 v -19.783 h -48.968 z m 48.968,0 h 52.087 v -19.783 h -52.087 z m 52.087,0 H 561.01 V 584.775 H 517.323 Z M 268.125,573.492 h 94.71 v -19.783 h -94.71 z m 94.71,0 h 53.433 v -19.783 h -53.433 z m 53.433,0 h 48.968 v -19.783 h -48.968 z m 48.968,0 h 52.087 v -19.783 h -52.087 z m 52.087,0 H 561.01 V 553.709 H 517.323 Z M 268.125,553.709 h 94.71 v -19.784 h -94.71 z m 94.71,0 h 53.433 v -19.784 h -53.433 z m 53.433,0 h 48.968 v -19.784 h -48.968 z m 48.968,0 h 52.087 v -19.784 h -52.087 z m 52.087,0 H 561.01 V 533.925 H 517.323 Z M 268.125,533.925 h 94.71 v -19.783 h -94.71 z m 94.71,0 h 53.433 v -19.783 h -53.433 z m 53.433,0 h 48.968 v -19.783 h -48.968 z m 48.968,0 h 52.087 v -19.783 h -52.087 z m 52.087,0 H 561.01 V 514.142 H 517.323 Z M 268.125,514.142 h 94.71 v -19.783 h -94.71 z m 94.71,0 h 53.433 v -19.783 h -53.433 z m 53.433,0 h 48.968 v -19.783 h -48.968 z m 48.968,0 h 52.087 v -19.783 h -52.087 z m 52.087,0 H 561.01 V 494.359 H 517.323 Z M 268.125,494.359 h 94.71 v -19.783 h -94.71 z m 94.71,0 h 53.433 v -19.783 h -53.433 z m 53.433,0 h 48.968 v -19.783 h -48.968 z m 48.968,0 h 52.087 v -19.783 h -52.087 z m 52.087,0 H 561.01 V 474.576 H 517.323 Z M 268.125,474.576 h 94.71 v -19.783 h -94.71 z m 94.71,0 h 53.433 v -19.783 h -53.433 z m 53.433,0 h 48.968 v -19.783 h -48.968 z m 48.968,0 h 52.087 v -19.783 h -52.087 z m 52.087,0 H 561.01 V 454.793 H 517.323 Z M 268.125,454.793 h 94.71 V 435.01 h -94.71 z m 94.71,0 h 53.433 V 435.01 h -53.433 z m 53.433,0 h 48.968 V 435.01 h -48.968 z m 48.968,0 h 52.087 V 435.01 h -52.087 z m 52.087,0 H 561.01 V 435.01 H 517.323 Z M 268.125,435.01 h 94.71 v -19.784 h -94.71 z m 94.71,0 h 53.433 v -19.784 h -53.433 z m 53.433,0 h 48.968 v -19.784 h -48.968 z m 48.968,0 h 52.087 v -19.784 h -52.087 z m 52.087,0 h 43.687 v -19.784 h -43.687 z"
       style="fill:#ffffff;fill-opacity:1;fill-rule:nonzero;stroke:none"
       id="path276"
       inkscape:connector-curvature="0" /><g
       id="g278"
       transform="translate(268.125,636.758)"><path
         d="m 0,0 h 94.71 53.433 48.968 52.087 43.687"
         style="fill:none;stroke:#000000;stroke-width:0.25;stroke-linecap:butt;stroke-linejoin:miter;stroke-miterlimit:10;stroke-dasharray:none;stroke-opacity:1"
         id="path280"
         inkscape:connector-curvature="0" /></g><text
       transform="matrix(1,0,0,-1,365.669,658.294)"
       style="font-variant:normal;font-weight:bold;font-size:7px;font-family:Shaker2Lancet;-inkscape-font-specification:Shaker2Lancet-Bold;writing-mode:lr-tb;fill:#000000;fill-opacity:1;fill-rule:nonzero;stroke:none"
       id="text300"><tspan
         x="0 3.3740001 7.8119998 11.396 12.684 16.400999 18.046 21.714001 24.395 25.683001 30.142 34.397999 38.009998"
         y="0"
         sodipodi:role="line"
         id="tspan282">EUC plus HAP </tspan><tspan
         x="0 2.2679999 6.0479999 9.5340004 13.041 16.919001 20.419001 22.687"
         y="8.4980001"
         sodipodi:role="line"
         id="tspan284">(n=245)*</tspan><tspan
         x="53.431 56.805 61.243 64.827003 66.114998 69.348999 70.994003 74.648003 78.428001 81.598999"
         y="0"
         sodipodi:role="line"
         id="tspan286">EUC alone </tspan><tspan
         x="53.431 55.699001 59.479 62.965 66.472 70.349998 74.249001 76.516998"
         y="8.4980001"
         sodipodi:role="line"
         id="tspan288">(n=248)*</tspan><tspan
         x="102.396 106.652 110.376 112.133 115.801 118.482 121.121 124.292 128.01601 129.304 135.065 138.23599 141.47 145.25"
         y="0"
         sodipodi:role="line"
         id="tspan290">Adjusted mean </tspan><tspan
         x="102.396 106.12 107.877 110.047 112.217 115.388 117.698 120.869 124.649 127.435"
         y="8.4980001"
         sodipodi:role="line"
         id="tspan292">diﬀ erence</tspan><tspan
         x="102.396 104.664 108.57 112.07 117.096 118.202 121.786 123.564 125.832"
         y="16.996"
         sodipodi:role="line"
         id="tspan294">(95% CI)†</tspan><tspan
         x="154.483 158.2 159.48801 162.911 166.145 167.78999 171.45799"
         y="-0.0070000002"
         sodipodi:role="line"
         id="tspan296">p value</tspan><tspan
         x="-94.717003 -91.105003 -88.794998 -87.038002 -81.277 -78.042999 -75.733002 -72.387001 -71.162697 -67.508698 -63.840698 -61.201698 -58.415699 -54.7617 -49.000702 -45.8297"
         y="30.541"
         sodipodi:role="line"
         id="tspan298">Primary outcomes</tspan></text>
<text
       transform="matrix(1,0,0,-1,270.952,616.469)"
       style="font-variant:normal;font-weight:normal;font-size:7px;font-family:Shaker2Lancet;-inkscape-font-specification:Shaker2Lancet-Regular;writing-mode:lr-tb;fill:#000000;fill-opacity:1;fill-rule:nonzero;stroke:none"
       id="text314"><tspan
         x="0 3.6819999 7.8260002 9.4429998 11.767 13.384 15.001 16.323999 18.844 21.504 25.046 27.174 30.233 31.556 34.608002 36.952999 38.276001 41.650002 42.973 48.509998 52.051998 55.643002 57.987999 61.536999 98.917 102.088 105.875 107.408 111.195 114.982 116.305 118.475 121.646 125.041 126.574 129.80099 133.42 150.689 154.077 157.304 158.83701 162.23199 165.62 166.94299 169.11301 172.284 175.658 177.19099 180.57899 184.38699 199.395 202.041 205.26801 206.80099 210.196 213.423"
         y="0"
         sodipodi:role="line"
         id="tspan302">BDI-II score at 3 months19·99 (15·70)27·52 (13·26)–7·57 </tspan><tspan
         x="197.11301 199.283 201.929 205.10001 208.71899 210.252 213.64 216.867 218.00101 220.34599 223.888 225.211 227.85699 231.57401 233.10699 236.901 240.709"
         y="8.4980001"
         sodipodi:role="line"
         id="tspan304">(–10·27 to –4·86)</tspan><tspan
         x="251.258 254.744 258.36301 259.896 263.51501 267.134 270.75299"
         y="0"
         sodipodi:role="line"
         id="tspan306">&lt;0·0001</tspan><tspan
         x="0 4.1440001 7.119 10.507 12.551 15.526 17.962 20.398001 21.903 25.361 28.868 30.107 32.151001 35.125999 40.578999 42.084 44.52 46.956001 48.460999 51.918999 55.425999 56.665001 59.632999 61.894001 63.132999 66.422997 67.662003 73.114998 76.572998 80.080002 82.341003 85.806 95.760002 98.931 102.648 105.875 108.066 111.454 114.828 118.447 119.77 121.94 125.748 129.465 134.28101 150.34599 154.133 157.304 159.495 162.883 166.257 170.065 171.388 173.558 176.93201 180.71899 185.535 202.097 205.26801 206.80099 210.60899 213.78"
         y="19.782"
         sodipodi:role="line"
         id="tspan308">Depression remission at 3 months147/230 (64%)91/236 (39%)1·61 </tspan><tspan
         x="197.11301 199.283 202.45399 203.987 207.36099 211.078 212.21201 214.55701 218.099 219.422 222.593 224.12601 227.91299 231.287"
         y="28.280001"
         sodipodi:role="line"
         id="tspan310">(1·34 to 1·93)</tspan><tspan
         x="251.258 254.744 258.36301 259.896 263.51501 267.134 270.75299"
         y="19.782"
         sodipodi:role="line"
         id="tspan312">&lt;0·0001</tspan></text>
<text
       transform="matrix(1,0,0,-1,270.952,576.905)"
       style="font-variant:normal;font-weight:bold;font-size:7px;font-family:Shaker2Lancet;-inkscape-font-specification:Shaker2Lancet-Bold;writing-mode:lr-tb;fill:#000000;fill-opacity:1;fill-rule:nonzero;stroke:none"
       id="text318"><tspan
         x="0 3.3110001 6.4819999 9.2679996 12.922 16.702 20.426001 23.66 25.969999 29.316 30.5403 34.194302 37.862301 40.501301 43.2873 46.941299 52.702301 55.873299"
         y="0"
         sodipodi:role="line"
         id="tspan316">Secondary outcomes</tspan></text>
<text
       transform="matrix(1,0,0,-1,270.952,565.621)"
       style="font-variant:normal;font-weight:normal;font-size:7px;font-family:Shaker2Lancet;-inkscape-font-specification:Shaker2Lancet-Regular;writing-mode:lr-tb;fill:#000000;fill-opacity:1;fill-rule:nonzero;stroke:none"
       id="text380"><tspan
         x="0 4.1440001 5.7329998 8.2530003 11.305 14.756 16.344999 17.843 19.431999 21.777 24.773001 26.096001 28.615999 31.275999 34.818001 36.945999 102.088 105.875 107.408 110.579 113.967 115.29 117.46 121.247 122.78 126.154 129.871 150.96201 154.133 157.304 158.83701 162.064 165.851 167.174 169.34399 173.138 174.67101 178.45799 182.245 199.23399 201.88 205.26801 206.80099 210.028 213.40199"
         y="0"
         sodipodi:role="line"
         id="tspan320">Disability score9·12 (9·34)11·79 (8·99)–2·73 </tspan><tspan
         x="197.11301 199.283 201.929 205.646 207.179 210.55299 214.34 215.474 217.819 221.36099 222.68401 225.33 228.50101 230.034 233.653 237.461"
         y="8.4980001"
         sodipodi:role="line"
         id="tspan322">(–4·39 to –1·06)</tspan><tspan
         x="254.744 258.36301 259.896 263.51501 267.134"
         y="0"
         sodipodi:role="line"
         id="tspan324">0·001</tspan><tspan
         x="0 4.1440001 7.1960001 10.192 12.712 13.916 17.402 20.993 24.045 27.496 28.993999 32.053001 33.187 35.532001 39.074001 40.278 45.037998 48.580002 50.708 102.165 105.882 107.415 111.202 114.429 115.752 117.922 121.149 122.682 125.909 129.08 154.084 157.311 158.84399 162.23199 165.403 166.726 168.896 172.683 174.216 177.59 181.384 199.241 201.88699 205.27499 206.808 210.196 213.983"
         y="19.782"
         sodipodi:role="line"
         id="tspan326">Days unable to work4·97 (7·71)7·21 (9·38)–2·29 </tspan><tspan
         x="197.11301 199.283 201.929 205.30299 206.836 210.63 214.347 215.481 217.826 221.368 222.69099 225.33701 228.95599 230.489 233.716 237.09"
         y="28.280001"
         sodipodi:role="line"
         id="tspan328">(–3·84 to –0·73)</tspan><tspan
         x="254.744 258.36301 259.896 263.51501 267.134"
         y="19.782"
         sodipodi:role="line"
         id="tspan330">0·004</tspan><tspan
         x="0 3.6819999 6.7410002 10.29 13.342 16.443001 18.032 21.573999 25.059999 27.188 30.24 31.738001 33.061001 36.112999 38.772999 41.118 42.707001 45.807999 48.860001 51.205002 52.793999 56.335999 59.926998 61.25 63.77 66.43 69.972 72.099998 99.322998 102.494 105.882 107.415 111.034 114.429 115.752 117.922 121.639 123.172 126.399 130.207 153.524 157.311 158.84399 162.638 166.43201 167.755 169.925 173.642 175.175 178.549 182.35699 201.88699 205.27499 206.808 209.979 213.20599"
         y="39.563999"
         sodipodi:role="line"
         id="tspan332">Behavioural activation score12·05 (4·76)9·88 (4·36)2·17 </tspan><tspan
         x="197.11301 199.283 202.45399 203.987 207.36099 211.078 212.21201 214.55701 218.099 219.422 222.79601 224.32899 227.948 231.567"
         y="48.062"
         sodipodi:role="line"
         id="tspan334">(1·34 to 3·00)</tspan><tspan
         x="251.258 254.744 258.36301 259.896 263.51501 267.134 270.75299"
         y="39.563999"
         sodipodi:role="line"
         id="tspan336">&lt;0·0001</tspan><tspan
         x="0 3.1989999 6.6849999 8.2740002 10.934 12.523 16.002001 19.054001 20.552 21.686001 24.031 27.58 31.122 34.608002 38.058998 41.608002 43.952999 46.473 47.676998 51.219002 53.347 54.669998 57.722 60.067001 62.411999 65.471001 71.008003 74.480003 76.824997 79.345001 98.363998 102.081 105.875 108.066 111.454 114.828 118.447 119.77 121.94 125.328 128.49899 133.315 150.12199 153.916 157.304 159.495 162.883 166.257 170.065 171.388 173.558 176.93201 180.327 185.14301 201.649 205.26801 206.80099 210.60899 213.78"
         y="59.346001"
         sodipodi:role="line"
         id="tspan338">Suicidal thoughts or attempts‡48/230 (21%)82/236 (35%)0·61 </tspan><tspan
         x="197.11301 199.283 202.90199 204.435 208.15199 211.547 212.681 215.026 218.56799 219.89101 223.50999 225.043 228.83701 232.211"
         y="67.844002"
         sodipodi:role="line"
         id="tspan340">(0·45 to 0·83)</tspan><tspan
         x="254.744 258.36301 259.896 263.51501 267.134"
         y="59.346001"
         sodipodi:role="line"
         id="tspan342">0·001</tspan><tspan
         x="0 1.617 5.2080002 7.553 9.1420002 14.679 17.731001 20.076 23.135 24.458 27.93 30.982 33.110001 35.455002 39.046001 42.105 44.233002 45.556 49.028 52.577 55.573002 58.092999 59.681999 62.341999 65.393997 66.891998"
         y="79.127998"
         sodipodi:role="line"
         id="tspan344">Intimate partner physical </tspan><tspan
         x="0 3.1010001 4.6900001 8.2320004 9.7299995 12.789 16.379999 19.040001 22.099001 23.422001 25.591999 30.351999 33.894001 39.431 42.490002 46.081001 48.250999"
         y="87.625999"
         sodipodi:role="line"
         id="tspan346">violence (women)§</tspan><tspan
         x="99.330002 102.501 105.875 108.066 111.237 114.408 117.796 119.119 121.289 124.46 127.848 132.664 150.108 153.496 157.304 159.495 162.666 166.054 169.673 170.996 173.166 176.554 179.942 184.758 201.649 205.26801 206.80099 210.196 213.57001"
         y="79.127998"
         sodipodi:role="line"
         id="tspan348">13/112 (12%)26/120 (22%)0·53 </tspan><tspan
         x="197.11301 199.283 202.90199 204.435 207.823 211.61 212.744 215.089 218.631 219.95399 223.573 225.106 228.89301 232.701"
         y="87.625999"
         sodipodi:role="line"
         id="tspan350">(0·29 to 0·96)</tspan><tspan
         x="254.744 258.36301 259.896 263.51501"
         y="79.127998"
         sodipodi:role="line"
         id="tspan352">0·04</tspan><tspan
         x="0 1.6163 5.2066002 7.5509 9.1392002 14.6755 17.726801 20.0711 23.1294 24.4524 27.9237 30.975 33.102299 35.446602 39.0369 42.0952 44.2225 45.545502 49.0168 51.536098 54.531399 57.190701 60.738998 64.280296 65.777603 69.318901 72.769203 74.357498 77.0168 80.0681 81.565399"
         y="98.910004"
         sodipodi:role="line"
         id="tspan354">Intimate partner psychological </tspan><tspan
         x="0 3.5420001 5.6700001 6.993 10.052 15.589 19.131001 21.476 23.065001 26.607 30.198 33.25 34.748001 36.070999 39.172001 40.761002 44.303001 45.800999 48.860001 52.451 55.111 58.169998 59.493 61.662998 66.422997 69.964996 75.501999 78.560997 82.152 84.321999"
         y="107.408"
         sodipodi:role="line"
         id="tspan356">or emotional violence (women)§</tspan><tspan
         x="99.126999 102.501 105.875 108.066 111.237 114.408 117.796 119.119 121.289 124.677 128.464 133.28 149.87 153.58701 157.304 159.495 162.666 166.054 169.673 170.996 173.166 176.53999 179.767 184.58299 201.649 205.26801 206.80099 210.028 213.836"
         y="98.910004"
         sodipodi:role="line"
         id="tspan358">33/112 (29%)44/120 (37%)0·76 </tspan><tspan
         x="197.11301 199.283 202.90199 204.435 207.83 211.20399 212.338 214.683 218.22501 219.548 222.71899 224.252 227.423 231.04201"
         y="107.408"
         sodipodi:role="line"
         id="tspan360">(0·53 to 1·10)</tspan><tspan
         x="254.744 258.36301 259.896 263.06699"
         y="98.910004"
         sodipodi:role="line"
         id="tspan362">0·15</tspan><tspan
         x="0 1.617 5.2080002 7.553 9.1420002 14.679 17.731001 20.076 23.135 24.458 27.93 30.982 33.110001 35.455002 39.046001 42.105 44.233002 45.556 49.028 52.577 55.573002 58.092999 59.681999 62.341999 65.393997 66.891998"
         y="118.692"
         sodipodi:role="line"
         id="tspan364">Intimate partner physical </tspan><tspan
         x="0 3.1010001 4.6900001 8.2320004 9.7299995 12.789 16.379999 19.040001 22.099001 23.422001 25.591999 31.129 34.188 37.778999 39.949001"
         y="127.19"
         sodipodi:role="line"
         id="tspan366">violence (men)§</tspan><tspan
         x="102.256 105.875 108.066 111.44 155.93201 159.306 161.49699 165.214 168.83299 170.15601 172.326 176.12 180.936 201.65601 205.27499 206.808 210.427 254.744 258.36301 259.896 263.284 267.00101"
         y="118.692"
         sodipodi:role="line"
         id="tspan368">0/373/40 (8%)0·000·24¶</tspan><tspan
         x="0 1.6163 5.2066002 7.5509 9.1392002 14.6755 17.726801 20.0711 23.1294 24.4524 27.9237 30.975 33.102299 35.446602 39.0369 42.0952 44.2225 45.545502 49.0168 51.536098 54.531399 57.190701 60.738998 64.280296 65.777603 69.318901 72.769203 74.357498 77.0168 80.0681 81.565399"
         y="138.474"
         sodipodi:role="line"
         id="tspan370">Intimate partner psychological </tspan><tspan
         x="0 3.5420001 5.6700001 6.993 10.052 15.589 19.131001 21.476 23.065001 26.607 30.198 33.25 34.748001 36.070999 39.172001 40.761002 44.303001 45.800999 48.860001 52.451 55.111 58.169998 59.493 61.662998 67.199997 70.259003 73.849998 76.019997"
         y="146.972"
         sodipodi:role="line"
         id="tspan372">or emotional violence (men)§</tspan><tspan
         x="102.067 105.875 108.066 111.44 114.667 115.99 118.16 121.331 125.139 129.955 153.50999 157.304 159.495 163.21201 166.83099 168.15401 170.32401 173.71201 177.33099 182.147 201.649 205.26801 206.80099 210.60899"
         y="138.474"
         sodipodi:role="line"
         id="tspan374">6/37 (16%)8/40 (20%)0·67</tspan><tspan
         x="197.11301 199.283 202.90199 204.435 207.823 211.05 212.18401 214.52901 218.071 219.394 222.565 224.09801 227.325 230.496"
         y="146.972"
         sodipodi:role="line"
         id="tspan376">(0·27 to 1·71)</tspan><tspan
         x="254.744 258.36301 259.896 263.61301"
         y="138.474"
         sodipodi:role="line"
         id="tspan378">0·41</tspan></text>
<text
       transform="matrix(1,0,0,-1,268.125,402.223)"
       style="font-variant:normal;font-weight:normal;font-size:6.5px;font-family:Shaker2Lancet;-inkscape-font-specification:Shaker2Lancet-Regular;writing-mode:lr-tb;fill:#000000;fill-opacity:1;fill-rule:nonzero;stroke:none"
       id="text396"><tspan
         x="0 3.848 6.6820002 8.8594999 11.6935 12.922 15.756 17.732 20.5725 21.801001 26.942499 29.783001 32.617001 35.9515 37.18 39.195 42.165501 46.0135 48.0285 49.139999 52.429001 54.404999 55.633499 58.967999 61.002499 65.2015 66.43 68.445 72.917 74.931999 76.355499 77.584 80.573997 84.5065 87.815002 91.052002 93.892502 97.226997 100.5225 103.3565 106.691 109.161 112.0015 115.232 116.3435 119.5805 121.9205 125.1575 127.9915 129.38251 130.61099 133.08099 135.91499 137.89101 140.73151 142.155 143.3835 147.3615 151.1705 154.362 157.599 161.577 164.4175 167.2515 168.6425 170.82001 174.11549 176.89751 177.9505 181.75951 184.22951 186.407 187.88251 190.76199 192.2375 194.41499 197.19701 198.42551 201.617 203.593 206.882 210.0865 212.0625 214.8965 220.03799 221.4615 222.69 226.10899 229.957 231.4585 234.6955 238.1145 240.955 243.425 246.259 247.4875 251.33549 254.17599 257.39999 259.37601 262.21649 264.55649 266.89651 268.37201 271.66101 274.99551"
         y="0"
         sodipodi:role="line"
         id="tspan382">Data are mean (SD) or n/N (%). EUC=enhanced usual care. HAP=Healthy Activity Program. BDI=Beck Depression </tspan><tspan
         x="0 1.5015 4.836 7.7154999 10.556 13.8905 16.068001 19.357 21.333 23.8745 25.298 26.526501 29.263 33.071999 38.213501 41.502499 44.837002 48.0415 49.094501 51.271999 54.567501 57.856499 60.196499 63.036999 64.154999 68.574997 70.050499 72.227997 75.523499 76.641502 79.930496 83.135002 85.474998 88.315498 90.291496 93.170998 96.011497 99.241997 100.36 103.5905 106.4245 108.602 111.436 112.6645 115.4985 117.676 118.9045 122.0375 123.266 128.4075 131.6965 135.03101 137.2085 140.504 142.84399 144.2675 145.496 148.3885 149.89 153.2245 155.6945 157.08549 160.32249 163.55299 165.0285 168.36301 171.5675 172.79601 174.2715 179.41299 182.63699 185.87399 188.0515 190.892 194.1225 195.23399 198.52299 201.75999 203.9375 206.4075 209.6965 214.838 217.6785 218.79649 222.02699 224.86099 227.0385 229.8725 231.101 233.04449 236.3335 238.30949 239.3625 241.53999 244.83549 248.1245 250.46449 253.30499 254.423 258.84299 260.31851 262.496 265.7915 267.01999 272.1615 273.63699 275.97699 278.31699 279.79251 283.12701 286.33151"
         y="8.5019999"
         sodipodi:role="line"
         id="tspan384">Inventory. *Among those with observed data at 3 months. †Including imputed outcome data for those with missing </tspan><tspan
         x="0 3.2305 6.0644999 8.2419996 11.076 12.4995 13.728 16.620501 21.7425 24.583 25.811501 28.6455 30.9855 33.3255 36.166 38.506001 40.846001 43.686501 46.917 48.1455 50.4855 53.7225 55.198002 57.667999 59.143501 62.374001 65.208 66.598999 67.6455 69.822998 73.1185 76.407501 79.644501 82.848999 86.144501 88.321999 90.662003 91.779999 95.069 97.948502 100.789 102.765 103.818 105.9955 109.291 112.1315 113.36 116.584 119.418 121.758 123.9355 125.164 128.31 129.42799 133.84801 136.68851 139.52901 142.36301 144.703 145.756 147.9335 151.229 153.205 156.494 159.731 162.9355 166.231 167.284 169.4615 172.757 175.5975 176.826 178.802 181.6425 183.03349 185.87399 188.75349 191.58749 194.922 197.0995 198.328 201.4545 204.2885 206.466 207.9415 210.782 214.1165 216.29401 217.52251 221.5005 224.341 227.175 228.56599 230.7435 234.039 235.0985 239.1545 242.39149 245.23199 247.57201 249.7495 251.22501 254.51401 257.84851 261.18301 264.017 265.49249 267.46851 270.30899 271.53751 275.05399 276.2825 277.758 279.93549 282.776 287.91751 289.341"
         y="17.004"
         sodipodi:role="line"
         id="tspan386">data. ‡We assessed suicidal thoughts over the past 2 weeks through the relevant Patient Health Questionnaire 9 item, </tspan><tspan
         x="0 4.4200001 7.7154999 10.556 12.532 15.3725 18.206499 20.546499 21.664499 26.084499 28.924999 30.1535 32.987499 35.327499 37.6675 40.507999 42.848 45.188 48.0285 51.258999 52.487499 54.827499 58.064499 59.540001 62.009998 63.4855 66.716003 69.556503 70.785004 73.619003 75.796501 77.973999 80.814499 85.956001 89.18 91.357498 93.697502 94.815498 98.1045 100.984 103.8245 105.8005 106.8535 109.031 112.3265 115.167 116.3955 119.5285 120.757 125.8985 129.1875 132.522 134.69949 137.995 139.2235 142.44749 145.28799 147.26401 148.7395 152.0285 155.259 156.4875 158.8275 160.30299 163.6375 166.1075 168.948 170.1765 173.017 176.3515 178.3275 181.6165 183.00751 188.149 190.9895 194.32401 196.5015 197.925 199.1535 202.12399 204.96449 207.84399 210.68449 214.019 215.2475 218.4715 221.3055 223.28149 225.459 226.93449 229.4045 230.88 234.104 236.938 240.27251 242.45 244.78999 246.01849 247.99451 250.83501 254.05901 257.34799 259.32401 261.5015 264.34201 267.57251 268.80099 271.14099 274.37799 275.85349 278.32349 279.79901 283.02951 285.87"
         y="25.506001"
         sodipodi:role="line"
         id="tspan388">whereas we assessed suicide attempts over the 3 month period since enrolment. Seven participants reported suicide </tspan><tspan
         x="0 2.8340001 5.0114999 7.1890001 10.0295 15.171 18.395 20.5725 22.9125 24.141001 26.156 28.3335 31.629 33.605 36.445499 39.285999 40.5145 41.990002 45.324501 46.370998 48.5485 51.844002 54.684502 55.912998 58.903 62.835499 66.143997 67.372498 70.577003 72.553001 75.842003 79.079002 82.303001 83.531502 86.365501 89.699997 92.930496 94.158997 96.102501 99.391502 102.6285 104.6045 105.833 107.3085 110.643 111.6895 113.867 117.1625 120.003 121.2315 124.2215 128.15401 131.46249 132.69099 135.91499 137.306 140.543 142.883 144.1115 148.08949 151.8985 155.09 156.3185 159.52299 161.49899 164.78799 168.02499 171.24899 173.26401 174.6875 175.74049 179.5495 180.94051 182.3315 183.44949 186.73849 188.68201 189.735 191.91251 195.20799 198.04849 200.3885 203.229 204.4575 207.6815 210.5155 212.4915 214.66901 216.1445 218.6145 220.09 223.314 226.14799 229.4825 231.66 234 235.2285 238.0625 239.45351 241.7935 245.0825 246.311 248.287 251.1275 254.3515 257.6405 259.61649 261.79401 264.63449 267.86499 269.09351 271.4335 274.6705 276.146 278.616 280.09149 283.32199 286.15601 287.547"
         y="34.007999"
         sodipodi:role="line"
         id="tspan390">attempts (three in the EUC group and four in the EUC plus HAP group). All of these participants also reported suicidal </tspan><tspan
         x="0 2.1775 5.473 8.7620001 11.999 15.2035 18.499001 20.6765 23.0165 24.440001 25.668501 28.405001 32.214001 37.355499 40.644501 43.979 47.183498 48.411999 53.553501 56.387501 58.363499 60.3395 61.814999 64.655502 67.886002 69.114502 72.338501 75.172501 77.148499 79.325996 80.801498 83.2715 84.747002 87.971001 90.805 94.139503 96.317001 98.656998 100.0805 101.309 105.144 108.563 111.4035 113.8735 116.7075 119.9445 122.2845 125.125 126.2365 129.5255 131.46899 132.69749 135.03751 138.26151 141.0955 143.0715 145.4115 148.252 149.37 152.60049 155.43449 157.612 160.446 161.86951 162.9225 165.10001 168.39549 171.23599 172.46449 175.68851 176.91701 179.79649 182.63049 184.0215 187.2585 190.099 191.3275 193.271 196.56 198.536 199.7645 202.98849 206.284 209.06599 211.40601 212.8815 215.3515 218.1855 219.57651 220.80499 223.68449 225.16 228.44901 229.84 232.6805 236.015 238.485 241.3255 242.554 244.0295 247.364 248.5925 253.73399 256.57449 259.909 261.13751 262.61301 264.953 266.06451 269.30151 271.64151 273.117 276.45151 279.65601"
         y="42.509998"
         sodipodi:role="line"
         id="tspan392">thoughts. §Among married participants. ¶Because of sparse data, the p value for physical violence in men is using </tspan><tspan
         x="0 2.8534999 4.329 6.6690001 9.9645004 12.805 14.833 15.938 18.278 19.5065 22.347 25.194 28.028 30.497999 32.675499 33.7285 35.905998 38.746498 41.086498 43.264 44.382 47.671001 51.005501 52.234001 54.703999 57.993 63.134499 66.358498 67.749496 70.589996 72.767502 75.608002 76.836502 79.306503 82.140503 84.480499 87.320999 88.439003 91.669502 94.503502 96.681 99.514999"
         y="51.012001"
         sodipodi:role="line"
         id="tspan394">Fisher’s exact test on complete case data.</tspan></text>
<text
       transform="matrix(1,0,0,-1,268.125,335.136)"
       style="font-style:italic;font-variant:normal;font-weight:bold;font-size:7px;font-family:Shaker2Lancet;-inkscape-font-specification:Shaker2Lancet-BoldItalic;writing-mode:lr-tb;fill:#000000;fill-opacity:1;fill-rule:nonzero;stroke:none"
       id="text400"><tspan
         x="0 3.1429999 6.4749999 9.7930002 11.375 14.245 15.379 19.004999"
         y="0"
         sodipodi:role="line"
         id="tspan398">Table 2:</tspan></text>
<text
       transform="matrix(1,0,0,-1,290.077,335.136)"
       style="font-variant:normal;font-weight:bold;font-size:7px;font-family:Shaker2Lancet;-inkscape-font-specification:Shaker2Lancet-Bold;writing-mode:lr-tb;fill:#000000;fill-opacity:1;fill-rule:nonzero;stroke:none"
       id="text404"><tspan
         x="0 3.612 5.9219999 7.6789999 13.44 16.674 18.983999 22.33 23.618 26.851999 30.632 34.355999 35.644001 38.325001 41.495998 44.282001 47.936001 51.716 55.439999 58.674 60.984001 64.330002 65.555 69.209 72.876999 75.515999 78.302002 81.956001 87.717003 90.888 93.569"
         y="0"
         sodipodi:role="line"
         id="tspan402">Primary and secondary outcomes </tspan></text>
<g
       id="g406"
       transform="translate(262.33,670.269)"><path
         d="M 304.474,0 H 0 v -340.929 h 304.474 z"
         style="fill:none;stroke:#b30838;stroke-width:0.25;stroke-linecap:butt;stroke-linejoin:miter;stroke-miterlimit:4;stroke-dasharray:none;stroke-opacity:1"
         id="path408"
         inkscape:connector-curvature="0" /></g><g
       id="g410"
       transform="translate(262.33,670.269)"><path
         d="M 0,0 Z"
         style="fill:none;stroke:#b30838;stroke-width:0.25;stroke-linecap:butt;stroke-linejoin:miter;stroke-miterlimit:4;stroke-dasharray:none;stroke-opacity:1"
         id="path412"
         inkscape:connector-curvature="0" /></g></g></svg>