<?xml version="1.0" encoding="UTF-8" standalone="no"?>
<!-- Created with Inkscape (http://www.inkscape.org/) -->

<svg
   xmlns:dc="http://purl.org/dc/elements/1.1/"
   xmlns:cc="http://creativecommons.org/ns#"
   xmlns:rdf="http://www.w3.org/1999/02/22-rdf-syntax-ns#"
   xmlns:svg="http://www.w3.org/2000/svg"
   xmlns="http://www.w3.org/2000/svg"
   xmlns:sodipodi="http://sodipodi.sourceforge.net/DTD/sodipodi-0.dtd"
   xmlns:inkscape="http://www.inkscape.org/namespaces/inkscape"
   version="1.1"
   id="svg2"
   xml:space="preserve"
   width="793.70135"
   height="1065.8267"
   viewBox="0 0 793.70135 1065.8267"
   sodipodi:docname="table1.svg"
   inkscape:version="0.92.0 r15299"><metadata
     id="metadata8"><rdf:RDF><cc:Work
         rdf:about=""><dc:format>image/svg+xml</dc:format><dc:type
           rdf:resource="http://purl.org/dc/dcmitype/StillImage" /><dc:title></dc:title></cc:Work></rdf:RDF></metadata><defs
     id="defs6"><clipPath
       clipPathUnits="userSpaceOnUse"
       id="clipPath22"><path
         d="M 0.03,799.37 H 595.276 V 0 H 0.03 Z"
         id="path20"
         inkscape:connector-curvature="0" /></clipPath></defs><sodipodi:namedview
     pagecolor="#ffffff"
     bordercolor="#666666"
     borderopacity="1"
     objecttolerance="10"
     gridtolerance="10"
     guidetolerance="10"
     inkscape:pageopacity="0"
     inkscape:pageshadow="2"
     inkscape:window-width="1920"
     inkscape:window-height="988"
     id="namedview4"
     showgrid="false"
     inkscape:zoom="1.2525654"
     inkscape:cx="205.92172"
     inkscape:cy="656.75602"
     inkscape:window-x="0"
     inkscape:window-y="27"
     inkscape:window-maximized="1"
     inkscape:current-layer="g10" /><g
     id="g10"
     inkscape:groupmode="layer"
     inkscape:label="fulltext"
     transform="matrix(1.3333333,0,0,-1.3333333,0,1065.8267)"><path
       d="M 119.179,250.686 H 332.945 V 670.269 H 119.179 Z"
       style="fill:#f5e0dc;fill-opacity:1;fill-rule:nonzero;stroke:none"
       id="path228"
       inkscape:connector-curvature="0" /><g
       id="g230"
       transform="translate(124.97301,265.11)"><path
         d="M 0,0 H 202.177"
         style="fill:none;stroke:#000000;stroke-width:0.25;stroke-linecap:butt;stroke-linejoin:miter;stroke-miterlimit:10;stroke-dasharray:none;stroke-opacity:1"
         id="path232"
         inkscape:connector-curvature="0" /></g><path
       d="m 124.973,632.716 h 81.388 v -11.283 h -81.388 z m 81.388,0 h 60.094 v -11.283 h -60.094 z m 60.094,0 H 327.15 V 621.433 H 266.455 Z M 124.973,565.017 h 81.388 v -11.283 h -81.388 z m 81.388,0 h 60.094 v -11.283 h -60.094 z m 60.094,0 H 327.15 V 553.734 H 266.455 Z M 124.973,553.734 h 81.388 v -11.283 h -81.388 z m 81.388,0 h 60.094 v -11.283 h -60.094 z m 60.094,0 H 327.15 V 542.451 H 266.455 Z M 124.973,542.451 h 81.388 v -11.283 h -81.388 z m 81.388,0 h 60.094 v -11.283 h -60.094 z m 60.094,0 H 327.15 V 531.168 H 266.455 Z M 124.973,531.168 h 81.388 v -11.283 h -81.388 z m 81.388,0 h 60.094 v -11.283 h -60.094 z m 60.094,0 H 327.15 V 519.885 H 266.455 Z M 124.973,519.885 h 81.388 v -11.284 h -81.388 z m 81.388,0 h 60.094 v -11.284 h -60.094 z m 60.094,0 H 327.15 V 508.601 H 266.455 Z M 124.973,508.601 h 81.388 v -11.283 h -81.388 z m 81.388,0 h 60.094 v -11.283 h -60.094 z m 60.094,0 H 327.15 V 497.318 H 266.455 Z M 124.973,440.903 H 327.15 V 429.619 H 124.973 Z m 0,-11.284 h 81.388 v -11.283 h -81.388 z m 81.388,0 h 60.094 v -11.283 h -60.094 z m 60.094,0 H 327.15 V 418.336 H 266.455 Z M 124.973,418.336 h 81.388 v -19.783 h -81.388 z m 81.388,0 h 60.094 v -19.783 h -60.094 z m 60.094,0 H 327.15 V 398.553 H 266.455 Z M 124.973,398.553 h 81.388 V 387.27 h -81.388 z m 81.388,0 h 60.094 V 387.27 h -60.094 z m 60.094,0 H 327.15 V 387.27 H 266.455 Z M 124.973,387.27 h 81.388 v -11.283 h -81.388 z m 81.388,0 h 60.094 v -11.283 h -60.094 z m 60.094,0 H 327.15 V 375.987 H 266.455 Z M 124.973,356.204 h 81.388 v -11.283 h -81.388 z m 81.388,0 h 60.094 v -11.283 h -60.094 z m 60.094,0 h 60.695 v -11.283 h -60.695 z"
       style="fill:#ffffff;fill-opacity:1;fill-rule:nonzero;stroke:none"
       id="path234"
       inkscape:connector-curvature="0" /><g
       id="g236"
       transform="translate(124.97301,645.258)"><path
         d="m 0,0 h 81.388 60.094 60.695"
         style="fill:none;stroke:#000000;stroke-width:0.25;stroke-linecap:butt;stroke-linejoin:miter;stroke-miterlimit:10;stroke-dasharray:none;stroke-opacity:1"
         id="path238"
         inkscape:connector-curvature="0" /></g><text
       transform="matrix(1,0,0,-1,209.196,658.294)"
       style="font-variant:normal;font-weight:bold;font-size:7px;font-family:Shaker2Lancet;-inkscape-font-specification:Shaker2Lancet-Bold;writing-mode:lr-tb;fill:#000000;fill-opacity:1;fill-rule:nonzero;stroke:none"
       id="text248"><tspan
         x="0 3.3740001 7.8119998 11.396 12.684 16.400999 18.046 21.714001 24.395 25.683001 30.142 34.397999 38.009998"
         y="0"
         sodipodi:role="line"
         id="tspan240">EUC plus HAP </tspan><tspan
         x="0 2.2679999 6.0479999 9.5340004 13.041 16.919001 20.419001"
         y="8.4980001"
         sodipodi:role="line"
         id="tspan242">(n=245)</tspan><tspan
         x="60.095001 63.469002 67.906998 71.490997 72.778999 76.013 77.657997 81.311996 85.092003"
         y="0"
         sodipodi:role="line"
         id="tspan244">EUC alone</tspan><tspan
         x="60.095001 62.362999 66.142998 69.628998 73.136002 77.014 80.913002"
         y="8.4980001"
         sodipodi:role="line"
         id="tspan246">(n=248)</tspan></text>
<text
       transform="matrix(1,0,0,-1,127.807,636.118)"
       style="font-variant:normal;font-weight:normal;font-size:7px;font-family:Shaker2Lancet;-inkscape-font-specification:Shaker2Lancet-Regular;writing-mode:lr-tb;fill:#000000;fill-opacity:1;fill-rule:nonzero;stroke:none"
       id="text318"><tspan
         x="0 4.1012998 7.5516 10.6099 11.9329 14.1022 17.0975 20.1558 23.2071 25.3344 27.853701 86.457001 90.173302 93.5606 95.092903 98.809196 100.1322 102.3015 105.4718 108.8591 110.3914 113.5617 146.545 150.26131 153.64861 155.18089 158.9882 160.3112 162.4805 165.6508 169.0381 170.5704 174.18871"
         y="0"
         sodipodi:role="line"
         id="tspan250">Age (years)42·4 (12·1)42·6 (12·0)</tspan><tspan
         x="0 3.0309999 6.0900002 11.627 14.679 16.177 19.236 20.559 23.079 26.138 82.795998 85.967003 89.761002 93.555 94.877998 97.047997 100.275 104.083 108.899 143.521 146.692 150.479 153.64999 154.97301 157.14301 160.37 163.597 168.41299"
         y="11.284"
         sodipodi:role="line"
         id="tspan252">Female sex188 (76%)191 (77%)</tspan><tspan
         x="0 5.4320002 8.4840002 10.612 12.201 14.546 17.598 19.096001 20.419001 22.938999 25.284 28.336 30.681 34.167"
         y="22.568001"
         sodipodi:role="line"
         id="tspan254">Marital status</tspan><tspan
         x="5.6700001 11.102 14.154 16.282 18.41 19.999001 23.058001 82.767998 85.939003 89.747002 93.555 94.877998 97.047997 100.856 104.65 109.466 144.08099 147.252 150.479 153.64999 154.97301 157.14301 160.951 164.73801 169.554"
         y="33.852001"
         sodipodi:role="line"
         id="tspan256">Married166 (68%)171 (69%)</tspan><tspan
         x="5.6700001 8.8690004 10.458 14.049 17.5 18.997999 86.373001 89.761002 93.555 94.877998 97.047997 100.219 103.39 108.206 146.47501 149.86301 153.64999 154.97301 157.14301 160.314 163.702 168.51801"
         y="45.136002"
         sodipodi:role="line"
         id="tspan258">Single28 (11%)29 (12%)</tspan><tspan
         x="5.6700001 8.8690004 11.928 15.4 18.452 20.58 23.632 25.976999 29.035999 32.514999 33.719002 37.261002 39.389 40.592999 44.071999 45.660999 48.762001 52.304001 54.431999 57.091999 60.151001 90.188004 93.561996 94.885002 97.055 100.226 105.042 150.48599 153.657 154.98 157.14999 160.769 162.302 166.019 170.83501"
         y="56.419998"
         sodipodi:role="line"
         id="tspan260">Separated or divorced3 (1%)1 (0·4%)</tspan><tspan
         x="5.6700001 11.312 12.901 16.379999 19.922001 24.681999 27.740999 86.051003 89.767998 93.561996 94.885002 97.055 100.226 104.013 108.829 146.713 150.42999 153.657 154.98 157.14999 160.321 164.108 168.924"
         y="67.704002"
         sodipodi:role="line"
         id="tspan262">Widowed48 (19%)47 (19%)</tspan><tspan
         x="0 3.22 6.6989999 10.185 12.845 15.897 18.242001 19.830999 23.372999 26.964001 30.016001 31.514 32.837002 35.356998 37.702 40.754002 43.098999 46.584999"
         y="78.987999"
         sodipodi:role="line"
         id="tspan264">Educational status</tspan><tspan
         x="5.6700001 10.192 13.734 17.325001 86.932999 90.160004 93.555 94.877998 97.047997 100.422 103.593 108.409 146.86 150.255 153.64999 154.97301 157.14301 160.53101 163.91901 168.735"
         y="90.272003"
         sodipodi:role="line"
         id="tspan266">None75 (31%)55 (22%)</tspan><tspan
         x="5.6700001 9.1070004 11.235 12.824 18.361 21.413 23.541 83.496002 86.667 89.837997 93.555 94.877998 97.047997 100.765 104.573 109.389 143.71001 146.881 150.255 153.64999 154.97301 157.14301 160.53799 164.255 169.071"
         y="101.556"
         sodipodi:role="line"
         id="tspan268">Primary114 (46%)135 (54%)</tspan><tspan
         x="5.6700001 8.8690004 11.928 14.588 18.129999 21.721001 25.200001 28.252001 30.379999 86.387001 89.761002 93.555 94.877998 97.047997 100.219 104.027 108.843 146.314 150.03101 153.64999 154.97301 157.14301 160.314 164.12199 168.938"
         y="112.84"
         sodipodi:role="line"
         id="tspan270">Secondary38 (16%)40 (16%)</tspan><tspan
         x="5.6700001 9.9540005 11.543 14.994 18.542999 21.601999 23.73 25.052999 27.573 30.632 33.292 36.834 40.424999 43.903999 46.956001 49.084 87.010002 90.181 93.555 94.877998 97.047997 100.443 105.259 147.308 150.479 153.64999 154.97301 157.14301 160.86 165.67599"
         y="124.124"
         sodipodi:role="line"
         id="tspan272">Higher secondary13 (5%)11 (4%)</tspan><tspan
         x="5.6700001 9.7573004 11.8846 14.9359 18.4142 21.8995 24.9508 27.295099 30.353399 31.5574 35.098701 37.226002 38.549 41.6003 45.050598 48.5919 51.6922 90.160004 93.554298 94.877296 97.0466 100.4339 105.2492 150.416 153.6423 154.9653 157.1346 160.5079 165.3232"
         y="135.408"
         sodipodi:role="line"
         id="tspan274">Graduate or above5 (2%)7 (3%)</tspan><tspan
         x="-0.0070000002 4.3540001 7.0139999 9.6739998 13.16 16.632 19.684 22.028999 23.618 27.16"
         y="146.692"
         sodipodi:role="line"
         id="tspan276">Occupation</tspan><tspan
         x="5.6630001 9.8972998 13.4876 16.5459 22.082199 25.553499 27.0508 30.5501 33.545399 36.603699 40.082001 83.600998 86.771301 90.165604 93.552902 94.8759 97.045197 100.8525 104.2398 109.0551 143.13741 146.30769 150.024 153.6423 154.9653 157.1346 160.5289 164.3362 169.1515"
         y="157.976"
         sodipodi:role="line"
         id="tspan278">Unemployed*152 (62%)140 (56%)</tspan><tspan
         x="5.6630001 9.8979998 13.489 16.009001 19.061001 20.65 22.148001 23.646 26.705 30.184 31.507 37.043999 40.096001 43.687 47.173 50.224998 51.723 53.046001 54.543999 57.596001 61.047001 64.588997 68.074997 87.094002 90.320999 93.547997 94.871002 97.041 100.415 103.586 108.402 146.629 150.416 153.64301 154.966 157.136 160.50999 164.297 169.11301"
         y="169.25999"
         sodipodi:role="line"
         id="tspan280">Unskilled manual labour77 (31%)97 (39%)</tspan><tspan
         x="5.6630001 8.8620005 11.914 13.503 15.001 16.499001 19.558001 23.037001 24.360001 29.896999 32.949001 36.540001 40.026001 43.077999 44.576 45.898998 47.396999 50.449001 53.900002 57.442001 60.928001 90.174004 93.547997 94.871002 97.041 100.212 105.028 149.92599 153.64301 154.966 157.136 160.524 165.34"
         y="180.54401"
         sodipodi:role="line"
         id="tspan282">Skilled manual labour3 (1%)4 (2%)</tspan><tspan
         x="5.6630001 9.2259998 10.724 13.783 15.911 17.5 20.16 23.212 24.709999 26.033001 29.084999 32.675999 36.154999 37.478001 40.950001 43.077999 46.619999 48.713001 51.771999 54.292 56.812 58.401001 61.943001 65.533997 68.585999 87.002998 90.174004 93.547997 94.871002 97.041 100.436 105.252 150.409 153.636 154.959 157.129 160.50301 165.319"
         y="191.828"
         sodipodi:role="line"
         id="tspan284">Clerical and professional13 (5%)7 (3%)</tspan><tspan
         x="-0.0070000002 3.3606999 6.4134002 8.7591 10.3488 13.4085 17.0002 19.3459 20.5366 23.057301 24.380301 27.440001 30.506701 33.979401 37.039101 39.699799 42.045502 45.098202 47.443901 49.0336 52.576302 56.167999 57.372002 60.9147 63.0084 64.212402 67.699097 70.219803 73.279503 75.373199 78.859901 80.358597 83.950302 87.010002 89.530701 92.051399 93.255402 96.798103 98.8918 100.2148 102.8755 106.4182 109.9049 113.4966 116.0173 119.077 120.5757 122.0744 123.6641 127.2558"
         y="203.112"
         sodipodi:role="line"
         id="tspan286">Patient’s expectation of usefulness of counselling</tspan><tspan
         x="5.6630001 10.185 13.727 16.072001 17.275299 20.761299 23.2813 26.3403 28.4333 31.9193 89.929001 150.472 153.64301 154.9653 157.1353 160.62131 163.7923 168.60831"
         y="214.396"
         sodipodi:role="line"
         id="tspan288">Not useful01 (&lt;1%)</tspan><tspan
         x="5.6630001 9.7650003 11.088 12.586 14.175 16.52 18.865 20.363001 23.422001 24.625999 28.167999 30.296 31.618999 34.139 37.681 43.217999 46.277 51.036999 54.585999 57.638 59.983002"
         y="225.67999"
         sodipodi:role="line"
         id="tspan290">A little or somewhat </tspan><tspan
         x="5.6630001 9.1490002 11.669 14.728 16.820999 20.306999"
         y="234.17799"
         sodipodi:role="line"
         id="tspan292">useful</tspan><tspan
         x="83.810997 86.982002 90.153 93.547997 94.871002 97.041 100.758 103.985 108.801 144.13 147.30099 150.472 153.64301 154.966 157.136 160.853 164.248 169.064"
         y="225.67999"
         sodipodi:role="line"
         id="tspan294">115 (47%)111 (45%)</tspan><tspan
         x="5.6630001 11.095 14.637 18.115999 21.174999 23.302999 26.355 28.700001 31.759001 33.257 36.252998 37.457001 40.943001 43.463001 46.521999 48.615002 52.101002 85.931999 89.739998 93.547997 94.871002 97.041 100.429 103.656 108.472 146.629 150.024 153.64301 154.966 157.136 160.524 164.14301 168.959"
         y="245.46201"
         sodipodi:role="line"
         id="tspan296">Moderately useful66 (27%)50 (20%)</tspan><tspan
         x="5.6630001 9.3170004 12.376 14.504 17.5 18.704 22.190001 24.709999 27.768999 29.862 33.348 86.023003 89.831001 93.547997 94.871002 97.041 100.429 104.237 109.053 146.041 149.83501 153.64301 154.966 157.136 160.50999 163.905 168.72099"
         y="256.746"
         sodipodi:role="line"
         id="tspan298">Very useful64 (26%)86 (35%)</tspan><tspan
         x="-0.0070000002 3.556 7.105 9.2329998 12.775 16.365999 17.955 20.615 22.204 24.549 27.545 28.747601 32.2896 34.382599 35.704201 38.224201 41.2202 46.757198 50.229198 52.5742 56.116199 61.653198 64.173203"
         y="268.03"
         sodipodi:role="line"
         id="tspan300">Chronicity of symptoms </tspan><tspan
         x="-0.0070000002 2.1623001 6.9215999 9.9799004 13.0382 16.0895 18.608801"
         y="276.52802"
         sodipodi:role="line"
         id="tspan302">(weeks)</tspan><tspan
         x="86.569 89.739998 93.547997 94.871002 97.041 100.758 103.404 107.121 110.915 147.084 150.255 153.64301 154.966 157.136 160.853 163.49899 166.873 170.681"
         y="268.03"
         sodipodi:role="line"
         id="tspan304">16 (4–48)12 (4–36)</tspan><tspan
         x="-0.0070000002 3.4300001 7.7140002 12.082 14.406 18.193001 19.516001 22.035999 24.695999 28.238001 30.365999 81.830002 85.000999 88.227997 89.761002 93.547997 94.871002 97.041 100.429 101.962 105.756 141.925 145.09599 148.323 149.856 153.64301 154.966 157.136 160.524 162.05701 165.86501"
         y="287.81201"
         sodipodi:role="line"
         id="tspan306">PHQ-9 score17·9 (2·8)17·9 (2·6)</tspan><tspan
         x="-0.0070000002 3.4300001 7.7140002 12.082 13.405 16.065001 19.117001 21.462 24.521 27.972 31.514 33.641998"
         y="299.09601"
         sodipodi:role="line"
         id="tspan308">PHQ category</tspan><tspan
         x="5.6630001 8.8620005 11.522 15.064 17.191999 20.250999 21.573999 24.745001 28.139999 30.785999 33.957001 37.743999"
         y="310.38"
         sodipodi:role="line"
         id="tspan310">Score 15–19 </tspan><tspan
         x="5.6630001 7.8323002 13.3686 16.909901 20.388201 23.446501 25.573799 28.625099 30.9694 34.027699 35.525002 38.520302 39.8433 42.362598 45.420898 48.521198 51.579498 53.706799 56.765099"
         y="318.87799"
         sodipodi:role="line"
         id="tspan312">(moderately severe)</tspan><tspan
         x="83.188004 86.359001 90.153 93.547997 94.871002 97.041 100.268 104.076 108.892 143.451 146.62199 150.416 153.64301 154.966 157.136 160.36301 163.758 168.57401"
         y="310.38"
         sodipodi:role="line"
         id="tspan314">185 (76%)187 (75%)</tspan><tspan
         x="5.6630001 8.8620005 11.522 15.064 17.191999 20.250999 21.573999 24.962 28.580999 31.226999 34.615002 37.841999 39.165001 41.334999 43.855 46.914001 50.014999 53.074001 55.202 58.261002 86.127998 89.935997 93.555 94.877998 97.047997 100.436 104.153 108.969 146.67101 150.479 153.64999 154.97301 157.14301 160.53101 163.92599 168.742"
         y="330.16199"
         sodipodi:role="line"
         id="tspan316">Score 20–27 (severe)60 (24%)61 (25%)</tspan></text>
<text
       transform="matrix(1,0,0,-1,124.973,289.567)"
       style="font-variant:normal;font-weight:normal;font-size:6.5px;font-family:Shaker2Lancet;-inkscape-font-specification:Shaker2Lancet-Regular;writing-mode:lr-tb;fill:#000000;fill-opacity:1;fill-rule:nonzero;stroke:none"
       id="text326"><tspan
         x="0 3.796 6.5780001 8.7034998 11.4855 12.662 15.444 17.368 20.1565 21.333 26.422501 29.211 31.993 35.275501 36.452 38.415001 41.3335 45.129501 47.092499 48.464001 49.640499 52.923 54.099499 56.0625 60.482498 62.445499 63.817001 64.883003 68.120003 70.043999 71.220497 76.309998 79.098503 82.277 83.7005 86.482498 89.764999 90.941498 92.904503 94.353996 98.358002 101.6275 103.5905 104.962 106.1385 109.0765 112.957 116.2135 119.3985 122.3365 125.619 128.8625 131.6445 134.927 137.345 140.1335 143.312 144.37801 147.563 149.851 153.036 155.81799 157.157 158.3335 160.7515 163.53349 165.4575 168.246 169.66949"
         y="0"
         sodipodi:role="line"
         id="tspan320">Data are mean (SD), n (%), or median (IQR). EUC=Enhanced usual care. </tspan><tspan
         x="0 3.1394999 7.0654998 11.0695 13.1755 16.639999 19.825001 22.8995 25.681499 27.806999 29.230499 32.019001 35.301498 37.426998 38.6035 42.529499 45.318001 48.099998 49.438999 51.564499 54.807999 55.815498 59.8195 63.004501 65.792999 68.081001 70.206497 71.629997 74.866997 78.149498 81.431999 84.213997 85.637497 87.561501 90.349998 91.526497 94.990997 96.362503 97.539001 100.2235 101.673 104.9555 107.3735 108.7125 111.8975 115.076 117.8645 120.1525 121.329 123.617 125.7425 128.92751 132.106 134.8945 138.177 140.30251 142.5905 143.767 146.549 149.8315 153.00999 154.18649 157.35851 160.147 163.384 166.556 167.895 170.6835 171.86 175.1425 178.3795 180.505 181.571 185.939 189.17599 191.10001 193.882 195.3055 198.588 201.7925"
         y="8.5019999"
         sodipodi:role="line"
         id="tspan322">PHQ-9=Patient Health Questionnaire 9. *Includes students and people not working </tspan><tspan
         x="0 3.237 6.4219999 8.5474997 10.8355 12.259 15.4375 18.226 19.292 22.528999 24.4205 25.421499 27.547001 30.790501 33.578999 34.755501 37.999001 41.236 46.3255 49.113998 50.537498"
         y="17.004"
         sodipodi:role="line"
         id="tspan324">outside of the home. </tspan></text>
<text
       transform="matrix(1,0,0,-1,124.973,256.481)"
       style="font-style:italic;font-variant:normal;font-weight:bold;font-size:7px;font-family:Shaker2Lancet;-inkscape-font-specification:Shaker2Lancet-BoldItalic;writing-mode:lr-tb;fill:#000000;fill-opacity:1;fill-rule:nonzero;stroke:none"
       id="text330"><tspan
         x="0 3.1429999 6.4749999 9.7930002 11.375 14.245 15.379 19.004999"
         y="0"
         sodipodi:role="line"
         id="tspan328">Table 1:</tspan></text>
<text
       transform="matrix(1,0,0,-1,146.925,256.481)"
       style="font-variant:normal;font-weight:bold;font-size:7px;font-family:Shaker2Lancet;-inkscape-font-specification:Shaker2Lancet-Bold;writing-mode:lr-tb;fill:#000000;fill-opacity:1;fill-rule:nonzero;stroke:none"
       id="text334"><tspan
         x="0 3.822 7.0560002 9.7370005 12.908 14.553 16.309999 20.09 23.261 24.549 27.334999 31.059 34.292999 36.603001 39.837002 42.623001 45.262001 48.432999 50.743 52.5 55.181 57.82 59.577 62.362999 65.043999"
         y="0"
         sodipodi:role="line"
         id="tspan332">Baseline characteristics </tspan></text>
<g
       id="g336"
       transform="translate(119.179,670.269)"><path
         d="M 213.766,0 H 0 v -419.583 h 213.766 z"
         style="fill:none;stroke:#b30838;stroke-width:0.25;stroke-linecap:butt;stroke-linejoin:miter;stroke-miterlimit:4;stroke-dasharray:none;stroke-opacity:1"
         id="path338"
         inkscape:connector-curvature="0" /></g><g
       id="g340"
       transform="translate(119.179,670.269)"><path
         d="M 0,0 Z"
         style="fill:none;stroke:#b30838;stroke-width:0.25;stroke-linecap:butt;stroke-linejoin:miter;stroke-miterlimit:4;stroke-dasharray:none;stroke-opacity:1"
         id="path342"
         inkscape:connector-curvature="0" /></g></g></svg>