<?xml version="1.0" encoding="UTF-8" standalone="no"?>
<!-- Created with Inkscape (http://www.inkscape.org/) -->

<svg
   xmlns:dc="http://purl.org/dc/elements/1.1/"
   xmlns:cc="http://creativecommons.org/ns#"
   xmlns:rdf="http://www.w3.org/1999/02/22-rdf-syntax-ns#"
   xmlns:svg="http://www.w3.org/2000/svg"
   xmlns="http://www.w3.org/2000/svg"
   xmlns:sodipodi="http://sodipodi.sourceforge.net/DTD/sodipodi-0.dtd"
   xmlns:inkscape="http://www.inkscape.org/namespaces/inkscape"
   version="1.1"
   id="svg2"
   xml:space="preserve"
   width="793.70135"
   height="1065.8267"
   viewBox="0 0 793.70135 1065.8267"
   sodipodi:docname="table3.svg"
   inkscape:version="0.92.0 r15299"><metadata
     id="metadata8"><rdf:RDF><cc:Work
         rdf:about=""><dc:format>image/svg+xml</dc:format><dc:type
           rdf:resource="http://purl.org/dc/dcmitype/StillImage" /><dc:title></dc:title></cc:Work></rdf:RDF></metadata><defs
     id="defs6"><clipPath
       clipPathUnits="userSpaceOnUse"
       id="clipPath22"><path
         d="M 0.03,799.37 H 595.276 V 0 H 0.03 Z"
         id="path20"
         inkscape:connector-curvature="0" /></clipPath></defs><sodipodi:namedview
     pagecolor="#ffffff"
     bordercolor="#666666"
     borderopacity="1"
     objecttolerance="10"
     gridtolerance="10"
     guidetolerance="10"
     inkscape:pageopacity="0"
     inkscape:pageshadow="2"
     inkscape:window-width="1920"
     inkscape:window-height="988"
     id="namedview4"
     showgrid="false"
     inkscape:zoom="1.771395"
     inkscape:cx="264.73423"
     inkscape:cy="469.5113"
     inkscape:window-x="0"
     inkscape:window-y="27"
     inkscape:window-maximized="1"
     inkscape:current-layer="g10" /><g
     id="g10"
     inkscape:groupmode="layer"
     inkscape:label="fulltext"
     transform="matrix(1.3333333,0,0,-1.3333333,0,1065.8267)"><path
       d="M 28.471,200.323 H 332.944 V 467.382 H 28.471 Z"
       style="fill:#f5e0dc;fill-opacity:1;fill-rule:nonzero;stroke:none"
       id="path3438"
       inkscape:connector-curvature="0" /><g
       id="g3440"
       transform="translate(34.264999,214.746)"><path
         d="M 0,0 H 292.885"
         style="fill:none;stroke:#000000;stroke-width:0.25;stroke-linecap:butt;stroke-linejoin:miter;stroke-miterlimit:10;stroke-dasharray:none;stroke-opacity:1"
         id="path3442"
         inkscape:connector-curvature="0" /></g><path
       d="m 34.265,429.955 h 84.788 V 418.671 H 34.265 Z m 84.788,0 h 49.962 v -11.284 h -49.962 z m 49.962,0 h 50.67 v -11.284 h -50.67 z m 50.67,0 h 65.196 v -11.284 h -65.196 z m 65.196,0 H 327.15 V 418.671 H 284.881 Z M 34.265,418.671 h 84.788 V 407.388 H 34.265 Z m 84.788,0 h 49.962 v -11.283 h -49.962 z m 49.962,0 h 50.67 v -11.283 h -50.67 z m 50.67,0 h 65.196 v -11.283 h -65.196 z m 65.196,0 H 327.15 V 407.388 H 284.881 Z M 34.265,407.388 h 84.788 V 396.105 H 34.265 Z m 84.788,0 h 49.962 v -11.283 h -49.962 z m 49.962,0 h 50.67 v -11.283 h -50.67 z m 50.67,0 h 65.196 v -11.283 h -65.196 z m 65.196,0 H 327.15 V 396.105 H 284.881 Z M 34.265,396.105 h 84.788 V 384.822 H 34.265 Z m 84.788,0 h 49.962 v -11.283 h -49.962 z m 49.962,0 h 50.67 v -11.283 h -50.67 z m 50.67,0 h 65.196 v -11.283 h -65.196 z m 65.196,0 H 327.15 V 384.822 H 284.881 Z M 34.265,384.822 h 84.788 V 373.539 H 34.265 Z m 84.788,0 h 49.962 v -11.283 h -49.962 z m 49.962,0 h 50.67 v -11.283 h -50.67 z m 50.67,0 h 65.196 v -11.283 h -65.196 z m 65.196,0 H 327.15 V 373.539 H 284.881 Z M 34.265,373.539 h 84.788 V 362.256 H 34.265 Z m 84.788,0 h 49.962 v -11.283 h -49.962 z m 49.962,0 h 50.67 v -11.283 h -50.67 z m 50.67,0 h 65.196 v -11.283 h -65.196 z m 65.196,0 H 327.15 V 362.256 H 284.881 Z M 34.265,362.256 h 84.788 V 350.972 H 34.265 Z m 84.788,0 h 49.962 v -11.284 h -49.962 z m 49.962,0 h 50.67 v -11.284 h -50.67 z m 50.67,0 h 65.196 v -11.284 h -65.196 z m 65.196,0 H 327.15 V 350.972 H 284.881 Z M 34.265,339.689 h 84.788 V 319.906 H 34.265 Z m 84.788,0 h 49.962 v -19.783 h -49.962 z m 49.962,0 h 50.67 v -19.783 h -50.67 z m 50.67,0 h 65.196 v -19.783 h -65.196 z m 65.196,0 H 327.15 V 319.906 H 284.881 Z M 34.265,319.906 h 84.788 V 308.623 H 34.265 Z m 84.788,0 h 49.962 v -11.283 h -49.962 z m 49.962,0 h 50.67 v -11.283 h -50.67 z m 50.67,0 h 65.196 v -11.283 h -65.196 z m 65.196,0 H 327.15 V 308.623 H 284.881 Z M 34.265,297.34 h 84.788 V 286.057 H 34.265 Z m 84.788,0 h 49.962 v -11.283 h -49.962 z m 49.962,0 h 50.67 v -11.283 h -50.67 z m 50.67,0 h 65.196 v -11.283 h -65.196 z m 65.196,0 H 327.15 V 286.057 H 284.881 Z M 34.265,286.057 h 84.788 V 274.774 H 34.265 Z m 84.788,0 h 49.962 v -11.283 h -49.962 z m 49.962,0 h 50.67 v -11.283 h -50.67 z m 50.67,0 h 65.196 v -11.283 h -65.196 z m 65.196,0 h 42.269 v -11.283 h -42.269 z"
       style="fill:#ffffff;fill-opacity:1;fill-rule:nonzero;stroke:none"
       id="path3444"
       inkscape:connector-curvature="0" /><path
       d="m 34.265,263.49 h 84.788 V 243.707 H 34.265 Z m 84.788,0 h 49.962 v -19.783 h -49.962 z m 49.962,0 h 50.67 v -19.783 h -50.67 z m 50.67,0 h 65.196 v -19.783 h -65.196 z m 65.196,0 h 42.269 v -19.783 h -42.269 z"
       style="fill:#ffffff;fill-opacity:1;fill-rule:nonzero;stroke:none"
       id="path3446"
       inkscape:connector-curvature="0" /><g
       id="g3448"
       transform="translate(34.264999,442.37199)"><path
         d="m 0,0 h 84.788 49.962 50.67 65.196 42.269"
         style="fill:none;stroke:#000000;stroke-width:0.25;stroke-linecap:butt;stroke-linejoin:miter;stroke-miterlimit:10;stroke-dasharray:none;stroke-opacity:1"
         id="path3450"
         inkscape:connector-curvature="0" /></g><text
       transform="matrix(1,0,0,-1,121.888,455.407)"
       style="font-variant:normal;font-weight:bold;font-size:7px;font-family:Shaker2Lancet;-inkscape-font-specification:Shaker2Lancet-Bold;writing-mode:lr-tb;fill:#000000;fill-opacity:1;fill-rule:nonzero;stroke:none"
       id="text3468"><tspan
         x="0 3.3740001 7.8119998 11.396 12.684 16.400999 18.046 21.714001 24.395 25.683001 30.142 34.397999 38.009998"
         y="0"
         sodipodi:role="line"
         id="tspan3452">EUC plus HAP </tspan><tspan
         x="0 2.2679999 6.0479999 9.5340004 13.041 16.919001 20.419001"
         y="8.4980001"
         sodipodi:role="line"
         id="tspan3454">(n=245)</tspan><tspan
         x="49.959 53.333 57.771 61.355 62.643002 65.876999 67.522003 71.176003 74.956001 78.126999"
         y="0"
         sodipodi:role="line"
         id="tspan3456">EUC alone </tspan><tspan
         x="49.959 52.227001 56.007 59.493 63 66.877998 70.777"
         y="8.4980001"
         sodipodi:role="line"
         id="tspan3458">(n=248)</tspan><tspan
         x="100.625 106.309 109.48 112.714 116.494 117.719 121.443 123.2 125.37 127.54 130.711 133.021 136.192 139.972 142.758 145.929"
         y="0"
         sodipodi:role="line"
         id="tspan3460">Mean diﬀ erence </tspan><tspan
         x="100.625 102.893 106.799 110.299 115.325 116.431 120.015 121.793"
         y="8.4980001"
         sodipodi:role="line"
         id="tspan3462">(95% CI)</tspan><tspan
         x="165.823 169.53999 170.828 174.25101 177.485 179.13 182.798"
         y="0"
         sodipodi:role="line"
         id="tspan3464">p value</tspan><tspan
         x="-84.791 -80.332001 -77.161003 -73.927002 -72.281998 -69.642998 -65.918999 -64.630997 -61.950001 -58.604 -55.923 -53.284 -50.112999 -44.352001 -43.063999 -40.278 -36.624001 -33.943001 -31.304001 -28.622999 -27.334999 -25.066999 -21.336"
         y="22.049999"
         sodipodi:role="line"
         id="tspan3466">Health system costs ($)</tspan></text>
<text
       transform="matrix(1,0,0,-1,37.097,422.073)"
       style="font-variant:normal;font-weight:normal;font-size:7px;font-family:Shaker2Lancet;-inkscape-font-specification:Shaker2Lancet-Regular;writing-mode:lr-tb;fill:#000000;fill-opacity:1;fill-rule:nonzero;stroke:none"
       id="text3484"><tspan
         x="0 3.437 7.7210002 11.284 12.488 15.967 19.509001 22.169001 24.514 28.056 30.184 31.507 34.167 37.709 41.299999 43.82 47.306 48.804001 51.148998 54.201 56.546001 58.134998 61.676998 65.267998 89.831001 93.407997 96.579002 99.953003 101.276 103.446 106.834 110.005 140.77 144.347 147.51801 150.91299 152.23599 154.40601 157.79401 161.168 189.97301 192.619 196.196 199.584 200.907 203.077 205.72301 209.53101 210.66499 213.00999 216.552 217.875 221.263 256.16501 259.784 261.31699 265.034"
         y="0"
         sodipodi:role="line"
         id="tspan3470">PHC doctor consultations$13 (21)$15 (23)–$2 (–6 to 2)0·40</tspan><tspan
         x="0 4.2839999 7.8260002 10.346 13.818 15.407 17.752001 20.804001 22.302 23.506001 26.985001 30.527 33.187 35.532001 39.074001 41.202 42.525002 45.185001 48.727001 52.318001 54.838001 58.324001 59.821999 62.167 65.219002 67.564003 69.153 72.695 76.286003 89.831001 93.407997 96.579002 99.953003 101.276 103.446 106.673 110.047 140.791 144.368 147.539 150.91299 152.23599 154.40601 157.80099 160.972 192.388 195.965 199.584 200.907 203.077 205.72301 208.894 212.065 213.19901 215.54401 219.086 220.409 223.58 226.75101 256.16501 259.784 261.31699 265.104"
         y="11.284"
         sodipodi:role="line"
         id="tspan3472">Hospital doctor consultations$13 (73)$13 (51)$0 (–11 to 11)0·98</tspan><tspan
         x="0 4.2839999 7.8260002 10.346 13.818 15.407 17.752001 20.804001 22.302 23.625 26.677 30.156 35.693001 37.282001 39.801998 42.321999 43.910999 47.452999 51.043999 92.582001 96.158997 99.953003 101.276 103.446 107.254 110.642 140.56 144.13699 147.52499 150.91299 152.23599 154.40601 157.577 161.196 164.815 186.47301 189.119 192.696 195.867 199.584 200.907 203.077 205.72301 209.11099 212.905 214.039 216.384 219.92599 221.24899 224.63699 256.16501 259.784 261.31699 264.936"
         y="22.568001"
         sodipodi:role="line"
         id="tspan3474">Hospital admissions$8 (62)$22 (100)–$14 (–28 to 2)0·08</tspan><tspan
         x="0 2.9890001 6.0409999 9.4919996 13.034 15.162 18.214001 20.559 24.101 26.229 29.225 30.358999 32.703999 35.763 38.283001 40.627998 92.568001 96.144997 99.953003 101.276 103.446 106.834 110.453 143.549 147.12601 150.91299 152.23599 154.40601 157.78 161.588 189.987 192.633 196.21001 199.584 200.907 203.077 205.72301 209.517 210.651 212.996 216.53799 217.86099 221.24899 256.16501 259.784 261.31699 264.70499"
         y="33.852001"
         sodipodi:role="line"
         id="tspan3476">Laboratory tests$6 (20)$9 (36)–$3 (–8 to 2)0·24</tspan><tspan
         x="0 5.4320002 8.4910002 11.97 13.559 16.219 17.808001 21.399 24.458 92.568001 96.144997 99.953003 101.276 103.446 106.617 110.012 143.549 147.12601 150.91299 152.23599 154.40601 157.79401 161.189 189.987 192.633 196.21001 199.584 200.907 203.077 206.304 207.438 209.783 213.325 214.64799 217.819 256.15799 259.77701 261.31 264.92899"
         y="45.136002"
         sodipodi:role="line"
         id="tspan3478">Medicines$6 (15)$9 (25)–$3 (7 to 1)0·08</tspan><tspan
         x="0 3.22 6.7620001 9.1070004 12.159 13.657 14.98 18.452 21.938 25.389 26.886999 28.476 31.136 32.459 36.007999 39.067001 42.118999 43.617001 45.962002 49.511002 51.834999 54.494999 57.547001 59.674999 62.734001 64.056999 66.717003 70.259003 72.778999 75.124001 89.431999 93.009003 96.725998 99.953003 101.276 103.446 106.617 109.788 113.015 140.30099 143.87801 147.686 150.91299 152.23599 154.40601 157.577 160.951 164.339 186.354 189 192.577 195.965 199.584 200.907 203.077 205.72301 209.44 213.05901 214.19299 216.53799 220.08 221.403 225.12 256.16501 259.784 261.31699 264.936"
         y="56.419998"
         sodipodi:role="line"
         id="tspan3480">Total public health-care costs$47 (117)$67 (132)–$20 (–40 to 4)0·07</tspan><tspan
         x="0 4.2839999 8.3859997 11.823 13.146 14.735 18.326 20.671 23.73 25.858 28.959 32.018002 35.609001 37.953999 39.542999 43.084999 88.766998 92.344002 96.152 99.959999 101.283 103.453 106.848 110.243 143.724 147.30099 188.39799 191.97501 195.783 199.591 200.914 203.084 206.479 210.26601 211.39999 213.745 217.287 218.61 221.83701 225.211 252.686 256.172 259.79099 261.32401 264.94299 268.56201 272.181"
         y="67.704002"
         sodipodi:role="line"
         id="tspan3482">HAP intervention$66 (55)$0$66 (59 to 73)&lt;0·0001</tspan></text>
<text
       transform="matrix(1,0,0,-1,37.097,343.085)"
       style="font-variant:normal;font-weight:bold;font-size:7px;font-family:Shaker2Lancet;-inkscape-font-specification:Shaker2Lancet-Bold;writing-mode:lr-tb;fill:#000000;fill-opacity:1;fill-rule:nonzero;stroke:none"
       id="text3488"><tspan
         x="0 3.612 5.9219999 9.5760002 13.3 16.968 19.754 22.393 24.15 27.573 29.33 31.969 35.314999 36.603001 39.389 43.042999 45.723999 48.362999 51.043999 52.332001 54.599998 58.331001"
         y="0"
         sodipodi:role="line"
         id="tspan3486">Productivity costs ($)</tspan></text>
<text
       transform="matrix(1,0,0,-1,37.097,331.801)"
       style="font-variant:normal;font-weight:normal;font-size:7px;font-family:Shaker2Lancet;-inkscape-font-specification:Shaker2Lancet-Regular;writing-mode:lr-tb;fill:#000000;fill-opacity:1;fill-rule:nonzero;stroke:none"
       id="text3498"><tspan
         x="0 3.5350001 5.1240001 10.661 13.72 15.043 17.702999 21.245001 23.764999 26.110001 28.629999 29.764 32.109001 35.651001 36.973999 39.493999 42.553001 44.681 47.782001 49.370998 52.030998 55.09 56.293999 59.779999 62.299999 65.359001 67.487 70.007004"
         y="0"
         sodipodi:role="line"
         id="tspan3490">Time costs to service users </tspan><tspan
         x="0 3.052 6.6430001 10.122 11.445 13.538 16.59 22.127001 23.716 25.214001 26.802999 29.862"
         y="8.4980001"
         sodipodi:role="line"
         id="tspan3492">and families</tspan><tspan
         x="89.593002 93.169998 96.565002 99.953003 101.276 103.446 107.254 110.642 140 143.577 147.29401 150.91299 152.23599 154.40601 157.80099 161.196 189.448 193.02499 196.196 199.584 200.907 203.077 206.248 207.382 209.72701 213.269 214.592 217.98 221.368 256.16501 259.784 261.31699 264.936"
         y="0"
         sodipodi:role="line"
         id="tspan3494">$52 (62)$40 (55)$12 (1 to 22)0·03</tspan><tspan
         x="0 3.437 5.5650001 9.1070004 12.586 16.072001 18.732 21.077 22.666 25.767 27.356001 29.701 32.696999 34.02 35.518002 39.060001 41.580002 44.099998 47.159 89.355003 92.931999 96.725998 99.953003 101.276 103.446 106.617 109.788 113.596 137.004 140.58099 143.752 147.12601 150.91299 152.23599 154.40601 157.577 161.29401 164.465 186.578 189.224 192.80099 196.196 199.584 200.907 203.077 205.72301 208.95 212.345 213.479 215.82401 219.366 220.689 223.33501 226.72301 230.50999 252.679 256.16501 259.784 261.31699 264.936 268.55499 272.17401"
         y="19.782"
         sodipodi:role="line"
         id="tspan3496">Productivity losses$87 (116)$139 (141)–$52 (–75 to –29)&lt;0·0001</tspan></text>
<text
       transform="matrix(1,0,0,-1,37.097,300.735)"
       style="font-variant:normal;font-weight:bold;font-size:7px;font-family:Shaker2Lancet;-inkscape-font-specification:Shaker2Lancet-Bold;writing-mode:lr-tb;fill:#000000;fill-opacity:1;fill-rule:nonzero;stroke:none"
       id="text3502"><tspan
         x="0 3.332 6.9860001 9.625 12.859 14.504 15.792 18.577999 22.232 24.913 27.552 30.233 31.521 33.789001 37.52"
         y="0"
         sodipodi:role="line"
         id="tspan3500">Total costs ($)</tspan></text>
<text
       transform="matrix(1,0,0,-1,37.097,289.451)"
       style="font-variant:normal;font-weight:normal;font-size:7px;font-family:Shaker2Lancet;-inkscape-font-specification:Shaker2Lancet-Regular;writing-mode:lr-tb;fill:#000000;fill-opacity:1;fill-rule:nonzero;stroke:none"
       id="text3508"><tspan
         x="0 4.2839999 7.3429999 10.395 11.893 14.238 17.787001 19.110001 21.629999 24.625999 27.146 29.490999 32.549999 38.087002 39.41 42.882 45.941002 48.069 50.589001 54.061001 57.119999 59.779999 62.125 63.714001 66.815002 86.667 90.244003 93.415001 96.585999 99.959999 101.283 103.453 106.624 110.012 113.407 140.308 143.88499 147.69299 150.92 152.243 154.41299 157.584 160.95799 164.34599 188.489 192.06599 195.783 199.591 200.914 203.084 206.472 209.86 210.994 213.339 216.881 218.20399 222.01199 225.806 252.686 256.172 259.79099 261.32401 264.94299 268.56201 272.181"
         y="0"
         sodipodi:role="line"
         id="tspan3504">Health system perspective$113 (125)$67 (132)$46 (22 to 68)&lt;0·0001</tspan><tspan
         x="0 3.1989999 6.7410002 9.401 10.99 14.049 16.393999 19.445999 20.944 22.267 25.739 28.798 30.926001 33.445999 36.917999 39.977001 42.637001 44.981998 46.570999 49.672001 86.429001 90.005997 93.393997 96.789001 99.959999 101.283 103.453 106.841 110.229 114.016 136.42999 140.007 143.395 147.112 150.92 152.243 154.41299 157.80099 161.51801 165.235 192.619 196.196 199.591 200.914 203.084 205.73 209.104 212.33099 213.465 215.81 219.35201 220.675 224.392 227.619 256.172 259.79099 261.32401 265.11801"
         y="11.284"
         sodipodi:role="line"
         id="tspan3506">Societal perspective$251 (229)$246 (244)$5 (–37 to 47)0·83</tspan></text>
<text
       transform="matrix(1,0,0,-1,37.097,266.883)"
       style="font-variant:normal;font-weight:bold;font-size:7px;font-family:Shaker2Lancet;-inkscape-font-specification:Shaker2Lancet-Bold;writing-mode:lr-tb;fill:#000000;fill-opacity:1;fill-rule:nonzero;stroke:none"
       id="text3512"><tspan
         x="0 3.5840001 7.2379999 9.9189997 12.495 14.819 17.99 20.16 22.33 25.499599 28.284201 30.921801 32.677399 36.098999 39.2686 43.047199 46.216801 48.8964 51.576 52.863998 56.0966 59.875198 63.1078 64.751404 68.096001 70.775597 73.945198"
         y="0"
         sodipodi:role="line"
         id="tspan3510">Cost-eﬀ ectiveness analyses</tspan></text>
<text
       transform="matrix(1,0,0,-1,37.097,255.599)"
       style="font-variant:normal;font-weight:normal;font-size:7px;font-family:Shaker2Lancet;-inkscape-font-specification:Shaker2Lancet-Regular;writing-mode:lr-tb;fill:#000000;fill-opacity:1;fill-rule:nonzero;stroke:none"
       id="text3528"><tspan
         x="0 4.2839999 8.3859997 10.962 14.399 16.919001 18.242001 21.693001 24.745001 26.334 29.924999 32.984001 96.334 99.953003 101.486 104.874 108.493"
         y="0"
         sodipodi:role="line"
         id="tspan3514">QALYs gained0·209</tspan><tspan
         x="84.791 86.960999 90.580002 92.112999 95.732002 98.903 102.697"
         y="8.4980001"
         sodipodi:role="line"
         id="tspan3516">(0·018)</tspan><tspan
         x="147.30099 150.92 152.453 155.841 159.46001"
         y="0"
         sodipodi:role="line"
         id="tspan3518">0·204</tspan><tspan
         x="134.757 136.927 140.54601 142.07899 145.698 148.869 152.66299"
         y="8.4980001"
         sodipodi:role="line"
         id="tspan3520">(0·018)</tspan><tspan
         x="195.972 199.591 201.12399 204.743 208.362"
         y="0"
         sodipodi:role="line"
         id="tspan3522">0·005</tspan><tspan
         x="185.423 187.593 191.21201 192.745 196.364 199.983 203.371 204.505 206.85001 210.392 211.715 215.334 216.867 220.48599 224.105 227.899"
         y="8.4980001"
         sodipodi:role="line"
         id="tspan3524">(0·002 to 0·008)</tspan><tspan
         x="256.16501 259.784 261.31699 264.936 268.55499"
         y="0"
         sodipodi:role="line"
         id="tspan3526">0·008</tspan></text>
<text
       transform="matrix(1,0,0,-1,34.2653,230.703)"
       style="font-variant:normal;font-weight:normal;font-size:6.5px;font-family:Shaker2Lancet;-inkscape-font-specification:Shaker2Lancet-Regular;writing-mode:lr-tb;fill:#000000;fill-opacity:1;fill-rule:nonzero;stroke:none"
       id="text3534"><tspan
         x="0 3.848 6.6820002 8.8594999 11.6935 12.922 15.756 17.732 20.5725 21.801001 26.942499 29.783001 32.617001 35.9515 37.18 39.195 42.165501 46.0135 48.0285 49.452 50.6805 53.670502 57.603001 60.911499 64.148499 66.988998 70.323502 73.619003 76.453003 79.787498 82.2575 85.098 88.328499 89.440002 92.677002 95.016998 98.253998 101.088 102.479 103.7075 106.1775 109.0115 110.9875 113.828 115.2515 116.48 120.458 124.267 127.4585 130.6955 134.67349 137.51401 140.34801 141.739 143.9165 147.21201 149.994 151.047 154.856 157.326 159.50349 160.979 163.85851 165.334 167.51151 170.2935 171.522 174.7135 176.6895 179.9785 183.183 185.159 187.993 193.13451 194.558 195.7865 198.978 202.95599 206.2645 209.5015 212.72549 215.96249 219.16701 220.558 222.03349 224.50349 225.73199 229.0275 231.868 234.702 236.093 238.27049 241.56599 242.79449 245.2645 248.105 251.4395 253.617 255.593 258.4335 259.85699"
         y="0"
         sodipodi:role="line"
         id="tspan3530">Data are mean (SD). EUC=enhanced usual care. HAP=Healthy Activity Program. PHC=public health centre. </tspan><tspan
         x="0 3.97735 7.7856998 10.17705 13.5759 16.81225 20.0161 23.252451 26.0858 27.476151 28.951 31.12785 33.8507 36.008049 38.8414 42.071251 43.5396 46.775951 49.115299 51.292149 54.132 57.361851 58.590351 59.980701 61.455551 63.398399 66.238251 68.285103 71.066452 73.906303 76.739647 78.474503 79.897346"
         y="8.5019999"
         sodipodi:role="line"
         id="tspan3532">QALY=quality-adjusted life-year. </tspan></text>
<text
       transform="matrix(1,0,0,-1,34.2653,206.117)"
       style="font-style:italic;font-variant:normal;font-weight:bold;font-size:7px;font-family:Shaker2Lancet;-inkscape-font-specification:Shaker2Lancet-BoldItalic;writing-mode:lr-tb;fill:#000000;fill-opacity:1;fill-rule:nonzero;stroke:none"
       id="text3538"><tspan
         x="0 3.1429999 6.4749999 9.7930002 11.375 14.245 15.379 19.004999"
         y="0"
         sodipodi:role="line"
         id="tspan3536">Table 3:</tspan></text>
<text
       transform="matrix(1,0,0,-1,56.0353,206.117)"
       style="font-variant:normal;font-weight:bold;font-size:7px;font-family:Shaker2Lancet;-inkscape-font-specification:Shaker2Lancet-Bold;writing-mode:lr-tb;fill:#000000;fill-opacity:1;fill-rule:nonzero;stroke:none"
       id="text3542"><tspan
         x="0 3.5840001 7.2379999 9.9189997 12.558 15.239 16.527 20.243999 23.415001 25.725 27.013 30.73 33.901001 36.210999 38.891998 42.546001 46.326 47.613998 50.848 54.627998 58.352001 59.458 63.854 68.110001 70.819 74.500999 77.181999 78.470001 82.144997 85.378998 87.136002 90.916 94.086998 97.810997 99.098999 101.367 104.874 108.703 112.077 115.577 116.865 118.622 122.402 125.041 128.21201 130.522 134.302 137.536 140.175 141.93201 145.586 149.366 152.60001 154.245 155.47 159.194 162.84801 164.493 166.138 169.37199 171.68201 174.36301"
         y="0"
         sodipodi:role="line"
         id="tspan3540">Costs per person and QALYs gained (2015 international dollars)</tspan></text>
<g
       id="g3544"
       transform="translate(28.470993,467.382)"><path
         d="M 304.473,0 H 0 v -267.059 h 304.473 z"
         style="fill:none;stroke:#b30838;stroke-width:0.25;stroke-linecap:butt;stroke-linejoin:miter;stroke-miterlimit:4;stroke-dasharray:none;stroke-opacity:1"
         id="path3546"
         inkscape:connector-curvature="0" /></g><g
       id="g3548"
       transform="translate(28.470993,467.382)"><path
         d="M 0,0 Z"
         style="fill:none;stroke:#b30838;stroke-width:0.25;stroke-linecap:butt;stroke-linejoin:miter;stroke-miterlimit:4;stroke-dasharray:none;stroke-opacity:1"
         id="path3550"
         inkscape:connector-curvature="0" /></g></g></svg>