<?xml version="1.0" encoding="UTF-8" standalone="no"?>
<!-- Created with Inkscape (http://www.inkscape.org/) -->

<svg
   xmlns:dc="http://purl.org/dc/elements/1.1/"
   xmlns:cc="http://creativecommons.org/ns#"
   xmlns:rdf="http://www.w3.org/1999/02/22-rdf-syntax-ns#"
   xmlns:svg="http://www.w3.org/2000/svg"
   xmlns="http://www.w3.org/2000/svg"
   xmlns:sodipodi="http://sodipodi.sourceforge.net/DTD/sodipodi-0.dtd"
   xmlns:inkscape="http://www.inkscape.org/namespaces/inkscape"
   version="1.1"
   id="svg2"
   xml:space="preserve"
   width="793.70135"
   height="1058.2679"
   viewBox="0 0 793.70135 1058.2679"
   sodipodi:docname="table4.svg"
   inkscape:version="0.92.0 r15299"><metadata
     id="metadata8"><rdf:RDF><cc:Work
         rdf:about=""><dc:format>image/svg+xml</dc:format><dc:type
           rdf:resource="http://purl.org/dc/dcmitype/StillImage" /><dc:title></dc:title></cc:Work></rdf:RDF></metadata><defs
     id="defs6" /><sodipodi:namedview
     pagecolor="#ffffff"
     bordercolor="#666666"
     borderopacity="1"
     objecttolerance="10"
     gridtolerance="10"
     guidetolerance="10"
     inkscape:pageopacity="0"
     inkscape:pageshadow="2"
     inkscape:window-width="1920"
     inkscape:window-height="988"
     id="namedview4"
     showgrid="false"
     inkscape:zoom="1.2615119"
     inkscape:cx="517.36247"
     inkscape:cy="752.53085"
     inkscape:window-x="0"
     inkscape:window-y="27"
     inkscape:window-maximized="1"
     inkscape:current-layer="g10" /><g
     id="g10"
     inkscape:groupmode="layer"
     inkscape:label="fulltext"
     transform="matrix(1.3333333,0,0,-1.3333333,0,1058.268)"><path
       d="m 33.732,716.371 h 519.08 v 0.51025 H 33.732 Z"
       style="fill:#231f20;fill-opacity:1;fill-rule:nonzero;stroke:none"
       id="path308"
       inkscape:connector-curvature="0" /><path
       d="m 33.732,634.394 h 519.08 v 0.51025 H 33.732 Z"
       style="fill:#231f20;fill-opacity:1;fill-rule:nonzero;stroke:none"
       id="path310"
       inkscape:connector-curvature="0" /><path
       d="m 33.732,690.293 h 112.082 v 0.51019 H 33.732 Z"
       style="fill:#231f20;fill-opacity:1;fill-rule:nonzero;stroke:none"
       id="path312"
       inkscape:connector-curvature="0" /><path
       d="m 145.814,703.332 h 104.825 v 0.51025 H 145.814 Z"
       style="fill:#231f20;fill-opacity:1;fill-rule:nonzero;stroke:none"
       id="path314"
       inkscape:connector-curvature="0" /><path
       d="M 250.639,690.293 H 311.3 v 0.51019 h -60.661 z"
       style="fill:#231f20;fill-opacity:1;fill-rule:nonzero;stroke:none"
       id="path316"
       inkscape:connector-curvature="0" /><path
       d="m 311.301,703.332 h 104.825 v 0.51025 H 311.301 Z"
       style="fill:#231f20;fill-opacity:1;fill-rule:nonzero;stroke:none"
       id="path318"
       inkscape:connector-curvature="0" /><path
       d="m 416.126,690.293 h 61.002 v 0.51019 h -61.002 z"
       style="fill:#231f20;fill-opacity:1;fill-rule:nonzero;stroke:none"
       id="path320"
       inkscape:connector-curvature="0" /><path
       d="m 458.589,690.293 h 60.435 v 0.51019 h -60.435 z"
       style="fill:#231f20;fill-opacity:1;fill-rule:nonzero;stroke:none"
       id="path322"
       inkscape:connector-curvature="0" /><path
       d="m 500.485,690.293 h 52.328 v 0.51019 h -52.328 z"
       style="fill:#231f20;fill-opacity:1;fill-rule:nonzero;stroke:none"
       id="path324"
       inkscape:connector-curvature="0" /><path
       d="m 127.276,690.293 h 80.22 v 0.51019 h -80.22 z"
       style="fill:#231f20;fill-opacity:1;fill-rule:nonzero;stroke:none"
       id="path326"
       inkscape:connector-curvature="0" /><path
       d="m 188.957,690.293 h 80.22 v 0.51019 h -80.22 z"
       style="fill:#231f20;fill-opacity:1;fill-rule:nonzero;stroke:none"
       id="path328"
       inkscape:connector-curvature="0" /><path
       d="m 292.762,690.293 h 80.22 v 0.51019 h -80.22 z"
       style="fill:#231f20;fill-opacity:1;fill-rule:nonzero;stroke:none"
       id="path330"
       inkscape:connector-curvature="0" /><path
       d="m 354.444,690.293 h 80.22 v 0.51019 h -80.22 z"
       style="fill:#231f20;fill-opacity:1;fill-rule:nonzero;stroke:none"
       id="path332"
       inkscape:connector-curvature="0" /><text
       transform="matrix(1,0,0,-1,33.7323,730.9415)"
       style="font-variant:normal;font-weight:normal;font-size:6.37599993px;font-family:AdvTT28000ce1;-inkscape-font-specification:AdvTT28000ce1;writing-mode:lr-tb;fill:#231f20;fill-opacity:1;fill-rule:nonzero;stroke:none"
       id="text336"><tspan
         x="0 3.583312 6.8599386 10.711042 12.586224 17.575443"
         y="0"
         sodipodi:role="line"
         id="tspan334">Table4</tspan></text>
<text
       transform="matrix(1,0,0,-1,33.7323,722.38108)"
       style="font-variant:normal;font-weight:normal;font-size:6.37599993px;font-family:AdvTT5235d5a9;-inkscape-font-specification:AdvTT5235d5a9;writing-mode:lr-tb;fill:#231f20;fill-opacity:1;fill-rule:nonzero;stroke:none"
       id="text340"><tspan
         x="0 3.780968 7.2004166 12.926702 16.70767 19.78664 22.375298 24.038795 26.703325 30.286638 35.660969 39.244282 42.861385 45.845352 49.494339 52.746098 56.411022 59.860439 62.987865 67.410263 69.265678 74.666786 77.784653 81.63575 83.794029 87.645134 90.030396 93.488739 97.269707 100.68916 106.41544 109.73096 111.91474 114.5034 116.16689 120.75889 126.48518 129.80069 132.89178 135.5563 139.33728 141.73593 145.05145 150.75032 154.06584 157.72375 159.93495 164.3567 168.00377 171.10315 173.42401 178.70015 182.01567 185.1635 190.60606 192.46147 196.16211 198.37331 201.68883 204.09958 207.549 210.67642 214.52753 216.62906 218.48448 221.90138 227.40068 230.51854 234.36964 239.70317 242.68713 246.05302 249.90413 252.06241 254.65106 258.01505 261.53012 264.97955 267.3699 270.95322 274.57031 278.35129 280.9202 284.03806 288.2207 289.87784 293.39291 296.64468 300.3096 305.41168 311.93112 315.24664 317.82767 320.14853 323.32697 325.91562 331.26379 335.44647 339.03104 341.81735 343.96353 346.55219 349.63306 351.48846 353.14816 356.26602 359.38388 363.03094 366.47079 370.11786"
         y="0"
         sodipodi:role="line"
         id="tspan338">Comparisonofchangesinanthropometricmeasurementsbetweeninterventionandcontrolgroups,AlbanyWesternAustralia,2014</tspan></text>
<text
       transform="matrix(1,0,0,-1,407.3404,722.38108)"
       style="font-variant:normal;font-weight:normal;font-size:6.37599993px;font-family:'AdvTT5235d5a9 20';-inkscape-font-specification:'AdvTT5235d5a9 20';writing-mode:lr-tb;fill:#231f20;fill-opacity:1;fill-rule:nonzero;stroke:none"
       id="text344"><tspan
         x="0"
         y="0"
         id="tspan342">–</tspan></text>
<text
       transform="matrix(1,0,0,-1,410.85548,722.38108)"
       style="font-variant:normal;font-weight:normal;font-size:6.37599993px;font-family:AdvTT5235d5a9;-inkscape-font-specification:AdvTT5235d5a9;writing-mode:lr-tb;fill:#231f20;fill-opacity:1;fill-rule:nonzero;stroke:none"
       id="text354"><tspan
         x="0 3.6470721 7.1436706 10.790743 14.230595"
         y="0"
         sodipodi:role="line"
         id="tspan346">2015.</tspan><tspan
         x="-371.17056 -366.65634 -362.87537 -360.5545 -357.57056 -353.98724 -348.14682"
         y="21.089895"
         sodipodi:role="line"
         id="tspan348">Outcome</tspan><tspan
         x="-265.04074 -263.1152 -259.2641 -256.94324 -253.62772 -251.03906 -247.58965 -244.27412 -240.42302 -238.10216 -236.24673 -232.66342 -227.0551 -223.60568 -221.01703 -217.43372 -213.65274 -208.23251 -205.38243 -199.84169 -191.79135 -188.14429 -184.49721 -180.85014"
         y="14.569798"
         sodipodi:role="line"
         id="tspan350">Interventiongroup(n=151)</tspan><tspan
         x="-141.67664 -136.23409 -132.78467 -129.5329 -127.67749 -123.89652"
         y="21.089895"
         sodipodi:role="line"
         id="tspan352">pvalue</tspan></text>
<text
       transform="matrix(1,0,0,-0.88878665,290.3243,704.1259)"
       style="font-variant:normal;font-weight:normal;font-size:4.78179979px;font-family:AdvTT5235d5a9;-inkscape-font-specification:AdvTT5235d5a9;writing-mode:lr-tb;fill:#2e3192;fill-opacity:1;fill-rule:nonzero;stroke:none"
       id="text358"><tspan
         x="0"
         y="0"
         id="tspan356">a</tspan></text>
<text
       transform="matrix(1,0,0,-1,311.3007,707.8109)"
       style="font-variant:normal;font-weight:normal;font-size:6.37599993px;font-family:AdvTT5235d5a9;-inkscape-font-specification:AdvTT5235d5a9;writing-mode:lr-tb;fill:#231f20;fill-opacity:1;fill-rule:nonzero;stroke:none"
       id="text364"><tspan
         x="0 3.780968 7.3642802 11.282332 13.603196 16.191853 19.775164 23.301729 26.751146 29.339802 32.923115 36.704082 42.181065 45.031139 50.515137 58.565472 62.212543 65.859619 69.506691"
         y="0"
         sodipodi:role="line"
         id="tspan360">Controlgroup(n=161)</tspan><tspan
         x="123.36412 128.86342 132.31284 135.56461 137.42001 141.20099"
         y="6.5200977"
         sodipodi:role="line"
         id="tspan362">pvalue</tspan></text>
<text
       transform="matrix(1,0,0,-0.88878665,455.8109,704.1259)"
       style="font-variant:normal;font-weight:normal;font-size:4.78179979px;font-family:AdvTT5235d5a9;-inkscape-font-specification:AdvTT5235d5a9;writing-mode:lr-tb;fill:#2e3192;fill-opacity:1;fill-rule:nonzero;stroke:none"
       id="text368"><tspan
         x="0"
         y="0"
         id="tspan366">b</tspan></text>
<text
       transform="matrix(1,0,0,-1,477.1274,701.2911)"
       style="font-variant:normal;font-weight:normal;font-size:6.37599993px;font-family:AdvTT5235d5a9;-inkscape-font-specification:AdvTT5235d5a9;writing-mode:lr-tb;fill:#231f20;fill-opacity:1;fill-rule:nonzero;stroke:none"
       id="text372"><tspan
         x="0 5.4425535 8.8919697 12.143729 13.999146 17.780113"
         y="0"
         sodipodi:role="line"
         id="tspan370">pvalue</tspan></text>
<text
       transform="matrix(1,0,0,-0.88878665,498.2739,704.1259)"
       style="font-variant:normal;font-weight:normal;font-size:4.78179979px;font-family:AdvTT5235d5a9;-inkscape-font-specification:AdvTT5235d5a9;writing-mode:lr-tb;fill:#2e3192;fill-opacity:1;fill-rule:nonzero;stroke:none"
       id="text376"><tspan
         x="0"
         y="0"
         id="tspan374">c</tspan></text>
<text
       transform="matrix(1,0,0,-1,519.0235,701.2911)"
       style="font-variant:normal;font-weight:normal;font-size:6.37599993px;font-family:AdvTT5235d5a9;-inkscape-font-specification:AdvTT5235d5a9;writing-mode:lr-tb;fill:#231f20;fill-opacity:1;fill-rule:nonzero;stroke:none"
       id="text380"><tspan
         x="0 5.4993 8.9487162 12.200476 14.055892 17.836861"
         y="0"
         sodipodi:role="line"
         id="tspan378">pvalue</tspan></text>
<text
       transform="matrix(1,0,0,-0.88878665,540.1699,704.1259)"
       style="font-variant:normal;font-weight:normal;font-size:4.78179979px;font-family:AdvTT5235d5a9;-inkscape-font-specification:AdvTT5235d5a9;writing-mode:lr-tb;fill:#2e3192;fill-opacity:1;fill-rule:nonzero;stroke:none"
       id="text384"><tspan
         x="0"
         y="0"
         id="tspan382">d</tspan></text>
<text
       transform="matrix(1,0,0,-1,543.0046,701.2911)"
       style="font-variant:normal;font-weight:normal;font-size:6.37599993px;font-family:AdvTT5235d5a9;-inkscape-font-specification:AdvTT5235d5a9;writing-mode:lr-tb;fill:#231f20;fill-opacity:1;fill-rule:nonzero;stroke:none"
       id="text392"><tspan
         x="0"
         y="0"
         id="tspan386">d</tspan><tspan
         x="-397.19229 -393.41132 -390.15955 -387.37323 -384.05771 -382.2023 -380.34689 -376.49579 -335.50958 -331.92627 -328.34296 -325.55664 -231.70384 -227.92287 -224.67111 -221.8848 -218.49405 -216.63863 -214.78322 -210.93211 -170.02113 -166.43784 -162.85452 -160.06821"
         y="6.5194602"
         sodipodi:role="line"
         id="tspan388">BaselinePostBaselinePost</tspan><tspan
         x="-503.32208 -496.68466 -493.43289 -491.57748 -488.79117 -484.78259 -481.79861 -479.94321 -477.35455 -474.37057 -470.5896 -464.74918 -462.69611 -459.38058 -456.79193 -453.47641 -449.62531 -446.64136 -441.58072 -438.73065 -435.74667 -429.90625 -397.18973 -393.54266 -389.8956 -386.2485 -384.78842 -381.14133 -375.75937 -372.90927 -369.26221 -365.61514 -364.15503 -360.50797 -356.8609 -335.50641 -331.85931 -328.21225 -324.56519 -323.10507 -319.45801 -314.07602 -311.22595 -307.57889 -303.93179 -302.47171 -298.82462 -295.17755"
         y="19.559017"
         sodipodi:role="line"
         id="tspan390">Waistcircumference(cm)102.67(13.58)100.56(13.84)</tspan></text>
<text
       transform="matrix(1,0,0,-1,269.17644,681.73208)"
       style="font-variant:normal;font-weight:normal;font-size:6.37599993px;font-family:AdvTT454a7a89;-inkscape-font-specification:AdvTT454a7a89;writing-mode:lr-tb;fill:#231f20;fill-opacity:1;fill-rule:nonzero;stroke:none"
       id="text396"><tspan
         x="0"
         y="0"
         id="tspan394">b</tspan></text>
<text
       transform="matrix(1,0,0,-1,273.37185,681.73208)"
       style="font-variant:normal;font-weight:normal;font-size:6.37599993px;font-family:AdvTT5235d5a9;-inkscape-font-specification:AdvTT5235d5a9;writing-mode:lr-tb;fill:#231f20;fill-opacity:1;fill-rule:nonzero;stroke:none"
       id="text402"><tspan
         x="0 3.6470721 5.1071758 8.7542477 12.40132 37.928272 41.575344 45.222416 48.869488 50.329594 53.976665 59.358646 62.208717 65.855789 69.502861 70.962967 74.610039 78.257111 99.61161 103.25868 106.90575 110.55283 112.01293 115.66 121.04198 123.89206 127.53913 131.1862 132.6463 136.29338 139.94044 161.29495 164.94202 166.40213 170.04919 203.75847 207.40555 208.86565 212.51271 245.65517 249.30223 250.76234 254.40941"
         y="0"
         sodipodi:role="line"
         id="tspan398">0.001101.41(12.93)100.53(12.69)0.020.400.78</tspan><tspan
         x="-233.68933 -228.97746 -227.12204 -221.61319 -218.76311 -215.77914 -209.93872 -127.55889 -123.91182 -120.26475 -116.61768 -115.15757 -111.5105 -106.12852 -103.27845 -99.631378 -95.984306 -94.5242 -90.877129 -87.230057 -65.875557 -62.228485 -58.581413 -54.934341 -53.474236 -49.827164 -44.445183 -41.595112 -37.94804 -34.300968 -32.840862 -29.19379 -25.546719"
         y="8.5610552"
         sodipodi:role="line"
         id="tspan400">Hip(cm)112.38(11.99)111.13(12.04)</tspan></text>
<text
       transform="matrix(1,0,0,-1,269.17644,673.17103)"
       style="font-variant:normal;font-weight:normal;font-size:6.37599993px;font-family:AdvTT454a7a89;-inkscape-font-specification:AdvTT454a7a89;writing-mode:lr-tb;fill:#231f20;fill-opacity:1;fill-rule:nonzero;stroke:none"
       id="text406"><tspan
         x="0"
         y="0"
         id="tspan404">b</tspan></text>
<text
       transform="matrix(1,0,0,-1,273.37185,673.17103)"
       style="font-variant:normal;font-weight:normal;font-size:6.37599993px;font-family:AdvTT5235d5a9;-inkscape-font-specification:AdvTT5235d5a9;writing-mode:lr-tb;fill:#231f20;fill-opacity:1;fill-rule:nonzero;stroke:none"
       id="text414"><tspan
         x="0 3.6470721 5.1071758 8.7542477 12.40132 37.928272 41.575344 45.222416 48.869488 50.329594 53.976665 59.358646 62.208717 65.855789 69.502861 70.962967 74.610039 78.257111 99.61161 103.25868 106.90575 110.55283 112.01293 115.66 121.04198 123.89206 127.53913 131.1862 132.6463 136.29338 139.94044 161.29495 164.94202 166.40213 170.04919 203.75847 207.40555 208.86565 212.51271 245.65517 249.30223 250.76234 254.40941"
         y="0"
         sodipodi:role="line"
         id="tspan408">0.001111.57(11.05)110.57(10.95)0.020.540.67</tspan><tspan
         x="-233.68933 -227.05191 -223.80016 -221.94473 -219.15842 -216.83755 -214.2489 -211.92804 -208.34473 -205.75607 -201.90497 -199.95583 -194.51328 -191.92461 -188.67285 -186.35199 -184.49657 -179.26251 -176.41245 -170.96735 -167.71558 -165.86017 -163.07385 -160.75299 -158.43213 -154.58102 -152.7256 -148.94464 -120.24371 -116.59663 -115.13654 -111.48946 -106.12661 -103.27654 -99.629463 -98.169357 -94.522285 -90.875214 -58.560371 -54.9133 -53.453197 -49.806126 -44.443272 -41.593197 -37.946125 -36.486023 -32.838951 -29.191879 0.0044632 3.6515353 5.111639 8.7587109 12.405784 45.24601 48.893082 50.353184 54.000256 59.36311 62.213181 65.860252 67.320358 70.96743 74.614502 106.92934 110.57642 112.03652 115.68359 121.04645 123.89652 127.54359 129.00369 132.65077 136.29784 161.29941 164.94649 166.40659 170.05367 203.76294 207.41 208.8701 212.51718 245.65962 249.3067 250.7668 254.41388"
         y="8.5604172"
         sodipodi:role="line"
         id="tspan410">Waist-to-hipratio(waist/hip)0.91(0.08)0.90(0.08)0.0020.91(0.08)0.91(0.08)0.820.560.58</tspan><tspan
         x="-233.68933 -227.05191 -223.73639 -221.88098 -218.43156 -214.58046 -210.55783 -207.70776 -204.18822 -200.7388"
         y="17.177582"
         sodipodi:role="line"
         id="tspan412">Weight(kg)</tspan></text>
<text
       transform="matrix(1,0,0,-0.88878665,75.4582,658.8282)"
       style="font-variant:normal;font-weight:normal;font-size:4.78179979px;font-family:AdvTT5235d5a9;-inkscape-font-specification:AdvTT5235d5a9;writing-mode:lr-tb;fill:#2e3192;fill-opacity:1;fill-rule:nonzero;stroke:none"
       id="text418"><tspan
         x="0"
         y="0"
         id="tspan416">d</tspan></text>
<text
       transform="matrix(1,0,0,-1,149.4992,655.9935)"
       style="font-variant:normal;font-weight:normal;font-size:6.37599993px;font-family:AdvTT5235d5a9;-inkscape-font-specification:AdvTT5235d5a9;writing-mode:lr-tb;fill:#231f20;fill-opacity:1;fill-rule:nonzero;stroke:none"
       id="text422"><tspan
         x="0 3.6470721 7.2941442 8.7542477 12.40132 17.745684 20.595755 24.242826 27.889898 29.350002 32.997074 36.644146 61.683338 65.330406 68.977478 70.437584 74.084656 79.429024 82.279091 85.926163 89.573235 91.03334 94.680412 98.327484"
         y="0"
         sodipodi:role="line"
         id="tspan420">85.20(22.60)84.50(23.70)</tspan></text>
<text
       transform="matrix(1,0,0,-1,269.17863,655.9935)"
       style="font-variant:normal;font-weight:normal;font-size:6.37599993px;font-family:AdvTT454a7a89;-inkscape-font-specification:AdvTT454a7a89;writing-mode:lr-tb;fill:#231f20;fill-opacity:1;fill-rule:nonzero;stroke:none"
       id="text426"><tspan
         x="0"
         y="0"
         id="tspan424">b</tspan></text>
<text
       transform="matrix(1,0,0,-1,273.37404,655.9935)"
       style="font-variant:normal;font-weight:normal;font-size:6.37599993px;font-family:AdvTT5235d5a9;-inkscape-font-specification:AdvTT5235d5a9;writing-mode:lr-tb;fill:#231f20;fill-opacity:1;fill-rule:nonzero;stroke:none"
       id="text432"><tspan
         x="0 3.6470721 5.1071758 8.7542477 12.40132 41.612965 45.260036 48.907108 50.36721 54.014282 59.358646 62.208717 65.855789 69.502861 70.962967 74.610039 78.257111 103.2963 106.94337 110.59045 112.05055 115.69762 121.04198 123.89206 127.53913 131.1862 132.6463 136.29338 139.94044 161.29495 164.94202 166.40213 170.04919 203.75847 207.40555 208.86565 212.51271 245.65517 249.30223 250.76234 254.40941"
         y="0"
         sodipodi:role="line"
         id="tspan428">0.00185.30(21.90)86.40(22.00)0.120.880.74</tspan><tspan
         x="-233.68933 -229.90836 -223.9978 -220.36604 -217.51596 -213.99641 -210.547 -208.22614"
         y="8.5604172"
         sodipodi:role="line"
         id="tspan430">BMI(kg/m</tspan></text>
<text
       transform="matrix(1,0,0,-0.88878665,70.9795,650.2676)"
       style="font-variant:normal;font-weight:normal;font-size:4.78179979px;font-family:AdvTT5235d5a9;-inkscape-font-specification:AdvTT5235d5a9;writing-mode:lr-tb;fill:#231f20;fill-opacity:1;fill-rule:nonzero;stroke:none"
       id="text436"><tspan
         x="0"
         y="0"
         id="tspan434">2</tspan></text>
<text
       transform="matrix(1,0,0,-1,73.7575,647.4329)"
       style="font-variant:normal;font-weight:normal;font-size:6.37599993px;font-family:AdvTT5235d5a9;-inkscape-font-specification:AdvTT5235d5a9;writing-mode:lr-tb;fill:#231f20;fill-opacity:1;fill-rule:nonzero;stroke:none"
       id="text440"><tspan
         x="0"
         y="0"
         id="tspan438">)</tspan></text>
<text
       transform="matrix(1,0,0,-0.88878665,76.5354,650.2676)"
       style="font-variant:normal;font-weight:normal;font-size:4.78179979px;font-family:AdvTT5235d5a9;-inkscape-font-specification:AdvTT5235d5a9;writing-mode:lr-tb;fill:#2e3192;fill-opacity:1;fill-rule:nonzero;stroke:none"
       id="text444"><tspan
         x="0"
         y="0"
         id="tspan442">d</tspan></text>
<text
       transform="matrix(1,0,0,-1,149.4992,647.4329)"
       style="font-variant:normal;font-weight:normal;font-size:6.37599993px;font-family:AdvTT5235d5a9;-inkscape-font-specification:AdvTT5235d5a9;writing-mode:lr-tb;fill:#231f20;fill-opacity:1;fill-rule:nonzero;stroke:none"
       id="text448"><tspan
         x="0 3.6470721 7.2941442 8.7542477 12.40132 17.745684 20.595755 24.242826 25.70293 29.350002 32.997074 61.683338 65.330406 68.977478 70.437584 74.084656 79.429024 82.279091 85.926163 87.386269 91.03334 94.680412"
         y="0"
         sodipodi:role="line"
         id="tspan446">29.55(6.93)29.35(7.00)</tspan></text>
<text
       transform="matrix(1,0,0,-1,269.17863,647.4329)"
       style="font-variant:normal;font-weight:normal;font-size:6.37599993px;font-family:AdvTT454a7a89;-inkscape-font-specification:AdvTT454a7a89;writing-mode:lr-tb;fill:#231f20;fill-opacity:1;fill-rule:nonzero;stroke:none"
       id="text452"><tspan
         x="0"
         y="0"
         id="tspan450">b</tspan></text>
<text
       transform="matrix(1,0,0,-1,273.37404,647.4329)"
       style="font-variant:normal;font-weight:normal;font-size:6.37599993px;font-family:AdvTT5235d5a9;-inkscape-font-specification:AdvTT5235d5a9;writing-mode:lr-tb;fill:#231f20;fill-opacity:1;fill-rule:nonzero;stroke:none"
       id="text458"><tspan
         x="0 3.6470721 5.1071758 8.7542477 12.40132 41.612965 45.260036 48.907108 50.36721 54.014282 59.358646 62.208717 65.855789 67.315895 70.962967 74.610039 103.2963 106.94337 110.59045 112.05055 115.69762 121.04198 123.89206 127.53913 128.99924 132.6463 136.29338 161.29495 164.94202 166.40213 170.04919 203.75847 207.40555 208.86565 212.51271 245.65517 249.30223 250.76234 254.40941"
         y="0"
         sodipodi:role="line"
         id="tspan454">0.00129.80(7.05)29.70(6.90)0.100.880.68</tspan><tspan
         x="-233.68933 -229.90836 -226.32504 -222.54408 -217.36102 -215.30795 -212.0562 -208.06291 -205.21283 -201.29797"
         y="8.5604172"
         sodipodi:role="line"
         id="tspan456">Bodyfat(%)</tspan></text>
<text
       transform="matrix(1,0,0,-0.88878665,74.8346,641.707)"
       style="font-variant:normal;font-weight:normal;font-size:4.78179979px;font-family:AdvTT5235d5a9;-inkscape-font-specification:AdvTT5235d5a9;writing-mode:lr-tb;fill:#2e3192;fill-opacity:1;fill-rule:nonzero;stroke:none"
       id="text462"><tspan
         x="0"
         y="0"
         id="tspan460">d</tspan></text>
<text
       transform="matrix(1,0,0,-1,149.4992,638.8723)"
       style="font-variant:normal;font-weight:normal;font-size:6.37599993px;font-family:AdvTT5235d5a9;-inkscape-font-specification:AdvTT5235d5a9;writing-mode:lr-tb;fill:#231f20;fill-opacity:1;fill-rule:nonzero;stroke:none"
       id="text466"><tspan
         x="0 3.6470721 7.2941442 8.7542477 12.40132 17.745684 20.595755 24.242826 27.889898 29.350002 32.997074 36.644146 61.683338 65.330406 68.977478 70.437584 74.084656 79.429024 82.279091 85.926163 89.573235 91.03334 94.680412 98.327484"
         y="0"
         sodipodi:role="line"
         id="tspan464">40.20(11.70)38.70(11.35)</tspan></text>
<text
       transform="matrix(1,0,0,-1,269.17863,638.8723)"
       style="font-variant:normal;font-weight:normal;font-size:6.37599993px;font-family:AdvTT454a7a89;-inkscape-font-specification:AdvTT454a7a89;writing-mode:lr-tb;fill:#231f20;fill-opacity:1;fill-rule:nonzero;stroke:none"
       id="text470"><tspan
         x="0"
         y="0"
         id="tspan468">b</tspan></text>
<text
       transform="matrix(1,0,0,-1,273.37404,638.8723)"
       style="font-variant:normal;font-weight:normal;font-size:6.37599993px;font-family:AdvTT5235d5a9;-inkscape-font-specification:AdvTT5235d5a9;writing-mode:lr-tb;fill:#231f20;fill-opacity:1;fill-rule:nonzero;stroke:none"
       id="text474"><tspan
         x="0 3.6470721 5.1071758 8.7542477 12.40132 41.612965 45.260036 48.907108 50.36721 54.014282 59.358646 62.208717 65.855789 69.502861 70.962967 74.610039 78.257111 103.2963 106.94337 110.59045 112.05055 115.69762 121.04198 123.89206 127.53913 131.1862 132.6463 136.29338 139.94044 161.29495 164.94202 166.40213 170.04919 203.75847 207.40555 208.86565 212.51271 245.65517 249.30223 250.76234 254.40941"
         y="0"
         sodipodi:role="line"
         id="tspan472">0.00138.80(12.75)39.10(12.80)0.750.600.77</tspan></text>
<text
       transform="matrix(1,0,0,-0.88878665,39.1181,628.6676)"
       style="font-variant:normal;font-weight:normal;font-size:4.78179979px;font-family:AdvTT5235d5a9;-inkscape-font-specification:AdvTT5235d5a9;writing-mode:lr-tb;fill:#231f20;fill-opacity:1;fill-rule:nonzero;stroke:none"
       id="text478"><tspan
         x="0"
         y="0"
         id="tspan476">a</tspan></text>
<text
       transform="matrix(1,0,0,-1,45.5244,625.8329)"
       style="font-variant:normal;font-weight:normal;font-size:6.37599993px;font-family:AdvTT5235d5a9;-inkscape-font-specification:AdvTT5235d5a9;writing-mode:lr-tb;fill:#231f20;fill-opacity:1;fill-rule:nonzero;stroke:none"
       id="text482"><tspan
         x="0 3.583312 6.6329527 8.488369 10.941854 14.116464 19.559017 21.770214 24.35887 26.475702 29.791222 32.428337 36.340012 39.987083 43.143204 45.354401 50.68346 53.998981 57.146812 62.646114 66.161201 69.412964 72.057724 75.232338 77.087753 78.804169 82.655273 87.478081 90.729843 94.394768 99.780571 103.56154 106.98099 109.64552 111.96638 114.40775 116.61895 119.93447 122.51548 126.4839 128.53697 131.92645 136.12186 138.44272 142.13124 147.06372 148.91913 152.56302 154.88388 158.06232 160.65097 163.9021 167.21762 170.87552 173.08672 174.94214 178.35904 183.80159 187.25101 189.64137 193.22469 196.84178 200.62276"
         y="0"
         sodipodi:role="line"
         id="tspan480">Pairedt-testbetweenbaselineandpost-testfortheinterventiongroup.</tspan></text>
<text
       transform="matrix(1,0,0,-0.88878665,39.1181,620.1069)"
       style="font-variant:normal;font-weight:normal;font-size:4.78179979px;font-family:AdvTT5235d5a9;-inkscape-font-specification:AdvTT5235d5a9;writing-mode:lr-tb;fill:#231f20;fill-opacity:1;fill-rule:nonzero;stroke:none"
       id="text486"><tspan
         x="0"
         y="0"
         id="tspan484">b</tspan></text>
<text
       transform="matrix(1,0,0,-1,45.8645,617.2723)"
       style="font-variant:normal;font-weight:normal;font-size:6.37599993px;font-family:AdvTT5235d5a9;-inkscape-font-specification:AdvTT5235d5a9;writing-mode:lr-tb;fill:#231f20;fill-opacity:1;fill-rule:nonzero;stroke:none"
       id="text490"><tspan
         x="0 3.4583423 6.7101026 8.3908157 10.979472 14.117102 19.502909 21.714106 24.302761 26.476339 29.650949 32.437263 36.340649 39.85574 43.171257 45.29829 50.743397 53.916092 57.090706 62.590004 66.237076 69.279701 72.066017 75.232338 77.087753 78.747429 82.598526 87.421333 90.673096 94.33802 99.780571 103.56154 106.92425 109.71056 111.85672 114.44537 116.56221 119.87772 122.51484 126.42651 128.47958 131.86906 136.12123 138.33243 142.18352 147.00633 149.9903 153.41293 157.26404 159.36557 161.95422 165.37495 168.8333 172.28271 174.72981 178.18816 181.96913 185.55818"
         y="0"
         sodipodi:role="line"
         id="tspan488">Pairedt-testbetweenbaselineandpost-testforthecontrolgroup.</tspan></text>
<text
       transform="matrix(1,0,0,-0.88878665,39.1181,611.5463)"
       style="font-variant:normal;font-weight:normal;font-size:4.78179979px;font-family:AdvTT5235d5a9;-inkscape-font-specification:AdvTT5235d5a9;writing-mode:lr-tb;fill:#231f20;fill-opacity:1;fill-rule:nonzero;stroke:none"
       id="text494"><tspan
         x="0"
         y="0"
         id="tspan492">c</tspan></text>
<text
       transform="matrix(1,0,0,-1,45.3543,608.7117)"
       style="font-variant:normal;font-weight:normal;font-size:6.37599993px;font-family:AdvTT5235d5a9;-inkscape-font-specification:AdvTT5235d5a9;writing-mode:lr-tb;fill:#231f20;fill-opacity:1;fill-rule:nonzero;stroke:none"
       id="text498"><tspan
         x="0 1.925552 5.5560465 9.3370142 12.472732 16.253698 19.389416 23.24052 26.816181 30.131701 33.789612 37.758034 39.969231 42.557888 44.731464 47.906075 50.692387 54.595776 58.110863 61.426384 63.553417 68.99852 72.171219 75.345833 80.845131 82.700546 86.344429 88.665291 91.78698 94.375641 97.682869 100.85748 104.70859 106.86686 108.72227 112.13918 117.58173 120.83349 124.49841 129.94096 132.92494 136.29083 140.14192 142.3002 144.88885 148.25284 151.71118 155.1606 157.60771 161.06606 164.84702 170.19392 173.3118 177.28021 180.92729 183.96991 186.75623 189.92255 191.77797 193.43764 197.28874 200.41107"
         y="0"
         sodipodi:role="line"
         id="tspan496">Independentt-testbetweeninterventionandcontrolgroupatbaseline.</tspan></text>
<text
       transform="matrix(1,0,0,-0.88878665,39.1181,602.9857)"
       style="font-variant:normal;font-weight:normal;font-size:4.78179979px;font-family:AdvTT5235d5a9;-inkscape-font-specification:AdvTT5235d5a9;writing-mode:lr-tb;fill:#231f20;fill-opacity:1;fill-rule:nonzero;stroke:none"
       id="text502"><tspan
         x="0"
         y="0"
         id="tspan500">d</tspan></text>
<text
       transform="matrix(1,0,0,-1,45.9212,600.1511)"
       style="font-variant:normal;font-weight:normal;font-size:6.37599993px;font-family:AdvTT5235d5a9;-inkscape-font-specification:AdvTT5235d5a9;writing-mode:lr-tb;fill:#231f20;fill-opacity:1;fill-rule:nonzero;stroke:none"
       id="text506"><tspan
         x="0 1.925552 5.612793 9.3937607 12.529478 16.310446 19.446163 23.297266 26.872927 30.188448 33.846359 37.814781 40.025978 42.614635 44.731464 48.046986 50.627354 54.595776 58.242847 61.398968 63.610165 68.939224 72.254745 75.402573 80.901878 82.757294 86.401176 88.612373 91.927895 94.338661 97.788071 100.9155 104.76661 106.92488 108.7803 112.14045 117.63975 120.75761 124.60872 129.94225 132.92621 136.34885 140.19995 142.30148 144.89014 148.31087 151.76921 155.21861 157.60898 161.19229 164.8094 170.19521 173.44696 177.33888 179.77643 183.09193 185.5027 187.82358 190.94527 193.73157 195.87773"
         y="0"
         sodipodi:role="line"
         id="tspan504">Independentt-testbetweeninterventionandcontrolgroupatre-test.</tspan></text>
<text
       transform="matrix(1,0,0,-0.88878665,39.1181,594.3683)"
       style="font-variant:normal;font-weight:normal;font-size:4.78179979px;font-family:AdvTT5235d5a9;-inkscape-font-specification:AdvTT5235d5a9;writing-mode:lr-tb;fill:#231f20;fill-opacity:1;fill-rule:nonzero;stroke:none"
       id="text510"><tspan
         x="0"
         y="0"
         id="tspan508">d</tspan></text>
<text
       transform="matrix(1,0,0,-1,45.9212,591.5338)"
       style="font-variant:normal;font-weight:normal;font-size:6.37599993px;font-family:AdvTT5235d5a9;-inkscape-font-specification:AdvTT5235d5a9;writing-mode:lr-tb;fill:#231f20;fill-opacity:1;fill-rule:nonzero;stroke:none"
       id="text514"><tspan
         x="0 4.6481042 8.0503378 11.901442 14.286703 18.067671 21.146641 23.735298 26.816181 32.542465 35.857986 37.98502 40.573677 42.237175 46.885918 49.097115 52.412632 54.993 57.204197 61.625954 64.877716 68.485893 72.266861 73.928444 75.783859 78.917664 82.698631"
         y="0"
         sodipodi:role="line"
         id="tspan512">Non-parametrictestsapplied.</tspan></text>
</g></svg>