<?xml version="1.0" encoding="UTF-8" standalone="no"?>
<!-- Created with Inkscape (http://www.inkscape.org/) -->

<svg
   xmlns:dc="http://purl.org/dc/elements/1.1/"
   xmlns:cc="http://creativecommons.org/ns#"
   xmlns:rdf="http://www.w3.org/1999/02/22-rdf-syntax-ns#"
   xmlns:svg="http://www.w3.org/2000/svg"
   xmlns="http://www.w3.org/2000/svg"
   xmlns:sodipodi="http://sodipodi.sourceforge.net/DTD/sodipodi-0.dtd"
   xmlns:inkscape="http://www.inkscape.org/namespaces/inkscape"
   version="1.1"
   id="svg2"
   xml:space="preserve"
   width="793.70135"
   height="1058.2679"
   viewBox="0 0 793.70135 1058.2679"
   sodipodi:docname="table2.svg"
   inkscape:version="0.92.0 r15299"><metadata
     id="metadata8"><rdf:RDF><cc:Work
         rdf:about=""><dc:format>image/svg+xml</dc:format><dc:type
           rdf:resource="http://purl.org/dc/dcmitype/StillImage" /><dc:title></dc:title></cc:Work></rdf:RDF></metadata><defs
     id="defs6" /><sodipodi:namedview
     pagecolor="#ffffff"
     bordercolor="#666666"
     borderopacity="1"
     objecttolerance="10"
     gridtolerance="10"
     guidetolerance="10"
     inkscape:pageopacity="0"
     inkscape:pageshadow="2"
     inkscape:window-width="1920"
     inkscape:window-height="988"
     id="namedview4"
     showgrid="false"
     inkscape:zoom="1.2615119"
     inkscape:cx="70.823628"
     inkscape:cy="756.78108"
     inkscape:window-x="0"
     inkscape:window-y="27"
     inkscape:window-maximized="1"
     inkscape:current-layer="g10" /><g
     id="g10"
     inkscape:groupmode="layer"
     inkscape:label="fulltext"
     transform="matrix(1.3333333,0,0,-1.3333333,0,1058.268)"><path
       d="M 42.52,716.371 H 561.6 v 0.51025 H 42.52 Z"
       style="fill:#231f20;fill-opacity:1;fill-rule:nonzero;stroke:none"
       id="path330"
       inkscape:connector-curvature="0" /><path
       d="M 42.52,608.712 H 561.6 v 0.45355 H 42.52 Z"
       style="fill:#231f20;fill-opacity:1;fill-rule:nonzero;stroke:none"
       id="path332"
       inkscape:connector-curvature="0" /><path
       d="m 42.52,690.293 h 122.287 v 0.51019 H 42.52 Z"
       style="fill:#231f20;fill-opacity:1;fill-rule:nonzero;stroke:none"
       id="path334"
       inkscape:connector-curvature="0" /><path
       d="m 164.806,703.332 h 103.918 v 0.51025 H 164.806 Z"
       style="fill:#231f20;fill-opacity:1;fill-rule:nonzero;stroke:none"
       id="path336"
       inkscape:connector-curvature="0" /><path
       d="m 268.724,690.293 h 58.847 v 0.51019 h -58.847 z"
       style="fill:#231f20;fill-opacity:1;fill-rule:nonzero;stroke:none"
       id="path338"
       inkscape:connector-curvature="0" /><path
       d="m 327.572,703.332 h 103.861 v 0.51025 H 327.572 Z"
       style="fill:#231f20;fill-opacity:1;fill-rule:nonzero;stroke:none"
       id="path340"
       inkscape:connector-curvature="0" /><path
       d="m 431.433,690.293 h 59.187 v 0.51019 h -59.187 z"
       style="fill:#231f20;fill-opacity:1;fill-rule:nonzero;stroke:none"
       id="path342"
       inkscape:connector-curvature="0" /><path
       d="m 472.989,690.293 h 58.62 v 0.51019 h -58.62 z"
       style="fill:#231f20;fill-opacity:1;fill-rule:nonzero;stroke:none"
       id="path344"
       inkscape:connector-curvature="0" /><path
       d="M 513.978,690.293 H 561.6 v 0.51019 h -47.622 z"
       style="fill:#231f20;fill-opacity:1;fill-rule:nonzero;stroke:none"
       id="path346"
       inkscape:connector-curvature="0" /><path
       d="m 147.175,690.293 h 78.406 v 0.51019 h -78.406 z"
       style="fill:#231f20;fill-opacity:1;fill-rule:nonzero;stroke:none"
       id="path348"
       inkscape:connector-curvature="0" /><path
       d="m 207.95,690.293 h 78.406 v 0.51019 H 207.95 Z"
       style="fill:#231f20;fill-opacity:1;fill-rule:nonzero;stroke:none"
       id="path350"
       inkscape:connector-curvature="0" /><path
       d="m 309.94,690.293 h 78.406 v 0.51019 H 309.94 Z"
       style="fill:#231f20;fill-opacity:1;fill-rule:nonzero;stroke:none"
       id="path352"
       inkscape:connector-curvature="0" /><path
       d="m 370.715,690.293 h 78.406 v 0.51019 h -78.406 z"
       style="fill:#231f20;fill-opacity:1;fill-rule:nonzero;stroke:none"
       id="path354"
       inkscape:connector-curvature="0" /><text
       transform="matrix(1,0,0,-1,42.5197,730.9415)"
       style="font-variant:normal;font-weight:normal;font-size:6.37599993px;font-family:AdvTT28000ce1;-inkscape-font-specification:AdvTT28000ce1;writing-mode:lr-tb;fill:#231f20;fill-opacity:1;fill-rule:nonzero;stroke:none"
       id="text358"><tspan
         x="0 3.583312 6.8599386 10.711042 12.586224 17.575443"
         y="0"
         sodipodi:role="line"
         id="tspan356">Table2</tspan></text>
<text
       transform="matrix(1,0,0,-1,42.5197,722.38108)"
       style="font-variant:normal;font-weight:normal;font-size:6.37599993px;font-family:AdvTT5235d5a9;-inkscape-font-specification:AdvTT5235d5a9;writing-mode:lr-tb;fill:#231f20;fill-opacity:1;fill-rule:nonzero;stroke:none"
       id="text362"><tspan
         x="0 3.780968 7.2004166 12.926702 16.70767 19.78664 22.375298 24.038795 26.703325 30.286638 35.660969 39.244282 42.861385 45.845352 49.494339 52.746098 56.411022 59.860439 62.987865 67.409622 69.265038 74.666145 80.392433 83.707954 85.834984 89.086746 92.524689 96.108002 97.796997 99.65242 104.20361 106.86813 110.31755 113.95506 117.73603 120.13468 123.71799 129.37605 134.36528 138.14624 141.16847 143.75713 146.838 152.56429 155.87981 158.06358 161.2382 163.82686 168.15489 171.40665 175.07156 180.51413 183.49809 186.5235 189.11217 192.70312 194.55853 197.97543 201.42485 204.49553 207.16006 210.14403 213.73627 215.59169 218.66875 222.86415 225.4528 227.1163 229.90262 234.99704 236.92451 240.17627 242.99063 245.20183 248.78514 251.21121 255.57686 259.22394 262.38007 264.59125 270.03635 273.15231 276.46783 281.88297 283.73837 287.38226 289.59344 292.90897 295.31973 298.76917 301.89658 305.74768 307.90598 309.76138 313.12152 318.62085 321.87259 325.53751 330.92334 333.90729 337.32993 341.18103 343.28256 345.87122 349.29193 352.75027 356.19971 358.64682 362.10516 365.88611 369.47516 372.26147 375.25821 379.44086 381.09799 384.74506 387.84442 391.69553 396.63184 403.26926 406.44003 409.10455 411.31577 414.63129 417.04205 422.54135 426.724 430.30157 432.96609 435.28696 437.72833 440.84619 442.70163 444.3613 447.61307 450.59766 454.24472 457.74133 461.3884"
         y="0"
         sodipodi:role="line"
         id="tspan360">Comparisonofchangesinmetabolicsyndromeparametersandcardiovascularriskfactorsbetweeninterventionandcontrolgroups,AlbanyWesternAustralia,2014</tspan></text>
<text
       transform="matrix(1,0,0,-1,507.34732,722.38108)"
       style="font-variant:normal;font-weight:normal;font-size:6.37599993px;font-family:'AdvTT5235d5a9 20';-inkscape-font-specification:'AdvTT5235d5a9 20';writing-mode:lr-tb;fill:#231f20;fill-opacity:1;fill-rule:nonzero;stroke:none"
       id="text366"><tspan
         x="0"
         y="0"
         id="tspan364">–</tspan></text>
<text
       transform="matrix(1,0,0,-1,510.91915,722.38108)"
       style="font-variant:normal;font-weight:normal;font-size:6.37599993px;font-family:AdvTT5235d5a9;-inkscape-font-specification:AdvTT5235d5a9;writing-mode:lr-tb;fill:#231f20;fill-opacity:1;fill-rule:nonzero;stroke:none"
       id="text376"><tspan
         x="0 3.6470721 7.0869241 10.733996 14.230595"
         y="0"
         sodipodi:role="line"
         id="tspan368">2015.</tspan><tspan
         x="-462.44617 -457.93198 -454.151 -451.83014 -448.84616 -445.26285 -439.42245"
         y="21.089895"
         sodipodi:role="line"
         id="tspan370">Outcome</tspan><tspan
         x="-346.1116 -344.18604 -340.33493 -338.01407 -334.69855 -332.10989 -328.66049 -325.34497 -321.49387 -319.173 -317.31757 -313.73425 -308.18268 -304.73328 -302.14462 -298.56131 -294.78033 -289.30334 -286.45328 -280.91254 -272.86218 -269.21512 -265.56805 -261.92099"
         y="14.569798"
         sodipodi:role="line"
         id="tspan372">Interventiongroup(n=130)</tspan><tspan
         x="-224.56145 -219.1189 -215.66948 -212.41771 -210.5623 -206.78133"
         y="21.089895"
         sodipodi:role="line"
         id="tspan374">pvalue</tspan></text>
<text
       transform="matrix(1,0,0,-0.88878665,307.5023,704.1259)"
       style="font-variant:normal;font-weight:normal;font-size:4.78179979px;font-family:AdvTT5235d5a9;-inkscape-font-specification:AdvTT5235d5a9;writing-mode:lr-tb;fill:#2e3192;fill-opacity:1;fill-rule:nonzero;stroke:none"
       id="text380"><tspan
         x="0"
         y="0"
         id="tspan378">a</tspan></text>
<text
       transform="matrix(1,0,0,-1,327.5716,707.8109)"
       style="font-variant:normal;font-weight:normal;font-size:6.37599993px;font-family:AdvTT5235d5a9;-inkscape-font-specification:AdvTT5235d5a9;writing-mode:lr-tb;fill:#231f20;fill-opacity:1;fill-rule:nonzero;stroke:none"
       id="text386"><tspan
         x="0 3.780968 7.3642802 11.215384 13.536248 16.124905 19.708216 23.244984 26.694399 29.283054 32.866367 36.647335 42.124321 44.974392 50.458389 58.508728 62.1558 65.802872 69.449944"
         y="0"
         sodipodi:role="line"
         id="tspan382">Controlgroup(n=144)</tspan><tspan
         x="121.55015 126.99271 130.44212 133.69388 135.5493 139.33026"
         y="6.5200977"
         sodipodi:role="line"
         id="tspan384">pvalue</tspan></text>
<text
       transform="matrix(1,0,0,-0.88878665,470.2109,704.1259)"
       style="font-variant:normal;font-weight:normal;font-size:4.78179979px;font-family:AdvTT5235d5a9;-inkscape-font-specification:AdvTT5235d5a9;writing-mode:lr-tb;fill:#2e3192;fill-opacity:1;fill-rule:nonzero;stroke:none"
       id="text390"><tspan
         x="0"
         y="0"
         id="tspan388">b</tspan></text>
<text
       transform="matrix(1,0,0,-1,490.6203,701.2911)"
       style="font-variant:normal;font-weight:normal;font-size:6.37599993px;font-family:AdvTT5235d5a9;-inkscape-font-specification:AdvTT5235d5a9;writing-mode:lr-tb;fill:#231f20;fill-opacity:1;fill-rule:nonzero;stroke:none"
       id="text394"><tspan
         x="0 5.4425535 8.8919697 12.143729 13.999146 17.780113"
         y="0"
         sodipodi:role="line"
         id="tspan392">pvalue</tspan></text>
<text
       transform="matrix(1,0,0,-0.88878665,511.7668,704.1259)"
       style="font-variant:normal;font-weight:normal;font-size:4.78179979px;font-family:AdvTT5235d5a9;-inkscape-font-specification:AdvTT5235d5a9;writing-mode:lr-tb;fill:#2e3192;fill-opacity:1;fill-rule:nonzero;stroke:none"
       id="text398"><tspan
         x="0"
         y="0"
         id="tspan396">c</tspan></text>
<text
       transform="matrix(1,0,0,-1,531.6093,701.2911)"
       style="font-variant:normal;font-weight:normal;font-size:6.37599993px;font-family:AdvTT5235d5a9;-inkscape-font-specification:AdvTT5235d5a9;writing-mode:lr-tb;fill:#231f20;fill-opacity:1;fill-rule:nonzero;stroke:none"
       id="text402"><tspan
         x="0 5.4425535 8.8919697 12.143729 13.999146 17.780113"
         y="0"
         sodipodi:role="line"
         id="tspan400">pvalue</tspan></text>
<text
       transform="matrix(1,0,0,-0.88878665,552.7557,704.1259)"
       style="font-variant:normal;font-weight:normal;font-size:4.78179979px;font-family:AdvTT5235d5a9;-inkscape-font-specification:AdvTT5235d5a9;writing-mode:lr-tb;fill:#2e3192;fill-opacity:1;fill-rule:nonzero;stroke:none"
       id="text406"><tspan
         x="0"
         y="0"
         id="tspan404">d</tspan></text>
<text
       transform="matrix(1,0,0,-1,164.8062,694.7715)"
       style="font-variant:normal;font-weight:normal;font-size:6.37599993px;font-family:AdvTT5235d5a9;-inkscape-font-specification:AdvTT5235d5a9;writing-mode:lr-tb;fill:#231f20;fill-opacity:1;fill-rule:nonzero;stroke:none"
       id="text434"><tspan
         x="0 3.780968 7.0327282 9.8190403 13.13456 14.989976 16.845392 20.696495 60.776031 64.359344 67.942657 70.728966 162.76781 166.54877 169.80054 172.58684 175.90236 177.75778 179.61319 183.46429 223.54384 227.12715 230.71046 233.49677"
         y="0"
         sodipodi:role="line"
         id="tspan408">BaselinePostBaselinePost</tspan><tspan
         x="-116.33458 -112.81503 -110.22637 -108.37096 -104.92155 -103.06612 -99.616714 -96.547943 -93.232422 -90.643768 -88.788353 -85.007385 -81.691864 -77.215271 -74.365204 -68.524788 -62.614231"
         y="13.039558"
         sodipodi:role="line"
         id="tspan410">Triglycerides(mM)</tspan><tspan
         x="-59.811344"
         y="13.039558"
         id="tspan412">e</tspan><tspan
         x="7.313272 10.960344 12.420448 16.06752 21.373627 24.2237 27.870771 29.330875 32.977947 36.625019 68.089302 71.736374 73.19648 76.843552 82.149658 84.999733 88.646805 90.106911 93.753983 97.401054 125.69073 129.3378 130.7979 134.44498 170.08171 173.72879 175.18889 178.83597 184.14207 186.99214 190.63921 192.09932 195.74638 199.39346 230.85774 234.50482 235.96492 239.612 244.91811 247.76817 251.41524 252.87535 256.52243 260.16949 284.3205 287.96759 289.42767 293.07474 325.81998 329.46704 330.92715 334.57422 366.80936 370.45645 371.91653 375.56363"
         y="13.039558"
         sodipodi:role="line"
         id="tspan414">1.48(0.79)1.36(0.75)0.011.37(0.60)1.47(0.68)0.020.190.09</tspan><tspan
         x="-116.33458 -111.89051 -110.0351 -106.25413 -103.27016 -99.686844 -96.900536 -91.842453 -88.992386 -83.15197 -77.241417 7.3145471 10.961619 12.421723 16.068794 21.374903 24.224974 27.872046 29.33215 32.979221 36.626293 68.090576 71.737648 73.197754 76.844826 82.150932 85.001007 88.648079 90.108185 93.755257 97.402328 125.692 129.33907 130.79918 134.44624 170.08299 173.73006 175.19017 178.83723 184.14334 186.99341 190.64049 192.10059 195.74767 199.39473 230.85902 234.50609 235.9662 239.61327 244.91937 247.76944 251.41652 252.87662 256.52368 260.17078 284.32178 287.96884 289.42896 293.07602 325.82126 329.46832 330.92844 334.5755 366.81064 370.4577 371.91782 375.56488"
         y="21.600613"
         sodipodi:role="line"
         id="tspan416">Glucose(mM)5.01(0.46)5.06(0.53)0.195.04(0.49)5.11(0.56)0.070.600.48</tspan><tspan
         x="-116.33458 -111.62272 -107.10851 -102.27423 -99.29026 -95.439156 -91.855843 -90.000427 -86.684906 -83.898598 -81.577728 -78.262215 -75.673553 -72.09024 -68.540726 -65.690651 -59.850235 -53.939686 7.3151846 10.962256 12.42236 16.069433 21.37554 24.225613 27.872684 29.332788 32.979858 36.62693 68.091217 71.738289 73.198395 76.845467 82.151573 85.00164 88.64872 90.108818 93.75589 97.402962 125.69264 129.33971 130.79982 134.44688 170.08362 173.7307 175.1908 178.83788 184.14398 186.99405 190.64113 192.10123 195.74831 199.39537 230.85966 234.50673 235.96683 239.61391 244.92001 247.77008 251.41716 252.87726 256.52432 260.17142 284.32242 287.96948 289.4296 293.07666 325.8219 329.46896 330.92908 334.57614 366.81128 370.45834 371.91846 375.56552"
         y="30.161669"
         sodipodi:role="line"
         id="tspan418">HDLcholesterol(mM)1.46(0.42)1.45(0.39)0.441.46(0.42)1.44(0.38)0.450.880.89</tspan><tspan
         x="-116.33458 -112.81503 -109.23172 -106.91086 -103.6591 -100.11977 -97.135811 -93.284706 -89.701393 -87.845978 -84.530457 -81.744148 -79.423279 -76.107765 -73.519104 -69.935791 -66.329529 -63.479458 -57.639042 -51.728489 7.3151846 10.962256 12.42236 16.069433 21.37554 24.225613 27.872684 29.332788 32.979858 36.62693 68.091217 71.738289 73.198395 76.845467 82.151573 85.00164 88.64872 90.108818 93.75589 97.402962 125.69264 129.33971 130.79982 134.44688 170.08362 173.7307 175.1908 178.83788 184.14398 186.99405 190.64113 192.10123 195.74831 199.39537 230.85966 234.50673 235.96683 239.61391 244.92001 247.77008 251.41716 252.87726 256.52432 260.17142 284.32242 287.96948 289.4296 293.07666 325.8219 329.46896 330.92908 334.57614 366.81128 370.45834 371.91846 375.56552"
         y="38.778831"
         sodipodi:role="line"
         id="tspan420">Totalcholesterol(mM)5.56(0.97)5.47(1.02)0.045.40(1.10)5.45(1.03)0.290.190.87</tspan><tspan
         x="-116.33458 -113.21672 -108.70251 -103.86185 -100.87788 -97.026779 -93.443466 -91.588051 -88.27253 -85.486221 -83.165359 -79.849838 -77.261177 -73.677872 -70.128349 -67.278275 -61.437862 -55.527309 7.3151846 10.962256 12.42236 16.069433 21.37554 24.225613 27.872684 29.332788 32.979858 36.62693 68.091217 71.738289 73.198395 76.845467 82.151573 85.00164 88.64872 90.108818 93.75589 97.402962 125.69264 129.33971 130.79982 134.44688 170.08362 173.7307 175.1908 178.83788 184.14398 186.99405 190.64113 192.10123 195.74831 199.39537 230.85966 234.50673 235.96683 239.61391 244.92001 247.77008 251.41716 252.87726 256.52432 260.17142 284.32242 287.96948 289.4296 293.07666 325.8219 329.46896 330.92908 334.57614 366.81128 370.45834 371.91846 375.56552"
         y="47.339249"
         sodipodi:role="line"
         id="tspan422">LDLcholesterol(mM)3.42(0.81)3.34(0.95)0.153.32(0.93)3.34(0.90)0.560.310.99</tspan><tspan
         x="-116.33458 -111.68648 -108.10316 -104.25206 -101.66341 -96.951546 -92.437332 -87.590302 -84.606331 -80.755226 -77.171913 -75.316498 -72.000977 -69.214668 -66.893806 -63.578285 -60.989628 -57.406315 -53.856796 -51.006725 -45.166309 -39.255756 7.3158226 10.962894 12.422998 16.07007 21.376177 24.22625 27.873322 29.333426 32.980499 36.627571 68.091858 71.73893 73.199028 76.8461 82.152206 85.002281 88.649353 90.109459 93.756531 97.403603 125.69328 129.34035 130.80045 134.44753 170.08426 173.73134 175.19144 178.83852 184.14462 186.99469 190.64177 192.10187 195.74893 199.39601 230.86029 234.50737 235.96747 239.61455 244.92065 247.77072 251.4178 252.8779 256.52496 260.17203 284.32306 287.97012 289.43024 293.0773 325.82254 329.4696 330.92969 334.57678 366.81192 370.45898 371.9191 375.56616"
         y="55.899666"
         sodipodi:role="line"
         id="tspan424">Non-HDLcholesterol(mM)4.10(0.89)4.02(0.96)0.073.94(1.01)4.01(9.33)0.160.170.90</tspan><tspan
         x="-116.33458 -112.41972 -109.1042 -103.26379 -99.412682 -96.160919 -92.309814 -88.270622 -85.286652 -81.435547 -77.852234 -75.996819 -72.681297 -69.894989 -67.57412 -64.258606 -61.669949 -58.086636 -54.537117 -51.687042 -45.846626 -39.936077"
         y="64.460083"
         sodipodi:role="line"
         id="tspan426">Remnantcholesterol(mM)</tspan><tspan
         x="-37.077717"
         y="64.460083"
         id="tspan428">e</tspan><tspan
         x="7.313272 10.960344 12.420448 16.06752 21.373627 24.2237 27.870771 29.330875 32.977947 36.625019 68.089302 71.736374 73.19648 76.843552 82.149658 84.999733 88.646805 90.106911 93.753983 97.401054 125.69073 129.3378 130.7979 134.44498 138.09204 170.08171 173.72879 175.18889 178.83597 184.14207 186.99214 190.63921 192.09932 195.74638 199.39346 230.85774 234.50482 235.96492 239.612 244.91811 247.76817 251.41524 252.87535 256.52243 260.16949 284.3205 287.96759 289.42767 293.07474 325.81998 329.46704 330.92715 334.57422 366.80936 370.45645 371.91653 375.56363"
         y="64.460083"
         sodipodi:role="line"
         id="tspan430">0.60(0.30)0.50(0.30)0.0030.60(0.40)0.60(0.30)0.060.430.05</tspan><tspan
         x="-116.33458 -113.01907 -109.56965 -106.78333 -104.46247 -100.80009 -98.944679 -97.089264 -92.466026 -88.818954 -86.963539 -83.380226 -79.796913 -74.323753 -70.542786 -67.954132 -64.638611 -61.852303 -59.06599 -55.285019 -52.696365 -47.677177 -44.827106 -38.986691 -31.462372 -26.750507 -23.301092 0.0025504001 3.6496224 7.2966943 10.943767 12.403871 16.050941 21.376177 24.22625 27.873322 31.520393 32.980499 36.627571 40.369007 60.778584 64.425652 68.072723 71.719795 73.179901 76.826973 82.152206 85.002281 88.649353 92.296425 93.756531 97.403603 101.05067"
         y="73.0205"
         sodipodi:role="line"
         id="tspan432">Systolicbloodpressure(mmHg)138.54(14.05)133.30(14.85)</tspan></text>
<text
       transform="matrix(1,0,0,-1,286.35635,621.751)"
       style="font-variant:normal;font-weight:normal;font-size:6.37599993px;font-family:AdvTT454a7a89;-inkscape-font-specification:AdvTT454a7a89;writing-mode:lr-tb;fill:#231f20;fill-opacity:1;fill-rule:nonzero;stroke:none"
       id="text438"><tspan
         x="0"
         y="0"
         id="tspan436">b</tspan></text>
<text
       transform="matrix(1,0,0,-1,290.49501,621.751)"
       style="font-variant:normal;font-weight:normal;font-size:6.37599993px;font-family:AdvTT5235d5a9;-inkscape-font-specification:AdvTT5235d5a9;writing-mode:lr-tb;fill:#231f20;fill-opacity:1;fill-rule:nonzero;stroke:none"
       id="text444"><tspan
         x="0 3.6470721 5.1071758 8.7542477 12.40132 37.077717 40.724789 44.371861 48.018932 49.479034 53.126106 58.451981 61.302052 64.949127 68.596199 70.056297 73.703369 77.350441 97.854385 101.50146 105.14853 108.7956 110.25571 113.90278 119.22865 122.07872 125.72579 129.37286 130.83296 134.48004 138.12712 158.63106 162.27812 163.73824 167.3853 200.13052 203.7776 205.2377 208.88478 241.11992 244.76698 246.2271 249.87416"
         y="0"
         sodipodi:role="line"
         id="tspan440">0.001138.56(14.36)136.32(16.10)0.070.990.09</tspan><tspan
         x="-242.02339 -237.50919 -235.65378 -232.40201 -229.61571 -227.29483 -223.71152 -221.85611 -219.91206 -215.26332 -211.61626 -209.76083 -206.17752 -202.59421 -197.12105 -193.34009 -190.75143 -187.43591 -184.6496 -181.86328 -178.08232 -175.49367 -170.47447 -167.6244 -161.78398 -154.31642 -149.60455 -146.15514 -122.00093 -118.35386 -114.70679 -113.24669 -109.59962 -104.312 -101.46193 -97.81485 -96.354752 -92.70768 -89.060608 -61.28101 -57.633938 -53.986866 -52.526764 -48.879692 -43.535328 -40.685257 -37.038185 -35.578079 -31.931007 -28.283936 0.0057383999 3.6528103 5.1129146 8.7599859 12.407059 40.712036 44.359108 48.00618 49.466282 53.113354 58.457718 61.307789 64.954865 66.414963 70.062035 73.709114 101.48871 105.13578 108.78285 110.24295 113.89002 119.23439 122.08446 125.73153 127.19164 130.83871 134.48578 158.6368 162.28386 163.74397 167.39104 200.13626 203.78334 205.24344 208.89052 241.12566 244.77272 246.23283 249.8799"
         y="8.5604172"
         sodipodi:role="line"
         id="tspan442">Diastolicbloodpressure(mmHg)87.21(9.02)84.87(9.19)0.00285.99(8.75)84.96(9.01)0.150.260.95</tspan></text>
<text
       transform="matrix(1,0,0,-0.88878665,47.9055,602.9857)"
       style="font-variant:normal;font-weight:normal;font-size:4.78179979px;font-family:AdvTT5235d5a9;-inkscape-font-specification:AdvTT5235d5a9;writing-mode:lr-tb;fill:#231f20;fill-opacity:1;fill-rule:nonzero;stroke:none"
       id="text448"><tspan
         x="0"
         y="0"
         id="tspan446">a</tspan></text>
<text
       transform="matrix(1,0,0,-1,54.3118,600.1511)"
       style="font-variant:normal;font-weight:normal;font-size:6.37599993px;font-family:AdvTT5235d5a9;-inkscape-font-specification:AdvTT5235d5a9;writing-mode:lr-tb;fill:#231f20;fill-opacity:1;fill-rule:nonzero;stroke:none"
       id="text452"><tspan
         x="0 3.583312 6.6329527 8.488369 10.941854 14.116464 19.559017 21.770214 24.35887 26.475702 29.791222 32.428337 36.340012 39.987083 43.143204 45.354401 50.68346 53.998981 57.146812 62.646114 66.161201 69.412964 72.057091 75.231697 77.087112 78.803535 82.65464 87.477448 90.729202 94.394127 99.779938 103.56091 106.98035 109.64488 111.96575 114.40712 116.61832 119.93384 122.51421 126.48263 128.53569 131.92517 136.12059 138.44145 142.12996 147.06244 148.91786 152.56174 154.8826 158.06104 160.64969 163.90082 167.21634 170.87425 173.08545 174.94086 178.35776 183.80031 187.24973 189.64009 193.2234 196.84052 200.62148"
         y="0"
         sodipodi:role="line"
         id="tspan450">Pairedt-testbetweenbaselineandpost-testfortheinterventiongroup.</tspan></text>
<text
       transform="matrix(1,0,0,-0.88878665,47.9055,594.3683)"
       style="font-variant:normal;font-weight:normal;font-size:4.78179979px;font-family:AdvTT5235d5a9;-inkscape-font-specification:AdvTT5235d5a9;writing-mode:lr-tb;fill:#231f20;fill-opacity:1;fill-rule:nonzero;stroke:none"
       id="text456"><tspan
         x="0"
         y="0"
         id="tspan454">b</tspan></text>
<text
       transform="matrix(1,0,0,-1,54.6519,591.5338)"
       style="font-variant:normal;font-weight:normal;font-size:6.37599993px;font-family:AdvTT5235d5a9;-inkscape-font-specification:AdvTT5235d5a9;writing-mode:lr-tb;fill:#231f20;fill-opacity:1;fill-rule:nonzero;stroke:none"
       id="text460"><tspan
         x="0 3.4583423 6.7101026 8.3908157 10.979472 14.117102 19.502909 21.714106 24.302761 26.476339 29.650949 32.437263 36.340649 39.85574 43.171257 45.29829 50.743397 53.916092 57.090706 62.590004 66.237076 69.279701 72.066017 75.232338 77.087753 78.747429 82.598526 87.421333 90.673096 94.33802 99.780571 103.56154 106.92425 109.71056 111.85672 114.44537 116.56221 119.87772 122.51484 126.42651 128.47958 131.86906 136.12123 138.33243 142.18352 147.00633 149.9903 153.41293 157.26404 159.36557 161.95422 165.37495 168.8333 172.28271 174.72917 178.18752 181.96849 185.55754"
         y="0"
         sodipodi:role="line"
         id="tspan458">Pairedt-testbetweenbaselineandpost-testforthecontrolgroup.</tspan></text>
<text
       transform="matrix(1,0,0,-0.88878665,47.9055,585.8077)"
       style="font-variant:normal;font-weight:normal;font-size:4.78179979px;font-family:AdvTT5235d5a9;-inkscape-font-specification:AdvTT5235d5a9;writing-mode:lr-tb;fill:#231f20;fill-opacity:1;fill-rule:nonzero;stroke:none"
       id="text464"><tspan
         x="0"
         y="0"
         id="tspan462">c</tspan></text>
<text
       transform="matrix(1,0,0,-1,54.1417,582.9731)"
       style="font-variant:normal;font-weight:normal;font-size:6.37599993px;font-family:AdvTT5235d5a9;-inkscape-font-specification:AdvTT5235d5a9;writing-mode:lr-tb;fill:#231f20;fill-opacity:1;fill-rule:nonzero;stroke:none"
       id="text468"><tspan
         x="0 1.925552 5.5560465 9.3370142 12.472732 16.253698 19.389416 23.24052 26.816181 30.131701 33.789612 37.758034 39.969231 42.557888 44.731464 47.906075 50.692387 54.595776 58.110863 61.426384 63.553417 68.99852 72.171219 75.345833 80.845131 82.700546 86.344429 88.665291 91.78698 94.375641 97.682869 100.85748 104.70859 106.86686 108.72227 112.13918 117.58173 120.83349 124.49841 129.94096 132.92494 136.29083 140.14192 142.3002 144.88885 148.25284 151.71118 155.1606 157.60771 161.06606 164.84702 170.19392 173.3118 177.28021 180.92729 183.96991 186.75623 189.92255 191.77797 193.43764 197.28874 200.41107"
         y="0"
         sodipodi:role="line"
         id="tspan466">Independentt-testbetweeninterventionandcontrolgroupatbaseline.</tspan></text>
<text
       transform="matrix(1,0,0,-0.88878665,47.9055,577.2471)"
       style="font-variant:normal;font-weight:normal;font-size:4.78179979px;font-family:AdvTT5235d5a9;-inkscape-font-specification:AdvTT5235d5a9;writing-mode:lr-tb;fill:#231f20;fill-opacity:1;fill-rule:nonzero;stroke:none"
       id="text472"><tspan
         x="0"
         y="0"
         id="tspan470">d</tspan></text>
<text
       transform="matrix(1,0,0,-1,54.7086,574.4125)"
       style="font-variant:normal;font-weight:normal;font-size:6.37599993px;font-family:AdvTT5235d5a9;-inkscape-font-specification:AdvTT5235d5a9;writing-mode:lr-tb;fill:#231f20;fill-opacity:1;fill-rule:nonzero;stroke:none"
       id="text476"><tspan
         x="0 1.925552 5.612793 9.3937607 12.529478 16.310446 19.446163 23.297266 26.872927 30.188448 33.846359 37.814781 40.025978 42.614635 44.731464 48.046986 50.627991 54.596413 58.243484 61.399605 63.610802 68.939865 72.255379 75.403214 80.902512 82.757927 86.401817 88.613007 91.928528 94.339294 97.788712 100.91614 104.76724 106.92552 108.78094 112.14109 117.64039 120.75826 124.60936 129.94289 132.92685 136.34949 140.20059 142.30212 144.89078 148.31149 151.76984 155.21925 157.60962 161.19293 164.81004 170.19585 173.4476 177.33951 179.77705 183.09258 185.50334 187.8242 190.94589 193.73221 195.87837"
         y="0"
         sodipodi:role="line"
         id="tspan474">Independentt-testbetweeninterventionandcontrolgroupatre-test.</tspan></text>
<text
       transform="matrix(1,0,0,-0.88878665,47.9055,568.6865)"
       style="font-variant:normal;font-weight:normal;font-size:4.78179979px;font-family:AdvTT5235d5a9;-inkscape-font-specification:AdvTT5235d5a9;writing-mode:lr-tb;fill:#231f20;fill-opacity:1;fill-rule:nonzero;stroke:none"
       id="text480"><tspan
         x="0"
         y="0"
         id="tspan478">e</tspan></text>
<text
       transform="matrix(1,0,0,-1,54.3685,565.8518)"
       style="font-variant:normal;font-weight:normal;font-size:6.37599993px;font-family:AdvTT5235d5a9;-inkscape-font-specification:AdvTT5235d5a9;writing-mode:lr-tb;fill:#231f20;fill-opacity:1;fill-rule:nonzero;stroke:none"
       id="text484"><tspan
         x="0 4.5352488 8.1185608 11.792412 14.381068 17.972031 21.223791 23.641571 26.89333 32.542465 35.857986 37.98502 40.573677 42.237175 46.82917 49.150032 52.328468 54.993 57.204197 61.626591 64.878349 68.486526 72.267494 73.929085 75.7845 78.918304 84.304108 88.085075 91.730873 96.663345 98.874542 104.09011 106.75465 110.27419 113.44434 118.77341 122.08892 127.3912 131.17218 132.83376 135.62007 137.76624 140.35489 142.01839 145.66545 149.27554 151.48674 153.34216 156.75906 160.61017 163.22241"
         y="0"
         sodipodi:role="line"
         id="tspan482">Non-parametrictestsappliedduetoskeweddistributions.</tspan></text>
</g></svg>