<?xml version="1.0" encoding="UTF-8" standalone="no"?>
<!-- Created with Inkscape (http://www.inkscape.org/) -->

<svg
   xmlns:dc="http://purl.org/dc/elements/1.1/"
   xmlns:cc="http://creativecommons.org/ns#"
   xmlns:rdf="http://www.w3.org/1999/02/22-rdf-syntax-ns#"
   xmlns:svg="http://www.w3.org/2000/svg"
   xmlns="http://www.w3.org/2000/svg"
   xmlns:sodipodi="http://sodipodi.sourceforge.net/DTD/sodipodi-0.dtd"
   xmlns:inkscape="http://www.inkscape.org/namespaces/inkscape"
   version="1.1"
   id="svg2"
   xml:space="preserve"
   width="793.70135"
   height="1058.2679"
   viewBox="0 0 793.70135 1058.2679"
   sodipodi:docname="table5.svg"
   inkscape:version="0.92.0 r15299"><metadata
     id="metadata8"><rdf:RDF><cc:Work
         rdf:about=""><dc:format>image/svg+xml</dc:format><dc:type
           rdf:resource="http://purl.org/dc/dcmitype/StillImage" /><dc:title></dc:title></cc:Work></rdf:RDF></metadata><defs
     id="defs6" /><sodipodi:namedview
     pagecolor="#ffffff"
     bordercolor="#666666"
     borderopacity="1"
     objecttolerance="10"
     gridtolerance="10"
     guidetolerance="10"
     inkscape:pageopacity="0"
     inkscape:pageshadow="2"
     inkscape:window-width="1920"
     inkscape:window-height="988"
     id="namedview4"
     showgrid="false"
     inkscape:zoom="0.63075595"
     inkscape:cx="615.51808"
     inkscape:cy="644.22237"
     inkscape:window-x="0"
     inkscape:window-y="27"
     inkscape:window-maximized="1"
     inkscape:current-layer="g10" /><g
     id="g10"
     inkscape:groupmode="layer"
     inkscape:label="fulltext"
     transform="matrix(1.3333333,0,0,-1.3333333,0,1058.268)"><path
       d="m 33.732,149.216 h 519.08 v 0.45351 H 33.732 Z"
       style="fill:#231f20;fill-opacity:1;fill-rule:nonzero;stroke:none"
       id="path516"
       inkscape:connector-curvature="0" /><path
       d="m 33.732,75.742 h 519.08 v 0.51022 H 33.732 Z"
       style="fill:#231f20;fill-opacity:1;fill-rule:nonzero;stroke:none"
       id="path518"
       inkscape:connector-curvature="0" /><path
       d="m 33.732,123.08 h 135.383 v 0.51022 H 33.732 Z"
       style="fill:#231f20;fill-opacity:1;fill-rule:nonzero;stroke:none"
       id="path520"
       inkscape:connector-curvature="0" /><path
       d="m 169.115,136.12 h 97.058 v 0.51022 h -97.058 z"
       style="fill:#231f20;fill-opacity:1;fill-rule:nonzero;stroke:none"
       id="path522"
       inkscape:connector-curvature="0" /><path
       d="m 305.518,136.12 h 97.058 v 0.51022 h -97.058 z"
       style="fill:#231f20;fill-opacity:1;fill-rule:nonzero;stroke:none"
       id="path524"
       inkscape:connector-curvature="0" /><path
       d="m 441.921,136.12 h 104.882 v 0.51022 H 441.921 Z"
       style="fill:#231f20;fill-opacity:1;fill-rule:nonzero;stroke:none"
       id="path526"
       inkscape:connector-curvature="0" /><path
       d="M 129.713,123.08 H 253.7 v 0.51022 H 129.713 Z"
       style="fill:#231f20;fill-opacity:1;fill-rule:nonzero;stroke:none"
       id="path528"
       inkscape:connector-curvature="0" /><path
       d="m 214.356,123.08 h 91.162 v 0.51022 h -91.162 z"
       style="fill:#231f20;fill-opacity:1;fill-rule:nonzero;stroke:none"
       id="path530"
       inkscape:connector-curvature="0" /><path
       d="M 266.173,123.08 H 390.16 v 0.51022 H 266.173 Z"
       style="fill:#231f20;fill-opacity:1;fill-rule:nonzero;stroke:none"
       id="path532"
       inkscape:connector-curvature="0" /><path
       d="m 350.759,123.08 h 91.162 v 0.51022 h -91.162 z"
       style="fill:#231f20;fill-opacity:1;fill-rule:nonzero;stroke:none"
       id="path534"
       inkscape:connector-curvature="0" /><path
       d="m 402.576,123.08 h 123.987 v 0.51022 H 402.576 Z"
       style="fill:#231f20;fill-opacity:1;fill-rule:nonzero;stroke:none"
       id="path536"
       inkscape:connector-curvature="0" /><path
       d="m 487.219,123.08 h 65.594 v 0.51022 h -65.594 z"
       style="fill:#231f20;fill-opacity:1;fill-rule:nonzero;stroke:none"
       id="path538"
       inkscape:connector-curvature="0" /><text
       transform="matrix(1,0,0,-1,33.7323,163.7291)"
       style="font-variant:normal;font-weight:normal;font-size:6.37599993px;font-family:AdvTT28000ce1;-inkscape-font-specification:AdvTT28000ce1;writing-mode:lr-tb;fill:#231f20;fill-opacity:1;fill-rule:nonzero;stroke:none"
       id="text542"><tspan
         x="0 3.583312 6.8599386 10.711042 12.586224 17.575443"
         y="0"
         sodipodi:role="line"
         id="tspan540">Table5</tspan></text>
<text
       transform="matrix(1,0,0,-1,33.7323,155.16868)"
       style="font-variant:normal;font-weight:normal;font-size:6.37599993px;font-family:AdvTT5235d5a9;-inkscape-font-specification:AdvTT5235d5a9;writing-mode:lr-tb;fill:#231f20;fill-opacity:1;fill-rule:nonzero;stroke:none"
       id="text546"><tspan
         x="0 4.4440718 7.8239894 13.039557 16.291317 19.956242 23.208002 24.888716 28.338133 30.954842 32.810257 37.077717 40.661026 44.278133 47.529892 51.194817 53.406013 57.257118 59.64238 63.225693 66.842796 70.30114 76.141556 79.315529 81.526726 84.115379 85.778877 90.370872 93.954185 97.571289 99.782486 102.76646 106.18909 111.91537 115.2309 119.56913 123.2162 126.31557 128.36865 131.81488 134.40353 139.24164 142.3595 146.2106 151.54413 154.79588 156.64685 158.96771 162.14615 166.34155 168.19696 171.84085 174.05205 177.36757 179.77834 183.22775 186.35518 190.20628 192.36456 194.21997 197.58012 203.07942 205.9295 211.3 219.29359 222.94066 226.43727 230.08434 232.67363 235.73538 239.91805 241.63191 245.147 248.39876 252.06369 257.16577 263.68521 267.00073 269.58176 271.90262 275.02429 277.61295 283.01788 287.20053 290.78513 293.57144 295.71759 298.30627 301.38715 303.24255 304.90222 308.02011 311.13797 314.65305 318.30011 321.79672"
         y="0"
         sodipodi:role="line"
         id="tspan544">GEEanalysisofanthropometricoutcomesbeforeandafterintervention(n=312),AlbanyWesternAustralia,2014</tspan></text>
<text
       transform="matrix(1,0,0,-1,359.09448,155.16868)"
       style="font-variant:normal;font-weight:normal;font-size:6.37599993px;font-family:'AdvTT5235d5a9 20';-inkscape-font-specification:'AdvTT5235d5a9 20';writing-mode:lr-tb;fill:#231f20;fill-opacity:1;fill-rule:nonzero;stroke:none"
       id="text550"><tspan
         x="0"
         y="0"
         id="tspan548">–</tspan></text>
<text
       transform="matrix(1,0,0,-1,362.60957,155.16868)"
       style="font-variant:normal;font-weight:normal;font-size:6.37599993px;font-family:AdvTT5235d5a9;-inkscape-font-specification:AdvTT5235d5a9;writing-mode:lr-tb;fill:#231f20;fill-opacity:1;fill-rule:nonzero;stroke:none"
       id="text558"><tspan
         x="0 3.6470721 7.1436706 10.658759 14.305831"
         y="0"
         sodipodi:role="line"
         id="tspan552">2015.</tspan><tspan
         x="-193.49374 -189.04968 -186.46101 -182.8777 -179.09674 -175.31577 -171.43916 -169.58374 -165.73265 -163.41177 -160.09625 -157.5076 -154.05818 -150.74266 -146.89156 -144.57069 -142.71529 -139.13197 -57.088154 -53.5686 -51.713184 -45.872768 -42.557251 -38.662151 -34.881184 -31.297871 -28.511559 79.316803 83.760872 86.349533 89.932846 93.713814 99.216934 104.37576 106.69662 108.55204 114.39246"
         y="14.569798"
         sodipodi:role="line"
         id="tspan554">Group:interventionTime:postGroupxtime</tspan><tspan
         x="-193.49374 -189.71278 -186.12947 -182.81395"
         y="27.609356"
         sodipodi:role="line"
         id="tspan556">Coef</tspan></text>
<text
       transform="matrix(1,0,0,-1,181.87165,127.55933)"
       style="font-variant:normal;font-weight:normal;font-size:6.37599993px;font-family:'AdvTT5235d5a9 +fb';-inkscape-font-specification:'AdvTT5235d5a9 +fb';writing-mode:lr-tb;fill:#231f20;fill-opacity:1;fill-rule:nonzero;stroke:none"
       id="text562"><tspan
         x="0"
         y="0"
         id="tspan560">ﬁ</tspan></text>
<text
       transform="matrix(1,0,0,-1,185.78332,127.55933)"
       style="font-variant:normal;font-weight:normal;font-size:6.37599993px;font-family:AdvTT5235d5a9;-inkscape-font-specification:AdvTT5235d5a9;writing-mode:lr-tb;fill:#231f20;fill-opacity:1;fill-rule:nonzero;stroke:none"
       id="text566"><tspan
         x="0 2.983968 4.8393841 8.1549044 12.006008 15.98782 18.837893 22.153412 25.736725 67.919067"
         y="0"
         sodipodi:role="line"
         id="tspan564">cient(SE)p</tspan></text>
<text
       transform="matrix(1,0,0,-0.88878665,257.4991,130.3937)"
       style="font-variant:normal;font-weight:normal;font-size:4.78179979px;font-family:AdvTT5235d5a9;-inkscape-font-specification:AdvTT5235d5a9;writing-mode:lr-tb;fill:#2e3192;fill-opacity:1;fill-rule:nonzero;stroke:none"
       id="text570"><tspan
         x="0"
         y="0"
         id="tspan568">c</tspan></text>
<text
       transform="matrix(1,0,0,-1,305.518,127.559)"
       style="font-variant:normal;font-weight:normal;font-size:6.37599993px;font-family:AdvTT5235d5a9;-inkscape-font-specification:AdvTT5235d5a9;writing-mode:lr-tb;fill:#231f20;fill-opacity:1;fill-rule:nonzero;stroke:none"
       id="text574"><tspan
         x="0 3.780968 7.3642802 10.6798"
         y="0"
         sodipodi:role="line"
         id="tspan572">Coef</tspan></text>
<text
       transform="matrix(1,0,0,-1,318.27383,127.559)"
       style="font-variant:normal;font-weight:normal;font-size:6.37599993px;font-family:'AdvTT5235d5a9 +fb';-inkscape-font-specification:'AdvTT5235d5a9 +fb';writing-mode:lr-tb;fill:#231f20;fill-opacity:1;fill-rule:nonzero;stroke:none"
       id="text578"><tspan
         x="0"
         y="0"
         id="tspan576">ﬁ</tspan></text>
<text
       transform="matrix(1,0,0,-1,322.1855,127.559)"
       style="font-variant:normal;font-weight:normal;font-size:6.37599993px;font-family:AdvTT5235d5a9;-inkscape-font-specification:AdvTT5235d5a9;writing-mode:lr-tb;fill:#231f20;fill-opacity:1;fill-rule:nonzero;stroke:none"
       id="text582"><tspan
         x="0 2.983968 4.8393841 8.1549044 12.006008 16.044567 18.894638 22.210159 25.79347 67.975815"
         y="0"
         sodipodi:role="line"
         id="tspan580">cient(SE)p</tspan></text>
<text
       transform="matrix(1,0,0,-0.88878665,393.959,130.3937)"
       style="font-variant:normal;font-weight:normal;font-size:4.78179979px;font-family:AdvTT5235d5a9;-inkscape-font-specification:AdvTT5235d5a9;writing-mode:lr-tb;fill:#2e3192;fill-opacity:1;fill-rule:nonzero;stroke:none"
       id="text586"><tspan
         x="0"
         y="0"
         id="tspan584">c</tspan></text>
<text
       transform="matrix(1,0,0,-1,441.9211,127.559)"
       style="font-variant:normal;font-weight:normal;font-size:6.37599993px;font-family:AdvTT5235d5a9;-inkscape-font-specification:AdvTT5235d5a9;writing-mode:lr-tb;fill:#231f20;fill-opacity:1;fill-rule:nonzero;stroke:none"
       id="text590"><tspan
         x="0 3.780968 7.3642802 10.6798"
         y="0"
         sodipodi:role="line"
         id="tspan588">Coef</tspan></text>
<text
       transform="matrix(1,0,0,-1,454.73367,127.559)"
       style="font-variant:normal;font-weight:normal;font-size:6.37599993px;font-family:'AdvTT5235d5a9 +fb';-inkscape-font-specification:'AdvTT5235d5a9 +fb';writing-mode:lr-tb;fill:#231f20;fill-opacity:1;fill-rule:nonzero;stroke:none"
       id="text594"><tspan
         x="0"
         y="0"
         id="tspan592">ﬁ</tspan></text>
<text
       transform="matrix(1,0,0,-1,458.64535,127.559)"
       style="font-variant:normal;font-weight:normal;font-size:6.37599993px;font-family:AdvTT5235d5a9;-inkscape-font-specification:AdvTT5235d5a9;writing-mode:lr-tb;fill:#231f20;fill-opacity:1;fill-rule:nonzero;stroke:none"
       id="text598"><tspan
         x="0 2.983968 4.8393841 8.1549044 12.006008 15.98782 18.837893 22.153412 25.736725 67.919067"
         y="0"
         sodipodi:role="line"
         id="tspan596">cient(SE)p</tspan></text>
<text
       transform="matrix(1,0,0,-0.88878665,530.3621,130.3937)"
       style="font-variant:normal;font-weight:normal;font-size:4.78179979px;font-family:AdvTT5235d5a9;-inkscape-font-specification:AdvTT5235d5a9;writing-mode:lr-tb;fill:#2e3192;fill-opacity:1;fill-rule:nonzero;stroke:none"
       id="text602"><tspan
         x="0"
         y="0"
         id="tspan600">c</tspan></text>
<text
       transform="matrix(1,0,0,-1,39.685,114.5197)"
       style="font-variant:normal;font-weight:normal;font-size:6.37599993px;font-family:AdvTT5235d5a9;-inkscape-font-specification:AdvTT5235d5a9;writing-mode:lr-tb;fill:#231f20;fill-opacity:1;fill-rule:nonzero;stroke:none"
       id="text606"><tspan
         x="0 6.6374159 9.8891764 11.744592 14.530904 18.539495 21.523462 23.37888 25.967535 28.951504 32.732471 38.572887 40.625957 43.941479 46.530136 49.845654 53.696758 56.680729 61.74136 64.591431 67.575401 73.415817"
         y="0"
         sodipodi:role="line"
         id="tspan604">Waistcircumference(cm)</tspan></text>
<text
       transform="matrix(1,0,0,-0.88878665,115.937,117.3543)"
       style="font-variant:normal;font-weight:normal;font-size:4.78179979px;font-family:AdvTT5235d5a9;-inkscape-font-specification:AdvTT5235d5a9;writing-mode:lr-tb;fill:#2e3192;fill-opacity:1;fill-rule:nonzero;stroke:none"
       id="text610"><tspan
         x="0"
         y="0"
         id="tspan608">a</tspan></text>
<text
       transform="matrix(1,0,0,-1,169.1149,114.5197)"
       style="font-variant:normal;font-weight:normal;font-size:6.37599993px;font-family:AdvTT5235d5a9;-inkscape-font-specification:AdvTT5235d5a9;writing-mode:lr-tb;fill:#231f20;fill-opacity:1;fill-rule:nonzero;stroke:none"
       id="text614"><tspan
         x="0 3.6470721 5.1071758 8.7542477 14.060355 16.910427 20.557499 22.017603 25.664675 29.311747 84.587204 88.234276 89.694382 93.341454"
         y="0"
         sodipodi:role="line"
         id="tspan612">1.16(1.33)0.38</tspan></text>
<text
       transform="matrix(1,0,0,-1,305.51858,114.5197)"
       style="font-variant:normal;font-weight:normal;font-size:6.37599993px;font-family:'AdvTT5235d5a9 22';-inkscape-font-specification:'AdvTT5235d5a9 22';writing-mode:lr-tb;fill:#231f20;fill-opacity:1;fill-rule:nonzero;stroke:none"
       id="text618"><tspan
         x="0"
         y="0"
         id="tspan616">−</tspan></text>
<text
       transform="matrix(1,0,0,-1,312.20828,114.5197)"
       style="font-variant:normal;font-weight:normal;font-size:6.37599993px;font-family:AdvTT5235d5a9;-inkscape-font-specification:AdvTT5235d5a9;writing-mode:lr-tb;fill:#231f20;fill-opacity:1;fill-rule:nonzero;stroke:none"
       id="text622"><tspan
         x="0 3.6470721 5.1071758 8.7542477 14.060355 16.910427 20.557499 22.017603 25.664675 29.311747 77.954254 81.601326 83.061424 86.708496"
         y="0"
         sodipodi:role="line"
         id="tspan620">0.87(0.38)0.02</tspan></text>
<text
       transform="matrix(1,0,0,-1,441.92226,114.5197)"
       style="font-variant:normal;font-weight:normal;font-size:6.37599993px;font-family:'AdvTT5235d5a9 22';-inkscape-font-specification:'AdvTT5235d5a9 22';writing-mode:lr-tb;fill:#231f20;fill-opacity:1;fill-rule:nonzero;stroke:none"
       id="text626"><tspan
         x="0"
         y="0"
         id="tspan624">−</tspan></text>
<text
       transform="matrix(1,0,0,-1,448.61196,114.5197)"
       style="font-variant:normal;font-weight:normal;font-size:6.37599993px;font-family:AdvTT5235d5a9;-inkscape-font-specification:AdvTT5235d5a9;writing-mode:lr-tb;fill:#231f20;fill-opacity:1;fill-rule:nonzero;stroke:none"
       id="text632"><tspan
         x="0 3.6470721 5.1071758 8.7542477 14.117102 16.967175 20.614246 22.07435 25.721422 29.368494 82.092911 85.739983 87.200089 90.84716"
         y="0"
         sodipodi:role="line"
         id="tspan628">1.17(0.53)0.03</tspan><tspan
         x="-408.92795 -404.21609 -402.36066 -396.85181 -394.00174 -391.01776 -385.17734"
         y="8.5604172"
         sodipodi:role="line"
         id="tspan630">Hip(cm)</tspan></text>
<text
       transform="matrix(1,0,0,-0.88878665,66.2173,108.7937)"
       style="font-variant:normal;font-weight:normal;font-size:4.78179979px;font-family:AdvTT5235d5a9;-inkscape-font-specification:AdvTT5235d5a9;writing-mode:lr-tb;fill:#2e3192;fill-opacity:1;fill-rule:nonzero;stroke:none"
       id="text636"><tspan
         x="0"
         y="0"
         id="tspan634">a</tspan></text>
<text
       transform="matrix(1,0,0,-1,169.1149,105.959)"
       style="font-variant:normal;font-weight:normal;font-size:6.37599993px;font-family:AdvTT5235d5a9;-inkscape-font-specification:AdvTT5235d5a9;writing-mode:lr-tb;fill:#231f20;fill-opacity:1;fill-rule:nonzero;stroke:none"
       id="text640"><tspan
         x="0 3.6470721 5.1071758 8.7542477 14.060355 16.910427 20.557499 22.017603 25.664675 29.311747 84.587204 88.234276 89.694382 93.341454"
         y="0"
         sodipodi:role="line"
         id="tspan638">0.66(1.26)0.60</tspan></text>
<text
       transform="matrix(1,0,0,-1,305.51858,105.959)"
       style="font-variant:normal;font-weight:normal;font-size:6.37599993px;font-family:'AdvTT5235d5a9 22';-inkscape-font-specification:'AdvTT5235d5a9 22';writing-mode:lr-tb;fill:#231f20;fill-opacity:1;fill-rule:nonzero;stroke:none"
       id="text644"><tspan
         x="0"
         y="0"
         id="tspan642">−</tspan></text>
<text
       transform="matrix(1,0,0,-1,312.20828,105.959)"
       style="font-variant:normal;font-weight:normal;font-size:6.37599993px;font-family:AdvTT5235d5a9;-inkscape-font-specification:AdvTT5235d5a9;writing-mode:lr-tb;fill:#231f20;fill-opacity:1;fill-rule:nonzero;stroke:none"
       id="text648"><tspan
         x="0 3.6470721 5.1071758 8.7542477 14.060355 16.910427 20.557499 22.017603 25.664675 29.311747 77.954254 81.601326 83.061424 86.708496"
         y="0"
         sodipodi:role="line"
         id="tspan646">0.98(0.42)0.02</tspan></text>
<text
       transform="matrix(1,0,0,-1,441.92226,105.959)"
       style="font-variant:normal;font-weight:normal;font-size:6.37599993px;font-family:'AdvTT5235d5a9 22';-inkscape-font-specification:'AdvTT5235d5a9 22';writing-mode:lr-tb;fill:#231f20;fill-opacity:1;fill-rule:nonzero;stroke:none"
       id="text652"><tspan
         x="0"
         y="0"
         id="tspan650">−</tspan></text>
<text
       transform="matrix(1,0,0,-1,448.61196,105.959)"
       style="font-variant:normal;font-weight:normal;font-size:6.37599993px;font-family:AdvTT5235d5a9;-inkscape-font-specification:AdvTT5235d5a9;writing-mode:lr-tb;fill:#231f20;fill-opacity:1;fill-rule:nonzero;stroke:none"
       id="text658"><tspan
         x="0 3.6470721 5.1071758 8.7542477 14.117102 16.967175 20.614246 22.07435 25.721422 29.368494 82.092911 85.739983 87.200089 90.84716"
         y="0"
         sodipodi:role="line"
         id="tspan654">0.26(0.50)0.60</tspan><tspan
         x="-408.92795 -402.29053 -399.03876 -397.18335 -394.39703 -392.07617 -389.48752 -387.16666 -383.58334 -380.99469 -377.14359 -375.19446 -369.75189 -367.16324 -363.91147 -361.59061 -359.7352 -354.50113 -351.65106 -346.20596 -342.95419 -341.09879 -338.31247 -335.99161 -333.67075 -329.81964 -327.96423 -324.18326"
         y="8.5604172"
         sodipodi:role="line"
         id="tspan656">Waist-to-hipratio(waist/hip)</tspan></text>
<text
       transform="matrix(1,0,0,-0.88878665,127.2756,100.2331)"
       style="font-variant:normal;font-weight:normal;font-size:4.78179979px;font-family:AdvTT5235d5a9;-inkscape-font-specification:AdvTT5235d5a9;writing-mode:lr-tb;fill:#2e3192;fill-opacity:1;fill-rule:nonzero;stroke:none"
       id="text662"><tspan
         x="0"
         y="0"
         id="tspan660">a</tspan></text>
<text
       transform="matrix(1,0,0,-1,169.1149,97.3984)"
       style="font-variant:normal;font-weight:normal;font-size:6.37599993px;font-family:AdvTT5235d5a9;-inkscape-font-specification:AdvTT5235d5a9;writing-mode:lr-tb;fill:#231f20;fill-opacity:1;fill-rule:nonzero;stroke:none"
       id="text666"><tspan
         x="0 3.6470721 5.1071758 8.7542477 14.060355 16.910427 20.557499 22.017603 25.664675 29.311747 84.587204 88.234276 89.694382 93.341454 143.09465 146.74173 148.20183 151.84891 157.15501 160.00508 163.65216 165.11226 168.75932 172.4064 221.0489 224.69598 226.15608 229.80316"
         y="0"
         sodipodi:role="line"
         id="tspan664">0.01(0.01)0.340.00(0.00)0.82</tspan></text>
<text
       transform="matrix(1,0,0,-1,441.92226,97.3984)"
       style="font-variant:normal;font-weight:normal;font-size:6.37599993px;font-family:'AdvTT5235d5a9 22';-inkscape-font-specification:'AdvTT5235d5a9 22';writing-mode:lr-tb;fill:#231f20;fill-opacity:1;fill-rule:nonzero;stroke:none"
       id="text670"><tspan
         x="0"
         y="0"
         id="tspan668">−</tspan></text>
<text
       transform="matrix(1,0,0,-1,448.61196,97.3984)"
       style="font-variant:normal;font-weight:normal;font-size:6.37599993px;font-family:AdvTT5235d5a9;-inkscape-font-specification:AdvTT5235d5a9;writing-mode:lr-tb;fill:#231f20;fill-opacity:1;fill-rule:nonzero;stroke:none"
       id="text676"><tspan
         x="0 3.6470721 5.1071758 8.7542477 14.117102 16.967175 20.614246 22.07435 25.721422 29.368494 82.092911 85.739983 87.200089 90.84716"
         y="0"
         sodipodi:role="line"
         id="tspan672">0.01(0.00)0.04</tspan><tspan
         x="-408.92795 -402.29053 -398.97501 -397.1196 -393.67017 -389.81906 -385.79645 -382.94638 -379.42682 -375.97742"
         y="8.5604172"
         sodipodi:role="line"
         id="tspan674">Weight(kg)</tspan></text>
<text
       transform="matrix(1,0,0,-0.88878665,75.4582,91.6725)"
       style="font-variant:normal;font-weight:normal;font-size:4.78179979px;font-family:AdvTT5235d5a9;-inkscape-font-specification:AdvTT5235d5a9;writing-mode:lr-tb;fill:#2e3192;fill-opacity:1;fill-rule:nonzero;stroke:none"
       id="text680"><tspan
         x="0"
         y="0"
         id="tspan678">b</tspan></text>
<text
       transform="matrix(1,0,0,-1,169.1149,88.8378)"
       style="font-variant:normal;font-weight:normal;font-size:6.37599993px;font-family:AdvTT5235d5a9;-inkscape-font-specification:AdvTT5235d5a9;writing-mode:lr-tb;fill:#231f20;fill-opacity:1;fill-rule:nonzero;stroke:none"
       id="text684"><tspan
         x="0 3.6470721 5.1071758 8.7542477 14.060355 16.910427 20.557499 22.017603 25.664675 29.311747 84.587204 88.234276 89.694382 93.341454 143.09465 146.74173 148.20183 151.84891 157.15501 160.00508 163.65216 165.11226 168.75932 172.4064 221.0489 224.69598 226.15608 229.80316"
         y="0"
         sodipodi:role="line"
         id="tspan682">0.01(0.02)0.690.00(0.00)0.18</tspan></text>
<text
       transform="matrix(1,0,0,-1,441.92226,88.8378)"
       style="font-variant:normal;font-weight:normal;font-size:6.37599993px;font-family:'AdvTT5235d5a9 22';-inkscape-font-specification:'AdvTT5235d5a9 22';writing-mode:lr-tb;fill:#231f20;fill-opacity:1;fill-rule:nonzero;stroke:none"
       id="text688"><tspan
         x="0"
         y="0"
         id="tspan686">−</tspan></text>
<text
       transform="matrix(1,0,0,-1,448.61196,88.8378)"
       style="font-variant:normal;font-weight:normal;font-size:6.37599993px;font-family:AdvTT5235d5a9;-inkscape-font-specification:AdvTT5235d5a9;writing-mode:lr-tb;fill:#231f20;fill-opacity:1;fill-rule:nonzero;stroke:none"
       id="text694"><tspan
         x="0 3.6470721 5.1071758 8.7542477 14.117102 16.967175 20.614246 22.07435 25.721422 29.368494 82.092911 85.739983 87.200089 90.84716"
         y="0"
         sodipodi:role="line"
         id="tspan690">0.01(0.00)0.01</tspan><tspan
         x="-408.92795 -405.14697 -399.23642 -395.60464 -392.75458 -389.23505 -385.78561 -383.46475 -377.62433"
         y="8.5604172"
         sodipodi:role="line"
         id="tspan692">BMI(kg/m)</tspan></text>
<text
       transform="matrix(1,0,0,-0.88878665,73.8141,83.0551)"
       style="font-variant:normal;font-weight:normal;font-size:4.78179979px;font-family:AdvTT5235d5a9;-inkscape-font-specification:AdvTT5235d5a9;writing-mode:lr-tb;fill:#2e3192;fill-opacity:1;fill-rule:nonzero;stroke:none"
       id="text698"><tspan
         x="0"
         y="0"
         id="tspan696">b</tspan></text>
<text
       transform="matrix(1,0,0,-1,169.1149,80.2771)"
       style="font-variant:normal;font-weight:normal;font-size:6.37599993px;font-family:AdvTT5235d5a9;-inkscape-font-specification:AdvTT5235d5a9;writing-mode:lr-tb;fill:#231f20;fill-opacity:1;fill-rule:nonzero;stroke:none"
       id="text702"><tspan
         x="0 3.6470721 5.1071758 8.7542477 14.060355 16.910427 20.557499 22.017603 25.664675 29.311747 84.587204 88.234276 89.694382 93.341454 143.09465 146.74173 148.20183 151.84891 157.15501 160.00508 163.65216 165.11226 168.75932 172.4064 221.0489 224.69598 226.15608 229.80316"
         y="0"
         sodipodi:role="line"
         id="tspan700">0.01(0.02)0.570.00(0.00)0.16</tspan></text>
<text
       transform="matrix(1,0,0,-1,441.92226,80.2771)"
       style="font-variant:normal;font-weight:normal;font-size:6.37599993px;font-family:'AdvTT5235d5a9 22';-inkscape-font-specification:'AdvTT5235d5a9 22';writing-mode:lr-tb;fill:#231f20;fill-opacity:1;fill-rule:nonzero;stroke:none"
       id="text706"><tspan
         x="0"
         y="0"
         id="tspan704">−</tspan></text>
<text
       transform="matrix(1,0,0,-1,448.61196,80.2771)"
       style="font-variant:normal;font-weight:normal;font-size:6.37599993px;font-family:AdvTT5235d5a9;-inkscape-font-specification:AdvTT5235d5a9;writing-mode:lr-tb;fill:#231f20;fill-opacity:1;fill-rule:nonzero;stroke:none"
       id="text710"><tspan
         x="0 3.6470721 5.1071758 8.7542477 14.117102 16.967175 20.614246 22.07435 25.721422 29.368494"
         y="0"
         sodipodi:role="line"
         id="tspan708">0.01(0.00)</tspan></text>
<text
       transform="matrix(1,0,0,-1,526.56494,80.2771)"
       style="font-variant:normal;font-weight:normal;font-size:6.37599993px;font-family:AdvTT454a7a89;-inkscape-font-specification:AdvTT454a7a89;writing-mode:lr-tb;fill:#231f20;fill-opacity:1;fill-rule:nonzero;stroke:none"
       id="text714"><tspan
         x="0"
         y="0"
         id="tspan712">b</tspan></text>
<text
       transform="matrix(1,0,0,-1,530.7036,80.2771)"
       style="font-variant:normal;font-weight:normal;font-size:6.37599993px;font-family:AdvTT5235d5a9;-inkscape-font-specification:AdvTT5235d5a9;writing-mode:lr-tb;fill:#231f20;fill-opacity:1;fill-rule:nonzero;stroke:none"
       id="text718"><tspan
         x="0 3.6470721 5.1071758 8.7542477 12.40132"
         y="0"
         sodipodi:role="line"
         id="tspan716">0.001</tspan></text>
<text
       transform="matrix(1,0,0,-0.88878665,39.1181,70.0157)"
       style="font-variant:normal;font-weight:normal;font-size:4.78179979px;font-family:AdvTT5235d5a9;-inkscape-font-specification:AdvTT5235d5a9;writing-mode:lr-tb;fill:#231f20;fill-opacity:1;fill-rule:nonzero;stroke:none"
       id="text722"><tspan
         x="0"
         y="0"
         id="tspan720">a</tspan></text>
<text
       transform="matrix(1,0,0,-1,45.5244,67.1811)"
       style="font-variant:normal;font-weight:normal;font-size:6.37599993px;font-family:AdvTT5235d5a9;-inkscape-font-specification:AdvTT5235d5a9;writing-mode:lr-tb;fill:#231f20;fill-opacity:1;fill-rule:nonzero;stroke:none"
       id="text726"><tspan
         x="0 4.6481042 8.0503378 10.638993 16.270914 19.522675 22.960613 26.41003 29.537458 33.388561 36.510887 39.099545 42.12368 43.979099 45.638771 48.425083 51.591404 56.977211 60.292732 62.929844 65.141045 66.99646 72.62455 75.876312 78.010361 79.865776 83.566406 88.612373 91.927895 95.472313 99.253281 102.33225 104.54345 106.39886 109.75902 115.25832 120.9846 124.56791 128.18501 131.50053 134.87471 140.31982 142.01839 144.22958 149.72888 151.5843 155.17143 158.48695 162.14487 164.35606 166.21149 168.32449 173.42656 175.28198 176.94165 180.79276 184.14207"
         y="0"
         sodipodi:role="line"
         id="tspan724">Normalgeneralisedestimatingequationmodelwithidentitylink.</tspan></text>
<text
       transform="matrix(1,0,0,-0.88878665,39.1181,61.4551)"
       style="font-variant:normal;font-weight:normal;font-size:4.78179979px;font-family:AdvTT5235d5a9;-inkscape-font-specification:AdvTT5235d5a9;writing-mode:lr-tb;fill:#231f20;fill-opacity:1;fill-rule:nonzero;stroke:none"
       id="text730"><tspan
         x="0"
         y="0"
         id="tspan728">b</tspan></text>
<text
       transform="matrix(1,0,0,-1,45.8645,58.6205)"
       style="font-variant:normal;font-weight:normal;font-size:6.37599993px;font-family:AdvTT5235d5a9;-inkscape-font-specification:AdvTT5235d5a9;writing-mode:lr-tb;fill:#231f20;fill-opacity:1;fill-rule:nonzero;stroke:none"
       id="text734"><tspan
         x="0 4.3089008 7.5606608 13.209797 19.050213 23.868555 27.317972 30.4454 34.296505 37.418831 40.007488 43.088371 44.943787 46.603458 49.26799 52.583511 57.941898 61.116512 63.902821 66.048981 67.904404 73.589241 76.707108 79.027969 80.732277 84.583382 89.519676 92.835197 96.379616 100.16058 103.23956 105.45075 107.30617 110.72307 116.16562 122.00603 125.40699 129.18796 132.32368 135.83876 141.16783 143.02324 145.13625 150.63554 152.49097 155.90787 160.95383 162.80925 164.46892 168.32002 171.66934"
         y="0"
         sodipodi:role="line"
         id="tspan732">Gammageneralisedestimatingequationmodelwithloglink.</tspan></text>
<text
       transform="matrix(1,0,0,-0.88878665,39.1181,52.8945)"
       style="font-variant:normal;font-weight:normal;font-size:4.78179979px;font-family:AdvTT5235d5a9;-inkscape-font-specification:AdvTT5235d5a9;writing-mode:lr-tb;fill:#231f20;fill-opacity:1;fill-rule:nonzero;stroke:none"
       id="text738"><tspan
         x="0"
         y="0"
         id="tspan736">c</tspan></text>
<text
       transform="matrix(1,0,0,-1,45.3543,50.0599)"
       style="font-variant:normal;font-weight:normal;font-size:6.37599993px;font-family:AdvTT5235d5a9;-inkscape-font-specification:AdvTT5235d5a9;writing-mode:lr-tb;fill:#231f20;fill-opacity:1;fill-rule:nonzero;stroke:none"
       id="text744"><tspan
         x="0 4.1826558 7.7672434 9.6927948 13.266543 16.052855 18.199017 21.514536 26.816818 28.86989 32.259373 36.511528 39.629391 43.078808 46.206234 49.324097 52.773514 55.900944 59.752045 63.327705 66.643227 69.053993 72.115746 74.704407 77.842033 79.697449 82.774506 84.985703 86.841118 90.258018 94.109123 96.721367 100.57247 102.22067 107.60648 110.39279 112.53895 115.79071 117.92476 121.70573 124.27461 127.39248 130.70799 134.30916 138.09013 140.886 144.13777 146.27182 148.12723 151.48738 156.98668 158.8421 161.97591 165.42532 168.55211 170.40753 173.37109 176.68661 182.38548 186.16644 187.82803 191.28638 194.73579 200.41426 203.72978 207.3877 211.35611 214.02065 216.23184 219.4836 221.61765 225.39862 228.02425 231.08537 234.06934 237.49197 240.08063 245.71255 249.29587 251.72192 255.23701 257.09244 260.73633 262.59174 264.70474 268.15414 271.11136 274.3631 276.04382 279.0278 282.45041 286.30151 289.70694 293.16528 296.94626 299.34491 301.20032 304.84421 308.36377 310.06042 313.91153 317.14734 320.2652 323.38306 327.23416 332.56769 335.23224 341.07263 344.4736 347.99316 349.68918 353.54028 358.53333 361.19785 363.40906 366.6608 368.79486 372.57584 375.20145"
         y="0"
         sodipodi:role="line"
         id="tspan740">Adjustedforage,gender,relationshipstatus,educationlevel,employmentstatus,co-morbidity,alcoholdrinking,andsmokingstatus.</tspan><tspan
         x="-11.622172 -7.975101"
         y="-700.841"
         sodipodi:role="line"
         id="tspan742">20</tspan></text>
</g></svg>