<?xml version="1.0" encoding="UTF-8" standalone="no"?>
<!-- Created with Inkscape (http://www.inkscape.org/) -->

<svg
   xmlns:dc="http://purl.org/dc/elements/1.1/"
   xmlns:cc="http://creativecommons.org/ns#"
   xmlns:rdf="http://www.w3.org/1999/02/22-rdf-syntax-ns#"
   xmlns:svg="http://www.w3.org/2000/svg"
   xmlns="http://www.w3.org/2000/svg"
   xmlns:sodipodi="http://sodipodi.sourceforge.net/DTD/sodipodi-0.dtd"
   xmlns:inkscape="http://www.inkscape.org/namespaces/inkscape"
   version="1.1"
   id="svg2"
   xml:space="preserve"
   width="793.70135"
   height="1058.2679"
   viewBox="0 0 793.70135 1058.2679"
   sodipodi:docname="table1.svg"
   inkscape:version="0.92.0 r15299"><metadata
     id="metadata8"><rdf:RDF><cc:Work
         rdf:about=""><dc:format>image/svg+xml</dc:format><dc:type
           rdf:resource="http://purl.org/dc/dcmitype/StillImage" /><dc:title></dc:title></cc:Work></rdf:RDF></metadata><defs
     id="defs6" /><sodipodi:namedview
     pagecolor="#ffffff"
     bordercolor="#666666"
     borderopacity="1"
     objecttolerance="10"
     gridtolerance="10"
     guidetolerance="10"
     inkscape:pageopacity="0"
     inkscape:pageshadow="2"
     inkscape:window-width="1920"
     inkscape:window-height="988"
     id="namedview4"
     showgrid="false"
     inkscape:zoom="0.89202362"
     inkscape:cx="92.17446"
     inkscape:cy="403.18823"
     inkscape:window-x="0"
     inkscape:window-y="27"
     inkscape:window-maximized="1"
     inkscape:current-layer="g10" /><g
     id="g10"
     inkscape:groupmode="layer"
     inkscape:label="fulltext"
     transform="matrix(1.3333333,0,0,-1.3333333,0,1058.268)"><path
       d="m 33.732,304.668 h 251.036 v 0.51022 H 33.732 Z"
       style="fill:#231f20;fill-opacity:1;fill-rule:nonzero;stroke:none"
       id="path554"
       inkscape:connector-curvature="0" /><path
       d="m 33.732,67.181 h 251.036 v 0.51022 H 33.732 Z"
       style="fill:#231f20;fill-opacity:1;fill-rule:nonzero;stroke:none"
       id="path556"
       inkscape:connector-curvature="0" /><path
       d="m 33.732,291.628 h 114.123 v 0.51028 H 33.732 Z"
       style="fill:#231f20;fill-opacity:1;fill-rule:nonzero;stroke:none"
       id="path558"
       inkscape:connector-curvature="0" /><path
       d="m 141.846,291.628 h 67.068 v 0.51028 h -67.068 z"
       style="fill:#231f20;fill-opacity:1;fill-rule:nonzero;stroke:none"
       id="path560"
       inkscape:connector-curvature="0" /><path
       d="m 202.904,291.628 h 52.384 v 0.51028 h -52.384 z"
       style="fill:#231f20;fill-opacity:1;fill-rule:nonzero;stroke:none"
       id="path562"
       inkscape:connector-curvature="0" /><path
       d="m 249.279,291.628 h 35.49 v 0.51028 h -35.49 z"
       style="fill:#231f20;fill-opacity:1;fill-rule:nonzero;stroke:none"
       id="path564"
       inkscape:connector-curvature="0" /><text
       transform="matrix(1,0,0,-1,33.7323,319.2377)"
       style="font-variant:normal;font-weight:normal;font-size:6.37599993px;font-family:AdvTT28000ce1;-inkscape-font-specification:AdvTT28000ce1;writing-mode:lr-tb;fill:#231f20;fill-opacity:1;fill-rule:nonzero;stroke:none"
       id="text568"><tspan
         x="0 3.583312 6.8599386 10.711042 12.586224 17.575443"
         y="0"
         sodipodi:role="line"
         id="tspan566">Table1</tspan></text>
<text
       transform="matrix(1,0,0,-1,33.7323,310.62054)"
       style="font-variant:normal;font-weight:normal;font-size:6.37599993px;font-family:AdvTT5235d5a9;-inkscape-font-specification:AdvTT5235d5a9;writing-mode:lr-tb;fill:#231f20;fill-opacity:1;fill-rule:nonzero;stroke:none"
       id="text572"><tspan
         x="0 3.780968 6.8599386 9.5244684 12.839989 14.513689 16.369104 20.012989 25.002209 27.986177 31.635162 34.886921 37.304699 40.422565 43.406532 45.525276 48.840797 51.251564 53.106979 55.730701 57.941898 59.797318 62.590641 67.012398 70.595711 74.156067 77.937035 81.016006 83.60466 85.721497 87.576912 90.426979 92.282402 95.869537 98.987396 102.8385 104.99678 107.66131 110.77917 114.96183 116.61895 120.26602 123.30865 127.15976 132.1528 138.67226 141.98778 144.62489 146.83609 150.15161 152.56238 158.00493 162.18759 165.77217 168.55849 170.70465 173.2933 176.37419 178.2296 179.88928 183.14104 186.12564 189.77272 193.21257 196.85963"
         y="0"
         sodipodi:role="line"
         id="tspan570">Baselinecharacteristicsofparticipants,AlbanyWesternAustralia,2014</tspan></text>
<text
       transform="matrix(1,0,0,-1,234.08599,310.62054)"
       style="font-variant:normal;font-weight:normal;font-size:6.37599993px;font-family:'AdvTT5235d5a9 20';-inkscape-font-specification:'AdvTT5235d5a9 20';writing-mode:lr-tb;fill:#231f20;fill-opacity:1;fill-rule:nonzero;stroke:none"
       id="text576"><tspan
         x="0"
         y="0"
         id="tspan574">–</tspan></text>
<text
       transform="matrix(1,0,0,-1,237.65782,310.62054)"
       style="font-variant:normal;font-weight:normal;font-size:6.37599993px;font-family:AdvTT5235d5a9;-inkscape-font-specification:AdvTT5235d5a9;writing-mode:lr-tb;fill:#231f20;fill-opacity:1;fill-rule:nonzero;stroke:none"
       id="text582"><tspan
         x="0 3.5106256 7.1576977 10.668324 14.178948"
         y="0"
         sodipodi:role="line"
         id="tspan578">2015.</tspan><tspan
         x="-197.97289 -193.79024 -190.53847 -187.94981 -186.09441 -182.84264 -179.19557 -177.34015 -89.801498 -87.875946 -84.024841 -81.703979 -78.388458 -75.799797 -72.350388 -69.034866 -65.183762 -62.862896 -61.007481 -57.424168 -51.98608 -48.536663 -45.948006 -42.364693 -38.583725 -28.741095 -24.960127 -21.376816 -17.525711 -15.204847 -12.616191 -9.0328789 -5.5528584 -2.1034424 0.48521361 4.0685258 7.8494935 17.635378 23.021185 26.470602 29.722363 31.577778 35.358746"
         y="14.513689"
         sodipodi:role="line"
         id="tspan580">VariableInterventiongroupControlgrouppvalue</tspan></text>
<text
       transform="matrix(1,0,0,-0.88878665,276.3779,298.9417)"
       style="font-variant:normal;font-weight:normal;font-size:4.78179979px;font-family:AdvTT5235d5a9;-inkscape-font-specification:AdvTT5235d5a9;writing-mode:lr-tb;fill:#2e3192;fill-opacity:1;fill-rule:nonzero;stroke:none"
       id="text586"><tspan
         x="0"
         y="0"
         id="tspan584">a</tspan></text>
<text
       transform="matrix(1,0,0,-1,147.8551,283.0677)"
       style="font-variant:normal;font-weight:normal;font-size:6.37599993px;font-family:AdvTT5235d5a9;-inkscape-font-specification:AdvTT5235d5a9;writing-mode:lr-tb;fill:#231f20;fill-opacity:1;fill-rule:nonzero;stroke:none"
       id="text628"><tspan
         x="0 2.8500719 7.2565255 14.229957 17.877029 21.524101 25.171173 61.059128 63.909199 68.315651 75.232338 78.87941 82.526482 86.173553"
         y="0"
         sodipodi:role="line"
         id="tspan588">(n=151)(n=159)</tspan><tspan
         x="-108.17075 -103.9881 -100.53868 -95.527779 -92.677711 -89.228294 -85.912773 -82.661011 -80.072357 -77.286049 0.00063760002 3.6477096 7.2947817 8.7548857 14.060993 16.911064 20.558136 22.01824 25.665314 29.312386 61.060402 64.707474 68.354546 69.814651 75.120758 77.970825 81.617897 83.078003 86.725075 90.372147 107.43624 111.08331 112.54341 116.19048"
         y="8.6171637"
         sodipodi:role="line"
         id="tspan590">Age(years)60.5(5.64)61.3(5.18)0.18</tspan><tspan
         x="-108.17075 -103.72668 -100.41116 -96.560059 -92.779091 -89.46357 -86.874916 -82.941559 -80.888489 -77.572968 -71.732552 -68.480789 -66.625374 1.4754064 5.1224785 8.7695503 14.06163 16.911703 20.558775 24.205847 25.665951 29.313023 33.227886 62.478424 66.125496 69.772568 75.121391 77.971466 81.618538 85.26561 86.725716 90.372787 94.287651 107.43752 111.08459 112.54469 116.19176"
         y="17.177582"
         sodipodi:role="line"
         id="tspan592">Gender:female100(66.2%)106(66.7%)0.93</tspan><tspan
         x="-108.17075 -104.58744 -98.747025 -94.966057 -93.033493 -89.45018 -86.000763 -80.160347 -76.844826 -72.993721 -68.994698 -66.208382 -63.88752 -60.635761 -58.314896 -54.533928 107.43496 111.08203 112.54214 116.18921"
         y="25.737999"
         sodipodi:role="line"
         id="tspan594">Employmentstatus0.30</tspan><tspan
         x="-101.76414 -98.576149 -94.795181 -92.939766 -89.404907 -87.084045 -85.22863 -79.388214 5.1027126 8.7497845 14.060355 16.910427 20.557499 24.204571 25.664675 29.311747 33.226612 66.161842 69.808914 75.119484 77.969551 81.616623 85.263695 86.723801 90.370872 94.285736"
         y="34.298416"
         sodipodi:role="line"
         id="tspan596">Fulltime78(51.7%)65(40.9%)</tspan><tspan
         x="-101.76414 -98.18084 -94.929077 -92.340424 -88.327362 -86.0065 -84.151085 -78.310669 5.1033502 8.7504225 14.060993 16.911064 20.558136 24.20521 25.665314 29.312386 33.227249 66.162476 69.809547 75.120117 77.970192 81.617264 85.264336 86.724442 90.371513 94.286377"
         y="42.858833"
         sodipodi:role="line"
         id="tspan598">Parttime24(15.9%)29(18.2%)</tspan><tspan
         x="-101.76414 -97.249939 -93.398834 -90.083313 -84.242897 -80.461929 -78.606514 -75.023201 -71.573792 -68.25827 8.7886782 14.060993 16.911064 20.558136 22.01824 25.665314 29.580177 69.791061 75.120117 77.970192 81.617264 83.07737 86.724442 90.639305"
         y="51.41925"
         sodipodi:role="line"
         id="tspan600">Unemployed5(3.3%)7(4.4%)</tspan><tspan
         x="-101.76414 -97.849281 -94.533768 -92.212898 -90.357483 -87.768829 -84.453308 5.1033502 8.7504225 14.060993 16.911064 20.558136 24.20521 25.665314 29.312386 33.227249 66.162476 69.809547 75.120117 77.970192 81.617264 85.264336 86.724442 90.371513 94.286377"
         y="59.979671"
         sodipodi:role="line"
         id="tspan602">Retired44(29.1%)58(36.5%)</tspan><tspan
         x="-108.17075 -104.58744 -100.80647 -97.025505 -94.041534 -90.708801 -88.387939 -86.532524 -82.949211 107.43433 111.0814 112.5415 116.18858"
         y="68.540085"
         sodipodi:role="line"
         id="tspan604">Education0.42</tspan><tspan
         x="-101.76414 -98.18084 -95.592178 -93.736763 -87.896347 -84.644585 -82.055931 -76.931541 -74.145226 -71.161263 -67.310158 -63.726845 -60.143532 8.7893162 14.06163 16.911703 20.558775 22.018879 25.665951 29.580814 69.791695 75.120758 77.970825 81.617897 83.078003 86.725075 90.639938"
         y="77.157249"
         sodipodi:role="line"
         id="tspan606">Primaryschool3(2.0%)2(1.3%)</tspan><tspan
         x="-101.76414 -98.448631 -95.13311 -92.149139 -88.565826 -84.714722 -80.933754 -77.681999 -75.093338 -69.958107 -67.171799 -64.187828 -60.336727 -56.753414 -53.170101 5.1039882 8.7510595 14.06163 16.911703 20.558775 24.205847 25.665951 29.313023 33.227886 66.163116 69.810188 75.120758 77.970825 81.617897 85.264977 86.725075 90.372147 94.28701"
         y="85.717667"
         sodipodi:role="line"
         id="tspan608">Secondaryschool55(36.4%)72(45.0%)</tspan><tspan
         x="-101.76414 -98.244598 -94.061943 -90.87394 -87.290627 -84.969765 -80.455559 -78.600143 -74.819176 -72.963753 -69.380447 -63.540028 5.1039882 8.7510595 14.06163 16.911703 20.558775 24.205847 25.665951 29.313023 33.227886 66.163116 69.810188 75.120758 77.970825 81.617897 85.264977 86.725075 90.372147 94.28701"
         y="94.278084"
         sodipodi:role="line"
         id="tspan610">TAFE/Diploma52(34.4%)46(28.8%)</tspan><tspan
         x="-101.76414 -97.249939 -93.398834 -91.543419 -88.094002 -84.778481 -82.189827 -79.403519 -77.548103 -75.227234 5.1033502 8.7504225 14.060993 16.911064 20.558136 24.20521 25.665314 29.312386 33.227249 66.162476 69.809547 75.120117 77.970192 81.617264 85.264336 86.724442 90.371513 94.286377"
         y="102.8385"
         sodipodi:role="line"
         id="tspan612">University41(27.2%)39(24.5%)</tspan><tspan
         x="-101.76414 -97.849281 -94.533768 -92.678345 -89.42659 -87.105721 -85.250305 -81.666992 -77.815895 -75.029579 -71.178474 -69.323059 -63.891983 -61.105671 -58.784805 -55.533047 -53.212185 -49.431213 -46.644905 -42.801449 -37.356346 -35.500931 -33.180065 -27.720936 -23.939968 -20.688208 -18.09955 -15.778687 -11.927583 -8.6120634 1.4766816 5.1237535 8.7708254 14.062905 16.912977 20.560049 24.207121 25.667225 29.314297 33.22916 62.479698 66.12677 69.773842 75.122673 77.97274 81.619812 85.266884 86.72699 90.374062 94.288925 107.43879 111.08586 112.54597 116.19304"
         y="111.39892"
         sodipodi:role="line"
         id="tspan614">Relationshipstatus:withpartner124(82.1%)129(81.1%)0.81</tspan><tspan
         x="-108.17075 -104.85523 -99.014816 -95.357544 -91.83799 -89.982574 -86.13147 -81.014091 -78.227783 -75.906921 -72.655159 -70.334297 -66.553322 107.43433 111.0814 112.5415 116.18858"
         y="119.95934"
         sodipodi:role="line"
         id="tspan616">Smokingstatus0.85</tspan><tspan
         x="-101.76414 -97.116043 -93.800522 -90.351105 -87.035591 5.1033502 8.7504225 14.060993 16.911064 20.558136 24.20521 25.665314 29.312386 33.227249 66.162476 69.809547 75.120117 77.970192 81.617264 85.264336 86.724442 90.371513 94.286377"
         y="128.51976"
         sodipodi:role="line"
         id="tspan618">Never84(55.6%)84(52.8%)</tspan><tspan
         x="-101.76414 -98.18084 -94.661285 -92.072624 -89.286316 -83.4459 -79.862587 -76.343033 -73.027519 5.1033502 8.7504225 14.060993 16.911064 20.558136 24.20521 25.665314 29.312386 33.227249 66.162476 69.809547 75.120117 77.970192 81.617264 85.264336 86.724442 90.371513 94.286377"
         y="137.08017"
         sodipodi:role="line"
         id="tspan620">Ex-smoker52(34.4%)54(33.8%)</tspan><tspan
         x="-101.76414 -97.249939 -94.265968 -91.282005 -88.030243 -85.243935 -83.388519 -79.805206 -75.954102 -72.702339 -69.164299 -66.377983 -60.537571 -56.954258 -53.434704 -50.119186 8.7893162 14.06163 16.911703 20.558775 22.018879 25.665951 29.580814 69.791695 75.120758 77.970825 81.617897 83.078003 86.725075 90.639938"
         y="145.69734"
         sodipodi:role="line"
         id="tspan622">Occasionalsmoker3(2.0%)4(2.5%)</tspan><tspan
         x="-101.76414 -97.249939 -93.998177 -92.142761 -90.287346 -85.152756 -82.36644 -76.526024 -72.942719 -69.423164 -66.107643 5.1033502 8.7504225 14.060993 16.911064 20.558136 22.01824 25.665314 29.580177 66.162476 69.809547 75.120117 77.970192 81.617264 85.264336 86.724442 90.371513 94.286377"
         y="154.25777"
         sodipodi:role="line"
         id="tspan624">Dailysmoker12(7.9%)17(10.6%)</tspan><tspan
         x="-101.76414 -97.983177 -94.399864 -91.811211 -85.970795 -82.387482 -79.798828 -76.151756 -74.296341 -70.515373 -68.659958 -66.339088"
         y="162.81818"
         sodipodi:role="line"
         id="tspan626">Co-morbidity</tspan></text>
<text
       transform="matrix(1,0,0,-0.88878665,85.0393,123.0803)"
       style="font-variant:normal;font-weight:normal;font-size:4.78179979px;font-family:AdvTT5235d5a9;-inkscape-font-specification:AdvTT5235d5a9;writing-mode:lr-tb;fill:#2e3192;fill-opacity:1;fill-rule:nonzero;stroke:none"
       id="text632"><tspan
         x="0"
         y="0"
         id="tspan630">b</tspan></text>
<text
       transform="matrix(1,0,0,-1,87.7606,120.2456)"
       style="font-variant:normal;font-weight:normal;font-size:6.37599993px;font-family:AdvTT5235d5a9;-inkscape-font-specification:AdvTT5235d5a9;writing-mode:lr-tb;fill:#231f20;fill-opacity:1;fill-rule:nonzero;stroke:none"
       id="text646"><tspan
         x="0 3.8549297 7.3043456 10.619865 65.197151 68.844223 74.154793 77.004868 80.651939 84.299011 85.759109 89.406181 93.321053 122.57159 126.21866 129.86574 135.21455 138.06464 141.7117 145.35878 146.81888 150.46594 154.38081 167.53067 171.17775 172.63785 176.28493"
         y="0"
         sodipodi:role="line"
         id="tspan634">:yes92(60.9%)104(65.4%)0.41</tspan><tspan
         x="-41.669712 -37.487053 -35.631638 -32.647671 -29.064358 -25.213255 -21.629942 -18.084887 -14.303919 -11.715262 -9.8598461 -6.0087423 -2.4891903 -0.6337744 3.2173295 6.6667457 10.545904 13.99532 17.310841 65.198425 68.845497 74.156067 77.006142 80.653214 84.300285 85.760391 89.407463 93.322327 122.57286 126.21993 129.867 135.21584 138.0659 141.71298 145.36005 146.82014 150.46722 154.3821 167.53195 171.17902 172.63913 176.28619"
         y="8.5604172"
         sodipodi:role="line"
         id="tspan636">Alcoholdrinking:yes99(65.6%)113(71.1%)0.96</tspan><tspan
         x="60.094437 65.593735 73.644073 77.291145 80.938217 121.15292 126.65223 134.70256 138.34964 141.9967"
         y="22.84712"
         sodipodi:role="line"
         id="tspan638">n=130n=144</tspan><tspan
         x="-48.076317 -42.165764 -38.850243 -36.529381 -33.277618 -29.630547 -25.964985 -24.10957 -22.254152 -17.630915 -14.844604 -11.395187 -7.5440831 -3.7631152 -1.1744592 2.4088528 8.2492685 13.267818 16.054131 18.374994 21.626755 23.947618 27.728586 167.53067 171.17775 172.63785 176.28493"
         y="31.407537"
         sodipodi:role="line"
         id="tspan640">Metabolicsyndromestatus0.66</tspan><tspan
         x="-41.669712 -35.759159 -32.443638 -30.122774 -26.871014 -23.223942 -19.640631 -17.785213 -15.929798 -11.224311 -8.4379988 -4.9885826 -1.1374784 2.6434896 5.2321458 8.8154573 14.655873 65.199066 68.846138 74.156708 77.006775 80.653847 84.300919 85.761024 89.408096 93.32296 126.25819 129.90526 135.21584 138.0659 141.71298 145.36005 146.82014 150.46722 154.3821"
         y="39.967957"
         sodipodi:role="line"
         id="tspan642">Metabolicsyndrome66(50.8%)77(46.5%)</tspan><tspan
         x="-41.669712 -37.487053 -33.505878 -30.917225 -29.061808 -26.275496 65.197151 68.844223 74.154793 77.004868 80.651939 84.299011 85.759109 89.406181 93.321053 126.25628 129.90335 135.21391 138.064 141.71106 145.35814 146.81824 150.46532 154.38017"
         y="48.585121"
         sodipodi:role="line"
         id="tspan644">Atrisk64(49.2%)67(46.5%)</tspan></text>
<text
       transform="matrix(1,0,0,-0.88878665,39.1181,61.4551)"
       style="font-variant:normal;font-weight:normal;font-size:4.78179979px;font-family:AdvTT5235d5a9;-inkscape-font-specification:AdvTT5235d5a9;writing-mode:lr-tb;fill:#231f20;fill-opacity:1;fill-rule:nonzero;stroke:none"
       id="text650"><tspan
         x="0"
         y="0"
         id="tspan648">a</tspan></text>
<text
       transform="matrix(1,0,0,-1,45.5244,58.6205)"
       style="font-variant:normal;font-weight:normal;font-size:6.37599993px;font-family:AdvTT5235d5a9;-inkscape-font-specification:AdvTT5235d5a9;writing-mode:lr-tb;fill:#231f20;fill-opacity:1;fill-rule:nonzero;stroke:none"
       id="text654"><tspan
         x="0 2.320864 4.7054882 8.2250404 11.395187 14.059717 18.028139 21.486483 25.738636 28.722605 32.37159 35.829933 38.616245 42.17979 45.960758 48.982983 51.57164 56.466492 58.677689 61.99321 64.574219 68.542641 72.189713 75.289085 77.609947 82.886086 86.201607 89.349442 94.791992 96.647408 100.34804 102.55923 105.87476 108.28552 111.73494 114.86237 118.71347 120.81499 122.67042 126.08731 131.58661 134.70448 138.55559 143.8891 146.87308 150.23897 154.09007 156.24834 158.83701 162.20097 165.71606 169.16548 171.55585 175.13916 178.75626 182.53723 185.10612"
         y="0"
         sodipodi:role="line"
         id="tspan652">t-Testorchisquaretestbetweeninterventionandcontrolgroups.</tspan></text>
<text
       transform="matrix(1,0,0,-0.88878665,39.1181,52.8945)"
       style="font-variant:normal;font-weight:normal;font-size:4.78179979px;font-family:AdvTT5235d5a9;-inkscape-font-specification:AdvTT5235d5a9;writing-mode:lr-tb;fill:#231f20;fill-opacity:1;fill-rule:nonzero;stroke:none"
       id="text658"><tspan
         x="0"
         y="0"
         id="tspan656">b</tspan></text>
<text
       transform="matrix(1,0,0,-1,45.8645,50.0599)"
       style="font-variant:normal;font-weight:normal;font-size:6.37599993px;font-family:AdvTT5235d5a9;-inkscape-font-specification:AdvTT5235d5a9;writing-mode:lr-tb;fill:#231f20;fill-opacity:1;fill-rule:nonzero;stroke:none"
       id="text664"><tspan
         x="0 3.4583423 6.0469985 9.1846275 11.849158 15.164679 18.82259 21.806557 26.703325 30.161669 33.846996 37.098755 40.933922 42.789337 45.923141 49.1749 51.819664 55.731342 59.314651 62.988503 67.920975 71.504288 75.121391 80.393707 83.377678 86.743568 92.583984 98.252251 101.83556 107.20989 111.061 114.18332 117.43508 119.11579 121.32699 126.82629 130.60725 133.00591 136.58922 140.03609 141.89151 145.02531 150.86572 153.47287"
         y="0"
         sodipodi:role="line"
         id="tspan660">Presenceofatleastoneof8commonhealthproblems.</tspan><tspan
         x="-12.132253 -8.4851809"
         y="-700.841"
         sodipodi:role="line"
         id="tspan662">18</tspan></text>
</g></svg>