<?xml version="1.0" encoding="UTF-8" standalone="no"?>
<!-- Created with Inkscape (http://www.inkscape.org/) -->

<svg
   xmlns:dc="http://purl.org/dc/elements/1.1/"
   xmlns:cc="http://creativecommons.org/ns#"
   xmlns:rdf="http://www.w3.org/1999/02/22-rdf-syntax-ns#"
   xmlns:svg="http://www.w3.org/2000/svg"
   xmlns="http://www.w3.org/2000/svg"
   xmlns:sodipodi="http://sodipodi.sourceforge.net/DTD/sodipodi-0.dtd"
   xmlns:inkscape="http://www.inkscape.org/namespaces/inkscape"
   version="1.1"
   id="svg2"
   xml:space="preserve"
   width="793.70135"
   height="1058.2679"
   viewBox="0 0 793.70135 1058.2679"
   sodipodi:docname="table3.svg"
   inkscape:version="0.92.0 r15299"><metadata
     id="metadata8"><rdf:RDF><cc:Work
         rdf:about=""><dc:format>image/svg+xml</dc:format><dc:type
           rdf:resource="http://purl.org/dc/dcmitype/StillImage" /><dc:title></dc:title></cc:Work></rdf:RDF></metadata><defs
     id="defs6" /><sodipodi:namedview
     pagecolor="#ffffff"
     bordercolor="#666666"
     borderopacity="1"
     objecttolerance="10"
     gridtolerance="10"
     guidetolerance="10"
     inkscape:pageopacity="0"
     inkscape:pageshadow="2"
     inkscape:window-width="1920"
     inkscape:window-height="988"
     id="namedview4"
     showgrid="false"
     inkscape:zoom="1.2615119"
     inkscape:cx="316.56051"
     inkscape:cy="39.49465"
     inkscape:window-x="0"
     inkscape:window-y="27"
     inkscape:window-maximized="1"
     inkscape:current-layer="g10" /><g
     id="g10"
     inkscape:groupmode="layer"
     inkscape:label="fulltext"
     transform="matrix(1.3333333,0,0,-1.3333333,0,1058.268)"><path
       d="M 42.52,183.458 H 561.6 v 0.51024 H 42.52 Z"
       style="fill:#231f20;fill-opacity:1;fill-rule:nonzero;stroke:none"
       id="path486"
       inkscape:connector-curvature="0" /><path
       d="M 42.52,75.742 H 561.6 v 0.51022 H 42.52 Z"
       style="fill:#231f20;fill-opacity:1;fill-rule:nonzero;stroke:none"
       id="path488"
       inkscape:connector-curvature="0" /><path
       d="m 42.52,157.379 h 116.391 v 0.45358 H 42.52 Z"
       style="fill:#231f20;fill-opacity:1;fill-rule:nonzero;stroke:none"
       id="path490"
       inkscape:connector-curvature="0" /><path
       d="m 158.91,170.419 h 102.387 v 0.51024 H 158.91 Z"
       style="fill:#231f20;fill-opacity:1;fill-rule:nonzero;stroke:none"
       id="path492"
       inkscape:connector-curvature="0" /><path
       d="m 306.028,170.419 h 102.444 v 0.51024 H 306.028 Z"
       style="fill:#231f20;fill-opacity:1;fill-rule:nonzero;stroke:none"
       id="path494"
       inkscape:connector-curvature="0" /><path
       d="M 453.203,170.419 H 555.59 v 0.51024 H 453.203 Z"
       style="fill:#231f20;fill-opacity:1;fill-rule:nonzero;stroke:none"
       id="path496"
       inkscape:connector-curvature="0" /><path
       d="m 114.18,157.379 h 134.702 v 0.45358 H 114.18 Z"
       style="fill:#231f20;fill-opacity:1;fill-rule:nonzero;stroke:none"
       id="path498"
       inkscape:connector-curvature="0" /><path
       d="m 204.151,157.379 h 101.877 v 0.45358 H 204.151 Z"
       style="fill:#231f20;fill-opacity:1;fill-rule:nonzero;stroke:none"
       id="path500"
       inkscape:connector-curvature="0" /><path
       d="M 261.298,157.379 H 396 v 0.45358 H 261.298 Z"
       style="fill:#231f20;fill-opacity:1;fill-rule:nonzero;stroke:none"
       id="path502"
       inkscape:connector-curvature="0" /><path
       d="m 351.269,157.379 h 101.934 v 0.45358 H 351.269 Z"
       style="fill:#231f20;fill-opacity:1;fill-rule:nonzero;stroke:none"
       id="path504"
       inkscape:connector-curvature="0" /><path
       d="m 408.472,157.379 h 134.702 v 0.45358 H 408.472 Z"
       style="fill:#231f20;fill-opacity:1;fill-rule:nonzero;stroke:none"
       id="path506"
       inkscape:connector-curvature="0" /><path
       d="M 498.444,157.379 H 561.6 v 0.45358 h -63.156 z"
       style="fill:#231f20;fill-opacity:1;fill-rule:nonzero;stroke:none"
       id="path508"
       inkscape:connector-curvature="0" /><text
       transform="matrix(1,0,0,-1,42.5197,198.0283)"
       style="font-variant:normal;font-weight:normal;font-size:6.37599993px;font-family:AdvTT28000ce1;-inkscape-font-specification:AdvTT28000ce1;writing-mode:lr-tb;fill:#231f20;fill-opacity:1;fill-rule:nonzero;stroke:none"
       id="text512"><tspan
         x="0 3.583312 6.8599386 10.711042 12.586224 17.575443"
         y="0"
         sodipodi:role="line"
         id="tspan510">Table3</tspan></text>
<text
       transform="matrix(1,0,0,-1,42.5197,189.46788)"
       style="font-variant:normal;font-weight:normal;font-size:6.37599993px;font-family:AdvTT5235d5a9;-inkscape-font-specification:AdvTT5235d5a9;writing-mode:lr-tb;fill:#231f20;fill-opacity:1;fill-rule:nonzero;stroke:none"
       id="text516"><tspan
         x="0 4.4440718 7.8239894 13.039557 16.291317 19.956242 23.208002 24.888716 28.338133 30.954842 32.810257 37.077717 40.661026 44.278133 50.004417 53.319939 55.446972 58.69873 62.193417 65.651756 67.507172 69.223595 73.81559 76.480118 79.929535 83.623787 87.404755 89.803413 93.261749 99.102165 103.97726 107.75822 110.8372 113.42585 116.44999 122.29041 125.46438 127.67558 130.99109 133.40186 137.82425 140.94212 144.79323 150.12674 153.11072 156.19287 158.78152 162.3725 164.22791 167.58806 171.03748 174.10815 176.89447 179.72095 183.50192 185.1635 188.28137 192.53352 195.12218 196.78568 199.45021 204.60902 206.66209 209.71175 212.69571 214.81445 218.39777 220.82384 225.24559 228.89265 231.99203 234.0451 237.49133 239.92888 244.91811 248.03596 251.88707 257.22058 260.47235 262.3233 264.64417 267.76587 272.01801 273.87344 277.5173 279.72852 283.04404 285.4548 288.90421 292.03165 295.88275 298.04102 299.89642 303.25659 308.75589 311.60596 316.97647 324.97006 328.61713 332.11374 335.62881 338.41513 341.41183 345.59451 347.25162 350.89868 353.99808 357.84918 362.84222 369.36169 372.67719 375.25821 377.46939 380.78491 383.19568 388.69498 392.87766 396.46222 399.24854 401.39471 403.98337 407.00751 408.86292 410.57935 413.6972 416.81506 420.33014 423.97021 427.4668"
         y="0"
         sodipodi:role="line"
         id="tspan514">GEEanalysisofmetabolicsyndromeparametersandcardiovascularriskfactorsbeforeandafterintervention(n=274),AlbanyWesternAustralia,2014</tspan></text>
<text
       transform="matrix(1,0,0,-1,473.50159,189.46788)"
       style="font-variant:normal;font-weight:normal;font-size:6.37599993px;font-family:'AdvTT5235d5a9 20';-inkscape-font-specification:'AdvTT5235d5a9 20';writing-mode:lr-tb;fill:#231f20;fill-opacity:1;fill-rule:nonzero;stroke:none"
       id="text520"><tspan
         x="0"
         y="0"
         id="tspan518">–</tspan></text>
<text
       transform="matrix(1,0,0,-1,477.07343,189.46788)"
       style="font-variant:normal;font-weight:normal;font-size:6.37599993px;font-family:AdvTT5235d5a9;-inkscape-font-specification:AdvTT5235d5a9;writing-mode:lr-tb;fill:#231f20;fill-opacity:1;fill-rule:nonzero;stroke:none"
       id="text528"><tspan
         x="0 3.6470721 7.1436706 10.658759 14.305831"
         y="0"
         sodipodi:role="line"
         id="tspan522">2015.</tspan><tspan
         x="-318.16241 -313.71832 -311.12967 -307.54636 -303.76538 -299.98444 -296.10782 -294.25241 -290.40131 -288.08044 -284.76492 -282.17627 -278.72684 -275.41132 -271.56021 -269.23935 -267.38394 -263.80063 -171.04131 -167.52174 -165.66634 -159.82591 -156.51039 -152.6153 -148.83434 -145.25102 -142.46471 -23.864731 -19.420658 -16.832003 -13.248691 -9.4677219 -5.6867542 -3.3658905 -1.5104744 4.3299417"
         y="14.570435"
         sodipodi:role="line"
         id="tspan524">Group:interventionTime:postGrouptime</tspan><tspan
         x="-318.16241 -314.38144 -310.79813 -307.4826"
         y="27.609993"
         sodipodi:role="line"
         id="tspan526">Coef</tspan></text>
<text
       transform="matrix(1,0,0,-1,171.66686,161.85789)"
       style="font-variant:normal;font-weight:normal;font-size:6.37599993px;font-family:'AdvTT5235d5a9 +fb';-inkscape-font-specification:'AdvTT5235d5a9 +fb';writing-mode:lr-tb;fill:#231f20;fill-opacity:1;fill-rule:nonzero;stroke:none"
       id="text532"><tspan
         x="0"
         y="0"
         id="tspan530">ﬁ</tspan></text>
<text
       transform="matrix(1,0,0,-1,175.57853,161.85789)"
       style="font-variant:normal;font-weight:normal;font-size:6.37599993px;font-family:AdvTT5235d5a9;-inkscape-font-specification:AdvTT5235d5a9;writing-mode:lr-tb;fill:#231f20;fill-opacity:1;fill-rule:nonzero;stroke:none"
       id="text536"><tspan
         x="0 2.983968 4.8393841 8.1549044 12.006008 15.98782 18.837893 22.153412 25.736725 73.304871"
         y="0"
         sodipodi:role="line"
         id="tspan534">cient(SE)p</tspan></text>
<text
       transform="matrix(1,0,0,-1,252.68159,163.72861)"
       style="font-variant:normal;font-weight:normal;font-size:6.37599993px;font-family:'AdvTT5235d5a9 20';-inkscape-font-specification:'AdvTT5235d5a9 20';writing-mode:lr-tb;fill:#2e3192;fill-opacity:1;fill-rule:nonzero;stroke:none"
       id="text540"><tspan
         x="0"
         y="0"
         id="tspan538">⁎</tspan></text>
<text
       transform="matrix(1,0,0,-1,306.03022,161.85789)"
       style="font-variant:normal;font-weight:normal;font-size:6.37599993px;font-family:AdvTT5235d5a9;-inkscape-font-specification:AdvTT5235d5a9;writing-mode:lr-tb;fill:#231f20;fill-opacity:1;fill-rule:nonzero;stroke:none"
       id="text544"><tspan
         x="0 3.780968 7.3642802 10.6798"
         y="0"
         sodipodi:role="line"
         id="tspan542">Coef</tspan></text>
<text
       transform="matrix(1,0,0,-1,318.78604,161.85789)"
       style="font-variant:normal;font-weight:normal;font-size:6.37599993px;font-family:'AdvTT5235d5a9 +fb';-inkscape-font-specification:'AdvTT5235d5a9 +fb';writing-mode:lr-tb;fill:#231f20;fill-opacity:1;fill-rule:nonzero;stroke:none"
       id="text548"><tspan
         x="0"
         y="0"
         id="tspan546">ﬁ</tspan></text>
<text
       transform="matrix(1,0,0,-1,322.69772,161.85789)"
       style="font-variant:normal;font-weight:normal;font-size:6.37599993px;font-family:AdvTT5235d5a9;-inkscape-font-specification:AdvTT5235d5a9;writing-mode:lr-tb;fill:#231f20;fill-opacity:1;fill-rule:nonzero;stroke:none"
       id="text552"><tspan
         x="0 2.983968 4.8393841 8.1549044 12.006008 16.044567 18.894638 22.210159 25.79347 73.304871"
         y="0"
         sodipodi:role="line"
         id="tspan550">cient(SE)p</tspan></text>
<text
       transform="matrix(1,0,0,-1,399.80014,163.72861)"
       style="font-variant:normal;font-weight:normal;font-size:6.37599993px;font-family:'AdvTT5235d5a9 20';-inkscape-font-specification:'AdvTT5235d5a9 20';writing-mode:lr-tb;fill:#2e3192;fill-opacity:1;fill-rule:nonzero;stroke:none"
       id="text556"><tspan
         x="0"
         y="0"
         id="tspan554">⁎</tspan></text>
<text
       transform="matrix(1,0,0,-1,453.20487,161.85789)"
       style="font-variant:normal;font-weight:normal;font-size:6.37599993px;font-family:AdvTT5235d5a9;-inkscape-font-specification:AdvTT5235d5a9;writing-mode:lr-tb;fill:#231f20;fill-opacity:1;fill-rule:nonzero;stroke:none"
       id="text560"><tspan
         x="0 3.780968 7.3642802 10.6798"
         y="0"
         sodipodi:role="line"
         id="tspan558">Coef</tspan></text>
<text
       transform="matrix(1,0,0,-1,465.9607,161.85789)"
       style="font-variant:normal;font-weight:normal;font-size:6.37599993px;font-family:'AdvTT5235d5a9 +fb';-inkscape-font-specification:'AdvTT5235d5a9 +fb';writing-mode:lr-tb;fill:#231f20;fill-opacity:1;fill-rule:nonzero;stroke:none"
       id="text564"><tspan
         x="0"
         y="0"
         id="tspan562">ﬁ</tspan></text>
<text
       transform="matrix(1,0,0,-1,469.87238,161.85789)"
       style="font-variant:normal;font-weight:normal;font-size:6.37599993px;font-family:AdvTT5235d5a9;-inkscape-font-specification:AdvTT5235d5a9;writing-mode:lr-tb;fill:#231f20;fill-opacity:1;fill-rule:nonzero;stroke:none"
       id="text568"><tspan
         x="0 2.983968 4.8393841 8.1549044 12.006008 15.98782 18.837893 22.153412 25.736725 73.304871"
         y="0"
         sodipodi:role="line"
         id="tspan566">cient(SE)p</tspan></text>
<text
       transform="matrix(1,0,0,-1,546.97543,163.72861)"
       style="font-variant:normal;font-weight:normal;font-size:6.37599993px;font-family:'AdvTT5235d5a9 20';-inkscape-font-specification:'AdvTT5235d5a9 20';writing-mode:lr-tb;fill:#2e3192;fill-opacity:1;fill-rule:nonzero;stroke:none"
       id="text572"><tspan
         x="0"
         y="0"
         id="tspan570">⁎</tspan></text>
<text
       transform="matrix(1,0,0,-1,48.472334,148.81833)"
       style="font-variant:normal;font-weight:normal;font-size:6.37599993px;font-family:AdvTT5235d5a9;-inkscape-font-specification:AdvTT5235d5a9;writing-mode:lr-tb;fill:#231f20;fill-opacity:1;fill-rule:nonzero;stroke:none"
       id="text576"><tspan
         x="0 3.519552 6.1082082 7.963624 11.41304 13.268456 16.717873 19.78664 23.102161 25.690817 27.546232 31.3272 34.642719 39.119312 41.969383 47.809799 53.720352"
         y="0"
         sodipodi:role="line"
         id="tspan574">Triglycerides(mM)</tspan></text>
<text
       transform="matrix(1,0,0,-0.88878665,104.9953,151.6535)"
       style="font-variant:normal;font-weight:normal;font-size:4.78179979px;font-family:AdvTT5235d5a9;-inkscape-font-specification:AdvTT5235d5a9;writing-mode:lr-tb;fill:#2e3192;fill-opacity:1;fill-rule:nonzero;stroke:none"
       id="text580"><tspan
         x="0"
         y="0"
         id="tspan578">a</tspan></text>
<text
       transform="matrix(1,0,0,-1,165.6,148.8189)"
       style="font-variant:normal;font-weight:normal;font-size:6.37599993px;font-family:AdvTT5235d5a9;-inkscape-font-specification:AdvTT5235d5a9;writing-mode:lr-tb;fill:#231f20;fill-opacity:1;fill-rule:nonzero;stroke:none"
       id="text584"><tspan
         x="0 3.6470721 5.1071758 8.7542477 14.060355 16.910427 20.557499 22.017603 25.664675 29.311747 83.28331 86.930382 88.390488 92.03756 147.12047 150.76753 152.22763 155.87471 161.18082 164.03088 167.67796 169.13806 172.78514 176.43221 230.40378 234.05084 235.51096 239.15802"
         y="0"
         sodipodi:role="line"
         id="tspan582">0.08(0.05)0.140.07(0.03)0.02</tspan></text>
<text
       transform="matrix(1,0,0,-1,453.20478,148.8189)"
       style="font-variant:normal;font-weight:normal;font-size:6.37599993px;font-family:'AdvTT5235d5a9 22';-inkscape-font-specification:'AdvTT5235d5a9 22';writing-mode:lr-tb;fill:#231f20;fill-opacity:1;fill-rule:nonzero;stroke:none"
       id="text588"><tspan
         x="0"
         y="0"
         id="tspan586">−</tspan></text>
<text
       transform="matrix(1,0,0,-1,459.83774,148.8189)"
       style="font-variant:normal;font-weight:normal;font-size:6.37599993px;font-family:AdvTT5235d5a9;-inkscape-font-specification:AdvTT5235d5a9;writing-mode:lr-tb;fill:#231f20;fill-opacity:1;fill-rule:nonzero;stroke:none"
       id="text594"><tspan
         x="0 3.6470721 5.1071758 8.7542477 14.117102 16.967175 20.614246 22.07435 25.721422 29.368494 83.340057 86.987129 88.447235 92.094307"
         y="0"
         sodipodi:role="line"
         id="tspan590">0.13(0.04)0.01</tspan><tspan
         x="-411.36548 -406.92142 -405.06601 -401.28503 -398.30106 -394.71774 -391.93146 -386.87335 -384.02328 -378.18286 -372.27234"
         y="8.6171637"
         sodipodi:role="line"
         id="tspan592">Glucose(mM)</tspan></text>
<text
       transform="matrix(1,0,0,-0.88878665,90.3685,143.0362)"
       style="font-variant:normal;font-weight:normal;font-size:4.78179979px;font-family:AdvTT5235d5a9;-inkscape-font-specification:AdvTT5235d5a9;writing-mode:lr-tb;fill:#2e3192;fill-opacity:1;fill-rule:nonzero;stroke:none"
       id="text598"><tspan
         x="0"
         y="0"
         id="tspan596">b</tspan></text>
<text
       transform="matrix(1,0,0,-1,158.9102,140.2016)"
       style="font-variant:normal;font-weight:normal;font-size:6.37599993px;font-family:'AdvTT5235d5a9 22';-inkscape-font-specification:'AdvTT5235d5a9 22';writing-mode:lr-tb;fill:#231f20;fill-opacity:1;fill-rule:nonzero;stroke:none"
       id="text602"><tspan
         x="0"
         y="0"
         id="tspan600">−</tspan></text>
<text
       transform="matrix(1,0,0,-1,165.5999,140.2016)"
       style="font-variant:normal;font-weight:normal;font-size:6.37599993px;font-family:AdvTT5235d5a9;-inkscape-font-specification:AdvTT5235d5a9;writing-mode:lr-tb;fill:#231f20;fill-opacity:1;fill-rule:nonzero;stroke:none"
       id="text606"><tspan
         x="0 3.6470721 5.1071758 8.7542477 14.060355 16.910427 20.557499 22.017603 25.664675 29.311747 83.28331 86.930382 88.390488 92.03756 147.12047 150.76753 152.22763 155.87471 161.18082 164.03088 167.67796 169.13806 172.78514 176.43221 230.40378 234.05084 235.51096 239.15802"
         y="0"
         sodipodi:role="line"
         id="tspan604">0.04(0.06)0.540.06(0.04)0.08</tspan></text>
<text
       transform="matrix(1,0,0,-1,453.20468,140.2016)"
       style="font-variant:normal;font-weight:normal;font-size:6.37599993px;font-family:'AdvTT5235d5a9 22';-inkscape-font-specification:'AdvTT5235d5a9 22';writing-mode:lr-tb;fill:#231f20;fill-opacity:1;fill-rule:nonzero;stroke:none"
       id="text610"><tspan
         x="0"
         y="0"
         id="tspan608">−</tspan></text>
<text
       transform="matrix(1,0,0,-1,459.83763,140.2016)"
       style="font-variant:normal;font-weight:normal;font-size:6.37599993px;font-family:AdvTT5235d5a9;-inkscape-font-specification:AdvTT5235d5a9;writing-mode:lr-tb;fill:#231f20;fill-opacity:1;fill-rule:nonzero;stroke:none"
       id="text616"><tspan
         x="0 3.6470721 5.1071758 8.7542477 14.117102 16.967175 20.614246 22.07435 25.721422 29.368494 83.340057 86.987129 88.447235 92.094307"
         y="0"
         sodipodi:role="line"
         id="tspan612">0.01(0.05)0.79</tspan><tspan
         x="-411.36548 -406.65363 -402.13943 -397.30515 -394.32117 -390.47006 -386.88675 -383.35828 -380.50821 -374.66779 -368.75723"
         y="8.5604172"
         sodipodi:role="line"
         id="tspan614">HDLchol(mM)</tspan></text>
<text
       transform="matrix(1,0,0,-0.88878665,93.8834,134.4756)"
       style="font-variant:normal;font-weight:normal;font-size:4.78179979px;font-family:AdvTT5235d5a9;-inkscape-font-specification:AdvTT5235d5a9;writing-mode:lr-tb;fill:#2e3192;fill-opacity:1;fill-rule:nonzero;stroke:none"
       id="text620"><tspan
         x="0"
         y="0"
         id="tspan618">b</tspan></text>
<text
       transform="matrix(1,0,0,-1,165.6,131.641)"
       style="font-variant:normal;font-weight:normal;font-size:6.37599993px;font-family:AdvTT5235d5a9;-inkscape-font-specification:AdvTT5235d5a9;writing-mode:lr-tb;fill:#231f20;fill-opacity:1;fill-rule:nonzero;stroke:none"
       id="text624"><tspan
         x="0 3.6470721 5.1071758 8.7542477 14.060355 16.910427 20.557499 22.017603 25.664675 29.311747 83.28331 86.930382 88.390488 92.03756"
         y="0"
         sodipodi:role="line"
         id="tspan622">0.04(0.04)0.33</tspan></text>
<text
       transform="matrix(1,0,0,-1,306.02885,131.641)"
       style="font-variant:normal;font-weight:normal;font-size:6.37599993px;font-family:'AdvTT5235d5a9 22';-inkscape-font-specification:'AdvTT5235d5a9 22';writing-mode:lr-tb;fill:#231f20;fill-opacity:1;fill-rule:nonzero;stroke:none"
       id="text628"><tspan
         x="0"
         y="0"
         id="tspan626">−</tspan></text>
<text
       transform="matrix(1,0,0,-1,312.71855,131.641)"
       style="font-variant:normal;font-weight:normal;font-size:6.37599993px;font-family:AdvTT5235d5a9;-inkscape-font-specification:AdvTT5235d5a9;writing-mode:lr-tb;fill:#231f20;fill-opacity:1;fill-rule:nonzero;stroke:none"
       id="text632"><tspan
         x="0 3.6470721 5.1071758 8.7542477 14.060355 16.910427 20.557499 22.017603 25.664675 29.311747 83.28331 86.930382 88.390488 92.03756"
         y="0"
         sodipodi:role="line"
         id="tspan630">0.01(0.02)0.47</tspan></text>
<text
       transform="matrix(1,0,0,-1,453.20414,131.641)"
       style="font-variant:normal;font-weight:normal;font-size:6.37599993px;font-family:'AdvTT5235d5a9 22';-inkscape-font-specification:'AdvTT5235d5a9 22';writing-mode:lr-tb;fill:#231f20;fill-opacity:1;fill-rule:nonzero;stroke:none"
       id="text636"><tspan
         x="0"
         y="0"
         id="tspan634">−</tspan></text>
<text
       transform="matrix(1,0,0,-1,459.8371,131.641)"
       style="font-variant:normal;font-weight:normal;font-size:6.37599993px;font-family:AdvTT5235d5a9;-inkscape-font-specification:AdvTT5235d5a9;writing-mode:lr-tb;fill:#231f20;fill-opacity:1;fill-rule:nonzero;stroke:none"
       id="text642"><tspan
         x="0 3.6470721 5.1071758 8.7542477 14.117102 16.967175 20.614246 22.07435 25.721422 29.368494 83.340057 86.987129 88.447235 92.094307"
         y="0"
         sodipodi:role="line"
         id="tspan638">0.00(0.02)0.93</tspan><tspan
         x="-411.36548 -407.84595 -404.26263 -401.94177 -398.69 -395.1507 -392.16672 -388.31561 -384.7323 -381.20383 -378.35376 -372.51334 -366.60278"
         y="8.5604172"
         sodipodi:role="line"
         id="tspan640">Totalchol(mM)</tspan></text>
<text
       transform="matrix(1,0,0,-0.88878665,96.0945,125.9149)"
       style="font-variant:normal;font-weight:normal;font-size:4.78179979px;font-family:AdvTT5235d5a9;-inkscape-font-specification:AdvTT5235d5a9;writing-mode:lr-tb;fill:#2e3192;fill-opacity:1;fill-rule:nonzero;stroke:none"
       id="text646"><tspan
         x="0"
         y="0"
         id="tspan644">b</tspan></text>
<text
       transform="matrix(1,0,0,-1,165.6,123.0803)"
       style="font-variant:normal;font-weight:normal;font-size:6.37599993px;font-family:AdvTT5235d5a9;-inkscape-font-specification:AdvTT5235d5a9;writing-mode:lr-tb;fill:#231f20;fill-opacity:1;fill-rule:nonzero;stroke:none"
       id="text650"><tspan
         x="0 3.6470721 5.1071758 8.7542477 14.060355 16.910427 20.557499 22.017603 25.664675 29.311747 83.28331 86.930382 88.390488 92.03756 147.12047 150.76753 152.22763 155.87471 161.18082 164.03088 167.67796 169.13806 172.78514 176.43221 230.40378 234.05084 235.51096 239.15802"
         y="0"
         sodipodi:role="line"
         id="tspan648">0.21(0.12)0.070.06(0.05)0.26</tspan></text>
<text
       transform="matrix(1,0,0,-1,453.20478,123.0803)"
       style="font-variant:normal;font-weight:normal;font-size:6.37599993px;font-family:'AdvTT5235d5a9 22';-inkscape-font-specification:'AdvTT5235d5a9 22';writing-mode:lr-tb;fill:#231f20;fill-opacity:1;fill-rule:nonzero;stroke:none"
       id="text654"><tspan
         x="0"
         y="0"
         id="tspan652">−</tspan></text>
<text
       transform="matrix(1,0,0,-1,459.83774,123.0803)"
       style="font-variant:normal;font-weight:normal;font-size:6.37599993px;font-family:AdvTT5235d5a9;-inkscape-font-specification:AdvTT5235d5a9;writing-mode:lr-tb;fill:#231f20;fill-opacity:1;fill-rule:nonzero;stroke:none"
       id="text660"><tspan
         x="0 3.6470721 5.1071758 8.7542477 14.117102 16.967175 20.614246 22.07435 25.721422 29.368494 83.340057 86.987129 88.447235 92.094307"
         y="0"
         sodipodi:role="line"
         id="tspan656">0.15(0.07)0.02</tspan><tspan
         x="-411.36548 -408.24762 -403.73343 -398.89276 -395.90878 -392.05768 -388.47437 -384.94589 -382.09583 -376.2554 -370.34485"
         y="8.5604172"
         sodipodi:role="line"
         id="tspan658">LDLchol(mM)</tspan></text>
<text
       transform="matrix(1,0,0,-0.88878665,92.296,117.3543)"
       style="font-variant:normal;font-weight:normal;font-size:4.78179979px;font-family:AdvTT5235d5a9;-inkscape-font-specification:AdvTT5235d5a9;writing-mode:lr-tb;fill:#2e3192;fill-opacity:1;fill-rule:nonzero;stroke:none"
       id="text664"><tspan
         x="0"
         y="0"
         id="tspan662">b</tspan></text>
<text
       transform="matrix(1,0,0,-1,165.6,114.5197)"
       style="font-variant:normal;font-weight:normal;font-size:6.37599993px;font-family:AdvTT5235d5a9;-inkscape-font-specification:AdvTT5235d5a9;writing-mode:lr-tb;fill:#231f20;fill-opacity:1;fill-rule:nonzero;stroke:none"
       id="text668"><tspan
         x="0 3.6470721 5.1071758 8.7542477 14.060355 16.910427 20.557499 22.017603 25.664675 29.311747 83.28331 86.930382 88.390488 92.03756 147.12047 150.76753 152.22763 155.87471 161.18082 164.03088 167.67796 169.13806 172.78514 176.43221 230.40378 234.05084 235.51096 239.15802"
         y="0"
         sodipodi:role="line"
         id="tspan666">0.12(0.10)0.240.02(0.04)0.55</tspan></text>
<text
       transform="matrix(1,0,0,-1,453.20478,114.5197)"
       style="font-variant:normal;font-weight:normal;font-size:6.37599993px;font-family:'AdvTT5235d5a9 22';-inkscape-font-specification:'AdvTT5235d5a9 22';writing-mode:lr-tb;fill:#231f20;fill-opacity:1;fill-rule:nonzero;stroke:none"
       id="text672"><tspan
         x="0"
         y="0"
         id="tspan670">−</tspan></text>
<text
       transform="matrix(1,0,0,-1,459.83774,114.5197)"
       style="font-variant:normal;font-weight:normal;font-size:6.37599993px;font-family:AdvTT5235d5a9;-inkscape-font-specification:AdvTT5235d5a9;writing-mode:lr-tb;fill:#231f20;fill-opacity:1;fill-rule:nonzero;stroke:none"
       id="text678"><tspan
         x="0 3.6470721 5.1071758 8.7542477 14.117102 16.967175 20.614246 22.07435 25.721422 29.368494 83.340057 86.987129 88.447235 92.094307"
         y="0"
         sodipodi:role="line"
         id="tspan674">0.11(0.07)0.13</tspan><tspan
         x="-411.36548 -406.71738 -403.13406 -399.28296 -396.69431 -391.98245 -387.46823 -382.62122 -379.63724 -375.78613 -372.20282 -368.67435 -365.82428 -359.98386 -354.0733"
         y="8.5604172"
         sodipodi:role="line"
         id="tspan676">Non-HDLchol(mM)</tspan></text>
<text
       transform="matrix(1,0,0,-0.88878665,108.5669,108.7937)"
       style="font-variant:normal;font-weight:normal;font-size:4.78179979px;font-family:AdvTT5235d5a9;-inkscape-font-specification:AdvTT5235d5a9;writing-mode:lr-tb;fill:#2e3192;fill-opacity:1;fill-rule:nonzero;stroke:none"
       id="text682"><tspan
         x="0"
         y="0"
         id="tspan680">b</tspan></text>
<text
       transform="matrix(1,0,0,-1,165.6,105.959)"
       style="font-variant:normal;font-weight:normal;font-size:6.37599993px;font-family:AdvTT5235d5a9;-inkscape-font-specification:AdvTT5235d5a9;writing-mode:lr-tb;fill:#231f20;fill-opacity:1;fill-rule:nonzero;stroke:none"
       id="text686"><tspan
         x="0 3.6470721 5.1071758 8.7542477 14.060355 16.910427 20.557499 22.017603 25.664675 29.311747 83.28331 86.930382 88.390488 92.03756 147.12047 150.76753 152.22763 155.87471 161.18082 164.03088 167.67796 169.13806 172.78514 176.43221 230.40378 234.05084 235.51096 239.15802"
         y="0"
         sodipodi:role="line"
         id="tspan684">0.17(0.11)0.130.07(0.05)0.14</tspan></text>
<text
       transform="matrix(1,0,0,-1,453.20478,105.959)"
       style="font-variant:normal;font-weight:normal;font-size:6.37599993px;font-family:'AdvTT5235d5a9 22';-inkscape-font-specification:'AdvTT5235d5a9 22';writing-mode:lr-tb;fill:#231f20;fill-opacity:1;fill-rule:nonzero;stroke:none"
       id="text690"><tspan
         x="0"
         y="0"
         id="tspan688">−</tspan></text>
<text
       transform="matrix(1,0,0,-1,459.83774,105.959)"
       style="font-variant:normal;font-weight:normal;font-size:6.37599993px;font-family:AdvTT5235d5a9;-inkscape-font-specification:AdvTT5235d5a9;writing-mode:lr-tb;fill:#231f20;fill-opacity:1;fill-rule:nonzero;stroke:none"
       id="text696"><tspan
         x="0 3.6470721 5.1071758 8.7542477 14.117102 16.967175 20.614246 22.07435 25.721422 29.368494 83.340057 86.987129 88.447235 92.094307"
         y="0"
         sodipodi:role="line"
         id="tspan692">0.15(0.06)0.02</tspan><tspan
         x="-411.36548 -407.45062 -404.1351 -398.29468 -394.4436 -391.19183 -387.34073 -383.30151 -380.31757 -376.46646 -372.88315 -369.35468 -366.50461 -360.66418 -354.75363"
         y="8.5604172"
         sodipodi:role="line"
         id="tspan694">Remnantchol(mM)</tspan></text>
<text
       transform="matrix(1,0,0,-0.88878665,107.8866,100.2331)"
       style="font-variant:normal;font-weight:normal;font-size:4.78179979px;font-family:AdvTT5235d5a9;-inkscape-font-specification:AdvTT5235d5a9;writing-mode:lr-tb;fill:#2e3192;fill-opacity:1;fill-rule:nonzero;stroke:none"
       id="text700"><tspan
         x="0"
         y="0"
         id="tspan698">a</tspan></text>
<text
       transform="matrix(1,0,0,-1,165.6,97.3984)"
       style="font-variant:normal;font-weight:normal;font-size:6.37599993px;font-family:AdvTT5235d5a9;-inkscape-font-specification:AdvTT5235d5a9;writing-mode:lr-tb;fill:#231f20;fill-opacity:1;fill-rule:nonzero;stroke:none"
       id="text704"><tspan
         x="0 3.6470721 5.1071758 8.7542477 14.060355 16.910427 20.557499 22.017603 25.664675 29.311747 83.28331 86.930382 88.390488 92.03756 147.12047 150.76753 152.22763 155.87471 161.18082 164.03088 167.67796 169.13806 172.78514 176.43221 230.40378 234.05084 235.51096 239.15802"
         y="0"
         sodipodi:role="line"
         id="tspan702">0.10(0.06)0.100.06(0.03)0.03</tspan></text>
<text
       transform="matrix(1,0,0,-1,453.20478,97.3984)"
       style="font-variant:normal;font-weight:normal;font-size:6.37599993px;font-family:'AdvTT5235d5a9 22';-inkscape-font-specification:'AdvTT5235d5a9 22';writing-mode:lr-tb;fill:#231f20;fill-opacity:1;fill-rule:nonzero;stroke:none"
       id="text708"><tspan
         x="0"
         y="0"
         id="tspan706">−</tspan></text>
<text
       transform="matrix(1,0,0,-1,459.83774,97.3984)"
       style="font-variant:normal;font-weight:normal;font-size:6.37599993px;font-family:AdvTT5235d5a9;-inkscape-font-specification:AdvTT5235d5a9;writing-mode:lr-tb;fill:#231f20;fill-opacity:1;fill-rule:nonzero;stroke:none"
       id="text714"><tspan
         x="0 3.6470721 5.1071758 8.7542477 14.117102 16.967175 20.614246 22.07435 25.721422 29.368494 83.340057 86.987129 88.447235 92.094307"
         y="0"
         sodipodi:role="line"
         id="tspan710">0.13(0.06)0.03</tspan><tspan
         x="-411.36548 -408.04999 -404.60056 -401.81424 -399.49338 -395.83099 -393.97559 -392.12018 -387.49695 -383.71597 -378.42581 -375.57574 -369.73532 -362.211 -357.49915 -354.04971"
         y="8.5604172"
         sodipodi:role="line"
         id="tspan712">SystolicBP(mmHg)</tspan></text>
<text
       transform="matrix(1,0,0,-0.88878665,108.5669,91.6725)"
       style="font-variant:normal;font-weight:normal;font-size:4.78179979px;font-family:AdvTT5235d5a9;-inkscape-font-specification:AdvTT5235d5a9;writing-mode:lr-tb;fill:#2e3192;fill-opacity:1;fill-rule:nonzero;stroke:none"
       id="text718"><tspan
         x="0"
         y="0"
         id="tspan716">b</tspan></text>
<text
       transform="matrix(1,0,0,-1,158.9102,88.8378)"
       style="font-variant:normal;font-weight:normal;font-size:6.37599993px;font-family:'AdvTT5235d5a9 22';-inkscape-font-specification:'AdvTT5235d5a9 22';writing-mode:lr-tb;fill:#231f20;fill-opacity:1;fill-rule:nonzero;stroke:none"
       id="text722"><tspan
         x="0"
         y="0"
         id="tspan720">−</tspan></text>
<text
       transform="matrix(1,0,0,-1,165.5999,88.8378)"
       style="font-variant:normal;font-weight:normal;font-size:6.37599993px;font-family:AdvTT5235d5a9;-inkscape-font-specification:AdvTT5235d5a9;writing-mode:lr-tb;fill:#231f20;fill-opacity:1;fill-rule:nonzero;stroke:none"
       id="text726"><tspan
         x="0 3.6470721 5.1071758 8.7542477 14.060355 16.910427 20.557499 22.017603 25.664675 29.311747 83.28331 86.930382 88.390488 92.03756"
         y="0"
         sodipodi:role="line"
         id="tspan724">0.83(1.65)0.62</tspan></text>
<text
       transform="matrix(1,0,0,-1,306.02875,88.8378)"
       style="font-variant:normal;font-weight:normal;font-size:6.37599993px;font-family:'AdvTT5235d5a9 22';-inkscape-font-specification:'AdvTT5235d5a9 22';writing-mode:lr-tb;fill:#231f20;fill-opacity:1;fill-rule:nonzero;stroke:none"
       id="text730"><tspan
         x="0"
         y="0"
         id="tspan728">−</tspan></text>
<text
       transform="matrix(1,0,0,-1,312.71845,88.8378)"
       style="font-variant:normal;font-weight:normal;font-size:6.37599993px;font-family:AdvTT5235d5a9;-inkscape-font-specification:AdvTT5235d5a9;writing-mode:lr-tb;fill:#231f20;fill-opacity:1;fill-rule:nonzero;stroke:none"
       id="text734"><tspan
         x="0 3.6470721 5.1071758 8.7542477 14.060355 16.910427 20.557499 22.017603 25.664675 29.311747 83.28331 86.930382 88.390488 92.03756"
         y="0"
         sodipodi:role="line"
         id="tspan732">2.19(1.22)0.07</tspan></text>
<text
       transform="matrix(1,0,0,-1,453.20404,88.8378)"
       style="font-variant:normal;font-weight:normal;font-size:6.37599993px;font-family:'AdvTT5235d5a9 22';-inkscape-font-specification:'AdvTT5235d5a9 22';writing-mode:lr-tb;fill:#231f20;fill-opacity:1;fill-rule:nonzero;stroke:none"
       id="text738"><tspan
         x="0"
         y="0"
         id="tspan736">−</tspan></text>
<text
       transform="matrix(1,0,0,-1,459.837,88.8378)"
       style="font-variant:normal;font-weight:normal;font-size:6.37599993px;font-family:AdvTT5235d5a9;-inkscape-font-specification:AdvTT5235d5a9;writing-mode:lr-tb;fill:#231f20;fill-opacity:1;fill-rule:nonzero;stroke:none"
       id="text744"><tspan
         x="0 3.6470721 5.1071758 8.7542477 14.117102 16.967175 20.614246 22.07435 25.721422 29.368494 83.340057 86.987129 88.447235 92.094307"
         y="0"
         sodipodi:role="line"
         id="tspan740">3.09(1.64)0.06</tspan><tspan
         x="-411.36548 -406.85129 -404.99588 -401.74411 -398.95779 -396.63693 -393.05362 -391.19821 -389.25415 -384.60541 -380.82446 -375.59103 -372.74097 -366.90054 -359.37622 -354.66437 -351.21494"
         y="8.5604172"
         sodipodi:role="line"
         id="tspan742">DiastolicBP(mmHg)</tspan></text>
<text
       transform="matrix(1,0,0,-0.88878665,111.4015,83.0551)"
       style="font-variant:normal;font-weight:normal;font-size:4.78179979px;font-family:AdvTT5235d5a9;-inkscape-font-specification:AdvTT5235d5a9;writing-mode:lr-tb;fill:#2e3192;fill-opacity:1;fill-rule:nonzero;stroke:none"
       id="text748"><tspan
         x="0"
         y="0"
         id="tspan746">b</tspan></text>
<text
       transform="matrix(1,0,0,-1,165.6,80.2771)"
       style="font-variant:normal;font-weight:normal;font-size:6.37599993px;font-family:AdvTT5235d5a9;-inkscape-font-specification:AdvTT5235d5a9;writing-mode:lr-tb;fill:#231f20;fill-opacity:1;fill-rule:nonzero;stroke:none"
       id="text752"><tspan
         x="0 3.6470721 5.1071758 8.7542477 14.060355 16.910427 20.557499 22.017603 25.664675 29.311747 83.28331 86.930382 88.390488 92.03756"
         y="0"
         sodipodi:role="line"
         id="tspan750">0.52(1.02)0.61</tspan></text>
<text
       transform="matrix(1,0,0,-1,306.02885,80.2771)"
       style="font-variant:normal;font-weight:normal;font-size:6.37599993px;font-family:'AdvTT5235d5a9 22';-inkscape-font-specification:'AdvTT5235d5a9 22';writing-mode:lr-tb;fill:#231f20;fill-opacity:1;fill-rule:nonzero;stroke:none"
       id="text756"><tspan
         x="0"
         y="0"
         id="tspan754">−</tspan></text>
<text
       transform="matrix(1,0,0,-1,312.71855,80.2771)"
       style="font-variant:normal;font-weight:normal;font-size:6.37599993px;font-family:AdvTT5235d5a9;-inkscape-font-specification:AdvTT5235d5a9;writing-mode:lr-tb;fill:#231f20;fill-opacity:1;fill-rule:nonzero;stroke:none"
       id="text760"><tspan
         x="0 3.6470721 5.1071758 8.7542477 14.060355 16.910427 20.557499 22.017603 25.664675 29.311747 83.28331 86.930382 88.390488 92.03756"
         y="0"
         sodipodi:role="line"
         id="tspan758">0.99(0.71)0.17</tspan></text>
<text
       transform="matrix(1,0,0,-1,453.20414,80.2771)"
       style="font-variant:normal;font-weight:normal;font-size:6.37599993px;font-family:'AdvTT5235d5a9 22';-inkscape-font-specification:'AdvTT5235d5a9 22';writing-mode:lr-tb;fill:#231f20;fill-opacity:1;fill-rule:nonzero;stroke:none"
       id="text764"><tspan
         x="0"
         y="0"
         id="tspan762">−</tspan></text>
<text
       transform="matrix(1,0,0,-1,459.8371,80.2771)"
       style="font-variant:normal;font-weight:normal;font-size:6.37599993px;font-family:AdvTT5235d5a9;-inkscape-font-specification:AdvTT5235d5a9;writing-mode:lr-tb;fill:#231f20;fill-opacity:1;fill-rule:nonzero;stroke:none"
       id="text768"><tspan
         x="0 3.6470721 5.1071758 8.7542477 14.117102 16.967175 20.614246 22.07435 25.721422 29.368494 83.340057 86.987129 88.447235 92.094307"
         y="0"
         sodipodi:role="line"
         id="tspan766">1.35(1.01)0.18</tspan></text>
<text
       transform="matrix(1,0,0,-0.88878665,47.9055,70.0157)"
       style="font-variant:normal;font-weight:normal;font-size:4.78179979px;font-family:AdvTT5235d5a9;-inkscape-font-specification:AdvTT5235d5a9;writing-mode:lr-tb;fill:#231f20;fill-opacity:1;fill-rule:nonzero;stroke:none"
       id="text772"><tspan
         x="0"
         y="0"
         id="tspan770">a</tspan></text>
<text
       transform="matrix(1,0,0,-1,54.3118,67.1811)"
       style="font-variant:normal;font-weight:normal;font-size:6.37599993px;font-family:AdvTT5235d5a9;-inkscape-font-specification:AdvTT5235d5a9;writing-mode:lr-tb;fill:#231f20;fill-opacity:1;fill-rule:nonzero;stroke:none"
       id="text776"><tspan
         x="0 4.4440718 7.5402575 13.266543 19.106958 23.925303 27.374718 30.502146 34.353249 37.475578 40.064232 43.088371 44.943787 46.603458 49.389771 52.556091 57.941898 61.25742 63.894535 66.105728 67.961143 73.589241 76.841003 78.975052 80.830467 84.531097 89.577065 92.892578 96.436996 100.21797 103.29694 105.50813 107.36355 110.7237 116.223 121.94929 125.5326 129.1497 132.46523 135.8394 141.28452 142.98308 145.19427 150.69357 152.54898 155.90913 161.01122 162.86664 164.52631 168.37741 171.72672"
         y="0"
         sodipodi:role="line"
         id="tspan774">Gammageneralisedestimatingequationmodelwithloglink.</tspan></text>
<text
       transform="matrix(1,0,0,-0.88878665,47.9055,61.4551)"
       style="font-variant:normal;font-weight:normal;font-size:4.78179979px;font-family:AdvTT5235d5a9;-inkscape-font-specification:AdvTT5235d5a9;writing-mode:lr-tb;fill:#231f20;fill-opacity:1;fill-rule:nonzero;stroke:none"
       id="text780"><tspan
         x="0"
         y="0"
         id="tspan778">b</tspan></text>
<text
       transform="matrix(1,0,0,-1,54.6519,58.6205)"
       style="font-variant:normal;font-weight:normal;font-size:6.37599993px;font-family:AdvTT5235d5a9;-inkscape-font-specification:AdvTT5235d5a9;writing-mode:lr-tb;fill:#231f20;fill-opacity:1;fill-rule:nonzero;stroke:none"
       id="text784"><tspan
         x="0 4.5352488 7.9935913 10.582247 16.270914 19.388779 22.903868 26.353283 29.480711 33.331814 36.454144 39.042797 42.12368 43.979099 45.638771 48.303299 51.61882 56.977211 60.151821 62.938133 65.084297 66.939713 72.62455 75.742416 78.063278 79.767586 83.61869 88.554985 91.870506 95.414925 99.195892 102.27486 104.48606 106.34148 109.75838 115.20093 121.04134 124.44231 128.22327 131.35899 134.87408 140.20314 142.05855 144.17155 149.67087 151.52628 155.11342 158.42894 162.08685 164.29805 166.15346 168.32321 173.36917 175.22459 176.88426 180.73537 184.08469"
         y="0"
         sodipodi:role="line"
         id="tspan782">Normalgeneralisedestimatingequationmodelwithidentitylink.</tspan></text>
<text
       transform="matrix(1,0,0,-1,47.848708,50.853257)"
       style="font-variant:normal;font-weight:normal;font-size:6.37599993px;font-family:'AdvTT5235d5a9 20';-inkscape-font-specification:'AdvTT5235d5a9 20';writing-mode:lr-tb;fill:#231f20;fill-opacity:1;fill-rule:nonzero;stroke:none"
       id="text788"><tspan
         x="0"
         y="0"
         id="tspan786">⁎</tspan></text>
<text
       transform="matrix(1,0,0,-1,54.481661,50.059445)"
       style="font-variant:normal;font-weight:normal;font-size:6.37599993px;font-family:AdvTT5235d5a9;-inkscape-font-specification:AdvTT5235d5a9;writing-mode:lr-tb;fill:#231f20;fill-opacity:1;fill-rule:nonzero;stroke:none"
       id="text794"><tspan
         x="0 4.1826558 7.7672434 9.6927948 13.266543 16.052855 18.199017 21.514536 26.816181 28.869253 32.258736 36.510887 39.628754 43.078167 46.261707 49.32346 52.772877 55.900307 59.751408 63.327068 66.642593 69.053352 72.171219 74.608765 77.924286 79.597984 82.849747 84.983788 86.839211 90.256104 94.107208 96.71946 100.57056 102.21876 107.60456 110.39088 112.53704 115.7888 117.92284 121.70381 124.32945 127.39056 130.70609 134.30725 138.08823 140.88409 144.13585 146.2699 148.12532 151.54222 156.98477 158.84019 161.97398 165.4234 168.55084 170.40625 173.42656 176.60117 182.44159 186.06889 187.92432 191.28447 194.73389 200.41234 203.72786 207.38577 211.3542 214.01872 216.3396 219.40454 221.7254 225.35716 228.0217 231.08282 234.06679 237.48943 240.07808 245.71001 249.2933 251.71938 255.36646 257.04843 260.82941 262.491 264.70218 268.15161 271.16553 274.28342 276.13882 278.93216 282.51547 286.18866 289.77197 293.16211 296.94308 299.34174 301.19714 304.84103 308.36057 310.05722 313.90833 317.14417 320.26202 323.37988 327.23099 332.56451 335.22903 341.06946 344.47043 347.98996 349.68661 353.53772 358.53076 361.19531 363.40649 366.65826 368.7923 372.57327 375.19891"
         y="0"
         sodipodi:role="line"
         id="tspan790">Adjustedforage,gender,relationshipstatus,educationlevel,employmentstatus,co-morbidity,alcoholdrinking,andsmokingstatus.</tspan><tspan
         x="499.86374 503.5108"
         y="-700.841"
         sodipodi:role="line"
         id="tspan792">19</tspan></text>
</g></svg>