<?xml version="1.0" encoding="UTF-8" standalone="no"?>
<!-- Created with Inkscape (http://www.inkscape.org/) -->

<svg
   xmlns:dc="http://purl.org/dc/elements/1.1/"
   xmlns:cc="http://creativecommons.org/ns#"
   xmlns:rdf="http://www.w3.org/1999/02/22-rdf-syntax-ns#"
   xmlns:svg="http://www.w3.org/2000/svg"
   xmlns="http://www.w3.org/2000/svg"
   xmlns:sodipodi="http://sodipodi.sourceforge.net/DTD/sodipodi-0.dtd"
   xmlns:inkscape="http://www.inkscape.org/namespaces/inkscape"
   version="1.1"
   id="svg2"
   xml:space="preserve"
   width="768"
   height="1031.9626"
   viewBox="0 0 768 1031.9626"
   sodipodi:docname="table2.svg"
   inkscape:version="0.92.0 r15299"><metadata
     id="metadata8"><rdf:RDF><cc:Work
         rdf:about=""><dc:format>image/svg+xml</dc:format><dc:type
           rdf:resource="http://purl.org/dc/dcmitype/StillImage" /><dc:title></dc:title></cc:Work></rdf:RDF></metadata><defs
     id="defs6" /><sodipodi:namedview
     pagecolor="#ffffff"
     bordercolor="#666666"
     borderopacity="1"
     objecttolerance="10"
     gridtolerance="10"
     guidetolerance="10"
     inkscape:pageopacity="0"
     inkscape:pageshadow="2"
     inkscape:window-width="1920"
     inkscape:window-height="988"
     id="namedview4"
     showgrid="false"
     inkscape:zoom="1.2936685"
     inkscape:cx="515.50121"
     inkscape:cy="721.01783"
     inkscape:window-x="0"
     inkscape:window-y="27"
     inkscape:window-maximized="1"
     inkscape:current-layer="g10" /><g
     id="g10"
     inkscape:groupmode="layer"
     inkscape:label="fulltext"
     transform="matrix(1.3333333,0,0,-1.3333333,0,1031.9627)"><path
       d="m 36.51,635.244 h 491.017 v 3.005 H 36.51 Z"
       style="fill:#e6e6e6;fill-opacity:1;fill-rule:nonzero;stroke:none"
       id="path296"
       inkscape:connector-curvature="0" /><path
       d="m 36.51,624.245 h 49.039 v 11.792 H 36.51 Z"
       style="fill:#e6e6e6;fill-opacity:1;fill-rule:nonzero;stroke:none"
       id="path298"
       inkscape:connector-curvature="0" /><g
       id="g300"
       transform="translate(85.550003,636.03799)"><path
         d="M 0,0 H 70.98 V -11.792 H 0"
         style="fill:#e6e6e6;fill-opacity:1;fill-rule:evenodd;stroke:none"
         id="path302"
         inkscape:connector-curvature="0" /></g><path
       d="M 156.529,624.245 H 353.14 v 11.792 H 156.529 Z"
       style="fill:#e6e6e6;fill-opacity:1;fill-rule:nonzero;stroke:none"
       id="path304"
       inkscape:connector-curvature="0" /><g
       id="g306"
       transform="translate(353.14,636.03799)"><path
         d="M 0,0 H 86.683 V -11.792 H 0"
         style="fill:#e6e6e6;fill-opacity:1;fill-rule:evenodd;stroke:none"
         id="path308"
         inkscape:connector-curvature="0" /></g><path
       d="m 439.823,624.245 h 87.704 v 11.792 h -87.704 z"
       style="fill:#e6e6e6;fill-opacity:1;fill-rule:nonzero;stroke:none"
       id="path310"
       inkscape:connector-curvature="0" /><path
       d="m 36.51,600.605 h 49.039 v 11.792 H 36.51 Z"
       style="fill:#e6e6e6;fill-opacity:1;fill-rule:nonzero;stroke:none"
       id="path312"
       inkscape:connector-curvature="0" /><g
       id="g314"
       transform="translate(85.550003,612.397)"><path
         d="M 0,0 H 70.98 V -11.792 H 0"
         style="fill:#e6e6e6;fill-opacity:1;fill-rule:evenodd;stroke:none"
         id="path316"
         inkscape:connector-curvature="0" /></g><path
       d="M 156.529,600.605 H 353.14 v 11.792 H 156.529 Z"
       style="fill:#e6e6e6;fill-opacity:1;fill-rule:nonzero;stroke:none"
       id="path318"
       inkscape:connector-curvature="0" /><g
       id="g320"
       transform="translate(353.14,612.397)"><path
         d="M 0,0 H 86.683 V -11.792 H 0"
         style="fill:#e6e6e6;fill-opacity:1;fill-rule:evenodd;stroke:none"
         id="path322"
         inkscape:connector-curvature="0" /></g><path
       d="m 439.823,600.605 h 87.704 v 11.792 h -87.704 z"
       style="fill:#e6e6e6;fill-opacity:1;fill-rule:nonzero;stroke:none"
       id="path324"
       inkscape:connector-curvature="0" /><g
       id="g326"
       transform="translate(36,696.98199)"><path
         d="m 0,0 h 491.981 l -0.454,-0.51 H 0.51"
         style="fill:#000000;fill-opacity:1;fill-rule:evenodd;stroke:#000000;stroke-width:0.75;stroke-linecap:round;stroke-linejoin:round;stroke-miterlimit:10;stroke-dasharray:none;stroke-opacity:1"
         id="path328"
         inkscape:connector-curvature="0" /></g><g
       id="g330"
       transform="translate(527.981,696.98199)"><path
         d="m 0,0 v -108.227 l -0.454,0.511 V -0.51"
         style="fill:#000000;fill-opacity:1;fill-rule:evenodd;stroke:#000000;stroke-width:0.75;stroke-linecap:round;stroke-linejoin:round;stroke-miterlimit:10;stroke-dasharray:none;stroke-opacity:1"
         id="path332"
         inkscape:connector-curvature="0" /></g><g
       id="g334"
       transform="translate(527.981,588.756)"><path
         d="m 0,0 h -491.981 l 0.51,0.51 H -0.454"
         style="fill:#000000;fill-opacity:1;fill-rule:evenodd;stroke:#000000;stroke-width:0.75;stroke-linecap:round;stroke-linejoin:round;stroke-miterlimit:10;stroke-dasharray:none;stroke-opacity:1"
         id="path336"
         inkscape:connector-curvature="0" /></g><g
       id="g338"
       transform="translate(36,588.756)"><path
         d="m 0,0 v 108.227 l 0.51,-0.51 V 0.51"
         style="fill:#000000;fill-opacity:1;fill-rule:evenodd;stroke:#000000;stroke-width:0.75;stroke-linecap:round;stroke-linejoin:round;stroke-miterlimit:10;stroke-dasharray:none;stroke-opacity:1"
         id="path340"
         inkscape:connector-curvature="0" /></g><g
       id="g342"
       transform="translate(267.477,680.71201)"><path
         d="M 0,0 H -181.928 V 0.51 H 0"
         style="fill:#000000;fill-opacity:1;fill-rule:evenodd;stroke:#000000;stroke-width:0.75;stroke-linecap:round;stroke-linejoin:round;stroke-miterlimit:10;stroke-dasharray:none;stroke-opacity:1"
         id="path344"
         inkscape:connector-curvature="0" /></g><g
       id="g346"
       transform="translate(527.52699,680.71201)"><path
         d="M 0,0 H -261.071 V 0.51 H 0"
         style="fill:#000000;fill-opacity:1;fill-rule:evenodd;stroke:#000000;stroke-width:0.75;stroke-linecap:round;stroke-linejoin:round;stroke-miterlimit:10;stroke-dasharray:none;stroke-opacity:1"
         id="path348"
         inkscape:connector-curvature="0" /></g><g
       id="g350"
       transform="translate(36.509994,638.24899)"><path
         d="M 0,0 H 491.017 V -0.907 H 0"
         style="fill:#ffffff;fill-opacity:1;fill-rule:evenodd;stroke:#ffffff;stroke-width:0.75;stroke-linecap:round;stroke-linejoin:round;stroke-miterlimit:10;stroke-dasharray:none;stroke-opacity:1"
         id="path352"
         inkscape:connector-curvature="0" /></g><g
       id="g354"
       transform="translate(527.52699,636.83099)"><path
         d="M 0,0 H -491.017 V 0.51 H 0"
         style="fill:#000000;fill-opacity:1;fill-rule:evenodd;stroke:#000000;stroke-width:0.75;stroke-linecap:round;stroke-linejoin:round;stroke-miterlimit:10;stroke-dasharray:none;stroke-opacity:1"
         id="path356"
         inkscape:connector-curvature="0" /></g><text
       transform="matrix(1,0,0,-1,36,706.4502)"
       style="font-variant:normal;font-weight:normal;font-size:9.5px;font-family:AdvOT23cd0920;-inkscape-font-specification:AdvOT23cd0920;writing-mode:lr-tb;fill:#000000;fill-opacity:1;fill-rule:nonzero;stroke:none"
       id="text360"><tspan
         x="0 4.5504999 9.6899996 14.8295 17.2995 25.2225 30.6565"
         y="0"
         sodipodi:role="line"
         id="tspan358">Table2.</tspan></text>
<text
       transform="matrix(1,0,0,-1,73.1925,706.4502)"
       style="font-variant:normal;font-weight:normal;font-size:9.5px;font-family:AdvOT662f79ed;-inkscape-font-specification:AdvOT662f79ed;writing-mode:lr-tb;fill:#000000;fill-opacity:1;fill-rule:nonzero;stroke:none"
       id="text364"><tspan
         x="0 5.434 8.493 13.5375 18.582001 26.4195 34.038502 38.883499 41.942501 44.811501 49.837002 52.012501 54.188 57.056999 63.783001 68.723 73.862503 81.757004 87.789497 93.6035 100.8045 103.569 108.414 114.3515 119.7855 124.6305 129.675 134.8145 139.1655 144.1055 146.28101 151.22099 159.1915 163.438 168.37801 171.437 175.78799 180.8325 188.10001 194.332 199.177 204.3165 206.4635 211.89751 216.74249 221.787 226.9265 231.2775 236.2175 238.39301 243.33299 251.3035 256.64249 264.35651 269.2775 273.923 278.86301 281.922 289.17999 294.22449 300.91251 305.55801 310.49799 315.63751 320.28299 323.24701 331.1225 335.9675 341.6105 346.3605 351.20551 353.38101 355.55649 360.40149 366.63351 368.7045 373.74899 381.69101"
         y="0"
         sodipodi:role="line"
         id="tspan362">CrudeMortalityandHRsforCounseledversusNon-CounseledSmokersbyLengthofFollow-up(</tspan></text>
<text
       transform="matrix(1,0,0,-1,457.401,706.4502)"
       style="font-variant:normal;font-weight:normal;font-size:9.5px;font-family:AdvOTb05c7e4a;-inkscape-font-specification:AdvOTb05c7e4a;writing-mode:lr-tb;fill:#000000;fill-opacity:1;fill-rule:nonzero;stroke:none"
       id="text368"><tspan
         x="0"
         y="0"
         id="tspan366">n</tspan></text>
<text
       transform="matrix(1,0,0,-1,462.5595,706.4502)"
       style="font-variant:normal;font-weight:normal;font-size:9.5px;font-family:AdvMacMthSyN;-inkscape-font-specification:AdvMacMthSyN;writing-mode:lr-tb;fill:#000000;fill-opacity:1;fill-rule:nonzero;stroke:none"
       id="text372"><tspan
         x="0"
         y="0"
         id="tspan370">¼</tspan></text>
<text
       transform="matrix(1,0,0,-1,469.9885,706.4502)"
       style="font-variant:normal;font-weight:normal;font-size:9.5px;font-family:AdvOT662f79ed;-inkscape-font-specification:AdvOT662f79ed;writing-mode:lr-tb;fill:#000000;fill-opacity:1;fill-rule:nonzero;stroke:none"
       id="text376"><tspan
         x="0 5.434 10.868 13.1385 18.5725 24.0065 29.4405"
         y="0"
         sodipodi:role="line"
         id="tspan374">13,815)</tspan></text>
<text
       transform="matrix(1,0,0,-0.88879844,502.0156,710.7021)"
       style="font-variant:normal;font-weight:normal;font-size:7.12489986px;font-family:AdvOT662f79ed;-inkscape-font-specification:AdvOT662f79ed;writing-mode:lr-tb;fill:#337eb1;fill-opacity:1;fill-rule:nonzero;stroke:none"
       id="text380"><tspan
         x="0"
         y="0"
         id="tspan378">a</tspan></text>
<text
       transform="matrix(1,0,0,-1,146.1543,684.2266)"
       style="font-variant:normal;font-weight:normal;font-size:9px;font-family:AdvOT23cd0920;-inkscape-font-specification:AdvOT23cd0920;writing-mode:lr-tb;fill:#000000;fill-opacity:1;fill-rule:nonzero;stroke:none"
       id="text384"><tspan
         x="0 5.625 8.7119999 13.491 18.27 25.74 33.138 37.917 41.004002 44.091 48.959999 51.299999 53.639999 56.727001 225.414 231.21899 239.814 242.62199 247.77 252.918 261.81 267.435 269.96399"
         y="0"
         sodipodi:role="line"
         id="tspan382">CrudemortalityHR(95%CI)</tspan></text>
<text
       transform="matrix(1,0,0,-0.88878354,418.9605,688.1951)"
       style="font-variant:normal;font-weight:normal;font-size:6.74989986px;font-family:AdvOT23cd0920;-inkscape-font-specification:AdvOT23cd0920;writing-mode:lr-tb;fill:#337eb1;fill-opacity:1;fill-rule:nonzero;stroke:none"
       id="text388"><tspan
         x="0"
         y="0"
         id="tspan386">c</tspan></text>
<text
       transform="matrix(1,0,0,-1,41.4992,654.7463)"
       style="font-variant:normal;font-weight:normal;font-size:9px;font-family:AdvOT23cd0920;-inkscape-font-specification:AdvOT23cd0920;writing-mode:lr-tb;fill:#000000;fill-opacity:1;fill-rule:nonzero;stroke:none"
       id="text398"><tspan
         x="0 4.5 9.2790003 14.148 19.115999 22.202999 29.763 34.542"
         y="0"
         sodipodi:role="line"
         id="tspan390">Lengthof</tspan><tspan
         x="0 2.8080001 7.5869999 9.927 12.267 17.046 23.507999 25.569 30.348"
         y="10.548"
         sodipodi:role="line"
         id="tspan392">follow-up</tspan><tspan
         x="59.580002 65.205002 69.984001 74.763 79.632004 83.844002 88.623001 90.962997 95.741997"
         y="-10.485"
         sodipodi:role="line"
         id="tspan394">Counseled</tspan><tspan
         x="62.189999 66.402 73.800003 78.579002 83.447998 88.226997 91.314003 95.526001"
         y="3.9968029e-15"
         sodipodi:role="line"
         id="tspan396">smokers,</tspan></text>
<text
       transform="matrix(1,0,0,-1,90.5402,644.1983)"
       style="font-variant:normal;font-weight:normal;font-size:9px;font-family:AdvOT3c0ccdad;-inkscape-font-specification:AdvOT3c0ccdad;writing-mode:lr-tb;fill:#000000;fill-opacity:1;fill-rule:nonzero;stroke:none"
       id="text402"><tspan
         x="0"
         y="0"
         id="tspan400">n</tspan></text>
<text
       transform="matrix(1,0,0,-1,97.8572,644.1983)"
       style="font-variant:normal;font-weight:normal;font-size:9px;font-family:AdvOT23cd0920;-inkscape-font-specification:AdvOT23cd0920;writing-mode:lr-tb;fill:#000000;fill-opacity:1;fill-rule:nonzero;stroke:none"
       id="text406"><tspan
         x="0 2.8080001 8.9910002 14.346"
         y="0"
         sodipodi:role="line"
         id="tspan404">(%)(</tspan></text>
<text
       transform="matrix(1,0,0,-1,114.9752,644.1983)"
       style="font-variant:normal;font-weight:normal;font-size:9px;font-family:AdvOT3c0ccdad;-inkscape-font-specification:AdvOT3c0ccdad;writing-mode:lr-tb;fill:#000000;fill-opacity:1;fill-rule:nonzero;stroke:none"
       id="text410"><tspan
         x="0"
         y="0"
         id="tspan408">n</tspan></text>
<text
       transform="matrix(1,0,0,-1,119.7902,644.1983)"
       style="font-variant:normal;font-weight:normal;font-size:9px;font-family:AdvMacMthSyN;-inkscape-font-specification:AdvMacMthSyN;writing-mode:lr-tb;fill:#000000;fill-opacity:1;fill-rule:nonzero;stroke:none"
       id="text414"><tspan
         x="0"
         y="0"
         id="tspan412">¼</tspan></text>
<text
       transform="matrix(1,0,0,-1,126.8192,644.1983)"
       style="font-variant:normal;font-weight:normal;font-size:9px;font-family:AdvOT23cd0920;-inkscape-font-specification:AdvOT23cd0920;writing-mode:lr-tb;fill:#000000;fill-opacity:1;fill-rule:nonzero;stroke:none"
       id="text422"><tspan
         x="0 5.1479998 7.4879999 12.636 17.784 22.931999"
         y="0"
         sodipodi:role="line"
         id="tspan416">5,695)</tspan><tspan
         x="36.396 42.201 46.98 51.848999 53.91 58.5 63.278999 68.057999 72.927002 77.139 81.917999 84.258003 89.037003"
         y="-21.033001"
         sodipodi:role="line"
         id="tspan418">Non-counseled</tspan><tspan
         x="36.224998 40.437 47.834999 52.613998 57.483002 62.262001 65.348999 69.560997"
         y="-10.548"
         sodipodi:role="line"
         id="tspan420">smokers,</tspan></text>
<text
       transform="matrix(1,0,0,-1,201.4832,654.7463)"
       style="font-variant:normal;font-weight:normal;font-size:9px;font-family:AdvOT3c0ccdad;-inkscape-font-specification:AdvOT3c0ccdad;writing-mode:lr-tb;fill:#000000;fill-opacity:1;fill-rule:nonzero;stroke:none"
       id="text426"><tspan
         x="0"
         y="0"
         id="tspan424">n</tspan></text>
<text
       transform="matrix(1,0,0,-1,208.9082,654.7463)"
       style="font-variant:normal;font-weight:normal;font-size:9px;font-family:AdvOT23cd0920;-inkscape-font-specification:AdvOT23cd0920;writing-mode:lr-tb;fill:#000000;fill-opacity:1;fill-rule:nonzero;stroke:none"
       id="text432"><tspan
         x="0 2.8080001 8.9910002"
         y="0"
         sodipodi:role="line"
         id="tspan428">(%)</tspan><tspan
         x="-37.188"
         y="10.548"
         id="tspan430">(</tspan></text>
<text
       transform="matrix(1,0,0,-1,174.5552,644.1983)"
       style="font-variant:normal;font-weight:normal;font-size:9px;font-family:AdvOT3c0ccdad;-inkscape-font-specification:AdvOT3c0ccdad;writing-mode:lr-tb;fill:#000000;fill-opacity:1;fill-rule:nonzero;stroke:none"
       id="text436"><tspan
         x="0"
         y="0"
         id="tspan434">n</tspan></text>
<text
       transform="matrix(1,0,0,-1,179.3162,644.1983)"
       style="font-variant:normal;font-weight:normal;font-size:9px;font-family:AdvMacMthSyN;-inkscape-font-specification:AdvMacMthSyN;writing-mode:lr-tb;fill:#000000;fill-opacity:1;fill-rule:nonzero;stroke:none"
       id="text440"><tspan
         x="0"
         y="0"
         id="tspan438">¼</tspan></text>
<text
       transform="matrix(1,0,0,-1,186.3452,644.1983)"
       style="font-variant:normal;font-weight:normal;font-size:9px;font-family:AdvOT23cd0920;-inkscape-font-specification:AdvOT23cd0920;writing-mode:lr-tb;fill:#000000;fill-opacity:1;fill-rule:nonzero;stroke:none"
       id="text444"><tspan
         x="0 5.1479998 7.4879999 12.636 17.784 22.931999"
         y="0"
         sodipodi:role="line"
         id="tspan442">8,120)</tspan></text>
<text
       transform="matrix(1,0,0,-1,231.2462,644.1983)"
       style="font-variant:normal;font-weight:normal;font-size:9px;font-family:AdvOT3c0ccdad;-inkscape-font-specification:AdvOT3c0ccdad;writing-mode:lr-tb;fill:#000000;fill-opacity:1;fill-rule:nonzero;stroke:none"
       id="text448"><tspan
         x="0"
         y="0"
         id="tspan446">p</tspan></text>
<text
       transform="matrix(1,0,0,-1,235.9532,644.1983)"
       style="font-variant:normal;font-weight:normal;font-size:9px;font-family:AdvOT23cd0920;-inkscape-font-specification:AdvOT23cd0920;writing-mode:lr-tb;fill:#000000;fill-opacity:1;fill-rule:nonzero;stroke:none"
       id="text452"><tspan
         x="0 2.0610001 6.0840001 10.953 13.293 18.072001"
         y="0"
         sodipodi:role="line"
         id="tspan450">-value</tspan></text>
<text
       transform="matrix(1,0,0,-0.88878354,258.8031,648.2266)"
       style="font-variant:normal;font-weight:normal;font-size:6.74989986px;font-family:AdvOT23cd0920;-inkscape-font-specification:AdvOT23cd0920;writing-mode:lr-tb;fill:#337eb1;fill-opacity:1;fill-rule:nonzero;stroke:none"
       id="text456"><tspan
         x="0"
         y="0"
         id="tspan454">b</tspan></text>
<text
       transform="matrix(1,0,0,-1,288.17,644.2014)"
       style="font-variant:normal;font-weight:normal;font-size:9px;font-family:AdvOT23cd0920;-inkscape-font-specification:AdvOT23cd0920;writing-mode:lr-tb;fill:#000000;fill-opacity:1;fill-rule:nonzero;stroke:none"
       id="text460"><tspan
         x="0 5.8049998 10.674 15.543 20.322001 22.662001 27.441 31.653 34.740002 39.519001 89.918999 95.355003 100.134 102.474 107.253 111.465 114.552 119.331"
         y="0"
         sodipodi:role="line"
         id="tspan458">UnadjustedAdjusted</tspan></text>
<text
       transform="matrix(1,0,0,-0.88878354,412.2708,648.2266)"
       style="font-variant:normal;font-weight:normal;font-size:6.74989986px;font-family:AdvOT23cd0920;-inkscape-font-specification:AdvOT23cd0920;writing-mode:lr-tb;fill:#337eb1;fill-opacity:1;fill-rule:nonzero;stroke:none"
       id="text464"><tspan
         x="0"
         y="0"
         id="tspan462">d</tspan></text>
<text
       transform="matrix(1,0,0,-1,466.3558,654.7463)"
       style="font-variant:normal;font-weight:normal;font-size:9px;font-family:AdvOT23cd0920;-inkscape-font-specification:AdvOT23cd0920;writing-mode:lr-tb;fill:#000000;fill-opacity:1;fill-rule:nonzero;stroke:none"
       id="text470"><tspan
         x="0 7.6859999 12.555 15.642 20.232 25.101 29.879999"
         y="0"
         sodipodi:role="line"
         id="tspan466">Matched</tspan><tspan
         x="-0.34200001 4.527 9.3959999 14.265 16.605 20.538 24.75 27.09"
         y="10.548"
         sodipodi:role="line"
         id="tspan468">analysis</tspan></text>
<text
       transform="matrix(1,0,0,-0.88878354,497.707,648.2266)"
       style="font-variant:normal;font-weight:normal;font-size:6.74989986px;font-family:AdvOT23cd0920;-inkscape-font-specification:AdvOT23cd0920;writing-mode:lr-tb;fill:#337eb1;fill-opacity:1;fill-rule:nonzero;stroke:none"
       id="text474"><tspan
         x="0"
         y="0"
         id="tspan472">e</tspan></text>
<text
       transform="matrix(1,0,0,-1,41.4992,627.3069)"
       style="font-variant:normal;font-weight:normal;font-size:8.5px;font-family:AdvOT662f79ed;-inkscape-font-specification:AdvOT662f79ed;writing-mode:lr-tb;fill:#000000;fill-opacity:1;fill-rule:nonzero;stroke:none"
       id="text478"><tspan
         x="0 4.862 12.2995 16.813 21.233 24.684 63.375999 68.237999 73.099998 80.554497 82.764503 87.626503 89.657997 94.519997 133.7305 138.5925 143.4545 150.8495 153.05949 157.92149 159.953 164.815"
         y="0"
         sodipodi:role="line"
         id="tspan476">30days122(2.1)250(3.1)</tspan></text>
<text
       transform="matrix(1,0,0,-1,236.0132,627.3069)"
       style="font-variant:normal;font-weight:normal;font-size:8.5px;font-family:AdvOT23cd0920;-inkscape-font-specification:AdvOT23cd0920;writing-mode:lr-tb;fill:#000000;fill-opacity:1;fill-rule:nonzero;stroke:none"
       id="text482"><tspan
         x="0 4.862 7.072 11.934 16.796 35.436501 40.2985 42.508499 47.370499 52.232498 59.703999 62.355999 67.218002 69.428001 74.290001 79.152 84.014 88.791 93.653 95.862999 100.725 105.587 110.449 122.128 126.99 129.2 134.062 138.924 146.39549 149.0475 153.9095 156.11951 160.98151 165.84351 170.70551 175.4825 180.3445 182.5545 187.4165 192.2785 197.1405 208.8195 213.6815 215.89149 220.75349 225.61549 233.08701 235.739 240.601 242.811 247.673 252.535 257.397 262.17401 267.03601 269.246 274.108 278.97 283.832"
         y="0"
         sodipodi:role="line"
         id="tspan480">0.0010.692(0.558,0.860)0.774(0.621,0.964)0.765(0.601,0.973)</tspan></text>
<text
       transform="matrix(1,0,0,-1,41.4992,615.3984)"
       style="font-variant:normal;font-weight:normal;font-size:8.5px;font-family:AdvOT662f79ed;-inkscape-font-specification:AdvOT662f79ed;writing-mode:lr-tb;fill:#000000;fill-opacity:1;fill-rule:nonzero;stroke:none"
       id="text486"><tspan
         x="0 7.4289999 10.88 15.3 19.719999 60.945 65.806999 70.668999 78.123497 80.333504 85.195503 90.057503 92.088997 96.950996 127.84 132.702 134.73351 139.5955 144.4575 151.87801 154.088 158.95 163.812 165.84351 170.70551"
         y="0"
         sodipodi:role="line"
         id="tspan484">1year761(13.4)1,470(18.1)</tspan></text>
<text
       transform="matrix(1,0,0,-1,231.8737,615.3984)"
       style="font-variant:normal;font-size:8.5px;font-family:AdvEls;-inkscape-font-specification:AdvEls-ent4;writing-mode:lr-tb;fill:#000000;fill-opacity:1;fill-rule:nonzero;stroke:none"
       id="text490"><tspan
         x="0"
         y="0"
         id="tspan488">o</tspan></text>
<text
       transform="matrix(1,0,0,-1,240.1527,615.3984)"
       style="font-variant:normal;font-weight:normal;font-size:8.5px;font-family:AdvOT23cd0920;-inkscape-font-specification:AdvOT23cd0920;writing-mode:lr-tb;fill:#000000;fill-opacity:1;fill-rule:nonzero;stroke:none"
       id="text494"><tspan
         x="0 4.862 7.072 11.934 16.796 31.297001 36.159 38.368999 43.230999 48.092999 55.564499 58.216499 63.078499 65.288498 70.150497 75.012497 79.874496 84.651497 89.513496 91.723503 96.585503 101.4475 106.3095 117.9885 122.8505 125.0605 129.9225 134.7845 142.256 144.908 149.77 151.98 156.842 161.70399 166.56599 171.343 176.205 178.41499 183.27699 188.13901 193.00101 204.67999 209.54201 211.752 216.614 221.476 228.94749 231.5995 236.4615 238.67149 243.53349 248.39549 253.25751 258.03448 262.89651 265.10651 269.96851 274.83051 279.6925"
         y="0"
         sodipodi:role="line"
         id="tspan492">0.0010.718(0.658,0.784)0.819(0.750,0.895)0.815(0.736,0.902)</tspan></text>
<text
       transform="matrix(1,0,0,-1,41.4992,603.6599)"
       style="font-variant:normal;font-weight:normal;font-size:8.5px;font-family:AdvOT662f79ed;-inkscape-font-specification:AdvOT662f79ed;writing-mode:lr-tb;fill:#000000;fill-opacity:1;fill-rule:nonzero;stroke:none"
       id="text498"><tspan
         x="0 7.4289999 10.88 15.3 19.719999 22.457001 57.4855 62.3475 64.378998 69.240997 74.102997 81.583 83.792999 88.654999 93.516998 95.5485 100.4105 127.8485 132.71049 134.742 139.604 144.466 151.88651 154.0965 158.9585 163.8205 165.85201 170.714"
         y="0"
         sodipodi:role="line"
         id="tspan496">5years2,378(41.8)4,027(49.6)</tspan></text>
<text
       transform="matrix(1,0,0,-1,231.8737,603.6599)"
       style="font-variant:normal;font-size:8.5px;font-family:AdvEls;-inkscape-font-specification:AdvEls-ent4;writing-mode:lr-tb;fill:#000000;fill-opacity:1;fill-rule:nonzero;stroke:none"
       id="text502"><tspan
         x="0"
         y="0"
         id="tspan500">o</tspan></text>
<text
       transform="matrix(1,0,0,-1,240.1527,603.6599)"
       style="font-variant:normal;font-weight:normal;font-size:8.5px;font-family:AdvOT23cd0920;-inkscape-font-specification:AdvOT23cd0920;writing-mode:lr-tb;fill:#000000;fill-opacity:1;fill-rule:nonzero;stroke:none"
       id="text506"><tspan
         x="0 4.862 7.072 11.934 16.796 31.297001 36.159 38.368999 43.230999 48.092999 55.564499 58.216499 63.078499 65.288498 70.150497 75.012497 79.874496 84.651497 89.513496 91.723503 96.585503 101.4475 106.3095 117.9885 122.8505 125.0605 129.9225 134.7845 142.256 144.908 149.77 151.98 156.842 161.70399 166.56599 171.343 176.205 178.41499 183.27699 188.13901 193.00101 204.67999 209.54201 211.752 216.614 221.476 228.94749 231.5995 236.4615 238.67149 243.53349 248.39549 253.25751 258.03448 262.89651 265.10651 269.96851 274.83051 279.6925"
         y="0"
         sodipodi:role="line"
         id="tspan504">0.0010.782(0.744,0.823)0.860(0.817,0.906)0.868(0.814,0.926)</tspan></text>
<text
       transform="matrix(1,0,0,-1,41.4992,591.7514)"
       style="font-variant:normal;font-weight:normal;font-size:8.5px;font-family:AdvOT662f79ed;-inkscape-font-specification:AdvOT662f79ed;writing-mode:lr-tb;fill:#000000;fill-opacity:1;fill-rule:nonzero;stroke:none"
       id="text510"><tspan
         x="0 4.862 12.2995 15.7505 20.1705 24.5905 27.327499 57.4855 62.3475 64.378998 69.240997 74.102997 81.583 83.792999 88.654999 93.516998 95.5485 100.4105 127.8485 132.71049 134.742 139.604 144.466 151.88651 154.0965 158.9585 163.8205 165.85201 170.714"
         y="0"
         sodipodi:role="line"
         id="tspan508">17years5,261(92.4)7,580(93.4)</tspan></text>
<text
       transform="matrix(1,0,0,-1,236.0132,591.7514)"
       style="font-variant:normal;font-weight:normal;font-size:8.5px;font-family:AdvOT23cd0920;-inkscape-font-specification:AdvOT23cd0920;writing-mode:lr-tb;fill:#000000;fill-opacity:1;fill-rule:nonzero;stroke:none"
       id="text514"><tspan
         x="0 4.862 7.072 11.934 16.796 35.436501 40.2985 42.508499 47.370499 52.232498 59.703999 62.355999 67.218002 69.428001 74.290001 79.152 84.014 88.791 93.653 95.862999 100.725 105.587 110.449 122.128 126.99 129.2 134.062 138.924 146.39549 149.0475 153.9095 156.11951 160.98151 165.84351 170.70551 175.4825 180.3445 182.5545 187.4165 192.2785 197.1405 208.8195 213.6815 215.89149 220.75349 225.61549 233.08701 235.739 240.601 242.811 247.673 252.535 257.397 262.17401 267.03601 269.246 274.108 278.97 283.832"
         y="0"
         sodipodi:role="line"
         id="tspan512">0.0280.880(0.850,0.912)0.925(0.893,0.959)0.910(0.862,0.959)</tspan></text>
<text
       transform="matrix(1,0,0,-1,36,577.2471)"
       style="font-variant:normal;font-weight:normal;font-size:7.99989986px;font-family:AdvOTb05c7e4a;-inkscape-font-specification:AdvOTb05c7e4a;writing-mode:lr-tb;fill:#000000;fill-opacity:1;fill-rule:nonzero;stroke:none"
       id="text518"><tspan
         x="0 5.1599355 9.3198833 11.735853 15.815803"
         y="0"
         sodipodi:role="line"
         id="tspan516">Note:</tspan></text>
<text
       transform="matrix(1,0,0,-1,56.183748,577.2471)"
       style="font-variant:normal;font-weight:normal;font-size:7.99989986px;font-family:AdvOT662f79ed;-inkscape-font-specification:AdvOT662f79ed;writing-mode:lr-tb;fill:#000000;fill-opacity:1;fill-rule:nonzero;stroke:none"
       id="text522"><tspan
         x="0 4.7439408 8.8238897 10.655867 14.903813 17.231785 21.391733 25.055687 31.575605 33.407581 37.735527 41.983475 43.815453 47.479408 51.639355 54.055325 58.111275 64.175201 67.839149 70.255119 74.41507 76.831039 78.663017 82.326973 84.742943 86.574921 90.238869 94.398819 98.590767 102.25472 104.0867 107.99865 112.3266"
         y="0"
         sodipodi:role="line"
         id="tspan520">Boldfaceindicatesstatisticalsigni</tspan></text>
<text
       transform="matrix(1,0,0,-1,170.31032,577.2471)"
       style="font-variant:normal;font-weight:normal;font-size:7.99989986px;font-family:'AdvOT662f79ed +fb';-inkscape-font-specification:'AdvOT662f79ed +fb';writing-mode:lr-tb;fill:#000000;fill-opacity:1;fill-rule:nonzero;stroke:none"
       id="text526"><tspan
         x="0"
         y="0"
         id="tspan524">ﬁ</tspan></text>
<text
       transform="matrix(1,0,0,-1,174.11027,577.2471)"
       style="font-variant:normal;font-weight:normal;font-size:7.99989986px;font-family:AdvOT662f79ed;-inkscape-font-specification:AdvOT662f79ed;writing-mode:lr-tb;fill:#000000;fill-opacity:1;fill-rule:nonzero;stroke:none"
       id="text530"><tspan
         x="0 3.6639543 7.8239021 12.151848 15.815803 22.33572"
         y="0"
         sodipodi:role="line"
         id="tspan528">cance(</tspan></text>
<text
       transform="matrix(1,0,0,-1,198.54197,577.2471)"
       style="font-variant:normal;font-weight:normal;font-size:7.99989986px;font-family:AdvOTb05c7e4a;-inkscape-font-specification:AdvOTb05c7e4a;writing-mode:lr-tb;fill:#000000;fill-opacity:1;fill-rule:nonzero;stroke:none"
       id="text534"><tspan
         x="0"
         y="0"
         id="tspan532">p</tspan></text>
<text
       transform="matrix(1,0,0,-1,202.73392,577.2471)"
       style="font-variant:normal;font-size:7.99989986px;font-family:AdvEls;-inkscape-font-specification:AdvEls-ent4;writing-mode:lr-tb;fill:#000000;fill-opacity:1;fill-rule:nonzero;stroke:none"
       id="text538"><tspan
         x="0"
         y="0"
         id="tspan536">o</tspan></text>
<text
       transform="matrix(1,0,0,-1,210.55782,577.2471)"
       style="font-variant:normal;font-weight:normal;font-size:7.99989986px;font-family:AdvOT662f79ed;-inkscape-font-specification:AdvOT662f79ed;writing-mode:lr-tb;fill:#000000;fill-opacity:1;fill-rule:nonzero;stroke:none"
       id="text542"><tspan
         x="0 4.575943 6.4879189 11.063862 15.639805 17.719778"
         y="0"
         sodipodi:role="line"
         id="tspan540">0.05).</tspan></text>
<text
       transform="matrix(1,0,0,-0.88877963,36,571.8046)"
       style="font-variant:normal;font-weight:normal;font-size:5.99980021px;font-family:AdvOT662f79ed;-inkscape-font-specification:AdvOT662f79ed;writing-mode:lr-tb;fill:#000000;fill-opacity:1;fill-rule:nonzero;stroke:none"
       id="text546"><tspan
         x="0"
         y="0"
         id="tspan544">a</tspan></text>
<text
       transform="matrix(1,0,0,-1,39.3449,568.2896)"
       style="font-variant:normal;font-weight:normal;font-size:7.99989986px;font-family:AdvOT662f79ed;-inkscape-font-specification:AdvOT662f79ed;writing-mode:lr-tb;fill:#000000;fill-opacity:1;fill-rule:nonzero;stroke:none"
       id="text550"><tspan
         x="0 4.495944 8.7438908 11.319859 14.895814 16.727791 20.303745 24.463694 28.687641 31.103611 32.935589 39.431507 43.591454 49.60738 53.767326 56.343296 62.871216 66.535172 70.695114 72.527092 76.191048 80.438995 82.270973 86.430916 88.846886 93.006836 99.606758 101.93472 104.5107 108.59064 117.46253 121.71048 123.54246 127.20641 130.87036 135.11832 139.17426 141.75023 145.66219 149.82213"
         y="0"
         sodipodi:role="line"
         id="tspan548">Survivaltimesarecalculatedfromdischarge.</tspan></text>
<text
       transform="matrix(1,0,0,-0.88877963,36,562.8471)"
       style="font-variant:normal;font-weight:normal;font-size:5.99980021px;font-family:AdvOT662f79ed;-inkscape-font-specification:AdvOT662f79ed;writing-mode:lr-tb;fill:#000000;fill-opacity:1;fill-rule:nonzero;stroke:none"
       id="text554"><tspan
         x="0"
         y="0"
         id="tspan552">b</tspan></text>
<text
       transform="matrix(1,0,0,-1,39.4583,559.2755)"
       style="font-variant:normal;font-weight:normal;font-size:7.99989986px;font-family:AdvOT662f79ed;-inkscape-font-specification:AdvOT662f79ed;writing-mode:lr-tb;fill:#000000;fill-opacity:1;fill-rule:nonzero;stroke:none"
       id="text558"><tspan
         x="0 4.575943 8.8238897 10.655867 12.399845 16.063799 20.311747 24.559692 28.631641 31.207609 35.367558 42.007477 45.671429 49.751377 56.247295 60.495243 64.65519 67.231163 69.063133 72.727089 76.703041 83.44696 87.526909 92.23085 95.894798 98.470772 102.71872 106.96666 113.48658 119.9825 124.06245 126.63842 129.05438 133.21434 135.04631 136.8783 139.29427 144.8942 146.72617 153.39809 157.06204 161.14198 165.38994 169.71788 173.38184 177.54178 179.37376 183.53371 190.13362 193.79758 200.2935 204.37344 208.2854 212.44534 215.02132 221.02924 225.18918 229.51714 236.10905 240.437 244.51694 248.84489 250.58887 254.25282 258.33276 262.58072 266.90866 270.57263 274.66055 276.49255 280.6525 287.30042 290.96436 297.4603 301.54022 305.45218 309.61212 312.18811 315.75604"
         y="0"
         sodipodi:role="line"
         id="tspan556">Chi-squaredcomparisonofcrudemortalityincounseledsmokersandnon-counseledsmokers.</tspan></text>
<text
       transform="matrix(1,0,0,-0.88877963,36,553.8329)"
       style="font-variant:normal;font-weight:normal;font-size:5.99980021px;font-family:AdvOT662f79ed;-inkscape-font-specification:AdvOT662f79ed;writing-mode:lr-tb;fill:#000000;fill-opacity:1;fill-rule:nonzero;stroke:none"
       id="text562"><tspan
         x="0"
         y="0"
         id="tspan560">c</tspan></text>
<text
       transform="matrix(1,0,0,-1,39.0047,550.2612)"
       style="font-variant:normal;font-weight:normal;font-size:7.99989986px;font-family:AdvOT662f79ed;-inkscape-font-specification:AdvOT662f79ed;writing-mode:lr-tb;fill:#000000;fill-opacity:1;fill-rule:nonzero;stroke:none"
       id="text566"><tspan
         x="0 5.0799365 9.9118757 15.927801 19.591755 23.671703 30.167624 34.415569 38.57552 41.151485 42.983463 47.223412 53.575329 56.151299 57.983276 61.647228 67.919151 71.9991 76.703041 80.950989 85.110939 89.270882 91.686852 98.302773 100.13475 106.86266 109.43863 113.59858 117.26254 119.09451 123.34246 125.17444 129.33438 133.66232 136.07829 142.07022 146.15018 150.85411 154.51807 161.01399 165.09393 169.00589 170.83786 175.16582 179.07776 180.73373 184.39769 188.55765 192.2216 195.88554 200.0455 202.46147 204.29344 208.3734 215.02931 218.69327 222.77321 227.02116 231.34911 235.01306 239.173 241.00499 242.83696 247.16492 253.41283 255.8288 262.31671 266.64465 270.72461 275.05255 276.79654 279.3725 283.53247 287.19641 289.02838 293.27634 295.02832 299.18826 303.5162 305.93219 309.59613"
         y="0"
         sodipodi:role="line"
         id="tspan564">HRscomparingriskofdeathinrecipientsofsmoking-cessationcounselingtonon-recipients.</tspan></text>
<text
       transform="matrix(1,0,0,-0.88877963,36,544.8187)"
       style="font-variant:normal;font-weight:normal;font-size:5.99980021px;font-family:AdvOT662f79ed;-inkscape-font-specification:AdvOT662f79ed;writing-mode:lr-tb;fill:#000000;fill-opacity:1;fill-rule:nonzero;stroke:none"
       id="text570"><tspan
         x="0"
         y="0"
         id="tspan568">d</tspan></text>
<text
       transform="matrix(1,0,0,-1,39.4583,541.2471)"
       style="font-variant:normal;font-weight:normal;font-size:7.99989986px;font-family:AdvOT662f79ed;-inkscape-font-specification:AdvOT662f79ed;writing-mode:lr-tb;fill:#000000;fill-opacity:1;fill-rule:nonzero;stroke:none"
       id="text574"><tspan
         x="0 4.3279457 8.5758924 10.319871 14.567818 18.231771 20.647741 24.71969 32.255596 34.583569 38.663517 44.503445 48.751392 52.911339 59.407257 63.487206 67.399155 69.975128 74.039078 78.287018 82.534966 84.366943 88.030899 94.958817 97.038788 101.19874 105.11069 109.27064 114.40657 118.31852 122.47847 126.80641 131.05437 135.21431 137.79028 142.92621 145.50218 149.66212 153.32608 157.48604 162.65396 166.81392 168.81389 176.48579 180.14975 184.22969 188.47765"
         y="0"
         sodipodi:role="line"
         id="tspan572">Adjustedfordemographics(age,gender,race,ZIPcode</tspan></text>
<text
       transform="matrix(1,0,0,-1,238.27181,541.2471)"
       style="font-variant:normal;font-weight:normal;font-size:7.99989986px;font-family:AdvOT662f79ed;-inkscape-font-specification:AdvOT662f79ed;writing-mode:lr-tb;fill:#000000;fill-opacity:1;fill-rule:nonzero;stroke:none"
       id="text586"><tspan
         x="0 1.8319771 5.9919252 9.5678806 13.727828 18.823765 25.319683 29.479631 33.727577 35.559555 39.719505 47.279408 51.527355 55.607304 59.855251 63.519207 67.679153 71.927101 75.911049 77.743027 85.262932 87.09491 91.422859 95.086815 99.166763 105.66268 113.03859 117.28654 121.44648 124.02245 127.6864 131.84636 136.1743 138.59027 140.42224 142.25423 146.41417 148.41414 153.63008 160.12599 164.28595 168.53389 170.36588 174.02983 178.18977 183.22171 187.46965 189.30164 192.96559 195.38156 199.4615 202.03748 208.5094 210.58937 214.83731 216.6693 220.82924 225.07718 229.23714 231.65311 235.81305 239.47701 244.62094 248.8689 252.11685 256.36481 260.52475 263.10071 265.51669 269.67664 274.00458 277.55652 279.38852 283.46844 287.79642"
         y="0"
         sodipodi:role="line"
         id="tspan580">levelmedianhouseholdincomepercentile),medicalhistory(diabetes,hypertension,</tspan><tspan
         x="-198.82152 -194.74156 -190.49362 -186.33366 -182.66972 -180.83774 -178.42177 -175.17381 -171.26985 -167.02191 -164.44594 -162.61397 -158.53401 -153.98207 -149.65413 -143.2382 -141.23824 -137.31828 -132.74234 -127.66241 -123.66245 -119.7425 -115.16656 -110.16663 -105.75068 -100.59074 -96.670792 -93.006836 -88.846886 -86.27092 -82.110977 -77.863029 -75.287056 -71.207108 -67.631157 -63.471207 -59.879253 -56.215298 -51.96735 -50.135372 -45.975426 -41.399483 -37.239536 -33.575581 -29.911627 -28.079649 -23.831701 -19.671755 -15.343808 -12.927838 -9.0318871 -4.8719392 -0.54399318 5.7679281 10.015875 14.175823 16.751791 18.583767 22.831715 27.079662 31.239609 33.719578 37.879528 41.767479 45.343433 49.50338 53.167336 56.831291 61.079235 62.911213 67.071159 71.647102 75.89505 77.727028 81.390984 85.550934 89.710876 93.374832 97.534782 99.614754 103.5107 107.83865 114.25457 118.24652 121.91048 126.07043 129.64638 133.80632 136.38229 138.21428 140.63025 145.91017 147.99014 152.99008 154.82207 156.65404 158.48602 160.31799 166.54991 170.21387 172.04585 176.2058 179.86975 183.53371 187.46965 191.79761 198.21352 202.20547 204.03745 208.1174 211.78136 215.9413 218.35727 220.18925 224.2692 228.59714 232.4771 236.97304 240.80499 242.54897 246.70892 248.54089 252.70084 256.27679 260.43674 262.85272 264.68469 268.76465 275.05255 279.38049 285.79642 287.79642"
         y="8.9598885"
         sodipodi:role="line"
         id="tspan582">obesity,priorAMI,CHF,COPD,cerebrovascularaccident,andperipheralvasculardisease),AMIseverity(Killipclass,AMIlocation,ST-elevationAMI,</tspan><tspan
         x="-198.82152 -194.57356 -190.32562 -188.49364 -184.8297 -179.03777 -174.95781 -168.89389 -164.73395 -160.48599 -153.99008 -152.1581 -148.49414 -144.83018 -142.99821 -139.01427 -134.68631 -131.02237 -127.35841 -124.11045 -120.4465 -118.03053 -113.95058 -112.1186 -110.38262 -104.99869 -100.75074 -98.918762 -94.838814 -90.758865 -84.814941 -80.566994 -77.991028 -73.831078 -70.167122 -66.503166 -62.255222 -59.679253 -53.863327 -49.783379 -43.719452 -39.559505 -35.311558 -28.815639 -26.983664 -23.319708 -19.655754 -17.927776 -13.847827 -9.5198812 -7.4399071 -3.8079524 0.51999348 6.9359131 10.647867 13.063837 17.311783 21.471731 24.047699 28.207647 32.455593 34.287571 38.447521 43.759453 46.335423 50.495369 54.159325 58.319271 60.151249 63.727203 67.887154 73.807076 75.887054 80.302994 84.878937 86.878914 90.454872 95.030815 99.358757 104.0227 110.94261 116.19054 118.02252 120.43849 124.68644 126.51842 132.48634 137.06229 143.37421 147.62216 151.7821 155.03006 160.38199 164.46194 168.4859 172.64584 176.89378 183.38971 185.22168 188.88564 192.54959 194.38158 198.46152 202.78946"
         y="17.975775"
         sodipodi:role="line"
         id="tspan584">pulseonadmission,systolicbloodpressureonadmission),AMItherapiesreceived(PCI/CABGwithin30daysofadmission,</tspan></text>
<text
       transform="matrix(1,0,0,-1,444.62924,523.27132)"
       style="font-variant:normal;font-weight:normal;font-size:7.99989986px;font-family:'AdvOT662f79ed +fb';-inkscape-font-specification:'AdvOT662f79ed +fb';writing-mode:lr-tb;fill:#000000;fill-opacity:1;fill-rule:nonzero;stroke:none"
       id="text590"><tspan
         x="0"
         y="0"
         id="tspan588">ﬁ</tspan></text>
<text
       transform="matrix(1,0,0,-1,448.42919,523.27132)"
       style="font-variant:normal;font-weight:normal;font-size:7.99989986px;font-family:AdvOT662f79ed;-inkscape-font-specification:AdvOT662f79ed;writing-mode:lr-tb;fill:#000000;fill-opacity:1;fill-rule:nonzero;stroke:none"
       id="text598"><tspan
         x="0 4.2479467 6.8239145 8.6558914 12.983838 17.063787 18.895763 22.143723 24.559692 26.39167 31.751602 34.167572 38.41552 42.575466 45.151436 49.311382 53.55933 58.455269 62.703217 66.951164 69.52713 71.359108 75.687057"
         y="0"
         sodipodi:role="line"
         id="tspan592">brinolytictherapyduring</tspan><tspan
         x="-408.97888 -406.56293 -402.31497 -395.48306 -393.65109 -389.32312 -385.0752 -380.91525 -374.90732 -370.74738 -366.49942 -360.00351 -358.17151 -354.50757 -350.84363 -349.01163 -344.9317 -340.60373 -336.01981 -331.85986 -327.53189 -320.59598 -316.43604 -309.94012 -305.86017 -301.53223 -294.91632 -292.50034 -288.25241 -284.17245 -280.50848 -273.66058 -269.50064 -267.66864 -265.83667 -261.92471 -260.09274 -255.8448 -254.01282 -249.85287 -245.26094 -241.10098 -237.43703 -233.18909 -231.3571 -228.78114 -226.94916 -219.97325 -215.8933 -208.86139 -204.70145 -200.45349 -193.95758 -192.1256 -188.46164 -184.79768 -182.96571 -178.88576 -171.90186 -167.7419 -163.41396 -156.42204 -152.1741 -148.01414 -145.59818 -141.43823 -139.69426 -135.4463 -133.61433 -129.53438 -125.97443 -122.06248 -117.90253 -115.32656 -108.96664 -104.88669 -97.798775 -93.638832 -89.390884 -82.894966 -81.062988 -77.399033 -73.735077 -72.007103 -67.927155 -63.599205 -61.51923 -56.871288 -52.711342 -48.383396 -41.447483 -37.199535 -33.119587 -29.455631 -25.207685 -23.375708 -20.959738 -16.799789 -12.303846 -8.6398916 -4.3919449 -0.2319971 2.3439708 6.5039186 10.167872 12.583842 16.743792 19.319759 21.151735 24.815689 27.151661 28.983637 32.647591 38.999512 41.079487 45.239433 49.567379 53.895325 58.143272 62.303223 66.839165 71.167107 77.583031"
         y="9.0158873"
         sodipodi:role="line"
         id="tspan594">theindexadmission,andamongthoseeligible,aspirinonadmissionandbeta-blockersonadmission),andhospitalcharacteristics(annualAMI</tspan><tspan
         x="-408.97888 -405.40292 -401.323 -399.491 -395.24307 -388.74713 -384.58719 -380.34726 -378.51526 -374.43533 -370.77136 -366.61142 -364.19543 -362.36346 -358.28351 -353.95557 -349.73163 -345.65167 -340.40375 -336.07581 -331.91586 -329.33987 -325.67593 -321.42798 -319.59601 -315.34805 -311.06812 -306.90817 -302.58023 -295.98831 -293.57233 -289.41238 -285.25244 -281.58847 -277.34055 -275.50854 -271.1806 -264.92468 -261.26074 -258.84476 -254.68481 -252.26884 -248.0209 -244.35695 -242.27698"
         y="18.031775"
         sodipodi:role="line"
         id="tspan596">volume,location,ownership,andteachingstatus).</tspan></text>
<text
       transform="matrix(1,0,0,-0.88877963,36,499.8046)"
       style="font-variant:normal;font-weight:normal;font-size:5.99980021px;font-family:AdvOT662f79ed;-inkscape-font-specification:AdvOT662f79ed;writing-mode:lr-tb;fill:#000000;fill-opacity:1;fill-rule:nonzero;stroke:none"
       id="text602"><tspan
         x="0"
         y="0"
         id="tspan600">e</tspan></text>
<text
       transform="matrix(1,0,0,-1,39.3449,496.2896)"
       style="font-variant:normal;font-weight:normal;font-size:7.99989986px;font-family:AdvOT662f79ed;-inkscape-font-specification:AdvOT662f79ed;writing-mode:lr-tb;fill:#000000;fill-opacity:1;fill-rule:nonzero;stroke:none"
       id="text606"><tspan
         x="0 4.8319397 8.991888 12.655842 16.90379 18.735765 21.151735 28.119648 30.447618 33.023586 37.103535 46.943413 53.439331 57.599281 60.015251 63.679203 67.927155 72.087097 79.599007 83.846954 88.006897 89.838875 95.758804 99.918755 104.2467 108.40665 110.23862 113.48658 117.15054 121.31049 128.2464"
         y="0"
         sodipodi:role="line"
         id="tspan604">Resultsfrommatchedpairanalyses(</tspan></text>
<text
       transform="matrix(1,0,0,-1,169.67927,496.2896)"
       style="font-variant:normal;font-weight:normal;font-size:7.99989986px;font-family:AdvOTb05c7e4a;-inkscape-font-specification:AdvOTb05c7e4a;writing-mode:lr-tb;fill:#000000;fill-opacity:1;fill-rule:nonzero;stroke:none"
       id="text610"><tspan
         x="0"
         y="0"
         id="tspan608">n</tspan></text>
<text
       transform="matrix(1,0,0,-1,173.99122,496.2896)"
       style="font-variant:normal;font-weight:normal;font-size:7.99989986px;font-family:AdvMacMthSyN;-inkscape-font-specification:AdvMacMthSyN;writing-mode:lr-tb;fill:#000000;fill-opacity:1;fill-rule:nonzero;stroke:none"
       id="text614"><tspan
         x="0"
         y="0"
         id="tspan612">¼</tspan></text>
<text
       transform="matrix(1,0,0,-1,180.22314,496.2896)"
       style="font-variant:normal;font-weight:normal;font-size:7.99989986px;font-family:AdvOT662f79ed;-inkscape-font-specification:AdvOT662f79ed;writing-mode:lr-tb;fill:#000000;fill-opacity:1;fill-rule:nonzero;stroke:none"
       id="text620"><tspan
         x="0 4.575943 9.151886 11.063862 15.639805 20.215748 24.791691 26.871664 32.087601 36.66354 40.743492 44.991436 49.319382 52.983337 57.143284 58.975262 63.135212 70.639114 74.799065 79.127014 86.742912 91.070862 95.15081 99.47876 101.22273 104.88669 108.96664 113.21458 117.54253 121.09449 125.25443 127.08641 131.24635 138.83827 142.50221 148.99814 153.07808 156.99004 161.14998 163.72595 170.70187 175.9498 180.10974 182.68571 190.14963 196.64554 200.8055 203.22147 206.88541 211.13336 215.2933 222.80522 224.63719 232.3331 239.813 243.72496 246.30092 250.46088 254.62082 258.86877 265.43668 270.01263 271.92459 279.83649 282.16446 286.32443 289.98837 294.23633 296.0683 300.14825 307.78815 311.8681 319.52402 323.68396 327.59592 335.05981 339.21976 343.5477"
         y="0"
         sodipodi:role="line"
         id="tspan616">10,960).Counseledandnon-counseledsmokerswerematchedinagreedy1:1fashiononageand</tspan><tspan
         x="-140.87823 -136.63029 -134.05432 -129.97438 -125.72643 -121.56648 -117.23853 -113.57458 -111.7426 -109.32663 -103.17471 -99.510757 -95.846802 -91.766853 -89.190887 -85.030937 -81.366982 -76.527046 -72.111099 -69.535133 -65.455185 -61.207233 -57.047287 -52.719341 -49.143387 -47.311409 -44.895439 -38.655518 -34.991562 -31.327608 -27.24766 -24.671692 -20.511744 -13.935825 -8.687891 -4.5279436 -1.9519756 5.1119361 9.0238876 13.183835 17.511782 21.67173 24.247698 28.407644 30.823614 34.983562 42.135475 46.383419 50.047375 51.879353 56.207298 63.05521 67.303162 71.463104 77.959023 82.038971 85.950928 88.526894 92.590843 96.838791 101.08674 102.91872 106.58266 113.16659 115.24656 119.15851 123.31846 127.64641 131.89435 136.05431 138.63026 143.4382 146.01418 150.17412 153.83807 157.99803 162.88597 167.04591 169.04588 176.38179 180.04575 184.1257 188.37364"
         y="9.0158873"
         sodipodi:role="line"
         id="tspan618">propensityscores.Propensityscoresweregeneratedusingdemographics(gender,race,ZIPcode</tspan></text>
<text
       transform="matrix(1,0,0,-1,378.93266,487.27371)"
       style="font-variant:normal;font-weight:normal;font-size:7.99989986px;font-family:AdvOT662f79ed;-inkscape-font-specification:AdvOT662f79ed;writing-mode:lr-tb;fill:#000000;fill-opacity:1;fill-rule:nonzero;stroke:none"
       id="text634"><tspan
         x="0 1.8319771 5.9919252 9.5678806 13.727828 18.479769 24.975687 29.135635 33.383583 35.215561 39.375507 46.599419 50.847363 54.927315 59.175259 62.839214 66.999161 71.247108 75.327057 77.159035 84.302948 86.134926 90.462868 94.126823 98.206772 104.70269 111.7426 115.99055 120.1505 122.72646 126.39042 130.55037 134.87831 137.29428 139.12627 140.95824 145.11818 147.19817"
         y="0"
         sodipodi:role="line"
         id="tspan626">levelmedianhouseholdincomepercentile),</tspan><tspan
         x="-339.58777 -333.09183 -328.93188 -324.68393 -322.85196 -319.18802 -315.02808 -311.46811 -307.22015 -305.38818 -301.72424 -299.30826 -295.2283 -292.65234 -287.7164 -285.63644 -281.38849 -279.55652 -275.39655 -271.14862 -266.98865 -264.57269 -260.41275 -256.74878 -253.13284 -248.88489 -245.63693 -241.38898 -237.22903 -234.65306 -232.23709 -228.07715 -223.74921 -220.08525 -218.25327 -214.17332 -209.93338 -206.24542 -202.16547 -197.91753 -193.75758 -190.09363 -188.26164 -185.84567 -182.59772 -178.97377 -174.72581 -172.14984 -170.31787 -166.23792 -161.96597 -155.55005 -153.55008 -149.89412 -145.31818 -140.23825 -136.2383 -132.60634 -128.0304 -123.03046 -118.61452 -113.45458 -109.81463 -106.15067 -101.99072 -99.414757 -95.254807 -91.006859 -88.430893 -84.350945 -80.774994 -76.615044 -73.023087 -69.359131 -65.111183 -63.279209 -59.119263 -54.823315 -50.663368 -46.999413 -43.335457 -41.503483 -37.255535 -33.095585 -28.767641 -26.351671 -22.735716 -18.575768 -14.247822 -8.2798967 -4.0319495 0.1279984 2.7039661 4.5359435 8.7838898 13.031837 17.191786 19.767754 23.9277 27.495657 31.071611 35.23156 38.895515 42.559467 46.807415 48.639393 52.799339 57.087288 61.335232 63.16721 66.831161 70.991112 75.151062 78.815018 82.878967 84.958939 88.662895 92.990837 99.406761 103.11871 106.78266 110.94261 114.51857 118.67852 121.25449 123.08646 125.50243 130.43837 132.51834 137.51828 139.35027 141.18224 143.01421 144.84619"
         y="9.0158873"
         sodipodi:role="line"
         id="tspan628">medicalhistory(diabetes,hypertension,obesity,priorMI,CHF,COPD,cerebrovascularaccident,andperipheralvasculardisease),AMIseverity(Killip</tspan><tspan
         x="-339.58777 -335.9238 -334.09183 -329.93188 -326.26791 -322.60397 -318.44403 -314.11606 -307.70016 -303.4762 -301.64423 -297.56427 -293.90033 -289.74039 -287.3244 -285.49243 -281.41248 -277.08453 -272.9726 -268.47665 -264.64468 -262.90073 -258.74075 -256.90878 -252.74884 -249.17288 -245.01294 -242.59697 -240.76498 -236.68504 -230.17313 -225.84518 -219.42926 -217.42928 -213.33333 -209.08539 -204.83743 -203.00546 -199.34151 -192.92558 -188.84564 -182.32571 -178.16577 -173.91783 -167.42191 -165.58994 -161.92598 -158.26202 -156.43004 -152.3501 -148.02216 -143.8862 -140.22224 -136.97429 -133.31033 -130.89436 -126.81441 -124.98244 -123.15046 -117.29453 -113.04659 -111.21461 -107.13466 -103.05471 -96.598793 -92.350845 -89.774879 -85.614929 -81.950974 -78.287018 -74.039078 -71.463104 -65.135185 -61.055237 -54.479321 -50.31937 -46.071423 -39.575504 -37.743526 -34.079575 -30.415619 -28.583643 -24.503695 -20.175747 -18.095774 -13.999825 -9.8398771 -5.5119309 0.9679879 5.2959337 11.711854 15.935801 18.35177 22.599718 26.759666 29.335634 33.495583 37.743526 39.575504 43.735455 49.60738 52.183346 56.343296 60.007252 64.167198 65.999176 69.575127 73.735077 80.167 82.246971 86.662918 91.238861 93.238838 96.814789 101.39073 105.71868 110.46262 117.81453 123.06246 124.89444 127.31041 131.55835 133.39034 139.92625 144.5022"
         y="18.031775"
         sodipodi:role="line"
         id="tspan630">class,AMIlocation,ST-elevationAMI,pulseonadmission,systolicbloodpressureonadmission),andAMItherapiesreceived(PCI/CABGwithin30</tspan><tspan
         x="-339.58777 -335.33981 -331.17987 -327.93192 -322.41196 -318.33203 -314.18808 -310.02814 -305.78018 -299.28427 -297.45227 -293.78833 -290.12436 -288.29239 -284.21243 -279.88449"
         y="26.991663"
         sodipodi:role="line"
         id="tspan632">daysofadmission,</tspan></text>
<text
       transform="matrix(1,0,0,-1,102.72811,460.28205)"
       style="font-variant:normal;font-weight:normal;font-size:7.99989986px;font-family:'AdvOT662f79ed +fb';-inkscape-font-specification:'AdvOT662f79ed +fb';writing-mode:lr-tb;fill:#000000;fill-opacity:1;fill-rule:nonzero;stroke:none"
       id="text638"><tspan
         x="0"
         y="0"
         id="tspan636">ﬁ</tspan></text>
<text
       transform="matrix(1,0,0,-1,106.52806,460.28205)"
       style="font-variant:normal;font-weight:normal;font-size:7.99989986px;font-family:AdvOT662f79ed;-inkscape-font-specification:AdvOT662f79ed;writing-mode:lr-tb;fill:#000000;fill-opacity:1;fill-rule:nonzero;stroke:none"
       id="text646"><tspan
         x="0 4.2479467 6.8239145 8.6558914 12.983838 17.063787 18.895763 22.143723 24.559692 26.39167 31.863602 34.279572 38.527519 42.687466 45.263435 49.423382 53.671329 58.735268 62.983212 67.231163 69.807129 71.639107 75.967049 81.638977 84.054947 88.302895 94.278824 96.110802 100.43874 104.68669 108.84664 114.00658 118.16652 122.41447 128.91039 130.74237 134.40633 138.07027 139.90225 143.8862 148.21414 151.9901 156.15005 160.478 166.55792 170.71786 177.21379 181.29373 185.62167 191.3336 193.74957 197.99753 202.07747 205.74142 211.68535 215.84531 217.67728 219.50926 223.4212 225.25319 229.50113 231.33311 235.49306 239.18102 243.34096 247.00491 251.25285 253.08484 255.6608 257.49277 263.6127 267.69266 273.87659 278.03653 282.28448 288.7804 290.61237 294.27634 297.94028 299.77225 303.7562 308.08414 311.86011 316.02005 320.34799 326.42792 330.67587 334.83582 337.25177 341.41174 343.1557 347.40366 349.23563 353.31558 356.87555 360.78748 364.94745 367.52341 373.03534 377.1153 383.24319 387.40317 391.65109 398.14703 399.979 403.64294 407.30692 409.13889 413.21884 417.54678 419.62674"
         y="0"
         sodipodi:role="line"
         id="tspan640">brinolytictherapyduringtheindexadmission,andamongthoseeligible,aspirinonadmission,andbeta-blockersonadmission).</tspan><tspan
         x="-70.527115 -66.199173 -59.783253 -57.783279 -51.815353 -47.655403 -43.991451 -39.743504 -37.327534 -29.079636 -22.583717 -19.335758 -15.255809 -11.591855 -7.4319072 -4.8559394 -0.60799241 1.1359859 5.2959337 11.22386 13.055837 17.383783 19.711754 23.871702 26.44767 30.111624 32.527592 34.35957 38.439518 42.767464 48.751392 53.327332 58.407269 62.407219 68.367142 72.031097 76.111046 80.438995 84.350945 88.510895 92.17485 94.59082 96.422798 99.998749 108.22265 112.4706 116.63054 120.79049 123.36646 129.82237 132.15034 136.3103 138.14227 139.97424 144.2222 146.79817 150.95811 156.91805 161.49399 166.49391 170.90987 176.06979 182.02972 185.69368 189.94162 192.51759 196.59755 200.92549 202.75746 210.48537 214.56532 218.81326 222.47722 224.89319 227.46916 231.7171 235.38106 237.79703 239.629 243.20496 251.42085 255.66881 259.91675 261.74872 268.24466 272.32458 276.65253 280.8125 283.28445 290.65237 294.9003 296.7323 300.39624 304.55618 308.71616 312.3801 316.54004 322.51596 327.59592 332.42786 338.38776 342.63571 346.79565 350.12363 354.28357 356.85953 365.20343 367.77939 371.93936 374.35532 376.18729 380.26724 386.23517 390.65112 395.22705 397.22702 400.80298 405.37894 409.70688 414.45081 419.61075"
         y="9.0158873"
         sodipodi:role="line"
         id="tspan642">AMI,acutemyocardialinfarction;CHF,congestiveheartfailure;COPD,chronicobstructivepulmonarydisease;HR,hazardratio;PCI/CABG,</tspan><tspan
         x="-70.527115 -66.279175 -62.119225 -59.543255 -55.879303 -51.631355 -49.215385 -45.055435 -40.727489 -36.567543 -32.487595 -28.351646 -22.287722 -18.623768 -14.543818 -11.967851 -7.8879013 -3.5599556 0.59999251 3.1759603 8.7758904 10.607867 14.935813 17.351784 21.51173 24.087698 27.663654 31.823603 36.151546 38.567516 40.399494 44.479443 48.743389 52.319347 55.983299 60.063248 62.639217 66.71917 71.047112 75.207062 77.783028 83.382957 87.542908 90.118874 92.534843 96.694794 99.27076 104.87069 109.11864 112.36659 116.61454 120.77449 124.43845 130.43837 134.35033 136.92628 141.08624 143.4142 145.83017 147.66216 151.9901 155.90205"
         y="18.031775"
         sodipodi:role="line"
         id="tspan644">percutaneouscoronaryintervention/coronaryarterybypassgrafting.</tspan></text>
<path
       d="m 272.976,674.759 h 24.491 v 12.529 h -24.491 z"
       style="fill:#ffffff;fill-opacity:1;fill-rule:nonzero;stroke:none"
       id="path648"
       inkscape:connector-curvature="0" /></g></svg>