<?xml version="1.0" encoding="UTF-8" standalone="no"?>
<!-- Created with Inkscape (http://www.inkscape.org/) -->

<svg
   xmlns:dc="http://purl.org/dc/elements/1.1/"
   xmlns:cc="http://creativecommons.org/ns#"
   xmlns:rdf="http://www.w3.org/1999/02/22-rdf-syntax-ns#"
   xmlns:svg="http://www.w3.org/2000/svg"
   xmlns="http://www.w3.org/2000/svg"
   xmlns:sodipodi="http://sodipodi.sourceforge.net/DTD/sodipodi-0.dtd"
   xmlns:inkscape="http://www.inkscape.org/namespaces/inkscape"
   version="1.1"
   id="svg2"
   xml:space="preserve"
   width="793.70135"
   height="1065.8267"
   viewBox="0 0 793.70135 1065.8267"
   sodipodi:docname="table3.svg"
   inkscape:version="0.92.0 r15299"><metadata
     id="metadata8"><rdf:RDF><cc:Work
         rdf:about=""><dc:format>image/svg+xml</dc:format><dc:type
           rdf:resource="http://purl.org/dc/dcmitype/StillImage" /><dc:title></dc:title></cc:Work></rdf:RDF></metadata><defs
     id="defs6"><clipPath
       clipPathUnits="userSpaceOnUse"
       id="clipPath22"><path
         d="M 0.03,799.37 H 595.276 V 0 H 0.03 Z"
         id="path20"
         inkscape:connector-curvature="0" /></clipPath></defs><sodipodi:namedview
     pagecolor="#ffffff"
     bordercolor="#666666"
     borderopacity="1"
     objecttolerance="10"
     gridtolerance="10"
     guidetolerance="10"
     inkscape:pageopacity="0"
     inkscape:pageshadow="2"
     inkscape:window-width="1920"
     inkscape:window-height="988"
     id="namedview4"
     showgrid="false"
     inkscape:zoom="1.771395"
     inkscape:cx="351.9408"
     inkscape:cy="421.7338"
     inkscape:window-x="0"
     inkscape:window-y="27"
     inkscape:window-maximized="1"
     inkscape:current-layer="g10" /><g
     id="g10"
     inkscape:groupmode="layer"
     inkscape:label="fulltext"
     transform="matrix(1.3333333,0,0,-1.3333333,0,1065.8267)"><path
       d="m 28.143,215.374 h 304.474 v 267.06 H 28.143 Z"
       style="fill:#f5e0dc;fill-opacity:1;fill-rule:nonzero;stroke:none"
       id="path2640"
       inkscape:connector-curvature="0" /><g
       id="g2642"
       transform="translate(33.936996,229.798)"><path
         d="M 0,0 H 292.886"
         style="fill:none;stroke:#000000;stroke-width:0.25;stroke-linecap:butt;stroke-linejoin:miter;stroke-miterlimit:10;stroke-dasharray:none;stroke-opacity:1"
         id="path2644"
         inkscape:connector-curvature="0" /></g><path
       d="m 33.937,445.006 h 84.3 v -11.283 h -84.3 z m 84.3,0 h 55.412 v -11.283 h -55.412 z m 55.412,0 h 55.984 v -11.283 h -55.984 z m 55.984,0 h 61.158 v -11.283 h -61.158 z m 61.158,0 h 36.032 V 433.723 H 290.791 Z M 33.937,433.723 h 84.3 V 422.44 h -84.3 z m 84.3,0 h 55.412 V 422.44 h -55.412 z m 55.412,0 h 55.984 V 422.44 h -55.984 z m 55.984,0 h 61.158 V 422.44 h -61.158 z m 61.158,0 h 36.032 V 422.44 H 290.791 Z M 33.937,422.44 h 84.3 v -11.283 h -84.3 z m 84.3,0 h 55.412 v -11.283 h -55.412 z m 55.412,0 h 55.984 v -11.283 h -55.984 z m 55.984,0 h 61.158 v -11.283 h -61.158 z m 61.158,0 h 36.032 V 411.157 H 290.791 Z M 33.937,411.157 h 84.3 v -11.283 h -84.3 z m 84.3,0 h 55.412 v -11.283 h -55.412 z m 55.412,0 h 55.984 v -11.283 h -55.984 z m 55.984,0 h 61.158 v -11.283 h -61.158 z m 61.158,0 h 36.032 V 399.874 H 290.791 Z M 33.937,399.874 h 84.3 v -11.283 h -84.3 z m 84.3,0 h 55.412 v -11.283 h -55.412 z m 55.412,0 h 55.984 v -11.283 h -55.984 z m 55.984,0 h 61.158 v -11.283 h -61.158 z m 61.158,0 h 36.032 V 388.591 H 290.791 Z M 33.937,388.591 h 84.3 v -11.283 h -84.3 z m 84.3,0 h 55.412 v -11.283 h -55.412 z m 55.412,0 h 55.984 v -11.283 h -55.984 z m 55.984,0 h 61.158 v -11.283 h -61.158 z m 61.158,0 h 36.032 V 377.308 H 290.791 Z M 33.937,377.308 h 84.3 v -11.284 h -84.3 z m 84.3,0 h 55.412 v -11.284 h -55.412 z m 55.412,0 h 55.984 v -11.284 h -55.984 z m 55.984,0 h 61.158 v -11.284 h -61.158 z m 61.158,0 h 36.032 V 366.024 H 290.791 Z M 33.937,354.741 h 84.3 v -19.783 h -84.3 z m 84.3,0 h 55.412 v -19.783 h -55.412 z m 55.412,0 h 55.984 v -19.783 h -55.984 z m 55.984,0 h 61.158 v -19.783 h -61.158 z m 61.158,0 h 36.032 V 334.958 H 290.791 Z M 33.937,334.958 h 84.3 v -11.283 h -84.3 z m 84.3,0 h 55.412 v -11.283 h -55.412 z m 55.412,0 h 55.984 v -11.283 h -55.984 z m 55.984,0 h 61.158 v -11.283 h -61.158 z m 61.158,0 h 36.032 V 323.675 H 290.791 Z M 33.937,312.392 h 84.3 v -11.283 h -84.3 z m 84.3,0 h 55.412 v -11.283 h -55.412 z m 55.412,0 h 55.984 v -11.283 h -55.984 z m 55.984,0 h 61.158 v -11.283 h -61.158 z m 61.158,0 h 36.032 V 301.109 H 290.791 Z M 33.937,301.109 h 84.3 v -11.284 h -84.3 z m 84.3,0 h 55.412 v -11.284 h -55.412 z m 55.412,0 h 55.984 v -11.284 h -55.984 z m 55.984,0 h 61.158 v -11.284 h -61.158 z m 61.158,0 h 36.032 V 289.825 H 290.791 Z M 33.937,278.542 h 84.3 v -19.783 h -84.3 z m 84.3,0 h 55.412 v -19.783 h -55.412 z m 55.412,0 h 55.984 v -19.783 h -55.984 z m 55.984,0 h 61.158 v -19.783 h -61.158 z m 61.158,0 h 36.032 v -19.783 h -36.032 z"
       style="fill:#ffffff;fill-opacity:1;fill-rule:nonzero;stroke:none"
       id="path2646"
       inkscape:connector-curvature="0" /><g
       id="g2648"
       transform="translate(33.936996,457.423)"><path
         d="m 0,0 h 84.3 55.412 55.984 61.158 36.032"
         style="fill:none;stroke:#000000;stroke-width:0.25;stroke-linecap:butt;stroke-linejoin:miter;stroke-miterlimit:10;stroke-dasharray:none;stroke-opacity:1"
         id="path2650"
         inkscape:connector-curvature="0" /></g><text
       transform="matrix(1,0,0,-1,121.072,470.459)"
       style="font-variant:normal;font-weight:bold;font-size:7px;font-family:Shaker2Lancet;-inkscape-font-specification:Shaker2Lancet-Bold;writing-mode:lr-tb;fill:#000000;fill-opacity:1;fill-rule:nonzero;stroke:none"
       id="text2668"><tspan
         x="0 3.3740001 7.8119998 11.396 12.684 16.400999 18.046 21.714001 24.395 25.500999 29.084999 33.341 36.952999"
         y="0"
         sodipodi:role="line"
         id="tspan2652">EUC plus CAP </tspan><tspan
         x="0 2.2679999 6.0479999 9.5340004 12.908 16.806999 20.705999"
         y="8.4980001"
         sodipodi:role="line"
         id="tspan2654">(n=188)</tspan><tspan
         x="55.411999 58.785999 63.223999 66.807999 68.096001 71.330002 72.974998 76.628998 80.408997 83.580002"
         y="0"
         sodipodi:role="line"
         id="tspan2656">EUC alone </tspan><tspan
         x="55.411999 57.68 61.459999 64.945999 68.32 72.219002 76.125"
         y="8.4980001"
         sodipodi:role="line"
         id="tspan2658">(n=189)</tspan><tspan
         x="111.398 117.082 120.253 123.487 127.267 128.492 132.216 133.97301 136.14301 138.313 141.48399 143.79401 146.965 150.745 153.53101 156.702"
         y="0"
         sodipodi:role="line"
         id="tspan2660">Mean diﬀ erence </tspan><tspan
         x="111.398 113.666 117.572 121.072 126.098 127.204 130.78799 132.56599"
         y="8.4980001"
         sodipodi:role="line"
         id="tspan2662">(95% CI)</tspan><tspan
         x="172.55701 176.274 177.562 180.985 184.21899 185.864 189.532"
         y="0"
         sodipodi:role="line"
         id="tspan2664">p value</tspan><tspan
         x="-84.293999 -79.834999 -76.664001 -73.43 -71.785004 -69.146004 -65.421997 -64.134003 -61.452999 -58.106998 -55.425999 -52.786999 -49.616001 -43.855 -42.567001 -39.780998 -36.126999 -33.445999 -30.806999 -28.125999 -26.837999 -24.57 -20.839001"
         y="22.049999"
         sodipodi:role="line"
         id="tspan2666">Health system costs ($)</tspan></text>
<text
       transform="matrix(1,0,0,-1,36.778,437.125)"
       style="font-variant:normal;font-weight:normal;font-size:7px;font-family:Shaker2Lancet;-inkscape-font-specification:Shaker2Lancet-Regular;writing-mode:lr-tb;fill:#000000;fill-opacity:1;fill-rule:nonzero;stroke:none"
       id="text2684"><tspan
         x="0 3.437 7.7210002 11.284 12.488 15.967 19.509001 22.169001 24.514 28.056 30.184 31.507 34.167 37.709 41.299999 43.82 47.306 48.804001 51.148998 54.201 56.546001 58.134998 61.676998 65.267998 93.660004 97.237 100.464 101.787 103.957 107.128 110.516 147.511 151.088 154.875 156.198 158.368 161.763 200.24899 202.895 206.472 209.86 211.183 213.353 215.99899 219.394 220.528 222.873 226.41499 227.73801 230.909 262.39499 266.01401 267.547 270.71799"
         y="0"
         sodipodi:role="line"
         id="tspan2670">PHC doctor consultations$7 (12)$9 (5)–$2 (–5 to 1)0·11</tspan><tspan
         x="0 4.2839999 7.8260002 10.346 13.818 15.407 17.752001 20.804001 22.302 23.415001 26.893999 30.436001 33.096001 35.441002 38.983002 41.111 42.342999 45.002998 48.544998 52.136002 54.655998 58.141998 59.639999 61.985001 65.037003 67.382004 68.971001 72.513 76.103996 93.505997 97.083 100.457 101.78 103.95 107.121 110.509 147.924 151.50101 154.875 156.198 158.368 162.155 200.01801 202.664 206.241 209.86 211.183 213.353 215.99899 219.38699 220.521 222.866 226.408 227.731 231.119 262.39499 266.01401 267.547 270.77399"
         y="11.284"
         sodipodi:role="line"
         id="tspan2672">Hospital doctor consultations$3 (12)$3 (9)–$0 (–2 to 2)0·77</tspan><tspan
         x="0 4.2839999 7.8260002 10.346 13.818 15.407 17.752001 20.804001 22.302 23.625 26.677 30.156 35.693001 37.282001 39.801998 42.321999 43.910999 47.452999 51.043999 90.342003 93.918999 97.089996 100.464 101.787 103.957 107.744 111.132 144.75301 148.33 151.50101 154.875 156.198 158.368 161.763 165.571 202.664 206.241 209.86 211.183 213.353 215.99899 219.17 222.978 224.112 226.457 229.99899 231.32201 234.493 238.21001 262.39499 266.01401 267.547 271.341"
         y="22.568001"
         sodipodi:role="line"
         id="tspan2674">Hospital admissions$13 (92)$13 (56)$0 (–16 to 14)0·89</tspan><tspan
         x="0 2.9890001 6.0409999 9.4919996 13.034 15.162 18.214001 20.559 24.101 26.229 29.225 30.358999 32.703999 35.763 38.283001 40.627998 93.169998 96.747002 100.464 101.787 103.957 107.744 147.49001 151.067 154.875 156.198 158.368 161.756 164.927 200.24899 202.895 206.472 209.86 211.183 213.353 215.99899 219.80701 220.94099 223.286 226.828 228.151 231.77 262.39499 266.01401 267.547 271.16599"
         y="33.852001"
         sodipodi:role="line"
         id="tspan2676">Laboratory tests$4 (9)$6 (21)–$2 (–6 to 0)0·08</tspan><tspan
         x="0 5.4320002 8.4910002 11.97 13.559 16.219 17.808001 21.399 24.458 93.169998 96.747002 100.464 101.787 103.957 107.128 110.747 148.071 151.64799 154.875 156.198 158.368 161.539 165.33299 200.263 202.909 206.48599 209.86 211.183 213.353 215.99899 219.226 220.36 222.705 226.24699 227.57001 230.741 262.39499 266.01401 267.547 271.16599"
         y="45.136002"
         sodipodi:role="line"
         id="tspan2678">Medicines$4 (10)$7 (18)–$3 (–7 to 1)0·02</tspan><tspan
         x="0 3.22 6.7620001 9.1070004 12.159 13.657 14.98 18.452 21.938 25.389 26.886999 28.476 31.136 32.459 36.007999 39.067001 42.118999 43.617001 45.962002 49.511002 51.834999 54.494999 57.547001 59.674999 62.734001 64.056999 66.717003 70.259003 72.778999 75.124001 89.893997 93.471001 96.845001 100.464 101.787 103.957 107.128 110.747 114.464 144.13 147.707 151.08099 154.875 156.198 158.368 161.595 165.403 199.843 202.489 206.06599 209.86 211.183 213.353 215.99899 219.38699 223.19501 224.32899 226.674 230.216 231.539 234.71001 237.881 262.39499 266.01401 267.547 271.26401"
         y="56.419998"
         sodipodi:role="line"
         id="tspan2680">Total public health-care costs$30 (104)$38 (76)–$8 (–26 to 11)0·40</tspan><tspan
         x="0 3.563 7.665 11.102 12.236 14.581 16.709 19.768 22.82 25.165001 30.702 33.761002 37.352001 90.139 93.716003 97.089996 100.464 101.787 103.957 107.331 110.95 147.679 151.256 199.535 203.112 206.48599 209.86 211.183 213.353 216.741 217.875 220.22 223.76199 225.08501 228.459 232.25301 258.909 262.39499 266.01401 267.547 271.16599 274.785 278.40399"
         y="67.704002"
         sodipodi:role="line"
         id="tspan2682">CAP treatment$33 (30)$0$33 (2 to 38)&lt;0·0001</tspan></text>
<text
       transform="matrix(1,0,0,-1,36.778,358.137)"
       style="font-variant:normal;font-weight:bold;font-size:7px;font-family:Shaker2Lancet;-inkscape-font-specification:Shaker2Lancet-Bold;writing-mode:lr-tb;fill:#000000;fill-opacity:1;fill-rule:nonzero;stroke:none"
       id="text2688"><tspan
         x="0 3.612 5.9219999 9.5760002 13.3 16.968 19.754 22.393 24.15 27.573 29.33 31.969 35.314999 36.603001 39.389 43.042999 45.723999 48.362999 51.043999 52.332001 54.599998 58.331001"
         y="0"
         sodipodi:role="line"
         id="tspan2686">Productivity costs ($)</tspan></text>
<text
       transform="matrix(1,0,0,-1,36.778,346.853)"
       style="font-variant:normal;font-weight:normal;font-size:7px;font-family:Shaker2Lancet;-inkscape-font-specification:Shaker2Lancet-Regular;writing-mode:lr-tb;fill:#000000;fill-opacity:1;fill-rule:nonzero;stroke:none"
       id="text2698"><tspan
         x="0 3.5350001 5.1240001 10.661 13.72 15.043 17.702999 21.245001 23.764999 26.110001 28.629999 29.764 32.109001 35.651001 36.973999 39.493999 42.553001 44.681 47.782001 49.370998 52.030998 55.09 56.293999 59.779999 62.299999 65.359001 67.487 70.007004"
         y="0"
         sodipodi:role="line"
         id="tspan2690">Time costs to service users </tspan><tspan
         x="0 3.052 6.6430001 10.122 11.445 13.538 16.59 22.127001 23.716 25.214001 26.802999 29.862"
         y="8.4980001"
         sodipodi:role="line"
         id="tspan2692">and families</tspan><tspan
         x="90.125 93.702003 97.089996 100.464 101.787 103.957 107.674 110.901 144.34 147.91701 151.088 154.875 156.198 158.368 161.742 165.116 202.56599 206.14301 209.86 211.183 213.353 215.99899 219.80701 220.94099 223.286 226.828 228.151 231.938 262.39499 266.01401 267.547 271.341"
         y="0"
         sodipodi:role="line"
         id="tspan2694">$23 (47)$19 (33)$4 (–6 to 9)0·80</tspan><tspan
         x="0 3.437 5.5650001 9.1070004 12.586 16.072001 18.732 21.077 22.666 25.767 27.356001 29.701 32.696999 34.02 35.518002 39.060001 41.580002 44.099998 47.159 90.117996 93.695 97.089996 100.464 101.787 103.957 107.128 110.299 113.918 143.77299 147.35001 151.158 154.875 156.198 158.368 161.539 164.71001 168.49699 197.295 199.94099 203.51801 206.689 209.86 211.183 213.353 215.99899 219.373 222.60001 223.73399 226.07899 229.621 230.944 234.731 262.39499 266.01401 267.547 270.935"
         y="19.782"
         sodipodi:role="line"
         id="tspan2696">Productivity losses$53 (110)$64 (119)–$11 (–37 to 9)0·24</tspan></text>
<text
       transform="matrix(1,0,0,-1,36.778,315.787)"
       style="font-variant:normal;font-weight:bold;font-size:7px;font-family:Shaker2Lancet;-inkscape-font-specification:Shaker2Lancet-Bold;writing-mode:lr-tb;fill:#000000;fill-opacity:1;fill-rule:nonzero;stroke:none"
       id="text2702"><tspan
         x="0 3.332 6.9860001 9.625 12.859 14.504 15.792 18.577999 22.232 24.913 27.552 30.233 31.521 33.789001 37.52"
         y="0"
         sodipodi:role="line"
         id="tspan2700">Total costs ($)</tspan></text>
<text
       transform="matrix(1,0,0,-1,36.778,304.503)"
       style="font-variant:normal;font-weight:normal;font-size:7px;font-family:Shaker2Lancet;-inkscape-font-specification:Shaker2Lancet-Regular;writing-mode:lr-tb;fill:#000000;fill-opacity:1;fill-rule:nonzero;stroke:none"
       id="text2708"><tspan
         x="0 4.2839999 7.3429999 10.395 11.893 14.238 17.787001 19.110001 21.629999 24.625999 27.146 29.490999 32.549999 38.087002 39.41 42.882 45.941002 48.069 50.589001 54.061001 57.119999 59.779999 62.125 63.714001 66.815002 89.369003 92.945999 96.753998 100.471 101.794 103.964 107.135 110.306 113.477 144.144 147.72099 151.095 154.882 156.205 158.375 161.60201 164.82899 199.507 203.084 206.472 209.867 211.19 213.36 216.755 217.88901 220.23399 223.776 225.099 228.81599 232.533 262.40201 266.021 267.55399 271.173"
         y="0"
         sodipodi:role="line"
         id="tspan2704">Health system perspective$64 (111)$39 (77)$25 (5 to 44)0·01</tspan><tspan
         x="0 3.1989999 6.7410002 9.401 10.99 14.049 16.393999 19.445999 20.944 22.267 25.739 28.798 30.926001 33.445999 36.917999 39.977001 42.637001 44.981998 46.570999 49.672001 86.561996 90.139 93.309998 96.683998 100.471 101.794 103.964 107.352 110.523 113.694 141.575 145.15199 148.323 151.711 154.882 156.205 158.375 161.54601 165.354 169.14101 199.325 202.90199 206.073 209.867 211.19 213.36 216.006 219.177 222.97099 224.105 226.45 229.992 231.315 234.71001 238.49699 262.40201 266.021 267.55399 270.92801"
         y="11.284"
         sodipodi:role="line"
         id="tspan2706">Societal perspective$139 (211)$121 (169)$18 (–18 to 59)0·30</tspan></text>
<text
       transform="matrix(1,0,0,-1,36.778,281.935)"
       style="font-variant:normal;font-weight:bold;font-size:7px;font-family:Shaker2Lancet;-inkscape-font-specification:Shaker2Lancet-Bold;writing-mode:lr-tb;fill:#000000;fill-opacity:1;fill-rule:nonzero;stroke:none"
       id="text2712"><tspan
         x="0 3.5840001 7.2379999 9.9189997 12.495 14.819 17.99 20.16 22.33 25.499599 28.284201 30.921801 32.677399 36.098999 39.2686 43.047199 46.216801 48.8964 51.576 52.863998 56.0966 59.875198 63.1078 64.751404 68.096001 70.775597 73.945198"
         y="0"
         sodipodi:role="line"
         id="tspan2710">Cost-eﬀ ectiveness analyses</tspan></text>
<text
       transform="matrix(1,0,0,-1,36.778,270.651)"
       style="font-variant:normal;font-weight:normal;font-size:7px;font-family:Shaker2Lancet;-inkscape-font-specification:Shaker2Lancet-Regular;writing-mode:lr-tb;fill:#000000;fill-opacity:1;fill-rule:nonzero;stroke:none"
       id="text2720"><tspan
         x="0 4.2839999 8.3859997 10.962 14.399 16.919001 18.242001 21.693001 24.745001 26.334 29.924999 32.984001 96.845001 100.464 101.997 105.385 108.773 112.392 113.715 115.885 119.504 121.037 124.656 127.827 131.201 152.257 155.87601 157.409 160.797 164.185 167.356 168.679 170.849 174.468 176.00101 179.62 182.791 186.179 204.59599 207.242 210.86099 212.394 216.013 219.632 222.80299"
         y="0"
         sodipodi:role="line"
         id="tspan2714">QALYs gained0·220 (0·013)0·221 (0·012)–0·001 </tspan><tspan
         x="195.692 197.862 200.508 204.127 205.66 209.27901 212.89799 216.61501 217.74831 220.09331 223.6353 224.9576 228.5766 230.1096 233.72861 237.3476 240.5186"
         y="8.4980001"
         sodipodi:role="line"
         id="tspan2716">(–0·004 to 0·001)</tspan><tspan
         x="262.39499 266.01401 267.547 270.935"
         y="0"
         sodipodi:role="line"
         id="tspan2718">0·29</tspan></text>
<text
       transform="matrix(1,0,0,-1,33.9372,245.755)"
       style="font-variant:normal;font-weight:normal;font-size:6.5px;font-family:Shaker2Lancet;-inkscape-font-specification:Shaker2Lancet-Regular;writing-mode:lr-tb;fill:#000000;fill-opacity:1;fill-rule:nonzero;stroke:none"
       id="text2726"><tspan
         x="0 3.848 6.6820002 8.8594999 11.6935 12.922 15.756 17.732 20.5725 21.801001 26.942499 29.783001 32.617001 35.9515 37.18 39.195 42.165501 46.0135 48.0285 49.452 50.6805 53.670502 57.603001 60.911499 64.148499 66.988998 70.323502 73.619003 76.453003 79.787498 82.2575 85.098 88.328499 89.440002 92.677002 95.016998 98.253998 101.088 102.479 103.7075 106.1775 109.0115 110.9875 113.828 115.2515 116.311 119.6195 123.4285 126.62 129.85699 133.1655 136.4545 139.6915 143.026 145.366 148.2065 149.5975 150.98849 152.464 155.79849 159.00301 160.23151 162.175 165.464 167.44 168.493 172.302 173.69299 176.16299 179.452 182.7475 186.0365 187.42751 188.65601 191.8475 193.8235 197.1125 200.317 201.70799 204.54849 209.69 212.03 213.45351 214.68201 217.8735 221.8515 225.16 228.397 231.621 233.597 235.07249 240.214 243.048 245.024 247.806 249.0345 252.33 255.1705 258.00449 259.39551 261.573 264.8685 266.09698 268.56699 271.4075 274.742 276.91949 278.89551 281.73599 283.15948"
         y="0"
         sodipodi:role="line"
         id="tspan2722">Data are mean (SD). EUC=enhanced usual care. CAP=Counselling for Alcohol Problems. PHC=primary health centre. </tspan><tspan
         x="0 3.97735 7.7856998 10.17705 13.5759 16.81225 20.0161 23.252451 26.0858 27.476151 28.951 31.12785 33.8507 36.008049 38.8414 42.071251 43.5396 46.775951 49.115299 51.292149 54.132 57.361851 58.590351 59.980701 61.455551 63.398399 66.238251 68.285103 71.066452 73.906303 76.739647 78.474503"
         y="8.5019999"
         sodipodi:role="line"
         id="tspan2724">QALY=quality-adjusted life-year.</tspan></text>
<text
       transform="matrix(1,0,0,-1,33.9372,221.169)"
       style="font-style:italic;font-variant:normal;font-weight:bold;font-size:7px;font-family:Shaker2Lancet;-inkscape-font-specification:Shaker2Lancet-BoldItalic;writing-mode:lr-tb;fill:#000000;fill-opacity:1;fill-rule:nonzero;stroke:none"
       id="text2730"><tspan
         x="0 3.1429999 6.4749999 9.7930002 11.375 14.245 15.379 19.004999"
         y="0"
         sodipodi:role="line"
         id="tspan2728">Table 3:</tspan></text>
<text
       transform="matrix(1,0,0,-1,55.7072,221.169)"
       style="font-variant:normal;font-weight:bold;font-size:7px;font-family:Shaker2Lancet;-inkscape-font-specification:Shaker2Lancet-Bold;writing-mode:lr-tb;fill:#000000;fill-opacity:1;fill-rule:nonzero;stroke:none"
       id="text2734"><tspan
         x="0 3.5840001 7.2379999 9.9189997 12.558 15.239 16.527 20.243999 23.415001 25.725 27.013 30.73 33.901001 36.210999 38.891998 42.546001 46.326 47.613998 50.848 54.627998 58.352001 59.639999 62.425999 66.080002 68.761002 71.336998 73.661003 76.832001 79.001999 81.171997 84.3423 87.127602 89.7659 91.522202 94.944504 98.114799 101.8941 105.0644 107.7447 110.425 111.713 114.9463 118.7256 121.9589 123.6032 126.9485 129.6288 132.7991 135.4794 136.7674 139.0347 142.541 146.36929 149.7426 153.2419 154.52991 156.28619 160.06551 162.7038 165.8741 168.1834 171.96271 175.196 177.8343 179.59061 183.2439 187.02319 190.2565 191.9008 193.12579 196.84911 200.5024 202.1467 203.791 207.02431 209.3336 212.0139 214.2812"
         y="0"
         sodipodi:role="line"
         id="tspan2732">Costs per person and cost-eﬀ ectiveness analyses (2015 international dollars) </tspan></text>
<g
       id="g2736"
       transform="translate(28.143005,482.43401)"><path
         d="M 304.474,0 H 0 v -267.06 h 304.474 z"
         style="fill:none;stroke:#b30838;stroke-width:0.25;stroke-linecap:butt;stroke-linejoin:miter;stroke-miterlimit:4;stroke-dasharray:none;stroke-opacity:1"
         id="path2738"
         inkscape:connector-curvature="0" /></g><g
       id="g2740"
       transform="translate(28.143005,482.43401)"><path
         d="M 0,0 Z"
         style="fill:none;stroke:#b30838;stroke-width:0.25;stroke-linecap:butt;stroke-linejoin:miter;stroke-miterlimit:4;stroke-dasharray:none;stroke-opacity:1"
         id="path2742"
         inkscape:connector-curvature="0" /></g></g></svg>