<?xml version="1.0" encoding="UTF-8" standalone="no"?>
<!-- Created with Inkscape (http://www.inkscape.org/) -->

<svg
   xmlns:dc="http://purl.org/dc/elements/1.1/"
   xmlns:cc="http://creativecommons.org/ns#"
   xmlns:rdf="http://www.w3.org/1999/02/22-rdf-syntax-ns#"
   xmlns:svg="http://www.w3.org/2000/svg"
   xmlns="http://www.w3.org/2000/svg"
   xmlns:sodipodi="http://sodipodi.sourceforge.net/DTD/sodipodi-0.dtd"
   xmlns:inkscape="http://www.inkscape.org/namespaces/inkscape"
   version="1.1"
   id="svg2"
   xml:space="preserve"
   width="793.70135"
   height="1065.8267"
   viewBox="0 0 793.70135 1065.8267"
   sodipodi:docname="table4.svg"
   inkscape:version="0.92.0 r15299"><metadata
     id="metadata8"><rdf:RDF><cc:Work
         rdf:about=""><dc:format>image/svg+xml</dc:format><dc:type
           rdf:resource="http://purl.org/dc/dcmitype/StillImage" /><dc:title></dc:title></cc:Work></rdf:RDF></metadata><defs
     id="defs6"><clipPath
       clipPathUnits="userSpaceOnUse"
       id="clipPath22"><path
         d="M 0.03,799.37 H 595.276 V 0 H 0.03 Z"
         id="path20"
         inkscape:connector-curvature="0" /></clipPath></defs><sodipodi:namedview
     pagecolor="#ffffff"
     bordercolor="#666666"
     borderopacity="1"
     objecttolerance="10"
     gridtolerance="10"
     guidetolerance="10"
     inkscape:pageopacity="0"
     inkscape:pageshadow="2"
     inkscape:window-width="1920"
     inkscape:window-height="988"
     id="namedview4"
     showgrid="false"
     inkscape:zoom="1.771395"
     inkscape:cx="351.9408"
     inkscape:cy="128.17985"
     inkscape:window-x="0"
     inkscape:window-y="27"
     inkscape:window-maximized="1"
     inkscape:current-layer="g10" /><g
     id="g10"
     inkscape:groupmode="layer"
     inkscape:label="fulltext"
     transform="matrix(1.3333333,0,0,-1.3333333,0,1065.8267)"><path
       d="m 28.142,99.004 h 304.475 v 107.8 H 28.142 Z"
       style="fill:#f5e0dc;fill-opacity:1;fill-rule:nonzero;stroke:none"
       id="path2744"
       inkscape:connector-curvature="0" /><g
       id="g2746"
       transform="translate(33.936005,122.429)"><path
         d="M 0,0 H 292.887"
         style="fill:none;stroke:#000000;stroke-width:0.25;stroke-linecap:butt;stroke-linejoin:miter;stroke-miterlimit:10;stroke-dasharray:none;stroke-opacity:1"
         id="path2748"
         inkscape:connector-curvature="0" /></g><g
       id="g2750"
       transform="translate(33.936005,189.314)"><path
         d="M 0,0 H 84.791 187.405 292.887"
         style="fill:none;stroke:#000000;stroke-width:0.25;stroke-linecap:butt;stroke-linejoin:miter;stroke-miterlimit:10;stroke-dasharray:none;stroke-opacity:1"
         id="path2752"
         inkscape:connector-curvature="0" /></g><text
       transform="matrix(1,0,0,-1,121.561,193.849)"
       style="font-variant:normal;font-weight:bold;font-size:7px;font-family:Shaker2Lancet;-inkscape-font-specification:Shaker2Lancet-Bold;writing-mode:lr-tb;fill:#000000;fill-opacity:1;fill-rule:nonzero;stroke:none"
       id="text2756"><tspan
         x="0 4.4576001 7.6272001 10.8598 12.5034 15.141 18.8636 20.1516 22.8312 26.1758 28.8554 31.493 34.662601 40.422199 41.710201 45.4258 48.595402 50.903999 53.583599 57.299198 60.4688 63.253399 65.890999 67.646599 71.068199 102.6018 105.9114 109.564 112.3486 114.1042 117.2738 119.9114 123.144 124.7876 126.0756 129.7912 132.9608 135.26939 137.94901 141.6646 144.8342 147.6188 150.25639 152.01199 155.43359"
         y="0"
         sodipodi:role="line"
         id="tspan2754">Health system perspectiveSocietal perspective</tspan></text>
<text
       transform="matrix(1,0,0,-1,36.77,179.317)"
       style="font-variant:normal;font-weight:normal;font-size:7px;font-family:Shaker2Lancet;-inkscape-font-specification:Shaker2Lancet-Regular;writing-mode:lr-tb;fill:#000000;fill-opacity:1;fill-rule:nonzero;stroke:none"
       id="text2764"><tspan
         x="0 3.563 7.105 9.625 11.97 13.293 16.764999 19.823999 21.952 23.275 25.403 28.462 33.999001 35.588001 38.108002 40.627998 42.216999 45.758999 49.349998 50.673 52.842999 56.419998 95.592003 99.168999 102.557 105.728 108.955 110.278 112.448 115.843 119.462 120.596 122.941 126.483 127.806 130.97701 134.59599 137.823 141.19701 198.80701 202.384 205.55499 208.95 212.569 213.892 216.062 218.70799 222.09599 225.267 229.075 230.209 232.554 236.09599 237.41901 240.59 244.209 247.604 250.77499"
         y="0"
         sodipodi:role="line"
         id="tspan2758">Cost per remission ($)$217 (50 to 1073)$150 (–216 to 1051)</tspan><tspan
         x="0 3.563 7.105 9.625 11.97 13.293 16.764999 19.823999 21.952 23.275 26.865999 30.408001 33.999001 36.323002 39.801998 41.93 43.519001 47.110001 50.161999 53.221001 55.348999 56.672001 58.841999 62.418999 95.109001 98.685997 101.857 105.245 108.962 110.285 112.455 115.101 118.272 121.891 125.279 126.413 128.758 132.3 133.623 136.99699 140.38499 143.78 201.397 204.974 208.76801 212.576 213.899 216.069 219.457 223.244 224.37801 226.72301 230.265 231.588 234.976 238.784 242.179"
         y="12.264"
         sodipodi:role="line"
         id="tspan2760">Cost per non-drinker ($)$124 (–102 to 325)$86 (29 to 265)</tspan><tspan
         x="0 3.563 7.105 9.625 11.97 13.293 16.764999 19.823999 21.952 23.093 27.377001 31.479 34.055 37.716 39.039001 42.490002 45.542 47.131001 50.722 53.780998 57.259998 58.583 60.752998 64.330002 66.5 85.442001 88.087997 91.665001 94.835999 98.063004 98.938004 102.165 105.336 108.955 110.278 112.448 115.094 118.482 121.87 125.489 126.812 130.186 133.994 137.78799 138.922 141.267 144.80901 146.132 149.30299 153.02 156.19099 157.06599 160.44 164.23399 167.608 188.489 191.13499 194.71201 197.883 201.271 202.146 205.534 209.342 212.569 213.892 216.062 218.70799 221.879 225.498 229.215 230.09 233.709 236.936 240.55499 241.689 244.034 247.576 248.899 252.07001 255.444 258.81799 259.69299 263.50101 267.21799 271.01199"
         y="24.528"
         sodipodi:role="line"
         id="tspan2762">Cost per QALY gained ($)*–$17 710 (–220 368 to 141 383)–$12 267 (–104 070 to 133 648)</tspan></text>
<text
       transform="matrix(1,0,0,-1,33.9359,129.886)"
       style="font-variant:normal;font-weight:normal;font-size:6.5px;font-family:Shaker2Lancet;-inkscape-font-specification:Shaker2Lancet-Regular;writing-mode:lr-tb;fill:#000000;fill-opacity:1;fill-rule:nonzero;stroke:none"
       id="text2768"><tspan
         x="0 3.848 6.6820002 8.8594999 11.6935 12.922 15.756 17.732 20.5725 21.801001 26.942499 29.783001 32.617001 35.9515 37.18 39.195 42.711498 45.863998 50.335999 51.389 54.697498 56.199001 58.214001 59.637501 60.866001 63.602501 67.801498 70.641998 73.846497 76.680496 78.858002 80.333504 83.212997 86.053497 87.281998 90.161499 92.995499 94.386497 97.623497 100.464 102.804 104.0325 106.0085 108.849 110.487 112.125 114.9655 117.4355 119.613 120.666 122.8435 126.139 128.97951 130.20799 131.599 134.888 139.308 142.1485 144.1245 145.18401 149.162 152.97099 155.36301 158.7625 159.991 162.33099 164.80099 168.09 170.06599 172.90649 174.13499 176.96899 180.3035 183.534 184.7625 188.097 191.386 193.56351 194.79201 196.183 199.472 203.892 206.7325 208.7085 209.937 212.407 215.696 218.036 220.2135 222.5535"
         y="0"
         sodipodi:role="line"
         id="tspan2766">Data are mean (95% CI). *Negative values reﬂ ect the lower QALY score and not lower costs.</tspan></text>
<text
       transform="matrix(1,0,0,-1,33.9358,113.8)"
       style="font-style:italic;font-variant:normal;font-weight:bold;font-size:7px;font-family:Shaker2Lancet;-inkscape-font-specification:Shaker2Lancet-BoldItalic;writing-mode:lr-tb;fill:#000000;fill-opacity:1;fill-rule:nonzero;stroke:none"
       id="text2772"><tspan
         x="0 3.1429999 6.4749999 9.7930002 11.375 14.245 15.379 19.004999"
         y="0"
         sodipodi:role="line"
         id="tspan2770">Table 4:</tspan></text>
<text
       transform="matrix(1,0,0,-1,55.7058,113.8)"
       style="font-variant:normal;font-weight:bold;font-size:7px;font-family:Shaker2Lancet;-inkscape-font-specification:Shaker2Lancet-Bold;writing-mode:lr-tb;fill:#000000;fill-opacity:1;fill-rule:nonzero;stroke:none"
       id="text2778"><tspan
         x="0 3.5840001 7.2379999 9.9189997 12.495 14.819 17.99 20.16 22.33 25.500299 28.285601 30.923901 32.680199 36.102501 39.2728 43.052101 46.222401 48.902699 51.583 52.870998 56.104301 59.883598 63.116901 64.7612 68.106499 70.786797 73.9571 76.637398 77.9254 80.248703 82.557999 86.211304 91.971603 93.259598 96.982903 100.1532 103.3865 105.0308 107.6691 111.3924 112.6804 115.3607 118.706 121.3863 124.0246 127.1949 132.9552 134.24319 137.4765 141.2558 144.9791 146.26711 148.9474 152.60069 155.386 157.1423 160.31261 162.9509 166.1842 167.82851 169.1165 172.83279 176.0031 178.31239 180.99271 184.709 187.8793 190.6646 193.3029 195.0592 198.48151 201.65179 204.33211 205.6201 207.88741 211.39371 215.222 218.59531 222.0946 223.3826 225.1389 228.9182 231.5565 234.72681 237.0361 240.8154 244.04871 246.687 248.4433 252.0966 255.8759 259.10919 260.75351"
         y="0"
         sodipodi:role="line"
         id="tspan2774">Cost-eﬀ ectiveness analyses from health system and societal perspectives (2015 international </tspan><tspan
         x="-21.77 -18.046 -14.392 -12.747 -11.102 -7.868 -5.5580001 -2.8770001"
         y="9.0019999"
         sodipodi:role="line"
         id="tspan2776">dollars)</tspan></text>
<g
       id="g2780"
       transform="translate(28.141998,206.804)"><path
         d="M 304.475,0 H 0 v -107.8 h 304.475 z"
         style="fill:none;stroke:#b30838;stroke-width:0.25;stroke-linecap:butt;stroke-linejoin:miter;stroke-miterlimit:4;stroke-dasharray:none;stroke-opacity:1"
         id="path2782"
         inkscape:connector-curvature="0" /></g><g
       id="g2784"
       transform="translate(28.141998,206.804)"><path
         d="M 0,0 Z"
         style="fill:none;stroke:#b30838;stroke-width:0.25;stroke-linecap:butt;stroke-linejoin:miter;stroke-miterlimit:4;stroke-dasharray:none;stroke-opacity:1"
         id="path2786"
         inkscape:connector-curvature="0" /></g></g></svg>