<?xml version="1.0" encoding="UTF-8" standalone="no"?>
<!-- Created with Inkscape (http://www.inkscape.org/) -->

<svg
   xmlns:dc="http://purl.org/dc/elements/1.1/"
   xmlns:cc="http://creativecommons.org/ns#"
   xmlns:rdf="http://www.w3.org/1999/02/22-rdf-syntax-ns#"
   xmlns:svg="http://www.w3.org/2000/svg"
   xmlns="http://www.w3.org/2000/svg"
   xmlns:sodipodi="http://sodipodi.sourceforge.net/DTD/sodipodi-0.dtd"
   xmlns:inkscape="http://www.inkscape.org/namespaces/inkscape"
   version="1.1"
   id="svg2"
   xml:space="preserve"
   width="793.70135"
   height="1065.8267"
   viewBox="0 0 793.70135 1065.8267"
   sodipodi:docname="table1.svg"
   inkscape:version="0.92.0 r15299"><metadata
     id="metadata8"><rdf:RDF><cc:Work
         rdf:about=""><dc:format>image/svg+xml</dc:format><dc:type
           rdf:resource="http://purl.org/dc/dcmitype/StillImage" /><dc:title></dc:title></cc:Work></rdf:RDF></metadata><defs
     id="defs6"><clipPath
       clipPathUnits="userSpaceOnUse"
       id="clipPath22"><path
         d="M 0.03,799.37 H 595.276 V 0 H 0.03 Z"
         id="path20"
         inkscape:connector-curvature="0" /></clipPath></defs><sodipodi:namedview
     pagecolor="#ffffff"
     bordercolor="#666666"
     borderopacity="1"
     objecttolerance="10"
     gridtolerance="10"
     guidetolerance="10"
     inkscape:pageopacity="0"
     inkscape:pageshadow="2"
     inkscape:window-width="1920"
     inkscape:window-height="988"
     id="namedview4"
     showgrid="false"
     inkscape:zoom="1.2525654"
     inkscape:cx="596.72226"
     inkscape:cy="234.31501"
     inkscape:window-x="0"
     inkscape:window-y="27"
     inkscape:window-maximized="1"
     inkscape:current-layer="g10" /><g
     id="g10"
     inkscape:groupmode="layer"
     inkscape:label="fulltext"
     transform="matrix(1.3333333,0,0,-1.3333333,0,1065.8267)"><path
       d="M 119.179,48.03 H 332.945 V 405.454 H 119.179 Z"
       style="fill:#f5e0dc;fill-opacity:1;fill-rule:nonzero;stroke:none"
       id="path254"
       inkscape:connector-curvature="0" /><g
       id="g256"
       transform="translate(124.97301,62.453995)"><path
         d="M 0,0 H 202.177"
         style="fill:none;stroke:#000000;stroke-width:0.25;stroke-linecap:butt;stroke-linejoin:miter;stroke-miterlimit:10;stroke-dasharray:none;stroke-opacity:1"
         id="path258"
         inkscape:connector-curvature="0" /></g><path
       d="m 124.973,365.941 h 87.624 v -12.263 h -87.624 z m 87.624,0 h 52.158 v -12.263 h -52.158 z m 52.158,0 H 327.15 V 353.678 H 264.755 Z M 124.973,353.678 h 87.624 v -12.263 h -87.624 z m 87.624,0 h 52.158 v -12.263 h -52.158 z m 52.158,0 H 327.15 V 341.415 H 264.755 Z M 124.973,341.415 h 87.624 v -12.263 h -87.624 z m 87.624,0 h 52.158 v -12.263 h -52.158 z m 52.158,0 H 327.15 V 329.152 H 264.755 Z M 124.973,329.152 h 87.624 v -20.763 h -87.624 z m 87.624,0 h 52.158 v -20.763 h -52.158 z m 52.158,0 H 327.15 V 308.389 H 264.755 Z M 124.973,247.073 h 87.624 V 234.81 h -87.624 z m 87.624,0 h 52.158 V 234.81 h -52.158 z m 52.158,0 H 327.15 V 234.81 H 264.755 Z M 124.973,234.81 h 87.624 v -12.263 h -87.624 z m 87.624,0 h 52.158 v -12.263 h -52.158 z m 52.158,0 H 327.15 V 222.547 H 264.755 Z M 124.973,222.547 h 87.624 v -20.764 h -87.624 z m 87.624,0 h 52.158 v -20.764 h -52.158 z m 52.158,0 H 327.15 V 201.783 H 264.755 Z M 124.973,201.783 h 87.624 V 181.02 h -87.624 z m 87.624,0 h 52.158 V 181.02 h -52.158 z m 52.158,0 H 327.15 V 181.02 H 264.755 Z M 124.973,119.705 h 87.624 v -12.264 h -87.624 z m 87.624,0 h 52.158 v -12.264 h -52.158 z m 52.158,0 H 327.15 V 107.441 H 264.755 Z M 124.973,107.441 h 87.624 V 95.178 h -87.624 z m 87.624,0 h 52.158 V 95.178 h -52.158 z m 52.158,0 H 327.15 V 95.178 H 264.755 Z M 124.973,95.178 h 87.624 V 82.915 h -87.624 z m 87.624,0 h 52.158 V 82.915 h -52.158 z m 52.158,0 H 327.15 V 82.915 h -62.395 z"
       style="fill:#ffffff;fill-opacity:1;fill-rule:nonzero;stroke:none"
       id="path260"
       inkscape:connector-curvature="0" /><g
       id="g262"
       transform="translate(124.97301,379.463)"><path
         d="m 0,0 h 87.624 52.158 62.395"
         style="fill:none;stroke:#000000;stroke-width:0.25;stroke-linecap:butt;stroke-linejoin:miter;stroke-miterlimit:10;stroke-dasharray:none;stroke-opacity:1"
         id="path264"
         inkscape:connector-curvature="0" /></g><text
       transform="matrix(1,0,0,-1,215.432,392.499)"
       style="font-variant:normal;font-weight:bold;font-size:7px;font-family:Shaker2Lancet;-inkscape-font-specification:Shaker2Lancet-Bold;writing-mode:lr-tb;fill:#000000;fill-opacity:1;fill-rule:nonzero;stroke:none"
       id="text274"><tspan
         x="0 3.3740001 7.8119998 11.396 12.684 16.400999 18.046 21.714001 24.395 25.500999 29.084999 33.341 36.952999"
         y="0"
         sodipodi:role="line"
         id="tspan266">EUC plus CAP </tspan><tspan
         x="0 2.2679999 6.0479999 9.5340004 12.908 16.806999 20.705999"
         y="8.4980001"
         sodipodi:role="line"
         id="tspan268">(n=188)</tspan><tspan
         x="52.157001 55.530998 59.969002 63.553001 64.841003 68.074997 69.720001 73.374001 77.153999"
         y="0"
         sodipodi:role="line"
         id="tspan270">EUC alone</tspan><tspan
         x="52.157001 54.424999 58.205002 61.691002 65.065002 68.963997 72.870003"
         y="8.4980001"
         sodipodi:role="line"
         id="tspan272">(n=189)</tspan></text>
<text
       transform="matrix(1,0,0,-1,127.806,369.343)"
       style="font-variant:normal;font-weight:normal;font-size:7px;font-family:Shaker2Lancet;-inkscape-font-specification:Shaker2Lancet-Regular;writing-mode:lr-tb;fill:#000000;fill-opacity:1;fill-rule:nonzero;stroke:none"
       id="text332"><tspan
         x="0 4.1012998 7.5516 10.6099 11.9329 14.1022 17.0975 20.1558 23.2071 25.3344 27.853701 91.693001 95.409302 98.7966 100.3289 103.7022 105.0252 107.1945 110.3648 113.5351 115.0674 118.8607 145.061 148.7773 151.9476 153.4799 156.70621 158.02921 160.1985 163.3688 166.98711 168.51939 172.30569"
         y="0"
         sodipodi:role="line"
         id="tspan276">Age (years)42·3 (11·8)41·7 (10·9)</tspan><tspan
         x="0 5.4320002 8.4840002 10.612 12.201 14.546 17.598 19.096001 20.419001 22.938999 25.284 28.336 30.681 34.167"
         y="12.264"
         sodipodi:role="line"
         id="tspan278">Marital status</tspan><tspan
         x="5.6700001 11.102 14.154 16.282 18.41 19.999001 23.058001 89.677002 92.848 96.565002 99.792 101.115 103.285 106.512 110.306 115.122 141.666 144.83701 148.23199 151.94901 153.272 155.442 159.23599 162.407 167.22301"
         y="24.528"
         sodipodi:role="line"
         id="tspan280">Married147 (78%)154 (81%)</tspan><tspan
         x="5.6700001 8.8690004 10.458 14.049 17.5 18.997999 92.624001 95.998001 99.792 101.115 103.285 106.673 110.292 115.108 145.187 148.561 151.94901 153.272 155.442 158.61301 161.84 166.65601"
         y="36.792"
         sodipodi:role="line"
         id="tspan282">Single38 (20%)32 (17%)</tspan><tspan
         x="5.6700001 8.8690004 11.928 15.4 18.452 20.58 23.632 25.976999 29.035999 32.514999 34.048 35.251301 38.730301 40.319302 43.4203 46.962299 49.090302 51.750301 54.809299 58.2883 59.821301 61.024601 64.566597 66.694603"
         y="49.056"
         sodipodi:role="line"
         id="tspan284">Separated, divorced, or </tspan><tspan
         x="5.6700001 10.4293 12.0176 15.4959 19.037201 23.796499 26.854799"
         y="57.554001"
         sodipodi:role="line"
         id="tspan286">widowed</tspan><tspan
         x="96.417999 99.792 101.115 103.285 106.673 111.489 148.575 151.94901 153.272 155.442 158.83 163.646"
         y="49.056"
         sodipodi:role="line"
         id="tspan288">3 (2%)3 (2%)</tspan><tspan
         x="0 4.3610001 7.0209999 9.6809998 13.167 16.639 19.691 22.035999 23.625 27.167"
         y="69.818001"
         sodipodi:role="line"
         id="tspan290">Occupation</tspan><tspan
         x="5.6700001 9.9042997 13.4946 16.5529 22.089199 25.560499 27.0578 30.5571 33.552399 36.610699 93.015999 96.403297 99.7976 101.1206 103.2899 106.4602 109.8335 114.6488 144.7691 148.1564 151.94971 153.27271 155.442 158.6123 162.00661 166.8219"
         y="82.082001"
         sodipodi:role="line"
         id="tspan292">Unemployed25 (13%)28 (15%)</tspan><tspan
         x="5.6700001 9.9049997 13.496 16.016001 19.068001 20.657 22.155001 23.653 26.712 30.191 31.514 37.050999 40.103001 43.694 47.18 50.231998 51.73 53.053001 54.550999 57.603001 61.054001 64.596001 68.082001 90.075996 93.247002 96.621002 99.792 101.115 103.285 106.512 110.131 114.947 142.009 145.17999 148.554 151.94901 153.272 155.442 158.66901 161.84 166.65601"
         y="94.346001"
         sodipodi:role="line"
         id="tspan294">Unskilled manual labour131 (70%)135 (71%)</tspan><tspan
         x="5.6700001 8.8690004 11.921 13.51 15.008 16.506001 19.565001 23.044001 24.367001 29.903999 32.956001 36.547001 40.033001 43.084999 44.583 45.905998 47.403999 50.456001 53.907001 57.449001 60.935001 93.247002 96.417999 99.792 101.115 103.285 106.512 111.328 145.39 148.561 151.94901 153.272 155.442 159.25 164.06599"
         y="106.61"
         sodipodi:role="line"
         id="tspan296">Skilled manual labour13 (7%)12 (6%)</tspan><tspan
         x="5.6700001 9.2329998 10.731 13.79 15.918 17.507 20.167 23.219 24.716999 26.040001 29.091999 32.682999 36.161999 37.485001 40.957001 43.084999 46.626999 48.720001 51.778999 54.299 56.819 58.408001 61.950001 65.541 68.593002 92.834 96.004997 99.792 101.115 103.285 106.456 110.075 114.891 145.061 148.23199 151.94901 153.272 155.442 158.66901 163.485"
         y="118.874"
         sodipodi:role="line"
         id="tspan298">Clerical and professional19 (10%)14 (7%)</tspan><tspan
         x="0 3.22 6.6989999 10.185 12.845 15.897 18.242001 19.830999 23.372999"
         y="131.138"
         sodipodi:role="line"
         id="tspan300">Education</tspan><tspan
         x="5.6700001 10.192 13.734 15.057 17.15 20.691999 22.82 28.357 31.409 32.907001 34.23 37.289001 40.768002 44.254002 46.914001 49.966 52.311001 53.900002 57.442001 92.903999 96.621002 99.792 101.115 103.285 106.673 110.061 114.877 144.774 148.162 151.94901 153.272 155.442 158.61301 162.008 166.82401"
         y="143.40199"
         sodipodi:role="line"
         id="tspan302">No formal education41 (22%)29 (15%)</tspan><tspan
         x="5.6700001 9.2329998 12.775 18.312 21.784 23.282 26.341 28.686001 31.745001 35.223999 36.547001 40.019001 42.146999 43.736 49.272999 52.325001 54.452999 57.449001"
         y="155.666"
         sodipodi:role="line"
         id="tspan304">Completed primary </tspan><tspan
         x="5.6700001 8.7290001 12.208 15.694 18.354 21.406 23.750999 25.34 28.882"
         y="164.164"
         sodipodi:role="line"
         id="tspan306">education</tspan><tspan
         x="92.386002 96.172997 99.792 101.115 103.285 107.002 110.796 115.612 141.93201 145.103 148.722 151.94901 153.272 155.442 158.83701 162.064 166.88"
         y="155.666"
         sodipodi:role="line"
         id="tspan308">90 (48%)107 (57%)</tspan><tspan
         x="5.6700001 9.2329998 12.775 18.312 21.784 23.282 26.341 28.686001 31.745001 35.223999 36.547001 39.067001 42.125999 44.785999 48.327999 51.918999 55.397999 58.450001 60.577999 63.574001"
         y="176.42799"
         sodipodi:role="line"
         id="tspan310">Completed secondary </tspan><tspan
         x="5.6700001 8.7290001 12.208 15.694 18.354 21.406 23.750999 25.34 28.882 32.473 33.675598 37.217602 39.3456 40.667198 44.216202 45.805199 49.256199 52.805199 55.864201"
         y="184.92599"
         sodipodi:role="line"
         id="tspan312">education or higher</tspan><tspan
         x="93.169998 96.565002 99.792 101.115 103.285 106.659 110.278 115.094 145.17999 148.575 151.94901 153.272 155.442 158.83 162.62399 167.44"
         y="176.42799"
         sodipodi:role="line"
         id="tspan314">57 (30%)53 (28%)</tspan><tspan
         x="0 3.3677001 6.4204001 8.7660999 10.3558 13.4155 17.0072 19.3529 20.5436 23.064301 24.3873 27.447001 30.5137 33.986401 37.046101 39.706799 42.052502 45.105202 47.450901 49.0406 52.583302 56.174999 57.379002 60.9217 63.0154 64.219398 67.7061 70.226799 73.286499 75.380203 78.866898 80.365601 83.957298 87.016998 89.537697 92.058403 93.262398 96.805099 98.898804 100.2218 102.8825 106.4252 109.9119 113.5036 116.0243 119.084 120.5827 122.0814 123.6711 127.2628"
         y="197.19"
         sodipodi:role="line"
         id="tspan316">Patient’s expectation of usefulness of counselling</tspan><tspan
         x="5.6700001 10.192 13.734 16.079 17.283001 20.768999 23.289 26.348 28.441 31.927 96.621002 99.792 101.115 103.285 106.456 111.272 148.561 151.94901 153.272 155.442 158.61301 163.429"
         y="209.45399"
         sodipodi:role="line"
         id="tspan318">Not useful1 (1%)2 (1%)</tspan><tspan
         x="5.6700001 9.7720003 11.095 12.593 14.182 16.527 18.872 20.370001 23.429001 24.632999 28.174999 30.302999 31.625999 34.146 37.688 43.224998 46.284 51.043999 54.592999 57.645 59.990002 61.194 64.68 67.199997 70.259003 72.351997 75.837997 92.610001 95.984001 99.792 101.115 103.285 106.456 110.243 115.059 144.78799 148.162 151.94901 153.272 155.442 158.83 162.00101 166.817"
         y="221.718"
         sodipodi:role="line"
         id="tspan320">A little or somewhat useful36 (19%)39 (21%)</tspan><tspan
         x="5.6700001 11.102 14.644 18.122999 21.181999 23.309999 26.362 28.707001 31.766001 33.264 36.259998 37.464001 40.950001 43.470001 46.528999 48.622002 52.108002 92.686996 96.403999 99.792 101.115 103.285 106.673 110.061 114.877 144.78101 148.155 151.94901 153.272 155.442 158.83 162.44901 167.265"
         y="233.98199"
         sodipodi:role="line"
         id="tspan322">Moderately useful42 (22%)38 (20%)</tspan><tspan
         x="5.6700001 9.3240004 12.383 14.511 17.507 18.711 22.197001 24.716999 27.775999 29.868999 33.355 89.214996 92.386002 96.004997 99.792 101.115 103.285 106.68 110.474 115.29 141.98801 145.159 148.33 151.94901 153.272 155.442 158.83701 162.631 167.44701"
         y="246.246"
         sodipodi:role="line"
         id="tspan324">Very useful109 (58%)110 (58%)</tspan><tspan
         x="0 4.0180001 8.2530003 12.397 14.014 17.549 18.872 21.392 24.052 27.594 29.722"
         y="258.51001"
         sodipodi:role="line"
         id="tspan326">AUDIT score</tspan><tspan
         x="5.6700001 11.102 14.161 17.212999 92.903999 96.074997 99.792 101.325 104.552 105.875 108.045 111.433 112.966 116.137 145.383 148.554 151.94901 153.272 155.442 158.83 160.36301 163.534"
         y="270.77399"
         sodipodi:role="line"
         id="tspan328">Mean14·7 (2·1)15 (2·1)</tspan><tspan
         x="5.6700001 11.102 14.161 17.639999 19.229 22.281 92.903999 96.074997 99.792 101.115 103.285 106.456 109.83 112.476 115.647 119.455 145.383 148.554 151.94901 153.272 155.442 158.61301 161.987 164.633 167.804 171.03101"
         y="283.03799"
         sodipodi:role="line"
         id="tspan330">Median14 (13–16)15 (13–17)</tspan></text>
<text
       transform="matrix(1,0,0,-1,124.973,69.911)"
       style="font-variant:normal;font-weight:normal;font-size:6.5px;font-family:Shaker2Lancet;-inkscape-font-specification:Shaker2Lancet-Regular;writing-mode:lr-tb;fill:#000000;fill-opacity:1;fill-rule:nonzero;stroke:none"
       id="text336"><tspan
         x="0 3.848 6.6820002 8.8594999 11.6935 12.922 15.756 17.732 20.5725 21.801001 26.942499 29.783001 32.617001 35.9515 37.18 39.195 42.165501 46.0135 48.0285 49.452 50.6805 54.014999 55.2435 57.258499 61.730499 63.745499 65.168999 66.280502 69.569504 71.545502 72.774002 77.915497 80.755997 83.986504 85.461998 88.295998 91.630501 92.859001 94.874001 96.375504 100.4315 103.753 105.768"
         y="0"
         sodipodi:role="line"
         id="tspan334">Data are mean (SD), n (%), or median (IQR).</tspan></text>
<text
       transform="matrix(1,0,0,-1,124.973,53.824)"
       style="font-style:italic;font-variant:normal;font-weight:bold;font-size:7px;font-family:Shaker2Lancet;-inkscape-font-specification:Shaker2Lancet-BoldItalic;writing-mode:lr-tb;fill:#000000;fill-opacity:1;fill-rule:nonzero;stroke:none"
       id="text340"><tspan
         x="0 3.1429999 6.4749999 9.7930002 11.375 14.245 15.379 19.004999"
         y="0"
         sodipodi:role="line"
         id="tspan338">Table 1:</tspan></text>
<text
       transform="matrix(1,0,0,-1,146.925,53.824)"
       style="font-variant:normal;font-weight:bold;font-size:7px;font-family:Shaker2Lancet;-inkscape-font-specification:Shaker2Lancet-Bold;writing-mode:lr-tb;fill:#000000;fill-opacity:1;fill-rule:nonzero;stroke:none"
       id="text344"><tspan
         x="0 3.822 7.0560002 9.7370005 12.908 14.553 16.309999 20.09 23.261 24.549 27.334999 31.059 34.292999 36.603001 39.837002 42.623001 45.262001 48.432999 50.743 52.5 55.181 57.82 59.577 62.362999 65.043999"
         y="0"
         sodipodi:role="line"
         id="tspan342">Baseline characteristics </tspan></text>
<g
       id="g346"
       transform="translate(119.179,405.45399)"><path
         d="M 213.766,0 H 0 v -357.424 h 213.766 z"
         style="fill:none;stroke:#b30838;stroke-width:0.25;stroke-linecap:butt;stroke-linejoin:miter;stroke-miterlimit:4;stroke-dasharray:none;stroke-opacity:1"
         id="path348"
         inkscape:connector-curvature="0" /></g><g
       id="g350"
       transform="translate(119.179,405.45399)"><path
         d="M 0,0 Z"
         style="fill:none;stroke:#b30838;stroke-width:0.25;stroke-linecap:butt;stroke-linejoin:miter;stroke-miterlimit:4;stroke-dasharray:none;stroke-opacity:1"
         id="path352"
         inkscape:connector-curvature="0" /></g></g></svg>