<?xml version="1.0" encoding="UTF-8" standalone="no"?>
<!-- Created with Inkscape (http://www.inkscape.org/) -->

<svg
   xmlns:dc="http://purl.org/dc/elements/1.1/"
   xmlns:cc="http://creativecommons.org/ns#"
   xmlns:rdf="http://www.w3.org/1999/02/22-rdf-syntax-ns#"
   xmlns:svg="http://www.w3.org/2000/svg"
   xmlns="http://www.w3.org/2000/svg"
   xmlns:sodipodi="http://sodipodi.sourceforge.net/DTD/sodipodi-0.dtd"
   xmlns:inkscape="http://www.inkscape.org/namespaces/inkscape"
   version="1.1"
   id="svg2"
   xml:space="preserve"
   width="793.70135"
   height="1065.8267"
   viewBox="0 0 793.70135 1065.8267"
   sodipodi:docname="table2.svg"
   inkscape:version="0.92.0 r15299"><metadata
     id="metadata8"><rdf:RDF><cc:Work
         rdf:about=""><dc:format>image/svg+xml</dc:format><dc:type
           rdf:resource="http://purl.org/dc/dcmitype/StillImage" /><dc:title></dc:title></cc:Work></rdf:RDF></metadata><defs
     id="defs6"><clipPath
       clipPathUnits="userSpaceOnUse"
       id="clipPath22"><path
         d="M 0.03,799.37 H 595.276 V 0 H 0.03 Z"
         id="path20"
         inkscape:connector-curvature="0" /></clipPath></defs><sodipodi:namedview
     pagecolor="#ffffff"
     bordercolor="#666666"
     borderopacity="1"
     objecttolerance="10"
     gridtolerance="10"
     guidetolerance="10"
     inkscape:pageopacity="0"
     inkscape:pageshadow="2"
     inkscape:window-width="1920"
     inkscape:window-height="988"
     id="namedview4"
     showgrid="false"
     inkscape:zoom="1.2525654"
     inkscape:cx="509.31314"
     inkscape:cy="268.81212"
     inkscape:window-x="0"
     inkscape:window-y="27"
     inkscape:window-maximized="1"
     inkscape:current-layer="g10" /><g
     id="g10"
     inkscape:groupmode="layer"
     inkscape:label="fulltext"
     transform="matrix(1.3333333,0,0,-1.3333333,0,1065.8267)"><path
       d="M 262.33,48.03 H 566.804 V 422.098 H 262.33 Z"
       style="fill:#f5e0dc;fill-opacity:1;fill-rule:nonzero;stroke:none"
       id="path286"
       inkscape:connector-curvature="0" /><g
       id="g288"
       transform="translate(268.12399,62.453995)"><path
         d="M 0,0 H 292.886"
         style="fill:none;stroke:#000000;stroke-width:0.25;stroke-linecap:butt;stroke-linejoin:miter;stroke-miterlimit:10;stroke-dasharray:none;stroke-opacity:1"
         id="path290"
         inkscape:connector-curvature="0" /></g><path
       d="m 268.124,382.711 h 90.459 v -12.264 h -90.459 z m 90.459,0 h 48.189 v -12.264 h -48.189 z m 48.189,0 h 49.606 v -12.264 h -49.606 z m 49.606,0 h 73.135 v -12.264 h -73.135 z m 73.135,0 H 561.01 V 370.447 H 529.513 Z M 268.124,370.447 h 90.459 v -20.763 h -90.459 z m 90.459,0 h 48.189 v -20.763 h -48.189 z m 48.189,0 h 49.606 v -20.763 h -49.606 z m 49.606,0 h 73.135 v -20.763 h -73.135 z m 73.135,0 H 561.01 V 349.684 H 529.513 Z M 268.124,349.684 h 90.459 v -12.263 h -90.459 z m 90.459,0 h 48.189 v -12.263 h -48.189 z m 48.189,0 h 49.606 v -12.263 h -49.606 z m 49.606,0 h 73.135 v -12.263 h -73.135 z m 73.135,0 H 561.01 V 337.421 H 529.513 Z M 268.124,337.421 h 90.459 v -20.763 h -90.459 z m 90.459,0 h 48.189 v -20.763 h -48.189 z m 48.189,0 h 49.606 v -20.763 h -49.606 z m 49.606,0 h 73.135 v -20.763 h -73.135 z m 73.135,0 H 561.01 V 316.658 H 529.513 Z M 268.124,304.395 h 90.459 v -20.763 h -90.459 z m 90.459,0 h 48.189 v -20.763 h -48.189 z m 48.189,0 h 49.606 v -20.763 h -49.606 z m 49.606,0 h 73.135 v -20.763 h -73.135 z m 73.135,0 H 561.01 V 283.632 H 529.513 Z M 268.124,283.632 h 90.459 v -20.763 h -90.459 z m 90.459,0 h 48.189 v -20.763 h -48.189 z m 48.189,0 h 49.606 v -20.763 h -49.606 z m 49.606,0 h 73.135 v -20.763 h -73.135 z m 73.135,0 H 561.01 V 262.869 H 529.513 Z M 268.124,262.869 h 90.459 v -12.264 h -90.459 z m 90.459,0 h 48.189 v -12.264 h -48.189 z m 48.189,0 h 49.606 v -12.264 h -49.606 z m 49.606,0 h 73.135 v -12.264 h -73.135 z m 73.135,0 H 561.01 V 250.605 H 529.513 Z M 268.124,250.605 h 90.459 v -21.374 h -90.459 z m 90.459,0 h 48.189 v -21.374 h -48.189 z m 48.189,0 h 49.606 v -21.374 h -49.606 z m 49.606,0 h 73.135 v -21.374 h -73.135 z m 73.135,0 H 561.01 V 229.231 H 529.513 Z M 268.124,229.231 h 90.459 v -20.763 h -90.459 z m 90.459,0 h 48.189 v -20.763 h -48.189 z m 48.189,0 h 49.606 v -20.763 h -49.606 z m 49.606,0 h 73.135 v -20.763 h -73.135 z m 73.135,0 H 561.01 V 208.468 H 529.513 Z M 268.124,208.468 h 90.459 v -20.763 h -90.459 z m 90.459,0 h 48.189 v -20.763 h -48.189 z m 48.189,0 h 49.606 v -20.763 h -49.606 z m 49.606,0 h 73.135 v -20.763 h -73.135 z m 73.135,0 H 561.01 V 187.705 H 529.513 Z M 268.124,187.705 h 90.459 v -20.763 h -90.459 z m 90.459,0 h 48.189 v -20.763 h -48.189 z m 48.189,0 h 49.606 v -20.763 h -49.606 z m 49.606,0 h 73.135 v -20.763 h -73.135 z m 73.135,0 H 561.01 V 166.942 H 529.513 Z M 268.124,166.942 h 90.459 v -12.264 h -90.459 z m 90.459,0 h 48.189 v -12.264 h -48.189 z m 48.189,0 h 49.606 v -12.264 h -49.606 z m 49.606,0 h 73.135 v -12.264 h -73.135 z m 73.135,0 H 561.01 V 154.678 H 529.513 Z M 268.124,154.678 h 90.459 v -20.763 h -90.459 z m 90.459,0 h 48.189 v -20.763 h -48.189 z m 48.189,0 h 49.606 v -20.763 h -49.606 z m 49.606,0 h 73.135 v -20.763 h -73.135 z m 73.135,0 h 31.497 v -20.763 h -31.497 z"
       style="fill:#ffffff;fill-opacity:1;fill-rule:nonzero;stroke:none"
       id="path292"
       inkscape:connector-curvature="0" /><g
       id="g294"
       transform="translate(268.12399,396.108)"><path
         d="m 0,0 h 90.459 48.189 49.606 73.135 31.497"
         style="fill:none;stroke:#000000;stroke-width:0.25;stroke-linecap:butt;stroke-linejoin:miter;stroke-miterlimit:10;stroke-dasharray:none;stroke-opacity:1"
         id="path296"
         inkscape:connector-curvature="0" /></g><text
       transform="matrix(1,0,0,-1,361.417,409.143)"
       style="font-variant:normal;font-weight:bold;font-size:7px;font-family:Shaker2Lancet;-inkscape-font-specification:Shaker2Lancet-Bold;writing-mode:lr-tb;fill:#000000;fill-opacity:1;fill-rule:nonzero;stroke:none"
       id="text314"><tspan
         x="0 3.3740001 7.8119998 11.396 12.684 16.400999 18.046 21.714001 24.395 25.500999 29.084999 33.341 36.952999"
         y="0"
         sodipodi:role="line"
         id="tspan298">EUC plus CAP </tspan><tspan
         x="0 2.2679999 6.0479999 9.5340004 12.908 16.827999 20.705999 22.974001"
         y="8.4980001"
         sodipodi:role="line"
         id="tspan300">(n=164)*</tspan><tspan
         x="48.188 51.562 56 59.584 60.872002 64.106003 65.750999 69.404999 73.184998 76.356003"
         y="0"
         sodipodi:role="line"
         id="tspan302">EUC alone </tspan><tspan
         x="48.188 50.456001 54.236 57.722 61.096001 64.540001 68.046997 70.315002"
         y="8.4980001"
         sodipodi:role="line"
         id="tspan304">(n=172)*</tspan><tspan
         x="97.796997 99.573601 103.3522 105.9898 109.1594 111.468 114.8896 118.0592 121.8378 124.4754 126.231 129.88361 133.6622 134.9502 138.1198 140.287 142.457 145.62801 148.414 151.05299"
         y="0"
         sodipodi:role="line"
         id="tspan306">Intervention eﬀ ect </tspan><tspan
         x="97.796997 100.065 103.971 107.471 112.497 113.603 117.187 118.965 121.233"
         y="8.4980001"
         sodipodi:role="line"
         id="tspan308">(95% CI)†</tspan><tspan
         x="170.933 174.64999 175.938 179.36099 182.595 184.24001 187.908"
         y="0"
         sodipodi:role="line"
         id="tspan310">p value</tspan><tspan
         x="-90.454002 -86.842003 -84.531998 -82.775002 -77.014 -73.779999 -71.470001 -68.124001 -66.899696 -63.245701 -59.577702 -56.938702 -54.152699 -50.498699 -44.737701 -41.5667"
         y="23.030001"
         sodipodi:role="line"
         id="tspan312">Primary outcomes</tspan></text>
<text
       transform="matrix(1,0,0,-1,270.963,373.849)"
       style="font-variant:normal;font-weight:normal;font-size:7px;font-family:Shaker2Lancet;-inkscape-font-specification:Shaker2Lancet-Regular;writing-mode:lr-tb;fill:#000000;fill-opacity:1;fill-rule:nonzero;stroke:none"
       id="text334"><tspan
         x="0 3.5280001 6.5869999 12.124 13.713 16.233 18.753 20.341999 23.884001 27.475 28.798 30.968 34.986 39.221001 43.365002 44.981998 48.516998 49.84 52.360001 55.02 58.562 60.689999 63.749001 64.953003 68.495003 70.587997 71.911003 75.397003 79.191002 96.445999 99.841003 103.628 104.951 107.121 110.495 114.303 119.119 143.381 147.09801 150.815 152.138 154.308 157.696 161.504 166.32001 188.25101 191.30299 194.74001 198.317 199.64 202.811 204.34399 207.739 211.358 212.681 214.851 218.022 219.55499 223.174 226.961 229.60699 232.995 234.528 238.147 241.37399 265.92999 269.54901 271.082 274.70099"
         y="0"
         sodipodi:role="line"
         id="tspan316">Remission (AUDIT score of &lt;8)59 (36%)44 (26%)aPR 1·50 (1·09–2·07)0·01</tspan><tspan
         x="0 4.1440001 7.1960001 8.7849998 10.283 13.279 14.602 17.122 19.466999 22.518999 26.110001 29.589001 32.640999 34.769001 38.248001 39.570999 42.630001 44.974998 48.523998 51.576 55.167 58.709 60.207001"
         y="12.264"
         sodipodi:role="line"
         id="tspan318">Daily standard ethanol </tspan><tspan
         x="0 2.6600001 6.2020001 9.7930002 12.313 15.799 21.336 24.395 27.874001 29.197001 30.785999 34.376999 35.511002 37.855999 41.404999 44.464001 45.786999 49.258999 52.311001 54.831001 57.175999 58.499001 61.669998 65.387001 66.591003 70.07 73.122002 76.117996 78.638"
         y="20.761999"
         sodipodi:role="line"
         id="tspan320">consumed in the past 14 days‡</tspan><tspan
         x="5.6700001 10.192 13.734 17.325001 19.649 23.128 25.256001 26.844999 30.436001 33.487999 36.547001 38.674999 96.032997 99.841003 103.635 104.958 107.128 110.845 114.016 118.832 144.27699 147.651 150.82201 152.145 154.315 157.48599 161.28 166.09599 188.258 191.31 195.67101 199.248 200.571 203.94501 205.478 209.097 212.716 214.039 216.209 219.38 220.91299 224.14 227.948 230.59399 233.989 235.522 238.69299 242.067 262.45099 265.93701 269.556 271.08899 274.70801 278.327 281.94601"
         y="33.026001"
         sodipodi:role="line"
         id="tspan322">Non-drinkers68 (41%)31 (18%)aOR 3·00 (1·76–5·13)&lt;0·0001</tspan><tspan
         x="5.6700001 8.8900003 11.235 14.784 17.836 21.427 24.969 26.466999 27.790001 30.450001 33.992001 37.583 40.103001 43.589001 49.125999 52.598 54.943001 56.532001 60.074001 63.665001 64.987999 68.040001 73.577003 77.119003 80.709999 84.161003"
         y="45.290001"
         sodipodi:role="line"
         id="tspan324">Ethanol consumption among </tspan><tspan
         x="5.6700001 9.1483002 11.2756 12.8639 16.454201 19.505501 22.563801 24.691099 27.2104 28.5334 30.7027 34.153"
         y="53.787998"
         sodipodi:role="line"
         id="tspan326">drinkers (g)</tspan><tspan
         x="97.027 100.401 103.628 105.161 108.78 110.103 112.273 115.99 119.707 121.24 124.628 144.27 147.644 150.815 152.34801 155.967 157.28999 159.46001 162.84801 166.075 167.608 171.40199 188.25101 191.814 195.356 198.842 202.433 204.778 206.101 208.229 211.28101 213.62601 215.215 218.757 220.08 223.25101 224.784 228.403 232.19701"
         y="45.290001"
         sodipodi:role="line"
         id="tspan328">37·0 (44·2)31·0 (27·8)Count ratio 1·08 </tspan><tspan
         x="188.258 190.42799 194.047 195.58 198.80701 202.59399 205.24001 208.411 209.944 213.661 217.448"
         y="53.787998"
         sodipodi:role="line"
         id="tspan330">(0·79–1·49)</tspan><tspan
         x="265.93701 269.556 271.08899 274.897"
         y="45.290001"
         sodipodi:role="line"
         id="tspan332">0·62</tspan></text>
<text
       transform="matrix(1,0,0,-1,270.963,307.797)"
       style="font-variant:normal;font-weight:bold;font-size:7px;font-family:Shaker2Lancet;-inkscape-font-specification:Shaker2Lancet-Bold;writing-mode:lr-tb;fill:#000000;fill-opacity:1;fill-rule:nonzero;stroke:none"
       id="text338"><tspan
         x="0 3.3110001 6.4819999 9.2679996 12.922 16.702 20.426001 23.66 25.969999 29.316 30.5403 34.194302 37.862301 40.501301 43.2873 46.941299 52.702301 55.873299"
         y="0"
         sodipodi:role="line"
         id="tspan336">Secondary outcomes</tspan></text>
<text
       transform="matrix(1,0,0,-1,270.963,295.533)"
       style="font-variant:normal;font-weight:normal;font-size:7px;font-family:Shaker2Lancet;-inkscape-font-specification:Shaker2Lancet-Regular;writing-mode:lr-tb;fill:#000000;fill-opacity:1;fill-rule:nonzero;stroke:none"
       id="text390"><tspan
         x="0 3.1989999 4.816 8.2530003 9.5760002 12.096 14.756 18.298 20.426001 100.401 103.628 105.161 108.948 110.271 112.441 116.228 117.761 120.932 147.021 150.815 152.34801 155.73599 157.05901 159.229 163.02299 164.556 168.343 188.25101 192.353 197.785 201.929 203.252 205.89799 209.517 211.05 214.66901 218.043"
         y="0"
         sodipodi:role="line"
         id="tspan340">SIP score7·9 (9·1)8·2 (8·9)AMD –0·03 </tspan><tspan
         x="188.258 190.42799 193.07401 196.245 197.778 201.565 204.939 206.0723 208.4173 211.9593 213.2816 216.45261 217.9856 221.7796 225.5876"
         y="8.4980001"
         sodipodi:role="line"
         id="tspan342">(–1·93 to 1·86)</tspan><tspan
         x="265.93701 269.556 271.08899 274.87601"
         y="0"
         sodipodi:role="line"
         id="tspan344">0·97</tspan><tspan
         x="0 5.6420002 9.9259996 14.287 18.347 22.448999 25.648001 26.971001 28.587999 30.205 31.528 34.048 36.708 40.25 42.377998 99.911003 103.628 105.161 108.878 110.201 112.371 116.179 117.712 121.1 147.44099 150.815 152.34801 155.743 157.06599 159.23599 162.631 164.164 167.53799 188.25101 192.353 197.785 201.929 203.252 206.871 208.40401 212.21201 215.60001"
         y="20.761999"
         sodipodi:role="line"
         id="tspan346">WHODAS II score4·4 (6·2)3·5 (5·3)AMD 0·62 </tspan><tspan
         x="188.258 190.42799 193.07401 196.69299 198.226 202.034 205.422 206.556 208.901 212.44299 213.76601 216.937 218.47 222.26401 225.491"
         y="29.26"
         sodipodi:role="line"
         id="tspan348">(–0·62 to 1·87)</tspan><tspan
         x="265.93701 269.556 271.08899 274.46301"
         y="20.761999"
         sodipodi:role="line"
         id="tspan350">0·32</tspan><tspan
         x="0 4.1433001 7.1946001 10.1899 12.7092 13.9132 17.3985 20.9888 24.0401 27.4904 28.9877 32.046001 33.18 35.5243 39.065601 40.2696 45.0289 48.570202 50.697498 53.748798"
         y="41.523998"
         sodipodi:role="line"
         id="tspan352">Days unable to work‡</tspan><tspan
         x="5.6700001 10.192 13.734 17.325001 93.051003 96.222 99.841003 103.628 104.951 107.121 110.929 114.737 119.553 141.246 144.41701 147.588 150.815 152.138 154.308 158.116 161.91 166.726 188.25101 191.30299 195.664 199.241 200.564 203.735 205.26801 208.88699 212.27499 213.59801 215.76801 219.38699 220.92 224.728 227.899 230.545 233.716 235.24899 239.05701 242.84399 265.92999 269.54901 271.082 274.86899"
         y="53.787998"
         sodipodi:role="line"
         id="tspan354">None109 (66%)117 (68%)aOR 1·02 (0·61–1·69)0·95</tspan><tspan
         x="5.6700001 9.8140001 12.866 15.862 18.382 19.586 23.072001 26.663 29.715 33.166 34.664001 37.723 38.856998 41.202 44.743999 45.948002 50.708 54.25 56.377998 59.43 60.633999 65.393997 68.943001 72.001999 75.593002 76.916 79.968002 82.313004"
         y="75.166"
         sodipodi:role="line"
         id="tspan356">Days unable to work when at </tspan><tspan
         x="5.6700001 7.1673002 10.2256 13.2769 15.7962 18.140499 19.463499 22.633801 23.837799 27.316099 30.367399 33.362701 34.685699 36.813 39.8713 43.342602 46.8839 49.0112 51.355499 54.413799"
         y="83.664001"
         sodipodi:role="line"
         id="tspan358">least 1 day reported</tspan><tspan
         x="97.286003 100.457 103.628 105.161 108.556 109.879 112.049 115.22 118.839 120.372 124.089 144.47301 147.644 150.815 152.34801 155.73599 157.05901 159.229 162.39999 166.019 167.552 170.72301 188.25101 191.814 195.356 198.842 202.433 204.778 206.101 208.229 211.28101 213.62601 215.215 218.757 220.08 223.69901 225.23199 229.019 232.407"
         y="75.166"
         sodipodi:role="line"
         id="tspan360">11·5 (10·4)11·2 (10·1)Count ratio 0·92 </tspan><tspan
         x="188.258 190.42799 194.047 195.58 198.97501 202.76199 205.408 208.57899 210.112 213.82899 217.203"
         y="83.664001"
         sodipodi:role="line"
         id="tspan362">(0·59–1·43)</tspan><tspan
         x="265.93701 269.556 271.08899 274.31601"
         y="75.166"
         sodipodi:role="line"
         id="tspan364">0·70</tspan><tspan
         x="0 4.5219998 8.0080004 13.545 16.996 20.055 22.183001 23.386999 26.929001 29.021999 30.344999 32.865002 36.351002 37.939999 40.599998 42.188999 45.667999 48.727001 50.049999 53.102001 55.446999 57.792 60.851002 66.388 69.860001 72.205002 100.002 147.44099 150.815 152.138 154.308 157.696 162.51199 188.25101 191.30299 195.664 199.241 200.564 204.183 205.716 207.039 210.091 213.528 217.105 218.42799 221.599 223.132 226.92599"
         y="95.928001"
         sodipodi:role="line"
         id="tspan366">Number of suicide attempts03 (2%)aOR 0; aPR 1·8 </tspan><tspan
         x="188.258 190.42799 193.07401 196.46201 197.995 201.71201 202.84599 205.19099 208.733 210.056 213.864 215.397 219.01601"
         y="104.426"
         sodipodi:role="line"
         id="tspan368">(–2·4 to 6·0)</tspan><tspan
         x="265.93701 269.556 271.08899 274.47699"
         y="95.928001"
         sodipodi:role="line"
         id="tspan370">0·25</tspan><tspan
         x="0 3.3670001 6.4260001 8.5539999 12.026 15.085 17.43 19.558001 22.610001 24.955 26.544001 30.086 33.676998 34.881001 38.423 40.515999 41.839001 43.428001 47.019001 49.363998 50.952999 56.490002 59.542 61.887001 64.945999"
         y="116.69"
         sodipodi:role="line"
         id="tspan372">Perpetration of intimate </tspan><tspan
         x="0 3.4719999 6.5240002 8.6520004 10.997 14.588 17.646999 19.775 21.098 24.198999 25.788 29.33 30.827999 33.887001 37.478001 40.138 43.196999"
         y="125.188"
         sodipodi:role="line"
         id="tspan374">partner violence§</tspan><tspan
         x="98.063004 101.234 104.622 106.813 109.984 113.372 116.599 117.922 120.092 123.879 128.69501 143.82899 147 150.808 152.99899 156.17 159.88699 163.506 164.82899 166.99899 170.17 173.341 178.157 188.244 191.29601 195.657 199.23399 200.55701 204.17599 205.709 209.50301 212.674 213.99699 216.16701 219.786 221.319 224.69299 228.48 231.12601 234.297 235.83 239.638 242.86501 245.035 246.56799"
         y="116.69"
         sodipodi:role="line"
         id="tspan376">12/127 (9%)16/140 (11%)aOR 0·81 (0·39–1·67); </tspan><tspan
         x="188.25101 191.30299 194.74001 198.317 199.64 203.01401 204.547 208.166 209.489 211.659 214.30499 217.476 221.095 222.62801 226.345 227.479 229.82401 233.366 234.689 238.40601 239.939 243.65601"
         y="125.188"
         sodipodi:role="line"
         id="tspan378">aPR 3·0 (–10·4 to 4·4)</tspan><tspan
         x="265.92999 269.54901 271.082 274.47699"
         y="116.69"
         sodipodi:role="line"
         id="tspan380">0·57</tspan><tspan
         x="-0.0070000002 3.3599999 6.4190001 8.5469999 11.207 14.266 17.857 20.202 23.254 26.705 29.764 30.968 34.509998 36.603001 37.806999 41.285999 44.338001 47.334 49.854 51.176998 54.229 57.68 60.200001 62.544998 64.134003 67.724998 70.783997 74.375 97.033997 100.842 104.629 106.162 109.879 114.695 116.018 118.188 121.562 124.789 126.322 129.696 144.70399 148.099 151.81599 153.349 157.06599 161.882 163.205 165.375 168.74899 172.55701 174.09 177.464 188.258 192.36 197.79201 201.936 203.259 206.42999 210.23801 211.771 215.39 220.20599 221.52901 223.69901 227.493 229.026 232.19701 233.33099 235.67599 239.218 240.541 243.929 247.646 249.179 252.35001 262.45099 265.93701 269.556 271.08899 274.70801 278.327 281.94601"
         y="137.452"
         sodipodi:role="line"
         id="tspan382">Percentage of days abstinent69·4% (37·3)54·4% (36·3)AMD 16·0% (8·1 to 24·1)&lt;0·0001</tspan><tspan
         x="-0.0070000002 3.3592999 6.4176002 8.5448999 11.2042 14.2625 17.8528 20.1971 23.2484 26.6987 29.757 30.961 34.5023 36.594601 37.798599 41.276901 44.328201 47.323502 49.8428 51.046799 54.5881 56.680401 58.003399 61.551701 64.610001 67.661301 70.761597 73.756897"
         y="149.716"
         sodipodi:role="line"
         id="tspan384">Percentage of days of heavy </tspan><tspan
         x="-0.0070000002 3.4719999 5.5999999 7.1890001 10.78 13.832 15.421 19.011999"
         y="158.214"
         sodipodi:role="line"
         id="tspan386">drinking</tspan><tspan
         x="100.828 104.615 106.148 109.543 114.359 115.682 117.852 121.24 122.773 126.168 145.01199 148.183 151.802 153.33501 156.95399 161.77 163.093 165.263 168.651 170.18401 173.901 188.244 192.34599 197.778 201.922 203.245 205.89101 209.50999 211.043 214.75999 219.576 220.899 223.069 225.715 229.11 230.64301 233.87 235.004 237.349 240.89101 242.214 245.931 247.464 251.25101 265.923 269.54199 271.07501 274.86899"
         y="149.716"
         sodipodi:role="line"
         id="tspan388">9·5% (2·5)10·0% (2·4)AMD –0·4% (–5·7 to 4·9)0·88</tspan></text>
<text
       transform="matrix(1,0,0,-1,268.124,120.911)"
       style="font-variant:normal;font-weight:normal;font-size:6.5px;font-family:Shaker2Lancet;-inkscape-font-specification:Shaker2Lancet-Regular;writing-mode:lr-tb;fill:#000000;fill-opacity:1;fill-rule:nonzero;stroke:none"
       id="text406"><tspan
         x="0 3.848 6.6820002 8.8594999 11.6935 12.922 15.756 17.732 20.5725 21.801001 25.1355 26.364 28.379 32.851002 34.866001 35.984001 39.272999 41.249001 42.477501 47.618999 50.459499 53.293499 56.627998 57.856499 59.871498 62.841999 66.690002 68.705002 70.128502 71.357002 74.347 78.279503 81.587997 84.824997 87.665497 91 94.295502 97.129501 100.464 102.934 105.7745 109.005 110.1165 113.3535 115.6935 118.9305 121.7645 123.1555 124.384 126.854 129.688 131.664 134.5045 135.92799 136.9875 140.29601 144.105 147.29649 150.53349 153.842 157.131 160.368 163.7025 166.0425 168.883 170.274 171.66499 173.1405 176.47501 179.6795 180.908 182.8515 186.1405 188.1165 189.16949 192.9785 194.36951 196.83949 200.12849 203.424 206.713 208.104 209.3325 212.524 214.5 217.789 220.9935 222.38451 225.22501 230.3665 232.7065 234.13 235.1895 238.9205 242.853 246.701 248.2025 251.485 254.722 258.53101 259.922 262.392 265.681 268.9765 272.2655 273.65649 274.729 278.6615 281.0015 283.84201"
         y="0"
         sodipodi:role="line"
         id="tspan392">Data are n (%) or mean (SD). EUC=enhanced usual care. CAP=Counselling for Alcohol Problems. AUDIT=Alcohol Use </tspan><tspan
         x="0 3.848 5.3235002 7.6634998 10.9525 12.9285 16.159 18.9995 20.9755 23.3155 24.544001 26.0455 29.275999 32.116501 35.451 37.628502 39.104 40.755001 42.405998 44.875999 47.709999 49.887501 51.362999 54.652 57.9865 58.870499 61.8605 64.700996 67.041 69.218498 70.641998 71.870499 74.704498 77.896004 81.217499 84.454498 87.288498 90.518997 91.987999 95.224998 97.565002 99.7425 102.583 105.8135 107.042 110.266 112.242 115.0825 117.962 120.796 122.187 125.0275 128.362 130.832 133.6725 134.901 136.877 139.711 141.8885 143.364 146.653 148.07651 149.30499 152.13901 156.18851 159.50999 162.74699 165.58099 168.81149 170.2805 173.5175 175.8575 178.035 180.8755 184.106 185.224 188.513 191.7435 194.974 197.314 198.5425 200.51849 203.35249 205.53 207.00549 210.29449 211.718 212.9465 215.91701 217.4185 220.61 223.847 226.8175 230.11301 233.40199 235.37801 237.5555 238.784 240.28551 243.62 246.4995 249.34 252.6745 254.85201 258.14099 260.117 262.89899 264.017 267.306 269.24951"
         y="8.5019999"
         sodipodi:role="line"
         id="tspan394">Disorders Identiﬁ cation Test. aPR=adjusted prevalence ratio. aOR=adjusted odds ratio. SIP=Short Inventory of </tspan><tspan
         x="0 3.1914999 5.1675 8.4565001 11.661 13.052 15.8925 21.034 23.374001 24.797501 25.855049 29.664049 34.70805 38.556049 41.793049 44.627048 47.857552 49.32655 52.563549 54.903549 57.081051 59.921551 63.15205 64.378601 69.520103 72.360603 75.194603 78.529099 79.645149 82.875648 84.351151 86.183502 88.010002 90.850502 92.8265 95.667 99.001503 101.4715 104.312 105.7355 106.704 111.943 115.921 119.9705 123.7405 127.5495 130.52 133.757 138.996 142.974 147.0235 148.252 152.10001 153.5755 155.9155 158.7495 161.95399 163.4295 164.8205 166.29601 168.4735 171.25549 172.315 176.12399 178.464 180.804 183.6445 185.9845 188.32449 193.466 196.3065 199.64101 201.8185 203.047 206.0175 208.4875 211.783 214.6235 217.854 221.091 222.48199 225.32249 226.746 227.9745 230.711 234.52 239.6615 242.9505 246.285 249.4895 250.5425 252.72 256.0155 259.3045 261.6445 264.48499 265.603 270.02301 271.4985 273.67599 276.9715"
         y="17.004"
         sodipodi:role="line"
         id="tspan396">Problems. AMD=adjusted mean diﬀ erence. WHODAS=WHO Disability Assessment Schedule. *Among those with </tspan><tspan
         x="0 3.289 6.4935002 8.8334999 11.674 13.65 16.529499 19.370001 22.6005 23.7185 26.948999 29.783001 31.960501 34.794498 36.022999 38.856998 41.0345 42.263 45.396 46.6245 51.765999 55.055 58.3895 60.567001 63.862499 66.202499 67.625999 68.8545 71.747002 73.248497 76.583 79.053001 80.444 83.681 86.911499 88.387001 91.721497 94.926003 96.154503 97.629997 102.7715 105.9955 109.2325 111.41 114.2505 117.481 118.5925 121.8815 125.1185 127.296 129.76601 133.05499 138.1965 141.037 142.155 145.3855 148.2195 150.397 153.231 154.4595 156.403 159.692 161.668 162.72099 164.8985 168.194 171.483 173.823 176.6635 177.78149 182.20151 183.677 185.85451 189.14999 190.37849 195.52 196.9955 199.33549 201.67551 203.151 206.4855 209.69 210.808 214.0385 216.8725 219.05 221.884 223.3075 224.536 227.4285 231.2375 234.57201 237.40601 238.797 241.57899 243.91901 246.75951 249.99001 251.108 255.528 257.00351 259.181 262.4765 263.70499 266.539"
         y="25.506001"
         sodipodi:role="line"
         id="tspan398">observed data at 3 months. †Including imputed outcome data for those with missing data. ‡Analysed with a </tspan><tspan
         x="0 2.4765 5.3169999 7.2930002 10.582 12.74 14.2155 17.549999 19.188 20.826 23.66 25.8375 28.677999 31.908501 33.137001 36.4715 39.312 42.516499 45.350498 47.528 49.003502 51.882999 54.723499 55.952 59.156502 60.632 63.966499 67.255501 72.397003 73.872498 76.706497 78.097504 79.325996 84.467499 87.7565 90.987 93.827499 95.218498 96.2715 98.448997 101.7445 104.5785 106.756 107.9845 109.629 111.28 113.4575 115.7975 116.8505 119.028 123.448 126.737 127.9655 131.1895 134.0235 135.9995 138.8335 143.97501 146.81551 148.993 151.8335 153.80949 156.14951 157.37801 158.8535 162.188 163.306 166.595 169.9295 172.77 173.9985 179.14 182.429 185.6595 188.5 189.89101 194.80499 196.2805 199.121 200.54449 201.5975 203.77499 207.0705 209.911 211.1395 214.36349 216.33949 219.62849 222.85249 226.14149 228.11749 230.295 231.77049 235.05949 238.394 239.51199 243.93201 245.4075 247.58501 250.88049 252.10899 254.08501 256.92551 259.2655 262.4895 265.7785 269.11301 271.453 274.29349 275.4115 278.7005 280.64401 281.8725 284.349 287.18951 289.1655 292.4545"
         y="34.007999"
         sodipodi:role="line"
         id="tspan400">zero-inﬂ ated negative binomial model that ﬁ ts two parameters in one model—ie, the proportion with response of zero </tspan><tspan
         x="0 2.0150001 4.8555002 8.0600004 9.4834995 10.712 14.0465 17.335501 18.453501 21.684 23.66 25.1355 28.469999 31.304001 32.779499 36.113998 39.318501 40.547001 42.022499 45.356998 46.585499 49.529999 52.981499 54.099499 57.330002 60.164001 62.945999 65.286003 66.403999 69.693001 71.668999 72.897499 76.232002 79.521004 80.639 83.869499 86.703499 89.485497 91.8255 92.943497 96.180496 99.514999 102.349 105.5535 106.9445 109.785 110.838 113.0155 116.3045 117.4225 121.8425 125.1315 127.1075 129.9415 131.9565 133.185 136.019 139.3535 142.584 143.63699 145.8145 149.11 151.9505 153.179 158.3205 161.161 163.995 167.3295 168.558 171.028 174.317 177.554 180.8885 183.06599 184.29449 186.30949 189.14999 192.35451 193.778 195.0065 197.847 200.02451 203.32001 206.15401 209.48849 212.7775 214.1685 215.397 217.867 221.15601 224.49049 226.83051 230.0675 235.209 238.433 240.6105 242.086 245.375 248.7095 249.8275 253.1165 255.0925 256.21051 259.44101 262.27499 265.05701 267.397 268.51501 271.75201 275.08649 277.9205 281.125 282.51599 285.35651 286.40948 288.58701 291.87601"
         y="42.509998"
         sodipodi:role="line"
         id="tspan402">(eg, no drinking in 14 days or no days unable to work) and the mean count (eg, ethanol consumption or days unable to </tspan><tspan
         x="0 4.4200001 7.7090001 9.6850004 12.519 14.534 15.7625 18.5965 23.738001 27.027 30.3615 33.566002 34.794498 38.018501 40.859001 44.147999 47.372002 48.763 51.6035 52.715 57.134998 58.6105 60.787998 64.083504 65.311996 68.146004 69.374496 72.709 75.998001 79.332497 81.431999 83.908501 86.749001 88.724998 92.014 93.2425 95.2575 98.481499 101.7705 104.1105 105.586 107.7635 109.239 112.1185 114.959 116.974 118.2025 120.1785 123.019 125.359 128.58299 131.87199 135.2065 137.54649 140.38699 141.8105 143.039 145.7755 149.5845 154.726 158.015 161.3495 164.554 165.7825 170.924 173.758 175.73399 177.71001 179.1855 182.026 185.2565 186.485 189.709 192.543 194.519 196.6965 198.172 200.642 202.11749 205.34151 208.17551 211.50999 213.6875 216.0275 217.13901 220.42799 223.7625 225.1535 227.69501"
         y="51.012001"
         sodipodi:role="line"
         id="tspan404">work) among people with a non-zero (positive) response. §Among married participants only.</tspan></text>
<text
       transform="matrix(1,0,0,-1,268.124,53.824)"
       style="font-style:italic;font-variant:normal;font-weight:bold;font-size:7px;font-family:Shaker2Lancet;-inkscape-font-specification:Shaker2Lancet-BoldItalic;writing-mode:lr-tb;fill:#000000;fill-opacity:1;fill-rule:nonzero;stroke:none"
       id="text410"><tspan
         x="0 3.1429999 6.4749999 9.7930002 11.375 14.245 15.379 19.004999"
         y="0"
         sodipodi:role="line"
         id="tspan408">Table 2:</tspan></text>
<text
       transform="matrix(1,0,0,-1,290.076,53.824)"
       style="font-variant:normal;font-weight:bold;font-size:7px;font-family:Shaker2Lancet;-inkscape-font-specification:Shaker2Lancet-Bold;writing-mode:lr-tb;fill:#000000;fill-opacity:1;fill-rule:nonzero;stroke:none"
       id="text414"><tspan
         x="0 3.612 5.9219999 7.6789999 13.44 16.674 18.983999 22.33 23.618 26.851999 30.632 34.355999 35.644001 38.325001 41.495998 44.282001 47.936001 51.716 55.439999 58.674 60.984001 64.330002 65.555 69.209 72.876999 75.515999 78.302002 81.956001 87.717003 90.888 93.569"
         y="0"
         sodipodi:role="line"
         id="tspan412">Primary and secondary outcomes </tspan></text>
<g
       id="g416"
       transform="translate(262.33,422.09801)"><path
         d="M 304.474,0 H 0 v -374.068 h 304.474 z"
         style="fill:none;stroke:#b30838;stroke-width:0.25;stroke-linecap:butt;stroke-linejoin:miter;stroke-miterlimit:4;stroke-dasharray:none;stroke-opacity:1"
         id="path418"
         inkscape:connector-curvature="0" /></g><g
       id="g420"
       transform="translate(262.33,422.09801)"><path
         d="M 0,0 Z"
         style="fill:none;stroke:#b30838;stroke-width:0.25;stroke-linecap:butt;stroke-linejoin:miter;stroke-miterlimit:4;stroke-dasharray:none;stroke-opacity:1"
         id="path422"
         inkscape:connector-curvature="0" /></g></g></svg>