<?xml version="1.0" encoding="UTF-8" standalone="no"?>
<!-- Created with Inkscape (http://www.inkscape.org/) -->

<svg
   xmlns:dc="http://purl.org/dc/elements/1.1/"
   xmlns:cc="http://creativecommons.org/ns#"
   xmlns:rdf="http://www.w3.org/1999/02/22-rdf-syntax-ns#"
   xmlns:svg="http://www.w3.org/2000/svg"
   xmlns="http://www.w3.org/2000/svg"
   xmlns:sodipodi="http://sodipodi.sourceforge.net/DTD/sodipodi-0.dtd"
   xmlns:inkscape="http://www.inkscape.org/namespaces/inkscape"
   version="1.1"
   id="svg2"
   xml:space="preserve"
   width="768"
   height="1031.9626"
   viewBox="0 0 768 1031.9626"
   sodipodi:docname="table2cont.svg"
   inkscape:version="0.92.0 r15299"><metadata
     id="metadata8"><rdf:RDF><cc:Work
         rdf:about=""><dc:format>image/svg+xml</dc:format><dc:type
           rdf:resource="http://purl.org/dc/dcmitype/StillImage" /><dc:title></dc:title></cc:Work></rdf:RDF></metadata><defs
     id="defs6" /><sodipodi:namedview
     pagecolor="#ffffff"
     bordercolor="#666666"
     borderopacity="1"
     objecttolerance="10"
     gridtolerance="10"
     guidetolerance="10"
     inkscape:pageopacity="0"
     inkscape:pageshadow="2"
     inkscape:window-width="1920"
     inkscape:window-height="988"
     id="namedview4"
     showgrid="false"
     inkscape:zoom="0.91476179"
     inkscape:cx="169.75705"
     inkscape:cy="297.35566"
     inkscape:window-x="0"
     inkscape:window-y="27"
     inkscape:window-maximized="1"
     inkscape:current-layer="g10" /><g
     id="g10"
     inkscape:groupmode="layer"
     inkscape:label="fulltext"
     transform="matrix(1.3333333,0,0,-1.3333333,0,1031.9627)"><path
       d="m 37.644,63.043 h 136.12 V 707.414 H 37.644 Z"
       style="fill:#e6e6e6;fill-opacity:1;fill-rule:nonzero;stroke:none"
       id="path368"
       inkscape:connector-curvature="0" /><path
       d="M 37.644,63.043 H 65.083 V 707.414 H 37.644 Z"
       style="fill:#ffffff;fill-opacity:1;fill-rule:nonzero;stroke:none"
       id="path370"
       inkscape:connector-curvature="0" /><g
       id="g372"
       transform="translate(173.764,707.414)"><path
         d="M -0.964,0 H -2.2e-4 V -644.371 H -0.964 Z"
         style="fill:#ffffff;fill-opacity:1;fill-rule:evenodd;stroke:#ffffff;stroke-width:0.75;stroke-linecap:round;stroke-linejoin:round;stroke-miterlimit:10;stroke-dasharray:none;stroke-opacity:1"
         id="path374"
         inkscape:connector-curvature="0" /></g><g
       id="g376"
       transform="translate(172.8,707.414)"><path
         d="M 0,0 V -644.371 H -0.51 V 0"
         style="fill:#000000;fill-opacity:1;fill-rule:evenodd;stroke:#000000;stroke-width:0.75;stroke-linecap:round;stroke-linejoin:round;stroke-miterlimit:10;stroke-dasharray:none;stroke-opacity:1"
         id="path378"
         inkscape:connector-curvature="0" /></g><g
       id="g380"
       transform="translate(65.083,707.414)"><path
         d="M -8.731,0 H -3e-4 V -644.371 H -8.731 Z"
         style="fill:#e6e6e6;fill-opacity:1;fill-rule:evenodd;stroke:#e6e6e6;stroke-width:0.75;stroke-linecap:round;stroke-linejoin:round;stroke-miterlimit:10;stroke-dasharray:none;stroke-opacity:1"
         id="path382"
         inkscape:connector-curvature="0" /></g><g
       id="g384"
       transform="translate(56.353,707.414)"><path
         d="M 0,0 V -644.371 H -0.51 V 0"
         style="fill:#000000;fill-opacity:1;fill-rule:evenodd;stroke:#000000;stroke-width:0.75;stroke-linecap:round;stroke-linejoin:round;stroke-miterlimit:10;stroke-dasharray:none;stroke-opacity:1"
         id="path386"
         inkscape:connector-curvature="0" /></g><g
       id="g388"
       transform="translate(82.602,137.367)"><path
         d="M -0.454,0 H -4.6e-4 V -74.324 H -0.454 Z"
         style="fill:#000000;fill-opacity:1;fill-rule:evenodd;stroke:#000000;stroke-width:0.75;stroke-linecap:round;stroke-linejoin:round;stroke-miterlimit:10;stroke-dasharray:none;stroke-opacity:1"
         id="path390"
         inkscape:connector-curvature="0" /></g><g
       id="g392"
       transform="translate(69.505,338.74)"><path
         d="M 0,0 V -201.373 H -0.51 V 0"
         style="fill:#000000;fill-opacity:1;fill-rule:evenodd;stroke:#000000;stroke-width:0.75;stroke-linecap:round;stroke-linejoin:round;stroke-miterlimit:10;stroke-dasharray:none;stroke-opacity:1"
         id="path394"
         inkscape:connector-curvature="0" /></g><g
       id="g396"
       transform="translate(69.505,526.847)"><path
         d="M 0,0 V -180.34 H -0.51 V 0"
         style="fill:#000000;fill-opacity:1;fill-rule:evenodd;stroke:#000000;stroke-width:0.75;stroke-linecap:round;stroke-linejoin:round;stroke-miterlimit:10;stroke-dasharray:none;stroke-opacity:1"
         id="path398"
         inkscape:connector-curvature="0" /></g><g
       id="g400"
       transform="translate(69.505,701.405)"><path
         d="M 0,0 V -166.734 H -0.51 V 0"
         style="fill:#000000;fill-opacity:1;fill-rule:evenodd;stroke:#000000;stroke-width:0.75;stroke-linecap:round;stroke-linejoin:round;stroke-miterlimit:10;stroke-dasharray:none;stroke-opacity:1"
         id="path402"
         inkscape:connector-curvature="0" /></g><g
       id="g404"
       transform="translate(82.602,155.849)"><path
         d="M 0,0 V -26.249 H -0.454 V 0 H 0"
         style="fill:#000000;fill-opacity:1;fill-rule:evenodd;stroke:#000000;stroke-width:0.75;stroke-linecap:round;stroke-linejoin:round;stroke-miterlimit:10;stroke-dasharray:none;stroke-opacity:1"
         id="path406"
         inkscape:connector-curvature="0" /></g><g
       id="g408"
       transform="translate(82.602,192.416)"><path
         d="M -0.454,0 H -4.6e-4 V -44.334 H -0.454 Z"
         style="fill:#000000;fill-opacity:1;fill-rule:evenodd;stroke:#000000;stroke-width:0.75;stroke-linecap:round;stroke-linejoin:round;stroke-miterlimit:10;stroke-dasharray:none;stroke-opacity:1"
         id="path410"
         inkscape:connector-curvature="0" /></g><g
       id="g412"
       transform="translate(82.602,234.255)"><path
         d="M -0.454,0 H -4.6e-4 V -49.663 H -0.454 Z"
         style="fill:#000000;fill-opacity:1;fill-rule:evenodd;stroke:#000000;stroke-width:0.75;stroke-linecap:round;stroke-linejoin:round;stroke-miterlimit:10;stroke-dasharray:none;stroke-opacity:1"
         id="path414"
         inkscape:connector-curvature="0" /></g><g
       id="g416"
       transform="translate(82.602,276.151)"><path
         d="M -0.454,0 H -4.6e-4 V -49.663 H -0.454 Z"
         style="fill:#000000;fill-opacity:1;fill-rule:evenodd;stroke:#000000;stroke-width:0.75;stroke-linecap:round;stroke-linejoin:round;stroke-miterlimit:10;stroke-dasharray:none;stroke-opacity:1"
         id="path418"
         inkscape:connector-curvature="0" /></g><g
       id="g420"
       transform="translate(82.602,312.718)"><path
         d="M -0.454,0 H -4.6e-4 V -44.334 H -0.454 Z"
         style="fill:#000000;fill-opacity:1;fill-rule:evenodd;stroke:#000000;stroke-width:0.75;stroke-linecap:round;stroke-linejoin:round;stroke-miterlimit:10;stroke-dasharray:none;stroke-opacity:1"
         id="path422"
         inkscape:connector-curvature="0" /></g><g
       id="g424"
       transform="translate(82.602,346.507)"><path
         d="M 0,0 V -41.556 H -0.454 V 0 H 0"
         style="fill:#000000;fill-opacity:1;fill-rule:evenodd;stroke:#000000;stroke-width:0.75;stroke-linecap:round;stroke-linejoin:round;stroke-miterlimit:10;stroke-dasharray:none;stroke-opacity:1"
         id="path426"
         inkscape:connector-curvature="0" /></g><g
       id="g428"
       transform="translate(82.602,383.074)"><path
         d="M -0.454,0 H -4.6e-4 V -44.334 H -0.454 Z"
         style="fill:#000000;fill-opacity:1;fill-rule:evenodd;stroke:#000000;stroke-width:0.75;stroke-linecap:round;stroke-linejoin:round;stroke-miterlimit:10;stroke-dasharray:none;stroke-opacity:1"
         id="path430"
         inkscape:connector-curvature="0" /></g><g
       id="g432"
       transform="translate(82.602,424.97)"><path
         d="M -0.454,0 H -4.6e-4 V -49.663 H -0.454 Z"
         style="fill:#000000;fill-opacity:1;fill-rule:evenodd;stroke:#000000;stroke-width:0.75;stroke-linecap:round;stroke-linejoin:round;stroke-miterlimit:10;stroke-dasharray:none;stroke-opacity:1"
         id="path434"
         inkscape:connector-curvature="0" /></g><g
       id="g436"
       transform="translate(82.602,461.537)"><path
         d="M -0.454,0 H -4.6e-4 V -44.334 H -0.454 Z"
         style="fill:#000000;fill-opacity:1;fill-rule:evenodd;stroke:#000000;stroke-width:0.75;stroke-linecap:round;stroke-linejoin:round;stroke-miterlimit:10;stroke-dasharray:none;stroke-opacity:1"
         id="path438"
         inkscape:connector-curvature="0" /></g><g
       id="g440"
       transform="translate(82.602,498.104)"><path
         d="M -0.454,0 H -4.6e-4 V -44.334 H -0.454 Z"
         style="fill:#000000;fill-opacity:1;fill-rule:evenodd;stroke:#000000;stroke-width:0.75;stroke-linecap:round;stroke-linejoin:round;stroke-miterlimit:10;stroke-dasharray:none;stroke-opacity:1"
         id="path442"
         inkscape:connector-curvature="0" /></g><g
       id="g444"
       transform="translate(82.602,534.671)"><path
         d="M -0.454,0 H -4.6e-4 V -44.334 H -0.454 Z"
         style="fill:#000000;fill-opacity:1;fill-rule:evenodd;stroke:#000000;stroke-width:0.75;stroke-linecap:round;stroke-linejoin:round;stroke-miterlimit:10;stroke-dasharray:none;stroke-opacity:1"
         id="path446"
         inkscape:connector-curvature="0" /></g><g
       id="g448"
       transform="translate(82.602,571.238)"><path
         d="M -0.454,0 H -4.6e-4 V -44.391 H -0.454 Z"
         style="fill:#000000;fill-opacity:1;fill-rule:evenodd;stroke:#000000;stroke-width:0.75;stroke-linecap:round;stroke-linejoin:round;stroke-miterlimit:10;stroke-dasharray:none;stroke-opacity:1"
         id="path450"
         inkscape:connector-curvature="0" /></g><g
       id="g452"
       transform="translate(82.602,607.805)"><path
         d="M -0.454,0 H -4.6e-4 V -44.391 H -0.454 Z"
         style="fill:#000000;fill-opacity:1;fill-rule:evenodd;stroke:#000000;stroke-width:0.75;stroke-linecap:round;stroke-linejoin:round;stroke-miterlimit:10;stroke-dasharray:none;stroke-opacity:1"
         id="path454"
         inkscape:connector-curvature="0" /></g><g
       id="g456"
       transform="translate(82.602,644.315)"><path
         d="M -0.454,0 H -4.6e-4 V -44.334 H -0.454 Z"
         style="fill:#000000;fill-opacity:1;fill-rule:evenodd;stroke:#000000;stroke-width:0.75;stroke-linecap:round;stroke-linejoin:round;stroke-miterlimit:10;stroke-dasharray:none;stroke-opacity:1"
         id="path458"
         inkscape:connector-curvature="0" /></g><g
       id="g460"
       transform="translate(82.602,680.882)"><path
         d="M -0.454,0 H -4.6e-4 V -44.334 H -0.454 Z"
         style="fill:#000000;fill-opacity:1;fill-rule:evenodd;stroke:#000000;stroke-width:0.75;stroke-linecap:round;stroke-linejoin:round;stroke-miterlimit:10;stroke-dasharray:none;stroke-opacity:1"
         id="path462"
         inkscape:connector-curvature="0" /></g><g
       id="g464"
       transform="translate(82.602,707.414)"><path
         d="M -0.454,0 H -4.6e-4 V -34.299 H -0.454 Z"
         style="fill:#000000;fill-opacity:1;fill-rule:evenodd;stroke:#000000;stroke-width:0.75;stroke-linecap:round;stroke-linejoin:round;stroke-miterlimit:10;stroke-dasharray:none;stroke-opacity:1"
         id="path466"
         inkscape:connector-curvature="0" /></g><text
       transform="matrix(0,1,0.96157326,0,42.3496,63.0425)"
       style="font-variant:normal;font-weight:normal;font-size:6.63079977px;font-family:AdvOTb83ee1dd;-inkscape-font-specification:AdvOTb83ee1dd;writing-mode:lr-tb;fill:#000000;fill-opacity:1;fill-rule:nonzero;stroke:none"
       id="text470"><tspan
         x="0 3.7265096 7.3137722 11.318775 13.453894 18.934912"
         y="0"
         sodipodi:role="line"
         id="tspan468">Table2</tspan></text>
<text
       transform="matrix(0,1,0.96157326,0,50.910018,63.0425)"
       style="font-variant:normal;font-weight:normal;font-size:6.63079977px;font-family:AdvOT863180fb;-inkscape-font-specification:AdvOT863180fb;writing-mode:lr-tb;fill:#000000;fill-opacity:1;fill-rule:nonzero;stroke:none"
       id="text484"><tspan
         x="0 3.9320643 7.6585741 11.663577 14.077188 16.006752 20.011755 23.943819 27.391834"
         y="0"
         sodipodi:role="line"
         id="tspan472">Continued</tspan><tspan
         x="74.324638 78.674438 82.606506 86.333015 88.262581 91.710594 94.608253 97.711472 101.15948 105.16449 109.58591 113.51797 117.52297 121.52798 124.90968 128.84175 132.77382 134.70337 138.70837 142.1564 145.05406 283.46072 289.60748 292.9892 295.4028 298.85083 301.54294 305.54791 308.92963 312.8829 317.50458 322.40475 327.09937 329.79144 333.58429 471.62161 475.34811 478.72983 481.14343 484.59146 487.28357 491.28857 494.67029 498.60632 503.228 508.12814 512.82275 515.51483 519.30768"
         y="14.680591"
         sodipodi:role="line"
         id="tspan474">AdolescentunhappinessMaternalGHQ-12PaternalGHQ-12</tspan><tspan
         x="92.806664 99.709991 129.37354 136.27687 171.21323 178.11655 213.10927 220.0126 249.67615 256.57947 283.46536 290.36871 320.03226 326.93558 361.92828 368.8316 398.49518 405.3985 435.06204 441.96536 471.62891 478.53223 508.19577 515.09912 544.76331 551.66663 581.2738 588.17719 617.8407 624.74402"
         y="28.300255"
         sodipodi:role="line"
         id="tspan476">W1W2W3W4W5W1W2W3W4W5W1W2W3W4W5</tspan><tspan
         x="12.359148 16.085657 19.467365 21.880978 25.328993 28.021097 32.0261 35.40781 39.343853 43.965519 48.865681 53.560287 56.252392 60.045208"
         y="41.919918"
         sodipodi:role="line"
         id="tspan478">PaternalGHQ-12</tspan><tspan
         x="20.296215 22.709827 25.813042 29.539551 32.231655 34.923759 38.371777 40.301338 43.683048 46.096657 48.026222 51.752731 55.757732 59.299244 64.133095"
         y="50.82243"
         sodipodi:role="line"
         id="tspan480">(correlation,N)</tspan><tspan
         x="74.324638 81.227303 104.2017 105.72015 109.51297 113.30579 116.06419 146.04005 147.5585 151.35132 187.9361 189.45456 193.24738 197.04019 224.5023 226.02077 229.81358 261.06918 262.58765 266.38046 294.85776 296.37619 300.16904 303.96185 306.72025 309.47867 336.75314 338.27158 342.06439 345.85721 348.61563 373.31934 374.8378 378.63062 382.42343 385.18185 409.88556 411.40402 415.19684 418.98965 446.45175 447.97021 451.76303 479.21985 483.01266 484.53113 488.32394"
         y="41.919918"
         sodipodi:role="line"
         id="tspan482">W1.12**.09.15*.11.05.26***.19**.19**.20*.201.00</tspan></text>
<text
       transform="matrix(0,1,0.96157326,0,91.21909,571.23762)"
       style="font-variant:normal;font-weight:normal;font-size:6.63079977px;font-family:AdvPS44A44B;-inkscape-font-specification:AdvPS44A44B;writing-mode:lr-tb;fill:#000000;fill-opacity:1;fill-rule:nonzero;stroke:none"
       id="text488"><tspan
         x="0 36.566872 73.077385 109.64426"
         y="0"
         sodipodi:role="line"
         id="tspan486">dddd</tspan></text>
<text
       transform="matrix(0,1,0.96157326,0,99.779507,155.84917)"
       style="font-variant:normal;font-weight:normal;font-size:6.63079977px;font-family:AdvOT863180fb;-inkscape-font-specification:AdvOT863180fb;writing-mode:lr-tb;fill:#000000;fill-opacity:1;fill-rule:nonzero;stroke:none"
       id="text494"><tspan
         x="0 3.7928176 7.5856352 41.839024 45.63184 49.424656 83.734406 87.527222 91.320038 120.30061 124.09343 127.88625 160.6656 164.45844 190.65605 194.44887 198.24168 232.55144 236.34425 240.13707 269.11765 272.91046 276.70328 305.68387 309.47668 313.2695 346.04886 349.84167 378.81696 382.60977 386.40259"
         y="0"
         sodipodi:role="line"
         id="tspan490">7543982551619470238223615188761</tspan><tspan
         x="-18.482029 -11.579366 11.39503 12.913483 16.706301 20.499119 23.25753 53.233387 54.751842 58.544659 62.337479 65.095886 95.128769 96.647224 100.44004 104.23286 106.99127 131.69498 133.21344 137.00626 140.79907 168.26118 169.77965 173.57246 202.04976 203.56821 207.36102 211.15385 213.91226 243.94514 245.46359 249.25641 253.04922 255.80765 258.56607 280.51135 282.02982 285.82263 289.61545 292.37384 295.13226 317.07758 318.59601 322.38882 326.18164 353.64377 355.16223 358.95505 362.74786 365.50629 368.26468 390.20999 391.72842 395.52124 399.31406 402.07248 404.8309 422.97742 426.77023 428.28867 432.08148"
         y="8.9025126"
         sodipodi:role="line"
         id="tspan492">W2.14**.12**.11**.10*.10.18**.26***.18***.16*.26***.39***1.00</tspan></text>
<text
       transform="matrix(0,1,0.96157326,0,108.33992,607.80449)"
       style="font-variant:normal;font-weight:normal;font-size:6.63079977px;font-family:AdvPS44A44B;-inkscape-font-specification:AdvPS44A44B;writing-mode:lr-tb;fill:#000000;fill-opacity:1;fill-rule:nonzero;stroke:none"
       id="text498"><tspan
         x="0 36.510509 73.077385"
         y="0"
         sodipodi:role="line"
         id="tspan496">ddd</tspan></text>
<text
       transform="matrix(0,1,0.96157326,0,116.90034,155.8485)"
       style="font-variant:normal;font-weight:normal;font-size:6.63079977px;font-family:AdvOT863180fb;-inkscape-font-specification:AdvOT863180fb;writing-mode:lr-tb;fill:#000000;fill-opacity:1;fill-rule:nonzero;stroke:none"
       id="text504"><tspan
         x="0 3.7928176 7.5856352 41.839024 45.63184 49.424656 83.734406 87.527222 91.320038 120.30061 124.09343 127.88625 156.86682 160.65964 164.45245 190.6554 194.44821 198.24103 232.55078 236.3436 240.13641 269.11697 272.90979 276.70261 305.6832 309.47601 313.26883 342.24942 346.04224 349.83505 378.81561 382.60843 386.40125 415.38184 419.17465 422.96747"
         y="0"
         sodipodi:role="line"
         id="tspan500">395890558424273368872522403271374918</tspan><tspan
         x="-18.482029 -11.579366 11.39503 12.913483 16.706301 53.234051 54.752506 58.545322 95.130096 96.648552 100.44137 104.23418 106.9926 131.6963 133.21477 137.00758 168.26318 169.78163 173.57445 177.36726 202.05174 203.57021 207.36302 243.9478 245.46625 249.25906 253.05188 255.8103 258.5687 280.51401 282.03247 285.82529 289.6181 292.3765 295.13492 317.0802 318.59866 322.39148 326.1843 353.64642 355.16489 358.9577 362.75052 390.21265 391.73108 395.5239 399.31671 402.07513 404.83356 426.77884 428.2973 432.09012 435.88293 438.64136 441.39975 459.4899 463.28271 464.80118 468.59399"
         y="8.9025126"
         sodipodi:role="line"
         id="tspan502">W3.07.08.10**.08.11*.09.18***.21***.10*.17*.33***.56***1.00</tspan></text>
<text
       transform="matrix(0,1,0.96157326,0,125.46076,644.31434)"
       style="font-variant:normal;font-weight:normal;font-size:6.63079977px;font-family:AdvPS44A44B;-inkscape-font-specification:AdvPS44A44B;writing-mode:lr-tb;fill:#000000;fill-opacity:1;fill-rule:nonzero;stroke:none"
       id="text508"><tspan
         x="0 36.566872"
         y="0"
         sodipodi:role="line"
         id="tspan506">dd</tspan></text>
<text
       transform="matrix(0,1,0.96157326,0,134.02118,155.8485)"
       style="font-variant:normal;font-weight:normal;font-size:6.63079977px;font-family:AdvOT863180fb;-inkscape-font-specification:AdvOT863180fb;writing-mode:lr-tb;fill:#000000;fill-opacity:1;fill-rule:nonzero;stroke:none"
       id="text514"><tspan
         x="0 3.7928176 7.5856352 41.839024 45.63184 49.424656 83.734406 87.527222 91.320038 120.30061 124.09343 127.88625 156.86682 160.65964 164.45245 190.6554 194.44821 198.24103 232.55078 236.3436 240.13641 269.11697 272.90979 276.70261 305.6832 309.47601 313.26883 342.24942 346.04224 349.83505 378.81561 382.60843 386.40125 415.38184 419.17465 422.96747 451.94803 455.74084 459.48792"
         y="0"
         sodipodi:role="line"
         id="tspan510">239532802523372217509761503368228511817</tspan><tspan
         x="-18.482029 -11.579366 8.6737499 11.365854 12.884308 16.677126 53.234051 54.752506 58.545322 95.130096 96.648552 100.44137 131.69698 133.21542 137.00824 168.26384 169.7823 173.57512 202.05241 203.57086 207.36368 243.94846 245.46692 249.25974 253.05255 280.51468 282.03311 285.82593 317.08154 318.60001 322.39282 326.18564 328.94403 353.64774 355.1662 358.95901 390.21463 391.73306 395.52588 399.31873 402.07712 426.78082 428.29929 432.0921 435.88492 438.64334 441.40173 463.29001 464.80847 468.60129 472.3941 475.15253 477.91092 496.05743 499.85025 501.36871 505.16153"
         y="8.9025126"
         sodipodi:role="line"
         id="tspan512">W4-.04.07.04.07.02.16.11*.07.11**.03.32**.46***.45***1.00</tspan></text>
<text
       transform="matrix(0,1,0.96157326,0,142.5816,680.88121)"
       style="font-variant:normal;font-weight:normal;font-size:6.63079977px;font-family:AdvPS44A44B;-inkscape-font-specification:AdvPS44A44B;writing-mode:lr-tb;fill:#000000;fill-opacity:1;fill-rule:nonzero;stroke:none"
       id="text518"><tspan
         x="0"
         y="0"
         id="tspan516">d</tspan></text>
<text
       transform="matrix(0,1,0.96157326,0,151.14201,155.8485)"
       style="font-variant:normal;font-weight:normal;font-size:6.63079977px;font-family:AdvOT863180fb;-inkscape-font-specification:AdvOT863180fb;writing-mode:lr-tb;fill:#000000;fill-opacity:1;fill-rule:nonzero;stroke:none"
       id="text528"><tspan
         x="0 3.7928176 7.5856352 41.839024 45.63184 49.424656 83.734406 87.527222 91.320038 120.30061 124.09343 127.88625 156.86682 160.65964 164.45245 190.6554 194.44821 198.24103 232.55078 236.3436 240.13641 269.11697 272.90979 276.70261 305.6832 309.47601 313.26883 342.24942 346.04224 349.83505 378.81561 382.60843 386.40125 415.38184 419.17465 422.96747 451.94803 455.74084 459.48792 488.45789 492.2507 496.04352"
         y="0"
         sodipodi:role="line"
         id="tspan520">150401522732476143388491704465141387492748</tspan><tspan
         x="-18.482029 -11.579366 11.39503 12.913483 16.706301 53.234051 54.752506 58.545322 62.338139 95.129433 96.647888 100.4407 104.23352 131.69565 133.2141 137.00691 168.26251 169.78098 173.57379 177.36661 202.05109 203.56953 207.36235 211.15517 213.91359 243.94647 245.46492 249.25774 253.05055 280.51266 282.03113 285.82394 289.61676 317.07889 318.59735 322.39017 353.64575 355.16422 358.95703 362.74985 365.50827 390.21198 391.73044 395.52325 399.31607 402.07446 426.77817 428.29663 432.08945 435.88226 438.64069 441.39911 463.28735 464.80582 468.59863 472.39145 475.14987 477.90826 499.85358 501.37204 505.16486 508.95767 511.71606 514.47449 532.62097 536.41382 537.93225 541.7251"
         y="8.9615259"
         sodipodi:role="line"
         id="tspan522">W5.06.12*.12*.08.09*.33**.19*.13*.09.15**.41**.44***.52***.51***1.00</tspan><tspan
         x="3.7981222 7.59094 41.839024 45.63184 49.424656 83.734406 87.527222 91.320038 120.30061 124.09343 127.88625 156.86682 160.65964 164.45245 194.45352 198.24634 232.55078 236.3436 240.13641 269.11697 272.90979 276.70261 305.6832 309.47601 313.26883 342.24942 346.04224 349.83505 390.2113 391.72977 395.52258 415.38248 419.17529 422.96811 451.9487 455.74152 459.48859 488.45856 492.25137 496.04419 525.02539 528.81824 532.61102"
         y="17.864038"
         sodipodi:role="line"
         id="tspan524">9226837848368188265360466664.86258359462703</tspan><tspan
         x="-92.806664"
         y="32.485615"
         id="tspan526">*</tspan></text>
<text
       transform="matrix(0,1,0.96157326,0,182.37931,65.763117)"
       style="font-variant:normal;font-weight:normal;font-size:6.63079977px;font-family:AdvOTb92eb7df;-inkscape-font-specification:AdvOTb92eb7df;writing-mode:lr-tb;fill:#000000;fill-opacity:1;fill-rule:nonzero;stroke:none"
       id="text532"><tspan
         x="0"
         y="0"
         id="tspan530">p</tspan></text>
<text
       transform="matrix(0,1,0.96157326,0,182.37931,71.432451)"
       style="font-variant:normal;font-weight:normal;font-size:6.63079977px;font-family:AdvP4C4E51;-inkscape-font-specification:AdvP4C4E51;writing-mode:lr-tb;fill:#000000;fill-opacity:1;fill-rule:nonzero;stroke:none"
       id="text536"><tspan
         x="0"
         y="0"
         id="tspan534">&lt;</tspan></text>
<text
       transform="matrix(0,1,0.96157326,0,182.37931,78.518787)"
       style="font-variant:normal;font-weight:normal;font-size:6.63079977px;font-family:AdvOT863180fb;-inkscape-font-specification:AdvOT863180fb;writing-mode:lr-tb;fill:#000000;fill-opacity:1;fill-rule:nonzero;stroke:none"
       id="text540"><tspan
         x="0 1.5184532 5.3112707 9.1040888 13.378965 16.137379"
         y="0"
         sodipodi:role="line"
         id="tspan538">.05;**</tspan></text>
<text
       transform="matrix(0,1,0.96157326,0,182.37931,97.454363)"
       style="font-variant:normal;font-weight:normal;font-size:6.63079977px;font-family:AdvOTb92eb7df;-inkscape-font-specification:AdvOTb92eb7df;writing-mode:lr-tb;fill:#000000;fill-opacity:1;fill-rule:nonzero;stroke:none"
       id="text544"><tspan
         x="0"
         y="0"
         id="tspan542">p</tspan></text>
<text
       transform="matrix(0,1,0.96157326,0,182.37931,103.06667)"
       style="font-variant:normal;font-weight:normal;font-size:6.63079977px;font-family:AdvP4C4E51;-inkscape-font-specification:AdvP4C4E51;writing-mode:lr-tb;fill:#000000;fill-opacity:1;fill-rule:nonzero;stroke:none"
       id="text548"><tspan
         x="0"
         y="0"
         id="tspan546">&lt;</tspan></text>
<text
       transform="matrix(0,1,0.96157326,0,182.37931,110.15301)"
       style="font-variant:normal;font-weight:normal;font-size:6.63079977px;font-family:AdvOT863180fb;-inkscape-font-specification:AdvOT863180fb;writing-mode:lr-tb;fill:#000000;fill-opacity:1;fill-rule:nonzero;stroke:none"
       id="text552"><tspan
         x="0 1.5184532 5.3112707 9.1040888 13.378965 16.760674 20.765676 26.701569 29.459982 32.218395"
         y="0"
         sodipodi:role="line"
         id="tspan550">.01;and***</tspan></text>
<text
       transform="matrix(0,1,0.96157326,0,182.37931,145.13247)"
       style="font-variant:normal;font-weight:normal;font-size:6.63079977px;font-family:AdvOTb92eb7df;-inkscape-font-specification:AdvOTb92eb7df;writing-mode:lr-tb;fill:#000000;fill-opacity:1;fill-rule:nonzero;stroke:none"
       id="text556"><tspan
         x="0"
         y="0"
         id="tspan554">p</tspan></text>
<text
       transform="matrix(0,1,0.96157326,0,182.37931,150.8018)"
       style="font-variant:normal;font-weight:normal;font-size:6.63079977px;font-family:AdvP4C4E51;-inkscape-font-specification:AdvP4C4E51;writing-mode:lr-tb;fill:#000000;fill-opacity:1;fill-rule:nonzero;stroke:none"
       id="text560"><tspan
         x="0"
         y="0"
         id="tspan558">&lt;</tspan></text>
<text
       transform="matrix(0,1,0.96157326,0,182.37931,157.88814)"
       style="font-variant:normal;font-weight:normal;font-size:6.63079977px;font-family:AdvOT863180fb;-inkscape-font-specification:AdvOT863180fb;writing-mode:lr-tb;fill:#000000;fill-opacity:1;fill-rule:nonzero;stroke:none"
       id="text566"><tspan
         x="0 1.5184532 5.3112707 9.1040888 12.896906"
         y="0"
         sodipodi:role="line"
         id="tspan562">.001.</tspan><tspan
         x="-94.846962 -90.225296 -85.325134 -80.630531 -77.938423 -74.145607"
         y="8.9025126"
         sodipodi:role="line"
         id="tspan564">GHQ-12</tspan></text>
<text
       transform="matrix(0,1,0.96157326,0,190.93973,89.516632)"
       style="font-variant:normal;font-weight:normal;font-size:6.63079977px;font-family:AdvP4C4E74;-inkscape-font-specification:AdvP4C4E74;writing-mode:lr-tb;fill:#000000;fill-opacity:1;fill-rule:nonzero;stroke:none"
       id="text570"><tspan
         x="0"
         y="0"
         id="tspan568">¼</tspan></text>
<text
       transform="matrix(0,1,0.96157326,0,190.93973,96.602968)"
       style="font-variant:normal;font-weight:normal;font-size:6.63079977px;font-family:AdvOT863180fb;-inkscape-font-specification:AdvOT863180fb;writing-mode:lr-tb;fill:#000000;fill-opacity:1;fill-rule:nonzero;stroke:none"
       id="text574"><tspan
         x="0 3.7928176 7.5856352 10.27774 12.207303 14.620914 18.06893 26.190996 30.812664 34.260681 38.265682 41.713699 44.405804 47.787514 51.701675 56.601833 60.04985 63.431561 65.361122 67.774734 73.754387 78.448997 82.381058 85.829079 88.726738 91.140343 93.069908 96.796417 100.80142 104.80643 108.18813 110.1177 112.8098 116.25782"
         y="0"
         sodipodi:role="line"
         id="tspan572">12-itemGeneralHealthQuestionnaire.</tspan></text>
</g></svg>