<?xml version="1.0" encoding="UTF-8" standalone="no"?>
<!-- Created with Inkscape (http://www.inkscape.org/) -->

<svg
   xmlns:dc="http://purl.org/dc/elements/1.1/"
   xmlns:cc="http://creativecommons.org/ns#"
   xmlns:rdf="http://www.w3.org/1999/02/22-rdf-syntax-ns#"
   xmlns:svg="http://www.w3.org/2000/svg"
   xmlns="http://www.w3.org/2000/svg"
   xmlns:sodipodi="http://sodipodi.sourceforge.net/DTD/sodipodi-0.dtd"
   xmlns:inkscape="http://www.inkscape.org/namespaces/inkscape"
   version="1.1"
   id="svg2"
   xml:space="preserve"
   width="768"
   height="1031.9626"
   viewBox="0 0 768 1031.9626"
   sodipodi:docname="table3.svg"
   inkscape:version="0.92.0 r15299"><metadata
     id="metadata8"><rdf:RDF><cc:Work
         rdf:about=""><dc:format>image/svg+xml</dc:format><dc:type
           rdf:resource="http://purl.org/dc/dcmitype/StillImage" /><dc:title></dc:title></cc:Work></rdf:RDF></metadata><defs
     id="defs6" /><sodipodi:namedview
     pagecolor="#ffffff"
     bordercolor="#666666"
     borderopacity="1"
     objecttolerance="10"
     gridtolerance="10"
     guidetolerance="10"
     inkscape:pageopacity="0"
     inkscape:pageshadow="2"
     inkscape:window-width="1920"
     inkscape:window-height="988"
     id="namedview4"
     showgrid="false"
     inkscape:zoom="0.91476179"
     inkscape:cx="169.75705"
     inkscape:cy="690.90073"
     inkscape:window-x="0"
     inkscape:window-y="27"
     inkscape:window-maximized="1"
     inkscape:current-layer="g10" /><g
     id="g10"
     inkscape:groupmode="layer"
     inkscape:label="fulltext"
     transform="matrix(1.3333333,0,0,-1.3333333,0,1031.9627)"><path
       d="m 297.694,593.745 h 242.079 v 91.672 H 297.694 Z"
       style="fill:#e6e6e6;fill-opacity:1;fill-rule:nonzero;stroke:none"
       id="path278"
       inkscape:connector-curvature="0" /><path
       d="m 297.694,685.417 h 242.079 v -4.0251 H 297.694 Z"
       style="fill:#ffffff;fill-opacity:1;fill-rule:evenodd;stroke:#ffffff;stroke-width:0.75;stroke-linecap:round;stroke-linejoin:round;stroke-miterlimit:10;stroke-dasharray:none;stroke-opacity:1"
       id="path280"
       inkscape:connector-curvature="0" /><g
       id="g282"
       transform="translate(297.694,681.392)"><path
         d="M 0,0 H 242.079 V -0.454 H 0"
         style="fill:#000000;fill-opacity:1;fill-rule:evenodd;stroke:#000000;stroke-width:0.75;stroke-linecap:round;stroke-linejoin:round;stroke-miterlimit:10;stroke-dasharray:none;stroke-opacity:1"
         id="path284"
         inkscape:connector-curvature="0" /></g><path
       d="M 539.773,593.745 H 297.694 v 0.96375 h 242.079 z"
       style="fill:#ffffff;fill-opacity:1;fill-rule:evenodd;stroke:#ffffff;stroke-width:0.75;stroke-linecap:round;stroke-linejoin:round;stroke-miterlimit:10;stroke-dasharray:none;stroke-opacity:1"
       id="path286"
       inkscape:connector-curvature="0" /><g
       id="g288"
       transform="translate(539.773,594.708)"><path
         d="M 0,0 H -242.079 V 0.51 H 0"
         style="fill:#000000;fill-opacity:1;fill-rule:evenodd;stroke:#000000;stroke-width:0.75;stroke-linecap:round;stroke-linejoin:round;stroke-miterlimit:10;stroke-dasharray:none;stroke-opacity:1"
         id="path290"
         inkscape:connector-curvature="0" /></g><path
       d="m 361.531,659.168 h -63.836 v 0.51025 h 63.836 z"
       style="fill:#000000;fill-opacity:1;fill-rule:evenodd;stroke:#000000;stroke-width:0.75;stroke-linecap:round;stroke-linejoin:round;stroke-miterlimit:10;stroke-dasharray:none;stroke-opacity:1"
       id="path292"
       inkscape:connector-curvature="0" /><path
       d="m 434.438,659.168 h -87.591 v 0.51025 h 87.591 z"
       style="fill:#000000;fill-opacity:1;fill-rule:evenodd;stroke:#000000;stroke-width:0.75;stroke-linecap:round;stroke-linejoin:round;stroke-miterlimit:10;stroke-dasharray:none;stroke-opacity:1"
       id="path294"
       inkscape:connector-curvature="0" /><path
       d="m 500.598,659.168 h -80.901 v 0.51025 h 80.901 z"
       style="fill:#000000;fill-opacity:1;fill-rule:evenodd;stroke:#000000;stroke-width:0.75;stroke-linecap:round;stroke-linejoin:round;stroke-miterlimit:10;stroke-dasharray:none;stroke-opacity:1"
       id="path296"
       inkscape:connector-curvature="0" /><path
       d="m 539.773,659.168 h -53.858 v 0.51025 h 53.858 z"
       style="fill:#000000;fill-opacity:1;fill-rule:evenodd;stroke:#000000;stroke-width:0.75;stroke-linecap:round;stroke-linejoin:round;stroke-miterlimit:10;stroke-dasharray:none;stroke-opacity:1"
       id="path298"
       inkscape:connector-curvature="0" /><text
       transform="matrix(1,0,0,-0.96157326,297.6944,702.5384)"
       style="font-variant:normal;font-weight:normal;font-size:6.63079977px;font-family:AdvOTb83ee1dd;-inkscape-font-specification:AdvOTb83ee1dd;writing-mode:lr-tb;fill:#000000;fill-opacity:1;fill-rule:nonzero;stroke:none"
       id="text302"><tspan
         x="0 3.3445754 6.9318385 10.936842 13.071959 18.59409"
         y="0"
         sodipodi:role="line"
         id="tspan300">Table3</tspan></text>
<text
       transform="matrix(1,0,0,-0.96157326,297.6944,693.97798)"
       style="font-variant:normal;font-weight:normal;font-size:6.63079977px;font-family:AdvOT863180fb;-inkscape-font-specification:AdvOT863180fb;writing-mode:lr-tb;fill:#000000;fill-opacity:1;fill-rule:nonzero;stroke:none"
       id="text326"><tspan
         x="0 6.1467514 9.5947676 12.976476 19.784981 23.717045 27.722048 31.727053 35.108761 39.040825 42.972889 44.902451 48.907455 52.355469 55.253132 60.942356 63.840015 66.94323 70.669739 73.361847 76.80986 82.484497 84.619614 88.34613 93.879532 96.014648 99.462662 105.53648 108.91818 110.84775 117.12247 120.50418 124.50919 131.23878 137.31259 140.69431 142.62387 148.86942 152.25113 156.18318 159.9097 161.83926 165.28728 168.18494 171.28815 174.73616 178.74117 181.15479 184.05244 188.38235 192.17517 198.53014 202.46219 204.39175 210.46558 213.91359 217.91859 220.81625 222.74582 226.47232 230.47733 236.22888 239.95538"
         y="0"
         sodipodi:role="line"
         id="tspan304">Meanunhappinessscoresforfemaleandmaleadolescents,bydimensionsof</tspan><tspan
         x="0 3.9320643 7.9370675 11.942071 15.323779 19.255844 23.187908 25.11747 29.122473 32.570488 35.468151 38.36581 41.894058 45.275764 49.280769 55.159637 59.091702 61.021263 63.15638 65.291496 68.739517 71.431618 74.879639 78.884636 81.987854 85.435867 90.307518 94.100334 97.548347 99.96196 105.62466 109.07269 112.5207 118.48245 122.06971 124.76182 128.48833 132.31496 136.24702"
         y="8.9025126"
         sodipodi:role="line"
         id="tspan306">unhappiness,anddifferencesbetweengroups</tspan><tspan
         x="5.9524693 10.647076 12.576638 18.650452 22.098467 26.10347 29.001129 30.930693 34.657204 40.703831 44.43034"
         y="22.581188"
         sodipodi:role="line"
         id="tspan308">Dimensionof</tspan><tspan
         x="5.9524693 9.8845339 13.889537 17.894541 21.276247 25.208313 29.140377 31.069939 35.074944 38.522961 41.42062"
         y="31.542715"
         sodipodi:role="line"
         id="tspan310">unhappiness</tspan><tspan
         x="63.836037 67.151436 70.599457 76.673264 80.054977 81.984535 87.419144 90.80085 94.73291 98.459419 100.38898 103.83701 106.73466 109.83788 113.28589 117.29089 119.70451"
         y="22.581188"
         sodipodi:role="line"
         id="tspan312">Femaleadolescent;</tspan><tspan
         x="63.836037 69.909851 73.357864 76.739578 82.77095 85.184563 88.632576 93.327187"
         y="31.542715"
         sodipodi:role="line"
         id="tspan314">mean(SD)</tspan><tspan
         x="136.74301 142.88976 146.27147 148.20103 153.63696 157.01868 160.95073 164.67725 166.60681 170.05482 172.95248 176.05569 179.50371 183.50871 185.92233"
         y="22.581188"
         sodipodi:role="line"
         id="tspan316">Maleadolescent;</tspan><tspan
         x="136.74301 142.81682 146.26483 149.64655 155.6209 158.03452 161.48253 166.17712"
         y="31.542715"
         sodipodi:role="line"
         id="tspan318">mean(SD)</tspan><tspan
         x="202.90381 206.56401 209.25612 211.66972 215.11774 218.0154 220.42902 225.29668 227.43179 231.15831"
         y="22.581188"
         sodipodi:role="line"
         id="tspan320">T-testsfor</tspan><tspan
         x="202.90381 206.83588 208.76543 210.90056 213.03568 216.48369 219.1758 222.62381 226.62881 229.73203 233.18004"
         y="31.542715"
         sodipodi:role="line"
         id="tspan322">differences</tspan><tspan
         x="5.9524693 9.400485 12.503699 16.508703 20.235212 23.961721 27.891798 33.554501 37.28101 39.973114 63.834713 67.627533 69.145981 74.945946 77.359558 81.152374 82.670822 86.463646 136.74036 140.53317 142.05164 147.79523 150.20883 154.00166 155.52011 159.31293"
         y="45.103367"
         sodipodi:role="line"
         id="tspan324">Schoolwork2.3(1.1)2.6(1.3)</tspan></text>
<text
       transform="matrix(1,0,0,-0.96157326,500.59821,650.60779)"
       style="font-variant:normal;font-weight:normal;font-size:6.63079977px;font-family:AdvP4C4E51;-inkscape-font-specification:AdvP4C4E51;writing-mode:lr-tb;fill:#000000;fill-opacity:1;fill-rule:nonzero;stroke:none"
       id="text330"><tspan
         x="0"
         y="0"
         id="tspan328">&lt;</tspan></text>
<text
       transform="matrix(1,0,0,-0.96157326,505.70061,650.60779)"
       style="font-variant:normal;font-weight:normal;font-size:6.63079977px;font-family:AdvOT863180fb;-inkscape-font-specification:AdvOT863180fb;writing-mode:lr-tb;fill:#000000;fill-opacity:1;fill-rule:nonzero;stroke:none"
       id="text336"><tspan
         x="0 1.5184532 5.3112707 9.1040888"
         y="0"
         sodipodi:role="line"
         id="tspan332">.001</tspan><tspan
         x="-202.05374 -197.70393 -193.77187 -189.8398 -186.39178 -183.01009 -180.31798 -176.93626 -172.93126 -169.82805 -144.17216 -140.37933 -138.86089 -133.06093 -130.64731 -126.8545 -125.33604 -121.54323 -71.26651 -67.473694 -65.955238 -60.211643 -57.798031 -54.005215 -52.486759 -48.693943"
         y="8.9025126"
         sodipodi:role="line"
         id="tspan334">Appearance2.8(1.5)2.6(1.3)</tspan></text>
<text
       transform="matrix(1,0,0,-0.96157326,500.59821,642.04738)"
       style="font-variant:normal;font-weight:normal;font-size:6.63079977px;font-family:AdvP4C4E51;-inkscape-font-specification:AdvP4C4E51;writing-mode:lr-tb;fill:#000000;fill-opacity:1;fill-rule:nonzero;stroke:none"
       id="text340"><tspan
         x="0"
         y="0"
         id="tspan338">&lt;</tspan></text>
<text
       transform="matrix(1,0,0,-0.96157326,505.70061,642.04738)"
       style="font-variant:normal;font-weight:normal;font-size:6.63079977px;font-family:AdvOT863180fb;-inkscape-font-specification:AdvOT863180fb;writing-mode:lr-tb;fill:#000000;fill-opacity:1;fill-rule:nonzero;stroke:none"
       id="text358"><tspan
         x="0 1.5184532 5.3112707 9.1040888"
         y="0"
         sodipodi:role="line"
         id="tspan342">.001</tspan><tspan
         x="-202.05374 -198.73834 -195.35663 -189.28282 -187.35326 -185.42369 -144.17149 -140.37868 -138.86023 -133.06026 -130.64665 -129.1282 -125.33538 -71.265182 -67.472366 -65.953918 -60.210316 -57.796703 -54.003887 -52.485435 -48.692616 -0.0033154001 1.5151378 5.3079553 9.1007729"
         y="8.9025126"
         sodipodi:role="line"
         id="tspan344">Family1.5(.9)1.6(1.0).353</tspan><tspan
         x="-202.05374 -198.73834 -196.04623 -194.11667 -190.66866 -186.66365 -182.73158 -144.17149 -140.37868 -138.86023 -133.06026 -130.64665 -126.85384 -125.33538 -121.54256 -71.265846 -67.47303 -65.954575 -60.210979 -57.797367 -56.278915 -52.486099 -0.0033154001 1.5151378 5.3079553 9.1007729"
         y="17.805023"
         sodipodi:role="line"
         id="tspan346">Friends1.6(1.0)1.6(.9).601</tspan><tspan
         x="-202.05374 -198.60573 -195.5025 -191.4975 -187.771 -184.04448 -144.17149 -140.37868 -138.86023 -133.06026 -130.64665 -126.85384 -125.33538 -121.54256 -71.265846 -67.47303 -65.954575 -60.210979 -57.797367 -54.004551 -52.486099 -48.693279 -0.0039784801 1.5144747 5.3072925 9.1001101"
         y="26.707537"
         sodipodi:role="line"
         id="tspan348">School2.2(1.4)2.3(1.4).097</tspan><tspan
         x="-202.05374 -198.81128 -196.88171 -194.7466 -189.29807 -187.3685 -181.36099 -177.77374 -174.32571 -170.32072 -166.8727 -164.1806 -160.79889 -144.17149 -140.37868 -138.86023 -133.06026 -130.64665 -126.85384 -125.33538 -121.54256 -71.265846 -67.47303 -65.954575 -60.210979 -57.797367 -54.004551 -52.486099 -48.693279 -0.0039784801 1.5144747 5.3072925 9.1001101"
         y="35.610046"
         sodipodi:role="line"
         id="tspan350">Lifeingeneral2.1(1.1)2.0(1.1).013</tspan><tspan
         x="-202.05374 -198.39354 -194.66702 -192.25342 -188.8717 -144.17084 -140.37802 -138.85956 -133.0596 -130.646 -126.85317 -125.33472 -121.5419 -71.265182 -67.472366 -65.953918 -60.210316 -57.796703 -54.003887 -52.485435 -48.692616 -0.0033154001 1.5151378 5.3079553 9.1007729"
         y="44.571575"
         sodipodi:role="line"
         id="tspan352">Total6.6(4.9)6.4(4.6).315</tspan><tspan
         x="-208.00621 -203.10605 -201.17648 -197.58922 -193.58421 -190.1362 -185.44359 -182.54593 -179.4427 -175.7162 -173.02409 -169.57608 -164.69514 -162.76558 -158.76057 -154.82852 -152.89896 -149.79575 -146.41403 -144.00043 -138.56117 -134.97391 -132.28181 -128.83379 -125.45209 -123.03848 -119.59045 -114.86469 -110.93262 -106.92762 -102.92262 -99.540909 -95.608841 -91.676781 -89.747215 -85.74221 -82.294197 -79.396538 -76.498878"
         y="59.134136"
         sodipodi:role="line"
         id="tspan354">Higherscoresindicategreaterunhappiness.</tspan><tspan
         x="-208.00621 -204.5582"
         y="68.036652"
         sodipodi:role="line"
         id="tspan356">SD</tspan></text>
<text
       transform="matrix(1,0,0,-0.96157326,307.84218,576.62515)"
       style="font-variant:normal;font-weight:normal;font-size:6.63079977px;font-family:AdvP4C4E74;-inkscape-font-specification:AdvP4C4E74;writing-mode:lr-tb;fill:#000000;fill-opacity:1;fill-rule:nonzero;stroke:none"
       id="text362"><tspan
         x="0"
         y="0"
         id="tspan360">¼</tspan></text>
<text
       transform="matrix(1,0,0,-0.96157326,314.92851,576.62515)"
       style="font-variant:normal;font-weight:normal;font-size:6.63079977px;font-family:AdvOT863180fb;-inkscape-font-specification:AdvOT863180fb;writing-mode:lr-tb;fill:#000000;fill-opacity:1;fill-rule:nonzero;stroke:none"
       id="text366"><tspan
         x="0 2.8976595 5.3112707 8.6929789 12.697982 16.630047 20.011755 22.703859 28.628479 32.560543 36.00856 39.595821 41.525387 44.907093 47.320705 49.250267 52.976776 56.981781"
         y="0"
         sodipodi:role="line"
         id="tspan364">standarddeviation.</tspan></text>
</g></svg>