<?xml version="1.0" encoding="UTF-8" standalone="no"?>
<!-- Created with Inkscape (http://www.inkscape.org/) -->

<svg
   xmlns:dc="http://purl.org/dc/elements/1.1/"
   xmlns:cc="http://creativecommons.org/ns#"
   xmlns:rdf="http://www.w3.org/1999/02/22-rdf-syntax-ns#"
   xmlns:svg="http://www.w3.org/2000/svg"
   xmlns="http://www.w3.org/2000/svg"
   xmlns:sodipodi="http://sodipodi.sourceforge.net/DTD/sodipodi-0.dtd"
   xmlns:inkscape="http://www.inkscape.org/namespaces/inkscape"
   version="1.1"
   id="svg2"
   xml:space="preserve"
   width="793.70135"
   height="1054.488"
   viewBox="0 0 793.70135 1054.488"
   sodipodi:docname="table1.svg"
   inkscape:version="0.92.0 r15299"><metadata
     id="metadata8"><rdf:RDF><cc:Work
         rdf:about=""><dc:format>image/svg+xml</dc:format><dc:type
           rdf:resource="http://purl.org/dc/dcmitype/StillImage" /><dc:title></dc:title></cc:Work></rdf:RDF></metadata><defs
     id="defs6" /><sodipodi:namedview
     pagecolor="#ffffff"
     bordercolor="#666666"
     borderopacity="1"
     objecttolerance="10"
     gridtolerance="10"
     guidetolerance="10"
     inkscape:pageopacity="0"
     inkscape:pageshadow="2"
     inkscape:window-width="1920"
     inkscape:window-height="988"
     id="namedview4"
     showgrid="false"
     inkscape:zoom="1.2660339"
     inkscape:cx="705.85332"
     inkscape:cy="676.55596"
     inkscape:window-x="0"
     inkscape:window-y="27"
     inkscape:window-maximized="1"
     inkscape:current-layer="g10" /><g
     id="g10"
     inkscape:groupmode="layer"
     inkscape:label="fulltext"
     transform="matrix(1.3333333,0,0,-1.3333333,0,1054.488)"><g
       id="g360"
       transform="translate(45.354,731.565)"><path
         d="m 0,0 h 514.034 l -0.51,-0.454 H 0.454"
         style="fill:#231f20;fill-opacity:1;fill-rule:evenodd;stroke:#231f20;stroke-width:0.75;stroke-linecap:round;stroke-linejoin:round;stroke-miterlimit:10;stroke-dasharray:none;stroke-opacity:1"
         id="path362"
         inkscape:connector-curvature="0" /></g><g
       id="g364"
       transform="translate(559.389,731.565)"><path
         d="m 0,0 v -275.924 l -0.51,0.51 v 274.96"
         style="fill:#231f20;fill-opacity:1;fill-rule:evenodd;stroke:#231f20;stroke-width:0.75;stroke-linecap:round;stroke-linejoin:round;stroke-miterlimit:10;stroke-dasharray:none;stroke-opacity:1"
         id="path366"
         inkscape:connector-curvature="0" /></g><g
       id="g368"
       transform="translate(559.389,455.641)"><path
         d="m 0,0 h -514.034 l 0.453,0.51 H -0.51"
         style="fill:#231f20;fill-opacity:1;fill-rule:evenodd;stroke:#231f20;stroke-width:0.75;stroke-linecap:round;stroke-linejoin:round;stroke-miterlimit:10;stroke-dasharray:none;stroke-opacity:1"
         id="path370"
         inkscape:connector-curvature="0" /></g><g
       id="g372"
       transform="translate(45.354,455.641)"><path
         d="m 0,0 v 275.924 l 0.454,-0.453 V 0.51"
         style="fill:#231f20;fill-opacity:1;fill-rule:evenodd;stroke:#231f20;stroke-width:0.75;stroke-linecap:round;stroke-linejoin:round;stroke-miterlimit:10;stroke-dasharray:none;stroke-opacity:1"
         id="path374"
         inkscape:connector-curvature="0" /></g><g
       id="g376"
       transform="translate(48.302,705.203)"><path
         d="M 0,0 H 508.138 V -1.021 H 0"
         style="fill:#231f20;fill-opacity:1;fill-rule:evenodd;stroke:#231f20;stroke-width:0.75;stroke-linecap:round;stroke-linejoin:round;stroke-miterlimit:10;stroke-dasharray:none;stroke-opacity:1"
         id="path378"
         inkscape:connector-curvature="0" /></g><g
       id="g380"
       transform="translate(289.701,686.494)"><path
         d="M 0,0 H -241.398 V 0.284 H 0"
         style="fill:#231f20;fill-opacity:1;fill-rule:evenodd;stroke:#231f20;stroke-width:0.75;stroke-linecap:round;stroke-linejoin:round;stroke-miterlimit:10;stroke-dasharray:none;stroke-opacity:1"
         id="path382"
         inkscape:connector-curvature="0" /></g><g
       id="g384"
       transform="translate(380.239,686.494)"><path
         d="M 0,0 H -90.539 V 0.284 H 0"
         style="fill:#231f20;fill-opacity:1;fill-rule:evenodd;stroke:#231f20;stroke-width:0.75;stroke-linecap:round;stroke-linejoin:round;stroke-miterlimit:10;stroke-dasharray:none;stroke-opacity:1"
         id="path386"
         inkscape:connector-curvature="0" /></g><g
       id="g388"
       transform="translate(397.361,686.494)"><path
         d="M 0,0 H -17.121 V 0.284 H 0"
         style="fill:#231f20;fill-opacity:1;fill-rule:evenodd;stroke:#231f20;stroke-width:0.75;stroke-linecap:round;stroke-linejoin:round;stroke-miterlimit:10;stroke-dasharray:none;stroke-opacity:1"
         id="path390"
         inkscape:connector-curvature="0" /></g><g
       id="g392"
       transform="translate(424.403,686.494)"><path
         d="M 0,0 H -27.043 V 0.284 H 0"
         style="fill:#231f20;fill-opacity:1;fill-rule:evenodd;stroke:#231f20;stroke-width:0.75;stroke-linecap:round;stroke-linejoin:round;stroke-miterlimit:10;stroke-dasharray:none;stroke-opacity:1"
         id="path394"
         inkscape:connector-curvature="0" /></g><g
       id="g396"
       transform="translate(451.842,686.494)"><path
         d="M 0,0 H -27.439 V 0.284 H 0"
         style="fill:#231f20;fill-opacity:1;fill-rule:evenodd;stroke:#231f20;stroke-width:0.75;stroke-linecap:round;stroke-linejoin:round;stroke-miterlimit:10;stroke-dasharray:none;stroke-opacity:1"
         id="path398"
         inkscape:connector-curvature="0" /></g><g
       id="g400"
       transform="translate(478.885,686.494)"><path
         d="M 0,0 H -27.043 V 0.284 H 0"
         style="fill:#231f20;fill-opacity:1;fill-rule:evenodd;stroke:#231f20;stroke-width:0.75;stroke-linecap:round;stroke-linejoin:round;stroke-miterlimit:10;stroke-dasharray:none;stroke-opacity:1"
         id="path402"
         inkscape:connector-curvature="0" /></g><g
       id="g404"
       transform="translate(505.984,686.494)"><path
         d="M 0,0 H -27.099 V 0.284 H 0"
         style="fill:#231f20;fill-opacity:1;fill-rule:evenodd;stroke:#231f20;stroke-width:0.75;stroke-linecap:round;stroke-linejoin:round;stroke-miterlimit:10;stroke-dasharray:none;stroke-opacity:1"
         id="path406"
         inkscape:connector-curvature="0" /></g><g
       id="g408"
       transform="translate(556.441,686.494)"><path
         d="M 0,0 H -50.457 V 0.284 H 0"
         style="fill:#231f20;fill-opacity:1;fill-rule:evenodd;stroke:#231f20;stroke-width:0.75;stroke-linecap:round;stroke-linejoin:round;stroke-miterlimit:10;stroke-dasharray:none;stroke-opacity:1"
         id="path410"
         inkscape:connector-curvature="0" /></g><g
       id="g412"
       transform="translate(48.302,501.222)"><path
         d="M 0,0 H 508.138 V -1.02 H 0"
         style="fill:#231f20;fill-opacity:1;fill-rule:evenodd;stroke:#231f20;stroke-width:0.75;stroke-linecap:round;stroke-linejoin:round;stroke-miterlimit:10;stroke-dasharray:none;stroke-opacity:1"
         id="path414"
         inkscape:connector-curvature="0" /></g><text
       transform="matrix(1,0,0,-1,49.3228,720.6234)"
       style="font-variant:normal;font-weight:normal;font-size:8.46819973px;font-family:AdvOT919a0533;-inkscape-font-specification:AdvOT919a0533;writing-mode:lr-tb;fill:#231f20;fill-opacity:1;fill-rule:nonzero;stroke:none"
       id="text418"><tspan
         x="0 3.260257 6.7830281 10.483631 12.3297 18.537737 22.060509"
         y="0"
         sodipodi:role="line"
         id="tspan416">Table1.</tspan></text>
<text
       transform="matrix(1,0,0,-1,81.8079,720.6234)"
       style="font-variant:normal;font-weight:normal;font-size:7.97020006px;font-family:AdvTT6780a46b;-inkscape-font-specification:AdvTT6780a46b;writing-mode:lr-tb;fill:#231f20;fill-opacity:1;fill-rule:nonzero;stroke:none"
       id="text424"><tspan
         x="0 5.4755273 9.540329 12.776231 16.426582 19.080658 20.985537 25.632164 28.175453 30.080332 34.065434 40.534046 43.769947 46.424023 50.321453 52.975529 54.880405 58.116306 60.770386 62.675262 66.325615 71.997208 76.476463 81.237854 85.884483 89.949287 96.755836 101.23509 105.79404 108.44812 112.34555 116.99217 121.55113 123.45601 127.10636 132.76918 136.66661 141.22557 148.30231 152.94893 156.84636 160.08226 164.14706 166.05194 167.95682 172.51578 179.02902 183.67564 187.57307 190.22716 194.12459 200.93114 204.99594 207.54401 211.60881 214.26289 219.95918 222.61327 226.67807 228.58295 232.48038 235.13445 237.03932 241.59828 248.64473 251.29881 258.22571 262.87234 264.77722 269.25647 273.73572 280.84515 284.49548 289.05444 293.11926 299.92581 301.83069 305.06659 307.72064 310.37473 313.83939 317.9783 322.62494 324.52982 328.42725 331.0813 335.14612 337.05099 341.11578 346.21036 348.61734 353.09659 357.65555 361.30591 363.95999 365.86487 370.34412 374.90308 379.09061 382.74097 387.22021 391.11765 395.67661 400.15585 402.06073 405.95816 408.5126 410.41748 414.89673 421.94876 425.84619 430.40515 437.48187 441.79059 445.70236 452.90262 457.3819 462.31384 464.96793 469.52689"
         y="0"
         sodipodi:role="line"
         id="tspan420">Descriptivestatisticsofdemographicsandbaselineparametersrelatingtobloodchemistry,plateletfunction,coagulationandTTCofthe</tspan><tspan
         x="-32.48494 -29.249041 -26.594963 -22.115711 -17.469084 -11.055465 -6.4088378 -1.9295855 2.7170413 7.1962934 9.1011715 12.998599 15.652676 17.557554 22.036806"
         y="9.9778938"
         sodipodi:role="line"
         id="tspan422">studypopulation</tspan></text>
<text
       transform="matrix(1,0,0,-1,289.7018,692.95724)"
       style="font-variant:normal;font-weight:normal;font-size:7.97020006px;font-family:AdvOT65f8a23b;-inkscape-font-specification:AdvOT65f8a23b;writing-mode:lr-tb;fill:#231f20;fill-opacity:1;fill-rule:nonzero;stroke:none"
       id="text428"><tspan
         x="0 4.2321763 8.3766804 10.863382 12.600886 16.74539 20.889894 22.627398"
         y="0"
         sodipodi:role="line"
         id="tspan426">Variable</tspan></text>
<text
       transform="matrix(1,0,0,-1,382.0549,692.95724)"
       style="font-variant:normal;font-weight:normal;font-size:7.97020006px;font-family:AdvTT6780a46b;-inkscape-font-specification:AdvTT6780a46b;writing-mode:lr-tb;fill:#231f20;fill-opacity:1;fill-rule:nonzero;stroke:none"
       id="text432"><tspan
         x="0"
         y="0"
         id="tspan430">n</tspan></text>
<text
       transform="matrix(1,0,0,-1,397.41905,692.95724)"
       style="font-variant:normal;font-weight:normal;font-size:7.97020006px;font-family:AdvOT65f8a23b;-inkscape-font-specification:AdvOT65f8a23b;writing-mode:lr-tb;fill:#231f20;fill-opacity:1;fill-rule:nonzero;stroke:none"
       id="text436"><tspan
         x="0 6.137054 9.6997337 13.844237 26.985502 30.635855 32.293655 35.856335 37.514137 43.906239 57.485863 63.622917 65.36042 83.734123 89.871178 94.015678 108.56528 114.70234 116.43984 119.341 122.24214 123.97965 128.21182 134.98331 138.54599 142.69049 144.42799 148.57249 152.13518"
         y="0"
         sodipodi:role="line"
         id="tspan434">MeanS.e.m.MinMaxMissingvalues</tspan></text>
<text
       transform="matrix(1,0,0,-1,52.328521,675.77907)"
       style="font-variant:normal;font-weight:normal;font-size:7.97020006px;font-family:AdvTT6780a46b;-inkscape-font-specification:AdvTT6780a46b;writing-mode:lr-tb;fill:#231f20;fill-opacity:1;fill-rule:nonzero;stroke:none"
       id="text458"><tspan
         x="0 5.4755273 9.540329 16.34688 20.826132 25.283865 27.937943 31.835369 36.481995 41.040951 42.945827 46.59618 52.439133 56.918385 62.020111 66.66674 71.145988 75.792618 80.271866 82.17675 86.074173 88.728249 90.535095 95.014351 102.21383 106.11126 111.45448 116.1011 119.99854 123.23444 127.29924 129.20412 131.10899 135.66795 237.3685 242.42958 246.98853 253.63887 255.87849 259.69623 263.76102 267.65845 270.31253 273.54843 327.90598 332.05048 345.02676 349.17126 353.31577 354.97357 359.11807 374.3364 378.4809 380.1387 384.2832 404.43982 408.58432 431.53931 435.68381 474.79596"
         y="0"
         sodipodi:role="line"
         id="tspan438">DemographicsofpopulationatbaselineAge(years)4760.547.1545720</tspan><tspan
         x="237.37407 241.77362 248.32513 327.91235 332.05685 345.03314 349.17764 353.32214 354.97995 359.12445 374.34277 378.48727 380.14505 384.28958 399.51425 403.65875 407.80325 409.46106 413.60556 426.55634 430.70084 434.84534 436.50314 440.64764 474.80154"
         y="8.9577074"
         sodipodi:role="line"
         id="tspan440">BMI4726.623.5420.0435.750</tspan><tspan
         x="237.37407 240.94553 245.42477 252.23132 256.12875 258.78284 265.88986 267.79474 272.3537 275.00775 278.90518 282.72293 289.35971 291.59933 296.15829 298.89206 304.86972 308.93451 312.99933 316.81705 327.90997 332.05447 345.03076 349.17526 353.31976 357.46426 359.12207 372.24261 376.38712 380.53162 384.67612 386.33392 406.54156 427.40436 431.54886 435.69336 439.83789 474.79916"
         y="17.915417"
         sodipodi:role="line"
         id="tspan442">Tomatointake(g/week)45960.7622.2031802</tspan><tspan
         x="0 4.3995504 6.3044281 10.783681 15.262933 22.50625 26.156603 30.715557 34.780357 41.58691 43.491787 46.727688 49.381763 52.155396 58.618431 63.097683 68.142822 72.789444 77.2687 81.915321 86.394577 88.299454 92.196884 94.85096 96.657806 101.13705 108.33654 112.23396 117.57719 122.22382 126.12124 129.35715 133.42195 135.32683 137.2317 141.79065 148.41708 150.65671 157.46326 162.02222 164.756 169.33566 171.24054 178.40656 180.81355 184.71098 187.94688 190.60095 194.66576 201.93298 206.57962 208.4845 212.38191 215.61781 222.42438 226.32179 237.36531 242.17931 246.73827 251.21751 253.12239 257.18719 260.4231 263.07718 267.14197 269.79605 274.2753 327.90201 332.04651 345.0228 349.1673 350.8251 354.9696 359.11411 372.23465 376.37915 378.03696 382.18146 386.32596 399.50308 403.64758 405.30539 409.44989 413.59439 426.54517 430.6897 432.34747 436.49197 440.63651 474.79041"
         y="26.873123"
         sodipodi:role="line"
         id="tspan444">Bloodchemistryofpopulationatbaseline(mg/linfastedplasma)Cholesterol475.2580.8363.2486.9840</tspan><tspan
         x="237.37407 242.68224 248.15776 327.91235 332.05685 345.03314 349.17764 350.83545 354.97995 359.12445 372.245 376.3895 378.0473 382.1918 386.3363 399.51346 403.65796 405.31577 409.46027 413.60477 426.55554 430.70004 432.35785 436.50235 440.64685 474.80075"
         y="35.83083"
         sodipodi:role="line"
         id="tspan446">HDL471.2380.4660.4392.4980</tspan><tspan
         x="237.37407 241.2715 246.74702 327.91235 332.05685 345.03314 349.17764 350.83545 354.97995 359.12445 372.245 376.3895 378.0473 382.1918 386.3363 399.51346 403.65796 405.31577 409.46027 413.60477 428.65329 432.79779 434.4556 438.6001 474.80075"
         y="44.78854"
         sodipodi:role="line"
         id="tspan448">LDL463.5070.7731.2885.141</tspan><tspan
         x="237.37407 241.11609 243.77016 245.67503 250.23399 252.13887 255.9566 259.60693 263.67175 266.32584 268.23071 272.87732 276.94214 327.91156 332.05606 345.03235 349.17685 350.83466 354.97916 359.12366 372.2442 376.3887 378.04651 382.19101 386.33551 399.51266 403.65717 405.31497 409.45947 413.60397 426.55475 430.69925 432.35706 436.50156 440.64606 474.79996"
         y="53.802834"
         sodipodi:role="line"
         id="tspan450">Triglycerides471.1550.5550.3412.8060</tspan><tspan
         x="237.37407 242.18808 246.74702 251.22629 253.13116 254.78896 260.09711 265.57263 272.06915 274.72324 278.62067 281.27472 283.17963 327.91156 332.05606 347.07352 351.21802 352.87582 357.02032 372.245 376.3895 378.0473 382.1918 386.3363 399.51346 403.65796 405.31577 409.46027 413.60477 426.55554 430.70004 432.35785 436.50235 440.64685 474.80075"
         y="62.760544"
         sodipodi:role="line"
         id="tspan452">Chol:HDLratio464.841.6961.7999.9411</tspan><tspan
         x="237.37407 242.68224 244.58711 249.06636 252.71671 257.19595 260.43185 327.91156 332.05606 345.03235 349.17685 350.83466 354.97916 359.12366 372.2442 376.3887 378.04651 382.19101 386.33551 399.51266 403.65717 405.31497 409.45947 413.60397 426.55475 430.69925 432.35706 436.50156 440.64606 474.79996"
         y="71.718254"
         sodipodi:role="line"
         id="tspan454">Glucose475.1940.7683.8877.9970</tspan><tspan
         x="0 4.3118782 6.2167559 10.114183 12.76826 16.833063 18.73794 22.802742 28.062277 31.959705 36.518658 41.077614 43.731689 47.796494 52.355446 56.252876 58.906952 60.716187 65.195442 72.451508 77.098137 81.162941 85.721893 89.459122 93.444221 95.349098 99.828346 104.3076 109.58467 114.06393 119.10906 123.75568 128.23494 132.88156 137.36082 139.2657 143.16312 145.8172 147.72208 152.20132 159.35936 163.25679 168.54343 173.19005 177.08748 180.32338 184.38818 186.29306 188.19794 192.7569 199.43991 201.67953 208.15134 213.04584 218.35399 223.16798 237.3669 242.42798 247.9035 254.82802 257.06766"
         y="80.675957"
         sodipodi:role="line"
         id="tspan456">Plateletaggregationbehaviourofpopulationatbaseline(%AUC)ADP(3</tspan></text>
<text
       transform="matrix(1,0,0,-1,315.55474,595.10311)"
       style="font-variant:normal;font-weight:normal;font-size:7.97020006px;font-family:'AdvOT8608a8d1 3';-inkscape-font-specification:'AdvOT8608a8d1 3';writing-mode:lr-tb;fill:#231f20;fill-opacity:1;fill-rule:nonzero;stroke:none"
       id="text462"><tspan
         x="0"
         y="0"
         id="tspan460">μ</tspan></text>
<text
       transform="matrix(1,0,0,-1,319.69366,595.10311)"
       style="font-variant:normal;font-weight:normal;font-size:7.97020006px;font-family:AdvTT6780a46b;-inkscape-font-specification:AdvTT6780a46b;writing-mode:lr-tb;fill:#231f20;fill-opacity:1;fill-rule:nonzero;stroke:none"
       id="text468"><tspan
         x="0 6.806551 11.285803 13.190681 15.924459 17.829338 60.547218 64.691719 77.668007 81.812508 85.957016 87.614815 91.759315 104.87986 109.02437 113.16887 114.82667 118.97118 132.1483 136.29282 140.43732 142.09512 146.23962 159.1904 163.3349 167.4794 169.13721 173.28171 205.39444 209.53896"
         y="0"
         sodipodi:role="line"
         id="tspan464">mol/l)3279.7512.8623.7590.4815</tspan><tspan
         x="-29.990269 -24.929192 -19.453665 -12.529155 -10.289528 -6.1450243 -4.4872227"
         y="8.9577074"
         sodipodi:role="line"
         id="tspan466">ADP(7.5</tspan></text>
<text
       transform="matrix(1,0,0,-1,321.33791,586.1454)"
       style="font-variant:normal;font-weight:normal;font-size:7.97020006px;font-family:'AdvOT8608a8d1 3';-inkscape-font-specification:'AdvOT8608a8d1 3';writing-mode:lr-tb;fill:#231f20;fill-opacity:1;fill-rule:nonzero;stroke:none"
       id="text472"><tspan
         x="0"
         y="0"
         id="tspan470">μ</tspan></text>
<text
       transform="matrix(1,0,0,-1,325.47684,586.1454)"
       style="font-variant:normal;font-weight:normal;font-size:7.97020006px;font-family:AdvTT6780a46b;-inkscape-font-specification:AdvTT6780a46b;writing-mode:lr-tb;fill:#231f20;fill-opacity:1;fill-rule:nonzero;stroke:none"
       id="text482"><tspan
         x="0 6.806551 11.285803 13.190681 15.924459 17.829338 54.764839 58.909344 71.885628 76.030128 80.174629 81.832436 85.976936 101.19524 105.33974 106.99754 111.14205 126.36672 130.51123 134.65573 136.31354 140.45804 153.40881 157.55331 161.69783 163.35562 167.50012 199.61287 203.75737"
         y="0"
         sodipodi:role="line"
         id="tspan474">mol/l)3284.164.1772.2891.0115</tspan><tspan
         x="-35.773445 -30.959444 -26.589384 -24.684507 -22.779629 -18.8822 -14.323246 -10.258445 -3.062151 -0.82252467 5.3280787 12.134629 16.693584 19.427362 21.332241 54.764042 58.908546 71.884827 76.029335 80.173836 81.831635 85.976143 101.19444 105.33894 106.99675 111.14125 126.36593 130.51044 134.65494 136.31274 140.45724 153.40802 157.55252 161.69702 163.35483 167.49933 199.61206 203.75658"
         y="8.9577074"
         sodipodi:role="line"
         id="tspan476">Collagen(2mg/l)3274.855.1761.5281.8415</tspan><tspan
         x="-35.773445 -30.959444 -26.589384 -24.684507 -22.779629 -18.8822 -14.323246 -10.258445 -3.062151 -0.82252467 5.3280787 12.134629 16.693584 19.427362 21.332241 54.764042 58.908546 71.884827 76.029335 80.173836 81.831635 85.976143 101.19444 105.33894 106.99675 111.14125 126.36593 130.51044 134.65494 136.31274 140.45724 153.40802 157.55252 161.69702 163.35483 167.49933 199.61206 203.75658"
         y="17.972004"
         sodipodi:role="line"
         id="tspan478">Collagen(3mg/l)3277.434.4265.0984.5615</tspan><tspan
         x="-35.773445 -30.712368 -23.017937 -20.778311 -16.633808 -12.489304"
         y="26.929712"
         sodipodi:role="line"
         id="tspan480">AA(500</tspan></text>
<text
       transform="matrix(1,0,0,-1,319.12698,559.21569)"
       style="font-variant:normal;font-weight:normal;font-size:7.97020006px;font-family:'AdvOT8608a8d1 3';-inkscape-font-specification:'AdvOT8608a8d1 3';writing-mode:lr-tb;fill:#231f20;fill-opacity:1;fill-rule:nonzero;stroke:none"
       id="text486"><tspan
         x="0"
         y="0"
         id="tspan484">μ</tspan></text>
<text
       transform="matrix(1,0,0,-1,323.26591,559.21569)"
       style="font-variant:normal;font-weight:normal;font-size:7.97020006px;font-family:AdvTT6780a46b;-inkscape-font-specification:AdvTT6780a46b;writing-mode:lr-tb;fill:#231f20;fill-opacity:1;fill-rule:nonzero;stroke:none"
       id="text494"><tspan
         x="0 6.806551 11.285803 13.190681 15.924459 17.829338 56.975773 61.120277 74.096558 78.241066 82.385567 84.043365 88.187874 103.40617 107.55067 109.20848 113.35298 128.57765 132.72217 136.86667 138.52446 142.66898 157.7175 161.86201 166.00652 167.66432 201.82458 205.9691"
         y="0"
         sodipodi:role="line"
         id="tspan488">mol/l)3180.214.0271.2586.416</tspan><tspan
         x="-270.93658 -266.74109 -262.01474 -257.6152 -250.81104 -246.25208 -242.18729 -237.62833 -233.56352 -230.90944 -227.01202 -224.4496 -222.54472 -218.06548 -210.84367 -208.9388 -201.7162 -197.06956 -193.17215 -189.93625 -185.87144 -183.96657 -182.06169 -177.50273 -170.87631 -167.64041 -163.74298 -156.93643 -152.28979 -150.38492 -146.32011 -140.43333 -138.19371 -131.38715 -126.8282 -124.09442 -119.57133 -114.92471 -113.01983 -109.1224 -106.46832 -102.40352 -100.49864 -96.433838 -93.779762 -91.372765 -88.718689 -86.917419 -83.267067 -76.032516 -71.385895 -69.481018 -65.583588 -62.347687 -55.541134 -51.643707 -33.570484 -28.756481 -24.386421 -22.481543 -20.576666 -16.679237 -12.120283 -8.055481 -0.85918754 1.3804387 7.5310421 14.337593 18.896547 21.630325 23.535204 56.967003 61.111507 74.087791 78.232292 82.376801 86.521301 88.179108 103.39741 107.54191 111.68641 113.34422 130.60927 134.75377 138.89827 140.55608 155.61018 159.75468 163.89919 168.0437 169.70149 201.81422 205.95874"
         y="8.9577074"
         sodipodi:role="line"
         id="tspan490">TXB2generationinbaselinesamples(mg/lplatelet-richplasma)Collagen(2mg/l)32172.662.764.7347.215</tspan><tspan
         x="-33.562511 -28.501434 -20.807005 -18.567377 -14.422873 -10.27837"
         y="17.915417"
         sodipodi:role="line"
         id="tspan492">AA(500</tspan></text>
<text
       transform="matrix(1,0,0,-1,319.12698,541.30028)"
       style="font-variant:normal;font-weight:normal;font-size:7.97020006px;font-family:'AdvOT8608a8d1 3';-inkscape-font-specification:'AdvOT8608a8d1 3';writing-mode:lr-tb;fill:#231f20;fill-opacity:1;fill-rule:nonzero;stroke:none"
       id="text498"><tspan
         x="0"
         y="0"
         id="tspan496">μ</tspan></text>
<text
       transform="matrix(1,0,0,-1,323.26591,541.30028)"
       style="font-variant:normal;font-weight:normal;font-size:7.97020006px;font-family:AdvTT6780a46b;-inkscape-font-specification:AdvTT6780a46b;writing-mode:lr-tb;fill:#231f20;fill-opacity:1;fill-rule:nonzero;stroke:none"
       id="text510"><tspan
         x="0 6.806551 11.285803 13.190681 15.924459 17.829338 56.975773 61.120277 74.096558 78.241066 82.385567 86.530067 88.187874 101.30842 105.45292 109.59742 113.74193 115.39973 130.61803 134.76253 138.90704 140.56483 155.61896 159.76346 163.90796 168.05246 169.71027 201.823 205.9675"
         y="0"
         sodipodi:role="line"
         id="tspan500">mol/l)31731.2171.848.1891.816</tspan><tspan
         x="-270.93658 -266.62469 -264.71982 -260.82242 -257.58652 -250.77995 -244.29221 -240.64186 -238.73698 -234.25772 -231.60365 -228.94957 -227.04469 -222.48575 -215.32292 -212.66885 -210.76396 -203.95741 -199.89261 -194.06401 -189.58476 -184.48303 -179.83641 -175.35715 -170.71053 -166.23128 -164.3264 -160.42897 -157.77489 -155.96805 -151.4888 -144.28931 -140.39189 -135.04866 -130.40204 -126.50461 -123.26871 -119.2039 -117.29903 -115.39415 -110.8352 -104.20877 -101.96915 -98.733246 -33.569687 -29.257807 56.968597 61.113102 74.089386 78.233887 82.378395 84.036194 88.180702 103.399 107.5435 109.2013 113.34581 130.61086 134.75536 138.89986 140.55766 157.70953 161.85403 165.99855 167.65634 201.81662 205.96112"
         y="8.9577074"
         sodipodi:role="line"
         id="tspan502">Plasmaclottingtimesofpopulationatbaseline(s)PT3215.221.4012.518.715</tspan><tspan
         x="-33.562511 -29.650738 -24.836737 56.975773 61.120277 74.096558 78.241066 82.385567 84.043365 88.187874 103.40617 107.55067 109.20848 113.35298 133.50961 137.65411 157.7175 161.86201 166.00652 167.66432 201.82458 205.9691"
         y="17.915417"
         sodipodi:role="line"
         id="tspan504">TCT3416.941.601420.713</tspan><tspan
         x="-33.562511 -29.665085 -25.353207 -21.033358 56.97657 61.121071 74.097359 78.241859 82.38636 84.044167 88.188667 103.40697 107.55148 109.20927 113.35378 133.51042 137.65492 157.71831 161.86281 166.00731 167.66512 201.82539 205.96989"
         y="26.873123"
         sodipodi:role="line"
         id="tspan506">aPTT3434.194.602744.513</tspan><tspan
         x="-270.93658 -266.62469 -263.2836 -258.22253 -255.81552 -251.67102 -247.52652 -240.72076 -237.0704 -235.16553 -230.68628 -227.45038 -222.97113 -220.31705 -213.67947 -211.02539 -209.12051 -202.31396 -198.24916 -192.36397 -187.88472 -182.83957 -178.19295 -173.7137 -169.06708 -164.58781 -162.68294 -158.78551 -156.13144 -154.22656 -149.84534 -142.58847 -138.69104 -133.4044 -128.75778 -124.86036 -121.62446 -117.55965 -115.65478 -113.7499 -109.19094 -102.50793 -100.2683 -97.032402 -33.569687 -28.755684 -26.021906 56.968597 61.113102 74.089386 78.233887 82.378395 86.522896 88.180702 101.30124 105.44575 109.59025 111.24805 115.39256 133.50244 137.64694 158.50417 162.64867 166.79317 203.85858"
         y="35.887421"
         sodipodi:role="line"
         id="tspan508">PFA-100closuretimesofpopulationatbaseline(s)C/E42116.229.16731817</tspan></text>
<text
       transform="matrix(1,0,0,-1,49.3228,490.507)"
       style="font-variant:normal;font-weight:normal;font-size:7.47179985px;font-family:AdvTT6780a46b;-inkscape-font-specification:AdvTT6780a46b;writing-mode:lr-tb;fill:#231f20;fill-opacity:1;fill-rule:nonzero;stroke:none"
       id="text518"><tspan
         x="0 4.7445931 9.1006527 13.456712 15.944821 19.75544 23.491339 25.2771 28.930809 31.418919 33.204678 37.403831 41.6777 44.71125 48.468071 53.212666 57.95726 61.67672 65.330429 67.818542 71.472252 74.894333 79.168205 80.953964 85.31002 89.509178 93.875694 95.661453 101.18909 104.8428 108.26488 110.05065 114.40671 118.13887 122.88346 128.01659 131.06358 134.74869 138.40239 142.75845 146.56908 150.84294 155.0421 158.16083 159.94658 164.22044 170.17921 174.53526 176.32103 180.67709 184.95096 189.15012 192.18365 196.53972 200.8136 204.4673 206.95541 210.76602 214.5094 218.16312 222.27559 226.30064 229.64577 233.33087 236.98457 240.53069 243.0188 244.80457 248.54047 252.19417 254.68228 258.49289 264.90668 269.26276 272.91647 275.62051 278.10861 279.89438 283.5481 287.46854 289.95663 294.23053 296.71863 300.91779 307.29871 311.73096 315.93011 320.28619 322.07193 325.72565 328.75919 331.24731 333.03308 339.45135 341.93945 343.72522 350.10614 353.91675 357.64816 362.24033 367.21655 371.72952 375.44897 379.10269 381.59079 385.40143 391.2085 395.40765 399.68152 404.0376 407.84821 412.52332 415.9454 420.14453 422.78357 426.51947 430.33011 433.95093 438.07538 444.21719 446.00296 449.76724 454.12329 458.32245 462.67853 468.4176 474.79852 478.4866 481.52014 486.70557 488.49133 492.7652 497.12128 500.93188 504.51089"
         y="0"
         sodipodi:role="line"
         id="tspan512">Abbreviations:AA,arachidonicacid;ADP,adenosinediphosphate;aPTT,activatedpartialthromboplastintime;AUC,areaundercurve;BMI,bodymassindex;</tspan><tspan
         x="0 4.5129671 7.0757947 10.811694 14.398906 18.911873 23.111025 24.896784 26.682545 28.939028 32.749645 37.105705 38.891468 43.165337 46.975952 51.332012 55.605885 58.09399 59.879753 64.153625 67.964241 71.540245 76.516464 81.64959 85.303299 88.886772 93.161392 94.947151 99.221024 103.49489 105.75137 110.10744 113.91805 118.19192 121.22547 123.01123 125.49934 131.12038 132.90614 134.69189 139.04796 143.2471 147.60316 150.1675 154.36664 156.85475 160.66537 162.45113 166.72499 170.29204 173.94574 179.07887 182.73259 186.33473 188.1205 192.31966 197.92349 200.17998 204.53604 208.34666 212.62053 215.65408 217.43983 219.92795 225.56319 227.34894 229.1347 233.49077 237.68991 242.04597 244.53409 248.73323 251.22134 255.03197 256.81772 261.09158 264.67804 268.72031 272.10428 275.67581 280.03186 282.51996 286.71912 289.20721 293.48111 295.96921 300.16837 306.54929 310.90533 312.6911 318.98535 321.47345 323.25922 329.64014 333.45074 337.0686 340.6969 345.2106 348.57739 352.14893 354.63702 358.91089 361.39902 365.59818 371.97906 376.33514 378.12091 384.46146 387.88354 389.66931 393.86847 396.35657 398.8447 400.63043 404.90433 411.21872 413.70685 415.49261 421.8735 425.68414 429.24594 433.271 436.95609 441.46906 445.00623 447.49432 449.28009 455.69238 461.53384 464.02194 470.26462 473.68671 475.47247 479.67163 482.15973 485.74097 491.18344 495.49243 497.98053 502.25439"
         y="8.9571934"
         sodipodi:role="line"
         id="tspan514">C/E,Coll-epinephrine;HDL,high-densitylipoprotein;LDL,low-densitylipoprotein;PT,prothrombintime;TCT,thrombinclottingtime;TTC,timetoclot.Ofthe</tspan><tspan
         x="0 3.8853359 10.544204 13.577755 17.776907 22.132965 24.000916 27.890736 31.312819 33.80093 39.681984 42.170094 45.980709 49.402794 51.890903 56.090054 57.875816 60.363926 64.174545 68.423012 72.788033 76.67337 83.332237 88.936836 92.747452 95.235565 101.87052 108.25144 111.90515 113.69091 120.29449 123.9482 128.22206 135.43086 139.31619 145.97507 148.23155 152.04216 158.42308 162.0768 163.86255 167.57304 171.93808 176.99648 181.19563 185.4695 192.06262 197.66647 201.47708 203.96519 210.60016 213.63371 220.01462 224.21378 227.79277 231.60338 234.09149 237.12505 241.4953 246.55371 250.75285 255.02673 261.67664 265.87653 270.97455 273.46265 277.73651 284.35355 288.70959 292.36331 295.46487 299.27548 301.06125 302.84698 307.12088 313.71921 318.07529 321.72897 324.2171 327.87079 334.25171 338.06235 340.55045 344.444 346.9321 352.72125 359.10217 362.91281 366.5665 369.67105 373.87018 376.35831 380.16891 387.30151 390.33505 394.60892 398.80807 404.41193 408.22253 415.41937 418.45294 420.23868 424.51257 428.78644"
         y="17.971172"
         sodipodi:role="line"
         id="tspan516">47subjectsrecruited,20weremaleand27female.Noneweresmokers.Noneofthebaselineparametersmeasuredshowedsigni</tspan></text>
<text
       transform="matrix(1,0,0,-1,479.95999,472.53583)"
       style="font-variant:normal;font-weight:normal;font-size:7.47179985px;font-family:'AdvTT6780a46b +fb';-inkscape-font-specification:'AdvTT6780a46b +fb';writing-mode:lr-tb;fill:#231f20;fill-opacity:1;fill-rule:nonzero;stroke:none"
       id="text522"><tspan
         x="0"
         y="0"
         id="tspan520">ﬁ</tspan></text>
<text
       transform="matrix(1,0,0,-1,483.92827,472.53583)"
       style="font-variant:normal;font-weight:normal;font-size:7.47179985px;font-family:AdvTT6780a46b;-inkscape-font-specification:AdvTT6780a46b;writing-mode:lr-tb;fill:#231f20;fill-opacity:1;fill-rule:nonzero;stroke:none"
       id="text528"><tspan
         x="0 3.4220843 7.0757947 11.349664 16.666597 18.452356 22.726227 25.214336 29.024954 31.513063 35.166775 38.718121 41.20623 42.991989 47.191143 51.465012 57.312443 62.91629 64.702049 67.190163"
         y="0"
         sodipodi:role="line"
         id="tspan524">cantinteractionswith</tspan><tspan
         x="-434.60547 -430.3316 -426.52097 -422.2471 -417.89105 -414.08044 -411.93005 -407.905 -404.25128 -399.97742 -396.16678 -392.14548 -388.02103 -381.87921 -380.09344 -376.04599 -373.55786 -369.35873 -362.97781 -359.3241 -356.83597 -350.08221 -348.29645 -344.02258 -341.53448 -337.88077 -334.30179 -327.97391 -323.77475 -318.79031 -314.43427 -312.6485 -308.99478 -305.96124 -299.58032 -293.39368 -291.60791 -289.82214 -285.46609 -283.68033 -276.78387 -274.99811 -271.1875 -267.4516 -263.64096 -261.85519 -258.82166"
         y="8.9571934"
         sodipodi:role="line"
         id="tspan526">gender,age,BMI,tomatointakeorplasmalipidlevels.</tspan></text>
</g></svg>