<?xml version="1.0" encoding="UTF-8" standalone="no"?>
<!-- Created with Inkscape (http://www.inkscape.org/) -->

<svg
   xmlns:dc="http://purl.org/dc/elements/1.1/"
   xmlns:cc="http://creativecommons.org/ns#"
   xmlns:rdf="http://www.w3.org/1999/02/22-rdf-syntax-ns#"
   xmlns:svg="http://www.w3.org/2000/svg"
   xmlns="http://www.w3.org/2000/svg"
   xmlns:sodipodi="http://sodipodi.sourceforge.net/DTD/sodipodi-0.dtd"
   xmlns:inkscape="http://www.inkscape.org/namespaces/inkscape"
   version="1.1"
   id="svg2"
   xml:space="preserve"
   width="768"
   height="1031.9626"
   viewBox="0 0 768 1031.9626"
   sodipodi:docname="table1.svg"
   inkscape:version="0.92.0 r15299"><metadata
     id="metadata8"><rdf:RDF><cc:Work
         rdf:about=""><dc:format>image/svg+xml</dc:format><dc:type
           rdf:resource="http://purl.org/dc/dcmitype/StillImage" /><dc:title></dc:title></cc:Work></rdf:RDF></metadata><defs
     id="defs6" /><sodipodi:namedview
     pagecolor="#ffffff"
     bordercolor="#666666"
     borderopacity="1"
     objecttolerance="10"
     gridtolerance="10"
     guidetolerance="10"
     inkscape:pageopacity="0"
     inkscape:pageshadow="2"
     inkscape:window-width="1920"
     inkscape:window-height="988"
     id="namedview4"
     showgrid="false"
     inkscape:zoom="0.64683427"
     inkscape:cx="699.93088"
     inkscape:cy="355.96734"
     inkscape:window-x="0"
     inkscape:window-y="27"
     inkscape:window-maximized="1"
     inkscape:current-layer="g10" /><g
     id="g10"
     inkscape:groupmode="layer"
     inkscape:label="fulltext"
     transform="matrix(1.3333333,0,0,-1.3333333,0,1031.9627)"><path
       d="m 36.51,359.716 h 491.017 v 3.005 H 36.51 Z"
       style="fill:#e6e6e6;fill-opacity:1;fill-rule:nonzero;stroke:none"
       id="path270"
       inkscape:connector-curvature="0" /><path
       d="m 36.51,348.775 h 491.017 v 11.792 H 36.51 Z"
       style="fill:#e6e6e6;fill-opacity:1;fill-rule:nonzero;stroke:none"
       id="path272"
       inkscape:connector-curvature="0" /><path
       d="m 36.51,325.134 h 491.017 v 11.792 H 36.51 Z"
       style="fill:#e6e6e6;fill-opacity:1;fill-rule:nonzero;stroke:none"
       id="path274"
       inkscape:connector-curvature="0" /><path
       d="m 36.51,301.493 h 491.017 v 11.735 H 36.51 Z"
       style="fill:#e6e6e6;fill-opacity:1;fill-rule:nonzero;stroke:none"
       id="path276"
       inkscape:connector-curvature="0" /><path
       d="m 36.51,277.795 h 491.017 v 11.792 H 36.51 Z"
       style="fill:#e6e6e6;fill-opacity:1;fill-rule:nonzero;stroke:none"
       id="path278"
       inkscape:connector-curvature="0" /><path
       d="m 36.51,254.154 h 491.017 v 11.792 H 36.51 Z"
       style="fill:#e6e6e6;fill-opacity:1;fill-rule:nonzero;stroke:none"
       id="path280"
       inkscape:connector-curvature="0" /><path
       d="m 36.51,230.513 h 491.017 v 11.792 H 36.51 Z"
       style="fill:#e6e6e6;fill-opacity:1;fill-rule:nonzero;stroke:none"
       id="path282"
       inkscape:connector-curvature="0" /><path
       d="m 36.51,206.872 h 491.017 v 11.792 H 36.51 Z"
       style="fill:#e6e6e6;fill-opacity:1;fill-rule:nonzero;stroke:none"
       id="path284"
       inkscape:connector-curvature="0" /><path
       d="m 36.51,183.231 h 491.017 v 11.792 H 36.51 Z"
       style="fill:#e6e6e6;fill-opacity:1;fill-rule:nonzero;stroke:none"
       id="path286"
       inkscape:connector-curvature="0" /><path
       d="m 36.51,159.59 h 491.017 v 11.735 H 36.51 Z"
       style="fill:#e6e6e6;fill-opacity:1;fill-rule:nonzero;stroke:none"
       id="path288"
       inkscape:connector-curvature="0" /><path
       d="m 36.51,135.893 h 491.017 v 11.792 H 36.51 Z"
       style="fill:#e6e6e6;fill-opacity:1;fill-rule:nonzero;stroke:none"
       id="path290"
       inkscape:connector-curvature="0" /><path
       d="m 36.51,112.252 h 491.017 v 11.792 H 36.51 Z"
       style="fill:#e6e6e6;fill-opacity:1;fill-rule:nonzero;stroke:none"
       id="path292"
       inkscape:connector-curvature="0" /><g
       id="g294"
       transform="translate(36,391.97501)"><path
         d="m 0,0 h 491.981 l -0.454,-0.51 H 0.51"
         style="fill:#000000;fill-opacity:1;fill-rule:evenodd;stroke:#000000;stroke-width:0.75;stroke-linecap:round;stroke-linejoin:round;stroke-miterlimit:10;stroke-dasharray:none;stroke-opacity:1"
         id="path296"
         inkscape:connector-curvature="0" /></g><g
       id="g298"
       transform="translate(527.981,391.97501)"><path
         d="m 0,0 v -291.572 l -0.454,0.511 V -0.51"
         style="fill:#000000;fill-opacity:1;fill-rule:evenodd;stroke:#000000;stroke-width:0.75;stroke-linecap:round;stroke-linejoin:round;stroke-miterlimit:10;stroke-dasharray:none;stroke-opacity:1"
         id="path300"
         inkscape:connector-curvature="0" /></g><g
       id="g302"
       transform="translate(527.981,100.403)"><path
         d="m 0,0 h -491.981 l 0.51,0.51 H -0.454"
         style="fill:#000000;fill-opacity:1;fill-rule:evenodd;stroke:#000000;stroke-width:0.75;stroke-linecap:round;stroke-linejoin:round;stroke-miterlimit:10;stroke-dasharray:none;stroke-opacity:1"
         id="path304"
         inkscape:connector-curvature="0" /></g><g
       id="g306"
       transform="translate(36,100.403)"><path
         d="m 0,0 v 291.572 l 0.51,-0.511 V 0.51"
         style="fill:#000000;fill-opacity:1;fill-rule:evenodd;stroke:#000000;stroke-width:0.75;stroke-linecap:round;stroke-linejoin:round;stroke-miterlimit:10;stroke-dasharray:none;stroke-opacity:1"
         id="path308"
         inkscape:connector-curvature="0" /></g><g
       id="g310"
       transform="translate(36.509994,362.72099)"><path
         d="M 0,0 H 491.017 V -0.907 H 0"
         style="fill:#ffffff;fill-opacity:1;fill-rule:evenodd;stroke:#ffffff;stroke-width:0.75;stroke-linecap:round;stroke-linejoin:round;stroke-miterlimit:10;stroke-dasharray:none;stroke-opacity:1"
         id="path312"
         inkscape:connector-curvature="0" /></g><g
       id="g314"
       transform="translate(527.52699,361.304)"><path
         d="M 0,0 H -491.017 V 0.51 H 0"
         style="fill:#000000;fill-opacity:1;fill-rule:evenodd;stroke:#000000;stroke-width:0.75;stroke-linecap:round;stroke-linejoin:round;stroke-miterlimit:10;stroke-dasharray:none;stroke-opacity:1"
         id="path316"
         inkscape:connector-curvature="0" /></g><text
       transform="matrix(1,0,0,-1,36,401.4991)"
       style="font-variant:normal;font-weight:normal;font-size:9.5px;font-family:AdvOT23cd0920;-inkscape-font-specification:AdvOT23cd0920;writing-mode:lr-tb;fill:#000000;fill-opacity:1;fill-rule:nonzero;stroke:none"
       id="text320"><tspan
         x="0 4.5504999 9.6899996 14.8295 17.2995 25.2225 30.6565"
         y="0"
         sodipodi:role="line"
         id="tspan318">Table1.</tspan></text>
<text
       transform="matrix(1,0,0,-1,73.1925,401.4991)"
       style="font-variant:normal;font-weight:normal;font-size:9.5px;font-family:AdvOT662f79ed;-inkscape-font-specification:AdvOT662f79ed;writing-mode:lr-tb;fill:#000000;fill-opacity:1;fill-rule:nonzero;stroke:none"
       id="text324"><tspan
         x="0 5.434 10.4785 15.4185 18.477501 23.4175 27.768499 30.637501 35.577499 38.636501 40.925999 45.277 48.146 50.321499 54.672501 61.902 66.747002 72.389999 77.728996 82.773499 85.832497 90.079002 95.018997 101.8115 107.5495 112.4895 116.8405 121.885 126.73 131.86951 136.914 141.94901 147.0885 149.9575"
         y="0"
         sodipodi:role="line"
         id="tspan322">CharacteristicsofSurveyRespondents</tspan></text>
<text
       transform="matrix(1,0,0,-1,41.4992,368.7306)"
       style="font-variant:normal;font-weight:normal;font-size:9px;font-family:AdvOT23cd0920;-inkscape-font-specification:AdvOT23cd0920;writing-mode:lr-tb;fill:#000000;fill-opacity:1;fill-rule:nonzero;stroke:none"
       id="text332"><tspan
         x="0 5.625 10.494 15.363 18.450001 23.319 27.909 30.996 35.775002 38.862 41.202 45.414001 48.500999 50.841 55.431"
         y="0"
         sodipodi:role="line"
         id="tspan326">Characteristics</tspan><tspan
         x="157.88699 163.60201 167.625 172.40401 175.491 180.36 182.7"
         y="-10.485"
         sodipodi:role="line"
         id="tspan328">Overall</tspan><tspan
         x="155.052"
         y="0"
         id="tspan330">(</tspan></text>
<text
       transform="matrix(1,0,0,-1,199.3862,368.7306)"
       style="font-variant:normal;font-weight:normal;font-size:9px;font-family:AdvOT3c0ccdad;-inkscape-font-specification:AdvOT3c0ccdad;writing-mode:lr-tb;fill:#000000;fill-opacity:1;fill-rule:nonzero;stroke:none"
       id="text336"><tspan
         x="0"
         y="0"
         id="tspan334">n</tspan></text>
<text
       transform="matrix(1,0,0,-1,204.1472,368.7306)"
       style="font-variant:normal;font-weight:normal;font-size:9px;font-family:AdvMacMthSyN;-inkscape-font-specification:AdvMacMthSyN;writing-mode:lr-tb;fill:#000000;fill-opacity:1;fill-rule:nonzero;stroke:none"
       id="text340"><tspan
         x="0"
         y="0"
         id="tspan338">¼</tspan></text>
<text
       transform="matrix(1,0,0,-1,211.1762,368.7306)"
       style="font-variant:normal;font-weight:normal;font-size:9px;font-family:AdvOT23cd0920;-inkscape-font-specification:AdvOT23cd0920;writing-mode:lr-tb;fill:#000000;fill-opacity:1;fill-rule:nonzero;stroke:none"
       id="text348"><tspan
         x="0 5.1479998 10.296 15.444"
         y="0"
         sodipodi:role="line"
         id="tspan342">387)</tspan><tspan
         x="63.549 68.696999 74.501999 79.938004 87.984001 92.763 97.632004 100.719 103.806 106.146 110.736 113.076 117.855 122.724 127.593 130.67999"
         y="-10.485"
         sodipodi:role="line"
         id="tspan344">SNAPparticipants</tspan><tspan
         x="82.827003"
         y="0"
         id="tspan346">(</tspan></text>
<text
       transform="matrix(1,0,0,-1,296.7842,368.7306)"
       style="font-variant:normal;font-weight:normal;font-size:9px;font-family:AdvOT3c0ccdad;-inkscape-font-specification:AdvOT3c0ccdad;writing-mode:lr-tb;fill:#000000;fill-opacity:1;fill-rule:nonzero;stroke:none"
       id="text352"><tspan
         x="0"
         y="0"
         id="tspan350">n</tspan></text>
<text
       transform="matrix(1,0,0,-1,301.5452,368.7306)"
       style="font-variant:normal;font-weight:normal;font-size:9px;font-family:AdvMacMthSyN;-inkscape-font-specification:AdvMacMthSyN;writing-mode:lr-tb;fill:#000000;fill-opacity:1;fill-rule:nonzero;stroke:none"
       id="text356"><tspan
         x="0"
         y="0"
         id="tspan354">¼</tspan></text>
<text
       transform="matrix(1,0,0,-1,308.5742,368.7306)"
       style="font-variant:normal;font-weight:normal;font-size:9px;font-family:AdvOT23cd0920;-inkscape-font-specification:AdvOT23cd0920;writing-mode:lr-tb;fill:#000000;fill-opacity:1;fill-rule:nonzero;stroke:none"
       id="text364"><tspan
         x="0 5.1479998 10.296 15.444"
         y="0"
         sodipodi:role="line"
         id="tspan358">118)</tspan><tspan
         x="85.265999 91.070999 95.849998 100.719 105.498 110.367 113.454 116.541 118.881 123.471 125.811 130.59 135.459 140.328 143.41499"
         y="-10.485"
         sodipodi:role="line"
         id="tspan360">Nonparticipants</tspan><tspan
         x="100.008"
         y="0"
         id="tspan362">(</tspan></text>
<text
       transform="matrix(1,0,0,-1,411.3632,368.7306)"
       style="font-variant:normal;font-weight:normal;font-size:9px;font-family:AdvOT3c0ccdad;-inkscape-font-specification:AdvOT3c0ccdad;writing-mode:lr-tb;fill:#000000;fill-opacity:1;fill-rule:nonzero;stroke:none"
       id="text368"><tspan
         x="0"
         y="0"
         id="tspan366">n</tspan></text>
<text
       transform="matrix(1,0,0,-1,416.1782,368.7306)"
       style="font-variant:normal;font-weight:normal;font-size:9px;font-family:AdvMacMthSyN;-inkscape-font-specification:AdvMacMthSyN;writing-mode:lr-tb;fill:#000000;fill-opacity:1;fill-rule:nonzero;stroke:none"
       id="text372"><tspan
         x="0"
         y="0"
         id="tspan370">¼</tspan></text>
<text
       transform="matrix(1,0,0,-1,423.2072,368.7306)"
       style="font-variant:normal;font-weight:normal;font-size:9px;font-family:AdvOT23cd0920;-inkscape-font-specification:AdvOT23cd0920;writing-mode:lr-tb;fill:#000000;fill-opacity:1;fill-rule:nonzero;stroke:none"
       id="text376"><tspan
         x="0 5.1479998 10.296 15.444"
         y="0"
         sodipodi:role="line"
         id="tspan374">269)</tspan></text>
<text
       transform="matrix(1,0,0,-1,491.3012,368.7306)"
       style="font-variant:normal;font-weight:normal;font-size:9px;font-family:AdvOT3c0ccdad;-inkscape-font-specification:AdvOT3c0ccdad;writing-mode:lr-tb;fill:#000000;fill-opacity:1;fill-rule:nonzero;stroke:none"
       id="text380"><tspan
         x="0"
         y="0"
         id="tspan378">p</tspan></text>
<text
       transform="matrix(1,0,0,-1,495.9452,368.7306)"
       style="font-variant:normal;font-weight:normal;font-size:9px;font-family:AdvOT23cd0920;-inkscape-font-specification:AdvOT23cd0920;writing-mode:lr-tb;fill:#000000;fill-opacity:1;fill-rule:nonzero;stroke:none"
       id="text384"><tspan
         x="0 2.0610001 6.0840001 10.953 13.293 18.072001"
         y="0"
         sodipodi:role="line"
         id="tspan382">-value</tspan></text>
<text
       transform="matrix(1,0,0,-1,41.4992,351.7794)"
       style="font-variant:normal;font-weight:normal;font-size:8.5px;font-family:AdvOT662f79ed;-inkscape-font-specification:AdvOT662f79ed;writing-mode:lr-tb;fill:#000000;fill-opacity:1;fill-rule:nonzero;stroke:none"
       id="text390"><tspan
         x="0 4.5984998 8.7550001 13.175 17.799 21.25 25.67 30.09 32.827 36.720001 41.327 50.676998 52.887001 57.664001 63.1465 151.368 156.23 161.092 163.1235 170.52699 172.737 177.599 182.461 184.49249 189.35451 248.7695 253.6315 258.4935 260.52499 267.98801 270.198 275.06 279.922 281.95349 286.81549 363.40051 368.26251 373.12451 375.15601 382.55951 384.7695 389.6315 394.4935 396.52499 401.38699 455.24301 460.10501 462.13651 466.9985"
         y="0"
         sodipodi:role="line"
         id="tspan386">Age,years,M(SD)36.9(12.4)38.4(13.0)36.3(12.1)0.12</tspan><tspan
         x="-0.0085000005 4.2414999 8.6615 15.5635 19.9835 21.93 28.908501 32.801498 37.2215 152.3795 157.2415 162.1035 169.4985 171.7085 176.5705 181.4325 183.464 188.326 252.2205 257.08249 264.51999 266.73001 271.59201 276.45401 278.4855 283.3475 364.4205 369.2825 374.1445 381.53949 383.74951 388.61151 393.47351 395.505 400.367"
         y="11.849"
         sodipodi:role="line"
         id="tspan388">Femalesex265(68.5)90(76.3)175(65.1)</tspan></text>
<text
       transform="matrix(1,0,0,-1,496.6232,339.9304)"
       style="font-variant:normal;font-weight:normal;font-size:8.5px;font-family:AdvOT23cd0920;-inkscape-font-specification:AdvOT23cd0920;writing-mode:lr-tb;fill:#000000;fill-opacity:1;fill-rule:nonzero;stroke:none"
       id="text394"><tspan
         x="0 4.862 7.072 11.934"
         y="0"
         sodipodi:role="line"
         id="tspan392">0.03</tspan></text>
<text
       transform="matrix(1,0,0,-1,41.4907,328.1409)"
       style="font-variant:normal;font-weight:normal;font-size:8.5px;font-family:AdvOT662f79ed;-inkscape-font-specification:AdvOT662f79ed;writing-mode:lr-tb;fill:#000000;fill-opacity:1;fill-rule:nonzero;stroke:none"
       id="text404"><tspan
         x="0 5.1339998 9.5539999 13.447 17.867001 21.6665 26.0865 28.6535 33.167 37.765499 39.712002 43.605 45.551498 48.1185 455.24301 460.10501 462.13651 466.9985"
         y="0"
         sodipodi:role="line"
         id="tspan396">Race/ethnicity0.53</tspan><tspan
         x="8.5 15.402 19.915501 21.862 24.429001 28.849001 32.648499 37.510502 41.9305 46.444 50.337002 54.757 58.650002 60.5965 65.016502 152.388 157.25 162.112 169.507 171.717 176.57899 181.44099 183.4725 188.3345 252.229 257.091 264.5285 266.73849 271.60049 276.46249 278.49399 283.35599 364.42899 369.29099 374.15302 381.548 383.758 388.62 393.48199 395.51349 400.37549"
         y="11.849"
         sodipodi:role="line"
         id="tspan398">White/Caucasian308(79.6)93(78.8)215(79.9)</tspan><tspan
         x="8.5085001 13.107 15.5805 18.317499 20.264 24.157 28.577 35.725498 40.324001 47.226002 51.646 54.382999 56.329498 60.2225 64.642502 157.2755 162.1375 169.524 171.73399 176.59599 178.6275 183.4895 252.2375 257.09949 264.53699 266.74701 271.60901 276.47101 278.5025 283.3645 369.30801 374.17001 381.55649 383.76651 388.62851 390.66 395.522"
         y="23.6385"
         sodipodi:role="line"
         id="tspan400">AfricanAmerican31(8.0)12(10.2)19(7.1)</tspan><tspan
         x="8.5085001 13.821 16.388 20.901501 25.321501"
         y="35.547001"
         sodipodi:role="line"
         id="tspan402">Other</tspan></text>
<text
       transform="matrix(1,0,0,-0.88879651,69.5622,296.3905)"
       style="font-variant:normal;font-weight:normal;font-size:6.37480021px;font-family:AdvOT662f79ed;-inkscape-font-specification:AdvOT662f79ed;writing-mode:lr-tb;fill:#337eb1;fill-opacity:1;fill-rule:nonzero;stroke:none"
       id="text408"><tspan
         x="0"
         y="0"
         id="tspan406">a</tspan></text>
<text
       transform="matrix(1,0,0,-1,198.7653,292.592)"
       style="font-variant:normal;font-weight:normal;font-size:8.5px;font-family:AdvOT662f79ed;-inkscape-font-specification:AdvOT662f79ed;writing-mode:lr-tb;fill:#000000;fill-opacity:1;fill-rule:nonzero;stroke:none"
       id="text424"><tspan
         x="0 4.862 12.2485 14.4585 19.320499 21.351999 26.214001 94.961998 99.823997 107.2615 109.4715 114.3335 119.1955 121.227 126.089 209.593 214.455 221.84151 224.0515 228.9135 233.7755 235.80701 240.66901"
         y="0"
         sodipodi:role="line"
         id="tspan410">14(3.6)13(11.0)35(13.0)</tspan><tspan
         x="-157.267 -152.405 -147.89149 -145.94501 -143.9985 -139.485 -136.748 -132.328 -125.1795 -123.233 -116.0505 -111.537 -107.202 -102.6885 -98.795502 -94.375504 -89.862 -85.527 -83.580498 297.97601 302.83801 304.86951 309.73151"
         y="11.7385"
         sodipodi:role="line"
         id="tspan412">Childreninhousehold0.08</tspan><tspan
         x="-148.767 -143.19099 -138.856 -134.25751 -4.8790002 -0.017000001 4.8449998 12.24 14.45 19.312 24.174 26.2055 31.067499 94.961998 99.823997 107.2615 109.4715 114.3335 119.1955 121.227 126.089 207.162 212.024 216.886 224.28101 226.491 231.353 236.215 238.24651 243.10851"
         y="23.646999"
         sodipodi:role="line"
         id="tspan414">None201(51.9)56(47.5)145(53.9)</tspan><tspan
         x="-148.7585 -143.446 -138.8475 -2.431 2.431 9.8175001 12.0275 16.8895 21.751499 23.783001 28.645 94.970497 99.832497 107.27 109.48 114.342 119.204 121.2355 126.0975 209.6015 214.4635 221.85001 224.06 228.922 233.784 235.81551 240.67751"
         y="35.385502"
         sodipodi:role="line"
         id="tspan416">One84(21.7)26(22.0)58(21.6)</tspan><tspan
         x="-148.7585 -144.687 -139.11099 -2.431 2.431 9.8175001 12.0275 16.8895 21.751499 23.783001 28.645 94.970497 99.832497 107.27 109.48 114.342 119.204 121.2355 126.0975 209.6015 214.4635 221.85001 224.06 228.922 233.784 235.81551 240.67751"
         y="47.293999"
         sodipodi:role="line"
         id="tspan418">Two65(16.8)18(15.3)47(17.5)</tspan><tspan
         x="-148.7585 -144.687 -140.17349 -137.43649 -133.01649 -126.021 -121.686 -116.382 -109.48 -105.145 -102.408 0.0085000005 4.8705001 12.257 14.467 19.329 21.3605 26.2225 94.970497 99.832497 107.27 109.48 114.342 119.204 121.2355 126.0975 212.041 216.903 224.28951 226.4995 231.3615 233.39301 238.255"
         y="59.032501"
         sodipodi:role="line"
         id="tspan420">Threeormore37(9.6)18(15.3)19(7.1)</tspan><tspan
         x="-157.2585 -151.86099 -147.526 -143.0125 -139.11951 -134.69949 -130.186 -125.851 -123.9045 -116.8325 -114.886 -110.2875 -106.3945 -102.0595 -95.157501"
         y="70.941002"
         sodipodi:role="line"
         id="tspan422">Householdincome</tspan></text>
<text
       transform="matrix(1,0,0,-1,487.6208,221.651)"
       style="font-variant:normal;font-size:8.5px;font-family:AdvEls;-inkscape-font-specification:AdvEls-ent4;writing-mode:lr-tb;fill:#000000;fill-opacity:1;fill-rule:nonzero;stroke:none"
       id="text428"><tspan
         x="0"
         y="0"
         id="tspan426">o</tspan></text>
<text
       transform="matrix(1,0,0,-1,495.9593,221.651)"
       style="font-variant:normal;font-weight:normal;font-size:8.5px;font-family:AdvOT23cd0920;-inkscape-font-specification:AdvOT23cd0920;writing-mode:lr-tb;fill:#000000;fill-opacity:1;fill-rule:nonzero;stroke:none"
       id="text432"><tspan
         x="0 4.862 7.072 11.934 16.796 21.658001"
         y="0"
         sodipodi:role="line"
         id="tspan430">0.0001</tspan></text>
<text
       transform="matrix(1,0,0,-1,50.0068,209.8615)"
       style="font-variant:normal;font-size:8.5px;font-family:AdvEls;-inkscape-font-specification:AdvEls-ent4;writing-mode:lr-tb;fill:#000000;fill-opacity:1;fill-rule:nonzero;stroke:none"
       id="text436"><tspan
         x="0"
         y="0"
         id="tspan434">o</tspan></text>
<text
       transform="matrix(1,0,0,-1,58.3453,209.8615)"
       style="font-variant:normal;font-weight:normal;font-size:8.5px;font-family:AdvOT662f79ed;-inkscape-font-specification:AdvOT662f79ed;writing-mode:lr-tb;fill:#000000;fill-opacity:1;fill-rule:nonzero;stroke:none"
       id="text442"><tspan
         x="0 4.862 9.724 14.586 16.6175 21.4795 26.341499 135.558 140.42 145.282 152.677 154.88699 159.74899 164.61099 166.6425 171.5045 235.399 240.261 247.6985 249.90849 254.77049 259.63251 261.664 266.526 350.03 354.892 362.2785 364.48849 369.35049 374.21249 376.24399 381.10599"
         y="0"
         sodipodi:role="line"
         id="tspan438">$35,000161(41.6)79(67.0)82(30.5)</tspan><tspan
         x="-8.3299999 -3.4679999 1.3940001 6.256 8.2875004 13.1495 18.011499 25.4575 28.0245"
         y="11.849"
         sodipodi:role="line"
         id="tspan440">$35,000to</tspan></text>
<text
       transform="matrix(1,0,0,-1,93.2718,198.0125)"
       style="font-variant:normal;font-size:8.5px;font-family:AdvEls;-inkscape-font-specification:AdvEls-ent4;writing-mode:lr-tb;fill:#000000;fill-opacity:1;fill-rule:nonzero;stroke:none"
       id="text446"><tspan
         x="0"
         y="0"
         id="tspan444">o</tspan></text>
<text
       transform="matrix(1,0,0,-1,101.6103,198.0125)"
       style="font-variant:normal;font-weight:normal;font-size:8.5px;font-family:AdvOT662f79ed;-inkscape-font-specification:AdvOT662f79ed;writing-mode:lr-tb;fill:#000000;fill-opacity:1;fill-rule:nonzero;stroke:none"
       id="text452"><tspan
         x="0 4.862 9.724 14.586 16.6175 21.4795 26.341499 92.292999 97.154999 102.017 109.412 111.622 116.484 121.346 123.3775 128.2395 192.134 196.996 204.4335 206.64349 211.50549 216.36749 218.399 223.261 306.76501 311.62701 319.01349 321.22351 326.08551 330.94751 332.979 337.841"
         y="0"
         sodipodi:role="line"
         id="tspan448">$59,000123(31.8)26(22.0)97(36.1)</tspan><tspan
         x="-51.595001 -46.733002 -41.870998 -37.008999 -34.977501 -30.115499 -25.2535 -17.807501 -15.2405"
         y="11.7895"
         sodipodi:role="line"
         id="tspan450">$59,000to</tspan></text>
<text
       transform="matrix(1,0,0,-1,93.2718,186.223)"
       style="font-variant:normal;font-size:8.5px;font-family:AdvEls;-inkscape-font-specification:AdvEls-ent4;writing-mode:lr-tb;fill:#000000;fill-opacity:1;fill-rule:nonzero;stroke:none"
       id="text456"><tspan
         x="0"
         y="0"
         id="tspan454">o</tspan></text>
<text
       transform="matrix(1,0,0,-1,101.6103,186.223)"
       style="font-variant:normal;font-weight:normal;font-size:8.5px;font-family:AdvOT662f79ed;-inkscape-font-specification:AdvOT662f79ed;writing-mode:lr-tb;fill:#000000;fill-opacity:1;fill-rule:nonzero;stroke:none"
       id="text462"><tspan
         x="0 4.862 9.724 14.586 16.6175 21.4795 26.341499 94.732498 99.594498 106.981 109.191 114.053 118.915 120.9465 125.8085 197.0045 204.4335 206.64349 211.50549 213.537 218.399 306.76501 311.62701 319.01349 321.22351 326.08551 330.94751 332.979 337.841"
         y="0"
         sodipodi:role="line"
         id="tspan458">$83,00061(15.8)8(6.8)53(19.7)</tspan><tspan
         x="-51.595001 -46.733002 -41.870998 -37.008999 -34.977501 -30.115499 -25.2535 -17.807501 -15.2405"
         y="11.849"
         sodipodi:role="line"
         id="tspan460">$83,000to</tspan></text>
<text
       transform="matrix(1,0,0,-1,93.2718,174.374)"
       style="font-variant:normal;font-size:8.5px;font-family:AdvEls;-inkscape-font-specification:AdvEls-ent4;writing-mode:lr-tb;fill:#000000;fill-opacity:1;fill-rule:nonzero;stroke:none"
       id="text466"><tspan
         x="0"
         y="0"
         id="tspan464">o</tspan></text>
<text
       transform="matrix(1,0,0,-1,101.6103,174.374)"
       style="font-variant:normal;font-weight:normal;font-size:8.5px;font-family:AdvOT662f79ed;-inkscape-font-specification:AdvOT662f79ed;writing-mode:lr-tb;fill:#000000;fill-opacity:1;fill-rule:nonzero;stroke:none"
       id="text470"><tspan
         x="0 4.862 9.724 14.586 19.448 21.4795 26.341499 31.203501 97.171997 102.034 109.4205 111.6305 116.4925 118.524 123.386 197.013 204.442 206.65199 211.51401 213.5455 218.4075 309.21301 314.07501 321.46149 323.67151 328.53351 330.565 335.427"
         y="0"
         sodipodi:role="line"
         id="tspan468">$107,00026(6.7)3(2.5)23(8.6)</tspan></text>
<text
       transform="matrix(1,0,0,-1,50.0238,162.5845)"
       style="font-variant:normal;font-size:8.5px;font-family:AdvEls;-inkscape-font-specification:AdvEls-ent5;writing-mode:lr-tb;fill:#000000;fill-opacity:1;fill-rule:nonzero;stroke:none"
       id="text474"><tspan
         x="0"
         y="0"
         id="tspan472">Z</tspan></text>
<text
       transform="matrix(1,0,0,-1,58.3623,162.5845)"
       style="font-variant:normal;font-weight:normal;font-size:8.5px;font-family:AdvOT662f79ed;-inkscape-font-specification:AdvOT662f79ed;writing-mode:lr-tb;fill:#000000;fill-opacity:1;fill-rule:nonzero;stroke:none"
       id="text480"><tspan
         x="0 4.862 9.724 14.586 19.448 21.4795 26.341499 31.203501 140.4285 145.2905 152.677 154.88699 159.74899 161.7805 166.6425 240.2695 247.6985 249.90849 254.77049 256.802 261.664 352.461 357.323 364.7095 366.91949 371.78149 373.81299 378.67499"
         y="0"
         sodipodi:role="line"
         id="tspan476">$107,00016(4.1)2(1.7)14(5.2)</tspan><tspan
         x="-16.838499 -11.441 -7.1059999 -2.5925 1.3005 5.7205 10.234 14.569 16.515499 23.5875 26.061001 30.396 34.730999 41.845501 45.738499 50.158501 54.051498 58.564999 61.301998 63.248501 65.815498"
         y="11.9085"
         sodipodi:role="line"
         id="tspan478">Householdfoodsecurity</tspan></text>
<text
       transform="matrix(1,0,0,-0.88879651,127.6157,154.4881)"
       style="font-variant:normal;font-weight:normal;font-size:6.37480021px;font-family:AdvOT662f79ed;-inkscape-font-specification:AdvOT662f79ed;writing-mode:lr-tb;fill:#337eb1;fill-opacity:1;fill-rule:nonzero;stroke:none"
       id="text484"><tspan
         x="0"
         y="0"
         id="tspan482">b</tspan></text>
<text
       transform="matrix(1,0,0,-1,496.7432,150.6897)"
       style="font-variant:normal;font-weight:normal;font-size:8.5px;font-family:AdvOT662f79ed;-inkscape-font-specification:AdvOT662f79ed;writing-mode:lr-tb;fill:#000000;fill-opacity:1;fill-rule:nonzero;stroke:none"
       id="text496"><tspan
         x="0 4.862 6.8934999 11.7555"
         y="0"
         sodipodi:role="line"
         id="tspan486">0.22</tspan><tspan
         x="-446.74301 -441.34549 -439.39899 -435.24249 -430.729 -426.9295 -420.0275 -415.60751 -412.87051 -408.71399 -406.76749 -402.16901 -397.74899 -393.22699 -390.75351 -386.41849 -382.0835 -375.0285 -371.1355 -366.71552 -362.82251 -358.30899 -355.57199 -353.62549 -351.0585 -302.85501 -297.99301 -293.13101 -285.73599 -283.526 -278.664 -273.802 -271.77051 -266.90851 -203.02251 -198.16051 -190.72301 -188.513 -183.651 -178.789 -176.75751 -171.89549 -88.391502 -83.529503 -76.142998 -73.932999 -69.070999 -64.209 -62.177502 -57.315498"
         y="11.7385"
         sodipodi:role="line"
         id="tspan488">High/marginalfoodsecurity112(28.9)34(28.8)78(29.0)</tspan><tspan
         x="-446.74301 -442.58649 -438.2515 -430.134 -427.66049 -423.3255 -418.99051 -411.93549 -408.04251 -403.6225 -399.72949 -395.216 -392.479 -390.5325 -387.96552 -302.85501 -297.99301 -293.13101 -285.73599 -283.526 -278.664 -273.802 -271.77051 -266.90851 -203.02251 -198.16051 -190.72301 -188.513 -183.651 -178.789 -176.75751 -171.89549 -88.391502 -83.529503 -76.142998 -73.932999 -69.070999 -64.209 -62.177502 -57.315498"
         y="23.646999"
         sodipodi:role="line"
         id="tspan490">Lowfoodsecurity123(31.8)31(26.3)92(34.2)</tspan><tspan
         x="-446.74301 -442.22949 -437.80951 -435.07251 -429.0545 -427.108 -422.77301 -414.65549 -412.18201 -407.84698 -403.51199 -396.457 -392.564 -388.14401 -384.25101 -379.73749 -377.00049 -375.05399 -372.487 -302.85501 -297.99301 -293.13101 -285.73599 -283.526 -278.664 -273.802 -271.77051 -266.90851 -203.02251 -198.16051 -190.72301 -188.513 -183.651 -178.789 -176.75751 -171.89549 -88.391502 -83.529503 -76.142998 -73.932999 -69.070999 -64.209 -62.177502 -57.315498"
         y="35.385502"
         sodipodi:role="line"
         id="tspan492">Verylowfoodsecurity152(39.3)53(44.9)99(36.8)</tspan><tspan
         x="-455.24301 -448.341 -446.216 -439.48401 -434.97049 -430.55051 -427.81351 -425.24649 -423.29999 -419.40701 -417.46051 -412.94699 -408.52701 -405.95999 -404.01349 -399.6785 -393.21851 -391.272 -384.82901 -380.31549 -375.89551 -372.0025 -367.591 -362.729 -356.02249 -349.12051 -344.78549 -340.18701 -337.62 -333.10651 -297.9675 -293.1055 -285.71899 -283.509 -278.647 -276.61551 -271.75351 -203.00549 -198.14349 -190.70599 -188.496 -183.634 -178.772 -176.74049 -171.87849 -85.934998 -81.072998 -73.686501 -71.476501 -66.614502 -64.583 -59.721001"
         y="47.293999"
         sodipodi:role="line"
         id="tspan494">WICparticipationinpast12months33(8.5)21(17.8)12(4.5)</tspan></text>
<text
       transform="matrix(1,0,0,-1,487.6142,103.3957)"
       style="font-variant:normal;font-size:8.5px;font-family:AdvEls;-inkscape-font-specification:AdvEls-ent4;writing-mode:lr-tb;fill:#000000;fill-opacity:1;fill-rule:nonzero;stroke:none"
       id="text500"><tspan
         x="0"
         y="0"
         id="tspan498">o</tspan></text>
<text
       transform="matrix(1,0,0,-1,495.9527,103.3957)"
       style="font-variant:normal;font-weight:normal;font-size:8.5px;font-family:AdvOT23cd0920;-inkscape-font-specification:AdvOT23cd0920;writing-mode:lr-tb;fill:#000000;fill-opacity:1;fill-rule:nonzero;stroke:none"
       id="text504"><tspan
         x="0 4.862 7.072 11.934 16.796 21.658001"
         y="0"
         sodipodi:role="line"
         id="tspan502">0.0001</tspan></text>
<text
       transform="matrix(1,0,0,-1,36,88.8945)"
       style="font-variant:normal;font-weight:normal;font-size:7.99989986px;font-family:AdvOTb05c7e4a;-inkscape-font-specification:AdvOTb05c7e4a;writing-mode:lr-tb;fill:#000000;fill-opacity:1;fill-rule:nonzero;stroke:none"
       id="text508"><tspan
         x="0 5.1599355 9.3198833 11.735853 15.815803"
         y="0"
         sodipodi:role="line"
         id="tspan506">Note:</tspan></text>
<text
       transform="matrix(1,0,0,-1,56.183748,88.8945)"
       style="font-variant:normal;font-weight:normal;font-size:7.99989986px;font-family:AdvOT662f79ed;-inkscape-font-specification:AdvOT662f79ed;writing-mode:lr-tb;fill:#000000;fill-opacity:1;fill-rule:nonzero;stroke:none"
       id="text512"><tspan
         x="0 5.1599355 9.3198833 11.735853 18.255772 22.41572 24.991688"
         y="0"
         sodipodi:role="line"
         id="tspan510">Dataare</tspan></text>
<text
       transform="matrix(1,0,0,-1,87.703354,88.8945)"
       style="font-variant:normal;font-weight:normal;font-size:7.99989986px;font-family:AdvOTb05c7e4a;-inkscape-font-specification:AdvOTb05c7e4a;writing-mode:lr-tb;fill:#000000;fill-opacity:1;fill-rule:nonzero;stroke:none"
       id="text516"><tspan
         x="0"
         y="0"
         id="tspan514">n</tspan></text>
<text
       transform="matrix(1,0,0,-1,94.447269,88.8945)"
       style="font-variant:normal;font-weight:normal;font-size:7.99989986px;font-family:AdvOT662f79ed;-inkscape-font-specification:AdvOT662f79ed;writing-mode:lr-tb;fill:#000000;fill-opacity:1;fill-rule:nonzero;stroke:none"
       id="text520"><tspan
         x="0 2.0799739 7.8239021 12.303846 16.551794 20.87974 22.711716 26.871664 30.535618 36.511543 40.591492 43.007462 47.255409 51.415356 53.991325 59.239258 61.071236 64.735191 71.263107 75.591057 79.671005 82.086975 86.246925 90.494865 94.734818 99.47876 103.55871 105.39069 109.63863 111.9666 116.12655 119.7905 126.31042 128.1424 132.47034 136.71829 138.55026 142.21422 146.37418 148.79015 152.95009 158.91002 162.57397 164.98994 169.14989 171.56586 173.39783 177.06178 179.47775 181.30974 184.97369 189.13364 193.32558 196.98953 198.82152 202.73346 207.06142"
         y="0"
         sodipodi:role="line"
         id="tspan518">(%)unlessotherwisenoted.Boldfaceindicatesstatisticalsigni</tspan></text>
<text
       transform="matrix(1,0,0,-1,303.30066,88.8945)"
       style="font-variant:normal;font-weight:normal;font-size:7.99989986px;font-family:'AdvOT662f79ed +fb';-inkscape-font-specification:'AdvOT662f79ed +fb';writing-mode:lr-tb;fill:#000000;fill-opacity:1;fill-rule:nonzero;stroke:none"
       id="text524"><tspan
         x="0"
         y="0"
         id="tspan522">ﬁ</tspan></text>
<text
       transform="matrix(1,0,0,-1,307.10061,88.8945)"
       style="font-variant:normal;font-weight:normal;font-size:7.99989986px;font-family:AdvOT662f79ed;-inkscape-font-specification:AdvOT662f79ed;writing-mode:lr-tb;fill:#000000;fill-opacity:1;fill-rule:nonzero;stroke:none"
       id="text528"><tspan
         x="0 3.6639543 7.8239021 12.151848 15.815803 22.33572"
         y="0"
         sodipodi:role="line"
         id="tspan526">cance(</tspan></text>
<text
       transform="matrix(1,0,0,-1,331.53231,88.8945)"
       style="font-variant:normal;font-weight:normal;font-size:7.99989986px;font-family:AdvOTb05c7e4a;-inkscape-font-specification:AdvOTb05c7e4a;writing-mode:lr-tb;fill:#000000;fill-opacity:1;fill-rule:nonzero;stroke:none"
       id="text532"><tspan
         x="0"
         y="0"
         id="tspan530">p</tspan></text>
<text
       transform="matrix(1,0,0,-1,335.78025,88.8945)"
       style="font-variant:normal;font-size:7.99989986px;font-family:AdvEls;-inkscape-font-specification:AdvEls-ent4;writing-mode:lr-tb;fill:#000000;fill-opacity:1;fill-rule:nonzero;stroke:none"
       id="text536"><tspan
         x="0"
         y="0"
         id="tspan534">o</tspan></text>
<text
       transform="matrix(1,0,0,-1,343.54816,88.8945)"
       style="font-variant:normal;font-weight:normal;font-size:7.99989986px;font-family:AdvOT662f79ed;-inkscape-font-specification:AdvOT662f79ed;writing-mode:lr-tb;fill:#000000;fill-opacity:1;fill-rule:nonzero;stroke:none"
       id="text540"><tspan
         x="0 4.575943 6.4879189 11.063862 15.639805 17.719778"
         y="0"
         sodipodi:role="line"
         id="tspan538">0.05).</tspan></text>
<text
       transform="matrix(1,0,0,-0.88877963,36,83.4519)"
       style="font-variant:normal;font-weight:normal;font-size:5.99980021px;font-family:AdvOT662f79ed;-inkscape-font-specification:AdvOT662f79ed;writing-mode:lr-tb;fill:#000000;fill-opacity:1;fill-rule:nonzero;stroke:none"
       id="text544"><tspan
         x="0"
         y="0"
         id="tspan542">a</tspan></text>
<text
       transform="matrix(1,0,0,-1,39.3449,79.937)"
       style="font-variant:normal;font-weight:normal;font-size:7.99989986px;font-family:AdvOT662f79ed;-inkscape-font-specification:AdvOT662f79ed;writing-mode:lr-tb;fill:#000000;fill-opacity:1;fill-rule:nonzero;stroke:none"
       id="text548"><tspan
         x="0 4.575943 8.7358904 11.15186 15.311809 19.223761 23.303709 25.879677 31.519606 36.76754 40.92749 46.943413 50.607368 54.687317 61.183235 65.431183 67.263161 71.591103 75.751053 82.31897 86.566917 90.814865 97.342781 99.758751 106.24667 109.91063 116.40655 120.56649 122.39847 126.59842 130.26237 134.42232 136.2543 140.43025 144.09419 145.92618 149.25414 153.41408 157.07803 161.34998 166.34991 168.76588 173.01384 177.17378 182.10173 186.01367 188.58965 192.66959 196.91754 203.53346 205.36543 209.69337 213.35733 215.18932 219.43726 223.68521 227.84515 233.86108 235.69305 240.021 244.26895 246.10092 249.67688 251.50885 255.75681 260.00476 264.07669 265.90866 271.9566 273.78857 278.03653 282.19647 286.52441 288.9404 290.77237 293.10034 296.3483 298.18027 302.50821 308.74814 312.90808 318.95602 324.03595 325.86792 329.53189 333.77982 337.93979 342.26773 344.0997 347.76364 352.0116 356.33954 360.00351 361.83548 365.99542 370.32336 374.63531 378.79526 383.1232 389.71512 396.21106 400.45898 402.29099 404.70694 406.53891 409.1149 413.27484 416.93878 418.77075 422.93073 424.7627"
         y="0"
         sodipodi:role="line"
         id="tspan546">Categorywascombinedduetosmallcellsizes.OthergroupincludesindividualsidentifyingasHispanic,Asian,andmultiracial.</tspan></text>
<text
       transform="matrix(1,0,0,-0.88877963,36,74.4945)"
       style="font-variant:normal;font-weight:normal;font-size:5.99980021px;font-family:AdvOT662f79ed;-inkscape-font-specification:AdvOT662f79ed;writing-mode:lr-tb;fill:#000000;fill-opacity:1;fill-rule:nonzero;stroke:none"
       id="text552"><tspan
         x="0"
         y="0"
         id="tspan550">b</tspan></text>
<text
       transform="matrix(1,0,0,-1,39.4583,70.9228)"
       style="font-variant:normal;font-weight:normal;font-size:7.99989986px;font-family:AdvOT662f79ed;-inkscape-font-specification:AdvOT662f79ed;writing-mode:lr-tb;fill:#000000;fill-opacity:1;fill-rule:nonzero;stroke:none"
       id="text556"><tspan
         x="0 3.9999499 8.0798988 12.159848 18.087774 19.91975 24.247698 27.911652 32.071598 35.735554 39.983501 42.559467 44.391445 46.807415 51.759354 55.423306 59.583256 61.999226 66.159172 70.071121 74.15107 76.727043 78.46302 82.622971 88.046898 93.29483 97.454781 100.03075 105.90268 110.06262 113.72658 117.39053 119.22251 123.13446 127.46241 131.62236 137.53429 141.69423 145.35818 149.02214 153.10208 155.67805 159.92599 161.75798 166.08592 171.66185 174.07782 179.94176 182.35773 186.60567 192.46959 197.30153 199.21352 203.70946 207.32541 212.48534 216.64529 220.89323 225.05319 227.62915 230.04512 236.54105 240.70099 245.02893 249.10889 253.18883 257.2688 261.59674 265.50867 268.08466 269.91663 273.58057 277.82852 279.66049 282.07648 286.32443 288.90039 292.98834 296.6203"
         y="0"
         sodipodi:role="line"
         id="tspan554">FoodinsecuritycategorieswereassignedaccordingtotheU.S.DepartmentofAgriculture:0</tspan></text>
<text
       transform="matrix(1,0,0,-1,346.90246,70.9228)"
       style="font-variant:normal;font-weight:normal;font-size:7.99989986px;font-family:AdvOT662f79ed;-inkscape-font-specification:AdvOT662f79ed;writing-mode:lr-tb;fill:#000000;fill-opacity:1;fill-rule:nonzero;stroke:none"
       id="text564"><tspan
         x="0 6.2927213 10.44947"
         y="0"
         sodipodi:role="line"
         id="tspan562">1af</tspan></text>
<text
       transform="matrix(1,0,0,-1,359.7183,70.9228)"
       style="font-variant:normal;font-weight:normal;font-size:7.99989986px;font-family:'AdvOT662f79ed +fb';-inkscape-font-specification:'AdvOT662f79ed +fb';writing-mode:lr-tb;fill:#000000;fill-opacity:1;fill-rule:nonzero;stroke:none"
       id="text568"><tspan
         x="0"
         y="0"
         id="tspan566">ﬁ</tspan></text>
<text
       transform="matrix(1,0,0,-1,363.51825,70.9228)"
       style="font-variant:normal;font-weight:normal;font-size:7.99989986px;font-family:AdvOT662f79ed;-inkscape-font-specification:AdvOT662f79ed;writing-mode:lr-tb;fill:#000000;fill-opacity:1;fill-rule:nonzero;stroke:none"
       id="text574"><tspan
         x="0 2.5759678 9.071887 13.231834 15.647804 17.479782 21.055737 26.927664 29.503632 33.663578 37.327534 41.575481 45.65543 49.983376 53.647331 57.711277 61.375233 65.023186 69.271133 71.103111 75.01506 81.006989 85.086937 89.39888 95.894798 100.05475 102.63071 106.54267 108.37465 112.70259 116.78254 120.35049 122.67847 126.75842 130.83836 136.79028 140.45424 144.6142 148.27815 152.52609 155.10207 156.93404 159.35001 162.59796"
         y="0"
         sodipodi:role="line"
         id="tspan570">rmativeresponses,highormarginalfoodsecurity;</tspan><tspan
         x="-324.05194"
         y="9.0158873"
         id="tspan572">2</tspan></text>
<text
       transform="matrix(1,0,0,-1,50.234165,61.906913)"
       style="font-variant:normal;font-weight:normal;font-size:7.99989986px;font-family:AdvOT662f79ed;-inkscape-font-specification:AdvOT662f79ed;writing-mode:lr-tb;fill:#000000;fill-opacity:1;fill-rule:nonzero;stroke:none"
       id="text582"><tspan
         x="0 6.9735126 11.131061"
         y="0"
         sodipodi:role="line"
         id="tspan580">4af</tspan></text>
<text
       transform="matrix(1,0,0,-1,63.665997,61.906913)"
       style="font-variant:normal;font-weight:normal;font-size:7.99989986px;font-family:'AdvOT662f79ed +fb';-inkscape-font-specification:'AdvOT662f79ed +fb';writing-mode:lr-tb;fill:#000000;fill-opacity:1;fill-rule:nonzero;stroke:none"
       id="text586"><tspan
         x="0"
         y="0"
         id="tspan584">ﬁ</tspan></text>
<text
       transform="matrix(1,0,0,-1,67.521949,61.906913)"
       style="font-variant:normal;font-weight:normal;font-size:7.99989986px;font-family:AdvOT662f79ed;-inkscape-font-specification:AdvOT662f79ed;writing-mode:lr-tb;fill:#000000;fill-opacity:1;fill-rule:nonzero;stroke:none"
       id="text590"><tspan
         x="0 2.5759678 9.071887 13.231834 15.647804 17.479782 21.055737 27.551655 30.127623 34.287571 37.951527 42.199474 46.279423 50.607368 54.27132 58.431271 62.023224 66.335175 68.167145 72.247093 79.887001 82.214973 86.294922 90.37487 96.95079 100.61475 104.77469 108.43864 112.68659 115.26256 117.09454 119.51051 122.75847 127.05441"
         y="0"
         sodipodi:role="line"
         id="tspan588">rmativeresponses,lowfoodsecurity;5</tspan></text>
<text
       transform="matrix(1,0,0,-1,205.33623,61.906913)"
       style="font-variant:normal;font-weight:normal;font-size:7.99989986px;font-family:AdvOT662f79ed;-inkscape-font-specification:AdvOT662f79ed;writing-mode:lr-tb;fill:#000000;fill-opacity:1;fill-rule:nonzero;stroke:none"
       id="text598"><tspan
         x="0 6.9735126 11.131061"
         y="0"
         sodipodi:role="line"
         id="tspan596">6af</tspan></text>
<text
       transform="matrix(1,0,0,-1,218.76806,61.906913)"
       style="font-variant:normal;font-weight:normal;font-size:7.99989986px;font-family:'AdvOT662f79ed +fb';-inkscape-font-specification:'AdvOT662f79ed +fb';writing-mode:lr-tb;fill:#000000;fill-opacity:1;fill-rule:nonzero;stroke:none"
       id="text602"><tspan
         x="0"
         y="0"
         id="tspan600">ﬁ</tspan></text>
<text
       transform="matrix(1,0,0,-1,222.62401,61.906913)"
       style="font-variant:normal;font-weight:normal;font-size:7.99989986px;font-family:AdvOT662f79ed;-inkscape-font-specification:AdvOT662f79ed;writing-mode:lr-tb;fill:#000000;fill-opacity:1;fill-rule:nonzero;stroke:none"
       id="text608"><tspan
         x="0 2.5759678 9.071887 13.231834 15.647804 17.479782 21.055737 27.551655 30.127623 34.287571 37.951527 42.199474 46.279423 50.607368 54.27132 58.431271 62.023224 66.335175 69.911125 74.071075 76.647041 82.26297 84.094948 88.174896 95.814804 98.142776 102.22272 106.30267 112.93459 116.59854 120.75849 124.42245 128.67039 131.24635 133.07834 135.49431 138.74226"
         y="0"
         sodipodi:role="line"
         id="tspan604">rmativeresponses,verylowfoodsecurity.</tspan><tspan
         x="-186.62967 -182.13373 -176.88579 -172.55785 -168.14189 -163.89395 -159.39801 -155.15005 -150.90211 -146.65416 -144.82219 -140.66225 -134.16632 -130.00638 -125.67843 -123.35846 -119.19851 -114.96656 -109.71863 -105.47068 -103.05471 -100.47874 -98.646767 -96.230797 -94.398819 -90.318871 -83.670952 -79.34301 -75.679054 -72.015099 -70.183121 -66.519165 -64.103195 -59.943253 -55.615303 -51.951351 -45.463432 -41.047485 -38.471519 -34.391571 -30.479618 -27.90365 -23.743704 -17.247784 -12.975838 -6.479919 -4.4799442 0.095998801 4.3679452 8.8638887 13.111836 17.271784 20.935738 22.767715 26.927664 31.127611 35.623554 39.871502 44.11945 48.367393 50.199371 54.359322 60.85524 64.919189 69.247131 71.663101 75.823051 80.055 85.302933 89.55088 91.96685 94.542816 96.374794 98.790764 100.62274 104.59869 111.34261 115.75855 118.33452 122.41447 126.32642 128.90239 133.06233 141.90222 144.23019 148.31015 153.29408 159.79001 163.86995 170.36588 174.52582 178.74977 183.06171 185.06169 189.38963 191.71761 195.87755 200.20549 202.62146 206.28542 210.55737 214.71732 219.04526 225.69318 230.26912 234.51707 236.34904 238.18103 242.42897 245.00494 249.16489 253.49283"
         y="9.0158873"
         sodipodi:role="line"
         id="tspan606">SNAP,SupplementalNutritionAssistanceProgram;WIC,SpecialSupplementalNutritionProgramforWomen,Infants,andChildren.</tspan></text>
</g></svg>