<?xml version="1.0" encoding="UTF-8" standalone="no"?>
<!-- Created with Inkscape (http://www.inkscape.org/) -->

<svg
   xmlns:dc="http://purl.org/dc/elements/1.1/"
   xmlns:cc="http://creativecommons.org/ns#"
   xmlns:rdf="http://www.w3.org/1999/02/22-rdf-syntax-ns#"
   xmlns:svg="http://www.w3.org/2000/svg"
   xmlns="http://www.w3.org/2000/svg"
   xmlns:sodipodi="http://sodipodi.sourceforge.net/DTD/sodipodi-0.dtd"
   xmlns:inkscape="http://www.inkscape.org/namespaces/inkscape"
   version="1.1"
   id="svg2"
   xml:space="preserve"
   width="793.70135"
   height="1054.488"
   viewBox="0 0 793.70135 1054.488"
   sodipodi:docname="table2.svg"
   inkscape:version="0.92.0 r15299"><metadata
     id="metadata8"><rdf:RDF><cc:Work
         rdf:about=""><dc:format>image/svg+xml</dc:format><dc:type
           rdf:resource="http://purl.org/dc/dcmitype/StillImage" /><dc:title></dc:title></cc:Work></rdf:RDF></metadata><defs
     id="defs6"><clipPath
       clipPathUnits="userSpaceOnUse"
       id="clipPath690"><path
         d="m 51.023998,55.049 h 38.098 V 44.901 h -38.098 z"
         id="path688"
         inkscape:connector-curvature="0" /></clipPath><clipPath
       clipPathUnits="userSpaceOnUse"
       id="clipPath706"><path
         d="m 51.023998,55.049 h 38.098 V 44.901 h -38.098 z"
         id="path704"
         inkscape:connector-curvature="0" /></clipPath><clipPath
       clipPathUnits="userSpaceOnUse"
       id="clipPath724"><path
         d="m 51.023998,55.049 h 38.098 V 44.901 h -38.098 z"
         id="path722"
         inkscape:connector-curvature="0" /></clipPath></defs><sodipodi:namedview
     pagecolor="#ffffff"
     bordercolor="#666666"
     borderopacity="1"
     objecttolerance="10"
     gridtolerance="10"
     guidetolerance="10"
     inkscape:pageopacity="0"
     inkscape:pageshadow="2"
     inkscape:window-width="640"
     inkscape:window-height="480"
     id="namedview4"
     showgrid="false"
     inkscape:zoom="0.89522116"
     inkscape:cx="118.60399"
     inkscape:cy="904.43518"
     inkscape:window-x="0"
     inkscape:window-y="27"
     inkscape:window-maximized="0"
     inkscape:current-layer="g10" /><g
     id="g10"
     inkscape:groupmode="layer"
     inkscape:label="fulltext"
     transform="matrix(1.3333333,0,0,-1.3333333,0,1054.488)"><path
       d="M 51.023998,721.58698 H 289.134 v -0.567 H 51.023998 Z"
       style="fill:#131413;fill-opacity:1;fill-rule:evenodd;stroke:#131413;stroke-width:0.75;stroke-linecap:round;stroke-linejoin:round;stroke-miterlimit:10;stroke-dasharray:none;stroke-opacity:1"
       id="path522"
       inkscape:connector-curvature="0" /><g
       id="g524"
       transform="translate(289.134,606.67102)"><path
         d="M 0,0 H -238.11 V 0.56699997 H 0 V 0"
         style="fill:#131413;fill-opacity:1;fill-rule:evenodd;stroke:#131413;stroke-width:0.75;stroke-linecap:round;stroke-linejoin:round;stroke-miterlimit:10;stroke-dasharray:none;stroke-opacity:1"
         id="path526"
         inkscape:connector-curvature="0" /></g><g
       id="g528"
       transform="translate(156.35899,700.49701)"><path
         d="M 0,0 H -105.335 V 0.56699997 H 0"
         style="fill:#131413;fill-opacity:1;fill-rule:evenodd;stroke:#131413;stroke-width:0.75;stroke-linecap:round;stroke-linejoin:round;stroke-miterlimit:10;stroke-dasharray:none;stroke-opacity:1"
         id="path530"
         inkscape:connector-curvature="0" /></g><g
       id="g532"
       transform="translate(209.537,700.49701)"><path
         d="M 0,0 H -53.178001 V 0.56699997 H 0"
         style="fill:#131413;fill-opacity:1;fill-rule:evenodd;stroke:#131413;stroke-width:0.75;stroke-linecap:round;stroke-linejoin:round;stroke-miterlimit:10;stroke-dasharray:none;stroke-opacity:1"
         id="path534"
         inkscape:connector-curvature="0" /></g><g
       id="g536"
       transform="translate(244.12,700.49701)"><path
         d="M 0,0 H -34.583 V 0.56699997 H 0"
         style="fill:#131413;fill-opacity:1;fill-rule:evenodd;stroke:#131413;stroke-width:0.75;stroke-linecap:round;stroke-linejoin:round;stroke-miterlimit:10;stroke-dasharray:none;stroke-opacity:1"
         id="path538"
         inkscape:connector-curvature="0" /></g><g
       id="g540"
       transform="translate(273.883,700.49701)"><path
         d="M 0,0 H -29.764 V 0.56699997 H 0"
         style="fill:#131413;fill-opacity:1;fill-rule:evenodd;stroke:#131413;stroke-width:0.75;stroke-linecap:round;stroke-linejoin:round;stroke-miterlimit:10;stroke-dasharray:none;stroke-opacity:1"
         id="path542"
         inkscape:connector-curvature="0" /></g><g
       id="g544"
       transform="translate(289.134,700.49701)"><path
         d="M 0,0 H -15.25 V 0.56699997 H 0"
         style="fill:#131413;fill-opacity:1;fill-rule:evenodd;stroke:#131413;stroke-width:0.75;stroke-linecap:round;stroke-linejoin:round;stroke-miterlimit:10;stroke-dasharray:none;stroke-opacity:1"
         id="path546"
         inkscape:connector-curvature="0" /></g><text
       transform="matrix(1,0,0,-1,51.023602,727.02979)"
       style="font-variant:normal;font-weight:normal;font-size:8.46819973px;font-family:RbxrnqAdvTTb8864ccf;-inkscape-font-specification:RbxrnqAdvTTb8864ccf;writing-mode:lr-tb;fill:#131413;fill-opacity:1;fill-rule:nonzero;stroke:none"
       id="text550"><tspan
         x="0 4.8192525 9.0541992 13.55166 15.838921 21.657421"
         y="0"
         sodipodi:role="line"
         id="tspan548">Table2</tspan></text>
<text
       transform="matrix(1,0,0,-1,87.4792,727.02979)"
       style="font-variant:normal;font-weight:normal;font-size:8.46819973px;font-family:KyxfnhAdvTT3713a231;-inkscape-font-specification:KyxfnhAdvTT3713a231;writing-mode:lr-tb;fill:#131413;fill-opacity:1;fill-rule:nonzero;stroke:none"
       id="text554"><tspan
         x="0 5.9531446 9.6537476 15.987961 20.222061 24.261393 26.988153 30.493988 34.728088 38.767418 41.053833 46.871487 50.445065 54.679165 58.210403 60.818611 64.519211 68.075859 70.226784 73.927383 76.459373 78.745789 81.845154 84.131561 86.206276 89.906876 95.275719 99.509811 104.34515 107.60542 109.67165 113.90575 117.94508 124.40632 128.64043 132.11238 134.83914 136.93079 139.21721 142.77385 144.92477 149.15887 152.69011 156.92421 159.04126 164.48631"
         y="0"
         sodipodi:role="line"
         id="tspan552">Demographiccharacteristicsofstudyparticipants(</tspan></text>
<text
       transform="matrix(1,0,0,-1,254.60759,727.02979)"
       style="font-variant:normal;font-weight:normal;font-size:8.46819973px;font-family:KmwktxAdvTT50a2f13e;-inkscape-font-specification:KmwktxAdvTT50a2f13e;writing-mode:lr-tb;fill:#131413;fill-opacity:1;fill-rule:nonzero;stroke:none"
       id="text558"><tspan
         x="0"
         y="0"
         id="tspan556">N</tspan></text>
<text
       transform="matrix(1,0,0,-1,262.43221,727.02979)"
       style="font-variant:normal;font-weight:normal;font-size:8.46819973px;font-family:KyxfnhAdvTT3713a231;-inkscape-font-specification:KyxfnhAdvTT3713a231;writing-mode:lr-tb;fill:#131413;fill-opacity:1;fill-rule:nonzero;stroke:none"
       id="text574"><tspan
         x="0 6.9693284 10.822359 15.056459 19.095791"
         y="0"
         sodipodi:role="line"
         id="tspan560">=112)</tspan><tspan
         x="-106.07267 -98.578316 -95.072479 -91.371872 -52.892376 -48.21793 -18.308249 -10.813891 -8.7307138 11.449006 18.943363 22.449198"
         y="18.824808"
         sodipodi:role="line"
         id="tspan562">MeanSDMinMax</tspan><tspan
         x="-211.4086 -205.32845 -201.2637 -134.87302 -130.63892 -128.07306 -106.07267 -101.83857 -99.890884 -95.656784 -48.751427 -44.517326 -42.628918 -38.394817 -10.034818 15.589954 19.824055"
         y="39.351727"
         sodipodi:role="line"
         id="tspan564">Ageyrs8.822.27614</tspan><tspan
         x="-211.4086 -205.32845 -201.83107 -199.54466 -195.47992 -191.24582 -134.87302 -131.17241 -106.07267 -101.83857 -97.79924 -93.56514 -91.617455 -87.383354 -52.900845 -48.666744 -44.627415 -42.645855 -38.411755 -18.325186 -14.091085 -10.051754 11.432069 15.666168 19.7055"
         y="52.054024"
         sodipodi:role="line"
         id="tspan566">Heightcm138.4514.64100172</tspan><tspan
         x="-211.4086 -204.21063 -200.51004 -198.36758 -194.13348 -190.09415 -134.87302 -130.63892 -106.07267 -101.83857 -97.79924 -95.68219 -91.617455 -52.900845 -48.666744 -44.627415 -42.645855 -14.184236 -9.9501362 15.581487 19.815586"
         y="64.756325"
         sodipodi:role="line"
         id="tspan568">Weightkg35.7513.81990</tspan><tspan
         x="-211.4086 -206.29381 -202.27989 -198.04579 -194.51454 -190.81395 -188.73077 -186.44435 -182.37962 -134.87302 -130.63892 -128.07306 -106.07267 -101.83857 -99.890884 -95.656784 -48.751427 -44.517326 -42.628918 -38.394817 -10.034818 15.589954 19.824055"
         y="77.458626"
         sodipodi:role="line"
         id="tspan570">Educationyrs4.652.35110</tspan><tspan
         x="-211.4086 -205.32845 -201.83107 -197.59697 -193.55765 -189.85704 -185.7923 -181.5582 -178.08624 -174.82599"
         y="90.160919"
         sodipodi:role="line"
         id="tspan572">Handedness</tspan></text>
<text
       transform="matrix(1,0,0,-1,92.975061,636.86886)"
       style="font-variant:normal;font-weight:normal;font-size:8.46819973px;font-family:KmwktxAdvTT50a2f13e;-inkscape-font-specification:KmwktxAdvTT50a2f13e;writing-mode:lr-tb;fill:#131413;fill-opacity:1;fill-rule:nonzero;stroke:none"
       id="text578"><tspan
         x="0"
         y="0"
         id="tspan576">n</tspan></text>
<text
       transform="matrix(1,0,0,-1,99.37702,636.86886)"
       style="font-variant:normal;font-weight:normal;font-size:8.46819973px;font-family:KyxfnhAdvTT3713a231;-inkscape-font-specification:KyxfnhAdvTT3713a231;writing-mode:lr-tb;fill:#131413;fill-opacity:1;fill-rule:nonzero;stroke:none"
       id="text586"><tspan
         x="0 2.7267604 9.5267248 28.182169 56.982517 61.216618 67.584702 70.192909 74.42701 78.466339 80.583389 84.588844 91.549706"
         y="0"
         sodipodi:role="line"
         id="tspan580">(%)R99(88.4%)</tspan><tspan
         x="28.1737 56.974049 60.886356 67.288315 69.896523 74.130623 76.078308 80.312408 87.078499"
         y="9.9755392"
         sodipodi:role="line"
         id="tspan582">L11(9.8%)</tspan><tspan
         x="28.1737 33.288494 35.430946 56.974049 63.435284 66.043488 70.277588 72.225273 76.459373 83.225464"
         y="22.677839"
         sodipodi:role="line"
         id="tspan584">L/R2(1.7%)</tspan></text>
<text
       transform="matrix(1,0,0,-1,51.015129,593.89275)"
       style="font-variant:normal;font-weight:normal;font-size:8.46819973px;font-family:KmwktxAdvTT50a2f13e;-inkscape-font-specification:KmwktxAdvTT50a2f13e;writing-mode:lr-tb;fill:#131413;fill-opacity:1;fill-rule:nonzero;stroke:none"
       id="text590"><tspan
         x="0 3.7006032 6.749155"
         y="0"
         sodipodi:role="line"
         id="tspan588">yrs</tspan></text>
<text
       transform="matrix(1,0,0,-1,63.598874,593.89275)"
       style="font-variant:normal;font-weight:normal;font-size:8.46819973px;font-family:KyxfnhAdvTT3713a231;-inkscape-font-specification:KyxfnhAdvTT3713a231;writing-mode:lr-tb;fill:#131413;fill-opacity:1;fill-rule:nonzero;stroke:none"
       id="text594"><tspan
         x="0 4.2340999 7.7060618 11.406665 13.938657 17.198914"
         y="0"
         sodipodi:role="line"
         id="tspan592">years,</tspan></text>
<text
       transform="matrix(1,0,0,-1,85.370616,593.89275)"
       style="font-variant:normal;font-weight:normal;font-size:8.46819973px;font-family:KmwktxAdvTT50a2f13e;-inkscape-font-specification:KmwktxAdvTT50a2f13e;writing-mode:lr-tb;fill:#131413;fill-opacity:1;fill-rule:nonzero;stroke:none"
       id="text598"><tspan
         x="0"
         y="0"
         id="tspan596">n</tspan></text>
<text
       transform="matrix(1,0,0,-1,92.17058,593.89275)"
       style="font-variant:normal;font-weight:normal;font-size:8.46819973px;font-family:KyxfnhAdvTT3713a231;-inkscape-font-specification:KyxfnhAdvTT3713a231;writing-mode:lr-tb;fill:#131413;fill-opacity:1;fill-rule:nonzero;stroke:none"
       id="text602"><tspan
         x="0 4.2340999 8.2734308 14.67539 18.909491 22.381453 24.761017"
         y="0"
         sodipodi:role="line"
         id="tspan600">number,</tspan></text>
<text
       transform="matrix(1,0,0,-1,121.59757,593.89275)"
       style="font-variant:normal;font-weight:normal;font-size:8.46819973px;font-family:KmwktxAdvTT50a2f13e;-inkscape-font-specification:KmwktxAdvTT50a2f13e;writing-mode:lr-tb;fill:#131413;fill-opacity:1;fill-rule:nonzero;stroke:none"
       id="text606"><tspan
         x="0 3.7006032"
         y="0"
         sodipodi:role="line"
         id="tspan604">cm</tspan></text>
<text
       transform="matrix(1,0,0,-1,133.84259,593.89275)"
       style="font-variant:normal;font-weight:normal;font-size:8.46819973px;font-family:KyxfnhAdvTT3713a231;-inkscape-font-specification:KyxfnhAdvTT3713a231;writing-mode:lr-tb;fill:#131413;fill-opacity:1;fill-rule:nonzero;stroke:none"
       id="text610"><tspan
         x="0 3.7006032 7.1979699 11.43207 13.54912 15.835533 22.169746 25.87035 27.953527 30.680288 34.186123"
         y="0"
         sodipodi:role="line"
         id="tspan608">centimetre,</tspan></text>
<text
       transform="matrix(1,0,0,-1,172.67775,593.89275)"
       style="font-variant:normal;font-weight:normal;font-size:8.46819973px;font-family:KmwktxAdvTT50a2f13e;-inkscape-font-specification:KmwktxAdvTT50a2f13e;writing-mode:lr-tb;fill:#131413;fill-opacity:1;fill-rule:nonzero;stroke:none"
       id="text614"><tspan
         x="0 3.7006032"
         y="0"
         sodipodi:role="line"
         id="tspan612">kg</tspan></text>
<text
       transform="matrix(1,0,0,-1,183.0513,593.89275)"
       style="font-variant:normal;font-weight:normal;font-size:8.46819973px;font-family:KyxfnhAdvTT3713a231;-inkscape-font-specification:KyxfnhAdvTT3713a231;writing-mode:lr-tb;fill:#131413;fill-opacity:1;fill-rule:nonzero;stroke:none"
       id="text618"><tspan
         x="0 4.2340999 6.3511496 8.6375637 12.702299 16.936399 19.451454 23.152058 29.486271"
         y="0"
         sodipodi:role="line"
         id="tspan616">kilogram,</tspan></text>
<text
       transform="matrix(1,0,0,-1,217.17814,593.89275)"
       style="font-variant:normal;font-weight:normal;font-size:8.46819973px;font-family:KmwktxAdvTT50a2f13e;-inkscape-font-specification:KmwktxAdvTT50a2f13e;writing-mode:lr-tb;fill:#131413;fill-opacity:1;fill-rule:nonzero;stroke:none"
       id="text622"><tspan
         x="0"
         y="0"
         id="tspan620">R</tspan></text>
<text
       transform="matrix(1,0,0,-1,224.8334,593.89275)"
       style="font-variant:normal;font-weight:normal;font-size:8.46819973px;font-family:KyxfnhAdvTT3713a231;-inkscape-font-specification:KyxfnhAdvTT3713a231;writing-mode:lr-tb;fill:#131413;fill-opacity:1;fill-rule:nonzero;stroke:none"
       id="text626"><tspan
         x="0 2.7267604 4.8184056 9.0525055 13.091837 17.910242 22.144342 25.675581 29.909681 33.949013 37.649616 41.655075"
         y="0"
         sodipodi:role="line"
         id="tspan624">righthanded,</tspan></text>
<text
       transform="matrix(1,0,0,-1,271.20526,593.89275)"
       style="font-variant:normal;font-weight:normal;font-size:8.46819973px;font-family:KmwktxAdvTT50a2f13e;-inkscape-font-specification:KmwktxAdvTT50a2f13e;writing-mode:lr-tb;fill:#131413;fill-opacity:1;fill-rule:nonzero;stroke:none"
       id="text630"><tspan
         x="0"
         y="0"
         id="tspan628">L</tspan></text>
<text
       transform="matrix(1,0,0,-1,278.40323,593.89275)"
       style="font-variant:normal;font-weight:normal;font-size:8.46819973px;font-family:KyxfnhAdvTT3713a231;-inkscape-font-specification:KyxfnhAdvTT3713a231;writing-mode:lr-tb;fill:#131413;fill-opacity:1;fill-rule:nonzero;stroke:none"
       id="text636"><tspan
         x="0 2.1526163 5.8549132 8.447876"
         y="0"
         sodipodi:role="line"
         id="tspan632">left</tspan><tspan
         x="-227.39658 -223.16248 -219.63124 -215.54956 -211.31546 -207.78423 -203.55013"
         y="9.9247303"
         sodipodi:role="line"
         id="tspan634">handed,</tspan></text>
<text
       transform="matrix(1,0,0,-1,79.070268,583.96802)"
       style="font-variant:normal;font-weight:normal;font-size:8.46819973px;font-family:KmwktxAdvTT50a2f13e;-inkscape-font-specification:KmwktxAdvTT50a2f13e;writing-mode:lr-tb;fill:#131413;fill-opacity:1;fill-rule:nonzero;stroke:none"
       id="text640"><tspan
         x="0 4.6744461 6.749155"
         y="0"
         sodipodi:role="line"
         id="tspan638">L/R</tspan></text>
<text
       transform="matrix(1,0,0,-1,93.127479,583.96802)"
       style="font-variant:normal;font-weight:normal;font-size:8.46819973px;font-family:KyxfnhAdvTT3713a231;-inkscape-font-specification:KyxfnhAdvTT3713a231;writing-mode:lr-tb;fill:#131413;fill-opacity:1;fill-rule:nonzero;stroke:none"
       id="text644"><tspan
         x="0 2.2864139 5.7837806 8.510541 12.922473 16.623075 20.687813 27.089771 29.697977 31.98439 36.049126 40.283226 44.669754 48.903854 52.375816 56.609917 60.649246 64.349846"
         y="0"
         sodipodi:role="line"
         id="tspan642">leftandrighthanded</tspan></text>
</g></svg>