<?xml version="1.0" encoding="UTF-8" standalone="no"?>
<!-- Created with Inkscape (http://www.inkscape.org/) -->

<svg
   xmlns:dc="http://purl.org/dc/elements/1.1/"
   xmlns:cc="http://creativecommons.org/ns#"
   xmlns:rdf="http://www.w3.org/1999/02/22-rdf-syntax-ns#"
   xmlns:svg="http://www.w3.org/2000/svg"
   xmlns="http://www.w3.org/2000/svg"
   xmlns:sodipodi="http://sodipodi.sourceforge.net/DTD/sodipodi-0.dtd"
   xmlns:inkscape="http://www.inkscape.org/namespaces/inkscape"
   version="1.1"
   id="svg2"
   xml:space="preserve"
   width="793.70135"
   height="1054.488"
   viewBox="0 0 793.70135 1054.488"
   sodipodi:docname="table4.svg"
   inkscape:version="0.92.0 r15299"><metadata
     id="metadata8"><rdf:RDF><cc:Work
         rdf:about=""><dc:format>image/svg+xml</dc:format><dc:type
           rdf:resource="http://purl.org/dc/dcmitype/StillImage" /><dc:title></dc:title></cc:Work></rdf:RDF></metadata><defs
     id="defs6"><clipPath
       clipPathUnits="userSpaceOnUse"
       id="clipPath460"><path
         d="m 504.90701,55.049 h 38.098 V 44.901 h -38.098 z"
         id="path458"
         inkscape:connector-curvature="0" /></clipPath><clipPath
       clipPathUnits="userSpaceOnUse"
       id="clipPath476"><path
         d="m 504.90701,55.049 h 38.098 V 44.901 h -38.098 z"
         id="path474"
         inkscape:connector-curvature="0" /></clipPath><clipPath
       clipPathUnits="userSpaceOnUse"
       id="clipPath494"><path
         d="m 504.90701,55.049 h 38.098 V 44.901 h -38.098 z"
         id="path492"
         inkscape:connector-curvature="0" /></clipPath></defs><sodipodi:namedview
     pagecolor="#ffffff"
     bordercolor="#666666"
     borderopacity="1"
     objecttolerance="10"
     gridtolerance="10"
     guidetolerance="10"
     inkscape:pageopacity="0"
     inkscape:pageshadow="2"
     inkscape:window-width="1920"
     inkscape:window-height="988"
     id="namedview4"
     showgrid="false"
     inkscape:zoom="0.89522116"
     inkscape:cx="356.53112"
     inkscape:cy="768.86222"
     inkscape:window-x="0"
     inkscape:window-y="27"
     inkscape:window-maximized="1"
     inkscape:current-layer="g10" /><g
     id="g10"
     inkscape:groupmode="layer"
     inkscape:label="fulltext"
     transform="matrix(1.3333333,0,0,-1.3333333,0,1054.488)"><path
       d="M 51.023998,721.58698 H 544.252 v -0.567 H 51.023998 Z"
       style="fill:#131413;fill-opacity:1;fill-rule:evenodd;stroke:#131413;stroke-width:0.75;stroke-linecap:round;stroke-linejoin:round;stroke-miterlimit:10;stroke-dasharray:none;stroke-opacity:1"
       id="path256"
       inkscape:connector-curvature="0" /><path
       d="M 544.25201,474.85999 H 51.024017 v 0.567 H 544.25201 Z"
       style="fill:#131413;fill-opacity:1;fill-rule:evenodd;stroke:#131413;stroke-width:0.75;stroke-linecap:round;stroke-linejoin:round;stroke-miterlimit:10;stroke-dasharray:none;stroke-opacity:1"
       id="path258"
       inkscape:connector-curvature="0" /><g
       id="g260"
       transform="translate(132.09399,680.315)"><path
         d="M 0,0 H -81.070999 V 0.56699997 H 0"
         style="fill:#131413;fill-opacity:1;fill-rule:evenodd;stroke:#131413;stroke-width:0.75;stroke-linecap:round;stroke-linejoin:round;stroke-miterlimit:10;stroke-dasharray:none;stroke-opacity:1"
         id="path262"
         inkscape:connector-curvature="0" /></g><g
       id="g264"
       transform="translate(230.627,700.66803)"><path
         d="M 0,0 H -98.531998 V 0.56699997 H 0"
         style="fill:#131413;fill-opacity:1;fill-rule:evenodd;stroke:#131413;stroke-width:0.75;stroke-linecap:round;stroke-linejoin:round;stroke-miterlimit:10;stroke-dasharray:none;stroke-opacity:1"
         id="path266"
         inkscape:connector-curvature="0" /></g><g
       id="g268"
       transform="translate(335.168,700.66803)"><path
         d="M 0,0 H -98.531998 V 0.56699997 H 0"
         style="fill:#131413;fill-opacity:1;fill-rule:evenodd;stroke:#131413;stroke-width:0.75;stroke-linecap:round;stroke-linejoin:round;stroke-miterlimit:10;stroke-dasharray:none;stroke-opacity:1"
         id="path270"
         inkscape:connector-curvature="0" /></g><g
       id="g272"
       transform="translate(439.70999,700.66803)"><path
         d="M 0,0 H -98.531998 V 0.56699997 H 0"
         style="fill:#131413;fill-opacity:1;fill-rule:evenodd;stroke:#131413;stroke-width:0.75;stroke-linecap:round;stroke-linejoin:round;stroke-miterlimit:10;stroke-dasharray:none;stroke-opacity:1"
         id="path274"
         inkscape:connector-curvature="0" /></g><g
       id="g276"
       transform="translate(544.25201,700.66803)"><path
         d="M 0,0 H -98.531998 V 0.56699997 H 0"
         style="fill:#131413;fill-opacity:1;fill-rule:evenodd;stroke:#131413;stroke-width:0.75;stroke-linecap:round;stroke-linejoin:round;stroke-miterlimit:10;stroke-dasharray:none;stroke-opacity:1"
         id="path278"
         inkscape:connector-curvature="0" /></g><g
       id="g280"
       transform="translate(184.36501,680.315)"><path
         d="M 0,0 H -52.271 V 0.56699997 H 0"
         style="fill:#131413;fill-opacity:1;fill-rule:evenodd;stroke:#131413;stroke-width:0.75;stroke-linecap:round;stroke-linejoin:round;stroke-miterlimit:10;stroke-dasharray:none;stroke-opacity:1"
         id="path282"
         inkscape:connector-curvature="0" /></g><g
       id="g284"
       transform="translate(236.636,680.315)"><path
         d="M 0,0 H -52.271 V 0.56699997 H 0"
         style="fill:#131413;fill-opacity:1;fill-rule:evenodd;stroke:#131413;stroke-width:0.75;stroke-linecap:round;stroke-linejoin:round;stroke-miterlimit:10;stroke-dasharray:none;stroke-opacity:1"
         id="path286"
         inkscape:connector-curvature="0" /></g><g
       id="g288"
       transform="translate(288.90701,680.315)"><path
         d="M 0,0 H -52.271 V 0.56699997 H 0"
         style="fill:#131413;fill-opacity:1;fill-rule:evenodd;stroke:#131413;stroke-width:0.75;stroke-linecap:round;stroke-linejoin:round;stroke-miterlimit:10;stroke-dasharray:none;stroke-opacity:1"
         id="path290"
         inkscape:connector-curvature="0" /></g><g
       id="g292"
       transform="translate(341.17801,680.315)"><path
         d="M 0,0 H -52.271 V 0.56699997 H 0"
         style="fill:#131413;fill-opacity:1;fill-rule:evenodd;stroke:#131413;stroke-width:0.75;stroke-linecap:round;stroke-linejoin:round;stroke-miterlimit:10;stroke-dasharray:none;stroke-opacity:1"
         id="path294"
         inkscape:connector-curvature="0" /></g><g
       id="g296"
       transform="translate(393.44901,680.315)"><path
         d="M 0,0 H -52.271 V 0.56699997 H 0"
         style="fill:#131413;fill-opacity:1;fill-rule:evenodd;stroke:#131413;stroke-width:0.75;stroke-linecap:round;stroke-linejoin:round;stroke-miterlimit:10;stroke-dasharray:none;stroke-opacity:1"
         id="path298"
         inkscape:connector-curvature="0" /></g><g
       id="g300"
       transform="translate(445.72,680.315)"><path
         d="M 0,0 H -52.271 V 0.56699997 H 0"
         style="fill:#131413;fill-opacity:1;fill-rule:evenodd;stroke:#131413;stroke-width:0.75;stroke-linecap:round;stroke-linejoin:round;stroke-miterlimit:10;stroke-dasharray:none;stroke-opacity:1"
         id="path302"
         inkscape:connector-curvature="0" /></g><g
       id="g304"
       transform="translate(497.93399,680.315)"><path
         d="M 0,0 H -52.214001 V 0.56699997 H 0"
         style="fill:#131413;fill-opacity:1;fill-rule:evenodd;stroke:#131413;stroke-width:0.75;stroke-linecap:round;stroke-linejoin:round;stroke-miterlimit:10;stroke-dasharray:none;stroke-opacity:1"
         id="path306"
         inkscape:connector-curvature="0" /></g><g
       id="g308"
       transform="translate(544.25201,680.315)"><path
         d="M 0,0 H -46.318001 V 0.56699997 H 0"
         style="fill:#131413;fill-opacity:1;fill-rule:evenodd;stroke:#131413;stroke-width:0.75;stroke-linecap:round;stroke-linejoin:round;stroke-miterlimit:10;stroke-dasharray:none;stroke-opacity:1"
         id="path310"
         inkscape:connector-curvature="0" /></g><text
       transform="matrix(1,0,0,-1,51.023602,727.02979)"
       style="font-variant:normal;font-weight:normal;font-size:8.46819973px;font-family:RbxrnqAdvTTb8864ccf;-inkscape-font-specification:RbxrnqAdvTTb8864ccf;writing-mode:lr-tb;fill:#131413;fill-opacity:1;fill-rule:nonzero;stroke:none"
       id="text314"><tspan
         x="0 4.8192525 9.0541992 13.55166 15.838921 21.657421"
         y="0"
         sodipodi:role="line"
         id="tspan312">Table4</tspan></text>
<text
       transform="matrix(1,0,0,-1,87.4792,727.02979)"
       style="font-variant:normal;font-weight:normal;font-size:8.46819973px;font-family:KyxfnhAdvTT3713a231;-inkscape-font-specification:KyxfnhAdvTT3713a231;writing-mode:lr-tb;fill:#131413;fill-opacity:1;fill-rule:nonzero;stroke:none"
       id="text318"><tspan
         x="0 5.6398211 9.1287193 12.388976 15.928683 18.079607 20.36602 24.430756 30.324623 33.584881 37.07378 41.307877 43.873741 47.447323 52.892376 55.619137 59.692341 64.620834 70.260651 74.257645 78.491745 82.531075 86.231674 88.763672 94.259529 98.798485 102.49909 105.03108 108.73168 112.79642 117.2761 122.91592 126.40482 128.69124 130.82521 135.05931 141.36813 146.04257 149.53146 153.23207 155.37453 161.2684 165.5025 168.97446 172.23471 175.77441 182.17638 186.41048 192.71928 196.95338 200.48463 206.88658 211.12068 215.16002 217.76822 221.46883 225.53357 229.76767 231.88472 237.77858 242.01268 245.48463 247.77106 253.58871"
         y="0"
         sodipodi:role="line"
         id="tspan316">BaselinescoresforConnersParentRatingScalebasedondemographicdata(</tspan></text>
<text
       transform="matrix(1,0,0,-1,343.72693,727.02979)"
       style="font-variant:normal;font-weight:normal;font-size:8.46819973px;font-family:KmwktxAdvTT50a2f13e;-inkscape-font-specification:KmwktxAdvTT50a2f13e;writing-mode:lr-tb;fill:#131413;fill-opacity:1;fill-rule:nonzero;stroke:none"
       id="text322"><tspan
         x="0"
         y="0"
         id="tspan320">N</tspan></text>
<text
       transform="matrix(1,0,0,-1,351.55154,727.02979)"
       style="font-variant:normal;font-weight:normal;font-size:8.46819973px;font-family:KyxfnhAdvTT3713a231;-inkscape-font-specification:KyxfnhAdvTT3713a231;writing-mode:lr-tb;fill:#131413;fill-opacity:1;fill-rule:nonzero;stroke:none"
       id="text342"><tspan
         x="0 6.9693284 10.822359 15.056459 19.095791"
         y="0"
         sodipodi:role="line"
         id="tspan324">=112)</tspan><tspan
         x="-219.46187 -214.78741 -211.29852 -114.92194 -107.55461 -103.854 -99.789268 -97.638344 -93.937744 -90.381096 -88.230179 -84.529572 -10.390484 -4.4373398 -2.1509259 1.4057181 5.6398182 9.6283398 13.86244 16.944864 20.645468 94.157913 100.11105 104.34515 106.91102 110.02731 112.31373 114.44772"
         y="18.824808"
         sodipodi:role="line"
         id="tspan326">SexMedicatedDiagnosedOn-site</tspan><tspan
         x="-219.46187 -212.10977 -208.40749 -206.26334 -167.2063 -162.67412 -158.97182 -152.59358 -148.89128 -146.74713 -114.88807 -108.95016 -103.83368 -62.634197 -56.679356 -10.36508 -5.2062521 -1.5039554 41.905731 47.843632 94.157913 99.316734 103.01904 146.36945 152.45131"
         y="39.004528"
         sodipodi:role="line"
         id="tspan328">MaleFemaleYESNoYesNoYesNo</tspan><tspan
         x="-300.52795 -297.91974 -293.68564 -290.15439 -287.86798 -285.79327 -282.09268 -278.02792 -275.74152 -273.66681 -269.43271 -219.4534 -215.2193 -211.17996 -209.19841 -204.96431 -198.59622 -191.84706 -187.99403 -183.75993 -181.81224 -177.57814 -167.18767 -162.95357 -158.91423 -156.93268 -152.69858 -146.33049 -139.58133 -135.34723 -131.30791 -129.19086 -125.12612 -114.92194 -110.68784 -106.64851 -104.66695 -100.43285 -94.064766 -87.315605 -83.081505 -81.13382 -76.899719 -62.656208 -58.422108 -54.382778 -52.401218 -48.167118 -41.858311 -35.058346 -31.205317 -26.971216 -25.023529 -20.789431 -10.398949 -6.1648493 -2.1255178 -0.14395906 4.0901408 10.39895 17.198914 21.433014 23.380699 27.462372 41.858311 46.092411 50.080933 52.197983 56.262718 62.664677 69.464645 73.698746 77.738075 79.719635 83.953735 94.11557 98.197243 102.43134 104.37903 108.61313 114.92194 121.7219 125.956 129.99533 131.9769 136.211 146.32202 150.55612 154.59546 156.71251 160.77724 167.1792 173.97916 178.21326 182.25259 184.23415 188.46825"
         y="59.531445"
         sodipodi:role="line"
         id="tspan330">Inattention78.84±11.0983.25±10.2181.25±8.7979.33±11.6581.27±8.8478.92±12.1080.50±10.8478.00±10.97</tspan><tspan
         x="-300.52795 -294.44778 -290.38303 -286.14893 -282.67697 -279.95023 -276.4444 -272.74377 -270.60132 -268.45041 -264.21631 -262.09924 -259.81284 -219.47034 -215.23624 -211.1969 -209.21535 -204.98125 -198.61316 -191.864 -187.6299 -183.59058 -181.47353 -177.40878 -167.20461 -162.9705 -158.93117 -156.94962 -152.71552 -146.34743 -139.59828 -135.36418 -131.32484 -129.20779 -125.14306 -114.93888 -110.70478 -106.66544 -104.68389 -100.44979 -94.081703 -87.33255 -83.09845 -81.150757 -76.916664 -62.673149 -58.439049 -54.399719 -52.418159 -48.184059 -41.875252 -35.075287 -30.841187 -26.801855 -24.684805 -20.679346 -10.415888 -6.1817884 -2.1424572 -0.16089842 4.0732017 10.38201 17.181974 21.416075 23.36376 27.445433 41.841373 46.075474 50.063995 52.181046 56.245781 62.647739 69.447701 73.681801 77.721138 79.70269 83.93679 94.098633 98.180305 102.41441 104.36209 108.59619 114.905 121.70496 125.93906 129.97839 131.95996 136.19405 146.30508 150.53918 154.57852 156.69557 160.7603 167.16226 173.96222 177.81526 182.04936 183.99704 188.23114"
         y="72.233742"
         sodipodi:role="line"
         id="tspan332">Hyperactivity80.85±12.2580.75±15.3485.09±7.6480.07±13.3784.49±9.2679.46±13.5382.20±12.4879.54±11.03</tspan><tspan
         x="-300.52795 -295.41315 -291.90732 -288.20673 -285.67471 -281.44061 -279.32358 -275.08948 -268.78067 -264.54657 -262.03149 -257.79739 -253.75807 -251.47166 -247.91502 -241.51306 -219.46187 -215.22777 -211.18843 -209.20688 -204.97278 -198.60469 -191.85553 -187.62143 -183.58211 -181.46506 -177.40031 -167.19614 -162.96204 -158.92271 -156.94115 -152.70705 -146.33896 -139.58981 -135.35571 -131.31638 -129.19933 -125.13459 -114.93041 -110.69631 -106.65697 -104.67542 -100.44132 -94.073235 -87.324081 -83.089981 -79.050644 -76.933594 -72.868858 -62.66468 -58.43058 -54.391251 -52.409691 -48.175591 -41.866783 -35.066818 -30.832718 -26.793386 -24.676336 -20.670877 -10.40742 -6.1733203 -2.1339889 -0.15243022 4.0816698 10.390478 17.190443 21.424543 25.463875 27.445433 31.679533 41.841373 46.075474 50.063995 52.181046 56.245781 62.647739 69.447701 73.681801 77.721138 79.70269 83.93679 94.098633 98.180305 102.41441 104.36209 108.59619 114.905 121.70496 125.93906 129.97839 131.95996 136.19405 146.30508 150.53918 154.57852 156.69557 160.7603 167.16226 173.96222 178.19632 182.23566 184.21721 188.45131"
         y="84.936043"
         sodipodi:role="line"
         id="tspan334">Learningproblems68.66±14.8773.00±16.2873.69±13.1467.50±15.2070.47±14.4568.52±15.1669.33±15.4969.35±12.79</tspan><tspan
         x="-300.52795 -295.41315 -291.39923 -287.69861 -284.14197 -279.90787 -277.8501 -275.56369 -271.49896 -265.60507 -262.99689 -258.76279 -254.72345 -251.02284 -248.88039 -246.72948 -242.49538 -219.46187 -215.22777 -211.18843 -209.20688 -204.97278 -198.60469 -191.85553 -188.0025 -183.7684 -181.82072 -177.58662 -167.19614 -162.96204 -158.92271 -156.94115 -152.70705 -146.33896 -139.58981 -135.35571 -131.31638 -129.19933 -125.13459 -114.93041 -110.69631 -106.65697 -104.67542 -100.44132 -94.073235 -87.324081 -83.089981 -79.050644 -76.933594 -72.868858 -62.66468 -58.43058 -54.391251 -52.409691 -48.175591 -41.866783 -35.066818 -30.832718 -26.793386 -24.676336 -20.670877 -10.40742 -6.1733203 -2.1339889 -0.15243022 4.0816698 10.390478 17.190443 21.043474 25.277573 27.22526 31.45936 41.849842 46.083939 50.072464 52.18951 56.25425 62.656208 69.456169 73.690269 77.729599 79.711159 83.945259 94.107101 98.188774 102.42287 104.37056 108.60466 114.91347 121.71343 125.94753 129.98686 131.96841 136.20251 146.31355 150.54765 154.58699 156.70404 160.76877 167.17073 173.97069 177.82373 182.05782 184.00551 188.23961"
         y="97.638344"
         sodipodi:role="line"
         id="tspan336">Executivefunction69.12±11.7674.38±16.6171.56±10.8070.64±13.3871.56±11.7670.46±13.2971.70±13.0468.46±11.10</tspan><tspan
         x="-300.52795 -294.44778 -290.38303 -286.14893 -283.63388 -279.93329 -276.88474 -273.62448 -271.49896 -267.26486 -219.4534 -215.2193 -211.17996 -209.19841 -204.96431 -198.59622 -191.84706 -187.61296 -183.57364 -181.45659 -177.39185 -167.18767 -162.95357 -158.91423 -156.93268 -152.69858 -146.33049 -139.58133 -135.34723 -131.30791 -129.19086 -125.12612 -114.92194 -110.68784 -106.64851 -104.66695 -100.43285 -94.064766 -87.315605 -83.081505 -79.042175 -76.925125 -72.86039 -62.656208 -58.422108 -54.382778 -52.401218 -48.167118 -41.858311 -35.058346 -30.824247 -26.784916 -24.667866 -20.662407 -10.398949 -6.1648493 -2.1255178 -0.14395906 4.0901408 10.39895 17.198914 21.433014 25.472345 27.453903 31.688004 41.849842 46.083942 50.072464 52.189514 56.25425 62.656212 69.456177 73.690277 77.729607 79.711166 83.945267 94.107101 98.188774 102.42287 104.37056 108.60466 114.91347 121.71343 125.94753 129.98686 131.96843 136.20253 146.31355 150.54765 154.58699 156.70404 160.76877 167.17073 173.97069 178.20479 182.24413 184.22569 188.45978"
         y="110.34064"
         sodipodi:role="line"
         id="tspan338">Aggression77.36±14.6769.88±17.9879.41±12.8675.78±15.7179.69±13.1774.83±15.9176.66±15.3377.46±13.98</tspan><tspan
         x="-300.52795 -295.85349 -292.36459 -288.664 -283.80325 -281.19504 -277.49445 -275.35199 -271.77841 -269.492 -267.358 -263.1239 -259.13538 -219.4534 -215.2193 -211.17996 -209.19841 -204.96431 -198.59622 -191.84706 -187.61296 -183.57364 -181.45659 -177.39185 -167.18767 -162.95357 -158.91425 -156.93268 -152.69858 -146.33049 -139.58134 -135.34724 -131.30791 -129.19086 -125.12612"
         y="123.04294"
         sodipodi:role="line"
         id="tspan340">Peerrelations70.78±16.7863.38±22.36</tspan></text>
<text
       transform="matrix(1,0,0,-1,236.63807,603.98684)"
       style="font-variant:normal;font-weight:normal;font-size:8.46819973px;font-family:RbxrnqAdvTTb8864ccf;-inkscape-font-specification:RbxrnqAdvTTb8864ccf;writing-mode:lr-tb;fill:#131413;fill-opacity:1;fill-rule:nonzero;stroke:none"
       id="text346"><tspan
         x="0 4.2340999 8.2734308 10.25499 14.48909 20.857176 27.606331 31.840431 35.879761 37.996811 42.061546"
         y="0"
         sodipodi:role="line"
         id="tspan344">78.81±15.10</tspan></text>
<text
       transform="matrix(1,0,0,-1,288.91227,603.98684)"
       style="font-variant:normal;font-weight:normal;font-size:8.46819973px;font-family:KyxfnhAdvTT3713a231;-inkscape-font-specification:KyxfnhAdvTT3713a231;writing-mode:lr-tb;fill:#131413;fill-opacity:1;fill-rule:nonzero;stroke:none"
       id="text350"><tspan
         x="0 4.2340999 8.2734308 10.25499 14.48909 20.797899 27.597862 31.831963 35.871292 37.988342 41.993801"
         y="0"
         sodipodi:role="line"
         id="tspan348">67.75±17.16</tspan></text>
<text
       transform="matrix(1,0,0,-1,341.18647,603.98684)"
       style="font-variant:normal;font-weight:normal;font-size:8.46819973px;font-family:RbxrnqAdvTTb8864ccf;-inkscape-font-specification:RbxrnqAdvTTb8864ccf;writing-mode:lr-tb;fill:#131413;fill-opacity:1;fill-rule:nonzero;stroke:none"
       id="text354"><tspan
         x="0 4.2340999 8.2734308 10.25499 14.48909 20.797899 27.597862 31.831963 35.871292 37.852852 42.086952"
         y="0"
         sodipodi:role="line"
         id="tspan352">77.44±15.36</tspan></text>
<text
       transform="matrix(1,0,0,-1,393.46066,603.98684)"
       style="font-variant:normal;font-weight:normal;font-size:8.46819973px;font-family:KyxfnhAdvTT3713a231;-inkscape-font-specification:KyxfnhAdvTT3713a231;writing-mode:lr-tb;fill:#131413;fill-opacity:1;fill-rule:nonzero;stroke:none"
       id="text370"><tspan
         x="0 4.2340999 8.2226219 10.339672 14.404408 20.806366 27.606331 31.840431 35.879761 37.86132 42.095421 52.257259 56.338932 60.573032 62.520718 66.754822 73.063629 79.863594 84.097694 88.137024 90.118584 94.352684 104.46371 108.69781 112.73714 114.85419 118.91893 125.32088 132.12085 136.35495 140.39429 142.37584 146.60994"
         y="0"
         sodipodi:role="line"
         id="tspan356">66.44±17.2171.01±17.4171.08±17.16</tspan><tspan
         x="-342.42859 -336.34842 -331.88568 -322.18961 -319.9032 -315.83844 -312.26486 -309.97845 -307.84445 -304.27087 -300.03677 -297.91974 -295.63333 -291.56857 -261.35406 -257.11996 -253.08061 -251.09906 -246.86496 -240.49687 -233.74773 -229.51363 -225.47429 -223.35724 -219.2925 -209.08832 -204.85422 -200.8149 -198.83333 -194.59923 -188.23114 -181.48199 -177.24789 -173.20856 -171.09151 -167.02678 -156.82259 -152.58849 -148.54916 -146.5676 -142.3335 -135.96542 -129.21626 -124.98216 -123.03448 -118.80038 -104.55686 -100.32276 -96.283432 -94.301872 -90.067772 -83.758965 -76.959 -73.105972 -68.871872 -66.924187 -62.690086 -52.299603 -48.065502 -44.026173 -42.044613 -37.810513 -31.501705 -24.70174 -20.467642 -18.519955 -14.438283 -0.042343289 4.1917567 8.1802788 10.297329 14.362064 20.764023 27.563988 31.798088 35.837418 37.818977 42.053078 52.214916 56.296589 60.530689 62.478374 66.712479 73.021286 79.821251 83.674278 87.908379 89.856064 94.090164 104.42984 108.66393 112.70327 114.82032 118.88506 125.28701 132.08698 136.32108 140.36041 142.34196 146.57607"
         y="12.7023"
         sodipodi:role="line"
         id="tspan358">DSMinattention75.45±10.7479.50±14.1677.25±9.2576.74±11.9777.24±9.7276.63±12.2077.70±11.2774.35±10.75</tspan><tspan
         x="-342.42859 -336.34842 -331.88568 -322.18961 -317.95551 -313.91617 -309.68207 -306.15082 -303.54263 -299.84201 -296.34467 -294.05823 -291.92426 -287.69016 -285.63239 -283.34598 -261.37097 -257.1369 -253.09755 -251.116 -246.8819 -240.51381 -233.76465 -229.53055 -225.49123 -223.37418 -219.30943 -209.10526 -204.87115 -200.83183 -198.85027 -194.61617 -188.24808 -181.49893 -177.26483 -173.22549 -171.10844 -167.04372 -156.83952 -152.60542 -148.5661 -146.58453 -142.35043 -135.98236 -129.2332 -124.9991 -123.05141 -118.81731 -104.5738 -100.3397 -96.300369 -94.31881 -90.084709 -83.775902 -76.975937 -72.741837 -68.702507 -66.585457 -62.579998 -52.31654 -48.082439 -44.04311 -42.06155 -37.82745 -31.518642 -24.718678 -20.484577 -16.445246 -14.463687 -10.229588 -0.067747883 4.1663518 8.1548738 10.271924 14.336659 20.738619 27.538584 31.772682 35.812016 37.793571 42.027672 52.189514 56.271183 60.505283 62.452972 66.687073 72.99588 79.795845 84.029945 88.069275 90.050835 94.284935 104.39597 108.63007 112.6694 114.78645 118.85118 125.25314 132.0531 135.90613 140.14023 142.08792 146.32202"
         y="25.404598"
         sodipodi:role="line"
         id="tspan360">DSMhyperactivity79.14±12.3878.75±15.5683.31±8.9378.37±13.2982.78±10.3877.73±13.2380.78±12.5476.85±11.37</tspan><tspan
         x="-342.42859 -336.78879 -332.73251 -328.49841 -324.45908 -320.22498 -316.75302 -312.27335 -308.03925 -305.92218 -302.66193 -298.60565 -295.99747 -291.76337 -288.23212 -261.36252 -257.12842 -253.08908 -251.10753 -246.87343 -240.50534 -233.75618 -229.52209 -225.48276 -223.36571 -219.30096 -209.09679 -204.86269 -200.82336 -198.8418 -194.6077 -188.23961 -181.49046 -177.25636 -173.21703 -171.09998 -167.03525 -156.83105 -152.59695 -148.55763 -146.57607 -142.34196 -135.97389 -129.22473 -124.99063 -120.9513 -118.83425 -114.76952 -104.56533 -100.33123 -96.291901 -94.310341 -90.076241 -83.767433 -76.967468 -72.733368 -68.694038 -66.576988 -62.571529 -52.308071 -48.073971 -44.034641 -42.053082 -37.818981 -31.510174 -24.710209 -20.476109 -16.436777 -14.455219 -10.221119 -0.05927968 4.1748199 8.1633425 10.280393 14.345128 20.747087 27.54705 31.781151 35.820484 37.80204 42.03614 52.197979 56.279652 60.513752 62.461437 66.695541 73.004349 79.804314 84.038414 88.077744 90.059303 94.293404 104.40443 108.63853 112.67786 114.79491 118.85965 125.2616 132.06157 136.29567 140.33501 142.31656 146.55066"
         y="38.106899"
         sodipodi:role="line"
         id="tspan362">Conductdisorder70.07±15.6170.00±16.4173.06±15.1069.57±15.8673.29±15.0768.68±15.8970.70±15.8370.31±15.37</tspan><tspan
         x="-342.42859 -336.34842 -332.28369 -328.04959 -324.06107 -320.80081 -318.67529 -316.38889 -314.31418 -310.08008 -306.04074 -302.34015 -297.93668 -293.70258 -290.23062 -287.50385 -285.35294 -281.77936 -277.54526"
         y="50.809196"
         sodipodi:role="line"
         id="tspan364">Oppositionaldefiant</tspan><tspan
         x="-333.92651 -329.69241 -327.57538 -324.45908 -320.22498 -317.65912 -313.42502 -309.95306"
         y="60.784737"
         sodipodi:role="line"
         id="tspan366">disorder</tspan><tspan
         x="-261.36252 -257.12842 -253.08908 -251.10753 -246.87343 -240.50534 -233.75618 -229.52208 -225.48276 -223.36571 -219.30096 -209.09679 -204.86269 -200.82336 -198.8418 -194.6077 -188.23961 -181.49046 -177.25636 -173.21703 -171.09998 -167.03525 -156.83105 -152.59695 -148.55763 -146.57607 -142.34196 -135.97388 -129.22473 -124.99063 -120.95129 -118.83424 -114.76951 -104.56533 -100.33123 -96.291901 -94.310341 -90.076241 -83.767433 -76.967468 -72.733368 -68.694038 -66.576988 -62.571529"
         y="50.809196"
         sodipodi:role="line"
         id="tspan368">75.88±12.8166.00±17.6279.16±10.9873.64±13.95</tspan></text>
<text
       transform="matrix(1,0,0,-1,341.178,553.17765)"
       style="font-variant:normal;font-weight:normal;font-size:8.46819973px;font-family:RbxrnqAdvTTb8864ccf;-inkscape-font-specification:RbxrnqAdvTTb8864ccf;writing-mode:lr-tb;fill:#131413;fill-opacity:1;fill-rule:nonzero;stroke:none"
       id="text374"><tspan
         x="0 4.2340999 8.2734308 10.25499 14.48909 20.797899 27.597862 31.28153 35.515629 37.463314 41.697414"
         y="0"
         sodipodi:role="line"
         id="tspan372">79.24±11.27</tspan></text>
<text
       transform="matrix(1,0,0,-1,393.4522,553.17765)"
       style="font-variant:normal;font-weight:normal;font-size:8.46819973px;font-family:KyxfnhAdvTT3713a231;-inkscape-font-specification:KyxfnhAdvTT3713a231;writing-mode:lr-tb;fill:#131413;fill-opacity:1;fill-rule:nonzero;stroke:none"
       id="text384"><tspan
         x="0 4.2340999 8.2226219 10.339672 14.404408 20.806366 27.606331 31.840431 35.879761 37.86132 42.095421 52.257259 56.338932 60.573032 62.520718 66.754822 73.063629 79.863594 84.097694 88.137024 90.118584 94.352684 104.46371 108.69781 112.73714 114.85419 118.91893 125.32088 132.12085 136.35495 140.39429 142.37584 146.60994"
         y="0"
         sodipodi:role="line"
         id="tspan376">72.44±14.0475.02±13.7676.08±12.09</tspan><tspan
         x="-342.42859 -336.34842 -334.26526 -330.03116 -325.99182 -322.29123 -317.88776 -311.9346 -305.85443 -299.91824 -291.64481 -289.49387 -285.25977 -281.22046 -277.51984 -261.37946 -257.14536 -253.10602 -251.12447 -246.89037 -240.52228 -233.77312 -229.92009 -225.68599 -223.73831 -219.50421 -209.11372 -204.87962 -200.8403 -198.85873 -194.62463 -188.25655 -181.5074 -177.65436 -173.42026 -171.47258 -167.23848 -156.84799 -152.61389 -148.57457 -146.593 -142.3589 -135.99081 -129.24167 -125.00757 -123.05988 -118.82578 -104.58227 -100.34817 -96.308838 -94.327278 -90.093178 -83.78437 -76.984406 -72.750305 -68.710976 -66.593925 -62.588467 -52.325008 -48.090908 -44.051579 -42.070019 -37.835918 -31.527109 -24.727146 -20.493046 -18.545361 -14.463687 -0.067747883 4.1663518 8.1548738 10.271924 14.336659 20.738619 27.538584 31.772682 35.812016 37.793571 42.027672 52.189514 56.271183 60.505283 62.452972 66.687073 72.99588 79.795845 83.648872 87.882973 89.830658 94.064758 104.40443 108.63853 112.67786 114.79491 118.85965 125.2616 132.06157 136.29567 140.33501 142.31656 146.55066"
         y="19.959549"
         sodipodi:role="line"
         id="tspan378">GlobalADHDindex79.88±11.5280.38±11.7084.53±7.2678.82±12.2184.04±7.4877.98±12.7880.85±11.5779.42±10.34</tspan><tspan
         x="-342.42859 -339.8204 -333.29987 -329.2182 -325.64462 -323.35822 -320.76694 -317.19336 -310.73212 -307.61581 -303.91522 -299.85049 -295.61639 -291.57706 -287.09738 -284.81097 -282.73627 -280.00949 -257.22156 -252.98747 -251.09906 -246.86496 -240.49687 -233.74773 -229.51363 -227.56593 -223.33183 -204.94737 -200.71327 -198.82486 -194.59076 -188.22267 -181.47353 -177.23943 -175.29173 -171.05763 -152.67317 -148.43907 -146.55066 -142.31657 -135.94849 -129.19933 -124.96523 -123.01754 -118.78344 -100.39898 -96.164879 -94.276466 -90.042374 -83.733559 -76.933594 -72.699493 -70.751808 -66.517708 -48.133251 -43.899151 -42.010742 -37.776642 -31.467833 -24.667868 -20.433767 -18.486082 -14.40441 4.1324792 8.2141514 10.331202 14.395937 20.797895 27.59786 31.831961 33.720367 37.954468 56.338932 60.573029 62.520718 66.754814 73.063622 79.863586 84.097687 85.986099 90.2202 108.60466 112.83876 114.78645 119.02055 125.32935 132.12932 136.36342 138.25183 142.48593"
         y="32.661846"
         sodipodi:role="line"
         id="tspan380">Impairedschoollife2.21±0.932.25±0.892.28±0.922.20±0.912.24±0.962.21±0.882.24±0.902.15±0.97</tspan><tspan
         x="-342.42859 -339.8204 -333.29987 -329.2182 -325.64462 -323.35822 -320.76694 -317.19336 -310.73212 -308.12393 -304.42331 -302.34015 -298.63953 -296.49707 -294.34616 -290.11206 -286.07272 -282.81247 -278.7562 -276.46979 -272.40506 -257.2131 -252.979 -251.09059 -246.85649 -240.4884 -233.73926 -229.50516 -227.55746 -223.32336 -204.9389 -200.7048 -198.81639 -194.58229 -188.2142 -181.46506 -177.23096 -175.28326 -171.04916"
         y="45.364147"
         sodipodi:role="line"
         id="tspan382">Impairedrelationships1.70±0.981.00±1.41</tspan></text>
<text
       transform="matrix(1,0,0,-1,240.77055,507.8135)"
       style="font-variant:normal;font-weight:normal;font-size:8.46819973px;font-family:RbxrnqAdvTTb8864ccf;-inkscape-font-specification:RbxrnqAdvTTb8864ccf;writing-mode:lr-tb;fill:#131413;fill-opacity:1;fill-rule:nonzero;stroke:none"
       id="text388"><tspan
         x="0 4.2340999 6.1225085 10.356608 16.724695 23.47385 27.707949 29.655636 33.889736"
         y="0"
         sodipodi:role="line"
         id="tspan386">1.97±1.03</tspan></text>
<text
       transform="matrix(1,0,0,-1,293.04474,507.8135)"
       style="font-variant:normal;font-weight:normal;font-size:8.46819973px;font-family:KyxfnhAdvTT3713a231;-inkscape-font-specification:KyxfnhAdvTT3713a231;writing-mode:lr-tb;fill:#131413;fill-opacity:1;fill-rule:nonzero;stroke:none"
       id="text392"><tspan
         x="0 4.2340999 6.1225085 10.356608 16.665417 23.465382 27.699482 29.647167 33.881268"
         y="0"
         sodipodi:role="line"
         id="tspan390">1.51±1.04</tspan></text>
<text
       transform="matrix(1,0,0,-1,345.31894,507.8135)"
       style="font-variant:normal;font-weight:normal;font-size:8.46819973px;font-family:RbxrnqAdvTTb8864ccf;-inkscape-font-specification:RbxrnqAdvTTb8864ccf;writing-mode:lr-tb;fill:#131413;fill-opacity:1;fill-rule:nonzero;stroke:none"
       id="text396"><tspan
         x="0 4.2340999 6.1225085 10.356608 16.665417 23.465382 27.699482 29.647167 33.72884"
         y="0"
         sodipodi:role="line"
         id="tspan394">2.00±1.00</tspan></text>
<text
       transform="matrix(1,0,0,-1,397.59314,507.8135)"
       style="font-variant:normal;font-weight:normal;font-size:8.46819973px;font-family:KyxfnhAdvTT3713a231;-inkscape-font-specification:KyxfnhAdvTT3713a231;writing-mode:lr-tb;fill:#131413;fill-opacity:1;fill-rule:nonzero;stroke:none"
       id="text402"><tspan
         x="0 4.0816722 6.1987224 10.263458 16.665417 23.465382 27.699482 29.587891 33.821991 52.206451 56.440552 58.388237 62.622337 68.931145 75.73111 79.96521 81.853615 86.087715 104.47218 108.70628 110.65397 114.88807 121.19688 127.99684 132.23094 134.11935 138.35345"
         y="0"
         sodipodi:role="line"
         id="tspan398">1.40±1.021.67±1.021.58±1.17</tspan><tspan
         x="-346.56107 -343.95285 -337.43234 -333.35068 -329.7771 -327.49069 -324.89941 -321.32584 -314.86459 -310.78293 -306.54883 -300.18073 -294.28687 -292.13596 -289.84955 -287.25827 -261.35403 -257.11993 -255.23154 -250.99744 -244.62935 -237.88019 -233.64609 -231.69841 -227.46431 -209.07985 -204.84575 -202.95734 -198.72324 -192.35515 -185.60599 -181.3719 -179.42421 -175.19011 -156.80565 -152.57155 -150.68314 -146.44904 -140.08095 -133.3318 -129.0977 -127.15001 -122.91591 -104.53145 -100.29735 -98.408943 -94.174843 -87.866035 -81.066071 -76.83197 -74.884285 -70.650185"
         y="12.7023"
         sodipodi:role="line"
         id="tspan400">Impairedhomelife1.99±0.961.38±1.192.31±0.861.80±1.03</tspan></text>
<text
       transform="matrix(1,0,0,-1,345.3274,495.1112)"
       style="font-variant:normal;font-weight:normal;font-size:8.46819973px;font-family:RbxrnqAdvTTb8864ccf;-inkscape-font-specification:RbxrnqAdvTTb8864ccf;writing-mode:lr-tb;fill:#131413;fill-opacity:1;fill-rule:nonzero;stroke:none"
       id="text406"><tspan
         x="0 4.2340999 6.1225085 10.356608 16.665417 23.465382 27.699482 29.647167 33.72884"
         y="0"
         sodipodi:role="line"
         id="tspan404">2.33±0.83</tspan></text>
<text
       transform="matrix(1,0,0,-1,397.60159,495.1112)"
       style="font-variant:normal;font-weight:normal;font-size:8.46819973px;font-family:KyxfnhAdvTT3713a231;-inkscape-font-specification:KyxfnhAdvTT3713a231;writing-mode:lr-tb;fill:#131413;fill-opacity:1;fill-rule:nonzero;stroke:none"
       id="text414"><tspan
         x="0 4.0816722 6.1987224 10.263458 16.665417 23.465382 27.699482 29.587891 33.821991 52.206451 56.440552 58.388237 62.622337 68.931145 75.73111 79.96521 81.853615 86.087715 104.47218 108.70628 110.65397 114.88807 121.19688 127.99684 132.23094 134.11935 138.35345"
         y="0"
         sodipodi:role="line"
         id="tspan408">1.68±1.041.98±1.031.88±0.95</tspan><tspan
         x="-346.56107 -340.4809 -334.59549 -328.51532 -320.30966 -316.07556 -313.56049 -309.32639 -305.28705 -301.58646 -297.52173 -295.37079 -293.08438 -290.95041 -288.66397 -265.495 -261.26089 -257.22156 -255.24001 -251.00591 -244.63782 -237.88866 -233.65456 -229.61523 -227.49818 -223.43344 -213.22926 -208.99516 -204.95583 -202.97427 -198.74017 -192.37209 -185.62292 -181.38882 -177.3495 -175.23245 -171.16771 -160.96353 -156.72943 -152.69011 -150.70854 -146.47444 -140.10635 -133.35721 -129.12311 -127.17542 -122.94131 -108.69781 -104.46371 -100.42438 -98.442818 -94.208717 -87.89991 -81.099945 -76.865845 -72.826508 -70.709457 -66.704002 -56.440544 -52.206444 -48.167114 -46.185555 -41.951454 -35.642647 -28.842682 -24.608582 -20.56925 -18.587692 -14.353592 -4.1917524 0.042347521 4.0308695 6.1479197 10.212655 16.614614 23.414579 27.648678 31.688009 33.669567 37.903667 48.06551 52.147179 56.381279 58.328968 62.563065 68.871872 75.671837 79.905937 83.945267 85.926826 90.160927 100.27196 104.50606 108.54539 110.66244 114.72717 121.12914 127.9291 132.16319 136.20253 138.18408 142.41818"
         y="12.7023"
         sodipodi:role="line"
         id="tspan410">ADHDprobability88.01±20.7487.50±15.7594.75±8.2686.41±22.4393.67±14.5385.46±22.1388.98±19.7388.58±19.89</tspan><tspan
         x="-346.56107 -341.88663 -339.81192 -335.57782 -331.53848 -329.25208 -326.6608 -324.50989 -320.80927 -317.31192 -313.07782 -308.69128 -304.45718 -302.34012 -299.7912 -297.18298 -293.48239 -290.89111 -287.31754 -283.08344 -279.55222 -275.97861 -270.53357 -266.83298 -264.2417 -258.39865 -256.11221 -249.77802 -245.54391 -241.50458 -239.21817"
         y="33.000576"
         sodipodi:role="line"
         id="tspan412">Significantdifferencesareinbold</tspan></text>
</g></svg>