<?xml version="1.0" encoding="UTF-8" standalone="no"?>
<!-- Created with Inkscape (http://www.inkscape.org/) -->

<svg
   xmlns:dc="http://purl.org/dc/elements/1.1/"
   xmlns:cc="http://creativecommons.org/ns#"
   xmlns:rdf="http://www.w3.org/1999/02/22-rdf-syntax-ns#"
   xmlns:svg="http://www.w3.org/2000/svg"
   xmlns="http://www.w3.org/2000/svg"
   xmlns:sodipodi="http://sodipodi.sourceforge.net/DTD/sodipodi-0.dtd"
   xmlns:inkscape="http://www.inkscape.org/namespaces/inkscape"
   version="1.1"
   id="svg2"
   xml:space="preserve"
   width="793.70135"
   height="1054.488"
   viewBox="0 0 793.70135 1054.488"
   sodipodi:docname="table1.svg"
   inkscape:version="0.92.0 r15299"><metadata
     id="metadata8"><rdf:RDF><cc:Work
         rdf:about=""><dc:format>image/svg+xml</dc:format><dc:type
           rdf:resource="http://purl.org/dc/dcmitype/StillImage" /><dc:title></dc:title></cc:Work></rdf:RDF></metadata><defs
     id="defs6"><clipPath
       clipPathUnits="userSpaceOnUse"
       id="clipPath360"><path
         d="m 51.023998,55.049 h 38.098 V 44.901 h -38.098 z"
         id="path358"
         inkscape:connector-curvature="0" /></clipPath><clipPath
       clipPathUnits="userSpaceOnUse"
       id="clipPath376"><path
         d="m 51.023998,55.049 h 38.098 V 44.901 h -38.098 z"
         id="path374"
         inkscape:connector-curvature="0" /></clipPath><clipPath
       clipPathUnits="userSpaceOnUse"
       id="clipPath394"><path
         d="m 51.023998,55.049 h 38.098 V 44.901 h -38.098 z"
         id="path392"
         inkscape:connector-curvature="0" /></clipPath></defs><sodipodi:namedview
     pagecolor="#ffffff"
     bordercolor="#666666"
     borderopacity="1"
     objecttolerance="10"
     gridtolerance="10"
     guidetolerance="10"
     inkscape:pageopacity="0"
     inkscape:pageshadow="2"
     inkscape:window-width="1920"
     inkscape:window-height="988"
     id="namedview4"
     showgrid="false"
     inkscape:zoom="1.2660339"
     inkscape:cx="639.76414"
     inkscape:cy="311.42961"
     inkscape:window-x="0"
     inkscape:window-y="27"
     inkscape:window-maximized="1"
     inkscape:current-layer="g10" /><g
     id="g10"
     inkscape:groupmode="layer"
     inkscape:label="fulltext"
     transform="matrix(1.3333333,0,0,-1.3333333,0,1054.488)"><path
       d="M 51.023998,326.26801 H 544.252 v -0.567 H 51.023998 Z"
       style="fill:#131413;fill-opacity:1;fill-rule:evenodd;stroke:#131413;stroke-width:0.75;stroke-linecap:round;stroke-linejoin:round;stroke-miterlimit:10;stroke-dasharray:none;stroke-opacity:1"
       id="path158"
       inkscape:connector-curvature="0" /><path
       d="M 544.25201,102.501 H 51.024017 v 0.567 H 544.25201 Z"
       style="fill:#131413;fill-opacity:1;fill-rule:evenodd;stroke:#131413;stroke-width:0.75;stroke-linecap:round;stroke-linejoin:round;stroke-miterlimit:10;stroke-dasharray:none;stroke-opacity:1"
       id="path160"
       inkscape:connector-curvature="0" /><g
       id="g162"
       transform="translate(232.838,275.30099)"><path
         d="M 0,0 H -181.814 V 0.56699997 H 0"
         style="fill:#131413;fill-opacity:1;fill-rule:evenodd;stroke:#131413;stroke-width:0.75;stroke-linecap:round;stroke-linejoin:round;stroke-miterlimit:10;stroke-dasharray:none;stroke-opacity:1"
         id="path164"
         inkscape:connector-curvature="0" /></g><g
       id="g166"
       transform="translate(280.80002,275.30099)"><path
         d="M 0,0 H -47.962002 V 0.56699997 H 0"
         style="fill:#131413;fill-opacity:1;fill-rule:evenodd;stroke:#131413;stroke-width:0.75;stroke-linecap:round;stroke-linejoin:round;stroke-miterlimit:10;stroke-dasharray:none;stroke-opacity:1"
         id="path168"
         inkscape:connector-curvature="0" /></g><g
       id="g170"
       transform="translate(331.19998,275.30099)"><path
         d="M 0,0 H -50.400002 V 0.56699997 H 0"
         style="fill:#131413;fill-opacity:1;fill-rule:evenodd;stroke:#131413;stroke-width:0.75;stroke-linecap:round;stroke-linejoin:round;stroke-miterlimit:10;stroke-dasharray:none;stroke-opacity:1"
         id="path172"
         inkscape:connector-curvature="0" /></g><g
       id="g174"
       transform="translate(376.724,275.30099)"><path
         d="M 0,0 H -45.523998 V 0.56699997 H 0"
         style="fill:#131413;fill-opacity:1;fill-rule:evenodd;stroke:#131413;stroke-width:0.75;stroke-linecap:round;stroke-linejoin:round;stroke-miterlimit:10;stroke-dasharray:none;stroke-opacity:1"
         id="path176"
         inkscape:connector-curvature="0" /></g><g
       id="g178"
       transform="translate(427.181,275.30099)"><path
         d="M 0,0 H -50.457001 V 0.56699997 H 0"
         style="fill:#131413;fill-opacity:1;fill-rule:evenodd;stroke:#131413;stroke-width:0.75;stroke-linecap:round;stroke-linejoin:round;stroke-miterlimit:10;stroke-dasharray:none;stroke-opacity:1"
         id="path180"
         inkscape:connector-curvature="0" /></g><g
       id="g182"
       transform="translate(476.84399,275.30099)"><path
         d="M 0,0 H -49.662998 V 0.56699997 H 0"
         style="fill:#131413;fill-opacity:1;fill-rule:evenodd;stroke:#131413;stroke-width:0.75;stroke-linecap:round;stroke-linejoin:round;stroke-miterlimit:10;stroke-dasharray:none;stroke-opacity:1"
         id="path184"
         inkscape:connector-curvature="0" /></g><g
       id="g186"
       transform="translate(527.24402,275.30099)"><path
         d="M 0,0 H -50.400002 V 0.56699997 H 0"
         style="fill:#131413;fill-opacity:1;fill-rule:evenodd;stroke:#131413;stroke-width:0.75;stroke-linecap:round;stroke-linejoin:round;stroke-miterlimit:10;stroke-dasharray:none;stroke-opacity:1"
         id="path188"
         inkscape:connector-curvature="0" /></g><g
       id="g190"
       transform="translate(544.25201,275.30099)"><path
         d="M 0,0 H -17.007999 V 0.56699997 H 0"
         style="fill:#131413;fill-opacity:1;fill-rule:evenodd;stroke:#131413;stroke-width:0.75;stroke-linecap:round;stroke-linejoin:round;stroke-miterlimit:10;stroke-dasharray:none;stroke-opacity:1"
         id="path192"
         inkscape:connector-curvature="0" /></g><text
       transform="matrix(1,0,0,-1,51.023602,331.76682)"
       style="font-variant:normal;font-weight:normal;font-size:8.46819973px;font-family:RbxrnqAdvTTb8864ccf;-inkscape-font-specification:RbxrnqAdvTTb8864ccf;writing-mode:lr-tb;fill:#131413;fill-opacity:1;fill-rule:nonzero;stroke:none"
       id="text196"><tspan
         x="0 4.8192525 9.0541992 13.55166 15.838921 21.657421"
         y="0"
         sodipodi:role="line"
         id="tspan194">Table1</tspan></text>
<text
       transform="matrix(1,0,0,-1,87.4792,331.76682)"
       style="font-variant:normal;font-weight:normal;font-size:8.46819973px;font-family:KyxfnhAdvTT3713a231;-inkscape-font-specification:KyxfnhAdvTT3713a231;writing-mode:lr-tb;fill:#131413;fill-opacity:1;fill-rule:nonzero;stroke:none"
       id="text216"><tspan
         x="0 4.5237122 6.81182 10.895185 15.13098 21.441483 25.677275 29.7183 32.006409 34.142086 36.277767 40.513561"
         y="0"
         sodipodi:role="line"
         id="tspan198">Studyoutline</tspan><tspan
         x="145.35666 151.3098 193.32054 199.27368 289.23984 295.32001 389.35934 395.3125"
         y="18.875618"
         sodipodi:role="line"
         id="tspan200">V1V2V3V4</tspan><tspan
         x="145.35666 153.18042 193.31885 201.14261 243.71988 251.65373 289.24323 297.06699 339.70352 347.52731 351.76056 389.36697 397.19077 401.42401 439.76718 447.70102 451.73105"
         y="28.851156"
         sodipodi:role="line"
         id="tspan202">W1W2W4W8W10W14W18</tspan><tspan
         x="-36.455585 -30.37542 -26.310682 -23.702478 -20.442221 -18.316702 -16.165779 -10.271913 -6.0378127 -2.5065737 0.10163195 2.3880458 4.5220323 8.0956125 10.382027 14.446762 18.147366 22.152824 24.439238 145.35666 149.89561 152.62238 156.1282 193.32054 197.8595 203.93967 206.08212 243.72327 249.80344 289.24829 293.92276 299.79123 302.07764 339.70184 345.655 389.36783 393.9068 399.98694 402.12939 439.77057 444.44501 446.57053 452.52365"
         y="38.775887"
         sodipodi:role="line"
         id="tspan204">On-siteparticipantsPracSwinAHSwinAHSwinF/Up</tspan><tspan
         x="-36.455585 -30.37542 -28.292242 -25.031984 -22.906467 -19.332886 -15.098786 -10.712259 -6.4781594 -2.9469199 -0.33871445 1.9476994 4.081686 7.6552663 9.94168 14.006416 17.70702 21.771755 23.922678 145.35666 149.89561 152.62238 156.1282 193.32054 199.27368 243.72327 249.80344 289.24829 295.32846 339.70184 345.655 389.36783 395.32098 439.77057 445.85071"
         y="48.751427"
         sodipodi:role="line"
         id="tspan206">DistantparticipantsPracAHAHAHAHAHAH</tspan><tspan
         x="-36.455585 -30.815765 -27.326866 -23.092768 -19.561527 -15.327428 -13.210378 -8.9762783 -4.9369469 -2.3287413 1.3718619 5.7753258 9.3489056 13.583006 19.891815 24.125914 27.657154 34.059113 38.293213 42.332542 45.059303 48.56514 52.79924 56.83857 59.124985 64.942635 71.344597 75.045197 78.601845 81.71814 85.95224 88.518105 92.091682"
         y="69.278343"
         sodipodi:role="line"
         id="tspan208">Behaviouralanddemographicmeasures</tspan><tspan
         x="-28.004322 -23.329876 -21.204359 -18.596153 -14.362053 -10.830813 -8.5444002 -4.4796638 -1.8714584 1.8291448 8.1633587 10.449772 14.514508 16.66543 20.366034 22.898026 27.132126 29.249176 32.94978 41.155464 43.763668 49.843838 54.30658 64.00267 70.082832 75.968231 82.048401 90.254089 92.98085 96.486679 98.773094 100.90708 104.98875 109.22285 145.35666"
         y="81.980644"
         sodipodi:role="line"
         id="tspan210">Structuredinterview(DSMADHDrating)X</tspan><tspan
         x="-28.004322 -22.364502 -18.308233 -14.074134 -10.034803 -5.800703 -3.2348385 2.2102139 6.7491689 10.449772 12.981764 16.682367 20.747103 25.22678 30.866602 34.355499 36.641914 38.775902 43.009998 49.31881 53.993256 57.482155 61.182758 63.325211 193.32054 243.72327 289.24832 339.70184 389.36783 439.77057"
         y="94.682945"
         sodipodi:role="line"
         id="tspan212">ConnorsParentRatingScaleXXXXXX</tspan><tspan
         x="-28.004314 -21.924147 -19.781693 -15.547593 -11.508262 -7.9346814 -3.4550037 2.1848173 4.3103352 6.5967493 10.602208 12.888621 16.445265 20.018847 24.498524 27.225285 33.567966 37.802067 40.367931 43.941509 47.201767 50.29266 52.579075 56.64381 63.045769 66.306023 69.794922 73.495529 75.637985"
         y="107.38524"
         sodipodi:role="line"
         id="tspan214">GlobalClinicalImpressionscale</tspan></text>
<text
       transform="matrix(1,0,0,-0.88882066,166.67709,228.1889)"
       style="font-variant:normal;font-weight:normal;font-size:6.35099983px;font-family:KyxfnhAdvTT3713a231;-inkscape-font-specification:KyxfnhAdvTT3713a231;writing-mode:lr-tb;fill:#131413;fill-opacity:1;fill-rule:nonzero;stroke:none"
       id="text220"><tspan
         x="0"
         y="0"
         id="tspan218">a</tspan></text>
<text
       transform="matrix(1,0,0,-1,280.7999,224.3905)"
       style="font-variant:normal;font-weight:normal;font-size:8.46819973px;font-family:KyxfnhAdvTT3713a231;-inkscape-font-specification:KyxfnhAdvTT3713a231;writing-mode:lr-tb;fill:#131413;fill-opacity:1;fill-rule:nonzero;stroke:none"
       id="text234"><tspan
         x="0 95.924377 196.04051"
         y="0"
         sodipodi:role="line"
         id="tspan222">XXX</tspan><tspan
         x="-221.32486 -215.68504 -211.62877 -208.90202 -206.35309 -202.65248 -198.58775 -194.10808 -189.87398 -186.40201 -182.7014 -180.55894 -178.40804 -171.94679 -168.37321 -164.13911 -157.83031 -151.30978 -147.79549 -143.56139 -141.44434 -137.74373 -134.24637 -129.76669 -125.53259 -121.49326 -117.79266 -114.69329 -112.54237 -110.25596 -106.19122 -101.95712 -97.917793 -94.344208 -92.057793 -89.46653 -47.963879 2.7900001e-06 50.402729 95.927773 146.3813 196.04729"
         y="12.7023"
         sodipodi:role="line"
         id="tspan224">CurrenthealthandmedicalquestionnaireXXXXXX</tspan><tspan
         x="-221.32486 -215.24471 -211.68805 -205.2861 -201.052 -197.01266 -194.40446 -190.70386 -186.63911 -182.40501 -180.28796 -176.71439 -171.26933 -167.03523 -162.99591 -159.2953 -156.19594 -154.04501 -151.75861 -147.69386 -143.45976 -139.42044 -135.71983 -133.63666 -130.9099 -47.972347"
         y="25.404598"
         sodipodi:role="line"
         id="tspan226">DemographicsquestionnaireX</tspan><tspan
         x="-221.32486 -215.24471 -208.91048 -205.20988 -201.14514 -197.44453 -194.91255 -188.51059 -186.22418 -182.15944 -179.87303 -176.37566 -172.14156 -168.61032 -166.32391 -163.79192 -159.55782 -155.51848 -149.11653 -144.88243 -142.76538 -139.1918 -136.46504 -47.972347 95.910835"
         y="38.106899"
         sodipodi:role="line"
         id="tspan228">Omega-3intake/fooddiaryXX</tspan><tspan
         x="-229.77612 -224.13631 -220.08003 -215.84595 -211.80661 -209.65569 -207.36928 -205.23529 -201.00119 -195.20047 -191.62689 -187.39279 -181.08398 -176.84988 -173.76746 -169.53336 -166.00212 -161.76802 -157.72868 -153.49458 -149.45526 -145.22116 -142.19801 -139.91159 -135.84686 -133.56044 -129.49571 -125.2616 -123.20383 -119.50323 -115.94659 -111.46691 -105.06495 -101.36435 -97.866982 -94.606728 -90.550453 -87.942253 -84.241646"
         y="50.809196"
         sodipodi:role="line"
         id="tspan230">Cognitiveandpsychophysiologicalmeasures</tspan><tspan
         x="-221.32486 -215.68504 -209.75731 -202.38997 -198.47766 -192.52452 -187.85007 -181.07552 -177.37491 -173.31017 -169.07608 -165.08755 -162.80113 -160.66714 -158.38074 -154.31599 -148.47295 -144.23885 -140.70761 -138.42119 -136.34648 -132.64587 -130.05461"
         y="63.511497"
         sodipodi:role="line"
         id="tspan232">COMPASScognitivebattery</tspan></text>
<text
       transform="matrix(1,0,0,-0.88882066,154.82829,164.6362)"
       style="font-variant:normal;font-weight:normal;font-size:6.35099983px;font-family:KyxfnhAdvTT3713a231;-inkscape-font-specification:KyxfnhAdvTT3713a231;writing-mode:lr-tb;fill:#131413;fill-opacity:1;fill-rule:nonzero;stroke:none"
       id="text238"><tspan
         x="0"
         y="0"
         id="tspan236">a</tspan></text>
<text
       transform="matrix(1,0,0,-1,232.8378,160.8945)"
       style="font-variant:normal;font-weight:normal;font-size:8.46819973px;font-family:KyxfnhAdvTT3713a231;-inkscape-font-specification:KyxfnhAdvTT3713a231;writing-mode:lr-tb;fill:#131413;fill-opacity:1;fill-rule:nonzero;stroke:none"
       id="text244"><tspan
         x="0 47.962189 143.88318 244.0027"
         y="0"
         sodipodi:role="line"
         id="tspan240">XXXX</tspan><tspan
         x="-173.36945 -168.83049 -165.25691 -161.99666 -157.60165 -153.36757 -148.53223 -143.43436 -139.86078 -137.13402 -134.98309 -131.40952 -127.17542 -125.05837 -121.35777 -115.98893 -111.75483 -106.97876 -100.8986 -98.756142 -96.605217 -92.904617 -88.839882 -86.553467 -84.47876 -80.244659 -73.876572 -71.268364 -66.339874 -60.259705 -55.39896 -49.445816"
         y="12.7023"
         sodipodi:role="line"
         id="tspan242">TestofVariablesofAttention(TOVA)</tspan></text>
<text
       transform="matrix(1,0,0,-0.88882066,186.0661,151.937)"
       style="font-variant:normal;font-weight:normal;font-size:6.35099983px;font-family:KyxfnhAdvTT3713a231;-inkscape-font-specification:KyxfnhAdvTT3713a231;writing-mode:lr-tb;fill:#131413;fill-opacity:1;fill-rule:nonzero;stroke:none"
       id="text248"><tspan
         x="0"
         y="0"
         id="tspan246">a</tspan></text>
<text
       transform="matrix(1,0,0,-1,232.8378,148.1953)"
       style="font-variant:normal;font-weight:normal;font-size:8.46819973px;font-family:KyxfnhAdvTT3713a231;-inkscape-font-specification:KyxfnhAdvTT3713a231;writing-mode:lr-tb;fill:#131413;fill-opacity:1;fill-rule:nonzero;stroke:none"
       id="text256"><tspan
         x="0 47.962189 143.88318 244.0027"
         y="0"
         sodipodi:role="line"
         id="tspan250">XXXX</tspan><tspan
         x="-173.36945 -167.72963 -165.14682 -160.91273 -156.8734 -153.29982 -148.82014 -141.32578 -137.25258 -133.01848 -126.70967 -122.03522 -118.54633 -114.84572 -112.70327 -106.86021 -104.13345 -98.637589 -92.997765 -87.129303 -79.634949 -75.11293 0 47.963882 98.358139 143.88318 194.33672 244.0027 294.40543"
         y="12.7023"
         sodipodi:role="line"
         id="tspan252">BrunelMoodScale(BRUMS)XXXXXXX</tspan><tspan
         x="-173.36945 -168.25465 -163.33463 -155.0612 -152.33444 -148.8286 -145.56834 -143.44283 -141.15642 -137.09167 -130.68971 -127.42946 -125.36322 -121.66262 -119.52016"
         y="25.404598"
         sodipodi:role="line"
         id="tspan254">EEGrestingstate</tspan></text>
<text
       transform="matrix(1,0,0,-0.88882066,116.9008,126.5385)"
       style="font-variant:normal;font-weight:normal;font-size:6.35099983px;font-family:KyxfnhAdvTT3713a231;-inkscape-font-specification:KyxfnhAdvTT3713a231;writing-mode:lr-tb;fill:#131413;fill-opacity:1;fill-rule:nonzero;stroke:none"
       id="text260"><tspan
         x="0"
         y="0"
         id="tspan258">a</tspan></text>
<text
       transform="matrix(1,0,0,-1,280.7999,122.7968)"
       style="font-variant:normal;font-weight:normal;font-size:8.46819973px;font-family:KyxfnhAdvTT3713a231;-inkscape-font-specification:KyxfnhAdvTT3713a231;writing-mode:lr-tb;fill:#131413;fill-opacity:1;fill-rule:nonzero;stroke:none"
       id="text266"><tspan
         x="0 95.924377 196.04051"
         y="0"
         sodipodi:role="line"
         id="tspan262">XXX</tspan><tspan
         x="-221.32486 -216.65042 -214.5249 -210.95132 -207.25072 -203.18597 -198.95189 -196.43683 -193.17657 -191.05106 -187.35045 -185.26727 -179.3734 -177.08699 -173.02225 -168.78815 -164.74883 -160.51472 -157.99966 -154.29906 -150.23433 -146.00023 -139.69142 -137.08322 -131.44339 -126.93831 -122.628 -119.90124 -114.00737 -107.9272 -103.00718"
         y="12.7023"
         sodipodi:role="line"
         id="tspan264">Steady-statetopography(CPT-AXE)</tspan></text>
<text
       transform="matrix(1,0,0,-0.88882066,180.45351,113.8393)"
       style="font-variant:normal;font-weight:normal;font-size:6.35099983px;font-family:KyxfnhAdvTT3713a231;-inkscape-font-specification:KyxfnhAdvTT3713a231;writing-mode:lr-tb;fill:#131413;fill-opacity:1;fill-rule:nonzero;stroke:none"
       id="text270"><tspan
         x="0"
         y="0"
         id="tspan268">a</tspan></text>
<text
       transform="matrix(1,0,0,-1,280.7999,110.0976)"
       style="font-variant:normal;font-weight:normal;font-size:8.46819973px;font-family:KyxfnhAdvTT3713a231;-inkscape-font-specification:KyxfnhAdvTT3713a231;writing-mode:lr-tb;fill:#131413;fill-opacity:1;fill-rule:nonzero;stroke:none"
       id="text274"><tspan
         x="0 95.924377 196.04051"
         y="0"
         sodipodi:role="line"
         id="tspan272">XXX</tspan></text>
<text
       transform="matrix(1,0,0,-0.88882066,51.023602,93.543297)"
       style="font-variant:normal;font-weight:normal;font-size:6.35099983px;font-family:KyxfnhAdvTT3713a231;-inkscape-font-specification:KyxfnhAdvTT3713a231;writing-mode:lr-tb;fill:#131413;fill-opacity:1;fill-rule:nonzero;stroke:none"
       id="text278"><tspan
         x="0"
         y="0"
         id="tspan276">a</tspan></text>
<text
       transform="matrix(1,0,0,-1,55.218899,89.801498)"
       style="font-variant:normal;font-weight:normal;font-size:8.46819973px;font-family:KyxfnhAdvTT3713a231;-inkscape-font-specification:KyxfnhAdvTT3713a231;writing-mode:lr-tb;fill:#131413;fill-opacity:1;fill-rule:nonzero;stroke:none"
       id="text282"><tspan
         x="0 4.9877696 9.2218695 12.753109 16.013365 21.763273 24.049686 26.183674 29.757254 36.277767 41.663544 47.74371 51.241077 53.967838 59.802425 64.03653 68.075859 72.555534 76.129112 80.363213 86.7313 90.812973 93.099388 96.656029 98.806953 102.50756 108.84177 113.07587 119.44395 121.59488 125.82898 127.94603 131.64664 134.06854 136.7953 139.91159 142.06252 145.76312 147.90558 153.79944 158.03354 161.50551 164.23227 166.32391 168.61032 172.16696 174.31789 178.55199 182.08324 186.31734 188.43439"
         y="0"
         sodipodi:role="line"
         id="tspan280">Theseitemswerenotcompletedbyinter-stateparticipants</tspan></text>
<text
       transform="matrix(1,0,0,-0.88882066,51.023602,75.571602)"
       style="font-variant:normal;font-weight:normal;font-size:6.35099983px;font-family:KmwktxAdvTT50a2f13e;-inkscape-font-specification:KmwktxAdvTT50a2f13e;writing-mode:lr-tb;fill:#131413;fill-opacity:1;fill-rule:nonzero;stroke:none"
       id="text286"><tspan
         x="0 3.836004"
         y="0"
         sodipodi:role="line"
         id="tspan284">AH</tspan></text>
<text
       transform="matrix(1,0,0,-0.88882066,61.509102,75.571602)"
       style="font-variant:normal;font-weight:normal;font-size:6.35099983px;font-family:KyxfnhAdvTT3713a231;-inkscape-font-specification:KyxfnhAdvTT3713a231;writing-mode:lr-tb;fill:#131413;fill-opacity:1;fill-rule:nonzero;stroke:none"
       id="text290"><tspan
         x="0 2.6623392 6.5758252 9.6382771 12.815047 17.522409 20.299067"
         y="0"
         sodipodi:role="line"
         id="tspan288">athome,</tspan></text>
<text
       transform="matrix(1,0,0,-0.88882066,85.490478,75.571602)"
       style="font-variant:normal;font-weight:normal;font-size:6.35099983px;font-family:KmwktxAdvTT50a2f13e;-inkscape-font-specification:KmwktxAdvTT50a2f13e;writing-mode:lr-tb;fill:#131413;fill-opacity:1;fill-rule:nonzero;stroke:none"
       id="text294"><tspan
         x="0 3.061182 7.2909479 8.8405914"
         y="0"
         sodipodi:role="line"
         id="tspan292">Swin</tspan></text>
<text
       transform="matrix(1,0,0,-0.88882066,99.723068,75.571602)"
       style="font-variant:normal;font-weight:normal;font-size:6.35099983px;font-family:KyxfnhAdvTT3713a231;-inkscape-font-specification:KyxfnhAdvTT3713a231;writing-mode:lr-tb;fill:#131413;fill-opacity:1;fill-rule:nonzero;stroke:none"
       id="text298"><tspan
         x="0 2.6610689 6.5732846 10.079037 14.454876 16.042625 19.218126 22.222149 25.283331 27.328352 30.326025 32.987095"
         y="0"
         sodipodi:role="line"
         id="tspan296">atSwinburne,</tspan></text>
<text
       transform="matrix(1,0,0,-0.88882066,136.51441,75.571602)"
       style="font-variant:normal;font-weight:normal;font-size:6.35099983px;font-family:KmwktxAdvTT50a2f13e;-inkscape-font-specification:KmwktxAdvTT50a2f13e;writing-mode:lr-tb;fill:#131413;fill-opacity:1;fill-rule:nonzero;stroke:none"
       id="text302"><tspan
         x="0 3.836004 6.0652046 9.1263866"
         y="0"
         sodipodi:role="line"
         id="tspan300">Prac</tspan></text>
<text
       transform="matrix(1,0,0,-0.88882066,150.63268,75.571602)"
       style="font-variant:normal;font-weight:normal;font-size:6.35099983px;font-family:KyxfnhAdvTT3713a231;-inkscape-font-specification:KyxfnhAdvTT3713a231;writing-mode:lr-tb;fill:#131413;fill-opacity:1;fill-rule:nonzero;stroke:none"
       id="text306"><tspan
         x="0 3.061182 5.106204 7.710114 10.371182 12.085953 13.603842 16.379229 21.256796 24.317978 27.093365 29.703627"
         y="0"
         sodipodi:role="line"
         id="tspan304">practiceday,</tspan></text>
<text
       transform="matrix(1,0,0,-0.88882066,184.0834,75.571602)"
       style="font-variant:normal;font-weight:normal;font-size:6.35099983px;font-family:KmwktxAdvTT50a2f13e;-inkscape-font-specification:KmwktxAdvTT50a2f13e;writing-mode:lr-tb;fill:#131413;fill-opacity:1;fill-rule:nonzero;stroke:none"
       id="text310"><tspan
         x="0 4.2297659 7.8815908 10.828455 12.873477 16.557056 20.393061"
         y="0"
         sodipodi:role="line"
         id="tspan308">CPT-AXE</tspan></text>
<text
       transform="matrix(1,0,0,-0.88882066,210.38924,75.571602)"
       style="font-variant:normal;font-weight:normal;font-size:6.35099983px;font-family:KyxfnhAdvTT3713a231;-inkscape-font-specification:KyxfnhAdvTT3713a231;writing-mode:lr-tb;fill:#131413;fill-opacity:1;fill-rule:nonzero;stroke:none"
       id="text314"><tspan
         x="0 2.6674199 5.7286019 8.9041014 10.434692 12.149463 15.140783 18.201965 21.377466 24.381489 29.03042 32.091602 34.75267 36.797691 38.664886 41.72607 43.771091 48.470829 51.246216 54.25024 56.911308 61.896843 63.484592 66.259979 68.52729 71.58847 73.633492 78.053787 82.474083"
         y="0"
         sodipodi:role="line"
         id="tspan312">continuousperformancetask-AXE</tspan></text>
</g></svg>