<?xml version="1.0" encoding="UTF-8" standalone="no"?>
<!-- Created with Inkscape (http://www.inkscape.org/) -->

<svg
   xmlns:dc="http://purl.org/dc/elements/1.1/"
   xmlns:cc="http://creativecommons.org/ns#"
   xmlns:rdf="http://www.w3.org/1999/02/22-rdf-syntax-ns#"
   xmlns:svg="http://www.w3.org/2000/svg"
   xmlns="http://www.w3.org/2000/svg"
   xmlns:sodipodi="http://sodipodi.sourceforge.net/DTD/sodipodi-0.dtd"
   xmlns:inkscape="http://www.inkscape.org/namespaces/inkscape"
   version="1.1"
   id="svg2"
   xml:space="preserve"
   width="793.70135"
   height="1054.488"
   viewBox="0 0 793.70135 1054.488"
   sodipodi:docname="table5.svg"
   inkscape:version="0.92.0 r15299"><metadata
     id="metadata8"><rdf:RDF><cc:Work
         rdf:about=""><dc:format>image/svg+xml</dc:format><dc:type
           rdf:resource="http://purl.org/dc/dcmitype/StillImage" /><dc:title></dc:title></cc:Work></rdf:RDF></metadata><defs
     id="defs6"><clipPath
       clipPathUnits="userSpaceOnUse"
       id="clipPath460"><path
         d="m 504.90701,55.049 h 38.098 V 44.901 h -38.098 z"
         id="path458"
         inkscape:connector-curvature="0" /></clipPath><clipPath
       clipPathUnits="userSpaceOnUse"
       id="clipPath476"><path
         d="m 504.90701,55.049 h 38.098 V 44.901 h -38.098 z"
         id="path474"
         inkscape:connector-curvature="0" /></clipPath><clipPath
       clipPathUnits="userSpaceOnUse"
       id="clipPath494"><path
         d="m 504.90701,55.049 h 38.098 V 44.901 h -38.098 z"
         id="path492"
         inkscape:connector-curvature="0" /></clipPath></defs><sodipodi:namedview
     pagecolor="#ffffff"
     bordercolor="#666666"
     borderopacity="1"
     objecttolerance="10"
     gridtolerance="10"
     guidetolerance="10"
     inkscape:pageopacity="0"
     inkscape:pageshadow="2"
     inkscape:window-width="1920"
     inkscape:window-height="988"
     id="namedview4"
     showgrid="false"
     inkscape:zoom="0.89522116"
     inkscape:cx="356.53112"
     inkscape:cy="232.68186"
     inkscape:window-x="0"
     inkscape:window-y="27"
     inkscape:window-maximized="1"
     inkscape:current-layer="g10" /><g
     id="g10"
     inkscape:groupmode="layer"
     inkscape:label="fulltext"
     transform="matrix(1.3333333,0,0,-1.3333333,0,1054.488)"><path
       d="M 51.023998,375.07999 H 544.252 v -0.567 H 51.023998 Z"
       style="fill:#131413;fill-opacity:1;fill-rule:evenodd;stroke:#131413;stroke-width:0.75;stroke-linecap:round;stroke-linejoin:round;stroke-miterlimit:10;stroke-dasharray:none;stroke-opacity:1"
       id="path38"
       inkscape:connector-curvature="0" /><path
       d="M 544.25201,115.37 H 51.024017 v 0.567 H 544.25201 Z"
       style="fill:#131413;fill-opacity:1;fill-rule:evenodd;stroke:#131413;stroke-width:0.75;stroke-linecap:round;stroke-linejoin:round;stroke-miterlimit:10;stroke-dasharray:none;stroke-opacity:1"
       id="path40"
       inkscape:connector-curvature="0" /><g
       id="g42"
       transform="translate(544.25201,354.16101)"><path
         d="M 0,0 H -493.228 V 0.56699997 H 0"
         style="fill:#131413;fill-opacity:1;fill-rule:evenodd;stroke:#131413;stroke-width:0.75;stroke-linecap:round;stroke-linejoin:round;stroke-miterlimit:10;stroke-dasharray:none;stroke-opacity:1"
         id="path44"
         inkscape:connector-curvature="0" /></g><g
       id="g46"
       transform="translate(176.202,333.978)"><path
         d="M 0,0 H -125.178 V 0.56699997 H 0"
         style="fill:#131413;fill-opacity:1;fill-rule:evenodd;stroke:#131413;stroke-width:0.75;stroke-linecap:round;stroke-linejoin:round;stroke-miterlimit:10;stroke-dasharray:none;stroke-opacity:1"
         id="path48"
         inkscape:connector-curvature="0" /></g><g
       id="g50"
       transform="translate(310.39401,333.978)"><path
         d="M 0,0 H -113.386 V 0.56699997 H 0"
         style="fill:#131413;fill-opacity:1;fill-rule:evenodd;stroke:#131413;stroke-width:0.75;stroke-linecap:round;stroke-linejoin:round;stroke-miterlimit:10;stroke-dasharray:none;stroke-opacity:1"
         id="path52"
         inkscape:connector-curvature="0" /></g><g
       id="g54"
       transform="translate(444.52902,333.978)"><path
         d="M 0,0 H -113.329 V 0.56699997 H 0"
         style="fill:#131413;fill-opacity:1;fill-rule:evenodd;stroke:#131413;stroke-width:0.75;stroke-linecap:round;stroke-linejoin:round;stroke-miterlimit:10;stroke-dasharray:none;stroke-opacity:1"
         id="path56"
         inkscape:connector-curvature="0" /></g><g
       id="g58"
       transform="translate(544.25201,333.978)"><path
         d="M 0,0 H -78.917 V 0.56699997 H 0"
         style="fill:#131413;fill-opacity:1;fill-rule:evenodd;stroke:#131413;stroke-width:0.75;stroke-linecap:round;stroke-linejoin:round;stroke-miterlimit:10;stroke-dasharray:none;stroke-opacity:1"
         id="path60"
         inkscape:connector-curvature="0" /></g><g
       id="g62"
       transform="translate(167.868,313.625)"><path
         d="M 0,0 H -116.844 V 0.56699997 H 0"
         style="fill:#131413;fill-opacity:1;fill-rule:evenodd;stroke:#131413;stroke-width:0.75;stroke-linecap:round;stroke-linejoin:round;stroke-miterlimit:10;stroke-dasharray:none;stroke-opacity:1"
         id="path64"
         inkscape:connector-curvature="0" /></g><g
       id="g66"
       transform="translate(197.008,313.625)"><path
         d="M 0,0 H -29.139999 V 0.56699997 H 0"
         style="fill:#131413;fill-opacity:1;fill-rule:evenodd;stroke:#131413;stroke-width:0.75;stroke-linecap:round;stroke-linejoin:round;stroke-miterlimit:10;stroke-dasharray:none;stroke-opacity:1"
         id="path68"
         inkscape:connector-curvature="0" /></g><g
       id="g70"
       transform="translate(264.07599,313.625)"><path
         d="M 0,0 H -67.068001 V 0.56699997 H 0"
         style="fill:#131413;fill-opacity:1;fill-rule:evenodd;stroke:#131413;stroke-width:0.75;stroke-linecap:round;stroke-linejoin:round;stroke-miterlimit:10;stroke-dasharray:none;stroke-opacity:1"
         id="path72"
         inkscape:connector-curvature="0" /></g><g
       id="g74"
       transform="translate(331.19998,313.625)"><path
         d="M 0,0 H -67.124001 V 0.56699997 H 0"
         style="fill:#131413;fill-opacity:1;fill-rule:evenodd;stroke:#131413;stroke-width:0.75;stroke-linecap:round;stroke-linejoin:round;stroke-miterlimit:10;stroke-dasharray:none;stroke-opacity:1"
         id="path76"
         inkscape:connector-curvature="0" /></g><g
       id="g78"
       transform="translate(398.26801,313.625)"><path
         d="M 0,0 H -67.068001 V 0.56699997 H 0"
         style="fill:#131413;fill-opacity:1;fill-rule:evenodd;stroke:#131413;stroke-width:0.75;stroke-linecap:round;stroke-linejoin:round;stroke-miterlimit:10;stroke-dasharray:none;stroke-opacity:1"
         id="path80"
         inkscape:connector-curvature="0" /></g><g
       id="g82"
       transform="translate(465.33499,313.625)"><path
         d="M 0,0 H -67.068001 V 0.56699997 H 0"
         style="fill:#131413;fill-opacity:1;fill-rule:evenodd;stroke:#131413;stroke-width:0.75;stroke-linecap:round;stroke-linejoin:round;stroke-miterlimit:10;stroke-dasharray:none;stroke-opacity:1"
         id="path84"
         inkscape:connector-curvature="0" /></g><g
       id="g86"
       transform="translate(513.01404,313.625)"><path
         d="M 0,0 H -47.679001 V 0.56699997 H 0"
         style="fill:#131413;fill-opacity:1;fill-rule:evenodd;stroke:#131413;stroke-width:0.75;stroke-linecap:round;stroke-linejoin:round;stroke-miterlimit:10;stroke-dasharray:none;stroke-opacity:1"
         id="path88"
         inkscape:connector-curvature="0" /></g><g
       id="g90"
       transform="translate(544.25201,313.625)"><path
         d="M 0,0 H -31.238001 V 0.56699997 H 0"
         style="fill:#131413;fill-opacity:1;fill-rule:evenodd;stroke:#131413;stroke-width:0.75;stroke-linecap:round;stroke-linejoin:round;stroke-miterlimit:10;stroke-dasharray:none;stroke-opacity:1"
         id="path92"
         inkscape:connector-curvature="0" /></g><text
       transform="matrix(1,0,0,-1,51.023602,380.52271)"
       style="font-variant:normal;font-weight:normal;font-size:8.46819973px;font-family:RbxrnqAdvTTb8864ccf;-inkscape-font-specification:RbxrnqAdvTTb8864ccf;writing-mode:lr-tb;fill:#131413;fill-opacity:1;fill-rule:nonzero;stroke:none"
       id="text96"><tspan
         x="0 4.8192525 9.0541992 13.55166 15.838921 21.657421"
         y="0"
         sodipodi:role="line"
         id="tspan94">Table5</tspan></text>
<text
       transform="matrix(1,0,0,-1,87.4792,380.52271)"
       style="font-variant:normal;font-weight:normal;font-size:8.46819973px;font-family:KyxfnhAdvTT3713a231;-inkscape-font-specification:KyxfnhAdvTT3713a231;writing-mode:lr-tb;fill:#131413;fill-opacity:1;fill-rule:nonzero;stroke:none"
       id="text104"><tspan
         x="0 5.9565315 10.194018 14.236737 16.966885 20.476107 24.713594 31.042727 35.280212 37.375248 41.612732 45.121956 49.359444 51.894821 54.184624 58.227341 62.464828 68.268936 73.91214 78.395203 84.038414 90.81636 94.080002 97.589226 101.82671 104.36209 108.06609"
         y="0"
         sodipodi:role="line"
         id="tspan98">Non-combined-typeCPRSscores</tspan><tspan
         x="-36.455597 -30.375431 -26.310696 -22.076595 -19.561541 -15.860936 -11.796201 -5.3942418 -1.1601418 0.95690811 5.1910081 8.6629696 15.064929 17.351343 21.416079 25.650179"
         y="18.824808"
         sodipodi:role="line"
         id="tspan100">Non-combinedtype</tspan><tspan
         x="109.5277 114.20215 119.6726 124.21156 130.29172 132.83218 137.06628 141.10562 147.56685"
         y="39.004528"
         sodipodi:role="line"
         id="tspan102">PCSO-524(</tspan></text>
<text
       transform="matrix(1,0,0,-1,237.65426,341.51818)"
       style="font-variant:normal;font-weight:normal;font-size:8.46819973px;font-family:KmwktxAdvTT50a2f13e;-inkscape-font-specification:KmwktxAdvTT50a2f13e;writing-mode:lr-tb;fill:#131413;fill-opacity:1;fill-rule:nonzero;stroke:none"
       id="text108"><tspan
         x="0"
         y="0"
         id="tspan106">n</tspan></text>
<text
       transform="matrix(1,0,0,-1,244.05622,341.51818)"
       style="font-variant:normal;font-weight:normal;font-size:8.46819973px;font-family:KyxfnhAdvTT3713a231;-inkscape-font-specification:KyxfnhAdvTT3713a231;writing-mode:lr-tb;fill:#131413;fill-opacity:1;fill-rule:nonzero;stroke:none"
       id="text112"><tspan
         x="0 6.9523921 11.186492 15.225823 87.112373 91.651329 93.937737 97.494385 101.06796 104.76857 108.83331 115.26067"
         y="0"
         sodipodi:role="line"
         id="tspan110">=23)Placebo(</tspan></text>
<text
       transform="matrix(1,0,0,-1,361.92509,341.51818)"
       style="font-variant:normal;font-weight:normal;font-size:8.46819973px;font-family:KmwktxAdvTT50a2f13e;-inkscape-font-specification:KmwktxAdvTT50a2f13e;writing-mode:lr-tb;fill:#131413;fill-opacity:1;fill-rule:nonzero;stroke:none"
       id="text116"><tspan
         x="0"
         y="0"
         id="tspan114">n</tspan></text>
<text
       transform="matrix(1,0,0,-1,368.38632,341.51818)"
       style="font-variant:normal;font-weight:normal;font-size:8.46819973px;font-family:KyxfnhAdvTT3713a231;-inkscape-font-specification:KyxfnhAdvTT3713a231;writing-mode:lr-tb;fill:#131413;fill-opacity:1;fill-rule:nonzero;stroke:none"
       id="text122"><tspan
         x="0 6.9168253 11.149232 15.195337"
         y="0"
         sodipodi:role="line"
         id="tspan118">=20)</tspan><tspan
         x="-317.36273 -312.26065 -308.56427 -306.02805 -303.74588 -300.25275 -296.02286 -293.91006 -290.21368"
         y="20.238998"
         sodipodi:role="line"
         id="tspan120">Variables</tspan></text>
<text
       transform="matrix(1,0,0,-1,167.86782,321.27918)"
       style="font-variant:normal;font-weight:normal;font-size:8.46819973px;font-family:KmwktxAdvTT50a2f13e;-inkscape-font-specification:KmwktxAdvTT50a2f13e;writing-mode:lr-tb;fill:#131413;fill-opacity:1;fill-rule:nonzero;stroke:none"
       id="text126"><tspan
         x="0"
         y="0"
         id="tspan124">n</tspan></text>
<text
       transform="matrix(1,0,0,-1,197.00689,321.27918)"
       style="font-variant:normal;font-weight:normal;font-size:8.46819973px;font-family:KyxfnhAdvTT3713a231;-inkscape-font-specification:KyxfnhAdvTT3713a231;writing-mode:lr-tb;fill:#131413;fill-opacity:1;fill-rule:nonzero;stroke:none"
       id="text130"><tspan
         x="0 5.6398211 9.1879969 12.304295 16.004898 18.147352 20.298275 24.532375 67.068138 74.325386 77.898972 81.599571 87.933784 92.167885 134.19556 139.69142 143.39203 146.49139 150.06497 152.35138 154.48537 158.71947 201.25523 208.4532 212.15381 215.65117 222.11241 226.34651"
         y="0"
         sodipodi:role="line"
         id="tspan128">BaselineWeek14BaselineWeek14</tspan></text>
<text
       transform="matrix(1,0,0,-1,465.33027,321.27918)"
       style="font-variant:normal;font-weight:normal;font-size:8.46819973px;font-family:KmwktxAdvTT50a2f13e;-inkscape-font-specification:KmwktxAdvTT50a2f13e;writing-mode:lr-tb;fill:#131413;fill-opacity:1;fill-rule:nonzero;stroke:none"
       id="text134"><tspan
         x="0"
         y="0"
         id="tspan132">p</tspan></text>
<text
       transform="matrix(1,0,0,-1,471.73223,321.27918)"
       style="font-variant:normal;font-weight:normal;font-size:8.46819973px;font-family:KyxfnhAdvTT3713a231;-inkscape-font-specification:KyxfnhAdvTT3713a231;writing-mode:lr-tb;fill:#131413;fill-opacity:1;fill-rule:nonzero;stroke:none"
       id="text138"><tspan
         x="0 4.2340999 7.7653394 10.051753 14.057212"
         y="0"
         sodipodi:role="line"
         id="tspan136">value</tspan></text>
<text
       transform="matrix(1,0,0,-0.88882066,489.42981,325.07709)"
       style="font-variant:normal;font-weight:normal;font-size:6.35099983px;font-family:KyxfnhAdvTT3713a231;-inkscape-font-specification:KyxfnhAdvTT3713a231;writing-mode:lr-tb;fill:#131413;fill-opacity:1;fill-rule:nonzero;stroke:none"
       id="text142"><tspan
         x="0"
         y="0"
         id="tspan140">a</tspan></text>
<text
       transform="matrix(1,0,0,-1,513.01398,321.27869)"
       style="font-variant:normal;font-weight:normal;font-size:8.46819973px;font-family:KyxfnhAdvTT3713a231;-inkscape-font-specification:KyxfnhAdvTT3713a231;writing-mode:lr-tb;fill:#131413;fill-opacity:1;fill-rule:nonzero;stroke:none"
       id="text146"><tspan
         x="0 5.6398211 9.6960888 13.930188 17.402151 21.63625"
         y="0"
         sodipodi:role="line"
         id="tspan144">Cohens</tspan></text>
<text
       transform="matrix(1,0,0,-1,540.00213,321.27869)"
       style="font-variant:normal;font-weight:normal;font-size:8.46819973px;font-family:KmwktxAdvTT50a2f13e;-inkscape-font-specification:KmwktxAdvTT50a2f13e;writing-mode:lr-tb;fill:#131413;fill-opacity:1;fill-rule:nonzero;stroke:none"
       id="text150"><tspan
         x="0"
         y="0"
         id="tspan148">d</tspan></text>
<text
       transform="matrix(1,0,0,-1,51.022873,300.81105)"
       style="font-variant:normal;font-weight:normal;font-size:8.46819973px;font-family:KyxfnhAdvTT3713a231;-inkscape-font-specification:KyxfnhAdvTT3713a231;writing-mode:lr-tb;fill:#131413;fill-opacity:1;fill-rule:nonzero;stroke:none"
       id="text162"><tspan
         x="0 2.6082056 6.8423052 10.373545 12.659959 14.734668 18.43527 22.500006 24.786421 26.86113 31.09523 116.83575 121.06985 145.97482 150.20892 154.24826 156.36531 160.37077 166.832 173.58116 177.81526 181.85458 183.97163 188.03638 213.0345 217.2686 221.30794 223.42499 227.48972 233.89168 240.69164 244.92574 248.96507 250.94662 255.18073 280.14499 284.22665 288.46075 290.40845 294.64255 300.95135 307.75131 311.60434 315.83844 317.78613 322.02023 347.21313 351.44724 355.48654 357.46811 361.70221 368.07031 374.81946 379.05356 383.0929 385.20993 389.27466 414.2728 418.5069 420.45459 424.30762 461.94876 466.18286 468.07126 472.30536"
         y="0"
         sodipodi:role="line"
         id="tspan152">Inattention4374.57±12.1761.61±12.4574.10±11.4967.55±12.140.110.48</tspan><tspan
         x="0 6.0801673 10.144903 14.379004 17.850965 20.577724 24.083561 27.784163 29.926619 32.077541 36.311642 38.428692 40.715103 116.83575 121.06985 145.97482 150.20892 154.24826 156.36531 160.37077 166.832 173.58116 177.81526 181.85458 183.97163 188.03638 213.0345 217.2686 221.30794 223.42499 227.48972 233.89168 240.69164 244.92574 248.96507 250.94662 255.18073 280.14499 284.22665 288.46075 290.40845 294.64255 300.95135 307.75131 311.98541 316.02475 318.00632 322.24042 347.20465 351.43875 355.47809 357.45966 361.69376 368.06183 374.81097 379.04507 383.08441 385.20148 389.2662 414.26434 418.49844 420.44611 424.68021 461.94876 466.18286 468.07126 472.30536"
         y="12.7023"
         sodipodi:role="line"
         id="tspan154">Hyperactivity4373.04±14.5262.87±14.2475.00±13.5871.70±13.080.040.64</tspan><tspan
         x="0 5.1147928 8.6206274 12.321231 14.853222 19.087322 21.204372 25.438473 31.74728 35.98138 38.496437 42.730537 46.769867 49.056282 52.612926 59.014885 116.84422 121.07832 145.98329 150.21739 154.25673 156.37378 160.37924 166.84047 173.58963 177.82373 181.86305 183.9801 188.04485 213.04297 217.27707 221.31641 223.43346 227.49818 233.90015 240.7001 244.9342 248.97354 250.95509 255.18919 280.15344 284.23514 288.46924 290.4169 294.651 300.95981 307.7598 311.9939 316.0332 318.01477 322.24887 347.21313 351.44724 355.48654 357.46811 361.70221 368.07031 374.81946 379.05356 383.0929 385.20993 389.27466 414.2728 418.5069 420.45459 424.68869 461.95724 466.19135 468.07974 472.31384"
         y="25.404598"
         sodipodi:role="line"
         id="tspan156">Learningproblems4363.48±17.6957.61±12.8868.90±12.6266.15±14.790.050.62</tspan><tspan
         x="0 5.1147928 9.1287193 12.829323 16.385967 20.620066 22.677839 24.964252 29.028988 34.922855 37.531059 41.76516 45.804493 49.505096 51.647549 53.798473 58.032574 116.84422 121.07832 145.98329 150.21739 154.25673 156.37378 160.37924 166.84047 173.58963 177.82373 181.86305 183.9801 188.04485 213.04297 217.27707 221.31641 223.43346 227.49818 233.90015 240.7001 244.55315 248.78725 250.67564 254.90974 280.15344 284.23514 288.46924 290.4169 294.651 300.95981 307.7598 311.9939 316.0332 318.01477 322.24887 347.21313 351.44724 355.48654 357.46811 361.70221 368.07031 374.81946 378.67249 382.90659 384.85428 389.08838 414.28128 418.51538 420.46304 424.69714 461.9657 466.1998 468.0882 472.3223"
         y="38.106899"
         sodipodi:role="line"
         id="tspan158">Executivefunction4365.30±13.2957.09±11.8165.45±12.6463.20±11.290.090.53</tspan><tspan
         x="0 6.0801673 10.144903 14.379004 16.894058 20.594662 23.643213 26.903471 29.028988 33.263088 116.84422 121.07832 145.98329 150.21739 154.25673 156.37378 160.37924 166.84047 173.58963 177.82373 181.86305 183.9801 188.04485 213.04297 217.27707 221.31641 223.43346 227.49818 233.90015 240.7001 244.9342 248.97354 250.95509 255.18919 280.15344 284.23514 288.46924 290.4169 294.651 300.95981 307.7598 311.9939 316.0332 318.01477 322.24887 347.21313 351.44724 355.48654 357.46811 361.70221 368.07031 374.81946 379.05356 383.0929 385.20993 389.27466 414.2728 418.5069 420.45459 424.68869"
         y="50.809196"
         sodipodi:role="line"
         id="tspan160">Aggression4372.96±16.5665.78±17.7368.75±15.0569.20±15.500.49</tspan></text>
<text
       transform="matrix(1,0,0,-0.88882066,479.73541,253.7574)"
       style="font-variant:normal;font-weight:normal;font-size:6.35099983px;font-family:KyxfnhAdvTT3713a231;-inkscape-font-specification:KyxfnhAdvTT3713a231;writing-mode:lr-tb;fill:#131413;fill-opacity:1;fill-rule:nonzero;stroke:none"
       id="text166"><tspan
         x="0"
         y="0"
         id="tspan164">c</tspan></text>
<text
       transform="matrix(1,0,0,-1,513.01398,250.0157)"
       style="font-variant:normal;font-weight:normal;font-size:8.46819973px;font-family:KyxfnhAdvTT3713a231;-inkscape-font-specification:KyxfnhAdvTT3713a231;writing-mode:lr-tb;fill:#131413;fill-opacity:1;fill-rule:nonzero;stroke:none"
       id="text172"><tspan
         x="0 4.2340999 6.1225085 10.356608"
         y="0"
         sodipodi:role="line"
         id="tspan168">0.20</tspan><tspan
         x="-461.99109 -457.31665 -453.82776 -450.12717 -445.26642 -442.6582 -438.95761 -436.81516 -433.24158 -430.95514 -428.82117 -424.58707 -420.59854 -345.13843 -340.90433 -315.99933 -311.76523 -307.72592 -305.60886 -301.60339 -295.14215 -288.39301 -284.15891 -280.11957 -278.00253 -273.93781 -248.93967 -244.70557 -240.66623 -238.54918 -234.48445 -228.08249 -221.28253 -217.04843 -213.00909 -211.02754 -206.79344 -181.82918 -177.74751 -173.51341 -171.56572 -167.33162 -161.02281 -154.22285 -149.98875 -145.94942 -143.96786 -139.73376 -114.76951 -110.53541 -106.49608 -104.51452 -100.28042 -93.912331 -87.163177 -82.929077 -78.889748 -76.772697 -72.707962 -47.709835 -43.475735 -41.528049 -37.293949"
         y="12.7023"
         sodipodi:role="line"
         id="tspan170">Peerrelations4364.87±15.9461.65±18.2464.45±18.7360.80±14.230.85</tspan></text>
<text
       transform="matrix(1,0,0,-0.88882066,479.73541,241.0582)"
       style="font-variant:normal;font-weight:normal;font-size:6.35099983px;font-family:KyxfnhAdvTT3713a231;-inkscape-font-specification:KyxfnhAdvTT3713a231;writing-mode:lr-tb;fill:#131413;fill-opacity:1;fill-rule:nonzero;stroke:none"
       id="text176"><tspan
         x="0"
         y="0"
         id="tspan174">c</tspan></text>
<text
       transform="matrix(1,0,0,-1,513.01398,237.3165)"
       style="font-variant:normal;font-weight:normal;font-size:8.46819973px;font-family:KyxfnhAdvTT3713a231;-inkscape-font-specification:KyxfnhAdvTT3713a231;writing-mode:lr-tb;fill:#131413;fill-opacity:1;fill-rule:nonzero;stroke:none"
       id="text190"><tspan
         x="0 4.2340999 6.1225085 10.356608"
         y="0"
         sodipodi:role="line"
         id="tspan178">0.05</tspan><tspan
         x="-461.99109 -455.91092 -451.44818 -441.75211 -439.4657 -435.40094 -431.82736 -429.54095 -427.40698 -423.8334 -419.5993 -417.48224 -415.19583 -411.1311 -345.13843 -340.90433 -315.99933 -311.76523 -307.72592 -305.60886 -301.60339 -295.14215 -288.39301 -284.15891 -280.11957 -278.00253 -273.93781 -248.93967 -244.70557 -240.66623 -238.54918 -234.48445 -228.08249 -221.28253 -217.42949 -213.19539 -211.30699 -207.07289 -181.82918 -177.74751 -173.51341 -171.56572 -167.33162 -161.02281 -154.22285 -149.98875 -145.94942 -143.96786 -139.73376 -114.76951 -110.53541 -106.49608 -104.51452 -100.28042 -96.241089 -91.65979 -87.620461 -83.38636 -81.438675 -77.204575 -47.709835 -43.475735 -41.528049 -37.293949 -0.025402481 4.2086973 6.097106 10.331205"
         y="12.7023"
         sodipodi:role="line"
         id="tspan180">DSMinattention4371.83±12.5858.00±11.8470.80±12.5666.75±13.100.020.70</tspan><tspan
         x="-461.99109 -455.91092 -451.44818 -441.75211 -437.51801 -433.47867 -429.24457 -425.71335 -423.10513 -419.40451 -415.90717 -413.62076 -411.48676 -407.25266 -405.19489 -402.90848 -345.15536 -340.92126 -316.01627 -311.78217 -307.74286 -305.62579 -301.62033 -295.15909 -288.40994 -284.17584 -280.13651 -278.01947 -273.95471 -248.9566 -244.7225 -240.68317 -238.56612 -234.50139 -228.09943 -221.29945 -217.06537 -213.02603 -211.04446 -206.81038 -181.84612 -177.76445 -173.53035 -171.58266 -167.34856 -161.03975 -154.23979 -150.00569 -145.96635 -143.9848 -139.7507 -114.78645 -110.55235 -106.51302 -104.53146 -100.29736 -93.929268 -87.180115 -83.32708 -79.092987 -77.145294 -72.911194 -47.718304 -43.484203 -41.536518 -37.302418 -0.033870678 4.2002292 6.0886378 10.322738"
         y="25.404598"
         sodipodi:role="line"
         id="tspan182">DSMhyperactivity4371.04±13.8662.39±12.5472.30±12.6370.00±11.810.040.62</tspan><tspan
         x="-461.99109 -456.35129 -452.29501 -448.06091 -444.02158 -439.78748 -436.31552 -431.83585 -427.60175 -425.48468 -422.22443 -418.16818 -415.55997 -411.32587 -407.79462 -345.14688 -340.91278 -316.00781 -311.77371 -307.73438 -305.61734 -301.61188 -295.15063 -288.40149 -284.16739 -280.12805 -278.01099 -273.94626 -248.94814 -244.71404 -240.6747 -238.55765 -234.49292 -228.09096 -221.291 -217.0569 -213.01756 -211.036 -206.80191 -181.83765 -177.75598 -173.52188 -171.57419 -167.34009 -161.03128 -154.23132 -149.99722 -145.95789 -143.97633 -139.74223 -114.77798 -110.54388 -106.50455 -104.52299 -100.28889 -93.920799 -87.171646 -82.937546 -78.898216 -76.781166 -72.716431 -47.718304 -43.484203 -41.536518 -37.302418 -0.033870678 4.2002292 6.0886378 10.322738"
         y="38.106899"
         sodipodi:role="line"
         id="tspan184">Conductdisorder4365.39±14.6856.83±14.3264.00±13.6163.90±15.580.120.47</tspan><tspan
         x="-461.99109 -455.91092 -451.84619 -447.61209 -443.62357 -440.36331 -438.23779 -435.95139 -433.87668 -429.64258 -425.60324 -421.90265 -417.49918 -413.26508 -409.79312 -407.06635 -404.91544 -401.34186 -397.10776 -392.72122 -388.48712 -386.37009 -383.10983 -379.05356 -376.44534 -372.21124 -368.68002 -345.15536 -340.92126 -316.01627 -311.78217 -307.74286 -305.62579 -301.62033 -295.15909 -288.40994 -284.17584 -280.13651 -278.01947 -273.95471 -248.9566 -244.7225 -240.68317 -238.56612 -234.50139 -228.09943 -221.29945 -217.06537 -213.02603 -211.04446 -206.81038 -181.84612 -177.76445 -173.53035 -171.58266 -167.34856 -161.03975 -154.23979 -150.00569 -145.96635 -143.9848 -139.7507 -114.78645 -110.55235 -106.51302 -104.53146 -100.29736 -93.929268 -87.180115 -82.946014 -78.906685 -76.789635 -72.724899 -47.726772 -43.492672 -41.544987 -37.310886 -0.042338882 4.191761 6.0801697 10.314269"
         y="50.809196"
         sodipodi:role="line"
         id="tspan186">Oppositionaldefiantdisorder4368.00±13.7662.00±14.5466.90±12.9862.50±10.450.890.04</tspan><tspan
         x="-461.99109 -455.91092 -453.82776 -449.59366 -445.55432 -441.85373 -437.45026 -431.4971 -425.41696 -419.48074 -411.20731 -409.0564 -404.8223 -400.78296 -397.08234 -345.16382 -340.92972 -316.02475 -311.79065 -307.75131 -305.63428 -301.62881 -295.16757 -288.41843 -284.5061 -280.272 -278.38361 -274.14951 -248.9566 -244.7225 -240.68317 -238.56612 -234.50139 -228.09943 -221.29945 -217.44643 -213.21233 -211.32393 -207.08983 -181.84612 -177.76445 -173.53035 -171.58266 -167.34856 -161.03975 -154.23979 -150.38675 -146.15266 -144.20497 -139.97087 -114.77798 -110.54388 -106.50455 -104.52299 -100.28889 -93.920799 -87.171646 -83.318611 -79.084518 -77.136826 -72.902733 -47.709835 -43.475735 -41.528049 -37.293949"
         y="63.562305"
         sodipodi:role="line"
         id="tspan188">GlobalADHDindex4373.87±11.9763.13±11.8673.05±11.5068.35±11.360.14</tspan></text>
<text
       transform="matrix(1,0,0,-0.88882066,479.73541,177.5621)"
       style="font-variant:normal;font-weight:normal;font-size:6.35099983px;font-family:KyxfnhAdvTT3713a231;-inkscape-font-specification:KyxfnhAdvTT3713a231;writing-mode:lr-tb;fill:#131413;fill-opacity:1;fill-rule:nonzero;stroke:none"
       id="text194"><tspan
         x="0"
         y="0"
         id="tspan192">c</tspan></text>
<text
       transform="matrix(1,0,0,-1,513.01398,173.7637)"
       style="font-variant:normal;font-weight:normal;font-size:8.46819973px;font-family:KyxfnhAdvTT3713a231;-inkscape-font-specification:KyxfnhAdvTT3713a231;writing-mode:lr-tb;fill:#131413;fill-opacity:1;fill-rule:nonzero;stroke:none"
       id="text202"><tspan
         x="0 4.2340999 6.1225085 10.356608"
         y="0"
         sodipodi:role="line"
         id="tspan196">0.45</tspan><tspan
         x="-461.99109 -459.3829 -452.8624 -448.7807 -445.20712 -442.92072 -440.32944 -436.75586 -430.29462 -427.17834 -423.47772 -419.41299 -415.17889 -411.13956 -406.65988 -404.37347 -402.29877 -399.57199 -345.15536 -340.92126 -311.87534 -307.64124 -305.69354 -301.61188 -295.15063 -288.40149 -284.16739 -282.2197 -277.9856 -244.79872 -240.56462 -238.61693 -234.38283 -228.07402 -221.27406 -217.03996 -215.15155 -210.91745 -177.73058 -173.49648 -171.54878 -167.31468 -161.00587 -154.20592 -149.97182 -148.0834 -143.8493 -110.61163 -106.37753 -104.48911 -100.25501 -93.886925 -87.137772 -82.903671 -80.955986 -76.721886 -47.675961 -43.441864 -41.494175 -37.260078 0.0084703201 4.2425704 6.1309786 10.365079"
         y="12.7023"
         sodipodi:role="line"
         id="tspan198">Impairedschoollife431.83±0.891.26±1.012.05±1.001.75±1.070.130.47</tspan><tspan
         x="-461.99109 -459.3829 -452.8624 -448.7807 -445.20712 -442.92072 -440.32944 -436.75586 -430.29462 -427.68643 -423.98581 -421.90265 -418.20203 -416.0596 -413.90866 -409.67456 -405.63522 -402.37497 -398.3187 -396.03229 -391.96756 -345.13843 -340.90433 -311.8584 -307.6243 -305.67661 -301.59494 -295.1337 -288.38455 -284.15045 -282.20276 -277.96866 -244.78178 -240.54768 -238.59999 -234.36589 -228.05708 -221.25713 -217.02303 -215.13461 -210.90051 -177.71364 -173.47954 -171.53185 -167.29774 -160.98894 -154.18898 -149.95488 -148.06647 -143.83237 -110.59469 -106.36059 -104.47218 -100.23808 -93.869995 -87.120834 -82.886734 -80.939049 -76.704948 -47.659027 -43.424927 -41.477242 -37.243141"
         y="25.404598"
         sodipodi:role="line"
         id="tspan200">Impairedrelationships431.09±1.001.09±1.081.30±0.981.35±0.880.41</tspan></text>
<text
       transform="matrix(1,0,0,-0.88882066,479.73541,152.1637)"
       style="font-variant:normal;font-weight:normal;font-size:6.35099983px;font-family:KyxfnhAdvTT3713a231;-inkscape-font-specification:KyxfnhAdvTT3713a231;writing-mode:lr-tb;fill:#131413;fill-opacity:1;fill-rule:nonzero;stroke:none"
       id="text206"><tspan
         x="0"
         y="0"
         id="tspan204">b</tspan></text>
<text
       transform="matrix(1,0,0,-1,513.01398,148.3653)"
       style="font-variant:normal;font-weight:normal;font-size:8.46819973px;font-family:KyxfnhAdvTT3713a231;-inkscape-font-specification:KyxfnhAdvTT3713a231;writing-mode:lr-tb;fill:#131413;fill-opacity:1;fill-rule:nonzero;stroke:none"
       id="text214"><tspan
         x="0 4.2340999 6.1225085 10.356608"
         y="0"
         sodipodi:role="line"
         id="tspan208">0.27</tspan><tspan
         x="-461.99109 -459.3829 -452.8624 -448.7807 -445.20712 -442.92072 -440.32944 -436.75586 -430.29462 -426.21295 -421.97885 -415.61078 -409.71692 -407.56598 -405.27957 -402.68829 -345.14688 -340.91278 -311.86685 -307.63275 -305.68506 -301.60339 -295.14215 -288.39301 -284.15891 -282.21121 -277.97711 -244.79025 -240.55615 -238.60846 -234.37436 -228.06555 -221.26559 -217.03149 -215.14308 -210.90898 -177.72211 -173.48801 -171.54031 -167.30621 -160.99741 -154.19745 -149.96335 -148.07494 -143.84084 -110.60316 -106.36906 -104.48064 -100.24654 -93.878464 -87.129303 -82.895203 -80.947517 -76.713417 -47.667496 -43.433395 -41.48571 -37.25161 0.016938521 4.2510386 6.1394467 10.373547"
         y="12.7023"
         sodipodi:role="line"
         id="tspan210">Impairedhomelife431.39±0.990.87±1.011.50±1.151.55±0.830.020.73</tspan><tspan
         x="-461.99109 -455.91092 -450.02554 -443.94537 -435.73969 -431.50558 -428.99054 -424.75644 -420.7171 -417.01648 -412.95175 -410.80084 -408.51443 -406.38043 -404.09402 -345.15536 -340.92126 -316.01627 -311.78217 -307.74286 -305.62579 -301.62033 -295.15909 -288.40994 -284.17584 -280.13651 -278.01947 -273.95471 -248.9566 -244.7225 -240.68317 -238.56612 -234.50139 -228.09943 -221.29945 -217.06537 -213.02603 -211.04446 -206.81038 -181.84612 -177.76445 -173.53035 -171.58266 -167.34856 -161.03975 -154.23979 -150.00569 -145.96635 -143.9848 -139.7507 -114.78645 -110.55235 -106.51302 -104.53146 -100.29736 -93.929268 -87.180115 -82.946014 -78.906685 -76.789635 -72.724899 -47.726772 -43.492672 -41.544987 -37.310886"
         y="25.404598"
         sodipodi:role="line"
         id="tspan212">ADHDprobability4379.61±24.9351.30±28.4481.75±18.3668.70±29.820.04</tspan></text>
<text
       transform="matrix(1,0,0,-0.88882066,479.73541,126.7653)"
       style="font-variant:normal;font-weight:normal;font-size:6.35099983px;font-family:KyxfnhAdvTT3713a231;-inkscape-font-specification:KyxfnhAdvTT3713a231;writing-mode:lr-tb;fill:#131413;fill-opacity:1;fill-rule:nonzero;stroke:none"
       id="text218"><tspan
         x="0"
         y="0"
         id="tspan216">c</tspan></text>
<text
       transform="matrix(1,0,0,-1,513.01398,122.9669)"
       style="font-variant:normal;font-weight:normal;font-size:8.46819973px;font-family:KyxfnhAdvTT3713a231;-inkscape-font-specification:KyxfnhAdvTT3713a231;writing-mode:lr-tb;fill:#131413;fill-opacity:1;fill-rule:nonzero;stroke:none"
       id="text222"><tspan
         x="0 4.2340999 6.1225085 10.356608"
         y="0"
         sodipodi:role="line"
         id="tspan220">0.60</tspan></text>
<text
       transform="matrix(1,0,0,-0.88882066,51.023602,106.4692)"
       style="font-variant:normal;font-weight:normal;font-size:6.35099983px;font-family:KyxfnhAdvTT3713a231;-inkscape-font-specification:KyxfnhAdvTT3713a231;writing-mode:lr-tb;fill:#131413;fill-opacity:1;fill-rule:nonzero;stroke:none"
       id="text226"><tspan
         x="0"
         y="0"
         id="tspan224">a</tspan></text>
<text
       transform="matrix(1,0,0,-1,55.218899,102.6708)"
       style="font-variant:normal;font-weight:normal;font-size:8.46819973px;font-family:KyxfnhAdvTT3713a231;-inkscape-font-specification:KyxfnhAdvTT3713a231;writing-mode:lr-tb;fill:#131413;fill-opacity:1;fill-rule:nonzero;stroke:none"
       id="text230"><tspan
         x="0 4.5389552 6.8253689 10.890105 15.124205 17.241255 19.849461 22.135874 25.63324 29.333843 33.398579 37.878258 42.112358 45.643597 47.794518 52.028618 55.55986"
         y="0"
         sodipodi:role="line"
         id="tspan228">Significantvalues</tspan></text>
<text
       transform="matrix(1,0,0,-1,113.95433,102.6708)"
       style="font-variant:normal;font-weight:normal;font-size:8.46819973px;font-family:'LmnqmvAdvTT3713a231 20';-inkscape-font-specification:'LmnqmvAdvTT3713a231 20';writing-mode:lr-tb;fill:#131413;fill-opacity:1;fill-rule:nonzero;stroke:none"
       id="text234"><tspan
         x="0"
         y="0"
         id="tspan232">—</tspan></text>
<text
       transform="matrix(1,0,0,-1,122.28704,102.6708)"
       style="font-variant:normal;font-weight:normal;font-size:8.46819973px;font-family:KyxfnhAdvTT3713a231;-inkscape-font-specification:KyxfnhAdvTT3713a231;writing-mode:lr-tb;fill:#131413;fill-opacity:1;fill-rule:nonzero;stroke:none"
       id="text238"><tspan
         x="0 5.6398211 9.6960888 13.930188 16.496054 20.069633 22.796394 25.345322 29.579422 33.618752 38.098431 44.500389 48.734489 50.85154 53.137955 55.212662 59.446762 61.563812 67.45768 71.158279 75.223015 81.624977 85.859077 89.39032 91.99852 94.284935 97.3843 101.61839 107.92721 110.07812 113.77873 116.87809"
         y="0"
         sodipodi:role="line"
         id="tspan236">Bonferronimultiplecomparisontest</tspan></text>
<text
       transform="matrix(1,0,0,-0.88882066,51.023602,93.656601)"
       style="font-variant:normal;font-weight:normal;font-size:6.35099983px;font-family:KyxfnhAdvTT3713a231;-inkscape-font-specification:KyxfnhAdvTT3713a231;writing-mode:lr-tb;fill:#131413;fill-opacity:1;fill-rule:nonzero;stroke:none"
       id="text242"><tspan
         x="0"
         y="0"
         id="tspan240">b</tspan></text>
<text
       transform="matrix(1,0,0,-1,55.615799,89.8582)"
       style="font-variant:normal;font-weight:normal;font-size:8.46819973px;font-family:KyxfnhAdvTT3713a231;-inkscape-font-specification:KyxfnhAdvTT3713a231;writing-mode:lr-tb;fill:#131413;fill-opacity:1;fill-rule:nonzero;stroke:none"
       id="text246"><tspan
         x="0 5.9531446 10.187244 12.304295 16.004898 20.010355 26.53087 32.365459 38.318604 42.019207 47.388046 51.08865 54.188011 57.304306 61.538406 65.069649 67.356064 70.853424 73.139839 76.696487 83.098442 89.05159 91.338005 93.471985 99.873947 105.76781 112.28833 115.80263 118.08904 124.42326 128.12386 130.60504 133.21326 136.91385 140.41122 144.8909 147.61766 151.69086 156.61935 163.02132 166.72191 170.78665 172.93758 176.63818 180.13554 182.42195 184.55594 188.79004"
         y="0"
         sodipodi:role="line"
         id="tspan244">Outcomewasassociatedwithamaineffectformedication</tspan></text>
<text
       transform="matrix(1,0,0,-0.88882066,51.023602,80.844101)"
       style="font-variant:normal;font-weight:normal;font-size:6.35099983px;font-family:KyxfnhAdvTT3713a231;-inkscape-font-specification:KyxfnhAdvTT3713a231;writing-mode:lr-tb;fill:#131413;fill-opacity:1;fill-rule:nonzero;stroke:none"
       id="text250"><tspan
         x="0"
         y="0"
         id="tspan248">c</tspan></text>
<text
       transform="matrix(1,0,0,-1,55.218899,77.102303)"
       style="font-variant:normal;font-weight:normal;font-size:8.46819973px;font-family:KyxfnhAdvTT3713a231;-inkscape-font-specification:KyxfnhAdvTT3713a231;writing-mode:lr-tb;fill:#131413;fill-opacity:1;fill-rule:nonzero;stroke:none"
       id="text254"><tspan
         x="0 5.9531446 10.187244 12.304295 16.004898 20.010355 26.53087 32.365459 38.318604 42.019207 47.388046 51.08865 54.188011 57.304306 61.538406 65.069649 67.356064 70.853424 73.139839 76.696487 83.098442 89.05159 91.338005 93.471985 99.873947 105.76781 112.28833 115.80263 118.08904 124.42326 128.12386 130.60504 133.21326 136.91385 140.41122 144.8909 147.61766 151.69086 156.61935 160.85345 162.91122 166.61183 170.67656 174.91066 178.95 182.0663 184.35271"
         y="0"
         sodipodi:role="line"
         id="tspan252">Outcomewasassociatedwithamaineffectfordiagnosis</tspan></text>
</g></svg>