<?xml version="1.0" encoding="UTF-8" standalone="no"?>
<!-- Created with Inkscape (http://www.inkscape.org/) -->

<svg
   xmlns:dc="http://purl.org/dc/elements/1.1/"
   xmlns:cc="http://creativecommons.org/ns#"
   xmlns:rdf="http://www.w3.org/1999/02/22-rdf-syntax-ns#"
   xmlns:svg="http://www.w3.org/2000/svg"
   xmlns="http://www.w3.org/2000/svg"
   xmlns:sodipodi="http://sodipodi.sourceforge.net/DTD/sodipodi-0.dtd"
   xmlns:inkscape="http://www.inkscape.org/namespaces/inkscape"
   version="1.1"
   id="svg2"
   xml:space="preserve"
   width="793.70135"
   height="1054.488"
   viewBox="0 0 793.70135 1054.488"
   sodipodi:docname="table7.svg"
   inkscape:version="0.92.0 r15299"><metadata
     id="metadata8"><rdf:RDF><cc:Work
         rdf:about=""><dc:format>image/svg+xml</dc:format><dc:type
           rdf:resource="http://purl.org/dc/dcmitype/StillImage" /><dc:title></dc:title></cc:Work></rdf:RDF></metadata><defs
     id="defs6"><clipPath
       clipPathUnits="userSpaceOnUse"
       id="clipPath290"><path
         d="m 504.90701,55.049 h 38.098 V 44.901 h -38.098 z"
         id="path288"
         inkscape:connector-curvature="0" /></clipPath><clipPath
       clipPathUnits="userSpaceOnUse"
       id="clipPath306"><path
         d="m 504.90701,55.049 h 38.098 V 44.901 h -38.098 z"
         id="path304"
         inkscape:connector-curvature="0" /></clipPath><clipPath
       clipPathUnits="userSpaceOnUse"
       id="clipPath324"><path
         d="m 504.90701,55.049 h 38.098 V 44.901 h -38.098 z"
         id="path322"
         inkscape:connector-curvature="0" /></clipPath></defs><sodipodi:namedview
     pagecolor="#ffffff"
     bordercolor="#666666"
     borderopacity="1"
     objecttolerance="10"
     gridtolerance="10"
     guidetolerance="10"
     inkscape:pageopacity="0"
     inkscape:pageshadow="2"
     inkscape:window-width="1920"
     inkscape:window-height="988"
     id="namedview4"
     showgrid="false"
     inkscape:zoom="0.89522116"
     inkscape:cx="338.42553"
     inkscape:cy="557.48959"
     inkscape:window-x="0"
     inkscape:window-y="27"
     inkscape:window-maximized="1"
     inkscape:current-layer="g10" /><g
     id="g10"
     inkscape:groupmode="layer"
     inkscape:label="fulltext"
     transform="matrix(1.3333333,0,0,-1.3333333,0,1054.488)"><path
       d="M 51.023998,721.58698 H 544.252 v -0.567 H 51.023998 Z"
       style="fill:#131413;fill-opacity:1;fill-rule:evenodd;stroke:#131413;stroke-width:0.75;stroke-linecap:round;stroke-linejoin:round;stroke-miterlimit:10;stroke-dasharray:none;stroke-opacity:1"
       id="path58"
       inkscape:connector-curvature="0" /><path
       d="M 544.25201,205.39799 H 51.024017 v 0.567 H 544.25201 Z"
       style="fill:#131413;fill-opacity:1;fill-rule:evenodd;stroke:#131413;stroke-width:0.75;stroke-linecap:round;stroke-linejoin:round;stroke-miterlimit:10;stroke-dasharray:none;stroke-opacity:1"
       id="path60"
       inkscape:connector-curvature="0" /><g
       id="g62"
       transform="translate(132.20799,690.69)"><path
         d="M 0,0 H -81.183998 V 0.56699997 H 0"
         style="fill:#131413;fill-opacity:1;fill-rule:evenodd;stroke:#131413;stroke-width:0.75;stroke-linecap:round;stroke-linejoin:round;stroke-miterlimit:10;stroke-dasharray:none;stroke-opacity:1"
         id="path64"
         inkscape:connector-curvature="0" /></g><g
       id="g66"
       transform="translate(544.25201,700.66803)"><path
         d="M 0,0 H -389.82001 V 0.56699997 H 0"
         style="fill:#131413;fill-opacity:1;fill-rule:evenodd;stroke:#131413;stroke-width:0.75;stroke-linecap:round;stroke-linejoin:round;stroke-miterlimit:10;stroke-dasharray:none;stroke-opacity:1"
         id="path68"
         inkscape:connector-curvature="0" /></g><g
       id="g70"
       transform="translate(510.80301,670.33698)"><path
         d="M 0,0 H -49.096001 V 0.56699997 H 0"
         style="fill:#131413;fill-opacity:1;fill-rule:evenodd;stroke:#131413;stroke-width:0.75;stroke-linecap:round;stroke-linejoin:round;stroke-miterlimit:10;stroke-dasharray:none;stroke-opacity:1"
         id="path72"
         inkscape:connector-curvature="0" /></g><g
       id="g74"
       transform="translate(544.25201,670.33698)"><path
         d="M 0,0 H -33.449001 V 0.56699997 H 0"
         style="fill:#131413;fill-opacity:1;fill-rule:evenodd;stroke:#131413;stroke-width:0.75;stroke-linecap:round;stroke-linejoin:round;stroke-miterlimit:10;stroke-dasharray:none;stroke-opacity:1"
         id="path76"
         inkscape:connector-curvature="0" /></g><g
       id="g78"
       transform="translate(123.817,670.33698)"><path
         d="M 0,0 H -72.793999 V 0.56699997 H 0"
         style="fill:#131413;fill-opacity:1;fill-rule:evenodd;stroke:#131413;stroke-width:0.75;stroke-linecap:round;stroke-linejoin:round;stroke-miterlimit:10;stroke-dasharray:none;stroke-opacity:1"
         id="path80"
         inkscape:connector-curvature="0" /></g><g
       id="g82"
       transform="translate(154.431,670.33698)"><path
         d="M 0,0 H -30.614 V 0.56699997 H 0"
         style="fill:#131413;fill-opacity:1;fill-rule:evenodd;stroke:#131413;stroke-width:0.75;stroke-linecap:round;stroke-linejoin:round;stroke-miterlimit:10;stroke-dasharray:none;stroke-opacity:1"
         id="path84"
         inkscape:connector-curvature="0" /></g><g
       id="g86"
       transform="translate(231.25,670.33698)"><path
         d="M 0,0 H -76.819 V 0.56699997 H 0"
         style="fill:#131413;fill-opacity:1;fill-rule:evenodd;stroke:#131413;stroke-width:0.75;stroke-linecap:round;stroke-linejoin:round;stroke-miterlimit:10;stroke-dasharray:none;stroke-opacity:1"
         id="path88"
         inkscape:connector-curvature="0" /></g><g
       id="g90"
       transform="translate(308.069,670.33698)"><path
         d="M 0,0 H -76.819 V 0.56699997 H 0"
         style="fill:#131413;fill-opacity:1;fill-rule:evenodd;stroke:#131413;stroke-width:0.75;stroke-linecap:round;stroke-linejoin:round;stroke-miterlimit:10;stroke-dasharray:none;stroke-opacity:1"
         id="path92"
         inkscape:connector-curvature="0" /></g><g
       id="g94"
       transform="translate(384.888,670.33698)"><path
         d="M 0,0 H -76.819 V 0.56699997 H 0"
         style="fill:#131413;fill-opacity:1;fill-rule:evenodd;stroke:#131413;stroke-width:0.75;stroke-linecap:round;stroke-linejoin:round;stroke-miterlimit:10;stroke-dasharray:none;stroke-opacity:1"
         id="path96"
         inkscape:connector-curvature="0" /></g><g
       id="g98"
       transform="translate(461.707,670.33698)"><path
         d="M 0,0 H -76.819 V 0.56699997 H 0"
         style="fill:#131413;fill-opacity:1;fill-rule:evenodd;stroke:#131413;stroke-width:0.75;stroke-linecap:round;stroke-linejoin:round;stroke-miterlimit:10;stroke-dasharray:none;stroke-opacity:1"
         id="path100"
         inkscape:connector-curvature="0" /></g><text
       transform="matrix(1,0,0,-1,51.023602,727.02979)"
       style="font-variant:normal;font-weight:normal;font-size:8.46819973px;font-family:RbxrnqAdvTTb8864ccf;-inkscape-font-specification:RbxrnqAdvTTb8864ccf;writing-mode:lr-tb;fill:#131413;fill-opacity:1;fill-rule:nonzero;stroke:none"
       id="text104"><tspan
         x="0 4.8192525 9.0541992 13.55166 15.838921 21.657421"
         y="0"
         sodipodi:role="line"
         id="tspan102">Table7</tspan></text>
<text
       transform="matrix(1,0,0,-1,87.4792,727.02979)"
       style="font-variant:normal;font-weight:normal;font-size:8.46819973px;font-family:KyxfnhAdvTT3713a231;-inkscape-font-specification:KyxfnhAdvTT3713a231;writing-mode:lr-tb;fill:#131413;fill-opacity:1;fill-rule:nonzero;stroke:none"
       id="text110"><tspan
         x="0 4.4796777 8.0532579 11.313515 15.70851 19.94261 24.777952 29.875809 33.576412 36.108402 38.394817 41.951462 46.033134 48.319546 51.87619 57.321243 61.555344 66.390686 72.343834 74.630241 76.764229 80.337814 84.571907 86.688957 88.975372 93.040108 99.44207 102.05028 106.97877 113.05894 117.91968 123.99985 128.80132 131.08774 134.64438 137.1933 141.4274 144.89937 147.18578 149.71777 152.00418 156.06892 158.67712 161.40388 164.96899 169.05067 173.28477 176.81601 181.05011 185.43663 191.83859 195.5392 199.09584 203.32994 208.67337 212.24696 216.48106 222.84914 225.96544 228.25186 231.8085 236.0426 240.08192 243.65552 246.38228 252.72495 256.95905 260.431 264.6651 266.78217 270.48276 272.56595 274.85236 278.91708 283.15118 288.49463 291.22137 295.29459 300.17227 304.40637 308.44571 312.67981 315.24567 319.47977 321.53754 325.23816 329.30289 333.53699 337.57632 340.83658 344.32547 350.78671 353.90302 358.13712 362.17642 365.43668 368.97641 375.37836 379.61246 381.72949"
         y="0"
         sodipodi:role="line"
         id="tspan106">TestofVariablesofAttention(TOVA)target-infrequentmeansandstandarddeviationsfornon-diagnosedsubsample</tspan><tspan
         x="66.958054 71.6325 73.758018 76.366226 79.62648 84.021477 88.255577 91.786819 93.937737 98.866234 101.59299 103.68464 107.38524 109.86642 114.10052 117.57249 122.05216 124.33858 128.40332 131.01152 133.73828 137.30339 141.53749 145.52602 149.22662 153.29135"
         y="18.824808"
         sodipodi:role="line"
         id="tspan108">Firsthalf(targetinfrequent</tspan></text>
<text
       transform="matrix(1,0,0,-1,242.98922,708.20498)"
       style="font-variant:normal;font-weight:normal;font-size:8.46819973px;font-family:'LmnqmvAdvTT3713a231 20';-inkscape-font-specification:'LmnqmvAdvTT3713a231 20';writing-mode:lr-tb;fill:#131413;fill-opacity:1;fill-rule:nonzero;stroke:none"
       id="text114"><tspan
         x="0"
         y="0"
         id="tspan112">—</tspan></text>
<text
       transform="matrix(1,0,0,-1,251.32193,708.20498)"
       style="font-variant:normal;font-weight:normal;font-size:8.46819973px;font-family:KyxfnhAdvTT3713a231;-inkscape-font-specification:KyxfnhAdvTT3713a231;writing-mode:lr-tb;fill:#131413;fill-opacity:1;fill-rule:nonzero;stroke:none"
       id="text120"><tspan
         x="0 3.7006032 5.8430576 7.9939804 11.694584 15.759319 18.045734 20.120443 24.354542 28.393873"
         y="0"
         sodipodi:role="line"
         id="tspan116">attention)</tspan><tspan
         x="-96.884674 -91.24485 -87.696678 -84.580376 -80.879776 -78.73732 -76.450905 -72.44545 56.753876 63.951843 67.652451 71.209091 77.611053 81.845154"
         y="20.17972"
         sodipodi:role="line"
         id="tspan118">BaselineWeek14</tspan></text>
<text
       transform="matrix(1,0,0,-1,461.71434,688.02526)"
       style="font-variant:normal;font-weight:normal;font-size:8.46819973px;font-family:KmwktxAdvTT50a2f13e;-inkscape-font-specification:KmwktxAdvTT50a2f13e;writing-mode:lr-tb;fill:#131413;fill-opacity:1;fill-rule:nonzero;stroke:none"
       id="text124"><tspan
         x="0"
         y="0"
         id="tspan122">p</tspan></text>
<text
       transform="matrix(1,0,0,-1,468.1163,688.02526)"
       style="font-variant:normal;font-weight:normal;font-size:8.46819973px;font-family:KyxfnhAdvTT3713a231;-inkscape-font-specification:KyxfnhAdvTT3713a231;writing-mode:lr-tb;fill:#131413;fill-opacity:1;fill-rule:nonzero;stroke:none"
       id="text128"><tspan
         x="0 4.2340999 7.7060618 9.9924755 14.057212"
         y="0"
         sodipodi:role="line"
         id="tspan126">value</tspan></text>
<text
       transform="matrix(1,0,0,-0.88882066,485.80151,691.76672)"
       style="font-variant:normal;font-weight:normal;font-size:6.35099983px;font-family:KyxfnhAdvTT3713a231;-inkscape-font-specification:KyxfnhAdvTT3713a231;writing-mode:lr-tb;fill:#131413;fill-opacity:1;fill-rule:nonzero;stroke:none"
       id="text132"><tspan
         x="0"
         y="0"
         id="tspan130">a</tspan></text>
<text
       transform="matrix(1,0,0,-1,510.80301,688.02502)"
       style="font-variant:normal;font-weight:normal;font-size:8.46819973px;font-family:KyxfnhAdvTT3713a231;-inkscape-font-specification:KyxfnhAdvTT3713a231;writing-mode:lr-tb;fill:#131413;fill-opacity:1;fill-rule:nonzero;stroke:none"
       id="text136"><tspan
         x="0 5.6398211 9.6960888 13.930188 17.402151"
         y="0"
         sodipodi:role="line"
         id="tspan134">Cohen</tspan></text>
<text
       transform="matrix(1,0,0,-1,532.34611,688.02502)"
       style="font-variant:normal;font-weight:normal;font-size:8.46819973px;font-family:'LmnqmvAdvTT3713a231 20';-inkscape-font-specification:'LmnqmvAdvTT3713a231 20';writing-mode:lr-tb;fill:#131413;fill-opacity:1;fill-rule:nonzero;stroke:none"
       id="text140"><tspan
         x="0"
         y="0"
         id="tspan138">’</tspan></text>
<text
       transform="matrix(1,0,0,-1,534.55631,688.02502)"
       style="font-variant:normal;font-weight:normal;font-size:8.46819973px;font-family:KyxfnhAdvTT3713a231;-inkscape-font-specification:KyxfnhAdvTT3713a231;writing-mode:lr-tb;fill:#131413;fill-opacity:1;fill-rule:nonzero;stroke:none"
       id="text144"><tspan
         x="0"
         y="0"
         id="tspan142">s</tspan></text>
<text
       transform="matrix(1,0,0,-1,540.00136,688.02502)"
       style="font-variant:normal;font-weight:normal;font-size:8.46819973px;font-family:KmwktxAdvTT50a2f13e;-inkscape-font-specification:KmwktxAdvTT50a2f13e;writing-mode:lr-tb;fill:#131413;fill-opacity:1;fill-rule:nonzero;stroke:none"
       id="text150"><tspan
         x="0"
         y="0"
         id="tspan146">d</tspan><tspan
         x="-416.17813"
         y="9.9755392"
         id="tspan148">n</tspan></text>
<text
       transform="matrix(1,0,0,-1,154.43576,678.04949)"
       style="font-variant:normal;font-weight:normal;font-size:8.46819973px;font-family:KyxfnhAdvTT3713a231;-inkscape-font-specification:KyxfnhAdvTT3713a231;writing-mode:lr-tb;fill:#131413;fill-opacity:1;fill-rule:nonzero;stroke:none"
       id="text166"><tspan
         x="0 6.0801673 11.000192 18.884085 76.823509 82.903679 87.8237 95.648315 153.64702 159.72719 164.6472 172.47182 230.47052 236.42368 241.53847 249.29533"
         y="0"
         sodipodi:role="line"
         id="tspan152">QTR1QTR2QTR1QTR2</tspan><tspan
         x="-103.40519 -97.765373 -94.276474 -91.016212 -86.959946 -82.725845 -78.686516 -75.426262 -69.617073 -67.330658 -65.255951 -58.735435 -52.900848 -48.666748 -45.194786 -42.468025 -40.376381 -36.675777 -32.611042 -30.324627 -28.249918 -25.963505 -23.829517"
         y="20.46764"
         sodipodi:role="line"
         id="tspan154">Responsetimevariability</tspan><tspan
         x="-94.953926 -90.27948 -84.809021 -80.134575 -74.266113 -71.539352 -67.466148 -63.232052 -59.192719 -30.621014 -26.386913 -0.00847176 4.2256279 8.2649593 12.49906 14.446745 18.680845 24.989655 31.789618 35.871292 40.105389 42.053078 46.287174 76.806564 81.040665 85.080002 89.314102 91.202507 95.436607 101.8047 108.55385 112.78795 116.82728 121.06138 123.00906 127.24316 153.62161 157.85571 161.89503 166.12914 168.01755 172.25165 178.61974 185.36888 189.60298 193.64232 195.75937 199.82411 230.43665 234.67075 238.71008 242.94418 244.83258 249.06668 255.37549 262.17545 266.40955 270.44888 272.56595 276.63068 307.24323 311.47733 313.36572 317.59982 356.34183 360.57593 362.52362 366.75772"
         y="33.220749"
         sodipodi:role="line"
         id="tspan156">PCSO-524®38235.14±97.90237.69±105.96203.83±69.07239.73±90.720.190.47</tspan><tspan
         x="-94.953926 -90.27948 -88.153961 -84.580383 -80.879776 -77.323135 -73.089035 0.00846464 4.2425647 8.2818956 12.515996 14.463681 18.697781 25.00659 31.806555 35.888226 40.122326 42.070011 46.304111 76.823502 81.057602 85.096939 89.331032 91.219444 95.453545 101.82163 108.57079 112.80489 116.84422 118.96127 123.026 153.63855 157.87265 161.91197 166.14607 168.03448 172.26859 178.63667 185.38582 189.61992 193.65926 197.89336 199.84105 204.07513 230.45358 234.68768 238.72702 242.96112 244.84952 249.08362 255.39243 262.19238 266.42648 270.46582 272.58289 276.64761"
         y="45.923046"
         sodipodi:role="line"
         id="tspan158">Placebo236.32±89.98209.14±97.54287.52±123.32238.60±86.55</tspan><tspan
         x="-103.40519 -97.765373 -94.276474 -91.016212 -86.959946 -82.725845 -78.686516 -75.426262 -69.617073 -67.330658 -65.255951 -58.735435"
         y="58.625347"
         sodipodi:role="line"
         id="tspan160">Responsetime</tspan><tspan
         x="-94.953926 -90.27948 -84.809021 -80.134575 -74.266113 -71.539352 -67.466148 -63.232052 -59.192719 -30.621014 -26.386913 -0.00847176 4.2256279 8.2649593 12.49906 14.446745 18.680845 24.989655 31.789618 35.871292 40.105389 44.144722 46.261772 50.326508 76.798103 81.032196 85.071533 89.305634 91.194038 95.428139 101.79623 108.54538 112.77948 116.81881 121.05291 123.0006 127.2347 153.61314 157.84724 161.88657 166.12067 168.00908 172.24318 178.61127 185.36041 189.59451 193.63385 197.86795 199.81564 204.04974 230.42818 234.66228 238.70161 242.93571 244.82411 249.05821 255.36702 262.16699 266.40109 270.44043 274.67453 276.62222 280.70389 307.23474 311.46884 313.35727 317.59137 356.33337 360.56747 362.51517 366.74927"
         y="71.327644"
         sodipodi:role="line"
         id="tspan162">PCSO-524®37632.32±129.48655.52±123.68595.83±133.68687.32±164.010.830.10</tspan><tspan
         x="-94.953926 -90.27948 -88.153961 -84.580383 -80.879776 -77.323135 -73.089035 0.00846464 4.2425647 8.2818956 12.515996 14.463681 18.697781 25.00659 31.806555 35.888226 40.122326 44.161659 46.278709 50.343445 76.815033 81.049133 85.08847 89.322571 91.210976 95.445076 101.81316 108.56232 112.79642 116.83575 121.06985 123.01753 127.25163 153.63008 157.86418 161.9035 166.1376 168.02602 172.26012 178.6282 185.37735 189.61145 193.65079 197.88489 199.83258 204.06668 230.44511 234.67921 238.71855 242.95265 244.84105 249.07515 255.38396 262.18393 266.41803 270.45737 274.69147 276.63916 280.72083"
         y="84.029945"
         sodipodi:role="line"
         id="tspan164">Placebo632.00±136.38663.14±160.27650.35±120.80648.00±132.14</tspan></text>
<text
       transform="matrix(1,0,0,-1,51.03057,581.31724)"
       style="font-variant:normal;font-weight:normal;font-size:8.46819973px;font-family:KmwktxAdvTT50a2f13e;-inkscape-font-specification:KmwktxAdvTT50a2f13e;writing-mode:lr-tb;fill:#131413;fill-opacity:1;fill-rule:nonzero;stroke:none"
       id="text170"><tspan
         x="0"
         y="0"
         id="tspan168">D</tspan></text>
<text
       transform="matrix(1,0,0,-1,57.042991,581.31724)"
       style="font-variant:normal;font-weight:normal;font-size:8.46819973px;font-family:'LmnqmvAdvTT3713a231 20';-inkscape-font-specification:'LmnqmvAdvTT3713a231 20';writing-mode:lr-tb;fill:#131413;fill-opacity:1;fill-rule:nonzero;stroke:none"
       id="text174"><tspan
         x="0"
         y="0"
         id="tspan172">′</tspan></text>
<text
       transform="matrix(1,0,0,-1,61.065386,581.31724)"
       style="font-variant:normal;font-weight:normal;font-size:8.46819973px;font-family:KyxfnhAdvTT3713a231;-inkscape-font-specification:KyxfnhAdvTT3713a231;writing-mode:lr-tb;fill:#131413;fill-opacity:1;fill-rule:nonzero;stroke:none"
       id="text236"><tspan
         x="0 4.2340999 6.749155 9.0355692 15.369782"
         y="0"
         sodipodi:role="line"
         id="tspan176">prime</tspan><tspan
         x="-1.5835533 3.0908928 8.5613499 13.235796 19.104259 21.831018 25.904222 30.138323 34.177654 62.749359 66.983459 101.6438 105.8779 107.82558 112.05968 118.36849 125.16846 129.25014 131.36719 135.43192 178.45885 182.69295 184.58134 188.81544 195.18353 201.93269 206.16679 208.11447 212.34857 255.28235 259.51645 261.40485 265.63895 272.00705 278.7562 282.9903 284.93799 289.17209 332.10587 336.33997 338.22836 342.46246 348.77127 355.57123 359.80533 361.75302 365.98712 400.64746 404.88156 406.76996 411.00406 449.74609 453.98019 455.92789 460.16199"
         y="12.7023"
         sodipodi:role="line"
         id="tspan178">PCSO-524®382.30±1.732.42±1.662.00±1.512.31±2.100.630.04</tspan><tspan
         x="-1.5835533 3.0908928 5.2164111 8.7899914 12.490595 16.047239 20.281338 101.65227 105.88637 107.83405 112.06815 118.37696 125.17693 129.25861 131.37566 135.44038 178.46732 182.70142 184.58981 188.82391 195.192 201.94116 206.17526 208.12294 212.35704 255.29082 259.5249 261.41333 265.64743 272.0155 278.76468 282.99878 284.94644 289.18054 332.11432 336.34842 338.23685 342.47095 348.77975 355.57971 359.81381 361.76151 365.99561"
         y="25.404598"
         sodipodi:role="line"
         id="tspan180">Placebo2.14±1.382.64±1.632.27±1.962.09±1.88</tspan><tspan
         x="-10.034817 -4.3949957 -0.33872816 2.2694774 4.9962378 8.5020723 12.202676 16.60614 19.214346 22.914948 26.014309 30.248409 34.287739 38.521839 41.604263"
         y="38.106899"
         sodipodi:role="line"
         id="tspan182">Correctresponse</tspan><tspan
         x="-1.5835533 3.0908928 8.5613499 13.235796 19.104259 21.831018 25.904222 30.138323 34.177654 62.749359 66.983459 97.502853 101.73695 105.77628 107.89333 111.95807 118.36003 125.15999 129.24167 133.47577 135.42345 139.65755 174.31789 178.55199 182.59132 184.57288 188.80698 195.17506 201.92422 205.83653 210.07063 211.95905 216.19315 251.13293 255.36703 259.40637 261.38791 265.62201 271.99011 278.73926 282.97336 284.92105 289.15515 327.94797 332.18207 336.22141 338.20297 342.43707 348.74588 355.54584 359.77994 361.72763 365.96173 400.62207 404.85617 406.74457 410.97867 449.72067 453.95477 455.90247 460.13657"
         y="50.809196"
         sodipodi:role="line"
         id="tspan184">PCSO-524®3823.04±10.7422.77±11.1324.61±8.4922.09±9.510.960.13</tspan><tspan
         x="-1.5835533 3.0908928 5.2164111 8.7899914 12.490595 16.047239 20.281338 97.511322 101.74542 105.78475 107.9018 111.96654 118.36849 125.16846 129.25014 131.36719 135.43192 174.32635 178.56046 182.59979 184.58134 188.81544 195.18353 201.93269 206.16679 208.11447 212.34857 251.1414 255.3755 259.41483 261.39639 265.63049 271.99857 278.74774 282.98184 287.02115 289.13821 293.20294 327.95645 332.19055 336.22986 338.21143 342.44553 348.75433 355.55429 359.78839 363.82773 365.94479 370.00952"
         y="63.511497"
         sodipodi:role="line"
         id="tspan186">Placebo25.18±8.9623.57±8.8923.25±10.2820.15±10.12</tspan><tspan
         x="-10.034817 -4.3941488 -0.33703452 2.2720177 4.9996247 8.5063066 12.207757 16.612066 20.847013 24.887192 29.122139 31.654978 34.382584 37.889267 41.150368 45.190548 49.425495 53.465672 56.726776"
         y="76.213799"
         sodipodi:role="line"
         id="tspan188">Correctnon-response</tspan><tspan
         x="-1.5835533 3.0908928 8.5613499 13.235796 19.104259 21.831018 25.904222 30.138323 34.177654 62.749359 66.983459 93.3619 97.596001 101.63533 105.86943 107.81712 112.05122 118.36003 125.15999 129.24167 133.47577 135.42345 139.65755 170.45639 174.30942 178.54352 182.58286 184.56441 188.79851 195.1666 201.91576 206.14986 210.18918 212.30623 216.37097 246.98352 251.21761 255.25694 259.49106 261.37946 265.61356 271.98163 278.7308 282.9649 287.00421 289.12128 293.186 323.79855 328.03265 332.07199 336.30609 338.19449 342.42859 348.7374 355.53735 359.77145 363.81079 365.92786 369.99258 400.60513 404.83923 406.72763 410.96173 449.70374 453.93784 455.88553 460.11963"
         y="88.9161"
         sodipodi:role="line"
         id="tspan190">PCSO-524®38106.39±25.85115.15±15.53102.65±31.43109.41±28.310.710.10</tspan><tspan
         x="-1.5835533 3.0908928 5.2164111 8.7899914 12.490595 16.047239 20.281338 93.378838 97.612938 101.65227 105.88637 107.83405 112.06815 118.37696 125.17693 129.25861 133.49271 135.44038 139.67448 170.47333 174.32635 178.56046 182.59979 184.58134 188.81544 195.18353 201.93269 206.16679 210.20612 212.32317 216.38791 247.00044 251.23454 255.27388 259.508 261.39639 265.63049 271.99857 278.74774 282.98184 287.02115 289.13821 293.20294 323.81549 328.04959 332.08893 336.32303 338.21143 342.44553 348.75433 355.55429 359.78839 363.82773 365.94479 370.00952"
         y="101.6184"
         sodipodi:role="line"
         id="tspan192">Placebo109.27±14.52115.86±12.16108.10±17.63108.05±17.85</tspan><tspan
         x="-10.034817 -4.9200244 -2.3795643 0.22864123 4.4627409 7.0286055 12.473658 16.707758 21.5431 25.777201 32.08601 34.372421 37.471783 40.73204 42.798283 47.032383"
         y="114.3207"
         sodipodi:role="line"
         id="tspan194">Errorsofomission</tspan><tspan
         x="-1.5835533 3.0908928 8.5613499 13.235796 19.104259 21.831018 25.904222 30.138323 34.177654 62.749359 66.983459 101.6438 105.8779 107.82558 112.05968 118.36849 125.16846 129.25014 131.36719 135.43192 178.45885 182.69295 184.58134 188.81544 195.18353 201.93269 206.16679 208.11447 212.34857 255.28235 259.51645 261.40485 265.63895 272.00705 278.7562 282.9903 284.93799 289.17209 332.10587 336.33997 338.22836 342.46246 348.77127 355.57123 359.80533 361.75302 365.98712 400.64746 404.88156 406.76996 411.00406 449.74609 453.98019 455.92789 460.16199"
         y="127.023"
         sodipodi:role="line"
         id="tspan196">PCSO-524®360.33±0.270.36±0.310.31±0.230.39±0.260.820.02</tspan><tspan
         x="-1.5835533 3.0908928 5.2164111 8.7899914 12.490595 16.047239 20.281338 101.65227 105.88637 107.83405 112.06815 118.37696 125.17693 129.25861 131.37566 135.44038 178.46732 182.70142 184.58981 188.82391 195.192 201.94116 206.17526 208.12294 212.35704 255.29082 259.5249 261.41333 265.64743 272.0155 278.76468 282.99878 284.94644 289.18054 332.11432 336.34842 338.23685 342.47095 348.77975 355.57971 359.81381 361.76151 365.99561"
         y="139.7253"
         sodipodi:role="line"
         id="tspan198">Placebo0.30±0.240.34±0.250.34±0.280.39±0.29</tspan><tspan
         x="-10.034817 -4.9200244 -2.3795643 0.22864123 4.4627409 7.0286055 12.473658 16.707758 21.5431 25.11668 29.35078 35.718864 42.120827 44.407238 47.506599 50.766857 52.833099 57.067196"
         y="152.4276"
         sodipodi:role="line"
         id="tspan200">Errorsofcommission</tspan><tspan
         x="-1.5835533 3.0908928 8.5613499 13.235796 19.104259 21.831018 25.904222 30.138323 34.177654 62.749359 66.983459 101.92325 106.15735 108.04576 111.95807 118.36003 125.15999 129.24167 131.35872 135.42345 178.45038 182.68448 184.57288 188.80698 195.17506 201.92422 206.15833 208.106 212.3401 255.27388 259.508 261.39639 265.63049 271.99857 278.74774 282.98184 284.9295 289.1636 332.09738 336.33148 338.21991 342.45401 348.76282 355.56277 359.79688 361.74457 365.97867 400.63901 404.87311 406.76151 410.99561 449.73761 453.97171 455.9194 460.1535"
         y="165.18069"
         sodipodi:role="line"
         id="tspan202">PCSO-524®360.11±0.130.07±0.100.18±0.240.12±0.220.460.19</tspan><tspan
         x="-1.5835533 3.0908928 5.2164111 8.7899914 12.490595 16.047239 20.281338 101.65227 105.88637 107.83405 112.06815 118.37696 125.17693 129.25861 131.37566 135.44038 178.46732 182.70142 184.58981 188.82391 195.192 201.94116 206.17526 208.12294 212.35704 255.29082 259.5249 261.41333 265.64743 272.0155 278.76468 282.99878 284.94644 288.79947 332.11432 336.34842 338.23685 342.47095 348.77975 355.57971 359.81381 361.76151 365.99561"
         y="177.883"
         sodipodi:role="line"
         id="tspan204">Placebo0.13±0.120.07±0.080.12±0.110.10±0.12</tspan><tspan
         x="-10.034817 -5.3603706 -1.3041029 1.8121946 6.3511496 9.9247303 14.15883 20.467638 26.988152 29.139074 32.255371 35.515629 37.641148 41.875248"
         y="190.5853"
         sodipodi:role="line"
         id="tspan206">Postcommission</tspan><tspan
         x="-1.5835533 3.0908928 8.5613499 13.235796 19.104259 21.831018 25.904222 30.138323 34.177654 62.749359 66.983459 101.92325 106.15735 108.04576 111.95807 118.36003 125.15999 129.24167 131.35872 135.42345 178.45038 182.68448 184.57288 188.80698 195.17506 201.92422 206.15833 208.106 212.3401 255.27388 259.508 261.39639 265.63049 271.99857 278.74774 282.98184 284.9295 289.1636 332.09738 336.33148 338.21991 342.45401 348.76282 355.56277 359.79688 361.74457 365.97867 400.63901 404.87311 406.76151 410.99561 449.73761 453.97171 455.9194 460.1535"
         y="203.2876"
         sodipodi:role="line"
         id="tspan208">PCSO-524®385.11±3.804.15±3.566.70±5.514.95±5.270.890.01</tspan><tspan
         x="-1.5835533 3.0908928 5.2164111 8.7899914 12.490595 16.047239 20.281338 101.65227 105.88637 107.83405 112.06815 118.37696 125.17693 129.25861 131.37566 135.44038 178.46732 182.70142 184.58981 188.82391 195.192 201.94116 206.17526 208.12294 212.35704 255.29082 259.5249 261.41333 265.64743 272.0155 278.76468 282.99878 284.94644 289.18054 332.11432 336.34842 338.23685 342.47095 348.77975 355.57971 359.81381 361.76151 365.99561"
         y="215.9899"
         sodipodi:role="line"
         id="tspan210">Placebo7.86±5.014.76±4.106.60±3.784.95±3.79</tspan><tspan
         x="-10.034817 -5.3603706 -1.3041029 1.8121946 6.3511496 9.9247303 14.15883 20.467638 26.988152 29.139074 32.255371 35.515629 37.641148 41.875248 48.184055 50.910816 54.416653 57.676907 61.733177 65.967278 70.006607 73.266861 79.07605 81.226974 83.513382 89.847595"
         y="228.6922"
         sodipodi:role="line"
         id="tspan212">Postcommissionresponsetime</tspan><tspan
         x="-1.5835533 3.0908928 8.5613499 13.235796 19.104259 21.831018 25.904222 30.138323 34.177654 62.749359 66.983459 93.3619 97.596001 101.63533 105.86943 107.81712 112.05122 118.36003 125.15999 129.24167 133.47577 137.51509 139.63214 143.69688 170.16847 174.40257 178.44191 182.67601 184.56441 188.79851 195.1666 201.91576 206.14986 210.18918 214.42328 216.37097 220.60507 246.98352 251.21761 255.25694 259.49106 261.37946 265.61356 271.98163 278.7308 282.9649 287.00421 291.23831 293.186 297.4201 323.79855 328.03265 332.07199 336.30609 338.19449 342.42859 348.7374 355.53735 359.77145 363.81079 368.04489 369.99258 374.07425 400.60513 404.83923 406.72763 410.96173 449.70374 453.93784 455.88553 460.11963"
         y="241.3945"
         sodipodi:role="line"
         id="tspan214">PCSO-524®38627.29±252.50626.23±269.37555.00±209.43575.41±265.830.160.43</tspan><tspan
         x="-1.5835533 3.0908928 5.2164111 8.7899914 12.490595 16.047239 20.281338 93.378838 97.612938 101.65227 105.88637 107.83405 112.06815 118.37696 125.17693 129.25861 133.49271 137.53203 139.64908 143.71382 170.18541 174.41951 178.45885 182.69295 184.58134 188.81544 195.18353 201.93269 206.16679 210.20612 214.44022 216.38791 220.62201 247.00044 251.23454 255.27388 259.508 261.39639 265.63049 271.99857 278.74774 282.98184 287.02115 291.25525 293.20294 297.43704 323.81549 328.04959 332.08893 336.32303 338.21143 342.44553 348.75433 355.55429 359.78839 363.82773 368.06183 370.00952 374.09119"
         y="254.0968"
         sodipodi:role="line"
         id="tspan216">Placebo602.00±126.53530.95±255.98705.90±232.93614.60±221.22</tspan><tspan
         x="-10.034817 -5.3603706 -1.3041029 1.8121946 6.3511496 9.9247303 14.15883 20.467638 26.988152 29.139074 32.255371 35.515629 37.641148 41.875248 48.184055 52.418156 55.949394 58.557602 60.844013 64.400658 68.48233 70.768745 72.902733 75.189148 77.263855"
         y="266.7991"
         sodipodi:role="line"
         id="tspan218">Postcommissionvariability</tspan><tspan
         x="-1.5835533 3.0908928 8.5613499 13.235796 19.104259 21.831018 25.904222 30.138323 34.177654 62.749359 66.983459 93.3619 97.596001 101.63533 105.86943 107.81712 112.05122 118.36003 125.15999 129.24167 133.47577 137.51509 139.63214 143.69688 170.16847 174.40257 178.44191 182.67601 184.56441 188.79851 195.1666 201.91576 206.14986 210.18918 214.42328 216.37097 220.60507 246.98352 251.21761 255.25694 259.49106 261.37946 265.61356 271.98163 278.7308 282.9649 287.00421 289.12128 293.186 323.79855 328.03265 332.07199 336.30609 338.19449 342.42859 348.7374 355.53735 359.77145 363.81079 368.04489 369.99258 374.07425 400.60513 404.83923 406.72763 410.96173 449.70374 453.93784 455.88553 460.11963"
         y="279.5014"
         sodipodi:role="line"
         id="tspan220">PCSO-524®38179.18±156.39145.77±137.25127.13±94.86157.59±169.810.020.66</tspan><tspan
         x="-1.5835533 3.0908928 5.2164111 8.7899914 12.490595 16.047239 20.281338 93.378838 97.612938 101.65227 105.88637 107.83405 112.06815 118.37696 125.17693 129.25861 133.49271 137.53203 139.64908 143.71382 170.18541 174.41951 178.45885 182.69295 184.58134 188.81544 195.18353 201.93269 206.16679 210.20612 214.44022 216.38791 220.62201 247.00044 251.23454 255.27388 259.508 261.39639 265.63049 271.99857 278.74774 282.98184 287.02115 291.25525 293.20294 297.43704 323.81549 328.04959 332.08893 336.32303 338.21143 342.44553 348.75433 355.55429 359.78839 363.82773 368.06183 370.00952 373.86255"
         y="292.2037"
         sodipodi:role="line"
         id="tspan222">Placebo200.45±136.85125.14±131.84268.30±163.49201.20±145.11</tspan><tspan
         x="-10.034817 -3.9546494 0.11008643 2.2610092 4.5474229 8.1040668 10.25499 14.48909 18.020329 20.306744 24.312201 27.038961 33.381641 36.108402 39.614239 42.874496 46.930763 51.164864 55.204193 58.464451"
         y="304.90601"
         sodipodi:role="line"
         id="tspan224">Anticipatoryresponse</tspan><tspan
         x="-1.5835533 3.0908928 8.5613499 13.235796 19.104259 21.831018 25.904222 30.138323 34.177654 62.749359 66.983459 101.6438 105.8779 107.82558 112.05968 118.36849 125.16846 129.25014 131.36719 135.43192 178.45885 182.69295 184.58134 188.81544 195.18353 201.93269 206.16679 208.11447 212.34857 255.28235 259.51645 261.40485 265.63895 272.00705 278.7562 282.9903 284.93799 289.17209 332.10587 336.33997 338.22836 342.46246 348.77127 355.57123 359.80533 361.75302 365.98712 400.64746 404.88156 406.76996 411.00406 449.74609 453.98019 455.92789 460.16199"
         y="317.60831"
         sodipodi:role="line"
         id="tspan226">PCSO-524®370.03±0.070.02±0.030.05±0.130.05±0.130.550.18</tspan><tspan
         x="-1.5835533 3.0908928 5.2164111 8.7899914 12.490595 16.047239 20.281338 101.65227 105.88637 107.83405 112.06815 118.37696 125.17693 129.25861 131.37566 135.44038 178.46732 182.70142 184.58981 188.82391 195.192 201.94116 206.17526 208.12294 212.35704 255.29082 259.5249 261.41333 265.64743 272.0155 278.76468 282.99878 284.94644 289.18054 332.11432 336.34842 338.23685 342.47095 348.77975 355.57971 359.81381 361.76151 365.99561"
         y="330.31061"
         sodipodi:role="line"
         id="tspan228">Placebo0.02±0.020.01±0.020.03±0.060.03±0.04</tspan><tspan
         x="-10.034817 -2.5404601 1.4734666 3.7598805 5.893867 8.1802807 12.245017 14.395939 20.289806 23.016567 26.522402 29.782658 33.838924 38.073025 42.112358 45.372616 48.861511"
         y="343.01291"
         sodipodi:role="line"
         id="tspan230">Multipleresponses</tspan><tspan
         x="-1.5835533 3.0908928 8.5613499 13.235796 19.104259 21.831018 25.904222 30.138323 34.177654 62.749359 66.983459 101.6438 105.8779 107.82558 112.05968 118.36849 125.16846 129.25014 131.36719 135.43192 178.45885 182.69295 184.58134 188.81544 195.18353 201.93269 206.16679 208.11447 212.34857 255.28235 259.51645 261.40485 265.63895 272.00705 278.7562 282.9903 284.93799 289.17209 332.10587 336.33997 338.22836 342.46246 348.77127 355.57123 359.80533 361.75302 365.98712 400.64746 404.88156 406.76996 411.00406 449.74609 453.98019 455.92789 460.16199"
         y="355.71521"
         sodipodi:role="line"
         id="tspan232">PCSO-524®383.22±5.562.42±4.662.65±3.612.77±4.540.540.25</tspan><tspan
         x="-1.5835533 3.0908928 5.2164111 8.7899914 12.490595 16.047239 20.281338 101.65227 105.88637 107.83405 112.06815 118.37696 125.17693 129.25861 131.37566 135.44038 178.46732 182.70142 184.58981 188.82391 195.192 201.94116 206.17526 208.12294 212.35704 255.29082 259.5249 261.41333 265.64743 272.0155 278.76468 282.99878 284.94644 289.18054 332.11432 336.34842 338.23685 342.47095 348.77975 355.57971 359.81381 361.76151 365.99561"
         y="368.41751"
         sodipodi:role="line"
         id="tspan234">Placebo1.36±2.481.76±3.743.90±6.784.55±5.96</tspan></text>
<text
       transform="matrix(1,0,0,-0.88882066,51.023602,196.4409)"
       style="font-variant:normal;font-weight:normal;font-size:6.35099983px;font-family:KyxfnhAdvTT3713a231;-inkscape-font-specification:KyxfnhAdvTT3713a231;writing-mode:lr-tb;fill:#131413;fill-opacity:1;fill-rule:nonzero;stroke:none"
       id="text240"><tspan
         x="0"
         y="0"
         id="tspan238">a</tspan></text>
<text
       transform="matrix(1,0,0,-1,55.218899,192.6991)"
       style="font-variant:normal;font-weight:normal;font-size:8.46819973px;font-family:KyxfnhAdvTT3713a231;-inkscape-font-specification:KyxfnhAdvTT3713a231;writing-mode:lr-tb;fill:#131413;fill-opacity:1;fill-rule:nonzero;stroke:none"
       id="text244"><tspan
         x="0 5.4958615 9.7299614 13.769293 16.496054 20.001888 22.728647 25.277576 29.511677 33.551006 38.030685 44.551197 48.63287 50.783794 53.07021 55.204193 59.438293 61.496067 67.389931 71.090538 75.155273 81.557228 85.791328 89.322571 91.930779 94.217194 97.316551 101.55065 107.85946 110.14587 113.64324 116.9035"
         y="0"
         sodipodi:role="line"
         id="tspan242">Bonferronimultiplecomparisontest</tspan></text>
</g></svg>