<?xml version="1.0" encoding="UTF-8" standalone="no"?>
<!-- Created with Inkscape (http://www.inkscape.org/) -->

<svg
   xmlns:dc="http://purl.org/dc/elements/1.1/"
   xmlns:cc="http://creativecommons.org/ns#"
   xmlns:rdf="http://www.w3.org/1999/02/22-rdf-syntax-ns#"
   xmlns:svg="http://www.w3.org/2000/svg"
   xmlns="http://www.w3.org/2000/svg"
   xmlns:sodipodi="http://sodipodi.sourceforge.net/DTD/sodipodi-0.dtd"
   xmlns:inkscape="http://www.inkscape.org/namespaces/inkscape"
   version="1.1"
   id="svg2"
   xml:space="preserve"
   width="793.70135"
   height="1054.488"
   viewBox="0 0 793.70135 1054.488"
   sodipodi:docname="table8.svg"
   inkscape:version="0.92.0 r15299"><metadata
     id="metadata8"><rdf:RDF><cc:Work
         rdf:about=""><dc:format>image/svg+xml</dc:format><dc:type
           rdf:resource="http://purl.org/dc/dcmitype/StillImage" /><dc:title></dc:title></cc:Work></rdf:RDF></metadata><defs
     id="defs6"><clipPath
       clipPathUnits="userSpaceOnUse"
       id="clipPath282"><path
         d="m 51.023998,55.049 h 38.098 V 44.901 h -38.098 z"
         id="path280"
         inkscape:connector-curvature="0" /></clipPath><clipPath
       clipPathUnits="userSpaceOnUse"
       id="clipPath298"><path
         d="m 51.023998,55.049 h 38.098 V 44.901 h -38.098 z"
         id="path296"
         inkscape:connector-curvature="0" /></clipPath><clipPath
       clipPathUnits="userSpaceOnUse"
       id="clipPath316"><path
         d="m 51.023998,55.049 h 38.098 V 44.901 h -38.098 z"
         id="path314"
         inkscape:connector-curvature="0" /></clipPath></defs><sodipodi:namedview
     pagecolor="#ffffff"
     bordercolor="#666666"
     borderopacity="1"
     objecttolerance="10"
     gridtolerance="10"
     guidetolerance="10"
     inkscape:pageopacity="0"
     inkscape:pageshadow="2"
     inkscape:window-width="1920"
     inkscape:window-height="988"
     id="namedview4"
     showgrid="false"
     inkscape:zoom="0.89522116"
     inkscape:cx="186.22475"
     inkscape:cy="627.42656"
     inkscape:window-x="0"
     inkscape:window-y="27"
     inkscape:window-maximized="1"
     inkscape:current-layer="g10" /><g
     id="g10"
     inkscape:groupmode="layer"
     inkscape:label="fulltext"
     transform="matrix(1.3333333,0,0,-1.3333333,0,1054.488)"><path
       d="M 51.023998,721.58698 H 544.252 v -0.567 H 51.023998 Z"
       style="fill:#131413;fill-opacity:1;fill-rule:evenodd;stroke:#131413;stroke-width:0.75;stroke-linecap:round;stroke-linejoin:round;stroke-miterlimit:10;stroke-dasharray:none;stroke-opacity:1"
       id="path50"
       inkscape:connector-curvature="0" /><path
       d="M 544.25201,205.39799 H 51.024017 v 0.567 H 544.25201 Z"
       style="fill:#131413;fill-opacity:1;fill-rule:evenodd;stroke:#131413;stroke-width:0.75;stroke-linecap:round;stroke-linejoin:round;stroke-miterlimit:10;stroke-dasharray:none;stroke-opacity:1"
       id="path52"
       inkscape:connector-curvature="0" /><g
       id="g54"
       transform="translate(132.20799,690.69)"><path
         d="M 0,0 H -81.183998 V 0.56699997 H 0"
         style="fill:#131413;fill-opacity:1;fill-rule:evenodd;stroke:#131413;stroke-width:0.75;stroke-linecap:round;stroke-linejoin:round;stroke-miterlimit:10;stroke-dasharray:none;stroke-opacity:1"
         id="path56"
         inkscape:connector-curvature="0" /></g><g
       id="g58"
       transform="translate(544.25201,700.66803)"><path
         d="M 0,0 H -389.82001 V 0.56699997 H 0"
         style="fill:#131413;fill-opacity:1;fill-rule:evenodd;stroke:#131413;stroke-width:0.75;stroke-linecap:round;stroke-linejoin:round;stroke-miterlimit:10;stroke-dasharray:none;stroke-opacity:1"
         id="path60"
         inkscape:connector-curvature="0" /></g><g
       id="g62"
       transform="translate(510.80301,670.33698)"><path
         d="M 0,0 H -49.096001 V 0.56699997 H 0"
         style="fill:#131413;fill-opacity:1;fill-rule:evenodd;stroke:#131413;stroke-width:0.75;stroke-linecap:round;stroke-linejoin:round;stroke-miterlimit:10;stroke-dasharray:none;stroke-opacity:1"
         id="path64"
         inkscape:connector-curvature="0" /></g><g
       id="g66"
       transform="translate(544.25201,670.33698)"><path
         d="M 0,0 H -33.449001 V 0.56699997 H 0"
         style="fill:#131413;fill-opacity:1;fill-rule:evenodd;stroke:#131413;stroke-width:0.75;stroke-linecap:round;stroke-linejoin:round;stroke-miterlimit:10;stroke-dasharray:none;stroke-opacity:1"
         id="path68"
         inkscape:connector-curvature="0" /></g><g
       id="g70"
       transform="translate(123.817,670.33698)"><path
         d="M 0,0 H -72.793999 V 0.56699997 H 0"
         style="fill:#131413;fill-opacity:1;fill-rule:evenodd;stroke:#131413;stroke-width:0.75;stroke-linecap:round;stroke-linejoin:round;stroke-miterlimit:10;stroke-dasharray:none;stroke-opacity:1"
         id="path72"
         inkscape:connector-curvature="0" /></g><g
       id="g74"
       transform="translate(154.431,670.33698)"><path
         d="M 0,0 H -30.614 V 0.56699997 H 0"
         style="fill:#131413;fill-opacity:1;fill-rule:evenodd;stroke:#131413;stroke-width:0.75;stroke-linecap:round;stroke-linejoin:round;stroke-miterlimit:10;stroke-dasharray:none;stroke-opacity:1"
         id="path76"
         inkscape:connector-curvature="0" /></g><g
       id="g78"
       transform="translate(231.25,670.33698)"><path
         d="M 0,0 H -76.819 V 0.56699997 H 0"
         style="fill:#131413;fill-opacity:1;fill-rule:evenodd;stroke:#131413;stroke-width:0.75;stroke-linecap:round;stroke-linejoin:round;stroke-miterlimit:10;stroke-dasharray:none;stroke-opacity:1"
         id="path80"
         inkscape:connector-curvature="0" /></g><g
       id="g82"
       transform="translate(308.069,670.33698)"><path
         d="M 0,0 H -76.819 V 0.56699997 H 0"
         style="fill:#131413;fill-opacity:1;fill-rule:evenodd;stroke:#131413;stroke-width:0.75;stroke-linecap:round;stroke-linejoin:round;stroke-miterlimit:10;stroke-dasharray:none;stroke-opacity:1"
         id="path84"
         inkscape:connector-curvature="0" /></g><g
       id="g86"
       transform="translate(384.888,670.33698)"><path
         d="M 0,0 H -76.819 V 0.56699997 H 0"
         style="fill:#131413;fill-opacity:1;fill-rule:evenodd;stroke:#131413;stroke-width:0.75;stroke-linecap:round;stroke-linejoin:round;stroke-miterlimit:10;stroke-dasharray:none;stroke-opacity:1"
         id="path88"
         inkscape:connector-curvature="0" /></g><g
       id="g90"
       transform="translate(461.707,670.33698)"><path
         d="M 0,0 H -76.819 V 0.56699997 H 0"
         style="fill:#131413;fill-opacity:1;fill-rule:evenodd;stroke:#131413;stroke-width:0.75;stroke-linecap:round;stroke-linejoin:round;stroke-miterlimit:10;stroke-dasharray:none;stroke-opacity:1"
         id="path92"
         inkscape:connector-curvature="0" /></g><text
       transform="matrix(1,0,0,-1,51.023602,727.02979)"
       style="font-variant:normal;font-weight:normal;font-size:8.46819973px;font-family:RbxrnqAdvTTb8864ccf;-inkscape-font-specification:RbxrnqAdvTTb8864ccf;writing-mode:lr-tb;fill:#131413;fill-opacity:1;fill-rule:nonzero;stroke:none"
       id="text96"><tspan
         x="0 4.8192525 9.0541992 13.55166 15.838921 21.657421"
         y="0"
         sodipodi:role="line"
         id="tspan94">Table8</tspan></text>
<text
       transform="matrix(1,0,0,-1,87.4792,727.02979)"
       style="font-variant:normal;font-weight:normal;font-size:8.46819973px;font-family:KyxfnhAdvTT3713a231;-inkscape-font-specification:KyxfnhAdvTT3713a231;writing-mode:lr-tb;fill:#131413;fill-opacity:1;fill-rule:nonzero;stroke:none"
       id="text102"><tspan
         x="0 4.4796777 8.0532579 11.313515 15.70851 19.94261 24.777952 29.875809 33.576412 36.108402 38.394817 41.951462 46.033134 48.319546 51.87619 57.321243 61.555344 66.390686 72.343834 74.630241 76.764229 80.337814 84.571907 86.688957 88.975372 93.040108 99.44207 102.05028 106.97877 113.05894 117.91968 123.99985 128.80132 131.08774 134.64438 137.1933 141.4274 144.89937 147.18578 149.71777 152.44453 154.99345 158.69406 162.7588 166.9929 170.46486 174.69896 179.08549 185.606 189.1203 192.82091 196.88565 202.33069 206.0313 210.09604 216.498 219.75826 221.82449 225.5251 229.58983 233.82393 237.35516 239.96338 246.36534 250.59944 254.13068 258.36478 260.42255 264.12314 266.26559 268.41653 272.65063 276.68997 282.18582 284.79404 289.02814 293.86346 298.09756 302.1369 306.371 308.88605 313.12015 315.23721 318.81079 323.04489 327.08423 331.31833 334.40073 338.10135 344.43555 347.6958 351.75208 355.98618 359.00934 362.70993 369.04416 373.27823 375.39529"
         y="0"
         sodipodi:role="line"
         id="tspan98">TestofVariablesofAttention(TOVA)target-frequentmeansandstandarddeviationsfornon-diagnosedsubsample</tspan><tspan
         x="66.958054 71.6325 75.180679 78.754257 82.988358 87.027687 93.429649 97.66375 101.19498 103.4814 108.28287 111.00963 113.16055 116.73413 119.28306 123.51716 127.0484 131.52808 134.13629 136.86304 140.36888 144.60298 148.6423 152.34291 156.40765"
         y="18.824808"
         sodipodi:role="line"
         id="tspan100">Secondhalf(targetfrequent</tspan></text>
<text
       transform="matrix(1,0,0,-1,246.05471,708.20498)"
       style="font-variant:normal;font-weight:normal;font-size:8.46819973px;font-family:'LmnqmvAdvTT3713a231 20';-inkscape-font-specification:'LmnqmvAdvTT3713a231 20';writing-mode:lr-tb;fill:#131413;fill-opacity:1;fill-rule:nonzero;stroke:none"
       id="text106"><tspan
         x="0"
         y="0"
         id="tspan104">—</tspan></text>
<text
       transform="matrix(1,0,0,-1,254.4467,708.20498)"
       style="font-variant:normal;font-weight:normal;font-size:8.46819973px;font-family:KyxfnhAdvTT3713a231;-inkscape-font-specification:KyxfnhAdvTT3713a231;writing-mode:lr-tb;fill:#131413;fill-opacity:1;fill-rule:nonzero;stroke:none"
       id="text112"><tspan
         x="0 2.2864139 6.3511496 10.58525 12.643023 16.877123 18.994171 21.280586 23.355295 27.589396 31.628725"
         y="0"
         sodipodi:role="line"
         id="tspan108">inhibition)</tspan><tspan
         x="-100.00945 -94.369621 -90.821449 -87.705147 -84.004547 -81.862091 -79.575676 -75.570221 53.629105 60.827076 64.527679 68.08432 74.486282 78.720383"
         y="20.17972"
         sodipodi:role="line"
         id="tspan110">BaselineWeek14</tspan></text>
<text
       transform="matrix(1,0,0,-1,461.71434,688.02526)"
       style="font-variant:normal;font-weight:normal;font-size:8.46819973px;font-family:KmwktxAdvTT50a2f13e;-inkscape-font-specification:KmwktxAdvTT50a2f13e;writing-mode:lr-tb;fill:#131413;fill-opacity:1;fill-rule:nonzero;stroke:none"
       id="text116"><tspan
         x="0"
         y="0"
         id="tspan114">p</tspan></text>
<text
       transform="matrix(1,0,0,-1,468.1163,688.02526)"
       style="font-variant:normal;font-weight:normal;font-size:8.46819973px;font-family:KyxfnhAdvTT3713a231;-inkscape-font-specification:KyxfnhAdvTT3713a231;writing-mode:lr-tb;fill:#131413;fill-opacity:1;fill-rule:nonzero;stroke:none"
       id="text120"><tspan
         x="0 4.2340999 7.7060618 9.9924755 14.057212"
         y="0"
         sodipodi:role="line"
         id="tspan118">value</tspan></text>
<text
       transform="matrix(1,0,0,-0.88882066,485.80151,691.76672)"
       style="font-variant:normal;font-weight:normal;font-size:6.35099983px;font-family:KyxfnhAdvTT3713a231;-inkscape-font-specification:KyxfnhAdvTT3713a231;writing-mode:lr-tb;fill:#131413;fill-opacity:1;fill-rule:nonzero;stroke:none"
       id="text124"><tspan
         x="0"
         y="0"
         id="tspan122">a</tspan></text>
<text
       transform="matrix(1,0,0,-1,510.80301,688.02502)"
       style="font-variant:normal;font-weight:normal;font-size:8.46819973px;font-family:KyxfnhAdvTT3713a231;-inkscape-font-specification:KyxfnhAdvTT3713a231;writing-mode:lr-tb;fill:#131413;fill-opacity:1;fill-rule:nonzero;stroke:none"
       id="text128"><tspan
         x="0 5.6398211 9.6960888 13.930188 17.402151"
         y="0"
         sodipodi:role="line"
         id="tspan126">Cohen</tspan></text>
<text
       transform="matrix(1,0,0,-1,532.34611,688.02502)"
       style="font-variant:normal;font-weight:normal;font-size:8.46819973px;font-family:'LmnqmvAdvTT3713a231 20';-inkscape-font-specification:'LmnqmvAdvTT3713a231 20';writing-mode:lr-tb;fill:#131413;fill-opacity:1;fill-rule:nonzero;stroke:none"
       id="text132"><tspan
         x="0"
         y="0"
         id="tspan130">’</tspan></text>
<text
       transform="matrix(1,0,0,-1,534.55631,688.02502)"
       style="font-variant:normal;font-weight:normal;font-size:8.46819973px;font-family:KyxfnhAdvTT3713a231;-inkscape-font-specification:KyxfnhAdvTT3713a231;writing-mode:lr-tb;fill:#131413;fill-opacity:1;fill-rule:nonzero;stroke:none"
       id="text136"><tspan
         x="0"
         y="0"
         id="tspan134">s</tspan></text>
<text
       transform="matrix(1,0,0,-1,540.00136,688.02502)"
       style="font-variant:normal;font-weight:normal;font-size:8.46819973px;font-family:KmwktxAdvTT50a2f13e;-inkscape-font-specification:KmwktxAdvTT50a2f13e;writing-mode:lr-tb;fill:#131413;fill-opacity:1;fill-rule:nonzero;stroke:none"
       id="text142"><tspan
         x="0"
         y="0"
         id="tspan138">d</tspan><tspan
         x="-416.17813"
         y="9.9755392"
         id="tspan140">n</tspan></text>
<text
       transform="matrix(1,0,0,-1,154.43576,678.04949)"
       style="font-variant:normal;font-weight:normal;font-size:8.46819973px;font-family:KyxfnhAdvTT3713a231;-inkscape-font-specification:KyxfnhAdvTT3713a231;writing-mode:lr-tb;fill:#131413;fill-opacity:1;fill-rule:nonzero;stroke:none"
       id="text158"><tspan
         x="0 6.0801673 11.000192 18.884085 76.823509 82.903679 87.8237 95.648315 153.64702 159.72719 164.6472 172.47182 230.47052 236.42368 241.53847 249.29533"
         y="0"
         sodipodi:role="line"
         id="tspan144">QTR3QTR4QTR3QTR4</tspan><tspan
         x="-103.40519 -97.765373 -94.276474 -91.016212 -86.959946 -82.725845 -78.686516 -75.426262 -69.617073 -67.330658 -65.255951 -58.735435 -52.900848 -48.666748 -45.194786 -42.468025 -40.376381 -36.675777 -32.611042 -30.324627 -28.249918 -25.963505 -23.829517"
         y="20.46764"
         sodipodi:role="line"
         id="tspan146">Responsetimevariability</tspan><tspan
         x="-94.953926 -90.27948 -84.809021 -80.134575 -74.266113 -71.539352 -67.466148 -63.232052 -59.192719 -30.621014 -26.386913 -0.00847176 4.2256279 8.2649593 12.49906 14.446745 18.680845 24.989655 31.789618 35.871292 40.105389 42.053078 46.287174 76.806564 81.040665 85.080002 89.314102 91.202507 95.436607 101.8047 108.55385 112.78795 116.82728 121.06138 123.00906 127.24316 153.62161 157.85571 161.89503 166.12914 168.01755 172.25165 178.61974 185.36888 189.60298 230.43665 234.67075 238.71008 242.94418 244.83258 249.06668 255.37549 262.17545 266.40955 270.44888 272.56595 276.63068 307.24323 311.47733 313.36572 317.59982 356.34183 360.57593 362.52362 366.75772"
         y="33.220749"
         sodipodi:role="line"
         id="tspan148">PCSO-524®24250.55±94.20262.05±108.14241.25±57254.42±85.890.300.45</tspan><tspan
         x="-94.953926 -90.27948 -88.153961 -84.580383 -80.879776 -77.323135 -73.089035 0.00846464 4.2425647 8.2818956 12.515996 14.463681 18.697781 25.00659 31.806555 35.888226 40.122326 44.161659 46.278709 50.343445 76.815033 81.049133 85.08847 89.322571 91.210976 95.445076 101.81316 108.56232 112.79642 116.83575 121.06985 123.01753 127.25163 153.63008 157.86418 161.9035 166.1376 168.02602 172.26012 178.6282 185.37735 189.61145 193.65079 197.88489 199.83258 204.06668 230.44511 234.67921 238.71855 242.95265 244.84105 249.07515 255.38396 262.18393 266.41803 270.45737 274.69147 276.63916 280.72083"
         y="45.923046"
         sodipodi:role="line"
         id="tspan150">Placebo264.60±122.51270.56±136.35283.75±103.90294.79±100.07</tspan><tspan
         x="-103.40519 -97.765373 -94.276474 -91.016212 -86.959946 -82.725845 -78.686516 -75.426262 -69.617073 -67.330658 -65.255951 -58.735435"
         y="58.625347"
         sodipodi:role="line"
         id="tspan152">Responsetime</tspan><tspan
         x="-94.953926 -90.27948 -84.809021 -80.134575 -74.266113 -71.539352 -67.466148 -63.232052 -59.192719 -30.621014 -26.386913 -0.00847176 4.2256279 8.2649593 12.49906 14.446745 18.680845 24.989655 31.789618 35.871292 40.105389 44.144722 46.261772 50.326508 76.798103 81.032196 85.071533 89.305634 91.194038 95.428139 101.79623 108.54538 112.77948 116.81881 121.05291 123.0006 127.2347 153.61314 157.84724 161.88657 166.12067 168.00908 172.24318 178.61127 185.36041 189.59451 193.63385 197.86795 199.81564 204.04974 230.42818 234.66228 238.70161 242.93571 244.82411 249.05821 255.36702 262.16699 266.40109 270.44043 274.67453 276.62222 280.70389 307.23474 311.46884 313.35727 317.59137 356.33337 360.56747 362.51517 366.74927"
         y="71.327644"
         sodipodi:role="line"
         id="tspan154">PCSO-524®25547.14±123.16540.50±161.68586.48±145.97589.37±152.460.650.14</tspan><tspan
         x="-94.953926 -90.27948 -88.153961 -84.580383 -80.879776 -77.323135 -73.089035 0.00846464 4.2425647 8.2818956 12.515996 14.463681 18.697781 25.00659 31.806555 35.888226 40.122326 44.161659 46.278709 50.343445 76.815033 81.049133 85.08847 89.322571 91.210976 95.445076 101.81316 108.56232 112.79642 116.83575 121.06985 123.01753 127.25163 153.63008 157.86418 161.9035 166.1376 168.02602 172.26012 178.6282 185.37735 189.61145 193.65079 197.88489 199.83258 204.06668 230.44511 234.67921 238.71855 242.95265 244.84105 249.07515 255.38396 262.18393 266.41803 270.45737 274.69147 276.63916 280.72083"
         y="84.029945"
         sodipodi:role="line"
         id="tspan156">Placebo541.40±133.95531.24±150.48582.00±171.18551.71±133.53</tspan></text>
<text
       transform="matrix(1,0,0,-1,51.03057,581.31724)"
       style="font-variant:normal;font-weight:normal;font-size:8.46819973px;font-family:KmwktxAdvTT50a2f13e;-inkscape-font-specification:KmwktxAdvTT50a2f13e;writing-mode:lr-tb;fill:#131413;fill-opacity:1;fill-rule:nonzero;stroke:none"
       id="text162"><tspan
         x="0"
         y="0"
         id="tspan160">D</tspan></text>
<text
       transform="matrix(1,0,0,-1,57.042991,581.31724)"
       style="font-variant:normal;font-weight:normal;font-size:8.46819973px;font-family:'LmnqmvAdvTT3713a231 20';-inkscape-font-specification:'LmnqmvAdvTT3713a231 20';writing-mode:lr-tb;fill:#131413;fill-opacity:1;fill-rule:nonzero;stroke:none"
       id="text166"><tspan
         x="0"
         y="0"
         id="tspan164">′</tspan></text>
<text
       transform="matrix(1,0,0,-1,61.065386,581.31724)"
       style="font-variant:normal;font-weight:normal;font-size:8.46819973px;font-family:KyxfnhAdvTT3713a231;-inkscape-font-specification:KyxfnhAdvTT3713a231;writing-mode:lr-tb;fill:#131413;fill-opacity:1;fill-rule:nonzero;stroke:none"
       id="text228"><tspan
         x="0 4.2340999 6.749155 9.0355692 15.369782"
         y="0"
         sodipodi:role="line"
         id="tspan168">prime</tspan><tspan
         x="-1.5835533 3.0908928 8.5613499 13.235796 19.104259 21.831018 25.904222 30.138323 34.177654 62.749359 66.983459 101.6438 105.8779 107.82558 112.05968 118.36849 125.16846 129.25014 131.36719 135.43192 178.74677 182.98087 184.86926 188.72231 195.18353 201.93269 206.16679 208.11447 212.34857 255.28235 259.51645 261.40485 265.63895 272.00705 278.7562 282.9903 284.93799 289.17209 332.10587 336.33997 338.22836 342.46246 348.77127 355.57123 359.80533 361.75302 365.98712 400.64746 404.88156 406.76996 411.00406 449.74609 453.98019 455.92789 460.16199"
         y="12.7023"
         sodipodi:role="line"
         id="tspan170">PCSO-524®241.49±1.181.11±0.921.76±1.741.29±1.620.490.23</tspan><tspan
         x="-1.5835533 3.0908928 5.2164111 8.7899914 12.490595 16.047239 20.281338 101.65227 105.88637 107.83405 112.06815 118.37696 125.17693 129.25861 131.37566 135.44038 178.46732 182.70142 184.58981 188.82391 195.192 201.94116 206.17526 208.12294 212.35704 255.29082 259.5249 261.41333 265.64743 272.0155 278.76468 282.99878 284.94644 289.18054 332.11432 336.34842 338.23685 342.47095 348.77975 355.57971 359.81381 361.76151 365.99561"
         y="25.404598"
         sodipodi:role="line"
         id="tspan172">Placebo1.24±1.211.22±1.101.24±1.291.12±0.97</tspan><tspan
         x="-10.034817 -4.3949957 -0.33872816 2.2694774 4.9962378 8.5020723 12.202676 16.60614 19.214346 22.914948 26.014309 30.248409 34.287739 38.521839 41.604263"
         y="38.106899"
         sodipodi:role="line"
         id="tspan174">Correctresponse</tspan><tspan
         x="-1.5835533 3.0908928 8.5613499 13.235796 19.104259 21.831018 25.904222 30.138323 34.177654 62.749359 66.983459 97.502853 101.73695 105.77628 107.89333 111.95807 118.36003 125.15999 129.24167 133.47577 135.42345 139.65755 174.31789 178.55199 182.59132 184.57288 188.80698 195.17506 201.92422 206.15833 210.19765 212.3147 216.37944 251.13293 255.36703 259.40637 261.38791 265.62201 271.99011 278.73926 282.97336 287.0127 289.12973 293.19449 328.17661 332.41071 336.45004 338.56711 342.3439 348.74588 355.54584 359.77994 363.81927 365.93631 370.00104 400.61359 404.84769 406.73611 410.97021 449.71222 453.94632 455.89401 460.12811"
         y="50.809196"
         sodipodi:role="line"
         id="tspan176">PCSO-524®2587.48±34.2083.10±34.4878.10±34.9368.11±35.870.560.03</tspan><tspan
         x="-1.5835533 3.0908928 5.2164111 8.7899914 12.490595 16.047239 20.281338 97.511322 101.74542 105.78475 107.9018 111.96654 118.36849 125.16846 129.25014 133.48424 135.43192 139.66602 174.32635 178.56046 182.59979 184.58134 188.81544 195.18353 201.93269 206.16679 210.20612 212.32317 216.38791 251.1414 255.3755 259.41483 261.39639 265.63049 271.99857 278.74774 282.98184 287.02115 289.13821 293.20294 327.95645 332.19055 336.22986 338.21143 342.44553 348.75433 355.55429 359.78839 363.82773 365.94479 370.00952"
         y="63.511497"
         sodipodi:role="line"
         id="tspan178">Placebo84.70±35.3482.18±36.4472.69±33.9571.57±33.43</tspan><tspan
         x="-10.034817 -4.3941488 -0.33703452 2.2720177 4.9996247 8.5063066 12.207757 16.612066 20.847013 24.887192 29.122139 31.654978 34.382584 37.889267 41.150368 45.190548 49.425495 53.465672 56.726776"
         y="76.213799"
         sodipodi:role="line"
         id="tspan180">Correctnon-response</tspan><tspan
         x="-1.5835533 3.0908928 8.5613499 13.235796 19.104259 21.831018 25.904222 30.138323 34.177654 62.749359 66.983459 97.502853 101.73695 105.77628 107.89333 111.95807 118.36003 125.15999 129.24167 131.35872 135.42345 174.31789 178.55199 182.59132 184.57288 188.80698 195.17506 201.92422 206.15833 208.106 212.3401 251.13293 255.36703 259.40637 261.38791 265.62201 271.99011 278.73926 282.97336 284.92105 289.15515 327.94797 332.18207 336.22141 338.20297 342.43707 348.74588 355.54584 359.77994 361.72763 365.96173 400.62207 404.85617 406.74457 410.97867 449.72067 453.95477 455.90247 460.13657"
         y="88.9161"
         sodipodi:role="line"
         id="tspan182">PCSO-524®2523.33±8.6019.95±8.6526.52±8.3526.00±8.750.700.12</tspan><tspan
         x="-1.5835533 3.0908928 5.2164111 8.7899914 12.490595 16.047239 20.281338 97.511322 101.74542 105.78475 107.9018 111.96654 118.36849 125.16846 129.25014 131.36719 135.43192 174.32635 178.56046 182.59979 184.58134 188.81544 195.18353 201.93269 206.16679 208.11447 212.34857 251.1414 255.3755 259.41483 261.39639 265.63049 271.99857 278.74774 282.98184 284.9295 289.1636 327.95645 332.19055 336.22986 338.21143 342.44553 348.75433 355.55429 359.78839 361.73608 365.97018"
         y="101.6184"
         sodipodi:role="line"
         id="tspan184">Placebo21.70±7.0020.88±7.9424.69±6.7325.88±7.82</tspan><tspan
         x="-10.034817 -4.9200244 -2.3795643 0.22864123 4.4627409 7.0286055 12.473658 16.707758 21.5431 25.777201 32.08601 34.372421 37.471783 40.73204 42.798283 47.032383"
         y="114.3207"
         sodipodi:role="line"
         id="tspan186">Errorsofomission</tspan><tspan
         x="-1.5835533 3.0908928 8.5613499 13.235796 19.104259 21.831018 25.904222 30.138323 34.177654 62.749359 66.983459 101.6438 105.8779 107.82558 112.05968 118.36849 125.16846 129.25014 131.36719 135.43192 178.45885 182.69295 184.58134 188.81544 195.18353 201.93269 206.16679 208.11447 212.34857 255.28235 259.51645 261.40485 265.63895 272.00705 278.7562 282.9903 284.93799 289.17209 332.10587 336.33997 338.22836 342.46246 348.77127 355.57123 359.80533 361.75302 365.98712 400.64746 404.88156 406.76996 411.00406 449.74609 453.98019 455.92789 460.16199"
         y="127.023"
         sodipodi:role="line"
         id="tspan188">PCSO-524®210.27±0.270.29±0.270.34±0.270.41±0.290.990.03</tspan><tspan
         x="-1.5835533 3.0908928 5.2164111 8.7899914 12.490595 16.047239 20.281338 101.65227 105.88637 107.83405 112.06815 118.37696 125.17693 129.25861 131.37566 135.44038 178.46732 182.70142 184.58981 188.82391 195.192 201.94116 206.17526 208.12294 212.35704 255.29082 259.5249 261.41333 265.64743 272.0155 278.76468 282.99878 284.94644 289.18054 332.11432 336.34842 338.23685 342.47095 348.77975 355.57971 359.81381 361.76151 365.99561"
         y="139.7253"
         sodipodi:role="line"
         id="tspan190">Placebo0.28±0.210.32±0.260.37±0.260.36±0.25</tspan><tspan
         x="-10.034817 -4.9200244 -2.3795643 0.22864123 4.4627409 7.0286055 12.473658 16.707758 21.5431 25.11668 29.35078 35.718864 42.120827 44.407238 47.506599 50.766857 52.833099 57.067196"
         y="152.4276"
         sodipodi:role="line"
         id="tspan192">Errorsofcommission</tspan><tspan
         x="-1.5835533 3.0908928 8.5613499 13.235796 19.104259 21.831018 25.904222 30.138323 34.177654 62.749359 66.983459 101.6438 105.8779 107.82558 112.05968 118.36849 125.16846 129.25014 131.36719 135.43192 178.45885 182.69295 184.58134 188.81544 195.18353 201.93269 206.16679 208.11447 212.34857 255.28235 259.51645 261.40485 265.63895 272.00705 278.7562 282.9903 284.93799 289.17209 332.10587 336.33997 338.22836 342.46246 348.77127 355.57123 359.80533 361.75302 365.98712 400.64746 404.88156 406.76996 411.00406 449.74609 453.98019 455.92789 459.78091"
         y="165.18069"
         sodipodi:role="line"
         id="tspan194">PCSO-524®210.34±0.230.41±0.220.27±0.220.28±0.230.630.11</tspan><tspan
         x="-1.5835533 3.0908928 5.2164111 8.7899914 12.490595 16.047239 20.281338 101.65227 105.88637 107.83405 112.06815 118.37696 125.17693 129.25861 131.37566 135.44038 178.46732 182.70142 184.58981 188.82391 195.192 201.94116 206.17526 208.12294 212.35704 255.29082 259.5249 261.41333 265.64743 272.0155 278.76468 282.99878 284.94644 289.18054 332.11432 336.34842 338.23685 342.47095 348.77975 355.57971 359.81381 361.76151 365.99561"
         y="177.883"
         sodipodi:role="line"
         id="tspan196">Placebo0.36±0.170.37±0.190.28±0.170.31±0.18</tspan><tspan
         x="-10.034817 -5.3603706 -1.3041029 1.8121946 6.3511496 9.9247303 14.15883 20.467638 26.988152 29.139074 32.255371 35.515629 37.641148 41.875248"
         y="190.5853"
         sodipodi:role="line"
         id="tspan198">Postcommission</tspan><tspan
         x="-1.5835533 3.0908928 8.5613499 13.235796 19.104259 21.831018 25.904222 30.138323 34.177654 62.749359 66.983459 97.502853 101.73695 105.77628 107.89333 111.95807 118.36003 125.15999 129.24167 131.35872 135.42345 174.59734 178.45038 182.68448 184.57288 188.80698 195.17506 201.92422 206.15833 208.106 212.3401 255.27388 259.508 261.39639 265.63049 271.99857 278.74774 282.98184 284.9295 289.1636 332.09738 336.33148 338.21991 342.45401 348.76282 355.56277 359.79688 361.74457 365.97867 400.63901 404.87311 406.76151 410.99561 449.73761 453.97171 455.9194 460.1535"
         y="203.2876"
         sodipodi:role="line"
         id="tspan200">PCSO-524®2410.29±5.8411.45±5.327.15±4.857.22±8.670.260.30</tspan><tspan
         x="-1.5835533 3.0908928 5.2164111 8.7899914 12.490595 16.047239 20.281338 97.79924 101.65227 105.88637 107.83405 112.06815 118.37696 125.17693 129.25861 131.37566 135.44038 174.33482 178.56892 182.60826 184.58981 188.82391 195.192 201.94116 206.17526 208.12294 212.35704 255.29082 259.5249 261.41333 265.64743 272.0155 278.76468 282.99878 284.94644 289.18054 332.11432 336.34842 338.23685 342.47095 348.77975 355.57971 359.81381 361.76151 365.99561"
         y="215.9899"
         sodipodi:role="line"
         id="tspan202">Placebo11.00±5.1410.65±5.438.88±4.758.43±5.14</tspan><tspan
         x="-10.034817 -5.3603706 -1.3041029 1.8121946 6.3511496 9.9247303 14.15883 20.467638 26.988152 29.139074 32.255371 35.515629 37.641148 41.875248 48.184055 50.910816 54.416653 57.676907 61.733177 65.967278 70.006607 73.266861 79.07605 81.226974 83.513382 89.847595"
         y="228.6922"
         sodipodi:role="line"
         id="tspan204">Postcommissionresponsetime</tspan><tspan
         x="-1.5835533 3.0908928 8.5613499 13.235796 19.104259 21.831018 25.904222 30.138323 34.177654 62.749359 66.983459 93.3619 97.596001 101.63533 105.86943 107.81712 112.05122 118.36003 125.15999 129.24167 133.47577 137.51509 139.63214 143.69688 170.16847 174.40257 178.44191 182.67601 184.56441 188.79851 195.1666 201.91576 206.14986 210.18918 214.42328 216.37097 220.60507 246.98352 251.21761 255.25694 259.49106 261.37946 265.61356 271.98163 278.7308 282.9649 287.00421 291.23831 293.186 297.4201 323.79855 328.03265 332.07199 336.30609 338.19449 342.42859 348.7374 355.53735 359.77145 363.81079 368.04489 369.99258 374.07425 400.60513 404.83923 406.72763 410.96173 449.70374 453.93784 455.88553 460.11963"
         y="241.3945"
         sodipodi:role="line"
         id="tspan206">PCSO-524®24545.76±146.87541.00±178.39587.30±171.72549.39±190.900.990.09</tspan><tspan
         x="-1.5835533 3.0908928 5.2164111 8.7899914 12.490595 16.047239 20.281338 93.378838 97.612938 101.65227 105.88637 107.83405 112.06815 118.37696 125.17693 129.25861 133.49271 137.53203 139.64908 143.71382 170.18541 174.41951 178.45885 182.69295 184.58134 188.81544 195.18353 201.93269 206.16679 210.20612 214.44022 216.38791 220.62201 247.00044 251.23454 255.27388 259.508 261.39639 265.63049 271.99857 278.74774 282.98184 287.02115 291.25525 293.20294 297.43704 323.81549 328.04959 332.08893 336.32303 338.21143 342.44553 348.75433 355.55429 359.78839 363.82773 368.06183 370.00952 374.09119"
         y="254.0968"
         sodipodi:role="line"
         id="tspan208">Placebo588.65±220.08532.76±125.79638.31±233.62533.07±185.12</tspan><tspan
         x="-10.034817 -5.3603706 -1.3041029 1.8121946 6.3511496 9.9247303 14.15883 20.467638 26.988152 29.139074 32.255371 35.515629 37.641148 41.875248 48.184055 52.418156 55.949394 58.557602 60.844013 64.400658 68.48233 70.768745 72.902733 75.189148 77.263855"
         y="266.7991"
         sodipodi:role="line"
         id="tspan210">Postcommissionvariability</tspan><tspan
         x="-1.5835533 3.0908928 8.5613499 13.235796 19.104259 21.831018 25.904222 30.138323 34.177654 62.749359 66.983459 93.3619 97.596001 101.63533 105.86943 107.81712 112.05122 118.36003 125.15999 129.24167 133.47577 137.51509 139.63214 143.69688 170.16847 174.40257 178.44191 182.67601 184.56441 188.79851 195.1666 201.91576 206.14986 210.18918 214.42328 216.37097 220.60507 246.98352 251.21761 255.25694 259.49106 261.37946 265.61356 271.98163 278.7308 282.9649 287.00421 291.23831 293.186 297.4201 323.79855 328.03265 332.07199 336.30609 338.19449 342.42859 348.7374 355.53735 359.77145 363.81079 368.04489 369.99258 374.07425 400.60513 404.83923 406.72763 410.96173 449.70374 453.93784 455.88553 460.11963"
         y="279.5014"
         sodipodi:role="line"
         id="tspan212">PCSO-524®24189.90±132.14217.10±132.14217.35±154.35267.00±144.740.840.13</tspan><tspan
         x="-1.5835533 3.0908928 5.2164111 8.7899914 12.490595 16.047239 20.281338 93.378838 97.612938 101.65227 105.88637 107.83405 112.06815 118.37696 125.17693 129.25861 133.49271 137.53203 139.64908 143.71382 170.18541 174.41951 178.45885 182.69295 184.58134 188.81544 195.18353 201.93269 206.16679 210.20612 214.44022 216.38791 220.62201 247.00044 251.23454 255.27388 259.508 261.39639 265.63049 271.99857 278.74774 282.98184 287.02115 291.25525 293.20294 297.43704 323.81549 328.04959 332.08893 336.32303 338.21143 342.44553 348.75433 355.55429 359.78839 363.82773 368.06183 370.00952 374.09119"
         y="292.2037"
         sodipodi:role="line"
         id="tspan214">Placebo235.35±164.26283.24±145.12240.38±171.10203.21±144.98</tspan><tspan
         x="-10.034817 -3.9546494 0.11008643 2.2610092 4.5474229 8.1040668 10.25499 14.48909 18.020329 20.306744 24.312201 27.038961 33.381641 36.108402 39.614239 42.874496 46.930763 51.164864 55.204193 58.464451"
         y="304.90601"
         sodipodi:role="line"
         id="tspan216">Anticipatoryresponse</tspan><tspan
         x="-1.5835533 3.0908928 8.5613499 13.235796 19.104259 21.831018 25.904222 30.138323 34.177654 62.749359 66.983459 101.6438 105.8779 107.82558 112.05968 118.36849 125.16846 129.25014 131.36719 135.43192 178.45885 182.69295 184.58134 188.81544 195.18353 201.93269 206.16679 208.11447 212.34857 255.28235 259.51645 261.40485 265.63895 272.00705 278.7562 282.9903 284.93799 289.17209 332.10587 336.33997 338.22836 342.46246 348.77127 355.57123 359.80533 361.75302 365.98712 400.64746 404.88156 406.76996 411.00406 449.74609 453.98019 455.92789 460.16199"
         y="317.60831"
         sodipodi:role="line"
         id="tspan218">PCSO-524®240.05±0.100.07±0.120.06±0.140.07±0.140.860.06</tspan><tspan
         x="-1.5835533 3.0908928 5.2164111 8.7899914 12.490595 16.047239 20.281338 101.65227 105.88637 107.83405 112.06815 118.37696 125.17693 129.25861 131.37566 135.44038 178.46732 182.70142 184.58981 188.82391 195.192 201.94116 206.17526 208.12294 212.35704 255.29082 259.5249 261.41333 265.64743 272.0155 278.76468 282.99878 284.94644 289.18054 332.11432 336.34842 338.23685 342.47095 348.77975 355.57971 359.81381 361.76151 365.99561"
         y="330.31061"
         sodipodi:role="line"
         id="tspan220">Placebo0.06±0.120.09±0.180.05±0.060.06±0.08</tspan><tspan
         x="-10.034817 -2.5404601 1.4734666 3.7598805 5.893867 8.1802807 12.245017 14.395939 20.289806 23.016567 26.522402 29.782658 33.838924 38.073025 42.112358 45.372616 48.861511"
         y="343.01291"
         sodipodi:role="line"
         id="tspan222">Multipleresponses</tspan><tspan
         x="-1.5835533 3.0908928 8.5613499 13.235796 19.104259 21.831018 25.904222 30.138323 34.177654 62.749359 66.983459 101.6438 105.8779 107.82558 112.05968 118.36849 125.16846 129.25014 131.36719 135.43192 178.45885 182.69295 184.58134 188.81544 195.18353 201.93269 206.16679 208.11447 212.34857 255.28235 259.51645 261.40485 265.63895 272.00705 278.7562 282.9903 284.93799 289.17209 332.10587 336.33997 338.22836 342.46246 348.77127 355.57123 359.80533 361.75302 365.98712 400.64746 404.88156 406.76996 411.00406 449.74609 453.98019 455.92789 460.16199"
         y="355.71521"
         sodipodi:role="line"
         id="tspan224">PCSO-524®243.33±5.356.70±6.072.90±4.914.79±6.170.050.48</tspan><tspan
         x="-1.5835533 3.0908928 5.2164111 8.7899914 12.490595 16.047239 20.281338 101.65227 105.88637 107.83405 112.06815 118.37696 125.17693 129.25861 131.37566 135.44038 178.46732 182.70142 184.58981 188.82391 195.192 201.94116 206.17526 208.12294 212.35704 255.29082 259.5249 261.41333 265.64743 272.0155 278.76468 282.99878 284.94644 289.18054 332.11432 336.34842 338.23685 342.47095 348.77975 355.57971 359.81381 361.76151 365.99561"
         y="368.41751"
         sodipodi:role="line"
         id="tspan226">Placebo5.85±7.137.00±7.357.19±6.596.21±6.42</tspan></text>
<text
       transform="matrix(1,0,0,-0.88882066,51.023602,196.4409)"
       style="font-variant:normal;font-weight:normal;font-size:6.35099983px;font-family:KyxfnhAdvTT3713a231;-inkscape-font-specification:KyxfnhAdvTT3713a231;writing-mode:lr-tb;fill:#131413;fill-opacity:1;fill-rule:nonzero;stroke:none"
       id="text232"><tspan
         x="0"
         y="0"
         id="tspan230">a</tspan></text>
<text
       transform="matrix(1,0,0,-1,55.218899,192.6991)"
       style="font-variant:normal;font-weight:normal;font-size:8.46819973px;font-family:KyxfnhAdvTT3713a231;-inkscape-font-specification:KyxfnhAdvTT3713a231;writing-mode:lr-tb;fill:#131413;fill-opacity:1;fill-rule:nonzero;stroke:none"
       id="text236"><tspan
         x="0 5.4958615 9.7299614 13.769293 16.496054 20.001888 22.728647 25.277576 29.511677 33.551006 38.030685 44.551197 48.63287 50.783794 53.07021 55.204193 59.438293 61.496067 67.389931 71.090538 75.155273 81.557228 85.791328 89.322571 91.930779 94.217194 97.316551 101.55065 107.85946 110.14587 113.64324 116.9035"
         y="0"
         sodipodi:role="line"
         id="tspan234">Bonferronimultiplecomparisontest</tspan></text>
</g></svg>