<?xml version="1.0" encoding="UTF-8" standalone="no"?>
<!-- Created with Inkscape (http://www.inkscape.org/) -->

<svg
   xmlns:dc="http://purl.org/dc/elements/1.1/"
   xmlns:cc="http://creativecommons.org/ns#"
   xmlns:rdf="http://www.w3.org/1999/02/22-rdf-syntax-ns#"
   xmlns:svg="http://www.w3.org/2000/svg"
   xmlns="http://www.w3.org/2000/svg"
   xmlns:sodipodi="http://sodipodi.sourceforge.net/DTD/sodipodi-0.dtd"
   xmlns:inkscape="http://www.inkscape.org/namespaces/inkscape"
   version="1.1"
   id="svg2"
   xml:space="preserve"
   width="793.70135"
   height="1054.488"
   viewBox="0 0 793.70135 1054.488"
   sodipodi:docname="table9.svg"
   inkscape:version="0.92.0 r15299"><metadata
     id="metadata8"><rdf:RDF><cc:Work
         rdf:about=""><dc:format>image/svg+xml</dc:format><dc:type
           rdf:resource="http://purl.org/dc/dcmitype/StillImage" /><dc:title></dc:title></cc:Work></rdf:RDF></metadata><defs
     id="defs6"><clipPath
       clipPathUnits="userSpaceOnUse"
       id="clipPath390"><path
         d="m 504.90701,55.049 h 38.098 V 44.901 h -38.098 z"
         id="path388"
         inkscape:connector-curvature="0" /></clipPath><clipPath
       clipPathUnits="userSpaceOnUse"
       id="clipPath406"><path
         d="m 504.90701,55.049 h 38.098 V 44.901 h -38.098 z"
         id="path404"
         inkscape:connector-curvature="0" /></clipPath><clipPath
       clipPathUnits="userSpaceOnUse"
       id="clipPath424"><path
         d="m 504.90701,55.049 h 38.098 V 44.901 h -38.098 z"
         id="path422"
         inkscape:connector-curvature="0" /></clipPath></defs><sodipodi:namedview
     pagecolor="#ffffff"
     bordercolor="#666666"
     borderopacity="1"
     objecttolerance="10"
     gridtolerance="10"
     guidetolerance="10"
     inkscape:pageopacity="0"
     inkscape:pageshadow="2"
     inkscape:window-width="1920"
     inkscape:window-height="988"
     id="namedview4"
     showgrid="false"
     inkscape:zoom="1.2660339"
     inkscape:cx="242.04228"
     inkscape:cy="771.08507"
     inkscape:window-x="0"
     inkscape:window-y="27"
     inkscape:window-maximized="1"
     inkscape:current-layer="g10" /><g
     id="g10"
     inkscape:groupmode="layer"
     inkscape:label="fulltext"
     transform="matrix(1.3333333,0,0,-1.3333333,0,1054.488)"><path
       d="M 51.023998,711.60901 H 289.134 v -0.567 H 51.023998 Z"
       style="fill:#131413;fill-opacity:1;fill-rule:evenodd;stroke:#131413;stroke-width:0.75;stroke-linecap:round;stroke-linejoin:round;stroke-miterlimit:10;stroke-dasharray:none;stroke-opacity:1"
       id="path206"
       inkscape:connector-curvature="0" /><g
       id="g208"
       transform="translate(289.134,327.17502)"><path
         d="M 0,0 H -238.11 V 0.56699997 H 0 V 0"
         style="fill:#131413;fill-opacity:1;fill-rule:evenodd;stroke:#131413;stroke-width:0.75;stroke-linecap:round;stroke-linejoin:round;stroke-miterlimit:10;stroke-dasharray:none;stroke-opacity:1"
         id="path210"
         inkscape:connector-curvature="0" /></g><g
       id="g212"
       transform="translate(164.409,690.52002)"><path
         d="M 0,0 H -113.386 V 0.56699997 H 0"
         style="fill:#131413;fill-opacity:1;fill-rule:evenodd;stroke:#131413;stroke-width:0.75;stroke-linecap:round;stroke-linejoin:round;stroke-miterlimit:10;stroke-dasharray:none;stroke-opacity:1"
         id="path214"
         inkscape:connector-curvature="0" /></g><g
       id="g216"
       transform="translate(259.88,690.52002)"><path
         d="M 0,0 H -95.471001 V 0.56699997 H 0"
         style="fill:#131413;fill-opacity:1;fill-rule:evenodd;stroke:#131413;stroke-width:0.75;stroke-linecap:round;stroke-linejoin:round;stroke-miterlimit:10;stroke-dasharray:none;stroke-opacity:1"
         id="path218"
         inkscape:connector-curvature="0" /></g><g
       id="g220"
       transform="translate(289.134,690.52002)"><path
         d="M 0,0 H -29.254 V 0.56699997 H 0"
         style="fill:#131413;fill-opacity:1;fill-rule:evenodd;stroke:#131413;stroke-width:0.75;stroke-linecap:round;stroke-linejoin:round;stroke-miterlimit:10;stroke-dasharray:none;stroke-opacity:1"
         id="path222"
         inkscape:connector-curvature="0" /></g><text
       transform="matrix(1,0,0,-1,51.023602,727.02979)"
       style="font-variant:normal;font-weight:normal;font-size:8.46819973px;font-family:RbxrnqAdvTTb8864ccf;-inkscape-font-specification:RbxrnqAdvTTb8864ccf;writing-mode:lr-tb;fill:#131413;fill-opacity:1;fill-rule:nonzero;stroke:none"
       id="text226"><tspan
         x="0 4.9877696 9.2218695 13.896316 16.267412 23.23674"
         y="0"
         sodipodi:role="line"
         id="tspan224">Table9</tspan></text>
<text
       transform="matrix(1,0,0,-1,89.232119,727.02979)"
       style="font-variant:normal;font-weight:normal;font-size:8.46819973px;font-family:KyxfnhAdvTT3713a231;-inkscape-font-specification:KyxfnhAdvTT3713a231;writing-mode:lr-tb;fill:#131413;fill-opacity:1;fill-rule:nonzero;stroke:none"
       id="text240"><tspan
         x="0 4.6744461 8.9085464 15.530679 19.764778 22.051191 26.361506 36.167683 39.868286 44.102383 47.904606 51.605209 55.83931 58.218872 60.505287 63.884098 69.43924 73.67334 78.000587 80.287003 83.987602 88.314857 94.835365 98.535973 105.14964 108.85024 114.44772 118.75803 122.45863 125.78664 129.48724 131.84987 134.13628 138.37038 145.39899 149.09959 153.33369 160.92967 164.63026 170.28703 176.3672 180.06779 183.7684 191.37285 195.60695"
         y="0"
         sodipodi:role="line"
         id="tspan228">Symptomchecklistoutcomesatbaselineandatweek14</tspan><tspan
         x="-38.208519 -33.974419 -30.443178 -28.292255 -22.212088 -18.714722 -15.014119 -8.6799049 -6.3934913 -3.8022223 -0.22864208 3.4719613 5.5551381 12.075652 15.589955 19.824055 24.210583 28.444683 31.010548 35.244648 39.283978 43.518078"
         y="9.9247303"
         sodipodi:role="line"
         id="tspan230">betweentreatmentgroups</tspan><tspan
         x="-38.208519 -33.534073 -29.477804 -23.075846 -18.841745 -16.724695 -12.490595 75.172211 80.812027 84.300926 87.561188 91.100891 93.251816 95.538231 99.602966 105.49683 109.73093 111.84798 114.39691 117.00511 120.70572 123.23771 126.93832 131.00305 134.57663 138.27724 170.63422 177.89146 181.46506 185.16565 191.49986 195.73396"
         y="28.800348"
         sodipodi:role="line"
         id="tspan232">SymptomBaselinedifferencesWeek14</tspan><tspan
         x="-38.208519 -32.568695 -28.512428 -24.938848 -20.704748 -16.665419 -10.771551 -8.485137 -2.1509235 1.5496799 5.6144156 9.1879959 11.736924 15.971024 75.172211 79.406311 81.294716 85.528816 170.64268 174.87679 176.82448 181.05858"
         y="49.267986"
         sodipodi:role="line"
         id="tspan234">Changeinenergy0.660.84</tspan><tspan
         x="-38.208519 -33.534073 -29.477804 -27.326881 -20.865644 -18.714722 -15.987962 -13.439034 -11.152619 -9.0186338 -5.4450531 -3.1586392 -1.0246528 3.2094469 75.172211 79.406311 81.294716 85.528816 170.64268 174.87679 176.82448 181.05858"
         y="61.970287"
         sodipodi:role="line"
         id="tspan236">Skinirritation0.130.69</tspan><tspan
         x="-38.208519 -33.534073 -30.045174 -26.34457 -21.941107 -18.240503 -14.175767 -12.024844 -7.7907443 -4.2595053 75.163742 79.397842 81.286247 85.520348"
         y="74.672585"
         sodipodi:role="line"
         id="tspan238">Feelcolder0.01</tspan></text>
<text
       transform="matrix(1,0,0,-0.88882066,178.8094,656.10687)"
       style="font-variant:normal;font-weight:normal;font-size:6.35099983px;font-family:KyxfnhAdvTT3713a231;-inkscape-font-specification:KyxfnhAdvTT3713a231;writing-mode:lr-tb;fill:#131413;fill-opacity:1;fill-rule:nonzero;stroke:none"
       id="text244"><tspan
         x="0"
         y="0"
         id="tspan242">a</tspan></text>
<text
       transform="matrix(1,0,0,-1,259.88019,652.36517)"
       style="font-variant:normal;font-weight:normal;font-size:8.46819973px;font-family:KyxfnhAdvTT3713a231;-inkscape-font-specification:KyxfnhAdvTT3713a231;writing-mode:lr-tb;fill:#131413;fill-opacity:1;fill-rule:nonzero;stroke:none"
       id="text298"><tspan
         x="0 4.2340999 6.1817856 10.415886"
         y="0"
         sodipodi:role="line"
         id="tspan246">0.48</tspan><tspan
         x="-208.85968 -204.18523 -200.69633 -196.99573 -194.85327 -192.70235 -188.46825 -182.10016 -177.86606 -173.87755 -171.59113 -169.45714 -165.88356 -95.470482 -91.236382 -89.347969 -85.113869 3.81e-06 4.2341037 6.1817894 10.41589"
         y="12.7023"
         sodipodi:role="line"
         id="tspan248">Feelinghotter0.080.14</tspan><tspan
         x="-208.85968 -204.18523 -200.69633 -196.99573 -192.59227 -188.35817 -186.24112 -182.66753 -178.96693 -95.470482 -91.236382 -89.347969 -85.113869 3.81e-06 4.2341037 6.1817894 10.41589"
         y="25.455408"
         sodipodi:role="line"
         id="tspan250">Feeldizzy0.190.54</tspan><tspan
         x="-208.85968 -204.18523 -198.31677 -194.61617 -191.05952 -188.9086 -186.62218 -182.55745 -95.478951 -91.24485 -89.356438 -85.122337 -0.0084643904 4.2256355 6.1733212 10.407421"
         y="38.157707"
         sodipodi:role="line"
         id="tspan252">Sweating0.530.44</tspan><tspan
         x="-208.85968 -203.21985 -201.09433 -197.01266 -194.2859 -191.73697 -188.03638 -181.70216 -177.46806 -175.35101 -172.09074 -169.96523 -165.88356 -95.470482 -91.236382 -89.347969 -85.113869 3.81e-06 4.2341037 6.1817894 10.41589"
         y="50.860008"
         sodipodi:role="line"
         id="tspan254">Blurredvision0.260.46</tspan><tspan
         x="-208.85968 -202.77951 -199.28214 -195.04803 -191.96562 -188.26501 -184.20027 -180.11861 -95.478951 -91.24485 -89.356438 -85.122337 -0.0084643904 4.2256355 6.1733212 10.407421"
         y="63.562305"
         sodipodi:role="line"
         id="tspan256">Nauseous0.630.87</tspan><tspan
         x="-208.85968 -202.77951 -199.28214 -195.58154 -193.04955 -188.56987 -185.84311 -182.33727 -180.05086 -174.2332 -171.94679 -167.88205 -164.30847 -161.58171 -158.07588 -154.37527 -151.27591 -147.70233 -95.487419 -91.253319 -89.364906 -85.130806 -0.01693259 4.2171674 6.1648531 10.398953"
         y="76.26461"
         sodipodi:role="line"
         id="tspan258">Heartrateincreased0.890.86</tspan><tspan
         x="-208.85968 -202.77951 -200.23904 -193.83708 -187.31657 -183.23491 -179.00081 -176.94302 -95.478951 -91.24485 -89.356438 -85.122337 -0.0084643904 4.2256355 6.1733212 10.407421"
         y="88.966904"
         sodipodi:role="line"
         id="tspan260">Drymouth0.340.78</tspan><tspan
         x="-208.85968 -204.18523 -202.11052 -197.87642 -191.50833 -187.93475 -184.23415 -177.89993 -173.66583 -170.1346 -167.84819 -163.84273 -95.470482 -91.236382 -89.347969 -85.113869 3.81e-06 4.2341037 6.1817894 10.41589"
         y="101.66921"
         sodipodi:role="line"
         id="tspan262">Stomachpains0.660.58</tspan><tspan
         x="-208.85968 -203.74489 -199.73096 -193.83708 -189.60298 -186.07175 -183.78534 -179.7206 -95.478951 -91.24485 -89.356438 -85.122337 -0.0084643904 4.2256355 6.1733212 10.407421"
         y="114.37151"
         sodipodi:role="line"
         id="tspan264">Eyepains0.500.81</tspan><tspan
         x="-208.85968 -203.74489 -200.23904 -195.31056 -191.07646 -187.60449 -185.31808 -181.25334 -95.478951 -91.24485 -89.356438 -85.122337 -0.0084643904 4.2256355 6.1733212 10.407421"
         y="127.07381"
         sodipodi:role="line"
         id="tspan266">Earpains0.320.60</tspan><tspan
         x="-208.85968 -203.21985 -199.16359 -195.59001 -191.35591 -187.31657 -181.42271 -179.13629 -172.80208 -168.56798 -164.52866 -158.44849 -154.95111 -150.47144 -146.23734 -142.7061 -140.41968 -138.34497 -134.64438 -132.11238 -127.87828 -95.487419 -91.253319 -89.364906 -85.130806 -0.01693259 4.2171674 6.1648531 10.398953"
         y="139.77609"
         sodipodi:role="line"
         id="tspan268">Changeinbowelpatterns0.900.62</tspan><tspan
         x="-208.85968 -203.21985 -200.69633 -196.46223 -194.34518 -191.08493 -188.95941 -184.87773 -95.470482 -91.236382 -89.347969 -85.113869 3.81e-06 4.2341037 6.1817894 10.41589"
         y="152.47839"
         sodipodi:role="line"
         id="tspan270">Bruising0.120.69</tspan><tspan
         x="-208.85968 -203.21985 -199.16359 -195.59001 -191.35591 -187.31657 -181.42271 -179.13629 -172.80208 -168.56798 -166.00212 -162.42853 -158.72794 -156.58548 -152.5038 -150.21739 -146.15265 -95.470482 -91.236382 -89.347969 -85.113869 3.81e-06 4.2341037 6.1817894 10.41589"
         y="165.18069"
         sodipodi:role="line"
         id="tspan272">Changeinbreathing0.730.40</tspan><tspan
         x="-208.85968 -203.21985 -199.16359 -195.59001 -191.35591 -187.31657 -181.42271 -179.13629 -172.80208 -168.56798 -164.52866 -160.29456 -156.25522 -152.55461 -95.478951 -91.24485 -89.356438 -85.122337 -0.0084643904 4.2256355 6.1733212 10.407421"
         y="177.883"
         sodipodi:role="line"
         id="tspan274">Changeinhunger0.340.94</tspan><tspan
         x="-208.85968 -203.21985 -199.16359 -195.59001 -191.35591 -187.31657 -181.42271 -179.13629 -172.80208 -170.51567 -166.45093 -164.16452 -161.63252 -158.37227 -95.470482 -91.236382 -89.347969 -85.113869 3.81e-06 4.2341037 6.1817894 10.41589"
         y="190.5853"
         sodipodi:role="line"
         id="tspan276">Changeinthirst0.710.38</tspan><tspan
         x="-208.85968 -203.21985 -199.16359 -194.92949 -191.84706 -189.69614 -187.40973 -183.34499 -179.64438 -177.5612 -175.2748 -171.21005 -95.470482 -91.236382 -89.347969 -85.113869 3.81e-06 4.2341037 6.1817894 10.41589"
         y="203.2876"
         sodipodi:role="line"
         id="tspan278">Constipation0.620.60</tspan><tspan
         x="-208.85968 -202.77951 -200.23904 -197.95264 -193.88789 -190.31432 -188.02791 -185.89392 -181.65982 -95.470482 -91.236382 -89.347969 -85.113869 3.81e-06 4.2341037 6.1817894 10.41589"
         y="215.9899"
         sodipodi:role="line"
         id="tspan280">Urination0.370.23</tspan><tspan
         x="-208.85968 -204.18523 -200.69633 -198.40991 -196.27592 -192.04182 -188.0025 -95.478951 -91.24485 -89.356438 -85.122337 -0.0084643904 4.2256355 6.1733212 10.407421"
         y="228.6922"
         sodipodi:role="line"
         id="tspan282">Fatigue0.440.86</tspan><tspan
         x="-208.85968 -204.18523 -202.11052 -199.38376 -195.81865 -192.70235 -95.470482 -91.236382 -89.347969 -85.113869 3.81e-06 4.2341037 6.1817894 10.41589"
         y="241.3945"
         sodipodi:role="line"
         id="tspan284">Stress1.000.44</tspan><tspan
         x="-208.85968 -202.77951 -198.71477 -194.48067 -192.4229 -188.72229 -186.57983 -95.478951 -91.24485 -89.356438 -85.122337 -0.0084643904 4.2256355 6.1733212 10.407421"
         y="254.14761"
         sodipodi:role="line"
         id="tspan286">Anxiety0.830.22</tspan><tspan
         x="-208.85968 -201.36531 -197.35139 -193.11729 -95.478951 -91.24485 -89.356438 -85.122337 -0.0084643904 4.2256355 6.1733212 10.407421"
         y="266.84991"
         sodipodi:role="line"
         id="tspan288">Mood0.080.06</tspan><tspan
         x="-208.85968 -201.36531 -197.85948 -191.33897 -187.31657 -184.58981 -95.470482 -91.236382 -89.347969 -85.113869 3.81e-06 4.2341037 6.1817894 10.41589"
         y="279.55222"
         sodipodi:role="line"
         id="tspan290">Memory0.900.56</tspan><tspan
         x="-208.85968 -202.77951 -200.69633 -198.40991 -194.85327 -190.61917 -188.5614 -186.27498 -182.21025 -95.470482 -91.236382 -89.347969 -85.113869 3.81e-06 4.2341037 6.1817894 10.41589"
         y="292.25452"
         sodipodi:role="line"
         id="tspan292">Attention0.730.68</tspan><tspan
         x="-208.85968 -204.18523 -202.11052 -198.40991 -194.85327 -188.45131 -184.21721 -180.74525 -178.45883 -176.32484 -172.75127 -170.02451 -165.95131 -95.478951 -91.24485 -89.356438 -85.122337 -0.0084643904 4.2256355 6.1733212 10.407421"
         y="304.95682"
         sodipodi:role="line"
         id="tspan294">Sleeppatterns0.071.00</tspan><tspan
         x="-208.85968 -204.10054 -201.49234 -197.79173 -191.45752 -187.22342 -184.65756 -95.478951 -91.24485 -89.356438 -85.122337 -0.0084643904 4.2256355 6.1733212 10.407421"
         y="317.65912"
         sodipodi:role="line"
         id="tspan296">Tremors0.130.06</tspan></text>
<text
       transform="matrix(1,0,0,-0.88882066,274.33691,338.57001)"
       style="font-variant:normal;font-weight:normal;font-size:6.35099983px;font-family:KyxfnhAdvTT3713a231;-inkscape-font-specification:KyxfnhAdvTT3713a231;writing-mode:lr-tb;fill:#131413;fill-opacity:1;fill-rule:nonzero;stroke:none"
       id="text304"><tspan
         x="0"
         y="0"
         id="tspan300">b</tspan><tspan
         x="-223.31384"
         y="22.838196"
         id="tspan302">a</tspan></text>
<text
       transform="matrix(1,0,0,-1,55.2756,314.47549)"
       style="font-variant:normal;font-weight:normal;font-size:8.46819973px;font-family:KyxfnhAdvTT3713a231;-inkscape-font-specification:KyxfnhAdvTT3713a231;writing-mode:lr-tb;fill:#131413;fill-opacity:1;fill-rule:nonzero;stroke:none"
       id="text308"><tspan
         x="0 4.6744461 6.9608603 11.051001 15.285101 17.571514 20.17972 22.466133 26.166737 29.757254 33.991352 39.394066 43.628166 47.32877 50.589024 54.289627 56.398209 58.684624 62.918724 69.718689 73.952789 76.239204 78.788132 81.514893 85.215492 87.798294 91.498901 95.732994 99.433601 106.2251 108.51151 115.86191 119.12216 123.35626 129.74976 133.98386 136.27026 140.50436 146.87245 153.27441 157.50851"
         y="0"
         sodipodi:role="line"
         id="tspan306">Significantbaselinedifferenceinsymptomsof</tspan></text>
<text
       transform="matrix(1,0,0,-1,218.66105,314.47549)"
       style="font-variant:normal;font-weight:normal;font-size:8.46819973px;font-family:KmwktxAdvTT50a2f13e;-inkscape-font-specification:KmwktxAdvTT50a2f13e;writing-mode:lr-tb;fill:#131413;fill-opacity:1;fill-rule:nonzero;stroke:none"
       id="text312"><tspan
         x="0 2.2864139 5.9870172 9.5775337 11.863948 14.150362 18.384462 25.675581 29.376184 33.610283 35.769676 40.003777 43.70438"
         y="0"
         sodipodi:role="line"
         id="tspan310">feelingcolder</tspan></text>
<text
       transform="matrix(1,0,0,-1,268.71658,314.47549)"
       style="font-variant:normal;font-weight:normal;font-size:8.46819973px;font-family:KyxfnhAdvTT3713a231;-inkscape-font-specification:KyxfnhAdvTT3713a231;writing-mode:lr-tb;fill:#131413;fill-opacity:1;fill-rule:nonzero;stroke:none"
       id="text318"><tspan
         x="0 6.0801673 10.314267 12.473659 16.174261"
         y="0"
         sodipodi:role="line"
         id="tspan314">which</tspan><tspan
         x="-217.70049 -213.46722 -211.35103 -208.2525 -204.55275 -200.48039 -196.24715 -192.70828 -189.16942 -186.44351 -182.93852 -176.47813 -172.9054 -168.42656 -165.16716 -163.04248 -158.80923 -154.73688"
         y="9.9247303"
         sodipodi:role="line"
         id="tspan316">disappearedatstudy</tspan></text>
<text
       transform="matrix(1,0,0,-1,118.14352,304.55076)"
       style="font-variant:normal;font-weight:normal;font-size:8.46819973px;font-family:'LmnqmvAdvTT3713a231 20';-inkscape-font-specification:'LmnqmvAdvTT3713a231 20';writing-mode:lr-tb;fill:#131413;fill-opacity:1;fill-rule:nonzero;stroke:none"
       id="text322"><tspan
         x="0"
         y="0"
         id="tspan320">’</tspan></text>
<text
       transform="matrix(1,0,0,-1,120.29444,304.55076)"
       style="font-variant:normal;font-weight:normal;font-size:8.46819973px;font-family:KyxfnhAdvTT3713a231;-inkscape-font-specification:KyxfnhAdvTT3713a231;writing-mode:lr-tb;fill:#131413;fill-opacity:1;fill-rule:nonzero;stroke:none"
       id="text326"><tspan
         x="0 5.442512 9.1405745 13.20277"
         y="0"
         sodipodi:role="line"
         id="tspan324">send</tspan></text>
<text
       transform="matrix(1,0,0,-0.88882066,51.023602,295.4834)"
       style="font-variant:normal;font-weight:normal;font-size:6.35099983px;font-family:KyxfnhAdvTT3713a231;-inkscape-font-specification:KyxfnhAdvTT3713a231;writing-mode:lr-tb;fill:#131413;fill-opacity:1;fill-rule:nonzero;stroke:none"
       id="text330"><tspan
         x="0"
         y="0"
         id="tspan328">b</tspan></text>
<text
       transform="matrix(1,0,0,-1,55.672401,291.7417)"
       style="font-variant:normal;font-weight:normal;font-size:8.46819973px;font-family:KyxfnhAdvTT3713a231;-inkscape-font-specification:KyxfnhAdvTT3713a231;writing-mode:lr-tb;fill:#131413;fill-opacity:1;fill-rule:nonzero;stroke:none"
       id="text334"><tspan
         x="0 4.8184056 7.545166 11.24577 15.361314 19.595413 21.881828 26.115929 33.44939 36.709644 38.996059 43.23016 47.337238 49.62365 52.35041 54.636826 58.337429 61.911007 66.145111 69.845711 76.654144 79.380905 83.615005 89.46653 92.193291 95.89389 99.594498 101.88091 104.0403 108.2744 112.5085 118.89352 123.12762"
         y="0"
         sodipodi:role="line"
         id="tspan332">Trendingsignificanceforfeelingsof</tspan></text>
<text
       transform="matrix(1,0,0,-1,184.65155,291.7417)"
       style="font-variant:normal;font-weight:normal;font-size:8.46819973px;font-family:KmwktxAdvTT50a2f13e;-inkscape-font-specification:KmwktxAdvTT50a2f13e;writing-mode:lr-tb;fill:#131413;fill-opacity:1;fill-rule:nonzero;stroke:none"
       id="text338"><tspan
         x="0 2.2864139 5.2756886 8.9762917 15.056459 19.163536 22.423794"
         y="0"
         sodipodi:role="line"
         id="tspan336">tremors</tspan></text>
<text
       transform="matrix(1,0,0,-1,213.51118,291.7417)"
       style="font-variant:normal;font-weight:normal;font-size:8.46819973px;font-family:KyxfnhAdvTT3713a231;-inkscape-font-specification:KyxfnhAdvTT3713a231;writing-mode:lr-tb;fill:#131413;fill-opacity:1;fill-rule:nonzero;stroke:none"
       id="text344"><tspan
         x="0 6.0801673 8.366581 10.542909 17.969521 20.69628 24.396883 28.630983 32.865082 36.447132 38.733547 41.019958 45.118568 49.352669 55.780033 58.066444 65.41684 67.703255 71.937355"
         y="0"
         sodipodi:role="line"
         id="tspan340">withreductionsinthe</tspan><tspan
         x="-162.47935 -157.8049 -152.33444 -147.79549 -141.71533 -139.17487 -134.94077 -130.90143 -126.66734 -118.19913 -113.96503 -111.44998 -107.21588 -103.17654 -96.77459 -93.073982 -89.009247 -82.607292 -80.320877 -76.256142 -72.555534 -70.023544 -66.322945 -62.825577 -59.565319 -56.025612 -50.580559 -48.429638 -41.968399 -39.817478 -35.583378 -29.782661 -25.548561 -23.431511 -19.730907 -16.233541 -12.532938 -8.4682016 -2.0662429 2.1678569 4.6829123 8.9170122 12.956344"
         y="9.9755392"
         sodipodi:role="line"
         id="tspan342">PCSO-524®groupandincreasesintheplacebogroup</tspan></text>
</g></svg>