<?xml version="1.0" encoding="UTF-8" standalone="no"?>
<!-- Created with Inkscape (http://www.inkscape.org/) -->

<svg
   xmlns:dc="http://purl.org/dc/elements/1.1/"
   xmlns:cc="http://creativecommons.org/ns#"
   xmlns:rdf="http://www.w3.org/1999/02/22-rdf-syntax-ns#"
   xmlns:svg="http://www.w3.org/2000/svg"
   xmlns="http://www.w3.org/2000/svg"
   xmlns:sodipodi="http://sodipodi.sourceforge.net/DTD/sodipodi-0.dtd"
   xmlns:inkscape="http://www.inkscape.org/namespaces/inkscape"
   version="1.1"
   id="svg2"
   xml:space="preserve"
   width="793.70135"
   height="1054.488"
   viewBox="0 0 793.70135 1054.488"
   sodipodi:docname="table3.svg"
   inkscape:version="0.92.0 r15299"><metadata
     id="metadata8"><rdf:RDF><cc:Work
         rdf:about=""><dc:format>image/svg+xml</dc:format><dc:type
           rdf:resource="http://purl.org/dc/dcmitype/StillImage" /><dc:title></dc:title></cc:Work></rdf:RDF></metadata><defs
     id="defs6"><clipPath
       clipPathUnits="userSpaceOnUse"
       id="clipPath636"><path
         d="m 504.90701,55.049 h 38.098 V 44.901 h -38.098 z"
         id="path634"
         inkscape:connector-curvature="0" /></clipPath><clipPath
       clipPathUnits="userSpaceOnUse"
       id="clipPath652"><path
         d="m 504.90701,55.049 h 38.098 V 44.901 h -38.098 z"
         id="path650"
         inkscape:connector-curvature="0" /></clipPath><clipPath
       clipPathUnits="userSpaceOnUse"
       id="clipPath670"><path
         d="m 504.90701,55.049 h 38.098 V 44.901 h -38.098 z"
         id="path668"
         inkscape:connector-curvature="0" /></clipPath></defs><sodipodi:namedview
     pagecolor="#ffffff"
     bordercolor="#666666"
     borderopacity="1"
     objecttolerance="10"
     gridtolerance="10"
     guidetolerance="10"
     inkscape:pageopacity="0"
     inkscape:pageshadow="2"
     inkscape:window-width="960"
     inkscape:window-height="988"
     id="namedview4"
     showgrid="false"
     inkscape:zoom="0.63301695"
     inkscape:cx="373.61857"
     inkscape:cy="701.17301"
     inkscape:window-x="0"
     inkscape:window-y="27"
     inkscape:window-maximized="0"
     inkscape:current-layer="g10" /><g
     id="g10"
     inkscape:groupmode="layer"
     inkscape:label="fulltext"
     transform="matrix(1.3333333,0,0,-1.3333333,0,1054.488)"><path
       d="M 51.023998,721.58698 H 544.252 v -0.567 H 51.023998 Z"
       style="fill:#131413;fill-opacity:1;fill-rule:evenodd;stroke:#131413;stroke-width:0.75;stroke-linecap:round;stroke-linejoin:round;stroke-miterlimit:10;stroke-dasharray:none;stroke-opacity:1"
       id="path396"
       inkscape:connector-curvature="0" /><path
       d="M 544.25201,571.01099 H 51.024017 v 0.567 H 544.25201 Z"
       style="fill:#131413;fill-opacity:1;fill-rule:evenodd;stroke:#131413;stroke-width:0.75;stroke-linecap:round;stroke-linejoin:round;stroke-miterlimit:10;stroke-dasharray:none;stroke-opacity:1"
       id="path398"
       inkscape:connector-curvature="0" /><g
       id="g400"
       transform="translate(100.063,680.315)"><path
         d="M 0,0 H -49.039001 V 0.56699997 H 0"
         style="fill:#131413;fill-opacity:1;fill-rule:evenodd;stroke:#131413;stroke-width:0.75;stroke-linecap:round;stroke-linejoin:round;stroke-miterlimit:10;stroke-dasharray:none;stroke-opacity:1"
         id="path402"
         inkscape:connector-curvature="0" /></g><g
       id="g404"
       transform="translate(176.76801,700.66803)"><path
         d="M 0,0 H -76.705002 V 0.56699997 H 0"
         style="fill:#131413;fill-opacity:1;fill-rule:evenodd;stroke:#131413;stroke-width:0.75;stroke-linecap:round;stroke-linejoin:round;stroke-miterlimit:10;stroke-dasharray:none;stroke-opacity:1"
         id="path406"
         inkscape:connector-curvature="0" /></g><g
       id="g408"
       transform="translate(299.39502,700.66803)"><path
         d="M 0,0 H -114.009 V 0.56699997 H 0"
         style="fill:#131413;fill-opacity:1;fill-rule:evenodd;stroke:#131413;stroke-width:0.75;stroke-linecap:round;stroke-linejoin:round;stroke-miterlimit:10;stroke-dasharray:none;stroke-opacity:1"
         id="path410"
         inkscape:connector-curvature="0" /></g><g
       id="g412"
       transform="translate(426.61398,700.66803)"><path
         d="M 0,0 H -118.602 V 0.56699997 H 0"
         style="fill:#131413;fill-opacity:1;fill-rule:evenodd;stroke:#131413;stroke-width:0.75;stroke-linecap:round;stroke-linejoin:round;stroke-miterlimit:10;stroke-dasharray:none;stroke-opacity:1"
         id="path414"
         inkscape:connector-curvature="0" /></g><g
       id="g416"
       transform="translate(544.25201,700.66803)"><path
         d="M 0,0 H -109.02 V 0.56699997 H 0"
         style="fill:#131413;fill-opacity:1;fill-rule:evenodd;stroke:#131413;stroke-width:0.75;stroke-linecap:round;stroke-linejoin:round;stroke-miterlimit:10;stroke-dasharray:none;stroke-opacity:1"
         id="path418"
         inkscape:connector-curvature="0" /></g><g
       id="g420"
       transform="translate(150.80299,680.315)"><path
         d="M 0,0 H -50.740002 V 0.56699997 H 0"
         style="fill:#131413;fill-opacity:1;fill-rule:evenodd;stroke:#131413;stroke-width:0.75;stroke-linecap:round;stroke-linejoin:round;stroke-miterlimit:10;stroke-dasharray:none;stroke-opacity:1"
         id="path422"
         inkscape:connector-curvature="0" /></g><g
       id="g424"
       transform="translate(185.386,680.315)"><path
         d="M 0,0 H -34.583 V 0.56699997 H 0"
         style="fill:#131413;fill-opacity:1;fill-rule:evenodd;stroke:#131413;stroke-width:0.75;stroke-linecap:round;stroke-linejoin:round;stroke-miterlimit:10;stroke-dasharray:none;stroke-opacity:1"
         id="path426"
         inkscape:connector-curvature="0" /></g><g
       id="g428"
       transform="translate(254.778,680.315)"><path
         d="M 0,0 H -69.391998 V 0.56699997 H 0"
         style="fill:#131413;fill-opacity:1;fill-rule:evenodd;stroke:#131413;stroke-width:0.75;stroke-linecap:round;stroke-linejoin:round;stroke-miterlimit:10;stroke-dasharray:none;stroke-opacity:1"
         id="path430"
         inkscape:connector-curvature="0" /></g><g
       id="g432"
       transform="translate(308.013,680.315)"><path
         d="M 0,0 H -53.235001 V 0.56699997 H 0"
         style="fill:#131413;fill-opacity:1;fill-rule:evenodd;stroke:#131413;stroke-width:0.75;stroke-linecap:round;stroke-linejoin:round;stroke-miterlimit:10;stroke-dasharray:none;stroke-opacity:1"
         id="path434"
         inkscape:connector-curvature="0" /></g><g
       id="g436"
       transform="translate(362.608,680.315)"><path
         d="M 0,0 H -54.595001 V 0.56699997 H 0"
         style="fill:#131413;fill-opacity:1;fill-rule:evenodd;stroke:#131413;stroke-width:0.75;stroke-linecap:round;stroke-linejoin:round;stroke-miterlimit:10;stroke-dasharray:none;stroke-opacity:1"
         id="path438"
         inkscape:connector-curvature="0" /></g><g
       id="g440"
       transform="translate(435.23099,680.315)"><path
         d="M 0,0 H -72.624001 V 0.56699997 H 0"
         style="fill:#131413;fill-opacity:1;fill-rule:evenodd;stroke:#131413;stroke-width:0.75;stroke-linecap:round;stroke-linejoin:round;stroke-miterlimit:10;stroke-dasharray:none;stroke-opacity:1"
         id="path442"
         inkscape:connector-curvature="0" /></g><g
       id="g444"
       transform="translate(502.129,680.315)"><path
         d="M 0,0 H -66.898003 V 0.56699997 H 0"
         style="fill:#131413;fill-opacity:1;fill-rule:evenodd;stroke:#131413;stroke-width:0.75;stroke-linecap:round;stroke-linejoin:round;stroke-miterlimit:10;stroke-dasharray:none;stroke-opacity:1"
         id="path446"
         inkscape:connector-curvature="0" /></g><g
       id="g448"
       transform="translate(544.25201,680.315)"><path
         d="M 0,0 H -42.123001 V 0.56699997 H 0"
         style="fill:#131413;fill-opacity:1;fill-rule:evenodd;stroke:#131413;stroke-width:0.75;stroke-linecap:round;stroke-linejoin:round;stroke-miterlimit:10;stroke-dasharray:none;stroke-opacity:1"
         id="path450"
         inkscape:connector-curvature="0" /></g><text
       transform="matrix(1,0,0,-1,51.023602,727.02979)"
       style="font-variant:normal;font-weight:normal;font-size:8.46819973px;font-family:RbxrnqAdvTTb8864ccf;-inkscape-font-specification:RbxrnqAdvTTb8864ccf;writing-mode:lr-tb;fill:#131413;fill-opacity:1;fill-rule:nonzero;stroke:none"
       id="text454"><tspan
         x="0 4.8192525 9.0541992 13.55166 15.838921 21.657421"
         y="0"
         sodipodi:role="line"
         id="tspan452">Table3</tspan></text>
<text
       transform="matrix(1,0,0,-1,87.4792,727.02979)"
       style="font-variant:normal;font-weight:normal;font-size:8.46819973px;font-family:KyxfnhAdvTT3713a231;-inkscape-font-specification:KyxfnhAdvTT3713a231;writing-mode:lr-tb;fill:#131413;fill-opacity:1;fill-rule:nonzero;stroke:none"
       id="text460"><tspan
         x="0 4.5389552 8.7730551 10.890105 15.369782 18.630039 22.169746 28.571707 32.805805 34.922855 40.765915 45.000011 48.531254 54.933212 59.167313 63.206642 65.933403 69.43924 73.67334 77.712669 79.999084 83.555725 89.000778 93.234879 95.749931 99.984032 104.02337 107.72397 114.05818 118.29228 122.33161 128.28476 134.74599 138.98009 145.28891 147.57532 151.64005 155.21364 158.91423 161.05669 163.20761 167.44171 171.48105 175.79135 179.05162 182.54051 186.77461 190.98331 195.21741 197.33446 201.03506 205.09979 209.18147 213.41557 216.498 218.78441 224.15324 227.85385 231.91858 238.32054 244.7225 248.42311 252.48784 254.77426 258.27164 261.97223 264.11469 266.26559 270.49969"
         y="0"
         sodipodi:role="line"
         id="tspan456">Fullsampledemographicsbrokendownbylocation,sex,diagnosisandmedication</tspan><tspan
         x="12.583744 18.528421 22.76252 26.327633 28.918901 32.619503 34.761959 39.241638"
         y="18.824808"
         sodipodi:role="line"
         id="tspan458">Overall(</tspan></text>
<text
       transform="matrix(1,0,0,-1,129.32057,708.20498)"
       style="font-variant:normal;font-weight:normal;font-size:8.46819973px;font-family:KmwktxAdvTT50a2f13e;-inkscape-font-specification:KmwktxAdvTT50a2f13e;writing-mode:lr-tb;fill:#131413;fill-opacity:1;fill-rule:nonzero;stroke:none"
       id="text464"><tspan
         x="0"
         y="0"
         id="tspan462">N</tspan></text>
<text
       transform="matrix(1,0,0,-1,137.14519,708.20498)"
       style="font-variant:normal;font-weight:normal;font-size:8.46819973px;font-family:KyxfnhAdvTT3713a231;-inkscape-font-specification:KyxfnhAdvTT3713a231;writing-mode:lr-tb;fill:#131413;fill-opacity:1;fill-rule:nonzero;stroke:none"
       id="text468"><tspan
         x="0 6.9693284 11.203428 15.24276 19.47686 48.234867 52.714542 56.948643 59.065693 62.639275 67.11895 71.35305 73.4701 76.730354 78.855873 82.429459 86.663559 91.050087 95.28418 98.815422 101.42363 103.71004 105.84402 109.41761 111.70403 115.76876 119.46936 123.47482 125.76123 131.13007"
         y="0"
         sodipodi:role="line"
         id="tspan466">=144)Totaldistantparticipants(</tspan></text>
<text
       transform="matrix(1,0,0,-1,270.94275,708.20498)"
       style="font-variant:normal;font-weight:normal;font-size:8.46819973px;font-family:KmwktxAdvTT50a2f13e;-inkscape-font-specification:KmwktxAdvTT50a2f13e;writing-mode:lr-tb;fill:#131413;fill-opacity:1;fill-rule:nonzero;stroke:none"
       id="text472"><tspan
         x="0"
         y="0"
         id="tspan470">N</tspan></text>
<text
       transform="matrix(1,0,0,-1,278.76736,708.20498)"
       style="font-variant:normal;font-weight:normal;font-size:8.46819973px;font-family:KyxfnhAdvTT3713a231;-inkscape-font-specification:KyxfnhAdvTT3713a231;writing-mode:lr-tb;fill:#131413;fill-opacity:1;fill-rule:nonzero;stroke:none"
       id="text476"><tspan
         x="0 6.9693284 11.203428 15.19195 29.249163 33.72884 37.96294 40.07999 43.780594 48.184055 52.418156 56.457489 59.065693 62.325951 64.451469 66.602394 72.496262 76.730354 80.261597 82.869804 85.156219 87.290199 90.863785 93.1502 97.214935 100.91553 104.98027 107.1312 112.57625"
         y="0"
         sodipodi:role="line"
         id="tspan474">=41)Totalon-siteparticipants(</tspan></text>
<text
       transform="matrix(1,0,0,-1,394.02803,708.20498)"
       style="font-variant:normal;font-weight:normal;font-size:8.46819973px;font-family:KmwktxAdvTT50a2f13e;-inkscape-font-specification:KmwktxAdvTT50a2f13e;writing-mode:lr-tb;fill:#131413;fill-opacity:1;fill-rule:nonzero;stroke:none"
       id="text480"><tspan
         x="0"
         y="0"
         id="tspan478">N</tspan></text>
<text
       transform="matrix(1,0,0,-1,401.85265,708.20498)"
       style="font-variant:normal;font-weight:normal;font-size:8.46819973px;font-family:KyxfnhAdvTT3713a231;-inkscape-font-specification:KyxfnhAdvTT3713a231;writing-mode:lr-tb;fill:#131413;fill-opacity:1;fill-rule:nonzero;stroke:none"
       id="text484"><tspan
         x="0 6.9744091 11.205122 15.258002 19.310883 33.373177 38.044235 40.149429 44.380142 47.899525 52.375816 55.632687 59.177475 65.584511 69.815224 71.920418 77.819366 80.424187 84.6549 88.707779 91.431152 94.510193 96.793213 98.898415 102.46861 107.40218"
         y="0"
         sodipodi:role="line"
         id="tspan482">=103)Finalsample(on-site)(</tspan></text>
<text
       transform="matrix(1,0,0,-1,511.94772,708.20498)"
       style="font-variant:normal;font-weight:normal;font-size:8.46819973px;font-family:KmwktxAdvTT50a2f13e;-inkscape-font-specification:KmwktxAdvTT50a2f13e;writing-mode:lr-tb;fill:#131413;fill-opacity:1;fill-rule:nonzero;stroke:none"
       id="text488"><tspan
         x="0"
         y="0"
         id="tspan486">N</tspan></text>
<text
       transform="matrix(1,0,0,-1,519.77233,708.20498)"
       style="font-variant:normal;font-weight:normal;font-size:8.46819973px;font-family:KyxfnhAdvTT3713a231;-inkscape-font-specification:KyxfnhAdvTT3713a231;writing-mode:lr-tb;fill:#131413;fill-opacity:1;fill-rule:nonzero;stroke:none"
       id="text498"><tspan
         x="0 6.918519 10.830828 15.064927 19.104259"
         y="0"
         sodipodi:role="line"
         id="tspan490">=112)</tspan><tspan
         x="-419.70093 -415.02646 -409.60681 -404.93237 -399.00464 -396.39642 -392.16232 -388.12299 -383.88889 -368.95947 -364.4205 -362.13409 -358.57745 -355.00388 -351.30325 -347.23853 -334.36688 -329.69241 -324.22195 -319.68301 -313.60284 -311.06238 -306.82828 -302.78894 -298.55484 -264.97845 -260.30399 -258.22928 -254.52869 -251.03131 -247.33072 -243.26598 -211.74733 -207.07289 -201.60243 -196.92799 -191.05952 -188.33276 -184.25957 -180.02547 -175.98613 -157.16132 -152.62236 -150.33595 -146.77931 -143.20573 -139.50513 -135.44038 -84.529572 -79.855125 -74.384666 -69.71022 -63.841759 -61.114998 -57.041794 -52.807697 -48.768364 -40.266293 -37.539532 -33.466328 -29.232227 -17.64773 -12.973285 -10.847766 -7.2741857 -3.5735826 -0.076216079 4.1578836 10.52597 13.134175 17.368275 21.407606"
         y="20.17972"
         sodipodi:role="line"
         id="tspan492">PCSO-524®PlaceboPCSO-524®PlaceboPCSO-524®PlaceboPCSO-524®(45)Placebo(41)</tspan><tspan
         x="-468.74026 -461.24591 -457.74008 -455.45364 -419.70093 -415.46683 -368.95947 -364.72537 -334.37534 -330.14124 -264.98691 -260.75281 -211.7558 -207.5217 -157.16132 -153.07964 -84.538033 -80.303932 -17.639254 -13.405153"
         y="40.706635"
         sodipodi:role="line"
         id="tspan494">Male5766122444434055</tspan><tspan
         x="-468.74026 -464.0658 -460.5769 -454.0564 -450.54208 -448.25568 -419.7009 -415.4668 -364.81851 -330.23438 -260.84595 -211.74733 -207.51323 -157.15285 -84.529564 -80.295464"
         y="53.408936"
         sodipodi:role="line"
         id="tspan496">Female1744113314</tspan></text>
<text
       transform="matrix(1,0,0,-0.88882066,443.50861,658.60138)"
       style="font-variant:normal;font-weight:normal;font-size:6.35099983px;font-family:KyxfnhAdvTT3713a231;-inkscape-font-specification:KyxfnhAdvTT3713a231;writing-mode:lr-tb;fill:#131413;fill-opacity:1;fill-rule:nonzero;stroke:none"
       id="text502"><tspan
         x="0"
         y="0"
         id="tspan500">a</tspan></text>
<text
       transform="matrix(1,0,0,-1,502.129,654.80298)"
       style="font-variant:normal;font-weight:normal;font-size:8.46819973px;font-family:KyxfnhAdvTT3713a231;-inkscape-font-specification:KyxfnhAdvTT3713a231;writing-mode:lr-tb;fill:#131413;fill-opacity:1;fill-rule:nonzero;stroke:none"
       id="text510"><tspan
         x="0"
         y="0"
         id="tspan504">3</tspan><tspan
         x="-451.10101 -445.02084 -442.93765 -439.23706 -435.17233 -430.93823 -426.8989 -423.63864 -421.57239 -402.07013 -397.83603 -351.32867 -347.09457 -312.61206 -247.35612 -243.12202 -194.12502 -189.89091 -139.53053 -135.44885 -66.907249 -62.673149 -0.0084720096 4.2256279"
         y="12.7023"
         sodipodi:role="line"
         id="tspan506">Diagnosis363781828192228</tspan><tspan
         x="-451.10101 -443.60666 -440.1008 -435.8667 -433.74966 -430.17609 -426.47546 -424.33304 -422.1821 -417.948"
         y="25.404598"
         sodipodi:role="line"
         id="tspan508">Medication</tspan></text>
<text
       transform="matrix(1,0,0,-0.88882066,88.214203,633.1463)"
       style="font-variant:normal;font-weight:normal;font-size:6.35099983px;font-family:KyxfnhAdvTT3713a231;-inkscape-font-specification:KyxfnhAdvTT3713a231;writing-mode:lr-tb;fill:#131413;fill-opacity:1;fill-rule:nonzero;stroke:none"
       id="text514"><tspan
         x="0"
         y="0"
         id="tspan512">b</tspan></text>
<text
       transform="matrix(1,0,0,-1,100.063,629.40448)"
       style="font-variant:normal;font-weight:normal;font-size:8.46819973px;font-family:KyxfnhAdvTT3713a231;-inkscape-font-specification:KyxfnhAdvTT3713a231;writing-mode:lr-tb;fill:#131413;fill-opacity:1;fill-rule:nonzero;stroke:none"
       id="text526"><tspan
         x="0 4.2340999 50.741451 54.975552 89.458061 154.71402 158.94812 207.94511 212.17921 262.53961 266.62128 335.16287 339.39697 402.06165 406.29575"
         y="0"
         sodipodi:role="line"
         id="tspan516">232971416151322</tspan><tspan
         x="207.94511 213.58493 215.71045 217.99687 221.49423 223.78065 225.91463 262.53961 267.52737 275.80081 278.409 284.9295 289.0112 293.9397 298.47864 306.75208 309.47882 315.8215 320.0556 335.15442 341.61566 344.22385 348.45795 352.49728 357.42578 363.82773 366.5545 370.5769 402.04471 408.44669 411.17343 415.24664 419.48074 424.31607 430.71805 433.32626 437.56036"
         y="12.7023"
         sodipodi:role="line"
         id="tspan518">RitalinLA(mg)SA(mg)4(20)0(0)2(30)5(9)</tspan><tspan
         x="207.94511 213.58493 217.6412 221.87531 225.40654 228.98012 231.70688 233.79852 262.53961 267.52737 275.80081 278.409 284.9295 289.0112 293.9397 298.47864 306.75208 309.47882 315.8215 320.0556 335.15442 341.61566 344.22385 348.45795 352.49728 357.42578 363.82773 366.5545 370.5769 402.04471 408.44669 411.17343 415.24664 419.48074 424.31607 430.71805 433.32626 437.56036"
         y="25.404598"
         sodipodi:role="line"
         id="tspan520">ConcertaLA(mg)SA(mg)7(36)0(0)9(35)0(0)</tspan><tspan
         x="207.94511 214.02528 217.58192 221.6636 225.3642 262.53961 267.52737 275.80081 278.409 284.9295 289.0112 293.9397 298.47864 306.75208 309.47882 315.8215 320.0556 335.15442 341.61566 344.22385 348.45795 352.49728 354.61432 358.61978 363.54828 370.00952 372.61774 376.85184 402.04471 408.44669 411.17343 415.24664 420.17514 426.57709 429.1853 433.4194 437.45874"
         y="38.106899"
         sodipodi:role="line"
         id="tspan522">DexamLA(mg)SA(mg)1(12.5)0(0)0(0)2(10)</tspan><tspan
         x="207.94511 212.61957 214.74507 217.35329 221.05389 223.19633 225.34726 229.04787 231.57986 262.53113 267.51889 275.79233 278.40054 284.92105 289.00272 293.93121 298.47018 306.74359 309.47037 315.81305 320.04715 335.14594 341.60718 344.21539 348.44949 352.4888 357.4173 363.81927 366.54602 370.56842 402.03625 408.4382 411.16498 415.23819 419.47229 424.30762 430.70956 433.31778 437.55188"
         y="50.809196"
         sodipodi:role="line"
         id="tspan524">StratteraLA(mg)SA(mg)1(40)0(0)2(32)0(0)</tspan></text>
<text
       transform="matrix(1,0,0,-1,51.02366,558.29701)"
       style="font-variant:normal;font-weight:normal;font-size:8.46819973px;font-family:KmwktxAdvTT50a2f13e;-inkscape-font-specification:KmwktxAdvTT50a2f13e;writing-mode:lr-tb;fill:#131413;fill-opacity:1;fill-rule:nonzero;stroke:none"
       id="text530"><tspan
         x="0 6.0801673 9.5775337 13.278137 17.342873"
         y="0"
         sodipodi:role="line"
         id="tspan528">Dexam</tspan></text>
<text
       transform="matrix(1,0,0,-1,76.648432,558.29701)"
       style="font-variant:normal;font-weight:normal;font-size:8.46819973px;font-family:KyxfnhAdvTT3713a231;-inkscape-font-specification:KyxfnhAdvTT3713a231;writing-mode:lr-tb;fill:#131413;fill-opacity:1;fill-rule:nonzero;stroke:none"
       id="text534"><tspan
         x="0 4.2340999 7.7060618 11.940162 15.471401 21.87336 26.10746 30.146791 33.847393 35.930573 39.631176 45.965389 48.251801 52.31654 56.017139"
         y="0"
         sodipodi:role="line"
         id="tspan532">dexamphetamine,</tspan></text>
<text
       transform="matrix(1,0,0,-1,136.91661,558.29701)"
       style="font-variant:normal;font-weight:normal;font-size:8.46819973px;font-family:KmwktxAdvTT50a2f13e;-inkscape-font-specification:KmwktxAdvTT50a2f13e;writing-mode:lr-tb;fill:#131413;fill-opacity:1;fill-rule:nonzero;stroke:none"
       id="text538"><tspan
         x="0 4.5355678"
         y="0"
         sodipodi:role="line"
         id="tspan536">LA</tspan></text>
<text
       transform="matrix(1,0,0,-1,148.76362,558.29701)"
       style="font-variant:normal;font-weight:normal;font-size:8.46819973px;font-family:KyxfnhAdvTT3713a231;-inkscape-font-specification:KyxfnhAdvTT3713a231;writing-mode:lr-tb;fill:#131413;fill-opacity:1;fill-rule:nonzero;stroke:none"
       id="text542"><tspan
         x="0 2.2864139 6.3511496 10.58525 16.894058 20.594662 24.092028 26.378443 28.512428 32.746529 36.785858"
         y="0"
         sodipodi:role="line"
         id="tspan540">longacting,</tspan></text>
<text
       transform="matrix(1,0,0,-1,189.80899,558.29701)"
       style="font-variant:normal;font-weight:normal;font-size:8.46819973px;font-family:KmwktxAdvTT50a2f13e;-inkscape-font-specification:KmwktxAdvTT50a2f13e;writing-mode:lr-tb;fill:#131413;fill-opacity:1;fill-rule:nonzero;stroke:none"
       id="text546"><tspan
         x="0 6.0801673"
         y="0"
         sodipodi:role="line"
         id="tspan544">mg</tspan></text>
<text
       transform="matrix(1,0,0,-1,202.22337,558.29701)"
       style="font-variant:normal;font-weight:normal;font-size:8.46819973px;font-family:KyxfnhAdvTT3713a231;-inkscape-font-specification:KyxfnhAdvTT3713a231;writing-mode:lr-tb;fill:#131413;fill-opacity:1;fill-rule:nonzero;stroke:none"
       id="text550"><tspan
         x="0 3.7006032 7.7653394 11.465942 13.997934 17.698538 21.763273 27.606331 34.126846 36.277767 38.428692 40.715103 42.849091 47.083191 49.598248 53.298847 61.902538 66.136642 69.667877 74.596375 78.830475 82.869804 86.130058 91.879967 96.114067 100.94941 103.23582 107.30056 110.87414 115.41309 118.52939 122.76349 126.29473 129.99533 132.07851 134.80527 136.89691 142.79079 149.31129 152.82561 157.05971 159.17674 162.87735 166.37473 168.66113 170.79512 175.02922 179.01775"
         y="0"
         sodipodi:role="line"
         id="tspan548">averagemilligramperdoseofthatspecificmedication,</tspan></text>
<text
       transform="matrix(1,0,0,-1,385.56835,558.29701)"
       style="font-variant:normal;font-weight:normal;font-size:8.46819973px;font-family:KmwktxAdvTT50a2f13e;-inkscape-font-specification:KmwktxAdvTT50a2f13e;writing-mode:lr-tb;fill:#131413;fill-opacity:1;fill-rule:nonzero;stroke:none"
       id="text554"><tspan
         x="0 4.2340999"
         y="0"
         sodipodi:role="line"
         id="tspan552">SA</tspan></text>
<text
       transform="matrix(1,0,0,-1,397.01736,558.29701)"
       style="font-variant:normal;font-weight:normal;font-size:8.46819973px;font-family:KyxfnhAdvTT3713a231;-inkscape-font-specification:KyxfnhAdvTT3713a231;writing-mode:lr-tb;fill:#131413;fill-opacity:1;fill-rule:nonzero;stroke:none"
       id="text558"><tspan
         x="0 3.260257 7.3165245 11.550625 14.06568 18.545357 22.24596 25.802605 27.953527 30.239941 34.304676"
         y="0"
         sodipodi:role="line"
         id="tspan556">shortacting</tspan></text>
<text
       transform="matrix(1,0,0,-0.88882066,51.023602,549.24078)"
       style="font-variant:normal;font-weight:normal;font-size:6.35099983px;font-family:KyxfnhAdvTT3713a231;-inkscape-font-specification:KyxfnhAdvTT3713a231;writing-mode:lr-tb;fill:#131413;fill-opacity:1;fill-rule:nonzero;stroke:none"
       id="text562"><tspan
         x="0"
         y="0"
         id="tspan560">a</tspan></text>
<text
       transform="matrix(1,0,0,-1,55.218899,545.49908)"
       style="font-variant:normal;font-weight:normal;font-size:8.46819973px;font-family:KyxfnhAdvTT3713a231;-inkscape-font-specification:KyxfnhAdvTT3713a231;writing-mode:lr-tb;fill:#131413;fill-opacity:1;fill-rule:nonzero;stroke:none"
       id="text566"><tspan
         x="0 4.9877696 9.2218695 12.753109 15.361314 21.25518 27.335348 30.832716 36.277767 42.171635 45.431892 47.557411 51.791508 55.830841 58.117256 60.649246 62.935661 66.433029 70.133629 74.198364 78.678047 82.91214 85.02919 87.527313 90.254074 93.819183 96.427391 100.12799 104.19273 107.76631 113.66018 115.94659 122.28081 124.56721 128.63196 134.52582 138.75992 142.79926 149.20122 153.43532 156.96655 161.84424 166.07834 170.8544 173.4626 177.16321 183.49742 187.19803 189.2812 192.9818 198.35065 202.58475 206.11598 208.26691 214.34708 217.90372 221.47729 227.87926 230.16566 232.75694 236.33052 240.03113 242.17357 248.57553 252.27614 256.34088 260.82056 265.05466 267.5697 271.8038 275.84314 280.07724"
         y="0"
         sodipodi:role="line"
         id="tspan564">Therewasasignificantdifferenceinthenumberoffemalesbetweentreatmentgroups</tspan></text>
<text
       transform="matrix(1,0,0,-0.88882066,51.023602,536.48492)"
       style="font-variant:normal;font-weight:normal;font-size:6.35099983px;font-family:KyxfnhAdvTT3713a231;-inkscape-font-specification:KyxfnhAdvTT3713a231;writing-mode:lr-tb;fill:#131413;fill-opacity:1;fill-rule:nonzero;stroke:none"
       id="text570"><tspan
         x="0"
         y="0"
         id="tspan568">b</tspan></text>
<text
       transform="matrix(1,0,0,-1,55.615799,532.68652)"
       style="font-variant:normal;font-weight:normal;font-size:8.46819973px;font-family:KyxfnhAdvTT3713a231;-inkscape-font-specification:KyxfnhAdvTT3713a231;writing-mode:lr-tb;fill:#131413;fill-opacity:1;fill-rule:nonzero;stroke:none"
       id="text574"><tspan
         x="0 4.9877696 7.2741838 11.33892 15.573019 19.959547 24.193647 27.665609 30.392368 32.543293 34.694214 38.394817 40.537273 44.618946 48.319546 52.384285 54.670696 60.039536 62.647743 66.348343 68.490799 70.641724 74.342323 80.676537 82.962952 89.297165 93.531265 96.09713 100.33123 104.37056 106.52148 110.75558 116.5563 120.7904 124.82973 128.09 131.57889 135.81299 141.61371 144.34047 150.68315 154.91725 159.75259 162.039 166.10374 168.71194 172.94604 175.5119 181.91386 185.61447 187.69765 189.98405 194.0488 200.45076 203.17752 207.64873 213.28854 217.79362 223.87379 226.41426 230.64836 234.68768 238.92178"
         y="0"
         sodipodi:role="line"
         id="tspan572">Eightparticipantsfailedtoprovidedosage(mg)information(PCSO-524®</tspan></text>
<text
       transform="matrix(1,0,0,-1,302.96344,532.68652)"
       style="font-variant:normal;font-weight:normal;font-size:8.46819973px;font-family:KmwktxAdvTT50a2f13e;-inkscape-font-specification:KmwktxAdvTT50a2f13e;writing-mode:lr-tb;fill:#131413;fill-opacity:1;fill-rule:nonzero;stroke:none"
       id="text578"><tspan
         x="0"
         y="0"
         id="tspan576">n</tspan></text>
<text
       transform="matrix(1,0,0,-1,309.42468,532.68652)"
       style="font-variant:normal;font-weight:normal;font-size:8.46819973px;font-family:KyxfnhAdvTT3713a231;-inkscape-font-specification:KyxfnhAdvTT3713a231;writing-mode:lr-tb;fill:#131413;fill-opacity:1;fill-rule:nonzero;stroke:none"
       id="text582"><tspan
         x="0 6.918519 11.152619 13.718484 18.198162 20.484575 26.361506 32.763466 36.464069 40.528805 44.762905 46.879955 53.281914 57.516014 61.555344 66.035019 70.269119 72.78418 77.01828 81.05761 83.344025 87.40876 93.302628 99.704582 103.40519 107.46992 109.62084 113.32145 116.87809 119.02901 121.31543 125.38017 131.78212 134.06854 138.13327 142.36737 148.16809 150.77629 155.45074 160.9212 165.59564 171.46411 174.19087 178.26407 182.49817 186.48669"
         y="0"
         sodipodi:role="line"
         id="tspan580">=2);twocouldnotprovidemedicationtype(PCSO-524®</tspan></text>
<text
       transform="matrix(1,0,0,-1,504.5066,532.68652)"
       style="font-variant:normal;font-weight:normal;font-size:8.46819973px;font-family:KmwktxAdvTT50a2f13e;-inkscape-font-specification:KmwktxAdvTT50a2f13e;writing-mode:lr-tb;fill:#131413;fill-opacity:1;fill-rule:nonzero;stroke:none"
       id="text586"><tspan
         x="0"
         y="0"
         id="tspan584">n</tspan></text>
<text
       transform="matrix(1,0,0,-1,510.90856,532.68652)"
       style="font-variant:normal;font-weight:normal;font-size:8.46819973px;font-family:KyxfnhAdvTT3713a231;-inkscape-font-specification:KyxfnhAdvTT3713a231;writing-mode:lr-tb;fill:#131413;fill-opacity:1;fill-rule:nonzero;stroke:none"
       id="text590"><tspan
         x="0 6.9735622 11.203428"
         y="0"
         sodipodi:role="line"
         id="tspan588">=0)</tspan></text>
</g></svg>