<?xml version="1.0" encoding="UTF-8" standalone="no"?>
<!-- Created with Inkscape (http://www.inkscape.org/) -->

<svg
   xmlns:dc="http://purl.org/dc/elements/1.1/"
   xmlns:cc="http://creativecommons.org/ns#"
   xmlns:rdf="http://www.w3.org/1999/02/22-rdf-syntax-ns#"
   xmlns:svg="http://www.w3.org/2000/svg"
   xmlns="http://www.w3.org/2000/svg"
   xmlns:sodipodi="http://sodipodi.sourceforge.net/DTD/sodipodi-0.dtd"
   xmlns:inkscape="http://www.inkscape.org/namespaces/inkscape"
   version="1.1"
   id="svg2"
   xml:space="preserve"
   width="793.70135"
   height="1058.2679"
   viewBox="0 0 793.70135 1058.2679"
   sodipodi:docname="table3.svg"
   inkscape:version="0.92.0 r15299"><metadata
     id="metadata8"><rdf:RDF><cc:Work
         rdf:about=""><dc:format>image/svg+xml</dc:format><dc:type
           rdf:resource="http://purl.org/dc/dcmitype/StillImage" /><dc:title></dc:title></cc:Work></rdf:RDF></metadata><defs
     id="defs6" /><sodipodi:namedview
     pagecolor="#ffffff"
     bordercolor="#666666"
     borderopacity="1"
     objecttolerance="10"
     gridtolerance="10"
     guidetolerance="10"
     inkscape:pageopacity="0"
     inkscape:pageshadow="2"
     inkscape:window-width="1920"
     inkscape:window-height="988"
     id="namedview4"
     showgrid="false"
     inkscape:zoom="1.7840472"
     inkscape:cx="387.1429"
     inkscape:cy="929.92256"
     inkscape:window-x="0"
     inkscape:window-y="27"
     inkscape:window-maximized="1"
     inkscape:current-layer="g10" /><g
     id="g10"
     inkscape:groupmode="layer"
     inkscape:label="fulltext"
     transform="matrix(1.3333333,0,0,-1.3333333,0,1058.268)"><path
       d="m 42.52,716.371 h 251.036 v 0.51025 H 42.52 Z"
       style="fill:#231f20;fill-opacity:1;fill-rule:nonzero;stroke:none"
       id="path486"
       inkscape:connector-curvature="0" /><path
       d="m 42.52,664.611 h 251.036 v 0.45355 H 42.52 Z"
       style="fill:#231f20;fill-opacity:1;fill-rule:nonzero;stroke:none"
       id="path488"
       inkscape:connector-curvature="0" /><path
       d="m 42.52,703.332 h 79.994 v 0.51025 H 42.52 Z"
       style="fill:#231f20;fill-opacity:1;fill-rule:nonzero;stroke:none"
       id="path490"
       inkscape:connector-curvature="0" /><path
       d="m 105.619,703.332 h 44.731 v 0.51025 h -44.731 z"
       style="fill:#231f20;fill-opacity:1;fill-rule:nonzero;stroke:none"
       id="path492"
       inkscape:connector-curvature="0" /><path
       d="m 133.512,703.332 h 108.68 v 0.51025 h -108.68 z"
       style="fill:#231f20;fill-opacity:1;fill-rule:nonzero;stroke:none"
       id="path494"
       inkscape:connector-curvature="0" /><path
       d="m 225.298,703.332 h 49.833 v 0.51025 h -49.833 z"
       style="fill:#231f20;fill-opacity:1;fill-rule:nonzero;stroke:none"
       id="path496"
       inkscape:connector-curvature="0" /><path
       d="m 258.293,703.332 h 35.263 v 0.51025 h -35.263 z"
       style="fill:#231f20;fill-opacity:1;fill-rule:nonzero;stroke:none"
       id="path498"
       inkscape:connector-curvature="0" /><text
       transform="matrix(1,0,0,-1,42.5197,730.9415)"
       style="font-variant:normal;font-weight:normal;font-size:6.37599993px;font-family:AdvTT28000ce1;-inkscape-font-specification:AdvTT28000ce1;writing-mode:lr-tb;fill:#231f20;fill-opacity:1;fill-rule:nonzero;stroke:none"
       id="text502"><tspan
         x="0 3.583312 6.8599386 10.711042 12.586224 17.575443"
         y="0"
         sodipodi:role="line"
         id="tspan500">Table3</tspan></text>
<text
       transform="matrix(1,0,0,-1,42.5197,722.38108)"
       style="font-variant:normal;font-weight:normal;font-size:6.37599993px;font-family:AdvTT5235d5a9;-inkscape-font-specification:AdvTT5235d5a9;writing-mode:lr-tb;fill:#231f20;fill-opacity:1;fill-rule:nonzero;stroke:none"
       id="text510"><tspan
         x="0 3.4015961 7.2526999 12.132253 13.987669 17.631554 19.842751 23.15827 25.569035 29.018452 32.145878 35.996983 38.155258 40.010674 43.370827 47.221931 48.530285 52.895935 56.211452 58.112141 60.039604 63.355125 66.162476 70.130898 72.980972 76.594254 79.909767 84.021019 87.801987 90.200638 93.658974 95.979843 99.385262 102.36923 105.79187 109.25021 112.50197 116.16689 119.41866 121.09937 124.54878 127.1655 130.3401 133.12642 135.72591"
         y="0"
         sodipodi:role="line"
         id="tspan504">Theintervention'seffect(perprotocolanalyses).</tspan><tspan
         x="79.993935 107.83028 112.27435 114.863 118.44631 122.22728 127.73041 131.51138 133.36679 135.41986 137.47293 140.78845 143.37711 146.69263 150.54373 153.52771 158.57239 161.42247 165.06953 168.71661 174.27649 178.05745 179.983 199.67528 232.61433 234.53989 238.32085"
         y="14.569798"
         sodipodi:role="line"
         id="tspan506">nGroupdifference(95%CI)pICC</tspan><tspan
         x="5.9526334 10.600738 14.381705 20.222122 23.537642 26.126297 29.378057 32.362026 79.995209 83.642281 87.289352 107.83155 111.47862 112.93873 116.5858 121.94865"
         y="27.609356"
         sodipodi:role="line"
         id="tspan508">Numeracy8220.18(</tspan></text>
<text
       transform="matrix(1,0,0,-1,167.30121,694.77173)"
       style="font-variant:normal;font-weight:normal;font-size:6.37599993px;font-family:'AdvTT5235d5a9 22';-inkscape-font-specification:'AdvTT5235d5a9 22';writing-mode:lr-tb;fill:#231f20;fill-opacity:1;fill-rule:nonzero;stroke:none"
       id="text514"><tspan
         x="0"
         y="0"
         id="tspan512">−</tspan></text>
<text
       transform="matrix(1,0,0,-1,173.99091,694.77173)"
       style="font-variant:normal;font-weight:normal;font-size:6.37599993px;font-family:AdvTT5235d5a9;-inkscape-font-specification:AdvTT5235d5a9;writing-mode:lr-tb;fill:#231f20;fill-opacity:1;fill-rule:nonzero;stroke:none"
       id="text518"><tspan
         x="0 3.6470721 5.1071758 8.7542477"
         y="0"
         sodipodi:role="line"
         id="tspan516">1.09</tspan></text>
<text
       transform="matrix(1,0,0,-1,186.40689,694.77173)"
       style="font-variant:normal;font-weight:normal;font-size:6.37599993px;font-family:'AdvTT5235d5a9 20';-inkscape-font-specification:'AdvTT5235d5a9 20';writing-mode:lr-tb;fill:#231f20;fill-opacity:1;fill-rule:nonzero;stroke:none"
       id="text522"><tspan
         x="0"
         y="0"
         id="tspan520">–</tspan></text>
<text
       transform="matrix(1,0,0,-1,190.09222,694.77173)"
       style="font-variant:normal;font-weight:normal;font-size:6.37599993px;font-family:AdvTT5235d5a9;-inkscape-font-specification:AdvTT5235d5a9;writing-mode:lr-tb;fill:#231f20;fill-opacity:1;fill-rule:nonzero;stroke:none"
       id="text528"><tspan
         x="0 3.6470721 5.1071758 8.7542477 12.40132 52.101482 55.748554 57.20866 60.855732 64.502808 85.040535 88.687607 90.147713 93.794785"
         y="0"
         sodipodi:role="line"
         id="tspan524">1.45)0.7770.07</tspan><tspan
         x="-141.61989 -137.70502 -134.3895 -131.13774 -127.35677 -125.50136 -121.65025 -116.50419 -111.85608 -108.27277 -105.61908 -100.17397 -96.858452 -93.409035 -91.553619 -88.301865 -67.577309 -63.930241 -60.283169"
         y="8.5604172"
         sodipodi:role="line"
         id="tspan526">ReadingNorwegian805</tspan></text>
<text
       transform="matrix(1,0,0,-1,150.34997,686.21131)"
       style="font-variant:normal;font-weight:normal;font-size:6.37599993px;font-family:'AdvTT5235d5a9 22';-inkscape-font-specification:'AdvTT5235d5a9 22';writing-mode:lr-tb;fill:#231f20;fill-opacity:1;fill-rule:nonzero;stroke:none"
       id="text532"><tspan
         x="0"
         y="0"
         id="tspan530">−</tspan></text>
<text
       transform="matrix(1,0,0,-1,157.03967,686.21131)"
       style="font-variant:normal;font-weight:normal;font-size:6.37599993px;font-family:AdvTT5235d5a9;-inkscape-font-specification:AdvTT5235d5a9;writing-mode:lr-tb;fill:#231f20;fill-opacity:1;fill-rule:nonzero;stroke:none"
       id="text536"><tspan
         x="0 3.6470721 5.1071758 8.7542477 14.117102"
         y="0"
         sodipodi:role="line"
         id="tspan534">0.30(</tspan></text>
<text
       transform="matrix(1,0,0,-1,173.99091,686.21131)"
       style="font-variant:normal;font-weight:normal;font-size:6.37599993px;font-family:'AdvTT5235d5a9 22';-inkscape-font-specification:'AdvTT5235d5a9 22';writing-mode:lr-tb;fill:#231f20;fill-opacity:1;fill-rule:nonzero;stroke:none"
       id="text540"><tspan
         x="0"
         y="0"
         id="tspan538">−</tspan></text>
<text
       transform="matrix(1,0,0,-1,180.68061,686.21131)"
       style="font-variant:normal;font-weight:normal;font-size:6.37599993px;font-family:AdvTT5235d5a9;-inkscape-font-specification:AdvTT5235d5a9;writing-mode:lr-tb;fill:#231f20;fill-opacity:1;fill-rule:nonzero;stroke:none"
       id="text544"><tspan
         x="0 3.6470721 5.1071758 8.7542477"
         y="0"
         sodipodi:role="line"
         id="tspan542">1.54</tspan></text>
<text
       transform="matrix(1,0,0,-1,193.09659,686.21131)"
       style="font-variant:normal;font-weight:normal;font-size:6.37599993px;font-family:'AdvTT5235d5a9 20';-inkscape-font-specification:'AdvTT5235d5a9 20';writing-mode:lr-tb;fill:#231f20;fill-opacity:1;fill-rule:nonzero;stroke:none"
       id="text548"><tspan
         x="0"
         y="0"
         id="tspan546">–</tspan></text>
<text
       transform="matrix(1,0,0,-1,196.72517,686.21131)"
       style="font-variant:normal;font-weight:normal;font-size:6.37599993px;font-family:AdvTT5235d5a9;-inkscape-font-specification:AdvTT5235d5a9;writing-mode:lr-tb;fill:#231f20;fill-opacity:1;fill-rule:nonzero;stroke:none"
       id="text554"><tspan
         x="0 3.6470721 5.1071758 8.7542477 12.40132 45.468533 49.115604 50.575706 54.222778 57.86985 78.407585 82.054657 83.514763 87.161835"
         y="0"
         sodipodi:role="line"
         id="tspan550">0.94)0.6260.04</tspan><tspan
         x="-148.25284 -144.66953 -140.81842 -137.369 -135.43964 -133.58421 -130.7979 -74.210899 -70.563828 -66.916756 -46.374561 -42.727489 -41.267384 -37.620312 -32.257458 -29.407387 -25.760315 -24.300211 -20.653139"
         y="8.5604172"
         sodipodi:role="line"
         id="tspan552">English8211.39(0.08</tspan></text>
<text
       transform="matrix(1,0,0,-1,179.71719,677.65089)"
       style="font-variant:normal;font-weight:normal;font-size:6.37599993px;font-family:'AdvTT5235d5a9 20';-inkscape-font-specification:'AdvTT5235d5a9 20';writing-mode:lr-tb;fill:#231f20;fill-opacity:1;fill-rule:nonzero;stroke:none"
       id="text558"><tspan
         x="0"
         y="0"
         id="tspan556">–</tspan></text>
<text
       transform="matrix(1,0,0,-1,183.40252,677.65089)"
       style="font-variant:normal;font-weight:normal;font-size:6.37599993px;font-family:AdvTT5235d5a9;-inkscape-font-specification:AdvTT5235d5a9;writing-mode:lr-tb;fill:#231f20;fill-opacity:1;fill-rule:nonzero;stroke:none"
       id="text564"><tspan
         x="0 3.6470721 5.1071758 8.7542477 12.40132 58.791183 62.438255 63.898357 67.545433 71.192505 91.73024 95.377312 96.83741 100.48448"
         y="0"
         sodipodi:role="line"
         id="tspan560">2.70)0.0390.05</tspan><tspan
         x="-134.92955 -131.14857 -127.56527 -121.72485 -117.86419 -114.28088 -111.49456 -109.63914 -107.31828 -102.3297 -99.543388 -96.559418 -92.976105 -90.387451 -60.886337 -57.239265 -53.592194 -33.049995 -29.402924 -27.94282 -24.295748 -18.932894"
         y="8.5604172"
         sodipodi:role="line"
         id="tspan562">Compositescore7670.05(</tspan></text>
<text
       transform="matrix(1,0,0,-1,167.30185,669.09047)"
       style="font-variant:normal;font-weight:normal;font-size:6.37599993px;font-family:'AdvTT5235d5a9 22';-inkscape-font-specification:'AdvTT5235d5a9 22';writing-mode:lr-tb;fill:#231f20;fill-opacity:1;fill-rule:nonzero;stroke:none"
       id="text568"><tspan
         x="0"
         y="0"
         id="tspan566">−</tspan></text>
<text
       transform="matrix(1,0,0,-1,173.99154,669.09047)"
       style="font-variant:normal;font-weight:normal;font-size:6.37599993px;font-family:AdvTT5235d5a9;-inkscape-font-specification:AdvTT5235d5a9;writing-mode:lr-tb;fill:#231f20;fill-opacity:1;fill-rule:nonzero;stroke:none"
       id="text572"><tspan
         x="0 3.6470721 5.1071758 8.7542477"
         y="0"
         sodipodi:role="line"
         id="tspan570">0.07</tspan></text>
<text
       transform="matrix(1,0,0,-1,186.40753,669.09047)"
       style="font-variant:normal;font-weight:normal;font-size:6.37599993px;font-family:'AdvTT5235d5a9 20';-inkscape-font-specification:'AdvTT5235d5a9 20';writing-mode:lr-tb;fill:#231f20;fill-opacity:1;fill-rule:nonzero;stroke:none"
       id="text576"><tspan
         x="0"
         y="0"
         id="tspan574">–</tspan></text>
<text
       transform="matrix(1,0,0,-1,190.09286,669.09047)"
       style="font-variant:normal;font-weight:normal;font-size:6.37599993px;font-family:AdvTT5235d5a9;-inkscape-font-specification:AdvTT5235d5a9;writing-mode:lr-tb;fill:#231f20;fill-opacity:1;fill-rule:nonzero;stroke:none"
       id="text582"><tspan
         x="0 3.6470721 5.1071758 8.7542477 12.40132 52.101482 55.748554 57.20866 60.855732 64.502808 85.040535 88.687607 90.147713 93.794785"
         y="0"
         sodipodi:role="line"
         id="tspan578">0.16)0.4150.09</tspan><tspan
         x="360.68204 364.3291 367.82571"
         y="-81.80854"
         sodipodi:role="line"
         id="tspan580">327</tspan></text>
</g></svg>