<?xml version="1.0" encoding="UTF-8" standalone="no"?>
<!-- Created with Inkscape (http://www.inkscape.org/) -->

<svg
   xmlns:dc="http://purl.org/dc/elements/1.1/"
   xmlns:cc="http://creativecommons.org/ns#"
   xmlns:rdf="http://www.w3.org/1999/02/22-rdf-syntax-ns#"
   xmlns:svg="http://www.w3.org/2000/svg"
   xmlns="http://www.w3.org/2000/svg"
   xmlns:sodipodi="http://sodipodi.sourceforge.net/DTD/sodipodi-0.dtd"
   xmlns:inkscape="http://www.inkscape.org/namespaces/inkscape"
   version="1.1"
   id="svg2"
   xml:space="preserve"
   width="793.70135"
   height="1058.2679"
   viewBox="0 0 793.70135 1058.2679"
   sodipodi:docname="table1.svg"
   inkscape:version="0.92.0 r15299"><metadata
     id="metadata8"><rdf:RDF><cc:Work
         rdf:about=""><dc:format>image/svg+xml</dc:format><dc:type
           rdf:resource="http://purl.org/dc/dcmitype/StillImage" /><dc:title></dc:title></cc:Work></rdf:RDF></metadata><defs
     id="defs6" /><sodipodi:namedview
     pagecolor="#ffffff"
     bordercolor="#666666"
     borderopacity="1"
     objecttolerance="10"
     gridtolerance="10"
     guidetolerance="10"
     inkscape:pageopacity="0"
     inkscape:pageshadow="2"
     inkscape:window-width="1920"
     inkscape:window-height="988"
     id="namedview4"
     showgrid="false"
     inkscape:zoom="1.7840472"
     inkscape:cx="576.30462"
     inkscape:cy="796.0412"
     inkscape:window-x="0"
     inkscape:window-y="27"
     inkscape:window-maximized="1"
     inkscape:current-layer="g10" /><g
     id="g10"
     inkscape:groupmode="layer"
     inkscape:label="fulltext"
     transform="matrix(1.3333333,0,0,-1.3333333,0,1058.268)"><path
       d="m 310.507,699.25 h 251.036 v 0.51025 H 310.507 Z"
       style="fill:#231f20;fill-opacity:1;fill-rule:nonzero;stroke:none"
       id="path644"
       inkscape:connector-curvature="0" /><path
       d="m 310.507,458.929 h 251.036 v 0.51022 H 310.507 Z"
       style="fill:#231f20;fill-opacity:1;fill-rule:nonzero;stroke:none"
       id="path646"
       inkscape:connector-curvature="0" /><path
       d="m 310.507,686.211 h 118.261 v 0.51019 H 310.507 Z"
       style="fill:#231f20;fill-opacity:1;fill-rule:nonzero;stroke:none"
       id="path648"
       inkscape:connector-curvature="0" /><path
       d="m 416.579,686.211 h 35.263 v 0.51019 h -35.263 z"
       style="fill:#231f20;fill-opacity:1;fill-rule:nonzero;stroke:none"
       id="path650"
       inkscape:connector-curvature="0" /><path
       d="m 439.71,686.211 h 60.605 v 0.51019 H 439.71 Z"
       style="fill:#231f20;fill-opacity:1;fill-rule:nonzero;stroke:none"
       id="path652"
       inkscape:connector-curvature="0" /><path
       d="m 488.126,686.211 h 35.263 v 0.51019 h -35.263 z"
       style="fill:#231f20;fill-opacity:1;fill-rule:nonzero;stroke:none"
       id="path654"
       inkscape:connector-curvature="0" /><path
       d="m 511.257,686.211 h 50.287 v 0.51019 h -50.287 z"
       style="fill:#231f20;fill-opacity:1;fill-rule:nonzero;stroke:none"
       id="path656"
       inkscape:connector-curvature="0" /><text
       transform="matrix(1,0,0,-1,310.507,730.9415)"
       style="font-variant:normal;font-weight:normal;font-size:6.37599993px;font-family:AdvTT28000ce1;-inkscape-font-specification:AdvTT28000ce1;writing-mode:lr-tb;fill:#231f20;fill-opacity:1;fill-rule:nonzero;stroke:none"
       id="text660"><tspan
         x="0 3.4500537 6.8994694 10.617315 12.537128 17.583096"
         y="0"
         sodipodi:role="line"
         id="tspan658">Table1</tspan></text>
<text
       transform="matrix(1,0,0,-1,310.507,722.38108)"
       style="font-variant:normal;font-weight:normal;font-size:6.37599993px;font-family:AdvTT5235d5a9;-inkscape-font-specification:AdvTT5235d5a9;writing-mode:lr-tb;fill:#231f20;fill-opacity:1;fill-rule:nonzero;stroke:none"
       id="text682"><tspan
         x="0 3.780968 7.632072 9.354867 11.210283 14.991251 17.46195 20.777472 24.628574 25.966261 30.501509 34.282478 37.597996 43.31472 46.898029 50.347446 52.936104 56.014435 59.795403 63.646507 65.369301 70.131538 73.383293 77.104965 82.661011 85.912773 89.763878 91.959137 95.810242 98.398895 101.82408 105.60505 109.18836 114.92039 118.23591 120.55677 123.02747 124.88289 129.60368 132.58765 136.43875 139.52538 142.11403 145.36578 148.34976 150.52397 153.83949 156.42815 158.17772 160.96404 163.16695 165.02235 168.00633 170.79263 173.88245 177.66342 181.51451 184.96393 187.60233 189.45773 192.44171 195.69347 199.16776 202.41951 205.29062 207.61148 209.4669 212.91632 214.64549 216.96635 222.129 223.98442 227.17497 230.62439 233.9399 235.67928 240.21452 243.46628 247.31738"
         y="0"
         sodipodi:role="line"
         id="tspan662">Children'sdemographicandanthropometriccharacteristics,physicalactivitylevelsand</tspan><tspan
         x="0 3.25176 6.0661263 9.3178864 12.982811 16.29833 21.9972 23.852615 28.403805 32.184772 35.377235 37.965893 39.856377 43.43969 46.028343 51.648788 54.900547 58.622219 61.606186 66.559067 69.810822 73.702736 77.349808 80.449181 83.235489 86.401817 88.257233 89.973648 93.824753 97.00383 100.12169 106.03224 109.19283 112.44459 117.92348 120.77355 123.93286 128.44707 131.07654 134.1944 137.97537 141.82646 143.49252 145.34793 148.99182 151.58047 154.71811 160.27415 164.12526 167.53131 171.55649 175.33745 177.79285 181.25119 184.70061 186.55602 190.15208 192.00751 195.70813 200.81085 204.26025 207.38705 209.24246 210.95889 216.40144 220.1824 223.31813 225.52933 230.46179 234.24277 235.96109 241.40366 245.25475 248.71692"
         y="8.5604172"
         sodipodi:role="line"
         id="tspan664">academicperformanceatbaseline.Mean(SD).Childrennotprovidingvaliddatadidnot</tspan><tspan
         x="0 3.780968 5.4425535 7.4956255 9.3542299 12.669749 16.780994 20.428066 23.584187 25.795383 31.240488 34.356438 37.671959 43.087093 45.29829 49.149395 54.02895 55.884365 59.528248 61.739445 65.054962 67.465729 70.915146 74.041939 77.893044 80.051315 81.906731 85.266884 90.766182 93.884048 97.735153 103.06868 105.27988 109.13098 114.01053 116.9945 120.36039 124.21149 126.36977 128.95842 132.3224 135.83749 139.28691 141.67728 145.13562 148.91658 152.56238"
         y="17.120834"
         sodipodi:role="line"
         id="tspan666">differbetweentheinterventionandthecontrolgroup.</tspan><tspan
         x="118.26205 141.33615 143.2617 147.11281 149.43367 152.74919 155.33784 158.78726 162.10278 165.95389 168.27475 170.13017 173.71349 189.80969 212.8838 216.66476 220.24808 224.09918 226.42004 229.0087 232.59201"
         y="31.690634"
         sodipodi:role="line"
         id="tspan668">nInterventionnControl</tspan><tspan
         x="5.9526334 10.466842 13.782362 19.622778 23.206089 26.655506 29.244162 32.495922 36.27689 40.127995 41.98341 45.072582"
         y="44.73019"
         sodipodi:role="line"
         id="tspan670">Demographics</tspan><tspan
         x="12.359239 16.541895 19.99131 24.945463 27.795534 31.244951 34.560471 37.812229 40.47995 43.266262 118.26332 121.91039 125.55746 141.33743 144.9845 148.63158 150.09167 155.45453 158.3046 161.95168 163.41177 167.05885 189.81097 193.45804 197.10512 212.88571 216.53279 220.17986 221.63997 227.00281 229.85289 233.49995 234.96007 238.60713"
         y="53.290607"
         sodipodi:role="line"
         id="tspan672">Age(years)59610.2(0.3)53310.2(0.3)</tspan><tspan
         x="12.359239 15.674758 18.990278 24.151649 27.001722 32.599213 36.04863 37.904045 40.492702 42.348118 45.13443 47.455292 51.102364 54.685677 58.135094 60.921406 118.26396 121.91103 125.55811 141.33807 144.98514 148.63222 150.95308 154.60014 189.81097 193.45804 197.10512 212.88571 216.53279 220.17986 222.50072 226.1478"
         y="61.907772"
         sodipodi:role="line"
         id="tspan674">Sex(%girls/boys)59647/5353349/51</tspan><tspan
         x="12.359239 15.942551 19.194311 21.782967 25.098486 28.949591 31.270454 34.056767 37.191845 40.507366 44.288334 48.069302 51.053268 54.305031 56.625893 58.481308 62.064621 67.637245 69.492661 72.808182 76.257599 79.57312 83.114983 85.965057 89.879921 118.26524 121.91231 125.55938 189.81224 193.45932 197.10638"
         y="70.468193"
         sodipodi:role="line"
         id="tspan676">Parents'educationlevel(%)578491</tspan><tspan
         x="12.359239 16.873446 20.654415 24.435383 27.750902 32.032387 34.818699 38.13422 41.118187 44.7015 48.552601 52.333569 55.585331 58.173985 63.327705 66.114021 69.097984 72.949089 76.532402 80.115715 141.33807 144.98514 148.63222 150.09232 212.88507 216.53215 220.17921 221.63933"
         y="79.02861"
         sodipodi:role="line"
         id="tspan678">Uppersecondaryschool30.834.8</tspan><tspan
         x="12.359239 16.873446 20.72455 22.579966 26.029383 29.344902 31.933558 34.719872 36.575287 38.896149"
         y="87.589027"
         sodipodi:role="line"
         id="tspan680">University</tspan></text>
<text
       transform="matrix(1,0,0,-1,354.55751,634.79206)"
       style="font-variant:normal;font-weight:normal;font-size:6.37599993px;font-family:AdvTT454a7a89;-inkscape-font-specification:AdvTT454a7a89;writing-mode:lr-tb;fill:#231f20;fill-opacity:1;fill-rule:nonzero;stroke:none"
       id="text686"><tspan
         x="0"
         y="0"
         id="tspan684">b</tspan></text>
<text
       transform="matrix(1,0,0,-1,358.69617,634.79206)"
       style="font-variant:normal;font-weight:normal;font-size:6.37599993px;font-family:AdvTT5235d5a9;-inkscape-font-specification:AdvTT5235d5a9;writing-mode:lr-tb;fill:#231f20;fill-opacity:1;fill-rule:nonzero;stroke:none"
       id="text692"><tspan
         x="0 5.329061 8.7784767 12.093997 15.345757 17.934412 93.14698 96.79406 100.44113 101.90123 164.694 168.34106 171.98814 173.44824"
         y="0"
         sodipodi:role="line"
         id="tspan688">4years30.828.9</tspan><tspan
         x="-35.829933 -31.315723 -27.464621 -25.609203 -22.159788 -18.844269 -16.255611 -13.4693 -11.613884 -9.2930202"
         y="8.5604172"
         sodipodi:role="line"
         id="tspan690">University</tspan></text>
<text
       transform="matrix(1,0,0,-1,354.55751,626.23164)"
       style="font-variant:normal;font-weight:normal;font-size:6.37599993px;font-family:'AdvTT5235d5a9 22';-inkscape-font-specification:'AdvTT5235d5a9 22';writing-mode:lr-tb;fill:#231f20;fill-opacity:1;fill-rule:nonzero;stroke:none"
       id="text696"><tspan
         x="0"
         y="0"
         id="tspan694">≥</tspan></text>
<text
       transform="matrix(1,0,0,-1,358.58268,626.23164)"
       style="font-variant:normal;font-weight:normal;font-size:6.37599993px;font-family:AdvTT5235d5a9;-inkscape-font-specification:AdvTT5235d5a9;writing-mode:lr-tb;fill:#231f20;fill-opacity:1;fill-rule:nonzero;stroke:none"
       id="text708"><tspan
         x="0 5.2723145 8.7217302 12.037251 15.28901 17.877666 93.260475 96.907547 100.55462 102.01472 164.80748 168.45456 172.10162 173.56174"
         y="0"
         sodipodi:role="line"
         id="tspan698">4years38.436.3</tspan><tspan
         x="-42.123043 -37.940388 -34.089283 -31.768419 -27.917316 -25.328659 -21.745348 -17.96438 -14.381068 -8.5406523 -5.225132 -2.904268 -0.31561199 70.187645 73.834717 77.481789 141.73465 145.38173 149.02879"
         y="8.5604172"
         sodipodi:role="line"
         id="tspan700">Anthropometry578517</tspan><tspan
         x="-35.716438 -31.935471 -28.35216 -24.571192 -19.444887 -13.604471 -10.352711 -7.5663991 -3.1165888 -0.2665168 3.2530353 6.7024512 93.26239 96.909462 100.55653 102.01664 107.37949 110.22956 113.87663 115.33674 118.98381 164.81004 168.45711 172.10419 173.56429 178.92714 181.77721 185.42429 186.88438 190.53146"
         y="17.120834"
         sodipodi:role="line"
         id="tspan702">Bodymass(kg)36.9(8.0)37.2(8.1)</tspan><tspan
         x="-35.716438 -31.004576 -27.689054 -25.833639 -22.384224 -18.533119 -14.512414 -11.662342 -8.6783733 -2.8379576 93.261749 96.908821 100.55589 104.20296 105.66307 111.00744 113.85751 117.50458 118.96468 122.61176 164.81004 168.45711 172.10419 175.75125 177.21135 182.55573 185.40579 189.05286 190.51297 194.16003"
         y="25.681253"
         sodipodi:role="line"
         id="tspan704">Height(cm)142.6(6.8)142.8(6.8)</tspan><tspan
         x="-35.716438 -31.935471 -26.02492 -22.449896 -19.599825 -16.080273 -12.630856 -10.309992"
         y="34.298416"
         sodipodi:role="line"
         id="tspan706">BMI(kg/m</tspan></text>
<text
       transform="matrix(1,0,0,-0.88878665,354.1605,594.7653)"
       style="font-variant:normal;font-weight:normal;font-size:4.78179979px;font-family:AdvTT5235d5a9;-inkscape-font-specification:AdvTT5235d5a9;writing-mode:lr-tb;fill:#231f20;fill-opacity:1;fill-rule:nonzero;stroke:none"
       id="text712"><tspan
         x="0"
         y="0"
         id="tspan710">2</tspan></text>
<text
       transform="matrix(1,0,0,-1,356.8818,591.9305)"
       style="font-variant:normal;font-weight:normal;font-size:6.37599993px;font-family:AdvTT5235d5a9;-inkscape-font-specification:AdvTT5235d5a9;writing-mode:lr-tb;fill:#231f20;fill-opacity:1;fill-rule:nonzero;stroke:none"
       id="text752"><tspan
         x="0 94.960953 98.608025 102.2551 103.7152 109.07806 111.92813 115.5752 117.03531 120.68238 166.50861 170.15567 173.80275 175.26285 180.6257 183.47577 187.12285 188.58295 192.23003"
         y="0"
         sodipodi:role="line"
         id="tspan714">)18.0(3.0)18.1(3.0)</tspan><tspan
         x="-34.015961 -29.501753 -26.052336 -22.736816 -20.148161 -14.703056 -11.387536 -9.5321198 -6.0827041 -2.2316 0.089263998 2.4101281 5.9934402 9.6405125 12.956032 15.742344 20.808077 23.658148 27.573011 94.962868 98.60994 102.25701 103.71712 107.36419 109.68505 113.33212 114.79223 166.51051 170.15759 173.80466 175.26477 178.91183 181.2327 184.87978 186.33987"
         y="8.5604172"
         sodipodi:role="line"
         id="tspan716">Overweight/obese(%)17.4/3.517.8/3.8</tspan><tspan
         x="-40.422565 -36.839252 -32.988148 -29.538733 -26.75242 -24.897005 -21.913036 -18.661276 -15.079878 -11.828117 -8.8441496 -6.5232854 -4.6678696 -1.2184536 0.63696241 2.9578264 8.1083593 10.161431 13.942399 15.797815 19.333944 23.114912 26.366673 71.888763 75.535835 79.182907 143.43578 147.08284 150.72992"
         y="17.120834"
         sodipodi:role="line"
         id="tspan718">Physicalactivityfullday564496</tspan><tspan
         x="-34.015961 -30.496408 -26.913095 -24.592232 -21.340471 -17.801155 -14.217842 -8.3901787 -5.5401063 -2.5561385 1.2248296 7.0652456 94.962234 98.609306 102.25638 107.6052 110.45528 114.10235 117.74942 121.39649 166.50987 170.15695 173.80402 179.15285 182.00291 185.64999 189.29706 192.94414"
         y="25.681253"
         sodipodi:role="line"
         id="tspan720">TotalPA(cpm)740(300)721(263)</tspan><tspan
         x="-34.015961 -30.700439 -27.117128 -20.919657 -18.069584 -12.229168 -10.373752 -6.5226479 -4.2017841 -0.420816 2.8309441 6.2803602 94.962234 98.609306 102.25638 107.6052 110.45528 114.10235 117.74942 166.50987 170.15695 173.80402 179.15285 182.00291 185.64999 189.29706"
         y="34.241669"
         sodipodi:role="line"
         id="tspan722">SED(min/day)468(57)465(62)</tspan><tspan
         x="-34.015961 -28.105408 -23.922752 -20.339439 -14.513051 -11.662979 -5.8225632 -3.9671471 -0.1160432 2.2048209 6.0674014 9.3191614 12.768578 94.962868 98.60994 103.97726 106.82733 110.4744 114.12148 166.51051 170.15759 175.46815 178.31822 181.9653 185.61238"
         y="42.80209"
         sodipodi:role="line"
         id="tspan724">MVPA(min/day)77(28)73(24)</tspan><tspan
         x="-34.015961 -29.833303 -26.849337 -22.998232 -21.142817 -17.827295 -14.37788 -12.522464 -8.67136 -3.5138135 -0.064397603 3.7165704 5.5719862 9.3529549 12.668474 14.52389 16.379307 20.23041 25.230469 28.813782 34.698193 36.553608 39.869129 43.318542 46.634064 50.175934 53.026005 56.940868 94.964142 98.611214 166.51115 170.15822"
         y="51.362507"
         sodipodi:role="line"
         id="tspan726">AchievingguidelinePAlevel(%)6764</tspan><tspan
         x="-40.422565 -36.839252 -32.988148 -29.538733 -26.75242 -24.897005 -21.913036 -18.661276 -15.079878 -11.828117 -8.8441496 -6.5232854 -4.6678696 -1.2184536 0.63696241 2.9578264 8.1083593 11.360119 15.364884 18.151197 21.135164 24.986269 28.56958 32.152893 71.888763 75.535835 79.182907 143.43578 147.08284 150.72992"
         y="59.922924"
         sodipodi:role="line"
         id="tspan728">Physicalactivityatschool566497</tspan><tspan
         x="-34.015961 -30.496408 -26.913095 -24.592232 -21.340471 -17.801155 -14.217842 -8.3901787 -5.5401063 -2.5561385 1.2248296 7.0652456 94.962234 98.609306 102.25638 107.6052 110.45528 114.10235 117.74942 121.39649 166.50987 170.15695 173.80402 179.15285 182.00291 185.64999 189.29706 192.94414"
         y="68.540085"
         sodipodi:role="line"
         id="tspan730">TotalPA(cpm)650(184)639(192)</tspan><tspan
         x="-34.015961 -30.700439 -27.117128 -20.919657 -18.069584 -12.229168 -10.373752 -6.5226479 -4.2017841 -0.420816 2.8309441 6.2803602 94.962234 98.609306 102.25638 107.6052 110.45528 114.10235 117.74942 166.50987 170.15695 173.80402 179.15285 182.00291 185.64999 189.29706"
         y="77.100502"
         sodipodi:role="line"
         id="tspan732">SED(min/day)178(19)179(20)</tspan><tspan
         x="-34.015961 -28.105408 -23.922752 -20.339439 -14.513051 -11.662979 -5.8225632 -3.9671471 -0.1160432 2.2048209 6.0674014 9.3191614 12.768578 94.962868 98.60994 103.97726 106.82733 110.4744 114.12148 166.51051 170.15759 175.46815 178.31822 181.9653 185.61238"
         y="85.660919"
         sodipodi:role="line"
         id="tspan734">MVPA(min/day)29(11)28(10)</tspan><tspan
         x="-40.422565 -36.23991 -33.255939 -30.004181 -26.223213 -22.907692 -17.067276 -15.211861 -10.487883 -6.7069144 -3.3913944 -0.80273843 1.2503335 4.8336458 7.4223018 13.262717 16.514477 20.365582 23.34955"
         y="94.221336"
         sodipodi:role="line"
         id="tspan736">Academicperformance</tspan><tspan
         x="-34.015961 -29.367855 -25.586887 -19.746471 -16.430952 -13.842296 -10.590536 -7.6065679 -2.4369073 0.41316479 4.1941328 7.7774448 9.6328611 13.483965 15.804829 18.591141 71.888763 75.535835 79.182907 94.962868 98.60994 102.25701 103.71712 109.07997 111.93005 115.57712 117.03722 120.68429 143.4364 147.08348 150.73056 166.51115 170.15822 173.8053 175.2654 180.62825 183.47833 187.1254 188.58549 192.23257"
         y="102.78176"
         sodipodi:role="line"
         id="tspan738">Numeracy(points)56451.1(9.8)51651.4(9.2)</tspan><tspan
         x="-34.015961 -30.101095 -26.785576 -23.533815 -19.752848 -17.897432 -14.046328 -8.9002581 -4.2521544 -0.66884238 1.9198136 7.3649178 10.680438 14.129853 15.98527 19.23703 24.776499 27.62657 31.407537 34.990849 36.846268 40.697369 43.018234 45.804546 71.889397 75.536469 79.18354 94.963509 98.61058 102.25765 103.71776 109.0806 111.93068 115.57775 119.22482 120.68493 124.332 143.43704 147.08412 150.73119 166.5118 170.15886 173.80594 175.26604 180.62889 183.47896 187.12604 188.58614 192.23322"
         y="111.34218"
         sodipodi:role="line"
         id="tspan740">ReadingNorwegian(points)56049.2(10.0)50649.7(9.4)</tspan><tspan
         x="-34.015961 -30.432648 -26.581545 -23.132128 -21.276712 -19.421295 -16.634983 -11.111455 -8.2613831 -4.4804153 -0.89710319 0.95831281 4.8094168 7.130281 9.9165926 71.888123 75.535194 79.182266 94.962234 98.609306 102.25638 103.71648 109.07933 111.92941 115.57648 117.03658 120.68365 143.43578 147.08284 150.72992 166.51051 170.15759 173.80466 175.26477 180.62761 183.47769 187.12476 190.77184 192.23193 195.87901"
         y="119.90259"
         sodipodi:role="line"
         id="tspan742">English(points)55549.0(9.6)50749.8(10.0)</tspan><tspan
         x="-34.015961 -30.234991 -26.65168 -20.811264 -17.030296 -13.446984 -10.660672 -8.8052559 -6.4843922 -1.472856 1.3134561 4.2974238 7.8807359 10.469392 15.479015 18.329086 21.446951 24.035606 26.821918 29.805887 33.389198 35.977856 39.293377 71.889397 75.536469 79.18354 94.963509 97.552162 101.19923 102.65934 106.30641 111.68839 114.53847 118.18554 119.64564 123.29271 126.93978 143.43704 147.08412 150.73119 166.5118 170.15886 171.61897 175.26604 180.62889 183.47896 187.12604 188.58614 192.23322 195.88028"
         y="128.51976"
         sodipodi:role="line"
         id="tspan744">Compositescore(z-score)545-0.02(1.02)5020.02(0.98)</tspan><tspan
         x="-46.375198 -42.594231 -36.850731 -33.732864 -26.135862 -22.488791 -19.048937 -15.267969 -10.714868 -4.8744521 -1.813972 0.97233999 4.9324737 6.7878895 10.431773 14.212742 17.348459 20.750055 24.208397 27.523916 30.898096 36.681129 44.278133 46.942661 50.258183 53.859348 57.174866 60.832779 63.153641 66.218582 68.807243 73.418999 75.630196 77.485619 83.170456 86.34507 89.803413 95.585808 99.768463 103.18281 108.62536 116.22237 121.94865 125.53196 129.14906 132.46458 134.87535 137.99323 140.31409 143.43578 146.02443 148.198 151.65634 154.24501 157.49612 159.35155 162.65495 166.1133 168.70195 172.12267 175.90364 179.83316 181.68858 185.33247 187.54367 190.85918 194.51709 197.30341 198.99623 201.20743"
         y="141.55931"
         sodipodi:role="line"
         id="tspan746">BMI=bodymassindex;SED=sedentarytime;MVPA=moderate-to-vigorousintensity</tspan><tspan
         x="-46.375198 -42.594231 -38.948433 -35.499016 -32.882309 -31.026892 -28.233566 -24.981806 -21.600613 -18.348852 -15.534487 -13.32329 -11.467874 -8.2205772 -6.3651609 -4.1954079 -0.745992"
         y="150.11974"
         sodipodi:role="line"
         id="tspan748">physicalactivity.</tspan><tspan
         x="193.89034 197.5374 201.03401"
         y="-158.97153"
         sodipodi:role="line"
         id="tspan750">325</tspan></text>
</g></svg>