<?xml version="1.0" encoding="UTF-8" standalone="no"?>
<!-- Created with Inkscape (http://www.inkscape.org/) -->

<svg
   xmlns:dc="http://purl.org/dc/elements/1.1/"
   xmlns:cc="http://creativecommons.org/ns#"
   xmlns:rdf="http://www.w3.org/1999/02/22-rdf-syntax-ns#"
   xmlns:svg="http://www.w3.org/2000/svg"
   xmlns="http://www.w3.org/2000/svg"
   xmlns:sodipodi="http://sodipodi.sourceforge.net/DTD/sodipodi-0.dtd"
   xmlns:inkscape="http://www.inkscape.org/namespaces/inkscape"
   version="1.1"
   id="svg2"
   xml:space="preserve"
   width="793.70135"
   height="1043.1493"
   viewBox="0 0 793.70135 1043.1493"
   sodipodi:docname="table4.svg"
   inkscape:version="0.92.0 r15299"><metadata
     id="metadata8"><rdf:RDF><cc:Work
         rdf:about=""><dc:format>image/svg+xml</dc:format><dc:type
           rdf:resource="http://purl.org/dc/dcmitype/StillImage" /><dc:title></dc:title></cc:Work></rdf:RDF></metadata><defs
     id="defs6"><clipPath
       clipPathUnits="userSpaceOnUse"
       id="clipPath20"><path
         d="M 0,782.362 H 595.276 V 0 H 0 Z"
         id="path18"
         inkscape:connector-curvature="0" /></clipPath><clipPath
       clipPathUnits="userSpaceOnUse"
       id="clipPath40"><path
         d="M 0,782.362 H 595.276 V 0 H 0 Z"
         id="path38"
         inkscape:connector-curvature="0" /></clipPath><clipPath
       clipPathUnits="userSpaceOnUse"
       id="clipPath74"><path
         d="m 155.638,301.462 h 396 v 434.4 h -396 z"
         id="path72"
         inkscape:connector-curvature="0" /></clipPath></defs><sodipodi:namedview
     pagecolor="#ffffff"
     bordercolor="#666666"
     borderopacity="1"
     objecttolerance="10"
     gridtolerance="10"
     guidetolerance="10"
     inkscape:pageopacity="0"
     inkscape:pageshadow="2"
     inkscape:window-width="1920"
     inkscape:window-height="988"
     id="namedview4"
     showgrid="false"
     inkscape:zoom="1.8099039"
     inkscape:cx="683.77579"
     inkscape:cy="275.22703"
     inkscape:window-x="0"
     inkscape:window-y="27"
     inkscape:window-maximized="1"
     inkscape:current-layer="g10" /><g
     id="g10"
     inkscape:groupmode="layer"
     inkscape:label="fulltext"
     transform="matrix(1.3333333,0,0,-1.3333333,0,1043.1493)"><path
       d="m 155.763,179.227 h 70 v -11.625 h -70 z m 70,0 h 60 v -11.625 h -60 z m 60,0 h 60 v -11.625 h -60 z m 60,0 h 70 v -11.625 h -70 z m 70,0 h 70 v -11.625 h -70 z"
       style="fill:#a8a9ac;fill-opacity:1;fill-rule:nonzero;stroke:none"
       id="path182"
       inkscape:connector-curvature="0" /><g
       id="g184"
       transform="translate(155.6376,179.2272)"><path
         d="M 0,0 H 70.125"
         style="fill:none;stroke:#000000;stroke-width:0.25;stroke-linecap:butt;stroke-linejoin:miter;stroke-miterlimit:10;stroke-dasharray:none;stroke-opacity:1"
         id="path186"
         inkscape:connector-curvature="0" /></g><g
       id="g188"
       transform="translate(155.7626,167.7272)"><path
         d="M 0,0 V 11.375"
         style="fill:none;stroke:#000000;stroke-width:0.25;stroke-linecap:butt;stroke-linejoin:miter;stroke-miterlimit:10;stroke-dasharray:none;stroke-opacity:1"
         id="path190"
         inkscape:connector-curvature="0" /></g><g
       id="g192"
       transform="translate(155.6376,167.6022)"><path
         d="M 0,0 H 70.125"
         style="fill:none;stroke:#000000;stroke-width:0.25;stroke-linecap:butt;stroke-linejoin:miter;stroke-miterlimit:10;stroke-dasharray:none;stroke-opacity:1"
         id="path194"
         inkscape:connector-curvature="0" /></g><g
       id="g196"
       transform="translate(225.7626,179.2272)"><path
         d="M 0,0 H 60"
         style="fill:none;stroke:#000000;stroke-width:0.25;stroke-linecap:butt;stroke-linejoin:miter;stroke-miterlimit:10;stroke-dasharray:none;stroke-opacity:1"
         id="path198"
         inkscape:connector-curvature="0" /></g><g
       id="g200"
       transform="translate(225.7626,167.7272)"><path
         d="M 0,0 V 11.375"
         style="fill:none;stroke:#000000;stroke-width:0.25;stroke-linecap:butt;stroke-linejoin:miter;stroke-miterlimit:10;stroke-dasharray:none;stroke-opacity:1"
         id="path202"
         inkscape:connector-curvature="0" /></g><g
       id="g204"
       transform="translate(225.7626,167.6022)"><path
         d="M 0,0 H 60"
         style="fill:none;stroke:#000000;stroke-width:0.25;stroke-linecap:butt;stroke-linejoin:miter;stroke-miterlimit:10;stroke-dasharray:none;stroke-opacity:1"
         id="path206"
         inkscape:connector-curvature="0" /></g><g
       id="g208"
       transform="translate(285.7626,179.2272)"><path
         d="M 0,0 H 60"
         style="fill:none;stroke:#000000;stroke-width:0.25;stroke-linecap:butt;stroke-linejoin:miter;stroke-miterlimit:10;stroke-dasharray:none;stroke-opacity:1"
         id="path210"
         inkscape:connector-curvature="0" /></g><g
       id="g212"
       transform="translate(285.7626,167.7272)"><path
         d="M 0,0 V 11.375"
         style="fill:none;stroke:#000000;stroke-width:0.25;stroke-linecap:butt;stroke-linejoin:miter;stroke-miterlimit:10;stroke-dasharray:none;stroke-opacity:1"
         id="path214"
         inkscape:connector-curvature="0" /></g><g
       id="g216"
       transform="translate(285.7626,167.6022)"><path
         d="M 0,0 H 60"
         style="fill:none;stroke:#000000;stroke-width:0.25;stroke-linecap:butt;stroke-linejoin:miter;stroke-miterlimit:10;stroke-dasharray:none;stroke-opacity:1"
         id="path218"
         inkscape:connector-curvature="0" /></g><g
       id="g220"
       transform="translate(345.7626,179.2272)"><path
         d="M 0,0 H 70"
         style="fill:none;stroke:#000000;stroke-width:0.25;stroke-linecap:butt;stroke-linejoin:miter;stroke-miterlimit:10;stroke-dasharray:none;stroke-opacity:1"
         id="path222"
         inkscape:connector-curvature="0" /></g><g
       id="g224"
       transform="translate(345.7626,167.7272)"><path
         d="M 0,0 V 11.375"
         style="fill:none;stroke:#000000;stroke-width:0.25;stroke-linecap:butt;stroke-linejoin:miter;stroke-miterlimit:10;stroke-dasharray:none;stroke-opacity:1"
         id="path226"
         inkscape:connector-curvature="0" /></g><g
       id="g228"
       transform="translate(345.7626,167.6022)"><path
         d="M 0,0 H 70"
         style="fill:none;stroke:#000000;stroke-width:0.25;stroke-linecap:butt;stroke-linejoin:miter;stroke-miterlimit:10;stroke-dasharray:none;stroke-opacity:1"
         id="path230"
         inkscape:connector-curvature="0" /></g><g
       id="g232"
       transform="translate(415.7626,179.2272)"><path
         d="M 0,0 H 70.125"
         style="fill:none;stroke:#000000;stroke-width:0.25;stroke-linecap:butt;stroke-linejoin:miter;stroke-miterlimit:10;stroke-dasharray:none;stroke-opacity:1"
         id="path234"
         inkscape:connector-curvature="0" /></g><g
       id="g236"
       transform="translate(415.7626,167.7272)"><path
         d="M 0,0 V 11.375"
         style="fill:none;stroke:#000000;stroke-width:0.25;stroke-linecap:butt;stroke-linejoin:miter;stroke-miterlimit:10;stroke-dasharray:none;stroke-opacity:1"
         id="path238"
         inkscape:connector-curvature="0" /></g><g
       id="g240"
       transform="translate(485.7626,167.7272)"><path
         d="M 0,0 V 11.375"
         style="fill:none;stroke:#000000;stroke-width:0.25;stroke-linecap:butt;stroke-linejoin:miter;stroke-miterlimit:10;stroke-dasharray:none;stroke-opacity:1"
         id="path242"
         inkscape:connector-curvature="0" /></g><g
       id="g244"
       transform="translate(415.7626,167.6022)"><path
         d="M 0,0 H 70.125"
         style="fill:none;stroke:#000000;stroke-width:0.25;stroke-linecap:butt;stroke-linejoin:miter;stroke-miterlimit:10;stroke-dasharray:none;stroke-opacity:1"
         id="path246"
         inkscape:connector-curvature="0" /></g><g
       id="g248"
       transform="translate(155.7626,156.1022)"><path
         d="M 0,0 V 11.375"
         style="fill:none;stroke:#000000;stroke-width:0.25;stroke-linecap:butt;stroke-linejoin:miter;stroke-miterlimit:10;stroke-dasharray:none;stroke-opacity:1"
         id="path250"
         inkscape:connector-curvature="0" /></g><g
       id="g252"
       transform="translate(225.7626,156.1022)"><path
         d="M 0,0 V 11.375"
         style="fill:none;stroke:#000000;stroke-width:0.25;stroke-linecap:butt;stroke-linejoin:miter;stroke-miterlimit:10;stroke-dasharray:none;stroke-opacity:1"
         id="path254"
         inkscape:connector-curvature="0" /></g><g
       id="g256"
       transform="translate(285.7626,156.1022)"><path
         d="M 0,0 V 11.375"
         style="fill:none;stroke:#000000;stroke-width:0.25;stroke-linecap:butt;stroke-linejoin:miter;stroke-miterlimit:10;stroke-dasharray:none;stroke-opacity:1"
         id="path258"
         inkscape:connector-curvature="0" /></g><g
       id="g260"
       transform="translate(345.7626,156.1022)"><path
         d="M 0,0 V 11.375"
         style="fill:none;stroke:#000000;stroke-width:0.25;stroke-linecap:butt;stroke-linejoin:miter;stroke-miterlimit:10;stroke-dasharray:none;stroke-opacity:1"
         id="path262"
         inkscape:connector-curvature="0" /></g><g
       id="g264"
       transform="translate(415.7626,156.1022)"><path
         d="M 0,0 V 11.375"
         style="fill:none;stroke:#000000;stroke-width:0.25;stroke-linecap:butt;stroke-linejoin:miter;stroke-miterlimit:10;stroke-dasharray:none;stroke-opacity:1"
         id="path266"
         inkscape:connector-curvature="0" /></g><g
       id="g268"
       transform="translate(485.7626,156.1022)"><path
         d="M 0,0 V 11.375"
         style="fill:none;stroke:#000000;stroke-width:0.25;stroke-linecap:butt;stroke-linejoin:miter;stroke-miterlimit:10;stroke-dasharray:none;stroke-opacity:1"
         id="path270"
         inkscape:connector-curvature="0" /></g><g
       id="g272"
       transform="translate(155.6376,155.9772)"><path
         d="M 0,0 H 70.125"
         style="fill:none;stroke:#000000;stroke-width:0.25;stroke-linecap:butt;stroke-linejoin:miter;stroke-miterlimit:10;stroke-dasharray:none;stroke-opacity:1"
         id="path274"
         inkscape:connector-curvature="0" /></g><g
       id="g276"
       transform="translate(155.7626,144.4772)"><path
         d="M 0,0 V 11.375"
         style="fill:none;stroke:#000000;stroke-width:0.25;stroke-linecap:butt;stroke-linejoin:miter;stroke-miterlimit:10;stroke-dasharray:none;stroke-opacity:1"
         id="path278"
         inkscape:connector-curvature="0" /></g><g
       id="g280"
       transform="translate(155.6376,144.3522)"><path
         d="M 0,0 H 70.125"
         style="fill:none;stroke:#000000;stroke-width:0.25;stroke-linecap:butt;stroke-linejoin:miter;stroke-miterlimit:10;stroke-dasharray:none;stroke-opacity:1"
         id="path282"
         inkscape:connector-curvature="0" /></g><g
       id="g284"
       transform="translate(225.7626,155.9772)"><path
         d="M 0,0 H 60"
         style="fill:none;stroke:#000000;stroke-width:0.25;stroke-linecap:butt;stroke-linejoin:miter;stroke-miterlimit:10;stroke-dasharray:none;stroke-opacity:1"
         id="path286"
         inkscape:connector-curvature="0" /></g><g
       id="g288"
       transform="translate(225.7626,144.4772)"><path
         d="M 0,0 V 11.375"
         style="fill:none;stroke:#000000;stroke-width:0.25;stroke-linecap:butt;stroke-linejoin:miter;stroke-miterlimit:10;stroke-dasharray:none;stroke-opacity:1"
         id="path290"
         inkscape:connector-curvature="0" /></g><g
       id="g292"
       transform="translate(225.7626,144.3522)"><path
         d="M 0,0 H 60"
         style="fill:none;stroke:#000000;stroke-width:0.25;stroke-linecap:butt;stroke-linejoin:miter;stroke-miterlimit:10;stroke-dasharray:none;stroke-opacity:1"
         id="path294"
         inkscape:connector-curvature="0" /></g><g
       id="g296"
       transform="translate(285.7626,155.9772)"><path
         d="M 0,0 H 60"
         style="fill:none;stroke:#000000;stroke-width:0.25;stroke-linecap:butt;stroke-linejoin:miter;stroke-miterlimit:10;stroke-dasharray:none;stroke-opacity:1"
         id="path298"
         inkscape:connector-curvature="0" /></g><g
       id="g300"
       transform="translate(285.7626,144.4772)"><path
         d="M 0,0 V 11.375"
         style="fill:none;stroke:#000000;stroke-width:0.25;stroke-linecap:butt;stroke-linejoin:miter;stroke-miterlimit:10;stroke-dasharray:none;stroke-opacity:1"
         id="path302"
         inkscape:connector-curvature="0" /></g><g
       id="g304"
       transform="translate(285.7626,144.3522)"><path
         d="M 0,0 H 60"
         style="fill:none;stroke:#000000;stroke-width:0.25;stroke-linecap:butt;stroke-linejoin:miter;stroke-miterlimit:10;stroke-dasharray:none;stroke-opacity:1"
         id="path306"
         inkscape:connector-curvature="0" /></g><g
       id="g308"
       transform="translate(345.7626,155.9772)"><path
         d="M 0,0 H 70"
         style="fill:none;stroke:#000000;stroke-width:0.25;stroke-linecap:butt;stroke-linejoin:miter;stroke-miterlimit:10;stroke-dasharray:none;stroke-opacity:1"
         id="path310"
         inkscape:connector-curvature="0" /></g><g
       id="g312"
       transform="translate(345.7626,144.4772)"><path
         d="M 0,0 V 11.375"
         style="fill:none;stroke:#000000;stroke-width:0.25;stroke-linecap:butt;stroke-linejoin:miter;stroke-miterlimit:10;stroke-dasharray:none;stroke-opacity:1"
         id="path314"
         inkscape:connector-curvature="0" /></g><g
       id="g316"
       transform="translate(345.7626,144.3522)"><path
         d="M 0,0 H 70"
         style="fill:none;stroke:#000000;stroke-width:0.25;stroke-linecap:butt;stroke-linejoin:miter;stroke-miterlimit:10;stroke-dasharray:none;stroke-opacity:1"
         id="path318"
         inkscape:connector-curvature="0" /></g><g
       id="g320"
       transform="translate(415.7626,155.9772)"><path
         d="M 0,0 H 70.125"
         style="fill:none;stroke:#000000;stroke-width:0.25;stroke-linecap:butt;stroke-linejoin:miter;stroke-miterlimit:10;stroke-dasharray:none;stroke-opacity:1"
         id="path322"
         inkscape:connector-curvature="0" /></g><g
       id="g324"
       transform="translate(415.7626,144.4772)"><path
         d="M 0,0 V 11.375"
         style="fill:none;stroke:#000000;stroke-width:0.25;stroke-linecap:butt;stroke-linejoin:miter;stroke-miterlimit:10;stroke-dasharray:none;stroke-opacity:1"
         id="path326"
         inkscape:connector-curvature="0" /></g><g
       id="g328"
       transform="translate(485.7626,144.4772)"><path
         d="M 0,0 V 11.375"
         style="fill:none;stroke:#000000;stroke-width:0.25;stroke-linecap:butt;stroke-linejoin:miter;stroke-miterlimit:10;stroke-dasharray:none;stroke-opacity:1"
         id="path330"
         inkscape:connector-curvature="0" /></g><g
       id="g332"
       transform="translate(415.7626,144.3522)"><path
         d="M 0,0 H 70.125"
         style="fill:none;stroke:#000000;stroke-width:0.25;stroke-linecap:butt;stroke-linejoin:miter;stroke-miterlimit:10;stroke-dasharray:none;stroke-opacity:1"
         id="path334"
         inkscape:connector-curvature="0" /></g><text
       transform="matrix(1,0,0,-1,231.6772,171.6022)"
       style="font-variant:normal;font-weight:bold;font-stretch:normal;font-size:7px;font-family:'Minion Pro';-inkscape-font-specification:MinionPro-Bold;writing-mode:lr-tb;fill:#000000;fill-opacity:1;fill-rule:nonzero;stroke:none"
       id="text338"><tspan
         x="0 6.1810002 10.913 13.559 14.924 17.261999 20.146 23.372999 25.438 29.4 31.465 35.370998 38.814999 40.18 44.667 59.997002 66.178001 70.910004 73.556 74.920998 77.259003 80.142998 83.370003 85.434998 89.397003 91.461998 95.367996 98.811996 100.177 104.664 119.077 125.258 129.99001 132.636 134.00101 139.11099 144.47301 145.838 148.17599 151.06 154.287 156.35201 160.314 162.379 166.285 169.729 171.09399 175.58099 189.077 195.258 199.99001 202.636 204.00101 209.11099 214.47301 215.838 218.17599 221.06 224.287 226.35201 230.314 232.379 236.285 239.729 241.09399 245.58099"
         y="0"
         sodipodi:role="line"
         id="tspan336">MCI training T0MCI training T7MCI NO training T0MCI NO training T7</tspan></text>
<text
       transform="matrix(1,0,0,-1,158.7582,159.9752)"
       style="font-variant:normal;font-weight:normal;font-stretch:normal;font-size:7px;font-family:'Minion Pro';-inkscape-font-specification:MinionPro-Regular;writing-mode:lr-tb;fill:#000000;fill-opacity:1;fill-rule:nonzero;stroke:none"
       id="text342"><tspan
         x="0 4.6550002 8.743 12.446 13.874 17.612 19.403999 22.995001 26.459999 83.404999 86.764999 90.125 91.721001 95.081001"
         y="0"
         sodipodi:role="line"
         id="tspan340">CBF hipp.63,2 </tspan></text>
<text
       transform="matrix(1,0,0,-1,254.7142,159.9752)"
       style="font-variant:normal;font-weight:normal;font-stretch:normal;font-size:7px;font-family:'Euclid Symbol';-inkscape-font-specification:EuclidSymbol;writing-mode:lr-tb;fill:#000000;fill-opacity:1;fill-rule:nonzero;stroke:none"
       id="text346"><tspan
         x="0"
         y="0"
         id="tspan344">±</tspan></text>
<text
       transform="matrix(1,0,0,-1,261.0352,159.9752)"
       style="font-variant:normal;font-weight:normal;font-stretch:normal;font-size:7px;font-family:'Minion Pro';-inkscape-font-specification:MinionPro-Regular;writing-mode:lr-tb;fill:#000000;fill-opacity:1;fill-rule:nonzero;stroke:none"
       id="text350"><tspan
         x="0 3.3599999 4.9559999 41.125 44.485001 47.845001 49.441002 52.800999"
         y="0"
         sodipodi:role="line"
         id="tspan348">1,466,4 </tspan></text>
<text
       transform="matrix(1,0,0,-1,314.7112,159.9752)"
       style="font-variant:normal;font-weight:normal;font-stretch:normal;font-size:7px;font-family:'Euclid Symbol';-inkscape-font-specification:EuclidSymbol;writing-mode:lr-tb;fill:#000000;fill-opacity:1;fill-rule:nonzero;stroke:none"
       id="text354"><tspan
         x="0"
         y="0"
         id="tspan352">±</tspan></text>
<text
       transform="matrix(1,0,0,-1,321.0322,159.9752)"
       style="font-variant:normal;font-weight:normal;font-stretch:normal;font-size:7px;font-family:'Minion Pro';-inkscape-font-specification:MinionPro-Regular;writing-mode:lr-tb;fill:#000000;fill-opacity:1;fill-rule:nonzero;stroke:none"
       id="text358"><tspan
         x="0 3.3599999 4.9559999 46.130001 49.490002 52.849998 54.445999 57.806"
         y="0"
         sodipodi:role="line"
         id="tspan356">1,266,5 </tspan></text>
<text
       transform="matrix(1,0,0,-1,379.7132,159.9752)"
       style="font-variant:normal;font-weight:normal;font-stretch:normal;font-size:7px;font-family:'Euclid Symbol';-inkscape-font-specification:EuclidSymbol;writing-mode:lr-tb;fill:#000000;fill-opacity:1;fill-rule:nonzero;stroke:none"
       id="text362"><tspan
         x="0"
         y="0"
         id="tspan360">±</tspan></text>
<text
       transform="matrix(1,0,0,-1,386.0342,159.9752)"
       style="font-variant:normal;font-weight:normal;font-stretch:normal;font-size:7px;font-family:'Minion Pro';-inkscape-font-specification:MinionPro-Regular;writing-mode:lr-tb;fill:#000000;fill-opacity:1;fill-rule:nonzero;stroke:none"
       id="text366"><tspan
         x="0 3.3599999 4.9559999 51.127998 54.487999 57.848 59.444 62.804001"
         y="0"
         sodipodi:role="line"
         id="tspan364">2,066,6 </tspan></text>
<text
       transform="matrix(1,0,0,-1,449.7132,159.9752)"
       style="font-variant:normal;font-weight:normal;font-stretch:normal;font-size:7px;font-family:'Euclid Symbol';-inkscape-font-specification:EuclidSymbol;writing-mode:lr-tb;fill:#000000;fill-opacity:1;fill-rule:nonzero;stroke:none"
       id="text370"><tspan
         x="0"
         y="0"
         id="tspan368">±</tspan></text>
<text
       transform="matrix(1,0,0,-1,456.0342,159.9752)"
       style="font-variant:normal;font-weight:normal;font-stretch:normal;font-size:7px;font-family:'Minion Pro';-inkscape-font-specification:MinionPro-Regular;writing-mode:lr-tb;fill:#000000;fill-opacity:1;fill-rule:nonzero;stroke:none"
       id="text376"><tspan
         x="0 3.3599999 4.9559999"
         y="0"
         sodipodi:role="line"
         id="tspan372">1,6</tspan><tspan
         x="-297.276 -292.621 -288.53299 -284.82999 -283.40201 -279.69971 -276.6897 -274.09271 -270.98471 -267.2467 -265.45471 -261.86371 -258.39871 -256.8027 -255.37469 -251.93069 -248.6967 -246.0304 -242.3344 -213.871 -210.511 -207.151 -205.55499 -202.19501"
         y="11.627"
         sodipodi:role="line"
         id="tspan374">CBF parahipp. gyrus64,9 </tspan></text>
<text
       transform="matrix(1,0,0,-1,254.7142,148.3482)"
       style="font-variant:normal;font-weight:normal;font-stretch:normal;font-size:7px;font-family:'Euclid Symbol';-inkscape-font-specification:EuclidSymbol;writing-mode:lr-tb;fill:#000000;fill-opacity:1;fill-rule:nonzero;stroke:none"
       id="text380"><tspan
         x="0"
         y="0"
         id="tspan378">±</tspan></text>
<text
       transform="matrix(1,0,0,-1,261.0352,148.3482)"
       style="font-variant:normal;font-weight:normal;font-stretch:normal;font-size:7px;font-family:'Minion Pro';-inkscape-font-specification:MinionPro-Regular;writing-mode:lr-tb;fill:#000000;fill-opacity:1;fill-rule:nonzero;stroke:none"
       id="text384"><tspan
         x="0 3.3599999 4.9559999 42.188999 45.549 48.909"
         y="0"
         sodipodi:role="line"
         id="tspan382">1,269 </tspan></text>
<text
       transform="matrix(1,0,0,-1,310.8192,148.3482)"
       style="font-variant:normal;font-weight:normal;font-stretch:normal;font-size:7px;font-family:'Euclid Symbol';-inkscape-font-specification:EuclidSymbol;writing-mode:lr-tb;fill:#000000;fill-opacity:1;fill-rule:nonzero;stroke:none"
       id="text388"><tspan
         x="0"
         y="0"
         id="tspan386">±</tspan></text>
<text
       transform="matrix(1,0,0,-1,317.1402,148.3482)"
       style="font-variant:normal;font-weight:normal;font-stretch:normal;font-size:7px;font-family:'Minion Pro';-inkscape-font-specification:MinionPro-Regular;writing-mode:lr-tb;fill:#000000;fill-opacity:1;fill-rule:nonzero;stroke:none"
       id="text392"><tspan
         x="0 3.3599999 4.9559999 8.316 50.021999 53.382 56.742001 58.338001 61.698002"
         y="0"
         sodipodi:role="line"
         id="tspan390">1,1*68,6 </tspan></text>
<text
       transform="matrix(1,0,0,-1,379.7132,148.3482)"
       style="font-variant:normal;font-weight:normal;font-stretch:normal;font-size:7px;font-family:'Euclid Symbol';-inkscape-font-specification:EuclidSymbol;writing-mode:lr-tb;fill:#000000;fill-opacity:1;fill-rule:nonzero;stroke:none"
       id="text396"><tspan
         x="0"
         y="0"
         id="tspan394">±</tspan></text>
<text
       transform="matrix(1,0,0,-1,386.0342,148.3482)"
       style="font-variant:normal;font-weight:normal;font-stretch:normal;font-size:7px;font-family:'Minion Pro';-inkscape-font-specification:MinionPro-Regular;writing-mode:lr-tb;fill:#000000;fill-opacity:1;fill-rule:nonzero;stroke:none"
       id="text400"><tspan
         x="0 3.3599999 4.9559999 51.127998 54.487999 57.848 59.444 62.804001"
         y="0"
         sodipodi:role="line"
         id="tspan398">1,466,8 </tspan></text>
<text
       transform="matrix(1,0,0,-1,449.7132,148.3482)"
       style="font-variant:normal;font-weight:normal;font-stretch:normal;font-size:7px;font-family:'Euclid Symbol';-inkscape-font-specification:EuclidSymbol;writing-mode:lr-tb;fill:#000000;fill-opacity:1;fill-rule:nonzero;stroke:none"
       id="text404"><tspan
         x="0"
         y="0"
         id="tspan402">±</tspan></text>
<text
       transform="matrix(1,0,0,-1,456.0342,148.3482)"
       style="font-variant:normal;font-weight:normal;font-stretch:normal;font-size:7px;font-family:'Minion Pro';-inkscape-font-specification:MinionPro-Regular;writing-mode:lr-tb;fill:#000000;fill-opacity:1;fill-rule:nonzero;stroke:none"
       id="text408"><tspan
         x="0 3.3599999 4.9559999"
         y="0"
         sodipodi:role="line"
         id="tspan406">2,0</tspan></text>
<text
       transform="matrix(1,0,0,-1,155.6376,128.2272)"
       style="font-variant:normal;font-weight:bold;font-stretch:normal;font-size:9px;font-family:'Minion Pro';-inkscape-font-specification:MinionPro-Bold;writing-mode:lr-tb;fill:#000000;fill-opacity:1;fill-rule:nonzero;stroke:none"
       id="text412"><tspan
         x="0 4.9590001 9.0900002 13.869 16.424999 20.358 22.113001 26.613001"
         y="0"
         sodipodi:role="line"
         id="tspan410">Table 3.</tspan></text>
<text
       transform="matrix(1,0,0,-1,190.7916,128.2272)"
       style="font-variant:normal;font-weight:bold;font-stretch:normal;font-size:9px;font-family:'Minion Pro';-inkscape-font-specification:MinionPro-Bold;writing-mode:lr-tb;fill:#000000;fill-opacity:1;fill-rule:nonzero;stroke:none"
       id="text416"><tspan
         x="0 5.0489998 8.757 12.906 15.561 20.655001 23.309999 28.332001 32.759998 34.514999 37.169998 42.264 46.062 49.625099 53.6301 57.8241 61.3521 65.285103 68.732101 70.487099 76.571098 82.2771 87.2631 89.018097 91.673103 96.767097 98.522102 103.5261 107.6751 111.3822 115.6212 120.5712 123.1812 128.0322 133.0542 137.8782 141.8022 145.9512 153.4662 158.4693 162.7083 165.2103 166.9653 170.5293 174.4893 178.9803 181.6893 186.3243 191.4183 194.8653"
         y="0"
         sodipodi:role="line"
         id="tspan414">Training increases CBF in parahippocampal regions.</tspan></text>
<text
       transform="matrix(1,0,0,-1,389.7789,128.2272)"
       style="font-variant:normal;font-weight:normal;font-stretch:normal;font-size:9px;font-family:'Minion Pro';-inkscape-font-specification:MinionPro-Regular;writing-mode:lr-tb;fill:#000000;fill-opacity:1;fill-rule:nonzero;stroke:none"
       id="text422"><tspan
         x="0 5.4351001 9.4310999 11.6001 16.379101 20.2041 23.507099 25.3431 29.8251 32.489101 34.3251 40.444199 44.269199 47.491199 51.2892 55.753201 59.092201 63.0882 65.365196 67.201202 72.439201 74.716202 79.387199 84.057297 88.809303 90.645302 95.406303 97.683296 102.1293 108.2943 110.1303 113.2443 119.2293 124.4853 129.24631 132.36031 134.1963 137.9754 140.7204 142.5564 148.10941 152.4294"
         y="0"
         sodipodi:role="line"
         id="tspan418">Values of Cerebral Blood Flow (CBF) at T0 </tspan><tspan
         x="-234.1413 -230.2713 -225.38429 -220.63229 -218.7963 -213.2433 -208.92329 -207.0873 -204.5043 -200.02229 -196.6833 -194.84731 -186.9093 -180.9243 -177.8553 -174.65131 -171.8613 -168.52229 -164.6523 -162.2403 -157.31731 -154.9053 -150.05431 -145.8423 -144.0063 -140.8923 -135.9693"
         y="9.9989996"
         sodipodi:role="line"
         id="tspan420">and T7 for MCI-training (n </tspan></text>
<text
       transform="matrix(1,0,0,-1,254.9436,118.2282)"
       style="font-variant:normal;font-weight:normal;font-stretch:normal;font-size:9px;font-family:'Euclid Symbol';-inkscape-font-specification:EuclidSymbol;writing-mode:lr-tb;fill:#000000;fill-opacity:1;fill-rule:nonzero;stroke:none"
       id="text426"><tspan
         x="0"
         y="0"
         id="tspan424">=</tspan></text>
<text
       transform="matrix(1,0,0,-1,263.0706,118.2282)"
       style="font-variant:normal;font-weight:normal;font-stretch:normal;font-size:9px;font-family:'Minion Pro';-inkscape-font-specification:MinionPro-Regular;writing-mode:lr-tb;fill:#000000;fill-opacity:1;fill-rule:nonzero;stroke:none"
       id="text430"><tspan
         x="0 4.3200002 8.6400003 11.754 13.59 17.459999 22.347 27.099001 28.934999 33.615002 38.501099 43.091099 44.927101 47.717098 51.056099 54.926102 57.3381 62.261101 64.673103 69.524101 73.736099 75.572098 78.830101 83.573097 88.046097 90.395103 94.264198 98.134201 100.8792 104.1822 106.0182 109.1322 114.0552"
         y="0"
         sodipodi:role="line"
         id="tspan428">48) and –no training subjects (n </tspan></text>
<text
       transform="matrix(1,0,0,-1,378.2616,118.2282)"
       style="font-variant:normal;font-weight:normal;font-stretch:normal;font-size:9px;font-family:'Euclid Symbol';-inkscape-font-specification:EuclidSymbol;writing-mode:lr-tb;fill:#000000;fill-opacity:1;fill-rule:nonzero;stroke:none"
       id="text434"><tspan
         x="0"
         y="0"
         id="tspan432">=</tspan></text>
<text
       transform="matrix(1,0,0,-1,386.3886,118.2282)"
       style="font-variant:normal;font-weight:normal;font-stretch:normal;font-size:9px;font-family:'Minion Pro';-inkscape-font-specification:MinionPro-Regular;writing-mode:lr-tb;fill:#000000;fill-opacity:1;fill-rule:nonzero;stroke:none"
       id="text440"><tspan
         x="0 4.3200002 8.6400003 11.754 13.806 15.642 21.716999 24.975 27.666 31.490999 34.883099 37.268101 40.535099 44.9991 48.302101 50.1381 54.890099 58.715099 63.6021 68.093102 70.784103 74.6091 76.445099 79.7481 82.160103 86.417099 91.340103 93.752098 98.567101 102.4011 106.2711 111.0231 113.7681 115.6041 120.3561 122.7681 127.7361 131.5611 134.7831 138.60809 143.4951 147.30209 151.12711"
         y="0"
         sodipodi:role="line"
         id="tspan436">22). Asterisks denote signifcant diference </tspan><tspan
         x="-230.75101 -226.09801 -222.27299 -219.50191 -213.408 -209.53889 -205.7139 -200.79089 -198.9549 -193.4019 -189.08189 -187.2459 -183.3759 -178.48891 -173.73689 -171.90089 -166.3479 -162.02789 -159.97591 -158.13989 -153.2439 -147.15089 -142.5609 -140.7249 -134.55991 -130.7709 -126.6399 -124.8039 -119.2149 -111.1959 -109.3599 -103.1409 -96.516899 -89.946899 -84.726898 -78.507896 -76.455902 -74.619904 -72.207901 -67.455902 -64.7649 -60.939899 -57.600899 -53.649899 -49.7799 -46.990799 -44.5788 -40.096802 -35.173801 -33.337799 -30.5478 -28.135799 -20.8008 -16.9758 -15.1398 -9.9197998 -8.0838003 -5.2937999 -2.0718 1.8072 5.5872002 8.3772001 15.7122 19.537201 24.2883 27.0333 28.869301 33.5853"
         y="9.9989996"
         sodipodi:role="line"
         id="tspan438">between T0 and T7. Two way RM ANOVA, interaction time × treatment p </tspan></text>
<text
       transform="matrix(1,0,0,-1,421.1286,108.2292)"
       style="font-variant:normal;font-weight:normal;font-stretch:normal;font-size:9px;font-family:'Euclid Symbol';-inkscape-font-specification:EuclidSymbol;writing-mode:lr-tb;fill:#000000;fill-opacity:1;fill-rule:nonzero;stroke:none"
       id="text444"><tspan
         x="0"
         y="0"
         id="tspan442">&lt;</tspan></text>
<text
       transform="matrix(1,0,0,-1,429.2556,108.2292)"
       style="font-variant:normal;font-weight:normal;font-stretch:normal;font-size:9px;font-family:'Minion Pro';-inkscape-font-specification:MinionPro-Regular;writing-mode:lr-tb;fill:#000000;fill-opacity:1;fill-rule:nonzero;stroke:none"
       id="text448"><tspan
         x="0 4.3200002 6.3720002 10.692 15.012 16.848 19.431 23.913 27.252001 29.087999 33.848999 37.719002 41.057999 45.054001 49.860001 52.164001 56.780998 61.577999 66.249001 70.0821 73.952103 81.1521 85.913101 89.909103 92.186096 94.022102 98.449203 102.6072 106.0362 110.7882 114.0912"
         y="0"
         sodipodi:role="line"
         id="tspan446">0.05 for parahippocampal gyrus.</tspan></text>
</g></svg>