<?xml version="1.0" encoding="UTF-8" standalone="no"?>
<!-- Created with Inkscape (http://www.inkscape.org/) -->

<svg
   xmlns:dc="http://purl.org/dc/elements/1.1/"
   xmlns:cc="http://creativecommons.org/ns#"
   xmlns:rdf="http://www.w3.org/1999/02/22-rdf-syntax-ns#"
   xmlns:svg="http://www.w3.org/2000/svg"
   xmlns="http://www.w3.org/2000/svg"
   xmlns:sodipodi="http://sodipodi.sourceforge.net/DTD/sodipodi-0.dtd"
   xmlns:inkscape="http://www.inkscape.org/namespaces/inkscape"
   version="1.1"
   id="svg2"
   xml:space="preserve"
   width="793.70135"
   height="1054.488"
   viewBox="0 0 793.70135 1054.488"
   sodipodi:docname="table1.svg"
   inkscape:version="0.92.0 r15299"><metadata
     id="metadata8"><rdf:RDF><cc:Work
         rdf:about=""><dc:format>image/svg+xml</dc:format><dc:type
           rdf:resource="http://purl.org/dc/dcmitype/StillImage" /><dc:title></dc:title></cc:Work></rdf:RDF></metadata><defs
     id="defs6"><clipPath
       clipPathUnits="userSpaceOnUse"
       id="clipPath646"><path
         d="M 306.879,737.008 H 543.515 V 585.29799 H 306.879 Z"
         id="path644"
         inkscape:connector-curvature="0" /></clipPath><clipPath
       clipPathUnits="userSpaceOnUse"
       id="clipPath752"><path
         d="m 51.023998,55.049 h 38.098 V 44.901 h -38.098 z"
         id="path750"
         inkscape:connector-curvature="0" /></clipPath><clipPath
       clipPathUnits="userSpaceOnUse"
       id="clipPath768"><path
         d="m 51.023998,55.049 h 38.098 V 44.901 h -38.098 z"
         id="path766"
         inkscape:connector-curvature="0" /></clipPath><clipPath
       clipPathUnits="userSpaceOnUse"
       id="clipPath786"><path
         d="m 51.023998,55.049 h 38.098 V 44.901 h -38.098 z"
         id="path784"
         inkscape:connector-curvature="0" /></clipPath></defs><sodipodi:namedview
     pagecolor="#ffffff"
     bordercolor="#666666"
     borderopacity="1"
     objecttolerance="10"
     gridtolerance="10"
     guidetolerance="10"
     inkscape:pageopacity="0"
     inkscape:pageshadow="2"
     inkscape:window-width="1920"
     inkscape:window-height="988"
     id="namedview4"
     showgrid="false"
     inkscape:zoom="0.89522116"
     inkscape:cx="416.37703"
     inkscape:cy="668.53151"
     inkscape:window-x="0"
     inkscape:window-y="27"
     inkscape:window-maximized="1"
     inkscape:current-layer="g10" /><g
     id="g10"
     inkscape:groupmode="layer"
     inkscape:label="fulltext"
     transform="matrix(1.3333333,0,0,-1.3333333,0,1054.488)"><path
       d="M 51.023998,691.65302 H 289.134 v -0.567 H 51.023998 Z"
       style="fill:#131413;fill-opacity:1;fill-rule:evenodd;stroke:#131413;stroke-width:0.75;stroke-linecap:round;stroke-linejoin:round;stroke-miterlimit:10;stroke-dasharray:none;stroke-opacity:1"
       id="path170"
       inkscape:connector-curvature="0" /><g
       id="g172"
       transform="translate(289.134,231.817)"><path
         d="M 0,0 H -238.11 V 0.56699997 H 0 V 0"
         style="fill:#131413;fill-opacity:1;fill-rule:evenodd;stroke:#131413;stroke-width:0.75;stroke-linecap:round;stroke-linejoin:round;stroke-miterlimit:10;stroke-dasharray:none;stroke-opacity:1"
         id="path174"
         inkscape:connector-curvature="0" /></g><g
       id="g176"
       transform="translate(124.724,660.64203)"><path
         d="M 0,0 H -73.700996 V 0.56699997 H 0"
         style="fill:#131413;fill-opacity:1;fill-rule:evenodd;stroke:#131413;stroke-width:0.75;stroke-linecap:round;stroke-linejoin:round;stroke-miterlimit:10;stroke-dasharray:none;stroke-opacity:1"
         id="path178"
         inkscape:connector-curvature="0" /></g><g
       id="g180"
       transform="translate(196.04401,660.64203)"><path
         d="M 0,0 H -71.32 V 0.56699997 H 0"
         style="fill:#131413;fill-opacity:1;fill-rule:evenodd;stroke:#131413;stroke-width:0.75;stroke-linecap:round;stroke-linejoin:round;stroke-miterlimit:10;stroke-dasharray:none;stroke-opacity:1"
         id="path182"
         inkscape:connector-curvature="0" /></g><g
       id="g184"
       transform="translate(264.92599,660.64203)"><path
         d="M 0,0 H -68.882004 V 0.56699997 H 0"
         style="fill:#131413;fill-opacity:1;fill-rule:evenodd;stroke:#131413;stroke-width:0.75;stroke-linecap:round;stroke-linejoin:round;stroke-miterlimit:10;stroke-dasharray:none;stroke-opacity:1"
         id="path186"
         inkscape:connector-curvature="0" /></g><g
       id="g188"
       transform="translate(289.134,660.64203)"><path
         d="M 0,0 H -24.208 V 0.56699997 H 0"
         style="fill:#131413;fill-opacity:1;fill-rule:evenodd;stroke:#131413;stroke-width:0.75;stroke-linecap:round;stroke-linejoin:round;stroke-miterlimit:10;stroke-dasharray:none;stroke-opacity:1"
         id="path190"
         inkscape:connector-curvature="0" /></g><text
       transform="matrix(1,0,0,-1,51.023602,727.02979)"
       style="font-variant:normal;font-weight:normal;font-size:8.46819973px;font-family:XldpkrAdvTTb8864ccf;-inkscape-font-specification:XldpkrAdvTTb8864ccf;writing-mode:lr-tb;fill:#131413;fill-opacity:1;fill-rule:nonzero;stroke:none"
       id="text194"><tspan
         x="0 4.8192525 9.0541992 13.55166 15.838921 21.886063"
         y="0"
         sodipodi:role="line"
         id="tspan192">Table1</tspan></text>
<text
       transform="matrix(1,0,0,-1,87.699373,727.02979)"
       style="font-variant:normal;font-weight:normal;font-size:8.46819973px;font-family:QjhrxhAdvTT3713a231;-inkscape-font-specification:QjhrxhAdvTT3713a231;writing-mode:lr-tb;fill:#131413;fill-opacity:1;fill-rule:nonzero;stroke:none"
       id="text198"><tspan
         x="0 7.3673339 11.067937 15.132673 19.366774 22.838736 25.125149 27.259134 33.381645 35.989849 39.690453 42.789814 47.023914 51.063244 54.636826 58.870926 62.402164 68.524673 71.640968 75.875069 79.406311 83.106911 85.190086 87.916847 91.990051 95.250313 98.739212 102.97331 107.01264 113.64324 116.37 123.67805 129.31787 133.82297 138.98009 145.38205 149.08266 152.58002 155.84029 159.89655 162.62331 166.12914 171.85364"
         y="0"
         sodipodi:role="line"
         id="tspan196">Magneticresonancespectroscopy(MRS)measures(</tspan></text>
<text
       transform="matrix(1,0,0,-1,262.1951,727.02979)"
       style="font-variant:normal;font-weight:normal;font-size:8.46819973px;font-family:'YqbwbcAdvTT3713a231 3';-inkscape-font-specification:'YqbwbcAdvTT3713a231 3';writing-mode:lr-tb;fill:#131413;fill-opacity:1;fill-rule:nonzero;stroke:none"
       id="text202"><tspan
         x="0"
         y="0"
         id="tspan200">μ</tspan></text>
<text
       transform="matrix(1,0,0,-1,267.29296,727.02979)"
       style="font-variant:normal;font-weight:normal;font-size:8.46819973px;font-family:QjhrxhAdvTT3713a231;-inkscape-font-specification:QjhrxhAdvTT3713a231;writing-mode:lr-tb;fill:#131413;fill-opacity:1;fill-rule:nonzero;stroke:none"
       id="text208"><tspan
         x="0 6.4087334 10.64114 12.756496 15.041216 19.104259"
         y="0"
         sodipodi:role="line"
         id="tspan204">mol/g)</tspan><tspan
         x="-216.28629 -212.58569 -208.52095 -202.39844 -200.24753 -196.01343 -190.50063 -184.86081 -182.33728 -178.63667 -172.30246 -168.60185"
         y="9.9247303"
         sodipodi:role="line"
         id="tspan206">andtheCramer</tspan></text>
<text
       transform="matrix(1,0,0,-1,101.24003,717.10505)"
       style="font-variant:normal;font-weight:normal;font-size:8.46819973px;font-family:'HkjnjqAdvTT3713a231 20';-inkscape-font-specification:'HkjnjqAdvTT3713a231 20';writing-mode:lr-tb;fill:#131413;fill-opacity:1;fill-rule:nonzero;stroke:none"
       id="text212"><tspan
         x="0"
         y="0"
         id="tspan210">–</tspan></text>
<text
       transform="matrix(1,0,0,-1,105.38098,717.10505)"
       style="font-variant:normal;font-weight:normal;font-size:8.46819973px;font-family:QjhrxhAdvTT3713a231;-inkscape-font-specification:QjhrxhAdvTT3713a231;writing-mode:lr-tb;fill:#131413;fill-opacity:1;fill-rule:nonzero;stroke:none"
       id="text218"><tspan
         x="0 5.6398211 9.1879969 15.310505 17.596918 21.661655 27.614799 31.315403 35.837421 40.071522 44.110851 48.344952 52.384285 58.50679 61.233551 66.729416 72.225273 77.340065 82.827461 87.417229 90.14399 96.943947 101.59299 104.20119 108.4353 112.87263 117.10674 119.22379 123.45789 125.51566 129.21626 135.55048 139.25108 141.39352 144.96712 148.9895 153.2236 155.34065 159.57475 161.63252 165.33313 171.66734 173.95377 178.01849 181.7191"
         y="0"
         sodipodi:role="line"
         id="tspan214">Raolowerbound(CRLB)(%)forglutamate,glutamine,</tspan><tspan
         x="-54.365841 -52.07943 -48.014694 -45.86377 -42.163166 -37.59034 -31.510172 -28.969711 -25.269108 -21.771742 -18.071138 -15.928684 -11.694585 -9.6368122 -5.9362087 -2.8368475 1.3972523 4.8692141 7.5959744 9.7468977 13.320477 15.606892 21.593908 24.202114 26.488527 32.424736 38.37788 44.45805 46.998508 51.478184 53.764599 57.829334 60.115749 63.613117 68.262154 71.962761 74.494751 78.195358 81.751999 83.902924 86.189339 90.254074 96.317307 99.04406 101.13571 106.77553 109.35833 111.96654"
         y="9.9755392"
         sodipodi:role="line"
         id="tspan216">totalN-acetylaspartate(tNAA),totalcreatine(tCr),</tspan></text>
<text
       transform="matrix(1,0,0,-1,221.82719,707.12952)"
       style="font-variant:normal;font-weight:normal;font-size:8.46819973px;font-family:'YqbwbcAdvTT3713a231 3';-inkscape-font-specification:'YqbwbcAdvTT3713a231 3';writing-mode:lr-tb;fill:#131413;fill-opacity:1;fill-rule:nonzero;stroke:none"
       id="text222"><tspan
         x="0"
         y="0"
         id="tspan220">γ</tspan></text>
<text
       transform="matrix(1,0,0,-1,226.87424,707.12952)"
       style="font-variant:normal;font-weight:normal;font-size:8.46819973px;font-family:QjhrxhAdvTT3713a231;-inkscape-font-specification:QjhrxhAdvTT3713a231;writing-mode:lr-tb;fill:#131413;fill-opacity:1;fill-rule:nonzero;stroke:none"
       id="text236"><tspan
         x="0 2.5929627 6.2952595 12.631166 14.919274 18.985704 23.221497 27.262522 31.498316 33.557781 37.793575 40.386539 42.539154 48.60408 52.306377 55.87318 58.025799"
         y="0"
         sodipodi:role="line"
         id="tspan224">-aminobutyricacid</tspan><tspan
         x="-175.8591 -173.2509 -167.17073 -161.23453 -155.5947 -149.72624 -146.99948 -142.75691 -140.60599 -136.37189 -132.33257 -129.0723 -126.94678 -124.79586 -120.56176 -116.17523 -112.47463 -108.4099 -102.00793 -97.773834 -95.656784 -91.422684 -89.305634 -85.732056 -83.445641 -79.380905 -77.22998 -72.99588 -68.956551 -63.062683 -60.335926 -54.442059 -49.767612 -43.83987 -38.911381 -35.337799 -31.103699 -27.064367 -23.363764 -19.866398 -15.632298 -13.515248 -10.907043 -7.2064395 -5.0639853 -2.9130623 1.3210374 5.3603687"
         y="9.9755392"
         sodipodi:role="line"
         id="tspan226">(GABA),inositolandglutathione(GSH)concentrations</tspan><tspan
         x="-102.16036 -97.485916 -93.997017 -91.710602 -89.576614 -86.003036 -81.768936 -79.651886 -74.206833 -68.126671 -66.043488 -63.757076 -57.422863 -51.342697"
         y="28.800346"
         sodipodi:role="line"
         id="tspan228">PatientswithAN</tspan><tspan
         x="-102.16036 -94.797264 -91.100891 -87.531548 -81.125351 -78.529854 -73.859642 -68.876106 -61.513004"
         y="38.775887"
         sodipodi:role="line"
         id="tspan230">Mean(SEM)</tspan><tspan
         x="-30.841185 -24.908365 -21.211149 -17.7087 -15.425674 -13.286607 -9.0558949 -2.7420049 0.95521116 5.0419645 9.2726765 11.327063 14.050435 18.137188 20.276257"
         y="28.800346"
         sodipodi:role="line"
         id="tspan232">Healthycontrols</tspan><tspan
         x="-30.841185 -23.468771 -19.771555 -16.269108 -9.8027897 -7.1979713 -2.5269127 2.3812559 9.8722258"
         y="38.775887"
         sodipodi:role="line"
         id="tspan234">Mean(SEM)</tspan></text>
<text
       transform="matrix(1,0,0,-1,264.91339,678.32917)"
       style="font-variant:normal;font-weight:normal;font-size:8.46819973px;font-family:XqnwsmAdvTT50a2f13e;-inkscape-font-specification:XqnwsmAdvTT50a2f13e;writing-mode:lr-tb;fill:#131413;fill-opacity:1;fill-rule:nonzero;stroke:none"
       id="text240"><tspan
         x="0"
         y="0"
         id="tspan238">p</tspan></text>
<text
       transform="matrix(1,0,0,-1,271.31535,678.32917)"
       style="font-variant:normal;font-weight:normal;font-size:8.46819973px;font-family:QjhrxhAdvTT3713a231;-inkscape-font-specification:QjhrxhAdvTT3713a231;writing-mode:lr-tb;fill:#131413;fill-opacity:1;fill-rule:nonzero;stroke:none"
       id="text416"><tspan
         x="0 4.2340999 7.7653394 10.051753 14.116488"
         y="0"
         sodipodi:role="line"
         id="tspan242">value</tspan><tspan
         x="-220.30869 -214.22852 -212.14534 -207.91124 -205.79419 -202.0936 -195.75938 -192.05878 -189.9756 -184.08173 -181.35497 -175.46111 -169.82129 -164.35083"
         y="30.443178"
         sodipodi:role="line"
         id="tspan244">Glutamate(ACC)</tspan><tspan
         x="-220.30869 -214.66887 -209.19841 -204.21065"
         y="40.418716"
         sodipodi:role="line"
         id="tspan246">CRLB</tspan><tspan
         x="-142.46899 -138.23489 -134.19556 -132.214 -125.75277 -123.14456 -118.91046 -116.96278 -112.72868 -108.74016"
         y="30.443178"
         sodipodi:role="line"
         id="tspan248">10.6(0.24)</tspan><tspan
         x="-146.60994 -142.37584 -140.48744 -134.0262 -131.418 -127.18389 -125.23621 -121.00211"
         y="40.418716"
         sodipodi:role="line"
         id="tspan250">2.1(0.6)</tspan><tspan
         x="-70.921181 -67.066452 -62.830662 -60.889748 -54.486095 -51.757641 -47.682743 -45.699493 -41.463699 -37.422672"
         y="30.443178"
         sodipodi:role="line"
         id="tspan252">11.6(0.19)</tspan><tspan
         x="-75.282303 -71.197243 -69.076805 -62.747673 -60.017525 -55.932465 -53.964455 -49.726967"
         y="40.418716"
         sodipodi:role="line"
         id="tspan254">2.2(0.7)</tspan><tspan
         x="-6.4019656 -2.167866 -0.22017998 4.0139198 8.0532513"
         y="30.443178"
         sodipodi:role="line"
         id="tspan256">0.004</tspan><tspan
         x="-220.30023 -214.22006 -212.13689 -207.90279 -205.78574 -202.08513 -195.75092 -192.05031 -189.96713 -184.07327 -181.34651 -175.45264 -169.81282 -164.34236"
         y="50.402725"
         sodipodi:role="line"
         id="tspan258">Glutamate(OCC)</tspan><tspan
         x="-220.30023 -214.6604 -209.18996 -204.20218"
         y="60.378265"
         sodipodi:role="line"
         id="tspan260">CRLB</tspan><tspan
         x="-138.3196 -134.08549 -132.19708 -125.73585 -123.12764 -118.89354 -116.94585 -112.71175 -108.72323"
         y="50.402725"
         sodipodi:role="line"
         id="tspan262">8.7(0.15)</tspan><tspan
         x="-146.59302 -142.35892 -140.4705 -134.00928 -131.40108 -127.16697 -125.21928 -120.98518"
         y="60.378265"
         sodipodi:role="line"
         id="tspan264">2.3(0.7)</tspan><tspan
         x="-67.051224 -62.817123 -60.869438 -54.46748 -51.740719 -47.667515 -45.685955 -41.451855 -37.412525"
         y="50.402725"
         sodipodi:role="line"
         id="tspan266">9.4(0.24)</tspan><tspan
         x="-75.273849 -71.188789 -69.068352 -62.739216 -60.009068 -55.924011 -53.956001 -49.718513"
         y="60.378265"
         sodipodi:role="line"
         id="tspan268">2.1(0.6)</tspan><tspan
         x="-6.3935108 -2.159411 -0.21172506 4.0223746 8.0617056"
         y="50.402725"
         sodipodi:role="line"
         id="tspan270">0.029</tspan><tspan
         x="-220.29178 -214.21161 -212.12843 -207.89433 -205.77728 -202.07668 -195.74246 -192.04185 -189.95868 -184.06482 -181.33806 -176.86685 -170.78668 -165.81584"
         y="70.302994"
         sodipodi:role="line"
         id="tspan272">Glutamate(PUT)</tspan><tspan
         x="-220.29178 -214.65195 -209.1815 -204.19373"
         y="80.278534"
         sodipodi:role="line"
         id="tspan274">CRLB</tspan><tspan
         x="-138.31114 -134.07704 -132.18863 -125.72739 -123.11919 -118.88509 -116.9374 -112.7033 -108.71478"
         y="70.302994"
         sodipodi:role="line"
         id="tspan276">7.6(0.29)</tspan><tspan
         x="-146.58456 -142.35046 -140.46205 -134.00082 -131.39261 -127.15852 -125.21083 -120.97673"
         y="80.278534"
         sodipodi:role="line"
         id="tspan278">4.5(1.3)</tspan><tspan
         x="-67.04277 -62.80867 -60.860985 -54.459023 -51.732265 -47.659061 -45.677502 -41.443401 -37.404072"
         y="70.302994"
         sodipodi:role="line"
         id="tspan280">8.3(0.18)</tspan><tspan
         x="-75.265388 -71.180328 -69.059891 -62.730762 -60.000614 -55.915554 -53.947544 -49.710056"
         y="80.278534"
         sodipodi:role="line"
         id="tspan282">3.9(1.4)</tspan><tspan
         x="-6.385056 -2.1509562 -0.20327017 4.0308299 8.0701609"
         y="70.302994"
         sodipodi:role="line"
         id="tspan284">0.058</tspan><tspan
         x="-220.28333 -214.20316 -212.11998 -207.88588 -205.76883 -202.06822 -195.73401 -193.4476 -189.38286 -183.489 -180.88078 -174.80061 -169.31323 -163.81737"
         y="90.262543"
         sodipodi:role="line"
         id="tspan286">Glutamine(ACC)</tspan><tspan
         x="-220.28333 -214.64349 -209.17303 -204.18527"
         y="100.23808"
         sodipodi:role="line"
         id="tspan288">CRLB</tspan><tspan
         x="-138.30267 -134.06857 -132.18018 -125.71893 -123.11073 -118.87663 -116.92895 -112.69485 -108.70632"
         y="90.262543"
         sodipodi:role="line"
         id="tspan290">3.5(0.16)</tspan><tspan
         x="-146.57611 -142.34201 -140.4536 -133.99237 -131.38416 -127.15006 -125.20238 -120.96828"
         y="100.23808"
         sodipodi:role="line"
         id="tspan292">7.0(2.0)</tspan><tspan
         x="-71.175255 -66.941162 -64.993469 -60.759373 -54.450565 -51.723804 -47.6506 -45.669041 -41.43494 -37.395611"
         y="90.262543"
         sodipodi:role="line"
         id="tspan294">3.20(0.24)</tspan><tspan
         x="-75.256927 -71.171867 -69.051437 -62.722301 -59.992153 -55.907093 -53.939083 -49.701599"
         y="100.23808"
         sodipodi:role="line"
         id="tspan296">7.6(2.3)</tspan><tspan
         x="-6.3765955 -2.1424956 -0.19480975 4.03929"
         y="90.262543"
         sodipodi:role="line"
         id="tspan298">0.28</tspan><tspan
         x="-220.27486 -214.19469 -212.11151 -207.87741 -205.76036 -202.05977 -195.72556 -193.43913 -189.3744 -183.48053 -180.87233 -174.79216 -169.30476 -163.8089"
         y="110.16281"
         sodipodi:role="line"
         id="tspan300">Glutamine(OCC)</tspan><tspan
         x="-220.27486 -214.63504 -209.16458 -204.1768"
         y="120.13835"
         sodipodi:role="line"
         id="tspan302">CRLB</tspan><tspan
         x="-142.43517 -138.20107 -136.31265 -132.07855 -125.71047 -123.10226 -118.86816 -116.92048 -112.68638 -108.69785"
         y="110.16281"
         sodipodi:role="line"
         id="tspan304">2.90(0.12)</tspan><tspan
         x="-146.57611 -142.34201 -140.4536 -133.99237 -131.38417 -127.15006 -125.20238 -120.96828"
         y="120.13835"
         sodipodi:role="line"
         id="tspan306">6.7(1.9)</tspan><tspan
         x="-71.175262 -66.941162 -64.993477 -60.759377 -54.450565 -51.723804 -47.6506 -45.669044 -41.434944 -37.395611"
         y="110.16281"
         sodipodi:role="line"
         id="tspan308">2.62(0.08)</tspan><tspan
         x="-75.256935 -71.171875 -69.051437 -62.722305 -59.992157 -55.907097 -53.939087 -49.701599"
         y="120.13835"
         sodipodi:role="line"
         id="tspan310">7.7(2.2)</tspan><tspan
         x="-6.3765979 -2.1424983 -0.19481219 4.0392876"
         y="110.16281"
         sodipodi:role="line"
         id="tspan312">0.06</tspan><tspan
         x="-220.27486 -214.19469 -212.11151 -207.87741 -205.76036 -202.05977 -195.72556 -193.43913 -189.3744 -183.48053 -180.87233 -176.19788 -170.32942 -165.21463"
         y="130.12236"
         sodipodi:role="line"
         id="tspan314">Glutamine(PUT)</tspan><tspan
         x="-220.27486 -214.63504 -209.16458 -204.17682"
         y="140.0979"
         sodipodi:role="line"
         id="tspan316">CRLB</tspan><tspan
         x="-142.43517 -138.20107 -136.31265 -132.07855 -125.71047 -123.10226 -118.86816 -116.92048 -112.68638 -108.69786"
         y="130.12236"
         sodipodi:role="line"
         id="tspan318">2.52(0.21)</tspan><tspan
         x="-146.57611 -142.34201 -138.30269 -136.32112 -129.85989 -127.25169 -123.01759 -121.0699 -116.8358"
         y="140.0979"
         sodipodi:role="line"
         id="tspan320">14.9(4.3)</tspan><tspan
         x="-71.175262 -66.941162 -64.993477 -60.759377 -54.450569 -51.723808 -47.650604 -45.669044 -41.434944 -37.395615"
         y="130.12236"
         sodipodi:role="line"
         id="tspan322">2.27(0.12)</tspan><tspan
         x="-75.256935 -71.175262 -66.941162 -64.993477 -58.591518 -55.864758 -51.791553 -49.809994 -45.575897"
         y="140.0979"
         sodipodi:role="line"
         id="tspan324">15.1(4.6)</tspan><tspan
         x="-6.3766003 -2.1425006 -0.19481467 4.0392852"
         y="130.12236"
         sodipodi:role="line"
         id="tspan326">0.31</tspan><tspan
         x="-220.27486 -217.98845 -212.11153 -206.03136 -197.82567 -195.21747 -189.1373 -183.6499 -178.01009"
         y="150.02263"
         sodipodi:role="line"
         id="tspan328">tNAA(ACC)</tspan><tspan
         x="-220.27486 -214.63504 -209.16458 -204.17682"
         y="159.99817"
         sodipodi:role="line"
         id="tspan330">CRLB</tspan><tspan
         x="-146.28819 -142.43517 -138.20107 -136.31265 -132.07855 -125.71047 -123.10226 -118.86817 -116.92048 -112.68639 -108.69786"
         y="150.02263"
         sodipodi:role="line"
         id="tspan332">11.09(0.30)</tspan><tspan
         x="-146.57611 -142.34201 -140.45361 -133.99237 -131.38417 -127.15007 -125.20238 -120.96828"
         y="159.99817"
         sodipodi:role="line"
         id="tspan334">1.5(0.4)</tspan><tspan
         x="-75.028297 -71.175262 -66.941162 -64.993477 -60.75938 -54.450569 -51.723808 -47.650604 -45.669048 -41.434948 -37.395615"
         y="150.02263"
         sodipodi:role="line"
         id="tspan336">11.68(0.29)</tspan><tspan
         x="-75.256935 -71.171875 -69.051437 -62.722309 -59.992161 -55.907101 -53.939091 -49.701603"
         y="159.99817"
         sodipodi:role="line"
         id="tspan338">1.4(0.4)</tspan><tspan
         x="-6.3766017 -2.1425018 -0.19481584 4.0392842"
         y="150.02263"
         sodipodi:role="line"
         id="tspan340">0.17</tspan><tspan
         x="-220.27487 -217.98845 -212.11153 -206.03136 -197.82567 -195.21747 -189.1373 -183.6499 -178.01009"
         y="169.98216"
         sodipodi:role="line"
         id="tspan342">tNAA(OCC)</tspan><tspan
         x="-220.27487 -214.63504 -209.16458 -204.17682"
         y="179.90691"
         sodipodi:role="line"
         id="tspan344">CRLB</tspan><tspan
         x="-146.57613 -142.34203 -138.30269 -136.32114 -132.08704 -125.71895 -123.11074 -118.87664 -116.92896 -112.69485 -108.70633"
         y="169.98216"
         sodipodi:role="line"
         id="tspan346">13.62(0.37)</tspan><tspan
         x="-146.57613 -142.34203 -140.45361 -133.99237 -131.38417 -127.15007 -125.20238 -120.96828"
         y="179.90691"
         sodipodi:role="line"
         id="tspan348">1.0(0.3)</tspan><tspan
         x="-75.256943 -71.17527 -66.94117 -64.993484 -60.759388 -54.450577 -51.723816 -47.650612 -45.669056 -41.434956 -37.395622"
         y="169.98216"
         sodipodi:role="line"
         id="tspan350">13.48(0.35)</tspan><tspan
         x="-75.256943 -71.171883 -69.051445 -62.722317 -59.992168 -55.907108 -53.939098 -49.701611"
         y="179.90691"
         sodipodi:role="line"
         id="tspan352">1.2(0.4)</tspan><tspan
         x="-6.3766098 -2.1425099 -0.19482398 4.0392756"
         y="169.98216"
         sodipodi:role="line"
         id="tspan354">0.79</tspan><tspan
         x="-220.27487 -217.98846 -212.11153 -206.03136 -197.82567 -195.21747 -190.54303 -184.61528 -179.62752"
         y="189.88245"
         sodipodi:role="line"
         id="tspan356">tNAA(PUT)</tspan><tspan
         x="-220.27487 -214.63506 -209.1646 -204.17682"
         y="199.85799"
         sodipodi:role="line"
         id="tspan358">CRLB</tspan><tspan
         x="-142.43518 -138.20108 -136.31267 -132.07857 -125.71048 -123.10228 -118.86818 -116.92049 -112.68639 -108.69787"
         y="189.88245"
         sodipodi:role="line"
         id="tspan360">9.01(0.26)</tspan><tspan
         x="-146.57613 -142.34203 -140.45361 -133.99239 -131.38417 -127.15008 -125.20239 -120.96829"
         y="199.85799"
         sodipodi:role="line"
         id="tspan362">2.6(0.7)</tspan><tspan
         x="-71.175278 -66.941177 -64.993492 -60.759388 -54.450581 -51.72382 -47.650616 -45.669056 -41.434959 -37.395626"
         y="189.88245"
         sodipodi:role="line"
         id="tspan364">9.28(0.21)</tspan><tspan
         x="-75.25695 -71.175278 -69.058228 -62.732479 -60.005718 -55.932514 -53.950958 -49.716858 -45.677525"
         y="199.85799"
         sodipodi:role="line"
         id="tspan366">2.4(0.71)</tspan><tspan
         x="-6.3766122 -2.1425123 -0.19482642 4.0392733"
         y="189.88245"
         sodipodi:role="line"
         id="tspan368">0.43</tspan><tspan
         x="-220.27487 -217.98846 -212.50954 -207.63185 -204.90509 -199.01123 -193.3714 -187.90096"
         y="209.842"
         sodipodi:role="line"
         id="tspan370">tCr(ACC)</tspan><tspan
         x="-220.27487 -214.63506 -209.1646 -204.17683"
         y="219.76672"
         sodipodi:role="line"
         id="tspan372">CRLB</tspan><tspan
         x="-142.43518 -138.20108 -136.31267 -132.07857 -125.71049 -123.10228 -118.86818 -116.92049 -112.68639 -108.69788"
         y="209.842"
         sodipodi:role="line"
         id="tspan374">9.01(0.33)</tspan><tspan
         x="-146.57613 -142.34203 -140.45363 -133.99239 -131.38419 -127.15008 -125.20239 -120.96829"
         y="219.76672"
         sodipodi:role="line"
         id="tspan376">1.8(0.5)</tspan><tspan
         x="-71.175278 -66.941177 -64.993492 -60.759392 -54.450584 -51.723824 -47.65062 -45.66906 -41.434959 -37.39563"
         y="209.842"
         sodipodi:role="line"
         id="tspan378">9.16(0.24)</tspan><tspan
         x="-75.25695 -71.17189 -69.051453 -62.722321 -59.992172 -55.907112 -53.939102 -49.701618"
         y="219.76672"
         sodipodi:role="line"
         id="tspan380">2.0(0.6)</tspan><tspan
         x="-6.3766146 -2.1425147 -0.19482888 4.0392709"
         y="209.842"
         sodipodi:role="line"
         id="tspan382">0.72</tspan><tspan
         x="-220.27487 -217.98846 -212.50954 -207.63185 -204.90509 -199.01123 -193.37141 -187.90096"
         y="229.74226"
         sodipodi:role="line"
         id="tspan384">tCr(OCC)</tspan><tspan
         x="-220.27487 -214.63506 -209.1646 -204.17683"
         y="239.7178"
         sodipodi:role="line"
         id="tspan386">CRLB</tspan><tspan
         x="-142.43518 -138.20108 -136.31267 -132.07857 -125.71049 -123.10228 -118.86818 -116.92049 -112.68639 -108.69788"
         y="229.74226"
         sodipodi:role="line"
         id="tspan388">8.78(0.28)</tspan><tspan
         x="-146.57613 -142.34203 -140.45363 -133.99239 -131.38419 -127.15009 -125.2024 -120.9683"
         y="239.7178"
         sodipodi:role="line"
         id="tspan390">1.7(0.5)</tspan><tspan
         x="-71.175278 -66.941177 -64.993492 -60.759396 -54.450584 -51.723824 -47.65062 -45.669064 -41.434963 -37.39563"
         y="229.74226"
         sodipodi:role="line"
         id="tspan392">8.61(0.14)</tspan><tspan
         x="-75.25695 -71.17189 -69.051453 -62.722324 -59.992176 -55.907116 -53.939106 -49.701618"
         y="239.7178"
         sodipodi:role="line"
         id="tspan394">1.8(0.5)</tspan><tspan
         x="-6.376617 -2.1425173 -0.19483134 4.0392685"
         y="229.74226"
         sodipodi:role="line"
         id="tspan396">0.62</tspan><tspan
         x="-220.27489 -217.98846 -212.50954 -207.63185 -204.90509 -200.37462 -194.42146 -189.30667"
         y="249.70181"
         sodipodi:role="line"
         id="tspan398">tCr(PUT)</tspan><tspan
         x="-220.27489 -214.63506 -209.1646 -204.17683"
         y="259.62653"
         sodipodi:role="line"
         id="tspan400">CRLB</tspan><tspan
         x="-142.43518 -138.20108 -136.31268 -132.07858 -125.71049 -123.10229 -118.86819 -116.9205 -112.6864 -108.69788"
         y="249.70181"
         sodipodi:role="line"
         id="tspan402">5.01(0.30)</tspan><tspan
         x="-146.57614 -142.34204 -140.45363 -133.99239 -131.38419 -127.15009 -125.2024 -120.9683"
         y="259.62653"
         sodipodi:role="line"
         id="tspan404">2.8(0.8)</tspan><tspan
         x="-71.175285 -66.941185 -64.9935 -60.759396 -54.450588 -51.723827 -47.650623 -45.669064 -41.434963 -37.395634"
         y="249.70181"
         sodipodi:role="line"
         id="tspan406">4.89(0.40)</tspan><tspan
         x="-75.256958 -71.171898 -69.05146 -62.722324 -59.992176 -55.90712 -53.93911 -49.701622"
         y="259.62653"
         sodipodi:role="line"
         id="tspan408">2.6(0.8)</tspan><tspan
         x="-6.3766198 -2.1425197 -0.1948338 4.0392661"
         y="249.70181"
         sodipodi:role="line"
         id="tspan410">0.81</tspan><tspan
         x="-220.28334 -214.20319 -208.31778 -202.67796 -194.48921 -191.76245 -185.86858 -180.22876 -174.7583"
         y="269.60208"
         sodipodi:role="line"
         id="tspan412">GABA(ACC)</tspan><tspan
         x="-220.28334 -214.64352"
         y="279.57761"
         sodipodi:role="line"
         id="tspan414">CR</tspan></text>
<text
       transform="matrix(1,0,0,-1,62.13388,398.78026)"
       style="font-variant:normal;font-weight:normal;font-size:8.46819973px;font-family:QjhrxhAdvTT3713a231;-inkscape-font-specification:QjhrxhAdvTT3713a231;writing-mode:lr-tb;fill:#131413;fill-opacity:1;fill-rule:nonzero;stroke:none"
       id="text542"><tspan
         x="0 4.9877696"
         y="0"
         sodipodi:role="line"
         id="tspan418">LB</tspan><tspan
         x="66.729416 70.963516 72.851921 77.086021 83.454109 86.062317 90.296417 92.244102 96.478203 100.46672"
         y="-9.9755392"
         sodipodi:role="line"
         id="tspan420">1.98(0.14)</tspan><tspan
         x="62.588467 66.438957 70.670517 72.615662 79.023544 81.629211 85.860771 87.805916 92.037476"
         y="0"
         sodipodi:role="line"
         id="tspan422">11.1(3.2)</tspan><tspan
         x="137.98932 142.22342 144.1711 148.4052 154.71402 157.44077 161.51398 163.49553 167.72963 171.76897"
         y="-9.9755392"
         sodipodi:role="line"
         id="tspan424">2.20(0.70)</tspan><tspan
         x="133.90764 137.99271 140.11314 146.44228 149.17242 153.25748 155.22549 159.46298"
         y="0"
         sodipodi:role="line"
         id="tspan426">8.1(2.6)</tspan><tspan
         x="202.78798 207.02208 208.96977 213.20387"
         y="-9.9755392"
         sodipodi:role="line"
         id="tspan428">0.29</tspan><tspan
         x="-11.110283 -5.0301156 0.85528344 6.4951043 14.683853 17.410614 23.304482 28.944302 34.414761"
         y="9.9247293"
         sodipodi:role="line"
         id="tspan430">GABA(OCC)</tspan><tspan
         x="-11.110283 -5.4704618 -4.7399999e-06 4.9877648"
         y="19.900269"
         sodipodi:role="line"
         id="tspan432">CRLB</tspan><tspan
         x="66.729416 70.963509 72.851921 77.086021 83.454109 86.062309 90.29641 92.244095 96.478195 100.46672"
         y="9.9247293"
         sodipodi:role="line"
         id="tspan434">2.01(0.12)</tspan><tspan
         x="62.588463 66.822563 68.710968 75.172211 77.780411 82.014511 83.962196 88.196297"
         y="19.900269"
         sodipodi:role="line"
         id="tspan436">8.7(2.5)</tspan><tspan
         x="137.98932 142.22342 144.1711 148.4052 154.714 157.44077 161.51398 163.49553 167.40784 171.48952"
         y="9.9247293"
         sodipodi:role="line"
         id="tspan438">1.70(0.11)</tspan><tspan
         x="133.90764 137.98932 142.22342 144.1711 150.57306 153.29982 157.37303 159.35458 163.58868"
         y="19.900269"
         sodipodi:role="line"
         id="tspan440">12.2(3.5)</tspan><tspan
         x="202.78798 207.02208 208.96976 213.20386"
         y="9.9247293"
         sodipodi:role="line"
         id="tspan442">0.07</tspan><tspan
         x="-11.110285 -5.030118 0.855281 6.4951019 14.683851 17.410612 21.881821 27.961988 32.882011"
         y="29.884277"
         sodipodi:role="line"
         id="tspan444">GABA(PUT)</tspan><tspan
         x="-11.110285 -5.4704642 -7.1999998e-06 4.9877625"
         y="39.859818"
         sodipodi:role="line"
         id="tspan446">CRLB</tspan><tspan
         x="66.729408 70.963509 72.851921 77.086021 83.454102 86.062309 90.29641 92.244095 96.478195 100.46672"
         y="29.884277"
         sodipodi:role="line"
         id="tspan448">2.21(0.67)</tspan><tspan
         x="62.588459 66.43895 70.670509 72.615654 79.023544 81.629204 85.860764 87.805916 92.037468"
         y="39.859818"
         sodipodi:role="line"
         id="tspan450">11.5(3.5)</tspan><tspan
         x="137.98932 142.22342 144.1711 148.4052 154.714 157.44077 161.51398 163.49553 167.72963 171.76897"
         y="29.884277"
         sodipodi:role="line"
         id="tspan452">2.12(0.09)</tspan><tspan
         x="133.90764 137.98932 142.22342 144.1711 150.57306 153.29982 157.37302 159.35458 163.58868"
         y="39.859818"
         sodipodi:role="line"
         id="tspan454">10.8(3.3)</tspan><tspan
         x="202.78798 207.02208 208.96976 213.20386"
         y="29.884277"
         sodipodi:role="line"
         id="tspan456">0.57</tspan><tspan
         x="-11.110288 -8.519865 -4.2866125 -0.24812791 3.0112822 5.1613579 7.4469252 11.510815 15.989645 18.580067 24.659388 30.16287 35.666355"
         y="49.784546"
         sodipodi:role="line"
         id="tspan458">Inositol(ACC)</tspan><tspan
         x="-11.110288 -5.4704666 -9.6499998e-06 4.9877601"
         y="59.760086"
         sodipodi:role="line"
         id="tspan460">CRLB</tspan><tspan
         x="66.729408 70.963509 72.851913 77.086014 83.454102 86.062309 90.29641 92.244095 96.478195 100.46671"
         y="49.784546"
         sodipodi:role="line"
         id="tspan462">6.50(0.44)</tspan><tspan
         x="62.588459 66.822556 68.710968 75.172203 77.780411 82.014511 83.962196 88.196297"
         y="59.760086"
         sodipodi:role="line"
         id="tspan464">3.4(1.0)</tspan><tspan
         x="137.9893 142.2234 144.1711 148.4052 154.714 157.44077 161.51396 163.49553 167.72963 171.76897"
         y="49.784546"
         sodipodi:role="line"
         id="tspan466">7.78(0.27)</tspan><tspan
         x="133.90764 137.99269 140.11313 146.44226 149.17241 153.25748 155.22548 159.46297"
         y="59.760086"
         sodipodi:role="line"
         id="tspan468">3.1(0.9)</tspan><tspan
         x="202.78798 207.02208 208.96976 213.20386 217.24319"
         y="49.784546"
         sodipodi:role="line"
         id="tspan470">0.022</tspan><tspan
         x="-11.110291 -8.5198679 -4.2866149 -0.24813037 3.0112798 5.1613555 7.4469228 11.510812 15.989642 18.580065 24.659386 30.162868 35.666351"
         y="69.744095"
         sodipodi:role="line"
         id="tspan472">Inositol(OCC)</tspan><tspan
         x="-11.110291 -5.470469 -1.211e-05 4.9877577"
         y="79.719635"
         sodipodi:role="line"
         id="tspan474">CRLB</tspan><tspan
         x="66.729408 70.963501 72.851913 77.086014 83.454102 86.062302 90.296402 92.244087 96.478188 100.46671"
         y="69.744095"
         sodipodi:role="line"
         id="tspan476">5.39(0.38)</tspan><tspan
         x="62.588455 66.822556 68.71096 75.172203 77.780403 82.014503 83.962189 88.196289"
         y="79.719635"
         sodipodi:role="line"
         id="tspan478">3.7(1.1)</tspan><tspan
         x="137.9893 142.2234 144.1711 148.4052 154.714 157.44077 161.51396 163.49553 167.72963 171.76895"
         y="69.744095"
         sodipodi:role="line"
         id="tspan480">6.83(0.16)</tspan><tspan
         x="133.90764 137.99269 140.11313 146.44226 149.17241 153.25748 155.22548 159.46297"
         y="79.719635"
         sodipodi:role="line"
         id="tspan482">2.9(0.8)</tspan><tspan
         x="202.78796 207.02206 208.96976 213.20386 217.24319"
         y="69.744095"
         sodipodi:role="line"
         id="tspan484">0.002</tspan><tspan
         x="-11.110292 -8.5164833 -4.2798429 -0.23797098 3.0248263 5.1782894 7.4672441 11.526052 16.00827 18.602079 23.279066 29.15007 34.267403"
         y="89.644363"
         sodipodi:role="line"
         id="tspan486">Inositol(PUT)</tspan><tspan
         x="-11.110292 -5.4704714 -1.457e-05 4.9877553"
         y="99.619904"
         sodipodi:role="line"
         id="tspan488">CRLB</tspan><tspan
         x="66.729401 70.963501 72.851913 77.086014 83.454094 86.062302 90.296402 92.244087 96.478188 100.46671"
         y="89.644363"
         sodipodi:role="line"
         id="tspan490">3.94(0.37)</tspan><tspan
         x="62.588451 66.822556 68.71096 75.172195 77.780403 82.014503 83.962189 88.196289"
         y="99.619904"
         sodipodi:role="line"
         id="tspan492">9.1(2.6)</tspan><tspan
         x="137.9893 142.2234 144.1711 148.4052 154.714 157.44077 161.51396 163.49553 167.72963 171.76895"
         y="89.644363"
         sodipodi:role="line"
         id="tspan494">4.45(0.16)</tspan><tspan
         x="133.90764 137.99269 140.11313 146.44226 149.17241 153.25748 155.22548 159.46297"
         y="99.619904"
         sodipodi:role="line"
         id="tspan496">5.6(1.7)</tspan><tspan
         x="202.78796 207.02206 208.96976 213.20386"
         y="89.644363"
         sodipodi:role="line"
         id="tspan498">0.23</tspan><tspan
         x="-11.110295 -5.0301275 -0.56738639 7.7060447 10.432805 16.326672 21.966494 27.436951"
         y="109.60391"
         sodipodi:role="line"
         id="tspan500">GSH(ACC)</tspan><tspan
         x="-11.110295 -5.4704742 -1.702e-05 4.9877524"
         y="119.52864"
         sodipodi:role="line"
         id="tspan502">CRLB</tspan><tspan
         x="66.729401 70.963501 72.851906 77.086006 83.454094 86.062302 90.296402 92.244087 96.478188 100.46671"
         y="109.60391"
         sodipodi:role="line"
         id="tspan504">1.19(0.07)</tspan><tspan
         x="62.588451 66.822548 70.861885 72.843437 79.30468 81.91288 86.14698 88.094666 92.328766"
         y="119.52864"
         sodipodi:role="line"
         id="tspan506">10.2(2.9)</tspan><tspan
         x="137.9893 142.2234 144.17108 148.40518 154.714 157.44077 161.51396 163.49551 167.72961 171.76895"
         y="109.60391"
         sodipodi:role="line"
         id="tspan508">1.27(0.10)</tspan><tspan
         x="133.90762 137.99269 140.11313 146.44226 149.17241 153.25746 155.22548 159.46297"
         y="119.52864"
         sodipodi:role="line"
         id="tspan510">8.9(2.8)</tspan><tspan
         x="202.78796 207.02206 208.96976 213.20386"
         y="109.60391"
         sodipodi:role="line"
         id="tspan512">0.38</tspan><tspan
         x="-11.110297 -5.0301299 -0.56738883 7.7060423 10.432802 16.32667 21.96649 27.436947"
         y="129.50418"
         sodipodi:role="line"
         id="tspan514">GSH(OCC)</tspan><tspan
         x="-11.110297 -5.4704766 -1.948e-05 4.9877501"
         y="139.47972"
         sodipodi:role="line"
         id="tspan516">CRLB</tspan><tspan
         x="66.729401 70.963501 72.851906 77.086006 83.454094 86.062294 90.296394 92.24408 96.47818 100.46671"
         y="129.50418"
         sodipodi:role="line"
         id="tspan518">0.95(0.03)</tspan><tspan
         x="62.588448 66.822548 70.861877 72.843437 79.304672 81.91288 86.14698 88.094666 92.328766"
         y="139.47972"
         sodipodi:role="line"
         id="tspan520">10.5(3.0)</tspan><tspan
         x="137.9893 142.2234 144.17108 148.40518 154.71399 157.44075 161.51396 163.49551 167.72961 171.76895"
         y="129.50418"
         sodipodi:role="line"
         id="tspan522">0.94(0.04)</tspan><tspan
         x="133.90762 137.9893 142.2234 144.17108 148.40518 154.71399 157.44075 161.51396 163.49551 167.72961 171.76895"
         y="139.47972"
         sodipodi:role="line"
         id="tspan524">10.67(3.08)</tspan><tspan
         x="202.78796 207.02206 208.96974 213.20384"
         y="129.50418"
         sodipodi:role="line"
         id="tspan526">0.85</tspan><tspan
         x="-11.1103 -5.0301328 -0.56739134 7.7060399 10.4328 14.963287 20.916431 26.031223"
         y="149.46373"
         sodipodi:role="line"
         id="tspan528">GSH(PUT)</tspan><tspan
         x="-11.1103 -5.470479 -2.193e-05 4.9877477"
         y="159.38846"
         sodipodi:role="line"
         id="tspan530">CRLB</tspan><tspan
         x="66.729393 70.963493 72.851906 77.086006 83.454086 86.062294 90.296394 92.24408 96.47818 100.46671"
         y="149.46373"
         sodipodi:role="line"
         id="tspan532">1.51(0.45)</tspan><tspan
         x="62.588444 66.822548 70.861877 72.843437 79.304672 81.91288 86.14698 88.094666 92.328766"
         y="159.38846"
         sodipodi:role="line"
         id="tspan534">15.0(4.5)</tspan><tspan
         x="137.9893 142.2234 144.17108 148.40518 154.71399 157.44075 161.51396 163.49551 167.72961 171.76895"
         y="149.46373"
         sodipodi:role="line"
         id="tspan536">1.10(0.05)</tspan><tspan
         x="133.90762 137.9893 142.2234 144.17108 150.57304 153.2998 157.373 159.35457 163.58867"
         y="159.38846"
         sodipodi:role="line"
         id="tspan538">15.4(4.6)</tspan><tspan
         x="202.78796 207.02206 208.96974 213.20384"
         y="149.46373"
         sodipodi:role="line"
         id="tspan540">0.43</tspan></text>
<text
       transform="matrix(1,0,0,-1,51.023577,219.102)"
       style="font-variant:normal;font-weight:normal;font-size:8.46819973px;font-family:XqnwsmAdvTT50a2f13e;-inkscape-font-specification:XqnwsmAdvTT50a2f13e;writing-mode:lr-tb;fill:#131413;fill-opacity:1;fill-rule:nonzero;stroke:none"
       id="text546"><tspan
         x="0 5.1147928 10.542909"
         y="0"
         sodipodi:role="line"
         id="tspan544">ACC</tspan></text>
<text
       transform="matrix(1,0,0,-1,69.450381,219.102)"
       style="font-variant:normal;font-weight:normal;font-size:8.46819973px;font-family:QjhrxhAdvTT3713a231;-inkscape-font-specification:QjhrxhAdvTT3713a231;writing-mode:lr-tb;fill:#131413;fill-opacity:1;fill-rule:nonzero;stroke:none"
       id="text550"><tspan
         x="0 3.5735803 7.8076801 9.9247303 13.49831 16.225071 18.375994 22.610094 27.386158 31.086761 33.229218 37.463314 41.502647 45.58432 47.870731 51.427376 53.5783 59.472168 63.172771 67.237503 69.845711 72.132126 75.688766 79.922867"
         y="0"
         sodipodi:role="line"
         id="tspan548">anteriorcingulatecortex,</tspan></text>
<text
       transform="matrix(1,0,0,-1,153.58195,219.102)"
       style="font-variant:normal;font-weight:normal;font-size:8.46819973px;font-family:XqnwsmAdvTT50a2f13e;-inkscape-font-specification:XqnwsmAdvTT50a2f13e;writing-mode:lr-tb;fill:#131413;fill-opacity:1;fill-rule:nonzero;stroke:none"
       id="text554"><tspan
         x="0 5.9531446 11.592965"
         y="0"
         sodipodi:role="line"
         id="tspan552">OCC</tspan></text>
<text
       transform="matrix(1,0,0,-1,172.91485,219.102)"
       style="font-variant:normal;font-weight:normal;font-size:8.46819973px;font-family:QjhrxhAdvTT3713a231;-inkscape-font-specification:QjhrxhAdvTT3713a231;writing-mode:lr-tb;fill:#131413;fill-opacity:1;fill-rule:nonzero;stroke:none"
       id="text558"><tspan
         x="0 4.2340999 7.7653394 11.33892 13.625334 17.690069 19.976482 22.051191 25.751795 30.15526 33.855862 37.920597 40.528805 42.815216 46.312584 50.546684"
         y="0"
         sodipodi:role="line"
         id="tspan556">occipitalcortex,</tspan></text>
<text
       transform="matrix(1,0,0,-1,227.6787,219.102)"
       style="font-variant:normal;font-weight:normal;font-size:8.46819973px;font-family:XqnwsmAdvTT50a2f13e;-inkscape-font-specification:XqnwsmAdvTT50a2f13e;writing-mode:lr-tb;fill:#131413;fill-opacity:1;fill-rule:nonzero;stroke:none"
       id="text562"><tspan
         x="0 5.1147928 11.000192"
         y="0"
         sodipodi:role="line"
         id="tspan560">PUT</tspan></text>
<text
       transform="matrix(1,0,0,-1,245.53813,219.102)"
       style="font-variant:normal;font-weight:normal;font-size:8.46819973px;font-family:QjhrxhAdvTT3713a231;-inkscape-font-specification:QjhrxhAdvTT3713a231;writing-mode:lr-tb;fill:#131413;fill-opacity:1;fill-rule:nonzero;stroke:none"
       id="text566"><tspan
         x="0 4.2340999 8.2734308 10.559845 14.116488 20.518448 24.219051"
         y="0"
         sodipodi:role="line"
         id="tspan564">putamen</tspan></text>
</g></svg>