<?xml version="1.0" encoding="UTF-8" standalone="no"?>
<!-- Created with Inkscape (http://www.inkscape.org/) -->

<svg
   xmlns:dc="http://purl.org/dc/elements/1.1/"
   xmlns:cc="http://creativecommons.org/ns#"
   xmlns:rdf="http://www.w3.org/1999/02/22-rdf-syntax-ns#"
   xmlns:svg="http://www.w3.org/2000/svg"
   xmlns="http://www.w3.org/2000/svg"
   xmlns:sodipodi="http://sodipodi.sourceforge.net/DTD/sodipodi-0.dtd"
   xmlns:inkscape="http://www.inkscape.org/namespaces/inkscape"
   version="1.1"
   id="svg2"
   xml:space="preserve"
   width="793.70135"
   height="1065.8267"
   viewBox="0 0 793.70135 1065.8267"
   sodipodi:docname="table1cont.svg"
   inkscape:version="0.92.0 r15299"><metadata
     id="metadata8"><rdf:RDF><cc:Work
         rdf:about=""><dc:format>image/svg+xml</dc:format><dc:type
           rdf:resource="http://purl.org/dc/dcmitype/StillImage" /><dc:title></dc:title></cc:Work></rdf:RDF></metadata><defs
     id="defs6"><clipPath
       clipPathUnits="userSpaceOnUse"
       id="clipPath22"><path
         d="M 0.03,799.37 H 595.276 V 0 H 0.03 Z"
         id="path20"
         inkscape:connector-curvature="0" /></clipPath></defs><sodipodi:namedview
     pagecolor="#ffffff"
     bordercolor="#666666"
     borderopacity="1"
     objecttolerance="10"
     gridtolerance="10"
     guidetolerance="10"
     inkscape:pageopacity="0"
     inkscape:pageshadow="2"
     inkscape:window-width="1920"
     inkscape:window-height="988"
     id="namedview4"
     showgrid="false"
     inkscape:zoom="0.88569749"
     inkscape:cx="455.78431"
     inkscape:cy="532.78465"
     inkscape:window-x="0"
     inkscape:window-y="27"
     inkscape:window-maximized="1"
     inkscape:current-layer="g10" /><g
     id="g10"
     inkscape:groupmode="layer"
     inkscape:label="fulltext"
     transform="matrix(1.3333333,0,0,-1.3333333,0,1065.8267)"><path
       d="M 262.33,179.329 H 566.804 V 670.552 H 262.33 Z"
       style="fill:#f5e0dc;fill-opacity:1;fill-rule:nonzero;stroke:none"
       id="path184"
       inkscape:connector-curvature="0" /><g
       id="g186"
       transform="translate(268.125,193.75301)"><path
         d="M 0,0 H 292.885"
         style="fill:none;stroke:#000000;stroke-width:0.25;stroke-linecap:butt;stroke-linejoin:miter;stroke-miterlimit:10;stroke-dasharray:none;stroke-opacity:1"
         id="path188"
         inkscape:connector-curvature="0" /></g><path
       d="M 268.125,630.341 H 444.686 V 619.058 H 268.125 Z m 176.561,0 h 57.542 v -11.283 h -57.542 z m 57.542,0 h 57.508 V 619.058 H 502.228 Z M 268.125,619.058 H 559.736 V 607.775 H 268.125 Z m 0,-11.283 H 444.686 V 596.492 H 268.125 Z m 176.561,0 h 57.542 v -11.283 h -57.542 z m 57.542,0 h 57.508 V 596.492 H 502.228 Z M 268.125,596.492 H 444.686 V 585.209 H 268.125 Z m 176.561,0 h 57.542 v -11.283 h -57.542 z m 57.542,0 h 57.508 V 585.209 H 502.228 Z M 268.125,585.209 H 444.686 V 573.926 H 268.125 Z m 176.561,0 h 57.542 v -11.283 h -57.542 z m 57.542,0 h 57.508 V 573.926 H 502.228 Z M 268.125,573.926 H 444.686 V 562.642 H 268.125 Z m 176.561,0 h 57.542 v -11.284 h -57.542 z m 57.542,0 h 57.508 V 562.642 H 502.228 Z M 268.125,562.642 H 444.686 V 551.359 H 268.125 Z m 176.561,0 h 57.542 v -11.283 h -57.542 z m 57.542,0 h 57.508 V 551.359 H 502.228 Z M 268.125,551.359 H 444.686 V 540.076 H 268.125 Z m 176.561,0 h 57.542 v -11.283 h -57.542 z m 57.542,0 h 57.508 V 540.076 H 502.228 Z M 268.125,540.076 H 444.686 V 528.793 H 268.125 Z m 176.561,0 h 57.542 v -11.283 h -57.542 z m 57.542,0 h 57.508 V 528.793 H 502.228 Z M 268.125,528.793 H 444.686 V 517.51 H 268.125 Z m 176.561,0 h 57.542 V 517.51 h -57.542 z m 57.542,0 h 57.508 V 517.51 H 502.228 Z M 268.125,517.51 H 444.686 V 506.227 H 268.125 Z m 176.561,0 h 57.542 v -11.283 h -57.542 z m 57.542,0 h 57.508 V 506.227 H 502.228 Z M 268.125,506.227 H 559.736 V 494.944 H 268.125 Z m 0,-11.283 H 444.686 V 483.66 H 268.125 Z m 176.561,0 h 57.542 V 483.66 h -57.542 z m 57.542,0 h 57.508 V 483.66 H 502.228 Z M 268.125,483.66 H 444.686 V 472.377 H 268.125 Z m 176.561,0 h 57.542 v -11.283 h -57.542 z m 57.542,0 h 57.508 V 472.377 H 502.228 Z M 268.125,472.377 H 444.686 V 461.094 H 268.125 Z m 176.561,0 h 57.542 v -11.283 h -57.542 z m 57.542,0 h 57.508 V 461.094 H 502.228 Z M 268.125,461.094 H 444.686 V 449.811 H 268.125 Z m 176.561,0 h 57.542 v -11.283 h -57.542 z m 57.542,0 h 57.508 V 449.811 H 502.228 Z M 268.125,449.811 H 444.686 V 438.528 H 268.125 Z m 176.561,0 h 57.542 v -11.283 h -57.542 z m 57.542,0 h 57.508 V 438.528 H 502.228 Z M 268.125,438.528 H 444.686 V 427.245 H 268.125 Z m 176.561,0 h 57.542 v -11.283 h -57.542 z m 57.542,0 h 57.508 V 427.245 H 502.228 Z M 268.125,427.245 H 444.686 V 415.962 H 268.125 Z m 176.561,0 h 57.542 v -11.283 h -57.542 z m 57.542,0 h 57.508 V 415.962 H 502.228 Z M 268.125,415.962 H 559.736 V 404.678 H 268.125 Z m 0,-11.284 H 444.686 V 393.395 H 268.125 Z m 176.561,0 h 57.542 v -11.283 h -57.542 z m 57.542,0 h 57.508 V 393.395 H 502.228 Z M 268.125,393.395 H 444.686 V 382.112 H 268.125 Z m 176.561,0 h 57.542 v -11.283 h -57.542 z m 57.542,0 h 57.508 V 382.112 H 502.228 Z M 268.125,382.112 H 444.686 V 370.829 H 268.125 Z m 176.561,0 h 57.542 v -11.283 h -57.542 z m 57.542,0 h 57.508 V 370.829 H 502.228 Z M 268.125,370.829 H 444.686 V 359.546 H 268.125 Z m 176.561,0 h 57.542 v -11.283 h -57.542 z m 57.542,0 h 57.508 V 359.546 H 502.228 Z M 268.125,359.546 H 444.686 V 348.263 H 268.125 Z m 176.561,0 h 57.542 v -11.283 h -57.542 z m 57.542,0 h 57.508 V 348.263 H 502.228 Z M 268.125,348.263 H 444.686 V 336.979 H 268.125 Z m 176.561,0 h 57.542 v -11.284 h -57.542 z m 57.542,0 h 57.508 V 336.979 H 502.228 Z M 268.125,336.979 H 444.686 V 325.696 H 268.125 Z m 176.561,0 h 57.542 v -11.283 h -57.542 z m 57.542,0 h 57.508 V 325.696 H 502.228 Z M 268.125,325.696 H 559.736 V 314.413 H 268.125 Z m 0,-11.283 H 444.686 V 303.13 H 268.125 Z m 176.561,0 h 57.542 V 303.13 h -57.542 z m 57.542,0 h 57.508 V 303.13 H 502.228 Z M 268.125,303.13 H 444.686 V 291.847 H 268.125 Z m 176.561,0 h 57.542 v -11.283 h -57.542 z m 57.542,0 h 57.508 V 291.847 H 502.228 Z M 268.125,291.847 H 444.686 V 280.564 H 268.125 Z m 176.561,0 h 57.542 v -11.283 h -57.542 z m 57.542,0 h 57.508 V 280.564 H 502.228 Z M 268.125,280.564 H 444.686 V 269.281 H 268.125 Z m 176.561,0 h 57.542 v -11.283 h -57.542 z m 57.542,0 h 57.508 V 269.281 H 502.228 Z M 268.125,269.281 H 444.686 V 249.497 H 268.125 Z m 176.561,0 h 57.542 v -19.784 h -57.542 z m 57.542,0 h 57.508 V 249.497 H 502.228 Z M 268.125,249.497 H 444.686 V 229.714 H 268.125 Z m 176.561,0 h 57.542 v -19.783 h -57.542 z m 57.542,0 h 57.508 v -19.783 h -57.508 z"
       style="fill:#ffffff;fill-opacity:1;fill-rule:nonzero;stroke:none"
       id="path190"
       inkscape:connector-curvature="0" /><g
       id="g192"
       transform="translate(268.125,654.04201)"><path
         d="m 0,0 h 176.561 57.542 57.508"
         style="fill:none;stroke:#000000;stroke-width:0.25;stroke-linecap:butt;stroke-linejoin:miter;stroke-miterlimit:10;stroke-dasharray:none;stroke-opacity:1"
         id="path194"
         inkscape:connector-curvature="0" /></g><text
       transform="matrix(1,0,0,-1,447.52,658.577)"
       style="font-variant:normal;font-weight:bold;font-size:7px;font-family:Shaker2Lancet;-inkscape-font-specification:Shaker2Lancet-Bold;writing-mode:lr-tb;fill:#000000;fill-opacity:1;fill-rule:nonzero;stroke:none"
       id="text198"><tspan
         x="0 1.7766 5.5552001 8.1927996 11.3624 13.671 17.0926 20.262199 24.0408 26.6784 28.434 32.086601 57.544201 61.126801 64.779404 68.557999 71.195602 73.504204 77.156799"
         y="0"
         sodipodi:role="line"
         id="tspan196">InterventionControl</tspan></text>
<text
       transform="matrix(1,0,0,-1,270.959,645.025)"
       style="font-variant:normal;font-weight:normal;font-size:7px;font-family:Shaker2Lancet;-inkscape-font-specification:Shaker2Lancet-Regular;writing-mode:lr-tb;fill:#000000;fill-opacity:1;fill-rule:nonzero;stroke:none"
       id="text202"><tspan
         x="0 2.1700001 5.7329998 9.2749996 12.866 15.211 16.799999 20.391001 23.877001 26.936001 30.415001 31.738001 33.831001 35.959 39.500999 45.037998 46.361 49.833 51.960999 55.02 58.120998 59.709999 63.251999 66.737999 69.258003 70.581001 74.053001 77.105003 80.556 83.614998"
         y="0"
         sodipodi:role="line"
         id="tspan200">(Continued from previous page)</tspan></text>
<text
       transform="matrix(1,0,0,-1,270.959,633.741)"
       style="font-variant:normal;font-weight:bold;font-size:7px;font-family:Shaker2Lancet;-inkscape-font-specification:Shaker2Lancet-Bold;writing-mode:lr-tb;fill:#000000;fill-opacity:1;fill-rule:nonzero;stroke:none"
       id="text206"><tspan
         x="0 4.4576001 8.1101999 11.7768 14.4564 17.625999 21.3486 25.0012 26.6448 30.367399 32.689999 34.333599 37.503201 40.924801 44.094398 45.737999 46.963001 50.6856 53.918201 56.555801"
         y="0"
         sodipodi:role="line"
         id="tspan204">Household-level data</tspan></text>
<text
       transform="matrix(1,0,0,-1,270.959,622.457)"
       style="font-variant:normal;font-weight:normal;font-size:7px;font-family:Shaker2Lancet;-inkscape-font-specification:Shaker2Lancet-Regular;writing-mode:lr-tb;fill:#000000;fill-opacity:1;fill-rule:nonzero;stroke:none"
       id="text284"><tspan
         x="0 4.5219998 8.0080004 13.545 16.996 20.055 22.183001 23.386299 26.928301 29.021299 30.343599 33.892601 37.434601 40.920601 43.440601 46.499599 50.048599 53.590599 55.0886 58.5676 177.41499 181.132 184.52 187.91499 235.27 238.987 242.375 245.54601"
         y="0"
         sodipodi:role="line"
         id="tspan208">Number of households42564214</tspan><tspan
         x="-0.0070000002 2.9679999 6.454 9.5129995 11.011 12.215 15.701 18.221001 21.280001 24.759001 26.082001 28.209999 31.268999 34.720001 38.206001 39.703999 42.756001 44.883999 46.382 49.377998 50.701 52.793999 56.335999 58.464001 59.786999 62.446999 65.988998 69.530998 72.583 74.171997 77.763 81.213997"
         y="11.284"
         sodipodi:role="line"
         id="tspan210">Fuel used regularly for cooking‡</tspan><tspan
         x="5.6630001 11.179 14.721 18.263 177.114 180.502 184.21899 188.006 191.72301 193.04601 195.216 198.61099 202.405 203.938 207.746 212.562 235.095 238.483 241.85699 245.644 249.263 250.586 252.756 256.151 259.95901 261.492 264.71899 269.535"
         y="22.568001"
         sodipodi:role="line"
         id="tspan212">Wood2494 (58·6%)2390 (56·7%)</tspan><tspan
         x="5.6630001 9.2259998 11.354 14.896 18.368 19.691 21.819 24.878 27.398001 28.987 32.466 35.952 39.011002 178.00999 181.181 184.55499 187.929 191.716 193.039 195.209 198.58299 201.754 203.287 206.68201 211.498 235.70399 238.875 242.24899 245.63699 249.256 250.57899 252.74899 256.12299 259.29401 260.827 264.20099 269.017"
         y="33.852001"
         sodipodi:role="line"
         id="tspan214">Crop residues1339 (31·5%)1320 (31·3%)</tspan><tspan
         x="5.6630001 9.2259998 12.775 15.827 17.955 20.615 24.157 27.209 181.13901 184.534 188.342 191.716 193.039 195.209 198.38 201.754 203.287 206.675 211.491 239.267 242.494 245.882 249.256 250.57899 252.74899 255.92 259.147 260.67999 264.06799 268.884"
         y="45.136002"
         sodipodi:role="line"
         id="tspan216">Charcoal563 (13·2%)723 (17·2%)</tspan><tspan
         x="5.6630001 9.8070002 13.293 16.884001 184.716 188.104 191.72301 193.04601 195.216 198.83501 200.368 203.763 208.57899 242.48 245.868 249.263 250.586 252.756 256.375 257.90799 261.716 266.53201"
         y="56.419998"
         sodipodi:role="line"
         id="tspan218">Dung20 (0·5%)25 (0·6%)</tspan><tspan
         x="5.6700001 8.8900003 10.388 13.447 16.107 18.452 20.58 22.169001 24.829 26.417999 28.763 188.328 191.72301 193.04601 195.216 198.83501 200.368 203.539 208.355 242.718 245.88901 249.263 250.586 252.756 256.375 257.90799 261.28201 266.09799"
         y="67.704002"
         sodipodi:role="line"
         id="tspan220">Electricity5 (0·1%)13 (0·3%)</tspan><tspan
         x="5.6700001 9.0369997 12.089 14.217 17.268999 19.068001 22.666 26.257 28.448 31.5 34.558998 36.687 40.229 42.749001 45.807999 49.398998 188.349 191.737 193.06 195.23 198.849 200.382 204.00101 208.817 245.46899 249.27699 250.60001 252.77 256.38901 257.922 261.09299 265.909"
         y="78.987999"
         sodipodi:role="line"
         id="tspan222">Paraﬃ n/kerosene2 (0·0%)6 (0·1%)</tspan><tspan
         x="5.6700001 9.7580004 12.81 188.11099 245.882 249.27 250.593 252.763 256.38199 257.91501 261.534 266.35001"
         y="90.272003"
         sodipodi:role="line"
         id="tspan224">Gas02 (0·0%)</tspan><tspan
         x="5.6700001 10.031 12.376 15.925 18.983999 188.342 191.73 193.05299 195.22301 198.842 200.375 203.994 208.81 245.651"
         y="101.556"
         sodipodi:role="line"
         id="tspan226">Other2 (0·0%)0</tspan><tspan
         x="0.0070000002 3.227 6.7690001 10.22 13.272 15.932 18.591999 22.134001 23.457001 25.976999 31.514 35.056 38.108002 41.167 43.294998 44.618 46.207001 49.798 50.931999 53.277 56.826 59.884998 61.208 64.757004 68.299004 71.785004 74.305 77.363998 80.913002 84.455002 85.953003 181.33501 184.21899 187.936 191.744 193.067 195.237 198.408 201.63499 203.168 206.563 211.379 238.38499 242.19299 245.567 249.284 250.60699 252.77699 255.948 259.34299 260.87601 264.495 269.311"
         y="112.84"
         sodipodi:role="line"
         id="tspan228">Tobacco smoker in the household746 (17·5%)634 (15·0%)</tspan><tspan
         x="0.0070000002 4.151 7.2030001 8.7919998 10.29 13.286 14.49 18.032 20.16 21.483 24.535 26.033001 31.57 35.112 37.632 39.977001 41.181 44.66 47.712002 49.300999 50.799 53.794998 55.118 58.176998 61.243 64.714996 68.257004 70.777 74.263 76.390999 79.449997 80.584 82.929001 86.471001 87.793999 90.314003 95.850998 99.392998 102.445 105.504 106.827 108.92 111.048 114.59 120.127 121.66"
         y="124.124"
         sodipodi:role="line"
         id="tspan230">Daily or almost daily exposure to smoke from:‡</tspan><tspan
         x="5.677 9.3590002 12.845 14.973 18.563999 20.153 23.743999 27.195 28.518 30.646 34.132 37.583 41.034 42.623001 45.143002 178.731 181.90199 184.786 188.50301 191.73 193.05299 195.22301 198.94 202.11099 203.644 207.263 212.07899 235.83701 239.008 242.81599 246.043 249.27 250.593 252.763 256.13699 259.92401 261.457 265.25101 270.06699"
         y="135.408"
         sodipodi:role="line"
         id="tspan232">Burning rubbish1747 (41·0%)1677 (39·8%)</tspan><tspan
         x="5.677 9.2399998 12.782 16.323999 19.375999 20.965 24.556 28.007 29.33 31.423 34.965 37.092999 38.416 41.867001 45.353001 47.873001 49.462002 53.053001 56.112 58.632 181.22301 184.618 188.013 191.73 193.05299 195.22301 198.394 201.76801 203.30099 206.92 211.73599 239.33 242.72501 245.896 249.27 250.593 252.763 255.93401 259.32199 260.85501 264.24301 269.05899"
         y="146.692"
         sodipodi:role="line"
         id="tspan234">Cooking for business554 (13·0%)513 (12·2%)</tspan><tspan
         x="5.677 9.3590002 11.487 13.076 15.736 18.788 20.111 23.583 25.711 29.253 32.731998 36.217999 38.877998 41.223 42.812 46.354 182.112 185.283 188.50999 191.737 193.06 195.23 198.94701 200.48 203.868 208.68401 239.00101 242.38901 245.56 249.27699 250.60001 252.77 256.16501 257.698 260.86899 265.685"
         y="157.976"
         sodipodi:role="line"
         id="tspan236">Brick production177 (4·2%)214 (5·1%)</tspan><tspan
         x="5.684 9.0509996 12.103 14.231 17.283001 19.082001 22.68 26.271 28.462 31.514 34.573002 36.701 40.243 42.763 45.821999 49.412998 52.472 53.794998 55.292999 58.345001 63.882 67.353996 184.73 188.524 191.75101 193.07401 195.244 198.632 200.16499 203.784 208.60001 239.106 242.27699 245.896 249.291 250.614 252.784 256.172 257.70499 261.10001 265.91599"
         y="169.25999"
         sodipodi:role="line"
         id="tspan238">Paraﬃ n/kerosene lamps87 (2·0%)105 (2·5%)</tspan><tspan
         x="5.684 11.116 14.658 17.177999 20.629 24.115 25.704 28.049 31.591 32.914001 35.574001 39.116001 40.705002 42.202999 184.31 188.02699 191.744 193.067 195.237 198.408 199.94099 203.56 208.37601 242.10201 245.896 249.284 250.60699 252.77699 255.948 257.48099 261.26801 266.08401"
         y="180.54401"
         sodipodi:role="line"
         id="tspan240">Mosquito coils44 (1·0%)82 (1·9%)</tspan><tspan
         x="5.691 9.3730001 12.432 15.491 17.618999 18.941999 22.414 24.542 28.084 31.563 35.049 37.709 40.054001 41.643002 45.185001 184.63901 188.034 191.75101 193.07401 195.244 198.41499 199.948 203.32201 208.138 241.85699 245.57401 249.291 250.614 252.784 255.955 257.48801 261.10699 265.923"
         y="191.828"
         sodipodi:role="line"
         id="tspan242">Beer production54 (1·3%)44 (1·0%)</tspan><tspan
         x="5.691 10.052 12.397 15.946 19.004999 21.132999 22.455999 24.976 28.518 32.004002 34.132 36.792 39.851002 184.562 188.37 191.744 193.067 195.237 198.408 199.94099 203.336 208.15199 242.34 246.05701 249.284 250.60699 252.77699 255.948 257.48099 260.65201 265.46799"
         y="203.112"
         sodipodi:role="line"
         id="tspan244">Other sources63 (1·5%)47 (1·1%)</tspan><tspan
         x="0.021 3.22 6.7620001 10.248 12.376 15.036 18.094999 19.299 22.841 24.934 26.138 29.617001 31.745001 33.334 36.924999 39.977001 41.566002 45.157001 48.608002 49.812 54.571999 57.624001 59.969002 63.028 65.155998"
         y="214.396"
         sodipodi:role="line"
         id="tspan246">Source of drinking water‡</tspan><tspan
         x="5.691 9.3730001 12.915 15.043 18.101999 19.424999 22.974001 26.516001 28.014 177.548 180.71899 184.506 188.125 191.744 193.067 195.237 198.95399 202.67101 204.20399 208.01199 212.828 235.72501 238.896 242.683 245.91 249.284 250.60699 252.77699 256.49399 260.302 261.83499 265.629 270.44501"
         y="225.67999"
         sodipodi:role="line"
         id="tspan248">Bore hole1900 (44·6%)1973 (46·8%)</tspan><tspan
         x="5.691 8.9110003 11.963 15.435 16.569 18.914 22.455999 23.778999 27.327999 30.870001 34.355999 36.875999 181.244 184.961 188.58 191.75101 193.07401 195.244 199.03101 200.564 204.28101 209.097 238.896 242.27 245.49699 249.291 250.614 252.784 256.57101 258.104 261.72299 266.539"
         y="236.964"
         sodipodi:role="line"
         id="tspan250">Tap to house401 (9·4%)378 (9·0%)</tspan><tspan
         x="5.691 8.8900003 12.439 15.491 17.618999 20.677999 24.157 25.48 28.139999 31.681999 37.219002 42.756001 46.242001 49.833 52.884998 54.382999 55.516998 57.862 60.914001 180.789 184.16299 187.957 191.744 193.067 195.237 199.024 200.55701 203.728 208.54401 238.80499 242.179 245.567 249.284 250.60699 252.77699 256.004 257.53699 260.76401 265.57999"
         y="248.248"
         sodipodi:role="line"
         id="tspan252">Shared communal tap389 (9·1%)324 (7·7%)</tspan><tspan
         x="5.691 9.2532997 12.7946 15.8949 18.953199 21.0805 24.1388 27.6171 28.8211 33.580399 36.638699 38.136002 181.265 184.6523 188.0466 191.76289 193.08591 195.2552 199.0625 200.5948 204.2131 209.0284 239.1627 242.55 245.92329 249.2966 250.6196 252.78889 256.1832 257.71552 261.1098 265.92511 268.09439"
         y="259.53201"
         sodipodi:role="line"
         id="tspan254">Covered well254 (6·0%)233 (5·5%) </tspan><tspan
         x="5.691 8.6793003 11.7306 14.7819 17.8402 19.044201 22.585501 24.712799 26.035801 28.163099 29.7514 32.8517 35.91 181.58 184.9673 188.3616 191.75591 193.0789 195.2482 199.0555 200.5878 204.2061 209.02139 239.4987 242.66901 246.06329 249.2896 250.61259 252.78191 256.15521 257.6875 260.91379 265.7291"
         y="270.81601"
         sodipodi:role="line"
         id="tspan256">Lake or river255 (6·0%)157 (3·7%)</tspan><tspan
         x="5.691 10.052 13.524 16.583 20.174 21.378 26.138 29.197001 30.695 181.62199 184.793 188.58 191.75101 193.07401 195.244 198.961 200.494 203.88901 208.705 239.134 242.522 245.91701 249.291 250.614 252.784 256.59201 258.125 261.74399 266.56"
         y="282.10001"
         sodipodi:role="line"
         id="tspan258">Open well191 (4·5%)253 (6·0%)</tspan><tspan
         x="5.684 10.045 12.39 15.939 18.997999 188.36301 191.737 193.06 195.23 198.849 200.382 203.55299 208.369 246.106 249.27699 250.60001 252.77 256.38901 257.922 261.54099 266.35699"
         y="293.384"
         sodipodi:role="line"
         id="tspan260">Other3 (0·1%)1 (0·0%)</tspan><tspan
         x="0.0070000002 3.227 6.7690001 8.3579998 9.8559999 12.915 15.26 16.583 18.676001 21.728001 24.388 25.976999 27.475 29.063999 31.409 32.998001 36.056999"
         y="304.668"
         sodipodi:role="line"
         id="tspan262">Toilet facilities</tspan><tspan
         x="5.677 8.8760004 10.465 16.002001 19.474001 20.972 24.031 25.354 28.826 30.415001 32.759998 34.083 35.581001 38.632999 40.978001 43.105999 44.695 48.285999 177.12801 180.502 184.21899 187.936 191.73 193.05299 195.22301 199.017 202.188 203.72099 207.34 212.15601 235.73199 239.106 242.50101 245.896 249.27 250.593 252.763 256.55701 260.27399 261.80701 265.181 269.99701"
         y="315.952"
         sodipodi:role="line"
         id="tspan264">Simple pit latrine3448 (81·0%)3553 (84·3%)</tspan><tspan
         x="5.677 10.199 13.741 17.332001 181.321 184.548 188.356 191.73 193.05299 195.22301 198.394 201.621 203.15401 206.94099 211.757 238.903 242.711 245.882 249.27 250.593 252.763 255.93401 259.651 261.18399 264.57901 269.39499"
         y="327.23599"
         sodipodi:role="line"
         id="tspan266">None763 (17·9%)612 (14·5%)</tspan><tspan
         x="5.677 11.228 14.28 16.625 19.684 21.812 22.945999 25.291 28.833 30.422001 31.92 34.979 185.136 188.50999 191.737 193.06 195.23 198.849 200.382 204.16901 208.985 242.515 245.903 249.27699 250.60001 252.77 256.38901 257.922 261.31699 266.133"
         y="338.51999"
         sodipodi:role="line"
         id="tspan268">Water toilet37 (0·9%)23 (0·5%)</tspan><tspan
         x="5.677 9.3303003 12.3886 15.9789 18.3232 19.911501 21.4088 24.4601 26.804399 29.8627 33.341 34.664001 36.2523 41.788601 45.259899 47.387199 50.928501 54.028801 57.087101 60.565399 61.888401 65.359703 66.947998 187.94299 191.7363 193.0593 195.22861 198.84689 200.3792 203.76649 208.5818 242.0761 245.46339 249.27071 250.5937 252.763 256.38129 257.9136 261.72089 266.53619"
         y="349.80399"
         sodipodi:role="line"
         id="tspan270">Ventilated improved pit8 (0·2%)26 (0·6%)</tspan><tspan
         x="0.0070000002 3.227 6.2930002 9.7650003 12.824 14.952 16.541 19.6 23.191 25.851 28.91 32.389 33.712002 36.764 37.897999 40.243 41.832001 47.368999 50.428001 51.750999 53.34 56.931 58.064999 60.41 63.959 67.017998 68.341003 69.838997 72.890999 75.411003 77.755997 78.834 81.830002 84.889 87.941002 90.069 91.273003 96.032997 99.582001 102.641 106.232 107.366 109.711 113.26 116.319 118.447 121.506 122.71 127.47 130.522 133.04201 134.36501 137.95599 141.498 143.843 145.166 148.22501 151.81599 155.358 158.84399 162.295 165.84399"
         y="361.08801"
         sodipodi:role="line"
         id="tspan272">Experienced a time in the last year when there was not enough </tspan><tspan
         x="0.0070000002 2.0999999 5.6420002 9.184 12.663 13.986 16.079 19.621 21.749001 22.882999 25.228001 28.777 31.836 33.159 36.708 40.25 43.736 46.256001 49.314999 52.863998 56.405998 57.903999 61.382999 62.516998 64.862 68.403999 69.726997 73.276001 76.328003 79.429001 82.487999 83.810997 85.400002 87.745003 90.264999 91.587997 95.179001 98.721001 100.849 106.386 109.438 110.936 112.259 117.796 120.855 123.907 125.405"
         y="369.586"
         sodipodi:role="line"
         id="tspan274">food for the household to have its normal meals</tspan><tspan
         x="178.633 182.021 185.192 188.56599 191.737 193.06 195.23 198.625 202.244 203.77699 206.948 211.76401 236.173 239.561 242.73199 245.903 249.27699 250.60001 252.77 256.16501 259.784 261.31699 264.48801 269.30399"
         y="361.08801"
         sodipodi:role="line"
         id="tspan276">2131 (50·1%)2113 (50·1%)</tspan><tspan
         x="0.0070000002 3.227 6.2930002 9.7650003 12.824 14.952 16.541 19.6 23.191 25.851 28.91 32.389 33.712002 36.764 37.897999 40.243 41.832001 47.368999 50.428001 51.750999 53.34 56.931 58.064999 60.41 63.959 67.017998 68.341003 69.838997 72.890999 75.411003 77.755997 78.834 81.830002 84.889 87.941002 90.069 91.273003 96.032997 99.582001 102.641 106.232 107.366 109.711 113.26 116.319 117.642 121.191 124.733 128.21899 130.739 133.798 137.347 140.88901 142.38699 145.866 147.07001 150.549 152.138 155.617 156.94 160.53101 164.073 166.418"
         y="380.87"
         sodipodi:role="line"
         id="tspan278">Experienced a time in the last year when the household did not </tspan><tspan
         x="0.0070000002 3.5553 6.6065998 9.7068996 12.7652 14.0882 19.6245 23.1658 26.7561 29.8144 32.8097 33.943699 36.287998 39.8293 41.152302 44.6026 48.087898 51.083199 52.4062 55.856499 58.907799 61.252102 64.8004 66.388702 69.978996 73.429298 74.752296 77.271599 80.812897 83.864197"
         y="389.36801"
         sodipodi:role="line"
         id="tspan280">have money to buy bathing soap</tspan><tspan
         x="177.12801 180.51601 184.32401 187.94299 191.737 193.06 195.23 199.03799 202.209 203.742 207.116 211.93201 235.48 238.868 242.263 246.05 249.27699 250.60001 252.77 256.578 259.74899 261.28201 265.09 269.90601"
         y="380.87"
         sodipodi:role="line"
         id="tspan282">2608 (61·3%)2597 (61·6%)</tspan></text>
<text
       transform="matrix(1,0,0,-1,268.125,217.211)"
       style="font-variant:normal;font-weight:normal;font-size:6.5px;font-family:Shaker2Lancet;-inkscape-font-specification:Shaker2Lancet-Regular;writing-mode:lr-tb;fill:#000000;fill-opacity:1;fill-rule:nonzero;stroke:none"
       id="text292"><tspan
         x="0 3.848 6.6820002 8.8594999 11.6935 12.922 15.756 17.732 20.5725 21.801001 26.942499 29.783001 32.617001 35.9515 37.18 39.195 42.165501 46.0135 48.0285 49.139999 52.429001 54.404999 55.633499 58.967999 60.196499 62.211498 66.683502 68.698502 70.122002 71.350502 74.086998 77.512497 80.346497 82.816498 85.286499 86.762001 90.096497 92.930496 95.108002 96.583504 99.872498 103.207 104.4355 106.7755 108.953 111.787 113.9645 117.2015 119.5415 120.77 123.604 126.4835 129.3175 130.793 132.18401 135.01801 138.2225 139.61349 142.45399 143.6825 145.62601 148.91499 150.89101 152.11951 155.116 158.24899 161.7655 164.918 166.1465 168.6165 171.912 173.3875 174.7785 178.009 179.985 182.8255 186.16 187.3885 189.4035 192.5365 196.07249 199.524 202.67 203.8985 205.37399 208.7085 209.755 211.9325 215.228 218.0685 219.297 220.77251 224.10699 226.2845 229.125 231.101 233.9805 236.821 240.1555 242.33299 243.8085 247.0975 250.43201 251.66051 254.86501 256.841 260.13 263.367 266.591 267.81949 270.6535 273.98801 277.21851"
         y="0"
         sodipodi:role="line"
         id="tspan286">Data are mean (SD) or n (%). *Vaccination status available for 7395 children (3642 in the intervention group and </tspan><tspan
         x="0 3.1329999 6.1294999 9.2819996 12.415 13.6435 15.119 18.453501 19.5065 21.684 24.9795 27.82 29.0485 31.518499 34.807499 38.141998 40.3195 42.295502 45.584499 46.975498 48.203999 51.408501 53.384499 56.6735 59.9105 63.134499 65.149498 66.572998 67.801498 70.694 74.542 77.375999 79.553497 82.387497 83.615997 86.449997 89.329498 92.163498 93.639 95.029999 97.863998 101.0685 102.4595 105.3 106.5285 108.472 111.761 113.737 114.9655 118.482 121.4785 124.995 128.51801 129.74651 132.21651 135.51199 136.9875 138.37849 141.60899 143.58501 146.42551 149.75999 150.98849 153.00349 156.455 159.9715 163.12399 166.5755 167.804 169.2795 172.614 173.66051 175.838 179.1335 181.974 183.2025 184.67799 188.0125 190.19 193.0305 195.0065 197.886 200.7265 204.061 206.23849 207.714 211.00301 214.33749 215.56599 218.77049 220.74651 224.03551 227.27251 230.49651 231.72501 234.55901 237.89349 241.12399 242.35249 245.804 249.327 252.7785 256.23001 257.4585 258.93399 262.26849 263.315 265.49249 268.78799 271.62851 272.85699 275.327 278.616 281.9505 284.12799 286.104 289.39301 290.784"
         y="8.0015001"
         sodipodi:role="line"
         id="tspan288">3753 in the control group). †Data available for 9798 children (4954 in the intervention group and 4844 in the control </tspan><tspan
         x="0 3.2045 5.1805 8.4694996 11.7065 14.9305 16.945499 18.368999 19.5975 22.49 26.468 29.757 32.993999 35.334 38.1745 41.470001 44.758999 46.150002 49.380501 50.609001 53.078999 56.368 59.605 60.995998 64.226501 65.455002 68.6595 70.135002 73.014503 75.855003 77.083504 82.224998 85.461998 86.852997 89.030502 90.505997 93.730003 95.121002 97.961502 99.190002 101.166 104.0065 106.3465 109.5705 112.8595 116.194 118.534 121.3745 123.7145 125.138"
         y="16.003"
         sodipodi:role="line"
         id="tspan290">group). ‡Household could give multiple responses. </tspan></text>
<text
       transform="matrix(1,0,0,-1,268.125,185.124)"
       style="font-style:italic;font-variant:normal;font-weight:bold;font-size:7px;font-family:Shaker2Lancet;-inkscape-font-specification:Shaker2Lancet-BoldItalic;writing-mode:lr-tb;fill:#000000;fill-opacity:1;fill-rule:nonzero;stroke:none"
       id="text296"><tspan
         x="0 3.1429999 6.4749999 9.7930002 11.375 14.245 15.379 19.004999"
         y="0"
         sodipodi:role="line"
         id="tspan294">Table 1:</tspan></text>
<text
       transform="matrix(1,0,0,-1,290.077,185.124)"
       style="font-variant:normal;font-weight:bold;font-size:7px;font-family:Shaker2Lancet;-inkscape-font-specification:Shaker2Lancet-Bold;writing-mode:lr-tb;fill:#000000;fill-opacity:1;fill-rule:nonzero;stroke:none"
       id="text300"><tspan
         x="0 3.8213 7.0545998 9.7349005 12.9052 14.5495 16.305799 20.0851 23.2554 24.5434 27.328699 31.052 34.285301 36.594601 39.8279 42.613201 45.251499 48.421799 50.731098 52.4874 55.167702 57.806 59.562302 62.347599 65.027901 66.252899 69.906197 72.2295 73.321503 75.959801 79.683098 82.853401 84.141403 85.897697 89.677002 92.3153 95.485603 99.2649 101.9032 103.6595 107.3128 111.0921 113.4154 116.0537 119.707 122.0303 124.6686 126.9779 130.14819 133.3815 136.01981 137.3078 141.02409 144.6774 148.39371 152.061 153.70531 156.9386 159.5769 161.33321 164.9865"
         y="0"
         sodipodi:role="line"
         id="tspan298">Baseline characteristics of the intention-to-treat population</tspan></text>
<g
       id="g302"
       transform="translate(262.33,670.552)"><path
         d="M 304.474,0 H 0 v -491.223 h 304.474 z"
         style="fill:none;stroke:#b30838;stroke-width:0.25;stroke-linecap:butt;stroke-linejoin:miter;stroke-miterlimit:4;stroke-dasharray:none;stroke-opacity:1"
         id="path304"
         inkscape:connector-curvature="0" /></g><g
       id="g306"
       transform="translate(262.33,670.552)"><path
         d="M 0,0 Z"
         style="fill:none;stroke:#b30838;stroke-width:0.25;stroke-linecap:butt;stroke-linejoin:miter;stroke-miterlimit:4;stroke-dasharray:none;stroke-opacity:1"
         id="path308"
         inkscape:connector-curvature="0" /></g></g></svg>