<?xml version="1.0" encoding="UTF-8" standalone="no"?>
<!-- Created with Inkscape (http://www.inkscape.org/) -->

<svg
   xmlns:dc="http://purl.org/dc/elements/1.1/"
   xmlns:cc="http://creativecommons.org/ns#"
   xmlns:rdf="http://www.w3.org/1999/02/22-rdf-syntax-ns#"
   xmlns:svg="http://www.w3.org/2000/svg"
   xmlns="http://www.w3.org/2000/svg"
   xmlns:sodipodi="http://sodipodi.sourceforge.net/DTD/sodipodi-0.dtd"
   xmlns:inkscape="http://www.inkscape.org/namespaces/inkscape"
   version="1.1"
   id="svg2"
   xml:space="preserve"
   width="793.70135"
   height="1065.8267"
   viewBox="0 0 793.70135 1065.8267"
   sodipodi:docname="table1.svg"
   inkscape:version="0.92.0 r15299"><metadata
     id="metadata8"><rdf:RDF><cc:Work
         rdf:about=""><dc:format>image/svg+xml</dc:format><dc:type
           rdf:resource="http://purl.org/dc/dcmitype/StillImage" /><dc:title></dc:title></cc:Work></rdf:RDF></metadata><defs
     id="defs6"><clipPath
       clipPathUnits="userSpaceOnUse"
       id="clipPath22"><path
         d="M 0.03,799.37 H 595.276 V 0 H 0.03 Z"
         id="path20"
         inkscape:connector-curvature="0" /></clipPath></defs><sodipodi:namedview
     pagecolor="#ffffff"
     bordercolor="#666666"
     borderopacity="1"
     objecttolerance="10"
     gridtolerance="10"
     guidetolerance="10"
     inkscape:pageopacity="0"
     inkscape:pageshadow="2"
     inkscape:window-width="1920"
     inkscape:window-height="988"
     id="namedview4"
     showgrid="false"
     inkscape:zoom="1.2525654"
     inkscape:cx="173.32991"
     inkscape:cy="311.48477"
     inkscape:window-x="0"
     inkscape:window-y="27"
     inkscape:window-maximized="1"
     inkscape:current-layer="g10" /><g
     id="g10"
     inkscape:groupmode="layer"
     inkscape:label="fulltext"
     transform="matrix(1.3333333,0,0,-1.3333333,0,1065.8267)"><path
       d="M 28.471,85.873 H 331.67 v 204.6 H 28.471 Z"
       style="fill:#f5e0dc;fill-opacity:1;fill-rule:nonzero;stroke:none"
       id="path454"
       inkscape:connector-curvature="0" /><path
       d="M 34.266,261.546 H 210.827 V 249.129 H 34.266 Z m 176.561,0 h 57.542 v -12.417 h -57.542 z m 57.542,0 h 57.508 V 249.129 H 268.369 Z M 34.266,249.129 H 210.827 V 237.846 H 34.266 Z m 176.561,0 h 57.542 v -11.283 h -57.542 z m 57.542,0 h 57.508 V 237.846 H 268.369 Z M 34.266,237.846 H 325.877 V 226.563 H 34.266 Z m 0,-11.283 H 210.827 V 215.279 H 34.266 Z m 176.561,0 h 57.542 v -11.284 h -57.542 z m 57.542,0 h 57.508 V 215.279 H 268.369 Z M 34.266,215.279 H 210.827 V 203.996 H 34.266 Z m 176.561,0 h 57.542 v -11.283 h -57.542 z m 57.542,0 h 57.508 V 203.996 H 268.369 Z M 34.266,203.996 H 325.877 V 192.713 H 34.266 Z m 0,-11.283 H 210.827 V 172.874 H 34.266 Z m 176.561,0 h 57.542 v -19.839 h -57.542 z m 57.542,0 h 57.508 V 172.874 H 268.369 Z M 34.266,172.874 H 210.827 V 161.591 H 34.266 Z m 176.561,0 h 57.542 v -11.283 h -57.542 z m 57.542,0 h 57.508 V 161.591 H 268.369 Z M 34.266,161.591 H 210.827 V 150.308 H 34.266 Z m 176.561,0 h 57.542 v -11.283 h -57.542 z m 57.542,0 h 57.508 V 150.308 H 268.369 Z M 34.266,150.308 H 210.827 V 139.024 H 34.266 Z m 176.561,0 h 57.542 v -11.284 h -57.542 z m 57.542,0 h 57.508 V 139.024 H 268.369 Z M 34.266,139.024 H 210.827 V 127.741 H 34.266 Z m 176.561,0 h 57.542 v -11.283 h -57.542 z m 57.542,0 h 57.508 V 127.741 H 268.369 Z M 34.266,127.741 H 210.827 V 116.458 H 34.266 Z m 176.561,0 h 57.542 v -11.283 h -57.542 z m 57.542,0 h 57.508 V 116.458 H 268.369 Z M 34.266,116.458 H 210.827 V 105.175 H 34.266 Z m 176.561,0 h 57.542 v -11.283 h -57.542 z m 57.542,0 h 57.508 v -11.283 h -57.508 z"
       style="fill:#ffffff;fill-opacity:1;fill-rule:nonzero;stroke:none"
       id="path456"
       inkscape:connector-curvature="0" /><g
       id="g458"
       transform="translate(34.266007,273.963)"><path
         d="m 0,0 h 176.561 57.542 57.508"
         style="fill:none;stroke:#000000;stroke-width:0.25;stroke-linecap:butt;stroke-linejoin:miter;stroke-miterlimit:10;stroke-dasharray:none;stroke-opacity:1"
         id="path460"
         inkscape:connector-curvature="0" /></g><text
       transform="matrix(1,0,0,-1,213.662,278.498)"
       style="font-variant:normal;font-weight:bold;font-size:7px;font-family:Shaker2Lancet;-inkscape-font-specification:Shaker2Lancet-Bold;writing-mode:lr-tb;fill:#000000;fill-opacity:1;fill-rule:nonzero;stroke:none"
       id="text466"><tspan
         x="0 1.7766 5.5552001 8.1927996 11.3624 13.671 17.0926 20.262199 24.0408 26.6784 28.434 32.086601 57.551201 61.133801 64.7864 68.565002 71.202599 73.5112 77.163803"
         y="0"
         sodipodi:role="line"
         id="tspan462">InterventionControl</tspan><tspan
         x="-176.561 -174.78439 -171.0058 -167.2832 -165.5276 -162.106 -160.3504 -156.62781 -152.9612 -149.72861 -148.08501 -145.76241 -144.1188 -140.9492 -137.5276 -134.358 -132.7144 -131.4894 -127.7668 -124.5342 -121.8966"
         y="13.552"
         sodipodi:role="line"
         id="tspan464">Individual-level data</tspan></text>
<text
       transform="matrix(1,0,0,-1,37.101,252.528)"
       style="font-variant:normal;font-weight:normal;font-size:7px;font-family:Shaker2Lancet;-inkscape-font-specification:Shaker2Lancet-Regular;writing-mode:lr-tb;fill:#000000;fill-opacity:1;fill-rule:nonzero;stroke:none"
       id="text482"><tspan
         x="0 4.5219998 8.0080004 13.545 16.996 20.055 22.183001 23.386299 26.928301 29.021299 30.343599 33.003601 36.552601 38.141602 39.639599 43.118599 45.246601 48.305599 177.92461 181.3196 184.7076 188.4946 234.9536 238.3486 241.7366 245.4536"
         y="0"
         sodipodi:role="line"
         id="tspan468">Number of children52975246</tspan><tspan
         x="0 4.1020002 7.553 10.612 11.935 14.105 19.642 23.184 26.775 29.120001 32.668999 35.188999 184.618 188.006 191.72301 193.256 196.651 197.974 200.144 203.315 207.123 208.65601 211.827 242.50101 245.88901 249.263 250.79601 254.59 255.91299 258.08301 261.254 265.06201 266.595 269.76599"
         y="11.284"
         sodipodi:role="line"
         id="tspan470">Age (months)24·5 (16·1)23·8 (16·1)</tspan><tspan
         x="0 3.1989999 6.2579999"
         y="22.568001"
         sodipodi:role="line"
         id="tspan472">Sex</tspan><tspan
         x="5.6700001 11.102 14.154 15.652 177.646 181.034 184.842 188.55901 191.73 193.05299 195.22301 198.94 202.72701 204.25999 208.047 212.86301 235.508 238.896 242.291 246.099 249.27 250.593 252.763 256.48001 260.27399 261.80701 265.60101 270.41699"
         y="33.852001"
         sodipodi:role="line"
         id="tspan474">Male2641 (49·9%)2561 (48·8%)</tspan><tspan
         x="5.6700001 8.7010002 11.76 17.297001 20.349001 21.847 177.33099 180.71899 184.52699 187.922 191.73 193.05299 195.22301 198.618 202.237 203.77 206.94099 211.757 234.88499 238.27299 242.08099 245.875 249.27 250.593 252.763 256.15799 259.32901 260.862 264.25 269.06601"
         y="45.136002"
         sodipodi:role="line"
         id="tspan476">Female2656 (50·1%)2685 (51·2%)</tspan><tspan
         x="0 3.6889999 6.7410002 9.401 12.061 13.65 17.240999 20.292999 22.638 24.226999 27.768999 31.360001 32.682999 35.202999 37.548 40.599998 42.945 46.431 48.951 50.273998 52.444 55.104 58.646 62.132 64.260002 66.779999 69.838997 71.162003 73.821999 77.363998 82.901001 86.373001 87.871002 90.93 93.275002 96.334 99.813004 101.983"
         y="56.419998"
         sodipodi:role="line"
         id="tspan478">Vaccination status (course completed)*</tspan><tspan
         x="5.6700001 9.8140001 11.403 14.875 18.424 20.768999 24.318001 27.377001 29.504999 31.094 34.146 35.679001 36.813 39.158001 42.216999 44.562 47.613998 51.205002 54.691002 57.210999 58.743999 60.067001 63.539001 66.598 68.725998 71.070999 74.556999 77.077003 79.597 81.185997 83.706001 85.238998 86.561996 90.111 93.169998 96.641998 99.694 102.039 103.628 105.973 107.562 110.082 111.405 115.087 116.41 119.462 123.053 126.532"
         y="67.760002"
         sodipodi:role="line"
         id="tspan480">Diphtheria, tetanus, pertussis, hepatitis B and </tspan></text>
<text
       transform="matrix(1,0,0,-1,164.956,184.768)"
       style="font-style:italic;font-variant:normal;font-size:7px;font-family:Shaker2Lancet;-inkscape-font-specification:Shaker2Lancet-Italic;writing-mode:lr-tb;fill:#000000;fill-opacity:1;fill-rule:nonzero;stroke:none"
       id="text488"><tspan
         x="0 4.0739999 7.1890001 9.8699999 15.057 18.172001 21.329 24.702999 26.138 27.587 30.947001 33.403999"
         y="0"
         sodipodi:role="line"
         id="tspan484">Haemophilus </tspan><tspan
         x="-122.185 -120.75 -117.383 -115.696 -114.0055 -110.6455 -107.9645 -104.5975 -101.9095 -98.794502"
         y="8.4980001"
         sodipodi:role="line"
         id="tspan486">inﬂ uenzae</tspan></text>
<text
       transform="matrix(1,0,0,-1,70.1655,176.27)"
       style="font-variant:normal;font-weight:normal;font-size:7px;font-family:Shaker2Lancet;-inkscape-font-specification:Shaker2Lancet-Regular;writing-mode:lr-tb;fill:#000000;fill-opacity:1;fill-rule:nonzero;stroke:none"
       id="text508"><tspan
         x="0"
         y="0"
         id="tspan490">B</tspan><tspan
         x="144.32249 147.71049 151.5045 155.2915 158.6655 159.98849 162.15849 165.3855 169.1725 170.70551 174.4225 179.23849 201.61749 205.00549 208.7925 212.5865 216.20551 217.5285 219.6985 222.92551 226.71249 228.2455 231.96249 236.7785"
         y="-8.5539999"
         sodipodi:role="line"
         id="tspan492">2893 (79·4%)2980 (79·4%)</tspan><tspan
         x="-27.394501 -23.9575 -20.366501 -17.307501 -13.8215 -8.2845001 -4.7424998 -2.0825 1.4595 4.1195002 6.7795 9.8315001 11.3295 12.6525 15.3125 18.8545 22.445499 24.0275 27.5135 30.9645 34.016499 36.3615 145.3235 148.7115 151.88251 155.27049 158.65849 159.98151 162.1515 165.54649 169.3405 170.8735 174.2475 179.06351 202.26151 205.64951 209.03751 212.4115 216.1985 217.5215 219.6915 223.0865 226.8735 228.40649 231.6335 236.44949"
         y="11.284"
         sodipodi:role="line"
         id="tspan494">Pneumococcal conjugate2122 (58·3%)2239 (59·7%)</tspan><tspan
         x="-27.394501 -24.0275 -20.4855 -18.987499 -17.3985 144.85451 148.24249 151.4695 154.8575 158.6655 159.98849 162.15849 165.0425 168.75951 170.2925 174.0865 178.9025 202.4015 205.78951 209.5835 212.9785 216.20551 217.5285 219.6985 222.92551 226.73351 228.26649 231.4375 236.25349"
         y="22.568001"
         sodipodi:role="line"
         id="tspan496">Polio2726 (74·8%)2857 (76·1%)</tspan><tspan
         x="-27.394501 -23.880501 -20.338499 -17.9935 -14.9415 -11.8405 -10.2515 -8.1234999 -4.6374998 145.72951 148.9005 152.1275 155.29849 158.6725 159.9955 162.1655 165.88251 169.1095 170.6425 174.26151 179.0775 203.2135 206.38451 209.6115 212.4955 216.21249 217.53551 219.70551 223.4225 226.64951 228.1825 231.5565 236.3725"
         y="33.852001"
         sodipodi:role="line"
         id="tspan498">Rotavirus1713 (47·0%)1774 (47·3%)</tspan><tspan
         x="-27.394501 -21.9625 -18.9035 -15.8515 -13.3315 -11.8335 -8.7744999 144.49049 147.87849 151.0495 154.8575 158.6655 159.98849 162.15849 165.5535 169.3405 170.8735 174.26849 179.0845 202.2475 205.6355 209.0235 212.4115 216.20551 217.5285 219.6985 223.09351 226.88049 228.4135 232.13049 236.9465"
         y="45.136002"
         sodipodi:role="line"
         id="tspan500">Measles2166 (59·5%)2228 (59·4%)</tspan><tspan
         x="-33.064499 -28.7805 -25.7285 -22.2495 -20.9265 -17.4545 -13.8635 -10.8045 -7.3185 -1.7815 1.7605 5.3515 6.9404998 9.9925003 11.3155 14.3675 16.7125 18.0355 19.533501 22.592501 25.644501 28.164499 30.509501 31.713499 35.255501 38.8465 41.5065 44.565498 45.8885 47.477501 51.068501 52.202499 54.547501 58.0965 61.155499 62.4785 65.9505 68.078499 71.137497 73.797501 76.856499 80.335503 81.9245 85.515503 88.966499 90.289497 93.460503 96.848503 98.171501 103.7085 107.2505 110.8415 113.1865 116.7355 119.2555 148.2355 151.46249 155.27049 158.65849 159.98151 162.1515 165.32249 168.7175 170.2505 173.9675 178.78349 204.9705 208.7645 212.48151 216.1985 217.5215 219.6915 222.8625 226.08949 227.6225 231.33949 236.1555"
         y="56.419998"
         sodipodi:role="line"
         id="tspan502">Had pneumonia at least once in the preceding 12 months†762 (15·4%)844 (17·4%)</tspan><tspan
         x="-33.064499 -28.7805 -25.7285 -22.2495 -20.9265 -17.8745 -16.5515 -13.8915 -10.3495 -6.8074999 -3.7555001 -2.1665001 1.4245 4.8755002 7.1995001 9.3275003 12.3865 13.8845 16.936501 19.2815 22.3405 25.8195 27.1425 30.5935 34.079498 36.2075 39.7985 41.121498 42.710499 46.301498 47.435501 49.780499 53.329498 56.3885 57.711498 61.183498 63.311501 66.370499 69.030502 72.0895 75.568497 77.157501 80.748497 84.199501 85.522499 88.8965 90.219498 95.7565 99.2985 102.8895 105.2345 108.7835 148.3195 151.7075 154.87849 158.6655 159.98849 162.15849 165.8755 167.40849 170.5795 175.39549 205.2365 208.6245 212.4185 216.20551 217.5285 219.6985 223.09351 224.6265 228.0215 232.83749"
         y="67.704002"
         sodipodi:role="line"
         id="tspan504">Had a cooking-related burn in the preceding 3 months219 (4·1%)289 (5·5%)</tspan><tspan
         x="165.77049 168.1505 171.3705 174.4225 177.8735 179.37151 182.4305 183.75349 186.9245 188.2475 190.9075 194.44949 198.0405 200.3855 201.9745 205.56551 209.0515 212.1105 214.63049 215.8345 219.3765 222.9675 224.2905 227.8815 230.94051 234.0065 236.3515 237.6745 241.1465 244.1985 247.64951 250.7085"
         y="80.122002"
         sodipodi:role="line"
         id="tspan506">(Table 1 continues on next page)</tspan></text>
<g
       id="g510"
       transform="translate(28.470993,290.47301)"><path
         d="M 303.199,0 H 0 v -204.6 h 303.199 z"
         style="fill:none;stroke:#b30838;stroke-width:0.25;stroke-linecap:butt;stroke-linejoin:miter;stroke-miterlimit:4;stroke-dasharray:none;stroke-opacity:1"
         id="path512"
         inkscape:connector-curvature="0" /></g><g
       id="g514"
       transform="translate(28.470993,290.47301)"><path
         d="M 0,0 Z"
         style="fill:none;stroke:#b30838;stroke-width:0.25;stroke-linecap:butt;stroke-linejoin:miter;stroke-miterlimit:4;stroke-dasharray:none;stroke-opacity:1"
         id="path516"
         inkscape:connector-curvature="0" /></g></g></svg>