<?xml version="1.0" encoding="UTF-8" standalone="no"?>
<!-- Created with Inkscape (http://www.inkscape.org/) -->

<svg
   xmlns:dc="http://purl.org/dc/elements/1.1/"
   xmlns:cc="http://creativecommons.org/ns#"
   xmlns:rdf="http://www.w3.org/1999/02/22-rdf-syntax-ns#"
   xmlns:svg="http://www.w3.org/2000/svg"
   xmlns="http://www.w3.org/2000/svg"
   xmlns:sodipodi="http://sodipodi.sourceforge.net/DTD/sodipodi-0.dtd"
   xmlns:inkscape="http://www.inkscape.org/namespaces/inkscape"
   version="1.1"
   id="svg2"
   xml:space="preserve"
   width="793.70135"
   height="1065.8267"
   viewBox="0 0 793.70135 1065.8267"
   sodipodi:docname="table4.svg"
   inkscape:version="0.92.0 r15299"><metadata
     id="metadata8"><rdf:RDF><cc:Work
         rdf:about=""><dc:format>image/svg+xml</dc:format><dc:type
           rdf:resource="http://purl.org/dc/dcmitype/StillImage" /><dc:title></dc:title></cc:Work></rdf:RDF></metadata><defs
     id="defs6"><clipPath
       clipPathUnits="userSpaceOnUse"
       id="clipPath22"><path
         d="M 0.03,799.37 H 595.276 V 0 H 0.03 Z"
         id="path20"
         inkscape:connector-curvature="0" /></clipPath></defs><sodipodi:namedview
     pagecolor="#ffffff"
     bordercolor="#666666"
     borderopacity="1"
     objecttolerance="10"
     gridtolerance="10"
     guidetolerance="10"
     inkscape:pageopacity="0"
     inkscape:pageshadow="2"
     inkscape:window-width="1920"
     inkscape:window-height="988"
     id="namedview4"
     showgrid="false"
     inkscape:zoom="1.771395"
     inkscape:cx="462.65292"
     inkscape:cy="733.62202"
     inkscape:window-x="0"
     inkscape:window-y="27"
     inkscape:window-maximized="1"
     inkscape:current-layer="g10" /><g
     id="g10"
     inkscape:groupmode="layer"
     inkscape:label="fulltext"
     transform="matrix(1.3333333,0,0,-1.3333333,0,1065.8267)"><path
       d="m 36.977,502.928 h 439.12 V 670.552 H 36.977 Z"
       style="fill:#f5e0dc;fill-opacity:1;fill-rule:nonzero;stroke:none"
       id="path228"
       inkscape:connector-curvature="0" /><g
       id="g230"
       transform="translate(42.770996,517.351)"><path
         d="M 0,0 H 427.531"
         style="fill:none;stroke:#000000;stroke-width:0.25;stroke-linecap:butt;stroke-linejoin:miter;stroke-miterlimit:10;stroke-dasharray:none;stroke-opacity:1"
         id="path232"
         inkscape:connector-curvature="0" /></g><path
       d="m 42.771,611.074 h 62.112 V 599.791 H 42.771 Z m 62.112,0 h 45.355 v -11.283 h -45.355 z m 45.355,0 h 80.504 v -11.283 h -80.504 z m 80.504,0 h 3 v -11.283 h -3 z m 3,0 h 40.653 v -11.283 h -40.653 z m 40.653,0 h 79.37 v -11.283 h -79.37 z m 79.37,0 h 70.866 v -11.283 h -70.866 z m 70.866,0 h 45.671 V 599.791 H 424.631 Z M 42.771,588.507 h 62.112 V 577.224 H 42.771 Z m 62.112,0 h 45.355 v -11.283 h -45.355 z m 45.355,0 h 80.504 v -11.283 h -80.504 z m 80.504,0 h 3 v -11.283 h -3 z m 3,0 h 40.653 v -11.283 h -40.653 z m 40.653,0 h 79.37 v -11.283 h -79.37 z m 79.37,0 h 70.866 v -11.283 h -70.866 z m 70.866,0 h 45.671 V 577.224 H 424.631 Z M 42.771,565.941 h 62.112 V 554.658 H 42.771 Z m 62.112,0 h 45.355 v -11.283 h -45.355 z m 45.355,0 h 80.504 v -11.283 h -80.504 z m 80.504,0 h 3 v -11.283 h -3 z m 3,0 h 40.653 v -11.283 h -40.653 z m 40.653,0 h 79.37 v -11.283 h -79.37 z m 79.37,0 h 70.866 v -11.283 h -70.866 z m 70.866,0 h 45.671 V 554.658 H 424.631 Z M 42.771,543.375 h 62.112 V 532.092 H 42.771 Z m 62.112,0 h 45.355 v -11.283 h -45.355 z m 45.355,0 h 80.504 v -11.283 h -80.504 z m 80.504,0 h 3 v -11.283 h -3 z m 3,0 h 40.653 v -11.283 h -40.653 z m 40.653,0 h 79.37 v -11.283 h -79.37 z m 79.37,0 h 70.866 v -11.283 h -70.866 z m 70.866,0 h 45.671 v -11.283 h -45.671 z"
       style="fill:#ffffff;fill-opacity:1;fill-rule:nonzero;stroke:none"
       id="path234"
       inkscape:connector-curvature="0" /><g
       id="g236"
       transform="translate(42.770996,623.491)"><path
         d="m 0,0 h 62.112 45.355 80.504 3 40.653 79.37 70.866 45.671"
         style="fill:none;stroke:#000000;stroke-width:0.25;stroke-linecap:butt;stroke-linejoin:miter;stroke-miterlimit:10;stroke-dasharray:none;stroke-opacity:1"
         id="path238"
         inkscape:connector-curvature="0" /></g><g
       id="g240"
       transform="translate(104.883,645.54201)"><path
         d="m 0,0 h 45.355 80.504"
         style="fill:none;stroke:#000000;stroke-width:0.25;stroke-linecap:butt;stroke-linejoin:miter;stroke-miterlimit:10;stroke-dasharray:none;stroke-opacity:1"
         id="path242"
         inkscape:connector-curvature="0" /></g><g
       id="g244"
       transform="translate(233.742,645.54201)"><path
         d="m 0,0 h 40.653 79.37"
         style="fill:none;stroke:#000000;stroke-width:0.25;stroke-linecap:butt;stroke-linejoin:miter;stroke-miterlimit:10;stroke-dasharray:none;stroke-opacity:1"
         id="path246"
         inkscape:connector-curvature="0" /></g><text
       transform="matrix(1,0,0,-1,107.718,658.577)"
       style="font-variant:normal;font-weight:bold;font-size:7px;font-family:Shaker2Lancet;-inkscape-font-specification:Shaker2Lancet-Bold;writing-mode:lr-tb;fill:#000000;fill-opacity:1;fill-rule:nonzero;stroke:none"
       id="text254"><tspan
         x="0 1.7773 5.5566001 8.1948996 11.3652 13.6745 17.0968 20.267099 24.0464 26.6847 28.441 32.094299 35.8736 37.161598 39.428902 43.208199 46.693501 50.192799 53.6991 57.604401 61.047699 128.86301 132.4463 136.09959 139.87891 142.5172 144.82651 148.4798 150.1241 151.41209 153.6794 157.45869 160.944 164.4433 167.9496 171.8269 175.7462 248.87801 250.6553 254.4346 257.21991 258.9762 262.69949 265.86981 269.64911 272.43439 275.60471 276.8927 279.202 282.4353 285.07361 288.2439 289.53189 291.84119 295.07449 297.7128 299.46909 303.12241"
         y="0"
         sodipodi:role="line"
         id="tspan248">Intervention (n=5297)Control (n=5246)Incidence rate ratio </tspan><tspan
         x="248.88499 251.153 255.05901 258.55899 263.58499 264.69101 268.27499 270.05301"
         y="8.4980001"
         sodipodi:role="line"
         id="tspan250">(95% CI)</tspan><tspan
         x="319.75299 323.47 324.758 328.181 331.41501 333.06 336.728"
         y="0"
         sodipodi:role="line"
         id="tspan252">p value</tspan></text>
<text
       transform="matrix(1,0,0,-1,107.725,636.527)"
       style="font-variant:normal;font-weight:normal;font-size:7px;font-family:Shaker2Lancet;-inkscape-font-specification:Shaker2Lancet-Regular;writing-mode:lr-tb;fill:#000000;fill-opacity:1;fill-rule:nonzero;stroke:none"
       id="text290"><tspan
         x="0 4.5219998 8.0080004 13.545 16.996 20.055 22.183001 23.386299 26.928301 29.021299"
         y="0"
         sodipodi:role="line"
         id="tspan256">Number of </tspan><tspan
         x="0 3.0576 6.1571999 9.2147999 12.8044 15.148"
         y="8.4980001"
         sodipodi:role="line"
         id="tspan258">events</tspan><tspan
         x="45.353001 46.970001 50.561001 53.221001 54.810001 58.289001 61.348 64.939003 67.598999 70.657997 71.981003 74.109001 77.161003 79.505997 82.565002 83.888 86.057999 88.718002 91.769997 94.290001 97.348999 99.869003 101.192 104.664 107.723 109.851"
         y="0"
         sodipodi:role="line"
         id="tspan260">Incidence rate (cases per </tspan><tspan
         x="45.353001 48.5233 52.141602 55.759899 57.082901 59.742199 63.290501 64.878799 66.376099 69.854401 72.058701 75.054001 78.112297 81.163597 83.290901 85.810204 87.342499 88.665497 92.451797 95.8461 100.6614 101.8024 105.3647 106.981"
         y="8.4980001"
         sodipodi:role="line"
         id="tspan262">100 child-years, 95% CI)</tspan><tspan
         x="128.856 133.37801 136.864 142.401 145.85201 148.911 151.039 152.24229 155.7843 157.8773"
         y="0"
         sodipodi:role="line"
         id="tspan264">Number of </tspan><tspan
         x="128.856 131.9136 135.0132 138.0708 141.6604 144.004"
         y="8.4980001"
         sodipodi:role="line"
         id="tspan266">events</tspan><tspan
         x="169.51199 171.129 174.72 177.38 178.96899 182.448 185.507 189.09801 191.758 194.817 196.14 198.26801 201.32001 203.66499 206.724 208.047 210.217 212.877 215.929 218.44901 221.508 224.028 225.351 228.823 231.882 234.00999"
         y="0"
         sodipodi:role="line"
         id="tspan268">Incidence rate (cases per </tspan><tspan
         x="169.51199 172.6823 176.3006 179.9189 181.2419 183.9012 187.44949 189.0378 190.5351 194.0134 196.2177 199.213 202.2713 205.3226 207.44991 209.96919 211.5015 212.82449 216.61079 220.0051 224.8204 225.9614 229.5237 231.14"
         y="8.4980001"
         sodipodi:role="line"
         id="tspan270">100 child-years, 95% CI)</tspan><tspan
         x="-62.111 -56.679001 -53.626999 -52.129002 -49.077 -46.949001 -45.360001 2.3729999 5.5440001 8.7709999 49.132999 52.521 54.054001 57.224998 61.012001 62.334999 64.504997 67.676003 69.209 73.002998 76.230003 78.875999 82.264 83.796997 87.192001 90.580002 130.75999 133.931 137.30499 173.502 176.673 178.20599 182.01401 185.82201 187.145 189.315 192.48599 194.019 197.39301 201.187 203.83299 207.004 208.537 212.32401 215.71899 251.87399 255.045 256.578 259.952 263.34 264.66299 266.83301 270.004 271.53699 275.15601 278.53 281.17599 284.34698 285.88 289.68799 293.47501 323.28799 326.90701 328.44 332.05899"
         y="22.049999"
         sodipodi:role="line"
         id="tspan272">Malaria1752·19 (1·87–2·52)1341·66 (1·38–1·95)1·32 (1·03–1·69)0·03</tspan><tspan
         x="-62.111 -58.911999 -55.853001 -52.381001 -49.861 -48.271999 5.5999999 8.9949999 48.902 52.521 54.054001 57.862 61.578999 62.902 65.071999 68.691002 70.223999 73.941002 77.749001 80.394997 84.014 85.546997 89.341003 92.728996 133.91 137.30499 173.054 176.673 178.20599 182.01401 185.241 186.564 188.73399 192.353 193.886 197.603 201.39 204.036 207.655 209.188 212.98199 216.377 251.42599 255.045 256.578 260.36499 263.76001 265.08301 267.25299 270.87201 272.405 276.21301 279.92999 282.57599 285.74701 287.28 290.99701 294.168 323.28799 326.90701 328.44 332.23401"
         y="33.334"
         sodipodi:role="line"
         id="tspan274">Sepsis510·64 (0·46–0·82)540·67 (0·49–0·85)0·95 (0·64–1·41)0·81</tspan><tspan
         x="-62.111 -58.022999 -54.971001 -52.451 -50.105999 -47.978001 -44.436001 -41.376999 -37.785999 -35.441002 -32.382 -30.254 -28.665001 -26.32 -24.731001 5.0609999 8.4490004 48.902 52.521 54.054001 57.428001 61.047001 62.369999 64.540001 68.158997 69.692001 72.862999 76.656998 79.303001 82.921997 84.455002 88.171997 91.559998 133.84 137.228 173.054 176.673 178.20599 181.58 184.97501 186.298 188.468 192.08701 193.62 197.008 200.396 203.04201 206.661 208.194 211.911 215.705 251.42599 255.045 256.578 260.37201 264.17999 265.50299 267.673 271.29199 272.82501 276.54199 280.32901 282.97501 286.146 287.67899 291.07401 294.448 323.28799 326.90701 328.44 332.24799"
         y="44.618"
         sodipodi:role="line"
         id="tspan276">Gastroenteritis240·30 (0·18–0·42)280·35 (0·22–0·48)0·86 (0·49–1·53)0·62</tspan><tspan
         x="-62.111 -58.429001 -54.943001 -52.814999 -49.223999 8.3789997 48.902 52.521 54.054001 57.224998 60.396 61.719002 63.889 67.508003 69.041 72.660004 76.376999 79.023003 82.641998 84.175003 87.346001 91.133003 134.23199 137.403 173.054 176.673 178.20599 181.377 184.765 186.088 188.258 191.877 193.41 197.02901 200.424 203.07001 206.689 208.222 211.61 215.229 251.42599 255.045 256.578 260.36499 263.53601 264.85901 267.02899 270.64801 272.181 275.55499 278.78201 281.42801 284.81601 286.349 289.737 293.11099 323.28799 326.90701 328.44 332.23401"
         y="55.902"
         sodipodi:role="line"
         id="tspan278">Burns90·11 (0·04–0·19)100·12 (0·05–0·20)0·91 (0·37–2·23)0·83</tspan><tspan
         x="-62.111 -58.008999 -55.348999 -52.688999 -51.099998 -47.620998 -44.562 -40.971001 -38.625999 -35.574001 -34.076 -32.752998 -31.164 -27.573 -25.990999 -22.504999 -20.377001 5.6069999 8.7779999 48.902 52.521 54.054001 57.224998 60.619999 61.943001 64.112999 67.732002 69.264999 72.884003 76.111 78.757004 82.375999 83.908997 87.296997 91.014 137.235 173.054 176.673 178.20599 181.377 184.548 185.871 188.041 191.66 193.19299 196.812 200.52901 203.175 206.79401 208.327 211.498 215.29201 251.87399 255.045 256.578 260.29501 263.68301 265.00601 267.17599 270.79501 272.328 275.72299 279.517 282.16299 285.53699 287.07001 290.78699 294.18201 323.28799 326.90701 328.44 332.15701"
         y="67.185997"
         sodipodi:role="line"
         id="tspan280">Accidental injury120·15 (0·07–0·24)90·11 (0·04–0·18)1·42 (0·58–3·45)0·44</tspan><tspan
         x="-62.111 -56.679001 -53.626999 -52.129002 -48.537998 -45.051998 -42.707001 -40.578999 -38.990002 -36.645 -35.056 -31.514 8.7709999 48.902 52.521 54.054001 57.673 61.480999 62.804001 64.973999 68.593002 70.125999 73.745003 76.916 79.561996 83.181 84.713997 87.885002 91.273003 137.627 173.054 176.673 178.20599 181.825 185.633 186.95599 189.12601 192.745 194.278 197.897 201.06799 203.714 207.33299 208.866 212.037 215.425 251.87399 255.045 256.578 260.19699 263.36801 264.69101 266.86099 270.48001 272.013 275.401 279.18799 281.83401 285.20801 286.741 290.45801 294.25201 323.28799 326.90701 328.44 332.22699"
         y="78.470001"
         sodipodi:role="line"
         id="tspan282">Malnutrition50·06 (0·01–0·12)50·06 (0·01–0·12)1·01 (0·29–3·48)0·99</tspan><tspan
         x="-62.111 -58.008999 -55.488998 -53.144001 -49.595001 -44.057999 8.3579998 48.902 52.521 54.054001 57.673 61.466999 62.790001 64.959999 68.579002 70.112 73.731003 77.119003 79.764999 83.384003 84.917 88.087997 91.805 137.634 173.054 176.673 178.20599 181.825 185.213 186.536 188.70599 192.325 193.858 197.47701 200.64799 203.29401 206.91299 208.446 212.065 215.873 251.67101 255.045 256.578 260.19699 263.57101 264.89401 267.064 270.68301 272.216 275.61099 278.78201 281.42801 284.599 288.39301 289.92599 293.09698 296.26801 323.28799 326.90701 328.44 331.828"
         y="89.753998"
         sodipodi:role="line"
         id="tspan284">Asthma60·08 (0·02–0·14)20·02 (0·01–0·06)3·03 (0·51–18·11)0·22</tspan><tspan
         x="-62.111 -57.75 -55.404999 -51.855999 -48.797001 4.9840002 8.3579998 48.902 52.521 54.054001 57.771 61.166 62.488998 64.658997 68.278 69.810997 73.184998 76.804001 79.449997 83.069 84.601997 88.410004 92.028999 133.84 137.214 173.054 176.673 178.20599 181.923 185.31799 186.64101 188.811 192.42999 193.963 197.33701 200.95599 203.60201 207.22099 208.754 212.149 215.936 251.87399 255.045 256.578 260.19699 263.58499 264.90799 267.078 270.69699 272.23001 276.03799 279.42599 282.07199 285.24301 286.776 290.58401 294.392 323.28799 326.90701 328.44 332.22699"
         y="101.038"
         sodipodi:role="line"
         id="tspan286">Other360·45 (0·30–0·60)360·45 (0·30–0·59)1·02 (0·62–1·66)0·94</tspan><tspan
         x="-62.111 -58.890999 -55.348999 -53.004002 -49.952 1.827 5.2010002 8.3719997 49.146999 52.521 54.054001 57.841 61.627998 62.951 65.121002 68.495003 70.028 73.422997 76.818001 79.463997 83.181 84.713997 88.431 91.805 130.61301 134.00101 137.228 173.299 176.673 178.20599 181.923 185.31799 186.64101 188.811 192.185 193.718 197.33701 200.73199 203.37801 206.752 208.285 212.07899 215.88699 251.87399 255.045 256.578 259.74899 263.14401 264.46701 266.63699 270.25601 271.789 275.57599 278.97101 281.617 284.78799 286.32101 289.69501 293.48901 323.28799 326.90701 328.44 331.61099"
         y="112.322"
         sodipodi:role="line"
         id="tspan288">Total3183·99 (3·55–4·43)2783·45 (3·05–3·86)1·15 (0·95–1·38)0·15</tspan></text>
<text
       transform="matrix(1,0,0,-1,42.779,508.714)"
       style="font-style:italic;font-variant:normal;font-weight:bold;font-size:7px;font-family:Shaker2Lancet;-inkscape-font-specification:Shaker2Lancet-BoldItalic;writing-mode:lr-tb;fill:#000000;fill-opacity:1;fill-rule:nonzero;stroke:none"
       id="text294"><tspan
         x="0 3.1429999 6.4749999 9.7930002 11.375 14.245 15.379 19.004999"
         y="0"
         sodipodi:role="line"
         id="tspan292">Table 4:</tspan></text>
<text
       transform="matrix(1,0,0,-1,64.731,508.714)"
       style="font-variant:normal;font-weight:bold;font-size:7px;font-family:Shaker2Lancet;-inkscape-font-specification:Shaker2Lancet-Bold;writing-mode:lr-tb;fill:#000000;fill-opacity:1;fill-rule:nonzero;stroke:none"
       id="text298"><tspan
         x="0 1.7773 5.5566001 8.3418999 10.0982 13.8215 16.9918 20.771099 23.5564 26.7267 28.0147 30.323999 33.557301 36.195599 39.365898 40.6539 43.887199 47.6665 51.389801 52.677799 54.434101 58.213402 60.998699 62.755001 66.478302 69.648598 73.427902 76.213203 79.383499 80.671501 82.980797 86.214104 88.852402 92.022697 93.310699 95.620003 98.853302 101.4916 103.2479 106.9012 108.1192 111.7725 114.0958 115.3838 118.0641 121.2344 123.5437 125.3 128.95329 132.62061 135.3009 136.5889 139.8222 143.5455 146.9678 150.13811 152.4474 155.1277 158.298 159.586 162.7563 166.1786 169.34891 173.1282 175.76649 178.44679 179.7348 182.90511 186.2294 189.01469 190.659 194.32629 198.04961 199.80589 203.58521 207.25951 208.5475 212.26379 216.04311 219.21339 222.88071 228.64101 232.2943 236.07359 237.8299"
         y="0"
         sodipodi:role="line"
         id="tspan296">Incidence rate and incidence rate ratio of serious adverse events excluding pneumonia</tspan></text>
<g
       id="g300"
       transform="translate(36.977005,670.552)"><path
         d="M 439.12,0 H 0 v -167.624 h 439.12 z"
         style="fill:none;stroke:#b30838;stroke-width:0.25;stroke-linecap:butt;stroke-linejoin:miter;stroke-miterlimit:4;stroke-dasharray:none;stroke-opacity:1"
         id="path302"
         inkscape:connector-curvature="0" /></g><g
       id="g304"
       transform="translate(36.977005,670.552)"><path
         d="M 0,0 Z"
         style="fill:none;stroke:#b30838;stroke-width:0.25;stroke-linecap:butt;stroke-linejoin:miter;stroke-miterlimit:4;stroke-dasharray:none;stroke-opacity:1"
         id="path306"
         inkscape:connector-curvature="0" /></g></g></svg>