<?xml version="1.0" encoding="UTF-8" standalone="no"?>
<!-- Created with Inkscape (http://www.inkscape.org/) -->

<svg
   xmlns:dc="http://purl.org/dc/elements/1.1/"
   xmlns:cc="http://creativecommons.org/ns#"
   xmlns:rdf="http://www.w3.org/1999/02/22-rdf-syntax-ns#"
   xmlns:svg="http://www.w3.org/2000/svg"
   xmlns="http://www.w3.org/2000/svg"
   xmlns:sodipodi="http://sodipodi.sourceforge.net/DTD/sodipodi-0.dtd"
   xmlns:inkscape="http://www.inkscape.org/namespaces/inkscape"
   version="1.1"
   id="svg2"
   xml:space="preserve"
   width="793.70135"
   height="1065.8267"
   viewBox="0 0 793.70135 1065.8267"
   sodipodi:docname="table2.svg"
   inkscape:version="0.92.0 r15299"><metadata
     id="metadata8"><rdf:RDF><cc:Work
         rdf:about=""><dc:format>image/svg+xml</dc:format><dc:type
           rdf:resource="http://purl.org/dc/dcmitype/StillImage" /><dc:title></dc:title></cc:Work></rdf:RDF></metadata><defs
     id="defs6"><clipPath
       clipPathUnits="userSpaceOnUse"
       id="clipPath22"><path
         d="M 0.03,799.37 H 595.276 V 0 H 0.03 Z"
         id="path20"
         inkscape:connector-curvature="0" /></clipPath></defs><sodipodi:namedview
     pagecolor="#ffffff"
     bordercolor="#666666"
     borderopacity="1"
     objecttolerance="10"
     gridtolerance="10"
     guidetolerance="10"
     inkscape:pageopacity="0"
     inkscape:pageshadow="2"
     inkscape:window-width="1920"
     inkscape:window-height="988"
     id="namedview4"
     showgrid="false"
     inkscape:zoom="1.771395"
     inkscape:cx="401.76135"
     inkscape:cy="719.57673"
     inkscape:window-x="0"
     inkscape:window-y="27"
     inkscape:window-maximized="1"
     inkscape:current-layer="g10" /><g
     id="g10"
     inkscape:groupmode="layer"
     inkscape:label="fulltext"
     transform="matrix(1.3333333,0,0,-1.3333333,0,1065.8267)"><path
       d="M 119.18,553.623 H 558.299 V 670.552 H 119.18 Z"
       style="fill:#f5e0dc;fill-opacity:1;fill-rule:nonzero;stroke:none"
       id="path210"
       inkscape:connector-curvature="0" /><g
       id="g212"
       transform="translate(124.974,568.04601)"><path
         d="M 0,0 H 427.531"
         style="fill:none;stroke:#000000;stroke-width:0.25;stroke-linecap:butt;stroke-linejoin:miter;stroke-miterlimit:10;stroke-dasharray:none;stroke-opacity:1"
         id="path214"
         inkscape:connector-curvature="0" /></g><g
       id="g216"
       transform="translate(124.974,623.491)"><path
         d="m 0,0 h 82.309 43.583 77.953 3 46.252 77.74 64.134 33.462"
         style="fill:none;stroke:#000000;stroke-width:0.25;stroke-linecap:butt;stroke-linejoin:miter;stroke-miterlimit:10;stroke-dasharray:none;stroke-opacity:1"
         id="path218"
         inkscape:connector-curvature="0" /></g><g
       id="g220"
       transform="translate(207.283,645.54201)"><path
         d="m 0,0 h 43.583 77.953"
         style="fill:none;stroke:#000000;stroke-width:0.25;stroke-linecap:butt;stroke-linejoin:miter;stroke-miterlimit:10;stroke-dasharray:none;stroke-opacity:1"
         id="path222"
         inkscape:connector-curvature="0" /></g><g
       id="g224"
       transform="translate(331.819,645.54201)"><path
         d="m 0,0 h 46.252 77.74"
         style="fill:none;stroke:#000000;stroke-width:0.25;stroke-linecap:butt;stroke-linejoin:miter;stroke-miterlimit:10;stroke-dasharray:none;stroke-opacity:1"
         id="path226"
         inkscape:connector-curvature="0" /></g><text
       transform="matrix(1,0,0,-1,210.118,658.577)"
       style="font-variant:normal;font-weight:bold;font-size:7px;font-family:Shaker2Lancet;-inkscape-font-specification:Shaker2Lancet-Bold;writing-mode:lr-tb;fill:#000000;fill-opacity:1;fill-rule:nonzero;stroke:none"
       id="text234"><tspan
         x="0 1.7773 5.5566001 8.1948996 11.3652 13.6745 17.0968 20.267099 24.0464 26.6847 28.441 32.094299 35.8736 37.161598 39.428902 43.208199 46.693501 50.192799 53.6991 57.604401 61.047699 124.544 128.1273 131.78059 135.55991 138.1982 140.50751 144.1608 145.8051 147.09309 149.3604 153.13969 156.625 160.1243 163.6306 167.5079 171.4272 248.528 250.3053 254.08459 256.8699 258.62619 262.34949 265.51981 269.2991 272.08441 275.2547 276.54269 278.85199 282.0853 284.7236 287.89389 289.18188 291.49121 294.72449 297.36279 299.11911 302.7724"
         y="0"
         sodipodi:role="line"
         id="tspan228">Intervention (n=5297)Control (n=5246)Incidence rate ratio </tspan><tspan
         x="248.535 250.80299 254.709 258.20901 263.23499 264.341 267.92499 269.703"
         y="8.4980001"
         sodipodi:role="line"
         id="tspan230">(95% CI)</tspan><tspan
         x="312.66901 316.38599 317.67401 321.09698 324.33099 325.97601 329.64401"
         y="0"
         sodipodi:role="line"
         id="tspan232">p value</tspan></text>
<text
       transform="matrix(1,0,0,-1,210.125,636.527)"
       style="font-variant:normal;font-weight:normal;font-size:7px;font-family:Shaker2Lancet;-inkscape-font-specification:Shaker2Lancet-Regular;writing-mode:lr-tb;fill:#000000;fill-opacity:1;fill-rule:nonzero;stroke:none"
       id="text258"><tspan
         x="0 4.5219998 8.0080004 13.545 16.996 20.055 22.183001 23.386299 26.928301 29.021299"
         y="0"
         sodipodi:role="line"
         id="tspan236">Number of </tspan><tspan
         x="0 2.6600001 5.7119999 8.2320004 11.291"
         y="8.4980001"
         sodipodi:role="line"
         id="tspan238">cases</tspan><tspan
         x="43.582001 45.199001 48.790001 51.450001 53.039001 56.518002 59.577 63.167999 65.828003 68.887001 70.209999 72.337997 75.389999 77.735001 80.793999 82.116997 84.287003 86.946999 89.999001 92.518997 95.578003 98.098 99.420998 102.893 105.952 108.08"
         y="0"
         sodipodi:role="line"
         id="tspan240">Incidence rate (cases per </tspan><tspan
         x="43.582001 46.7523 50.370602 53.988899 55.311901 57.971199 61.519501 63.1078 64.605103 68.083397 70.287697 73.282997 76.341301 79.392601 81.519897 84.0392 85.571503 86.894501 90.680801 94.075104 98.890404 100.0314 103.5937 105.21"
         y="8.4980001"
         sodipodi:role="line"
         id="tspan242">100 child-years, 95% CI)</tspan><tspan
         x="124.537 129.05901 132.545 138.082 141.533 144.592 146.72 147.92261 151.4646 153.5576"
         y="0"
         sodipodi:role="line"
         id="tspan244">Number of </tspan><tspan
         x="124.537 127.197 130.24899 132.769 135.828"
         y="8.4980001"
         sodipodi:role="line"
         id="tspan246">cases</tspan><tspan
         x="170.786 172.403 175.994 178.65401 180.243 183.722 186.78101 190.37199 193.032 196.091 197.414 199.54201 202.59399 204.939 207.998 209.321 211.491 214.151 217.203 219.72301 222.782 225.302 226.625 230.097 233.15601 235.284"
         y="0"
         sodipodi:role="line"
         id="tspan248">Incidence rate (cases per </tspan><tspan
         x="170.786 173.9563 177.5746 181.1929 182.5159 185.1752 188.7235 190.3118 191.8091 195.2874 197.4917 200.487 203.5453 206.5966 208.72391 211.24319 212.7755 214.0985 217.8848 221.2791 226.09441 227.2354 230.7977 232.414"
         y="8.4980001"
         sodipodi:role="line"
         id="tspan250">100 child-years, 95% CI)</tspan><tspan
         x="-82.313004 -80.695999 -75.264 -71.700996 -70.084 -68.761002 -66.100998 -63.973 -62.383999 -60.039001 -56.98 -54.852001 -53.263 2.3870001 5.5580001 9.3520002 46.354 49.742001 51.275002 54.648998 58.022999 59.346001 61.515999 64.903999 66.436996 70.056 73.675003 76.320999 79.709 81.241997 85.050003 88.277 126.413 129.584 133.30099 172.774 175.94501 177.478 181.272 184.89101 186.214 188.384 191.55499 193.088 196.483 199.65401 202.3 205.688 207.22099 210.84 214.627 250.51601 253.687 255.22 258.59399 262.21301 263.53601 265.70599 269.32501 270.858 274.64499 278.43201 281.078 284.24899 285.78201 289.009 292.17999 314.202 317.82101 319.354 322.97299"
         y="22.049999"
         sodipodi:role="line"
         id="tspan252">IMCI criteria1862·33 (2·00–2·67)1451·80 (1·51–2·09)1·30 (0·99–1·71)0·06</tspan><tspan
         x="-82.313004 -77.952003 -74.886002 -71.889999 -68.439003 -65.379997 -61.789001 -60.466 -57.945999 -54.894001 -52.549 -49.063 -46.935001 -43.882999 -41.537998 -39.949001 -36.407001 -32.816002 -31.493 -28.007 -24.219999 -20.601 6.7620001 9.9329996 46.123001 49.742001 51.275002 54.662998 57.834 59.157001 61.327 64.945999 66.478996 69.650002 72.820999 75.467003 79.085999 80.619003 83.992996 87.164001 130.354 133.52499 172.326 175.94501 177.478 180.649 184.366 185.689 187.85899 191.478 193.011 196.63 200.438 203.084 206.703 208.23599 211.62399 215.01199 250.51601 253.687 255.22 258.61499 262.423 263.746 265.91599 269.535 271.06799 274.29501 277.914 280.56 283.93399 285.46701 289.18399 292.992 314.202 317.82101 319.354 322.742"
         y="33.334"
         sodipodi:role="line"
         id="tspan254">Oxygen saturation &lt;90%170·21 (0·11–0·31)110·14 (0·06–0·22)1·56 (0·70–3·46)0·28</tspan><tspan
         x="-82.313004 -78.168999 -75.110001 -72.057999 -69.712997 9.7860003 46.123001 49.742001 51.275002 54.894001 58.611 59.933998 62.104 65.723 67.255997 70.875 74.494003 77.139999 80.759003 82.292 85.911003 89.705002 132.979 172.326 175.94501 177.478 181.097 184.492 185.815 187.985 191.604 193.13699 196.756 200.375 203.021 206.64 208.173 211.34399 214.963 250.06799 253.687 255.22 258.44699 262.255 263.578 265.74799 269.367 270.89999 274.07101 277.298 279.944 283.31799 284.85101 288.22501 291.452 314.202 317.82101 319.354 322.58099"
         y="44.618"
         sodipodi:role="line"
         id="tspan256">Death30·04 (0·00–0·08)40·05 (0·00–0·10)0·76 (0·17–3·37)0·71</tspan></text>
<text
       transform="matrix(1,0,0,-1,124.974,575.503)"
       style="font-variant:normal;font-weight:normal;font-size:6.5px;font-family:Shaker2Lancet;-inkscape-font-specification:Shaker2Lancet-Regular;writing-mode:lr-tb;fill:#000000;fill-opacity:1;fill-rule:nonzero;stroke:none"
       id="text262"><tspan
         x="0 1.5015 6.5454998 9.8540001 11.3555 14.5925 19.831499 23.8095 27.858999 29.0875 30.589001 33.9235 36.101002 38.941502 42.146 44.122002 46.956001 49.133499 51.973999 55.204498 56.432999 61.477001 64.310997 67.6455 70.4795 73.683998 76.524498 81.666 84.5065 87.841003 90.018501 91.129997 94.418999 96.362503 97.421997 100.7305 104.026 105.5015 106.8925 110.123 113.4185 116.7075 119.9965 123.227 124.4555 125.957 127.348 128.739 132.0735 134.914 137.254 139.59399"
         y="0"
         sodipodi:role="line"
         id="tspan260">IMCI=WHO Integrated Management of Childhood Illness.</tspan></text>
<text
       transform="matrix(1,0,0,-1,124.974,559.417)"
       style="font-style:italic;font-variant:normal;font-weight:bold;font-size:7px;font-family:Shaker2Lancet;-inkscape-font-specification:Shaker2Lancet-BoldItalic;writing-mode:lr-tb;fill:#000000;fill-opacity:1;fill-rule:nonzero;stroke:none"
       id="text266"><tspan
         x="0 3.171 6.5310001 9.8769999 11.487 14.385 15.547 19.201"
         y="0"
         sodipodi:role="line"
         id="tspan264">Table 2:</tspan></text>
<text
       transform="matrix(1,0,0,-1,147.178,559.417)"
       style="font-variant:normal;font-weight:bold;font-size:7px;font-family:Shaker2Lancet;-inkscape-font-specification:Shaker2Lancet-Bold;writing-mode:lr-tb;fill:#000000;fill-opacity:1;fill-rule:nonzero;stroke:none"
       id="text270"><tspan
         x="0 1.806 5.6139998 8.4280005 10.213 13.965 17.164 20.972 23.785999 26.985001 28.301001 30.639 33.901001 36.568001 39.766998 41.083 44.345001 48.153 51.904999 53.221001 55.006001 58.813999 61.627998 63.412998 67.165001 70.363998 74.171997 76.986 80.184998 81.500999 83.838997 87.100998 89.767998 92.967003 94.282997 96.621002 99.883003 102.55 104.335 108.017 109.27 112.952 115.304 116.62 119.329 122.528 125.979 129.17799 131.51601 134.715 136.03101 139.776 143.584 146.783 150.479 156.26801 159.95 163.758 165.543 168.80499 170.058 173.81 177.009 178.96899 180.95 184.758 187.957 191.709 193.02499 196.287 199.101 201.91499 205.597 207.935 211.687 213.472 217.28 220.983 222.103 224.77 228.452 229.76801 231.57401 237.286 240.89799 242.70399 244.02 246.834 249.172 250.957 253.62399 256.823 259.16101 260.94601 264.20801 265.965 267.21799 270.84399 274.26001 277.634 281.33701 284.53601 288.34399 289.66 292.36899 295.63101 298.298 301.99399 304.332 307.59399 310.26099 312.04599 315.728 319.53601 320.85199 322.52499 325.724 328.43301 331.142 332.26199 334.92899 338.681 341.94299 345.75101 347.06699 351.00101 354.858 359.91199 361.66901 362.922 366.604 368.94199 370.19501 373.94699 377.146 380.40799 383.07501"
         y="0"
         sodipodi:role="line"
         id="tspan268">Incidence rate and incidence rate ratio of severe pneumonia deﬁ ned according to IMCI criteria, oxygen saturation less than 90%, or death</tspan></text>
<g
       id="g272"
       transform="translate(119.17999,670.552)"><path
         d="M 439.119,0 H 0 v -116.929 h 439.119 z"
         style="fill:none;stroke:#b30838;stroke-width:0.25;stroke-linecap:butt;stroke-linejoin:miter;stroke-miterlimit:4;stroke-dasharray:none;stroke-opacity:1"
         id="path274"
         inkscape:connector-curvature="0" /></g><g
       id="g276"
       transform="translate(119.17999,670.552)"><path
         d="M 0,0 Z"
         style="fill:none;stroke:#b30838;stroke-width:0.25;stroke-linecap:butt;stroke-linejoin:miter;stroke-miterlimit:4;stroke-dasharray:none;stroke-opacity:1"
         id="path278"
         inkscape:connector-curvature="0" /></g></g></svg>