<?xml version="1.0" encoding="UTF-8" standalone="no"?>
<!-- Created with Inkscape (http://www.inkscape.org/) -->

<svg
   xmlns:dc="http://purl.org/dc/elements/1.1/"
   xmlns:cc="http://creativecommons.org/ns#"
   xmlns:rdf="http://www.w3.org/1999/02/22-rdf-syntax-ns#"
   xmlns:svg="http://www.w3.org/2000/svg"
   xmlns="http://www.w3.org/2000/svg"
   xmlns:sodipodi="http://sodipodi.sourceforge.net/DTD/sodipodi-0.dtd"
   xmlns:inkscape="http://www.inkscape.org/namespaces/inkscape"
   version="1.1"
   id="svg2"
   xml:space="preserve"
   width="793.70135"
   height="1065.8267"
   viewBox="0 0 793.70135 1065.8267"
   sodipodi:docname="table3.svg"
   inkscape:version="0.92.0 r15299"><metadata
     id="metadata8"><rdf:RDF><cc:Work
         rdf:about=""><dc:format>image/svg+xml</dc:format><dc:type
           rdf:resource="http://purl.org/dc/dcmitype/StillImage" /><dc:title></dc:title></cc:Work></rdf:RDF></metadata><defs
     id="defs6"><clipPath
       clipPathUnits="userSpaceOnUse"
       id="clipPath22"><path
         d="M 0.03,799.37 H 595.276 V 0 H 0.03 Z"
         id="path20"
         inkscape:connector-curvature="0" /></clipPath></defs><sodipodi:namedview
     pagecolor="#ffffff"
     bordercolor="#666666"
     borderopacity="1"
     objecttolerance="10"
     gridtolerance="10"
     guidetolerance="10"
     inkscape:pageopacity="0"
     inkscape:pageshadow="2"
     inkscape:window-width="1920"
     inkscape:window-height="988"
     id="namedview4"
     showgrid="false"
     inkscape:zoom="1.2525654"
     inkscape:cx="508.87448"
     inkscape:cy="726.09022"
     inkscape:window-x="0"
     inkscape:window-y="27"
     inkscape:window-maximized="1"
     inkscape:current-layer="g10" /><g
     id="g10"
     inkscape:groupmode="layer"
     inkscape:label="fulltext"
     transform="matrix(1.3333333,0,0,-1.3333333,0,1065.8267)"><path
       d="M 119.179,431.726 H 332.945 V 538.384 H 119.179 Z"
       style="fill:#f5e0dc;fill-opacity:1;fill-rule:nonzero;stroke:none"
       id="path280"
       inkscape:connector-curvature="0" /><g
       id="g282"
       transform="translate(124.97301,455.149)"><path
         d="M 0,0 H 202.177"
         style="fill:none;stroke:#000000;stroke-width:0.25;stroke-linecap:butt;stroke-linejoin:miter;stroke-miterlimit:10;stroke-dasharray:none;stroke-opacity:1"
         id="path284"
         inkscape:connector-curvature="0" /></g><path
       d="m 124.973,500.956 h 58.215 v -11.283 h -58.215 z m 58.215,0 h 47.126 v -11.283 h -47.126 z m 47.126,0 h 49.251 v -11.283 h -49.251 z m 49.251,0 h 46.418 V 489.673 H 279.565 Z M 124.973,478.39 h 58.215 v -19.783 h -58.215 z m 58.215,0 h 47.126 v -19.783 h -47.126 z m 47.126,0 h 49.251 v -19.783 h -49.251 z m 49.251,0 h 46.418 v -19.783 h -46.418 z"
       style="fill:#ffffff;fill-opacity:1;fill-rule:nonzero;stroke:none"
       id="path286"
       inkscape:connector-curvature="0" /><g
       id="g288"
       transform="translate(124.97301,513.373)"><path
         d="m 0,0 h 58.215 47.126 49.251 46.418"
         style="fill:none;stroke:#000000;stroke-width:0.25;stroke-linecap:butt;stroke-linejoin:miter;stroke-miterlimit:10;stroke-dasharray:none;stroke-opacity:1"
         id="path290"
         inkscape:connector-curvature="0" /></g><text
       transform="matrix(1,0,0,-1,186.022,526.409)"
       style="font-variant:normal;font-weight:bold;font-size:7px;font-family:Shaker2Lancet;-inkscape-font-specification:Shaker2Lancet-Bold;writing-mode:lr-tb;fill:#000000;fill-opacity:1;fill-rule:nonzero;stroke:none"
       id="text304"><tspan
         x="0 3.4790001 4.7670002 10.528 14.182 17.962 20.601 24.325001 27.006001"
         y="0"
         sodipodi:role="line"
         id="tspan292">3 months </tspan><tspan
         x="0 2.2679999 6.0479999 9.5340004 13.44 16.947001 20.454"
         y="8.4980001"
         sodipodi:role="line"
         id="tspan294">(n=922)</tspan><tspan
         x="47.124001 50.498001 54.005001 55.292999 61.054001 64.708 68.487999 71.126999 74.850998 77.531998"
         y="0"
         sodipodi:role="line"
         id="tspan296">12 months </tspan><tspan
         x="47.124001 49.391998 53.172001 56.658001 60.032001 63.511002 66.885002 70.385002"
         y="8.4980001"
         sodipodi:role="line"
         id="tspan298">(n=1315)</tspan><tspan
         x="96.375999 99.883003 103.761 105.049 110.81 114.464 118.244 120.883 124.607 127.288"
         y="0"
         sodipodi:role="line"
         id="tspan300">24 months </tspan><tspan
         x="96.375999 98.643997 102.424 105.91 109.284 113.162 116.669 120.113"
         y="8.4980001"
         sodipodi:role="line"
         id="tspan302">(n=1427)</tspan></text>
<text
       transform="matrix(1,0,0,-1,127.803,504.359)"
       style="font-variant:normal;font-weight:normal;font-size:7px;font-family:Shaker2Lancet;-inkscape-font-specification:Shaker2Lancet-Regular;writing-mode:lr-tb;fill:#000000;fill-opacity:1;fill-rule:nonzero;stroke:none"
       id="text318"><tspan
         x="0 4.5219998 8.0640001 11.655 63.777 67.003998 70.377998 71.700996 73.871002 77.098 78.630997 82.417999 87.234001 107.38 110.754 114.128 117.502 118.825 120.995 124.383 127.778 129.311 132.685 137.50101 156.821 160.19501 163.366 166.754 168.077 170.24699 173.63499 176.806 178.339 182.12601 186.942"
         y="0"
         sodipodi:role="line"
         id="tspan306">None73 (7·9%)333 (25·3%)312 (21·9%)</tspan><tspan
         x="0 3.171 4.494 10.031 13.09 16.142 17.639999 18.962999 22.434999 25.493999 27.622 28.826 32.305 35.356998 59.486 62.874001 66.591003 70.385002 71.708 73.877998 77.265999 81.073997 82.607002 86.393997 91.209999 106.974 110.348 113.722 117.509 118.832 121.002 124.39 127.785 129.31799 133.112 137.92799 156.261 159.65601 163.04401 166.761 168.084 170.254 173.62801 177.436 178.96899 182.196 187.01199"
         y="11.284"
         sodipodi:role="line"
         id="tspan308">1 meal per day248 (26·9%)339 (25·8%)524 (36·7%)</tspan><tspan
         x="0 3.171 5.8169999 9.2049999 10.528 16.065001 19.124001 22.176001 23.674 26.194 27.517 30.989 34.048 36.175999 37.380001 40.859001 43.910999 60.452 63.84 67.011002 70.385002 71.708 73.877998 77.265999 80.639999 82.172997 85.344002 90.160004 107.345 110.719 114.338 117.509 118.832 121.002 124.39 127.778 129.311 133.09801 137.914 156.80701 160.19501 163.366 166.761 168.084 170.254 173.425 176.82001 178.353 181.524 186.34"
         y="22.568001"
         sodipodi:role="line"
         id="tspan310">1–2 meals per day213 (23·1%)301 (22·9%)215 (15·1%)</tspan><tspan
         x="0 3.388 4.592 8.1339998 10.262 11.585 17.122 20.664 22.792 25.851 27.174 32.710999 35.77 38.821999 40.32 42.84"
         y="33.852001"
         sodipodi:role="line"
         id="tspan312">2 or more meals </tspan><tspan
         x="0 3.4705999 6.5282001 8.6548004 9.8587999 13.3364 16.386999"
         y="42.349998"
         sodipodi:role="line"
         id="tspan314">per day</tspan><tspan
         x="59.416 62.790001 66.584 70.377998 71.700996 73.871002 77.587997 80.975998 82.509003 85.68 90.496002 107.023 110.397 114.114 117.502 118.825 120.995 124.383 128.19099 129.724 133.343 138.159 156.345 159.71899 162.946 166.754 168.077 170.24699 173.63499 177.44299 178.976 182.35001 187.166"
         y="33.852001"
         sodipodi:role="line"
         id="tspan316">388 (42·1%)342 (26·0%)376 (26·3%)</tspan></text>
<text
       transform="matrix(1,0,0,-1,124.968,446.518)"
       style="font-style:italic;font-variant:normal;font-weight:bold;font-size:7px;font-family:Shaker2Lancet;-inkscape-font-specification:Shaker2Lancet-BoldItalic;writing-mode:lr-tb;fill:#000000;fill-opacity:1;fill-rule:nonzero;stroke:none"
       id="text322"><tspan
         x="0 3.115 6.4190001 9.7089996 11.263 14.105 15.211 18.809"
         y="0"
         sodipodi:role="line"
         id="tspan320">Table 3:</tspan></text>
<text
       transform="matrix(1,0,0,-1,146.6687,446.518)"
       style="font-variant:normal;font-weight:bold;font-size:7px;font-family:Shaker2Lancet;-inkscape-font-specification:Shaker2Lancet-Bold;writing-mode:lr-tb;fill:#000000;fill-opacity:1;fill-rule:nonzero;stroke:none"
       id="text328"><tspan
         x="0 5.6560001 8.7989998 12.005 13.622 16.275 17.5357 20.293699 23.919701 27.5457 30.912701 34.055698 37.751701 38.893398 42.533401 45.186401 46.915401 50.6674 54.3144 55.5751 57.3041 61.056099 63.667099 66.810097 69.092102 72.487099 75.630096 79.382103 81.993103 83.722099 87.348099 91.100098 92.360802 95.118797 98.744797 102.3708 105.7378 108.3908 111.0018 114.6278 118.0228 121.1658 123.8188 125.0795 128.28551 130.8965 132.1572 135.6082 137.3092 138.5699 141.91589 145.3949 147.0959 148.3566 151.56261 155.31461 159.0106"
         y="0"
         sodipodi:role="line"
         id="tspan324">Meals cooked using intervention cookstoves at 3, 12, and </tspan><tspan
         x="-21.700701 -18.221701 -14.3717 -13.1117 -7.3786998 -3.7527001 -0.00069999998 2.6103001 6.3063002 7.5662999 9.8622999 13.4883 15.1053 16.7223 20.348301 25.514299 27.810301 31.4503 35.139301 36.3993 39.7943 41.5233 44.1763 45.9053 48.5163"
         y="9.0019999"
         sodipodi:role="line"
         id="tspan326">24 month follow-up visits</tspan></text>
<g
       id="g330"
       transform="translate(119.179,538.384)"><path
         d="M 213.766,0 H 0 v -106.658 h 213.766 z"
         style="fill:none;stroke:#b30838;stroke-width:0.25;stroke-linecap:butt;stroke-linejoin:miter;stroke-miterlimit:4;stroke-dasharray:none;stroke-opacity:1"
         id="path332"
         inkscape:connector-curvature="0" /></g><g
       id="g334"
       transform="translate(119.179,538.384)"><path
         d="M 0,0 Z"
         style="fill:none;stroke:#b30838;stroke-width:0.25;stroke-linecap:butt;stroke-linejoin:miter;stroke-miterlimit:4;stroke-dasharray:none;stroke-opacity:1"
         id="path336"
         inkscape:connector-curvature="0" /></g></g></svg>