<?xml version="1.0" encoding="UTF-8" standalone="no"?>
<!-- Created with Inkscape (http://www.inkscape.org/) -->

<svg
   xmlns:dc="http://purl.org/dc/elements/1.1/"
   xmlns:cc="http://creativecommons.org/ns#"
   xmlns:rdf="http://www.w3.org/1999/02/22-rdf-syntax-ns#"
   xmlns:svg="http://www.w3.org/2000/svg"
   xmlns="http://www.w3.org/2000/svg"
   xmlns:sodipodi="http://sodipodi.sourceforge.net/DTD/sodipodi-0.dtd"
   xmlns:inkscape="http://www.inkscape.org/namespaces/inkscape"
   version="1.1"
   id="svg2"
   xml:space="preserve"
   width="793.70135"
   height="1054.488"
   viewBox="0 0 793.70135 1054.488"
   sodipodi:docname="table2.svg"
   inkscape:version="0.92.0 r15299"><metadata
     id="metadata8"><rdf:RDF><cc:Work
         rdf:about=""><dc:format>image/svg+xml</dc:format><dc:type
           rdf:resource="http://purl.org/dc/dcmitype/StillImage" /><dc:title></dc:title></cc:Work></rdf:RDF></metadata><defs
     id="defs6" /><sodipodi:namedview
     pagecolor="#ffffff"
     bordercolor="#666666"
     borderopacity="1"
     objecttolerance="10"
     gridtolerance="10"
     guidetolerance="10"
     inkscape:pageopacity="0"
     inkscape:pageshadow="2"
     inkscape:window-width="1920"
     inkscape:window-height="988"
     id="namedview4"
     showgrid="false"
     inkscape:zoom="1.2660339"
     inkscape:cx="220.65406"
     inkscape:cy="711.23642"
     inkscape:window-x="0"
     inkscape:window-y="27"
     inkscape:window-maximized="1"
     inkscape:current-layer="g10" /><g
     id="g10"
     inkscape:groupmode="layer"
     inkscape:label="fulltext"
     transform="matrix(1.3333333,0,0,-1.3333333,0,1054.488)"><g
       id="g206"
       transform="translate(43.1574,671.1959)"><path
         d="M 0,0 H 101.583"
         style="fill:none;stroke:#918f90;stroke-width:0.5;stroke-linecap:butt;stroke-linejoin:miter;stroke-miterlimit:10;stroke-dasharray:none;stroke-opacity:1"
         id="path208"
         inkscape:connector-curvature="0" /></g><g
       id="g210"
       transform="translate(466.5522,671.1959)"><path
         d="M 0,0 H 53.396"
         style="fill:none;stroke:#918f90;stroke-width:0.5;stroke-linecap:butt;stroke-linejoin:miter;stroke-miterlimit:10;stroke-dasharray:none;stroke-opacity:1"
         id="path212"
         inkscape:connector-curvature="0" /></g><g
       id="g214"
       transform="translate(519.9485,671.1959)"><path
         d="M 0,0 H 32.17"
         style="fill:none;stroke:#918f90;stroke-width:0.5;stroke-linecap:butt;stroke-linejoin:miter;stroke-miterlimit:10;stroke-dasharray:none;stroke-opacity:1"
         id="path216"
         inkscape:connector-curvature="0" /></g><g
       id="g218"
       transform="translate(43.1574,699.1959)"><path
         d="M 0,0 H 101.583"
         style="fill:none;stroke:#918f90;stroke-width:0.5;stroke-linecap:butt;stroke-linejoin:miter;stroke-miterlimit:10;stroke-dasharray:none;stroke-opacity:1"
         id="path220"
         inkscape:connector-curvature="0" /></g><g
       id="g222"
       transform="translate(144.7408,699.1959)"><path
         d="M 0,0 H 92.191"
         style="fill:none;stroke:#918f90;stroke-width:0.5;stroke-linecap:butt;stroke-linejoin:miter;stroke-miterlimit:10;stroke-dasharray:none;stroke-opacity:1"
         id="path224"
         inkscape:connector-curvature="0" /></g><g
       id="g226"
       transform="translate(236.9315,699.1959)"><path
         d="M 0,0 H 70.551"
         style="fill:none;stroke:#918f90;stroke-width:0.5;stroke-linecap:butt;stroke-linejoin:miter;stroke-miterlimit:10;stroke-dasharray:none;stroke-opacity:1"
         id="path228"
         inkscape:connector-curvature="0" /></g><g
       id="g230"
       transform="translate(307.4826,699.1959)"><path
         d="M 0,0 H 88.519"
         style="fill:none;stroke:#918f90;stroke-width:0.5;stroke-linecap:butt;stroke-linejoin:miter;stroke-miterlimit:10;stroke-dasharray:none;stroke-opacity:1"
         id="path232"
         inkscape:connector-curvature="0" /></g><g
       id="g234"
       transform="translate(396.0012,699.1959)"><path
         d="M 0,0 H 70.551"
         style="fill:none;stroke:#918f90;stroke-width:0.5;stroke-linecap:butt;stroke-linejoin:miter;stroke-miterlimit:10;stroke-dasharray:none;stroke-opacity:1"
         id="path236"
         inkscape:connector-curvature="0" /></g><g
       id="g238"
       transform="translate(466.5522,699.1959)"><path
         d="M 0,0 H 53.396"
         style="fill:none;stroke:#918f90;stroke-width:0.5;stroke-linecap:butt;stroke-linejoin:miter;stroke-miterlimit:10;stroke-dasharray:none;stroke-opacity:1"
         id="path240"
         inkscape:connector-curvature="0" /></g><g
       id="g242"
       transform="translate(519.9485,699.1959)"><path
         d="M 0,0 H 32.17"
         style="fill:none;stroke:#918f90;stroke-width:0.5;stroke-linecap:butt;stroke-linejoin:miter;stroke-miterlimit:10;stroke-dasharray:none;stroke-opacity:1"
         id="path244"
         inkscape:connector-curvature="0" /></g><g
       id="g246"
       transform="translate(144.7408,671.1959)"><path
         d="M 0,0 H 92.191"
         style="fill:none;stroke:#918f90;stroke-width:0.5;stroke-linecap:butt;stroke-linejoin:miter;stroke-miterlimit:10;stroke-dasharray:none;stroke-opacity:1"
         id="path248"
         inkscape:connector-curvature="0" /></g><g
       id="g250"
       transform="translate(236.9315,671.1959)"><path
         d="M 0,0 H 70.551"
         style="fill:none;stroke:#918f90;stroke-width:0.5;stroke-linecap:butt;stroke-linejoin:miter;stroke-miterlimit:10;stroke-dasharray:none;stroke-opacity:1"
         id="path252"
         inkscape:connector-curvature="0" /></g><g
       id="g254"
       transform="translate(307.4826,671.1959)"><path
         d="M 0,0 H 88.519"
         style="fill:none;stroke:#918f90;stroke-width:0.5;stroke-linecap:butt;stroke-linejoin:miter;stroke-miterlimit:10;stroke-dasharray:none;stroke-opacity:1"
         id="path256"
         inkscape:connector-curvature="0" /></g><g
       id="g258"
       transform="translate(396.0012,671.1959)"><path
         d="M 0,0 H 70.551"
         style="fill:none;stroke:#918f90;stroke-width:0.5;stroke-linecap:butt;stroke-linejoin:miter;stroke-miterlimit:10;stroke-dasharray:none;stroke-opacity:1"
         id="path260"
         inkscape:connector-curvature="0" /></g><g
       id="g262"
       transform="translate(43.1574,474.7938)"><path
         d="M 0,0 H 101.583"
         style="fill:none;stroke:#918f90;stroke-width:0.5;stroke-linecap:butt;stroke-linejoin:miter;stroke-miterlimit:10;stroke-dasharray:none;stroke-opacity:1"
         id="path264"
         inkscape:connector-curvature="0" /></g><g
       id="g266"
       transform="translate(144.7408,474.7938)"><path
         d="M 0,0 H 92.191"
         style="fill:none;stroke:#918f90;stroke-width:0.5;stroke-linecap:butt;stroke-linejoin:miter;stroke-miterlimit:10;stroke-dasharray:none;stroke-opacity:1"
         id="path268"
         inkscape:connector-curvature="0" /></g><g
       id="g270"
       transform="translate(236.9315,474.7938)"><path
         d="M 0,0 H 70.551"
         style="fill:none;stroke:#918f90;stroke-width:0.5;stroke-linecap:butt;stroke-linejoin:miter;stroke-miterlimit:10;stroke-dasharray:none;stroke-opacity:1"
         id="path272"
         inkscape:connector-curvature="0" /></g><g
       id="g274"
       transform="translate(307.4826,474.7938)"><path
         d="M 0,0 H 88.519"
         style="fill:none;stroke:#918f90;stroke-width:0.5;stroke-linecap:butt;stroke-linejoin:miter;stroke-miterlimit:10;stroke-dasharray:none;stroke-opacity:1"
         id="path276"
         inkscape:connector-curvature="0" /></g><g
       id="g278"
       transform="translate(396.0012,474.7938)"><path
         d="M 0,0 H 70.551"
         style="fill:none;stroke:#918f90;stroke-width:0.5;stroke-linecap:butt;stroke-linejoin:miter;stroke-miterlimit:10;stroke-dasharray:none;stroke-opacity:1"
         id="path280"
         inkscape:connector-curvature="0" /></g><g
       id="g282"
       transform="translate(466.5522,474.7938)"><path
         d="M 0,0 H 53.396"
         style="fill:none;stroke:#918f90;stroke-width:0.5;stroke-linecap:butt;stroke-linejoin:miter;stroke-miterlimit:10;stroke-dasharray:none;stroke-opacity:1"
         id="path284"
         inkscape:connector-curvature="0" /></g><g
       id="g286"
       transform="translate(519.9485,474.7938)"><path
         d="M 0,0 H 32.17"
         style="fill:none;stroke:#918f90;stroke-width:0.5;stroke-linecap:butt;stroke-linejoin:miter;stroke-miterlimit:10;stroke-dasharray:none;stroke-opacity:1"
         id="path288"
         inkscape:connector-curvature="0" /></g><text
       transform="matrix(1,0,0,-1,47.1574,714.1959)"
       style="font-variant:normal;font-weight:bold;font-stretch:normal;font-size:8.5px;font-family:'Myriad Pro';-inkscape-font-specification:MyriadPro-Bold;writing-mode:lr-tb;fill:#231f20;fill-opacity:1;fill-rule:nonzero;stroke:none"
       id="text292"><tspan
         x="0 4.0545001 8.5 13.5405 15.8355 20.281 21.615499 26.290501 28.458"
         y="0"
         sodipodi:role="line"
         id="tspan290">table 2. </tspan></text>
<text
       transform="matrix(1,0,0,-1,79.8229,714.1959)"
       style="font-variant:normal;font-weight:normal;font-stretch:normal;font-size:8.5px;font-family:'Myriad Pro';-inkscape-font-specification:MyriadPro-Regular;writing-mode:lr-tb;fill:#231f20;fill-opacity:1;fill-rule:nonzero;stroke:none"
       id="text298"><tspan
         x="0 6.868 11.084 13.8125 16.337 22.4655 26.681499 28.628 33.337002 37.978001 40.749001 42.151501 44.115002 48.331001 52.292 56.507999 58.4715 61.794998 63.197498 67.821503 70.261002 71.663498 76.142998 79.577003 84.736504 88.884499 92.114502 93.831497 95.234001 99.288498 103.9635 108.715 110.1175 116.246 120.462 123.1905 125.715 131.84351 136.05949 138.006 142.715 147.356 150.127 151.5295 155.584 160.259 165.0105 166.41299 168.3765 170.323 175.117 177.06351 181.815 184.382 188.43649 193.188 195.211 199.85201 203.17551 205.89549 210.1115 214.86301 216.2655 218.229 222.44501 226.40601 230.62199 232.58549 235.909 237.31149 241.9355 244.375 245.7775 251.59151 256.479 259.80249 261.20499 263.15149 267.82651 269.229 272.55249 276.76849 279.50549 284.14651 291.19299 292.59549 297.32999 301.29099 302.69351 306.40799 311.03201 315.673 320.314 323.08499 326.03448 329.99551 331.39801 333.83749 336.4895 341.11349 348.16 349.5625 352.3335 357.00851 361.22449 362.62701 365.9505 368.7215 373.36249 378.11401 382.07501 383.47751 388.27151 392.89551 397.68951 402.33051 404.29401 408.31451 411.08551 413.03201 417.65601 422.33099 423.73349 425.67999 430.35501 431.75751 434.5285 439.20349 443.46201"
         y="0"
         sodipodi:role="line"
         id="tspan294">Wet-weight levels of PFASs, and wet-weight and lipid-adjusted levels of OCs in serum by country from the study population in the </tspan><tspan
         x="-32.657001 -28.509001 -23.060499 -17.9265 -15.3595 -12.036 -9.2650003 -4.6240001 0.1275 3.757 5.474"
         y="10.999"
         sodipodi:role="line"
         id="tspan296">SGA-study, </tspan></text>
<text
       transform="matrix(1,0,0,-1,86.6994,703.1969)"
       style="font-style:italic;font-variant:normal;font-weight:normal;font-stretch:normal;font-size:8.5px;font-family:'Myriad Pro';-inkscape-font-specification:MyriadPro-It;writing-mode:lr-tb;fill:#231f20;fill-opacity:1;fill-rule:nonzero;stroke:none"
       id="text302"><tspan
         x="0"
         y="0"
         id="tspan300">N</tspan></text>
<text
       transform="matrix(1,0,0,-1,93.4314,703.1969)"
       style="font-variant:normal;font-weight:normal;font-stretch:normal;font-size:8.5px;font-family:'Myriad Pro';-inkscape-font-specification:MyriadPro-Regular;writing-mode:lr-tb;fill:#231f20;fill-opacity:1;fill-rule:nonzero;stroke:none"
       id="text306"><tspan
         x="0 5.0235 6.4260001 10.744 15.062"
         y="0"
         sodipodi:role="line"
         id="tspan304">= 424</tspan></text>
<g
       id="g308"
       transform="translate(146.7408,686.1112)"><path
         d="M 0,0 H 158.742"
         style="fill:none;stroke:#918f90;stroke-width:0.5;stroke-linecap:butt;stroke-linejoin:miter;stroke-miterlimit:10;stroke-dasharray:none;stroke-opacity:1"
         id="path310"
         inkscape:connector-curvature="0" /></g><text
       transform="matrix(1,0,0,-1,213.1678,689.1959)"
       style="font-variant:normal;font-weight:normal;font-stretch:normal;font-size:8px;font-family:'Myriad Pro';-inkscape-font-specification:MyriadPro-Regular;writing-mode:lr-tb;fill:#231f20;fill-opacity:1;fill-rule:nonzero;stroke:none"
       id="text314"><tspan
         x="0 5.2639999 9.6560001 12.472 18.327999 22.120001"
         y="0"
         sodipodi:role="line"
         id="tspan312">Norway</tspan></text>
<g
       id="g316"
       transform="translate(309.4826,686.1112)"><path
         d="M 0,0 H 155.07"
         style="fill:none;stroke:#918f90;stroke-width:0.5;stroke-linecap:butt;stroke-linejoin:miter;stroke-miterlimit:10;stroke-dasharray:none;stroke-opacity:1"
         id="path318"
         inkscape:connector-curvature="0" /></g><text
       transform="matrix(1,0,0,-1,373.6895,689.1959)"
       style="font-variant:normal;font-weight:normal;font-stretch:normal;font-size:8px;font-family:'Myriad Pro';-inkscape-font-specification:MyriadPro-Regular;writing-mode:lr-tb;fill:#231f20;fill-opacity:1;fill-rule:nonzero;stroke:none"
       id="text332"><tspan
         x="0 3.8800001 9.6879997 13.696 18.208 22.216"
         y="0"
         sodipodi:role="line"
         id="tspan320">Sweden</tspan><tspan
         x="112.408 115.872 121.384 148.64 154.976 159.744 163.20799 168.72 -224.064 -217.584 -213.576 -209.064 -207.192 -203.336 -198.896 -197.536 -195.26401 -192.688 -188.832 -184.392 -179.92 -175.912 -130.688 -125.824 -119.392 -118.032 -115.76 -111.816 -106.544 -61.655998 -55.175999 -51.167999 -46.655998 -44.784 -40.928001 -36.487999 -35.136002 -32.863998 -30.288 -26.431999 -21.992001 -17.52 -13.512 28.384001 33.248001 39.68 41.040001 43.312 47.256001 52.528"
         y="14"
         sodipodi:role="line"
         id="tspan322">LOD%&gt;LODMedian (range)AM (SD)Median (range)AM (SD)</tspan><tspan
         x="-326.52802 -320.02399 -316.01599 -313.40799 -310.992 -305.18399 -301.17599 -299.30399 -294.832 -290.42401 -287.776 -286.41599 -284.14401 -279.70401 -275.23199 -272.48801 -265.81601 -263.92801"
         y="28"
         sodipodi:role="line"
         id="tspan324">Wet-weight (ng/ml)</tspan><tspan
         x="-326.52802 -322.272 -318.37601 -312.97601 -226.584 -222.48 -220.82401 -216.72 -212.616 -211.26401 -208.992 -204.888 -203.23199 -199.12801 -195.024 -191.024 -186.92 -185.26401 -181.16 -177.056 -134.392 -130.28799 -128.632 -124.528 -120.424 -119.072 -116.8 -112.696 -111.04 -106.936 -102.832 -63.352001 -59.248001 -57.591999 -53.487999 -49.383999 -48.032001 -45.759998 -41.655998 -40 -35.896 -31.792 -27.792 -23.688 -22.032 -17.927999 -13.824 24.672001 28.775999 30.431999 34.535999 38.639999 39.992001 42.264 46.368 48.023998 52.127998 56.231998 112.576 116.68 118.336 122.44 155.18401 159.28799 163.392"
         y="42"
         sodipodi:role="line"
         id="tspan326">PFOA1.62 (0.31–7.97)1.83 (1.00)2.33 (0.60–6.70)2.42 (1.00)0.03100</tspan><tspan
         x="-326.53601 -322.28 -318.384 -312.87201 -226.592 -222.48801 -220.832 -216.728 -212.62399 -211.272 -209 -204.896 -203.24001 -199.136 -195.032 -191.032 -186.92799 -182.82401 -181.168 -177.064 -134.39999 -130.29601 -126.192 -124.536 -120.432 -119.08 -116.808 -112.704 -111.048 -106.944 -102.84 -63.360001 -59.256001 -55.152 -53.495998 -49.391998 -48.040001 -45.768002 -41.664001 -40.007999 -35.903999 -31.799999 -27.799999 -23.695999 -19.591999 -17.936001 -13.832 24.664 28.768 32.872002 34.528 38.632 39.984001 42.256001 46.360001 48.015999 52.119999 56.223999 112.568 116.672 118.328 122.432 155.17599 159.28 163.384"
         y="56"
         sodipodi:role="line"
         id="tspan328">PFOS9.74 (0.95–59.6)11.3 (7.02)16.4 (2.28–55.2)17.3 (7.45)0.03100</tspan><tspan
         x="-326.54401 -322.28799 -317.64801 -313.31201 -311.952 -307.84799 -303.74399 -226.60001 -222.496 -220.84 -216.73599 -212.632 -211.28 -209.008 -204.90401 -203.248 -199.144 -195.03999 -191.03999 -186.936 -185.28 -181.17599 -177.07201 -134.408 -130.304 -128.64799 -124.544 -120.44 -119.088 -116.816 -112.712 -111.056 -106.952 -102.848 -63.368 -59.264 -57.608002 -53.504002 -49.400002 -48.048 -45.776001 -41.672001 -40.015999 -35.911999 -31.808001 -27.808001 -23.704 -22.048 -17.944 -13.84 24.656 28.76 30.416 34.52 38.624001 39.976002 42.248001 46.352001 48.007999 52.112 56.216 112.56 116.664 118.32 122.424 155.168 159.272 163.37601"
         y="70"
         sodipodi:role="line"
         id="tspan330">PCB 1530.46 (0.17–1.30)0.49 (0.18)0.68 (0.25–1.40)0.69 (0.21)0.01100</tspan></text>
<text
       transform="matrix(1,0,0,-1,47.1375,605.1959)"
       style="font-style:italic;font-variant:normal;font-weight:normal;font-stretch:normal;font-size:8px;font-family:'Myriad Pro';-inkscape-font-specification:MyriadPro-It;writing-mode:lr-tb;fill:#231f20;fill-opacity:1;fill-rule:nonzero;stroke:none"
       id="text336"><tspan
         x="0 4.0560002 5.744 9.6079998"
         y="0"
         sodipodi:role="line"
         id="tspan334">p,p’</tspan></text>
<text
       transform="matrix(1,0,0,-1,58.2975,605.1959)"
       style="font-variant:normal;font-weight:normal;font-stretch:normal;font-size:8px;font-family:'Myriad Pro';-inkscape-font-specification:MyriadPro-Regular;writing-mode:lr-tb;fill:#231f20;fill-opacity:1;fill-rule:nonzero;stroke:none"
       id="text342"><tspan
         x="0 2.4560001 7.7839999 13.112 88.783997 92.888 94.543999 98.648003 102.752 104.104 106.376 110.48 112.136 116.24 120.344 124.344 128.448 132.552 134.20799 138.312 180.976 185.08 186.73599 190.84 194.944 196.29601 198.56799 202.672 204.328 208.43201 212.536 252.01601 256.12 257.776 261.88 265.98401 267.336 269.608 273.71201 275.36801 279.47198 283.57599 287.57599 291.67999 293.336 297.44 301.54401 340.04001 344.14401 345.79999 349.90399 354.008 355.35999 357.63199 361.73599 363.392 367.496 371.60001 427.944 432.048 433.70401 437.80801 470.552 474.65601 478.76001"
         y="0"
         sodipodi:role="line"
         id="tspan338">-DDE1.20 (0.10–11.0)1.65 (1.43)1.30 (0.39–9.20)1.62 (1.13)0.09100</tspan><tspan
         x="-11.168 -5.9520001 -1.312 88.776001 92.879997 94.536003 98.639999 102.744 104.096 106.368 110.472 112.128 116.232 120.336 124.336 128.44 130.09599 134.2 138.304 180.968 185.07201 186.728 190.832 194.936 196.28799 198.56 202.664 204.32001 208.424 212.528 252.008 256.112 257.76801 261.87201 265.97601 267.328 269.60001 273.70401 275.35999 279.46399 283.56799 287.56799 291.672 293.328 297.43201 301.53601 340.03201 344.13599 345.79199 349.896 354 355.35199 357.62399 361.728 363.384 367.48801 371.59201 427.936 432.04001 433.69601 437.79999 470.54401 474.64801 478.75201"
         y="14"
         sodipodi:role="line"
         id="tspan340">HCB0.10 (0.04–0.33)0.11 (0.04)0.10 (0.04–0.38)0.11 (0.04)0.04100</tspan></text>
<text
       transform="matrix(1,0,0,-1,47.1215,577.1959)"
       style="font-style:italic;font-variant:normal;font-weight:normal;font-stretch:normal;font-size:8px;font-family:'Myriad Pro';-inkscape-font-specification:MyriadPro-It;writing-mode:lr-tb;fill:#231f20;fill-opacity:1;fill-rule:nonzero;stroke:none"
       id="text346"><tspan
         x="0"
         y="0"
         id="tspan344">t</tspan></text>
<text
       transform="matrix(1,0,0,-1,49.6255,577.1959)"
       style="font-variant:normal;font-weight:normal;font-stretch:normal;font-size:8px;font-family:'Myriad Pro';-inkscape-font-specification:MyriadPro-Regular;writing-mode:lr-tb;fill:#231f20;fill-opacity:1;fill-rule:nonzero;stroke:none"
       id="text350"><tspan
         x="0 2.4560001 7.7199998 97.440002 101.544 103.2 107.304 111.408 112.76 115.032 119.136 120.792 124.896 129 133 137.104 138.75999 142.864 146.968 189.632 193.73599 195.392 199.496 203.60001 204.952 207.224 211.328 212.98399 217.088 221.192 260.672 264.776 266.43201 270.53601 274.64001 275.992 278.26401 282.36801 284.02399 288.12799 292.23199 296.23199 300.336 301.992 306.09601 310.20001 348.69601 352.79999 354.45599 358.56 362.664 364.01599 366.28799 370.392 372.048 376.15201 380.25601 436.60001 440.70401 442.35999 446.46399 479.20801 483.31201 487.41599"
         y="0"
         sodipodi:role="line"
         id="tspan348">-NC0.04 (0.01–0.14)0.04 (0.02)0.04 (0.01–0.10)0.04 (0.02)0.01100</tspan></text>
<text
       transform="matrix(1,0,0,-1,47.1135,562.9959)"
       style="font-style:italic;font-variant:normal;font-weight:normal;font-stretch:normal;font-size:8px;font-family:Symbol;-inkscape-font-specification:Symbol-Italic;writing-mode:lr-tb;fill:#231f20;fill-opacity:1;fill-rule:nonzero;stroke:none"
       id="text354"><tspan
         x="0"
         y="0"
         id="tspan352">β</tspan></text>
<text
       transform="matrix(1,0,0,-1,51.5055,562.9959)"
       style="font-variant:normal;font-weight:normal;font-stretch:normal;font-size:8px;font-family:'Myriad Pro';-inkscape-font-specification:MyriadPro-Regular;writing-mode:lr-tb;fill:#231f20;fill-opacity:1;fill-rule:nonzero;stroke:none"
       id="text364"><tspan
         x="0 2.4560001 7.6719999 12.312"
         y="0"
         sodipodi:role="line"
         id="tspan356">-HCH</tspan><tspan
         x="95.552002 99.655998 101.312 105.416 109.52 110.872 113.144 117.912 121.376 126.888 132.328 134.784 138.888 140.54401 144.64799 148.752 187.744 191.84801 193.504 197.608 201.71201 203.064 205.336 209.44 211.09599 215.2 219.304 257.98401 262.08801 263.74399 267.84799 271.952 273.30399 275.57599 280.34399 283.80801 289.32001 294.76001 297.216 301.32001 302.97601 307.07999 311.18399 346.81601 350.92001 352.57599 356.67999 360.784 362.13599 364.40799 368.51199 370.168 374.272 378.37601 434.72 438.82401 440.48001 444.58401 481.43201 485.53601"
         y="-0.2"
         sodipodi:role="line"
         id="tspan358">0.12 (&lt;LOD-0.39)0.13 (0.06)0.13 (&lt;LOD-0.76)0.15 (0.08)0.0199</tspan><tspan
         x="-4.3920002 -0.616 1.256 5.8080001 7.6799998 12.192 14.648 18.504 23.016001 24.959999 29.368 32.535999 35.136002 39.144001 43.655998 45.015999 47.287998 51.728001 56.200001 58.944 63.416 64.776001 66.664001 68.536003 73.087997 74.959999 79.472 82.639999"
         y="14"
         sodipodi:role="line"
         id="tspan360">Lipid-adjusted (ng/g lipids)</tspan><tspan
         x="-4.3920002 -0.13600001 4.5040002 8.8400002 10.2 14.304 18.408001 95.552002 99.655998 103.76 105.416 109.52 110.872 113.144 117.248 121.352 123.008 127.112 131.112 135.216 139.32001 143.424 187.744 191.84801 195.952 197.608 201.71201 203.064 205.336 209.44 213.54401 215.2 219.304 260.44 264.54401 268.64801 272.75201 274.112 276.384 280.48801 284.59201 286.24799 290.35199 294.35199 298.45599 302.56 306.664 348.46399 352.56799 356.672 360.776 362.13599 364.40799 368.51199 372.616 374.272 378.37601 439.69601 481.48001"
         y="28"
         sodipodi:role="line"
         id="tspan362">PCB 15380.1 (31.0–212)84.4 (28.4)117 (45.4–212)121 (32.8)––</tspan></text>
<text
       transform="matrix(1,0,0,-1,47.1135,520.9959)"
       style="font-style:italic;font-variant:normal;font-weight:normal;font-stretch:normal;font-size:8px;font-family:'Myriad Pro';-inkscape-font-specification:MyriadPro-It;writing-mode:lr-tb;fill:#231f20;fill-opacity:1;fill-rule:nonzero;stroke:none"
       id="text368"><tspan
         x="0 4.0560002 5.744 9.6079998 11.16"
         y="0"
         sodipodi:role="line"
         id="tspan366">p,p’-</tspan></text>
<text
       transform="matrix(1,0,0,-1,60.7295,520.9959)"
       style="font-variant:normal;font-weight:normal;font-stretch:normal;font-size:8px;font-family:'Myriad Pro';-inkscape-font-specification:MyriadPro-Regular;writing-mode:lr-tb;fill:#231f20;fill-opacity:1;fill-rule:nonzero;stroke:none"
       id="text374"><tspan
         x="0 5.3280001 10.656 87.984001 92.087997 96.192001 100.296 101.656 103.928 108.032 112.136 113.792 117.896 121.896 126 130.104 134.20799 138.312 180.17599 184.28 188.384 192.48801 193.84801 196.12 200.224 204.328 208.43201 251.216 255.32001 259.42401 263.52802 264.888 267.16 271.26401 275.36801 277.02399 281.12799 285.12799 289.23199 293.336 297.44 301.54401 339.23999 343.34399 347.448 351.552 352.91199 355.18399 359.28799 363.392 367.496 430.47198 472.25601"
         y="0"
         sodipodi:role="line"
         id="tspan370">DDE209 (16.7–1791)285 (238)244 (71.2–1223)284 (175)––</tspan><tspan
         x="-13.616 -8.3999996 -3.76 86.328003 90.431999 94.536003 96.192001 100.296 101.648 103.92 108.024 109.68 113.784 117.784 121.888 125.992 127.648 131.752 178.52 182.62399 186.728 188.384 192.48801 193.84 196.112 200.216 201.87199 205.976 210.08 249.56 253.664 257.76801 259.42401 263.52802 264.88 267.15201 271.25601 272.91199 277.01599 281.12 285.12 289.224 293.328 294.98401 299.08801 337.58401 341.68799 345.79199 347.448 351.552 352.90399 355.17599 359.28 360.936 365.04001 369.14401 430.47198 472.25601"
         y="14"
         sodipodi:role="line"
         id="tspan372">HCB17.2 (7.1–48.2)18.4 (6.27)18.3 (6.98–73.0)19.2 (7.56)––</tspan></text>
<text
       transform="matrix(1,0,0,-1,47.1135,492.9959)"
       style="font-style:italic;font-variant:normal;font-weight:normal;font-stretch:normal;font-size:8px;font-family:'Myriad Pro';-inkscape-font-specification:MyriadPro-It;writing-mode:lr-tb;fill:#231f20;fill-opacity:1;fill-rule:nonzero;stroke:none"
       id="text378"><tspan
         x="0"
         y="0"
         id="tspan376">t</tspan></text>
<text
       transform="matrix(1,0,0,-1,49.6175,492.9959)"
       style="font-variant:normal;font-weight:normal;font-stretch:normal;font-size:8px;font-family:'Myriad Pro';-inkscape-font-specification:MyriadPro-Regular;writing-mode:lr-tb;fill:#231f20;fill-opacity:1;fill-rule:nonzero;stroke:none"
       id="text382"><tspan
         x="0 2.4560001 7.7199998 97.440002 101.544 103.2 107.304 111.408 112.76 115.032 119.136 120.792 124.896 129 133 137.104 141.20799 142.864 146.968 189.632 193.73599 195.392 199.496 203.60001 204.952 207.224 211.328 212.98399 217.088 221.192 260.672 264.776 266.43201 270.53601 274.64001 275.992 278.26401 282.36801 284.02399 288.12799 292.23199 296.23199 300.336 304.44 306.09601 310.20001 348.69601 352.79999 354.45599 358.56 362.664 364.01599 366.28799 370.392 372.048 376.15201 380.25601 441.58401 483.36801"
         y="0"
         sodipodi:role="line"
         id="tspan380">-NC6.74 (2.37–25.2)7.55 (3.52)6.28 (1.82–17.3)6.79 (2.79)––</tspan></text>
<text
       transform="matrix(1,0,0,-1,47.1135,478.7959)"
       style="font-style:italic;font-variant:normal;font-weight:normal;font-stretch:normal;font-size:8px;font-family:Symbol;-inkscape-font-specification:Symbol-Italic;writing-mode:lr-tb;fill:#231f20;fill-opacity:1;fill-rule:nonzero;stroke:none"
       id="text386"><tspan
         x="0"
         y="0"
         id="tspan384">β</tspan></text>
<text
       transform="matrix(1,0,0,-1,51.5055,478.7959)"
       style="font-variant:normal;font-weight:normal;font-stretch:normal;font-size:8px;font-family:'Myriad Pro';-inkscape-font-specification:MyriadPro-Regular;writing-mode:lr-tb;fill:#231f20;fill-opacity:1;fill-rule:nonzero;stroke:none"
       id="text392"><tspan
         x="0 2.4560001 7.6719999 12.312"
         y="0"
         sodipodi:role="line"
         id="tspan388">-HCH</tspan><tspan
         x="95.552002 99.655998 103.76 105.416 109.52 110.872 113.144 117.912 121.376 126.888 132.328 134.784 138.888 142.992 144.64799 148.752 187.744 191.84801 195.952 197.608 201.71201 203.064 205.336 209.44 211.09599 215.2 219.304 258.784 262.888 266.992 268.64801 272.75201 274.104 276.37601 281.14401 284.608 290.12 295.56 298.01599 302.12 306.224 310.328 346.80801 350.91199 355.01599 356.672 360.776 362.12799 364.39999 368.504 372.608 374.26401 378.36801 439.69601 481.48001"
         y="-0.2"
         sodipodi:role="line"
         id="tspan390">21.2 (&lt;LOD-57.2)22.7 (9.07)25.0 (&lt;LOD-134)26.5 (13.5)––</tspan></text>
<text
       transform="matrix(1,0,0,-1,47.1574,465.5438)"
       style="font-variant:normal;font-weight:300;font-stretch:normal;font-size:7px;font-family:'Myriad Pro';-inkscape-font-specification:MyriadPro-Light;writing-mode:lr-tb;fill:#231f20;fill-opacity:1;fill-rule:nonzero;stroke:none"
       id="text398"><tspan
         x="0 4.053 9.4989996 10.717 11.942 15.12 17.233999 18.697001 20.860001 24.612 30.344999 33.740002 35.903 37.366001 40.487999 41.713001 47.445999 50.841 54.019001 57.771 58.988998 60.214001 64.624001 68.613998 72.071999 73.290001 74.514999 78.266998 81.662003 84.665001 87.843002 90.964996 94.717003 96.200996 99.925003 101.913 105.637 109.501 112.896 116.648 119.413 122.808 126.56 129.955 131.173 132.39799 135.261 139.95799 144.27699 145.495 146.72 148.20399 149.66701 155.39999 156.86301 159.026 160.25101 163.97501 165.80901 167.034 170.842 174.237 176.358 179.75301 182.952 185.11501 186.578 190.302 194.054 195.272 196.49699 201.65601 205.828 208.69099 213.388 217.707 218.925 220.14999 224.01401 227.409 229.397 232.519 235.914 239.666 241.82899 245.007 248.815 252.21001 253.435 257.159 258.99301 260.21799 262.82901 266.00699 271.73999 275.604 277.08801 280.483 283.09399 284.319 288.008 291.12299 294.51801 296.58301 297.80801 299.29199 300.755 306.48801 307.95099 310.11401 311.33899 315.06299 316.897 318.12201 321.92999 325.32501 327.44601 330.841 334.04001 336.203 337.66599 341.39001 345.142 346.35999 347.58499 350.60199 354.02499 357.14001 360.535 362.01901 364.63 365.85501 369.71899 373.11401 374.59799 378.28699 383.341 384.56601 387.42899 392.12601 396.655 397.88 402.88501 406.28 408.26801 411.66299 412.888 415.49899 418.89401 421.05701 422.28201 424.40302 428.12701 429.35199 432.215 436.91199 441.44101 443.89801 447.71301 451.129 452.34698 453.57199 457.086 461.07599 464.534 465.75201"
         y="0"
         sodipodi:role="line"
         id="tspan394">AM, arithmetic mean; HCB, hexachlorobenzene; LOD, limit of detection; %&gt;LOD, percentage of samples over limit of detection. Levels below LOD were set to LOD/√2; PCB, </tspan><tspan
         x="0 3.8640001 7.5879998 9.0719995 12.103 15.225 18.976999 20.461 24.184999 26.299 27.761999 31.514 34.692001 36.813 40.208 44.015999 45.241001 49.105 50.568001 54.431999 58.183998 61.578999 65.261002 68.341003 69.824997 71.042999 72.267998 75.781998 79.015999 83.622002 87.717003 88.934998 90.160004 94.024002 97.418999 99.708 101.542 103.026 106.743 110.467 112.455 116.179 119.903 123.102 125.265 128.44299 132.19501 135.91901 139.097 141.218 144.61301 145.83099 147.056 150.57001 153.804 158.50101 161.74899 162.967 164.192 168.056 171.451 173.74001 175.57401 177.058 180.77499 184.49899 186.487 190.211 193.41 195.573 198.75101 202.50301 205.89799 207.123 209.73399 213.451 214.935 216.664 220.388 224.14 227.31799 229.439 232.76401"
         y="8.4980001"
         sodipodi:role="line"
         id="tspan396">polychlorinated biphenyl; PFOA, perfluorooctanoate; PFOS, perfluoroctane sulfonate.</tspan></text>
</g></svg>