<?xml version="1.0" encoding="UTF-8" standalone="no"?>
<!-- Created with Inkscape (http://www.inkscape.org/) -->

<svg
   xmlns:dc="http://purl.org/dc/elements/1.1/"
   xmlns:cc="http://creativecommons.org/ns#"
   xmlns:rdf="http://www.w3.org/1999/02/22-rdf-syntax-ns#"
   xmlns:svg="http://www.w3.org/2000/svg"
   xmlns="http://www.w3.org/2000/svg"
   xmlns:sodipodi="http://sodipodi.sourceforge.net/DTD/sodipodi-0.dtd"
   xmlns:inkscape="http://www.inkscape.org/namespaces/inkscape"
   version="1.1"
   id="svg2"
   xml:space="preserve"
   width="793.70135"
   height="1054.488"
   viewBox="0 0 793.70135 1054.488"
   sodipodi:docname="table4.svg"
   inkscape:version="0.92.0 r15299"><metadata
     id="metadata8"><rdf:RDF><cc:Work
         rdf:about=""><dc:format>image/svg+xml</dc:format><dc:type
           rdf:resource="http://purl.org/dc/dcmitype/StillImage" /><dc:title></dc:title></cc:Work></rdf:RDF></metadata><defs
     id="defs6" /><sodipodi:namedview
     pagecolor="#ffffff"
     bordercolor="#666666"
     borderopacity="1"
     objecttolerance="10"
     gridtolerance="10"
     guidetolerance="10"
     inkscape:pageopacity="0"
     inkscape:pageshadow="2"
     inkscape:window-width="1920"
     inkscape:window-height="988"
     id="namedview4"
     showgrid="false"
     inkscape:zoom="0.89522116"
     inkscape:cx="669.00677"
     inkscape:cy="179.43835"
     inkscape:window-x="0"
     inkscape:window-y="27"
     inkscape:window-maximized="1"
     inkscape:current-layer="g10" /><g
     id="g10"
     inkscape:groupmode="layer"
     inkscape:label="fulltext"
     transform="matrix(1.3333333,0,0,-1.3333333,0,1054.488)"><g
       id="g540"
       transform="translate(43.1574,342.2415)"><path
         d="M 0,0 H 31.713"
         style="fill:none;stroke:#918f90;stroke-width:0.5;stroke-linecap:butt;stroke-linejoin:miter;stroke-miterlimit:10;stroke-dasharray:none;stroke-opacity:1"
         id="path542"
         inkscape:connector-curvature="0" /></g><g
       id="g544"
       transform="translate(74.8708,342.2415)"><path
         d="M 0,0 H 20.177"
         style="fill:none;stroke:#918f90;stroke-width:0.5;stroke-linecap:butt;stroke-linejoin:miter;stroke-miterlimit:10;stroke-dasharray:none;stroke-opacity:1"
         id="path546"
         inkscape:connector-curvature="0" /></g><g
       id="g548"
       transform="translate(43.1574,370.4426)"><path
         d="M 0,0 H 31.713"
         style="fill:none;stroke:#918f90;stroke-width:0.5;stroke-linecap:butt;stroke-linejoin:miter;stroke-miterlimit:10;stroke-dasharray:none;stroke-opacity:1"
         id="path550"
         inkscape:connector-curvature="0" /></g><g
       id="g552"
       transform="translate(74.8708,370.4426)"><path
         d="M 0,0 H 20.177"
         style="fill:none;stroke:#918f90;stroke-width:0.5;stroke-linecap:butt;stroke-linejoin:miter;stroke-miterlimit:10;stroke-dasharray:none;stroke-opacity:1"
         id="path554"
         inkscape:connector-curvature="0" /></g><g
       id="g556"
       transform="translate(95.0483,370.4426)"><path
         d="M 0,0 H 69.408"
         style="fill:none;stroke:#918f90;stroke-width:0.5;stroke-linecap:butt;stroke-linejoin:miter;stroke-miterlimit:10;stroke-dasharray:none;stroke-opacity:1"
         id="path558"
         inkscape:connector-curvature="0" /></g><g
       id="g560"
       transform="translate(164.4565,370.4426)"><path
         d="M 0,0 H 30.041"
         style="fill:none;stroke:#918f90;stroke-width:0.5;stroke-linecap:butt;stroke-linejoin:miter;stroke-miterlimit:10;stroke-dasharray:none;stroke-opacity:1"
         id="path562"
         inkscape:connector-curvature="0" /></g><g
       id="g564"
       transform="translate(194.4976,370.4426)"><path
         d="M 0,0 H 62.064"
         style="fill:none;stroke:#918f90;stroke-width:0.5;stroke-linecap:butt;stroke-linejoin:miter;stroke-miterlimit:10;stroke-dasharray:none;stroke-opacity:1"
         id="path566"
         inkscape:connector-curvature="0" /></g><g
       id="g568"
       transform="translate(256.5618,370.4426)"><path
         d="M 0,0 H 26.714"
         style="fill:none;stroke:#918f90;stroke-width:0.5;stroke-linecap:butt;stroke-linejoin:miter;stroke-miterlimit:10;stroke-dasharray:none;stroke-opacity:1"
         id="path570"
         inkscape:connector-curvature="0" /></g><g
       id="g572"
       transform="translate(283.2755,370.4426)"><path
         d="M 0,0 H 60.624"
         style="fill:none;stroke:#918f90;stroke-width:0.5;stroke-linecap:butt;stroke-linejoin:miter;stroke-miterlimit:10;stroke-dasharray:none;stroke-opacity:1"
         id="path574"
         inkscape:connector-curvature="0" /></g><g
       id="g576"
       transform="translate(343.8992,370.4426)"><path
         d="M 0,0 H 30.041"
         style="fill:none;stroke:#918f90;stroke-width:0.5;stroke-linecap:butt;stroke-linejoin:miter;stroke-miterlimit:10;stroke-dasharray:none;stroke-opacity:1"
         id="path578"
         inkscape:connector-curvature="0" /></g><g
       id="g580"
       transform="translate(373.9403,370.4426)"><path
         d="M 0,0 H 57.296"
         style="fill:none;stroke:#918f90;stroke-width:0.5;stroke-linecap:butt;stroke-linejoin:miter;stroke-miterlimit:10;stroke-dasharray:none;stroke-opacity:1"
         id="path582"
         inkscape:connector-curvature="0" /></g><g
       id="g584"
       transform="translate(431.2366,370.4426)"><path
         d="M 0,0 H 30.041"
         style="fill:none;stroke:#918f90;stroke-width:0.5;stroke-linecap:butt;stroke-linejoin:miter;stroke-miterlimit:10;stroke-dasharray:none;stroke-opacity:1"
         id="path586"
         inkscape:connector-curvature="0" /></g><g
       id="g588"
       transform="translate(461.2776,370.4426)"><path
         d="M 0,0 H 65.163"
         style="fill:none;stroke:#918f90;stroke-width:0.5;stroke-linecap:butt;stroke-linejoin:miter;stroke-miterlimit:10;stroke-dasharray:none;stroke-opacity:1"
         id="path590"
         inkscape:connector-curvature="0" /></g><g
       id="g592"
       transform="translate(526.441,370.4426)"><path
         d="M 0,0 H 25.677"
         style="fill:none;stroke:#918f90;stroke-width:0.5;stroke-linecap:butt;stroke-linejoin:miter;stroke-miterlimit:10;stroke-dasharray:none;stroke-opacity:1"
         id="path594"
         inkscape:connector-curvature="0" /></g><g
       id="g596"
       transform="translate(95.0483,342.2415)"><path
         d="M 0,0 H 69.408"
         style="fill:none;stroke:#918f90;stroke-width:0.5;stroke-linecap:butt;stroke-linejoin:miter;stroke-miterlimit:10;stroke-dasharray:none;stroke-opacity:1"
         id="path598"
         inkscape:connector-curvature="0" /></g><g
       id="g600"
       transform="translate(164.4565,342.2415)"><path
         d="M 0,0 H 30.041"
         style="fill:none;stroke:#918f90;stroke-width:0.5;stroke-linecap:butt;stroke-linejoin:miter;stroke-miterlimit:10;stroke-dasharray:none;stroke-opacity:1"
         id="path602"
         inkscape:connector-curvature="0" /></g><g
       id="g604"
       transform="translate(194.4976,342.2415)"><path
         d="M 0,0 H 62.064"
         style="fill:none;stroke:#918f90;stroke-width:0.5;stroke-linecap:butt;stroke-linejoin:miter;stroke-miterlimit:10;stroke-dasharray:none;stroke-opacity:1"
         id="path606"
         inkscape:connector-curvature="0" /></g><g
       id="g608"
       transform="translate(256.5618,342.2415)"><path
         d="M 0,0 H 26.714"
         style="fill:none;stroke:#918f90;stroke-width:0.5;stroke-linecap:butt;stroke-linejoin:miter;stroke-miterlimit:10;stroke-dasharray:none;stroke-opacity:1"
         id="path610"
         inkscape:connector-curvature="0" /></g><g
       id="g612"
       transform="translate(283.2755,342.2415)"><path
         d="M 0,0 H 60.624"
         style="fill:none;stroke:#918f90;stroke-width:0.5;stroke-linecap:butt;stroke-linejoin:miter;stroke-miterlimit:10;stroke-dasharray:none;stroke-opacity:1"
         id="path614"
         inkscape:connector-curvature="0" /></g><g
       id="g616"
       transform="translate(343.8992,342.2415)"><path
         d="M 0,0 H 30.041"
         style="fill:none;stroke:#918f90;stroke-width:0.5;stroke-linecap:butt;stroke-linejoin:miter;stroke-miterlimit:10;stroke-dasharray:none;stroke-opacity:1"
         id="path618"
         inkscape:connector-curvature="0" /></g><g
       id="g620"
       transform="translate(373.9403,342.2415)"><path
         d="M 0,0 H 57.296"
         style="fill:none;stroke:#918f90;stroke-width:0.5;stroke-linecap:butt;stroke-linejoin:miter;stroke-miterlimit:10;stroke-dasharray:none;stroke-opacity:1"
         id="path622"
         inkscape:connector-curvature="0" /></g><g
       id="g624"
       transform="translate(431.2366,342.2415)"><path
         d="M 0,0 H 30.041"
         style="fill:none;stroke:#918f90;stroke-width:0.5;stroke-linecap:butt;stroke-linejoin:miter;stroke-miterlimit:10;stroke-dasharray:none;stroke-opacity:1"
         id="path626"
         inkscape:connector-curvature="0" /></g><g
       id="g628"
       transform="translate(461.2776,342.2415)"><path
         d="M 0,0 H 65.163"
         style="fill:none;stroke:#918f90;stroke-width:0.5;stroke-linecap:butt;stroke-linejoin:miter;stroke-miterlimit:10;stroke-dasharray:none;stroke-opacity:1"
         id="path630"
         inkscape:connector-curvature="0" /></g><g
       id="g632"
       transform="translate(526.441,342.2415)"><path
         d="M 0,0 H 25.677"
         style="fill:none;stroke:#918f90;stroke-width:0.5;stroke-linecap:butt;stroke-linejoin:miter;stroke-miterlimit:10;stroke-dasharray:none;stroke-opacity:1"
         id="path634"
         inkscape:connector-curvature="0" /></g><g
       id="g636"
       transform="translate(43.1574,300.2415)"><path
         d="M 0,0 H 31.713"
         style="fill:none;stroke:#918f90;stroke-width:0.5;stroke-linecap:butt;stroke-linejoin:miter;stroke-miterlimit:10;stroke-dasharray:none;stroke-opacity:1"
         id="path638"
         inkscape:connector-curvature="0" /></g><g
       id="g640"
       transform="translate(74.8708,300.2415)"><path
         d="M 0,0 H 20.177"
         style="fill:none;stroke:#918f90;stroke-width:0.5;stroke-linecap:butt;stroke-linejoin:miter;stroke-miterlimit:10;stroke-dasharray:none;stroke-opacity:1"
         id="path642"
         inkscape:connector-curvature="0" /></g><g
       id="g644"
       transform="translate(95.0483,300.2415)"><path
         d="M 0,0 H 69.408"
         style="fill:none;stroke:#918f90;stroke-width:0.5;stroke-linecap:butt;stroke-linejoin:miter;stroke-miterlimit:10;stroke-dasharray:none;stroke-opacity:1"
         id="path646"
         inkscape:connector-curvature="0" /></g><g
       id="g648"
       transform="translate(164.4565,300.2415)"><path
         d="M 0,0 H 30.041"
         style="fill:none;stroke:#918f90;stroke-width:0.5;stroke-linecap:butt;stroke-linejoin:miter;stroke-miterlimit:10;stroke-dasharray:none;stroke-opacity:1"
         id="path650"
         inkscape:connector-curvature="0" /></g><g
       id="g652"
       transform="translate(194.4976,300.2415)"><path
         d="M 0,0 H 62.064"
         style="fill:none;stroke:#918f90;stroke-width:0.5;stroke-linecap:butt;stroke-linejoin:miter;stroke-miterlimit:10;stroke-dasharray:none;stroke-opacity:1"
         id="path654"
         inkscape:connector-curvature="0" /></g><g
       id="g656"
       transform="translate(256.5618,300.2415)"><path
         d="M 0,0 H 26.714"
         style="fill:none;stroke:#918f90;stroke-width:0.5;stroke-linecap:butt;stroke-linejoin:miter;stroke-miterlimit:10;stroke-dasharray:none;stroke-opacity:1"
         id="path658"
         inkscape:connector-curvature="0" /></g><g
       id="g660"
       transform="translate(283.2755,300.2415)"><path
         d="M 0,0 H 60.624"
         style="fill:none;stroke:#918f90;stroke-width:0.5;stroke-linecap:butt;stroke-linejoin:miter;stroke-miterlimit:10;stroke-dasharray:none;stroke-opacity:1"
         id="path662"
         inkscape:connector-curvature="0" /></g><g
       id="g664"
       transform="translate(343.8992,300.2415)"><path
         d="M 0,0 H 30.041"
         style="fill:none;stroke:#918f90;stroke-width:0.5;stroke-linecap:butt;stroke-linejoin:miter;stroke-miterlimit:10;stroke-dasharray:none;stroke-opacity:1"
         id="path666"
         inkscape:connector-curvature="0" /></g><g
       id="g668"
       transform="translate(373.9403,300.2415)"><path
         d="M 0,0 H 57.296"
         style="fill:none;stroke:#918f90;stroke-width:0.5;stroke-linecap:butt;stroke-linejoin:miter;stroke-miterlimit:10;stroke-dasharray:none;stroke-opacity:1"
         id="path670"
         inkscape:connector-curvature="0" /></g><g
       id="g672"
       transform="translate(431.2366,300.2415)"><path
         d="M 0,0 H 30.041"
         style="fill:none;stroke:#918f90;stroke-width:0.5;stroke-linecap:butt;stroke-linejoin:miter;stroke-miterlimit:10;stroke-dasharray:none;stroke-opacity:1"
         id="path674"
         inkscape:connector-curvature="0" /></g><g
       id="g676"
       transform="translate(461.2776,300.2415)"><path
         d="M 0,0 H 65.163"
         style="fill:none;stroke:#918f90;stroke-width:0.5;stroke-linecap:butt;stroke-linejoin:miter;stroke-miterlimit:10;stroke-dasharray:none;stroke-opacity:1"
         id="path678"
         inkscape:connector-curvature="0" /></g><g
       id="g680"
       transform="translate(526.441,300.2415)"><path
         d="M 0,0 H 25.677"
         style="fill:none;stroke:#918f90;stroke-width:0.5;stroke-linecap:butt;stroke-linejoin:miter;stroke-miterlimit:10;stroke-dasharray:none;stroke-opacity:1"
         id="path682"
         inkscape:connector-curvature="0" /></g><text
       transform="matrix(1,0,0,-1,47.1574,385.4426)"
       style="font-variant:normal;font-weight:bold;font-stretch:normal;font-size:8.5px;font-family:'Myriad Pro';-inkscape-font-specification:MyriadPro-Bold;writing-mode:lr-tb;fill:#231f20;fill-opacity:1;fill-rule:nonzero;stroke:none"
       id="text686"><tspan
         x="0 4.0545001 8.5 13.5405 15.8355 20.281 21.615499 26.290501 28.458"
         y="0"
         sodipodi:role="line"
         id="tspan684">table 4. </tspan></text>
<text
       transform="matrix(1,0,0,-1,79.8229,385.4426)"
       style="font-variant:normal;font-weight:normal;font-stretch:normal;font-size:8.5px;font-family:'Myriad Pro';-inkscape-font-specification:MyriadPro-Regular;writing-mode:lr-tb;fill:#231f20;fill-opacity:1;fill-rule:nonzero;stroke:none"
       id="text690"><tspan
         x="0 4.5984998 8.8144999 11.5855 15.64 17.0425 20.757 25.381001 29.597 32.036499 34.476002 36.422501 40.188 42.134499 46.350498 50.991501 53.762501 57.085999 58.488499"
         y="0"
         sodipodi:role="line"
         id="tspan688">Beta coefficients (</tspan></text>
<text
       transform="matrix(1,0,0,-1,140.6829,385.4426)"
       style="font-variant:normal;font-weight:normal;font-stretch:normal;font-size:8.5px;font-family:Symbol;-inkscape-font-specification:Symbol;writing-mode:lr-tb;fill:#231f20;fill-opacity:1;fill-rule:nonzero;stroke:none"
       id="text694"><tspan
         x="0"
         y="0"
         id="tspan692">β</tspan></text>
<text
       transform="matrix(1,0,0,-1,145.2984,385.4426)"
       style="font-variant:normal;font-weight:normal;font-stretch:normal;font-size:8.5px;font-family:'Myriad Pro';-inkscape-font-specification:MyriadPro-Regular;writing-mode:lr-tb;fill:#231f20;fill-opacity:1;fill-rule:nonzero;stroke:none"
       id="text700"><tspan
         x="0 2.3715 3.7739999 7.8284998 12.5035 17.254999 18.657499 23.2815 28.033001 32.7845 36.108002 37.510502 40.205002 44.225498 46.996498 48.943001 53.567001 56.890499 58.292999 60.5625 66.376503 70.906998 74.230499 76.601997 78.004501 84.218002 86.164497 88.935501 93.610497 95.013 99.331001 103.649 110.3385 111.741 115.4555 120.0795 124.7545 127.194 129.1405 133.892 138.108 142.783 146.4975 150.7135 152.116 154.0625 158.70351 161.42349 165.6395 168.589 172.601 176.6555 178.619 181.9425 183.345 185.71651 190.0345 194.35249 201.04201 202.4445 207.332 209.321 211.6925 213.095 215.424 220.048 222.785 224.1875 228.242 231.56551 234.88901 239.513 243.2785 245.22501 249.2455 252.01649 253.963 258.58701 263.26199 266.58551 267.98801 272.78201 276.99799 279.84549 285.974 290.19 294.40601 299.08099 300.48349 304.96301 309.06 314.755 319.91449 321.31699 325.37149 330.04651 334.798 336.2005 338.147 342.82199 347.57349 349.51999 353.2345 357.4505 360.77399 362.17651 366.80051 369.23999 370.64249 372.9715 377.1875 379.9585 384.013 386.01901"
         y="0"
         sodipodi:role="line"
         id="tspan696">) and odds ratios (ORs) with 95% confidence intervals (95% CI) for associations between PFOA and indices of fetal </tspan><tspan
         x="-98.140999 -93.483002 -90.831001 -86.266502 -80.053001 -77.281998 -72.607002 -71.204498 -69.258003 -64.583 -63.1805 -59.100498 -52.972 -48.756001 -44.004501 -39.788502 -35.113499 -33.710999 -28.9765 -25.015499 -23.613001 -18.989 -16.5495 -14.1865 -10.863 -6.0689998 -3.2980001 -1.3515 3.3234999 8.0325003 9.4350004 12.7585 16.948999 20.841999 22.244499"
         y="10.999"
         sodipodi:role="line"
         id="tspan698">growth in Sweden by offspring sex (</tspan></text>
<text
       transform="matrix(1,0,0,-1,169.9144,374.4436)"
       style="font-style:italic;font-variant:normal;font-weight:normal;font-stretch:normal;font-size:8.5px;font-family:'Myriad Pro';-inkscape-font-specification:MyriadPro-It;writing-mode:lr-tb;fill:#231f20;fill-opacity:1;fill-rule:nonzero;stroke:none"
       id="text704"><tspan
         x="0"
         y="0"
         id="tspan702">N</tspan></text>
<text
       transform="matrix(1,0,0,-1,176.6209,374.4436)"
       style="font-variant:normal;font-weight:normal;font-stretch:normal;font-size:8.5px;font-family:'Myriad Pro';-inkscape-font-specification:MyriadPro-Regular;writing-mode:lr-tb;fill:#231f20;fill-opacity:1;fill-rule:nonzero;stroke:none"
       id="text708"><tspan
         x="0 5.0235 6.4260001 10.744 15.062 19.379999"
         y="0"
         sodipodi:role="line"
         id="tspan706">= 159)</tspan></text>
<g
       id="g710"
       transform="translate(97.0482,357.3579)"><path
         d="M 0,0 H 95.449"
         style="fill:none;stroke:#918f90;stroke-width:0.5;stroke-linecap:butt;stroke-linejoin:miter;stroke-miterlimit:10;stroke-dasharray:none;stroke-opacity:1"
         id="path712"
         inkscape:connector-curvature="0" /></g><text
       transform="matrix(1,0,0,-1,118.1245,360.4426)"
       style="font-variant:normal;font-weight:normal;font-stretch:normal;font-size:8px;font-family:'Myriad Pro';-inkscape-font-specification:MyriadPro-Regular;writing-mode:lr-tb;fill:#231f20;fill-opacity:1;fill-rule:nonzero;stroke:none"
       id="text716"><tspan
         x="0 4.336 6.2080002 9.0159998 11.664 16.104 17.464001 23.271999 27.280001 29.152 33.624001 38.032001 40.68 42.040001 44.312 48.784"
         y="0"
         sodipodi:role="line"
         id="tspan714">Birth weight (g)</tspan></text>
<text
       transform="matrix(1,0,0,-1,169.1732,363.1066)"
       style="font-variant:normal;font-weight:normal;font-stretch:normal;font-size:4.66400003px;font-family:'Myriad Pro';-inkscape-font-specification:MyriadPro-Regular;writing-mode:lr-tb;fill:#231f20;fill-opacity:1;fill-rule:nonzero;stroke:none"
       id="text720"><tspan
         x="0"
         y="0"
         id="tspan718">a</tspan></text>
<g
       id="g722"
       transform="translate(196.4975,357.3579)"><path
         d="M 0,0 H 84.778"
         style="fill:none;stroke:#918f90;stroke-width:0.5;stroke-linecap:butt;stroke-linejoin:miter;stroke-miterlimit:10;stroke-dasharray:none;stroke-opacity:1"
         id="path724"
         inkscape:connector-curvature="0" /></g><text
       transform="matrix(1,0,0,-1,210.0062,360.4426)"
       style="font-variant:normal;font-weight:normal;font-stretch:normal;font-size:8px;font-family:'Myriad Pro';-inkscape-font-specification:MyriadPro-Regular;writing-mode:lr-tb;fill:#231f20;fill-opacity:1;fill-rule:nonzero;stroke:none"
       id="text728"><tspan
         x="0 4.336 6.2080002 9.0159998 11.664 16.104 17.464001 19.351999 23.360001 27.799999 32.271999 34.919998 39.360001 40.712002 42.984001 46.568001 53.240002"
         y="0"
         sodipodi:role="line"
         id="tspan726">Birth length (cm)</tspan></text>
<text
       transform="matrix(1,0,0,-1,265.5189,363.1066)"
       style="font-variant:normal;font-weight:normal;font-stretch:normal;font-size:4.66400003px;font-family:'Myriad Pro';-inkscape-font-specification:MyriadPro-Regular;writing-mode:lr-tb;fill:#231f20;fill-opacity:1;fill-rule:nonzero;stroke:none"
       id="text732"><tspan
         x="0"
         y="0"
         id="tspan730">a</tspan></text>
<g
       id="g734"
       transform="translate(285.2755,357.3579)"><path
         d="M 0,0 H 86.665"
         style="fill:none;stroke:#918f90;stroke-width:0.5;stroke-linecap:butt;stroke-linejoin:miter;stroke-miterlimit:10;stroke-dasharray:none;stroke-opacity:1"
         id="path736"
         inkscape:connector-curvature="0" /></g><text
       transform="matrix(1,0,0,-1,286.2194,360.4426)"
       style="font-variant:normal;font-weight:normal;font-stretch:normal;font-size:8px;font-family:'Myriad Pro';-inkscape-font-specification:MyriadPro-Regular;writing-mode:lr-tb;fill:#231f20;fill-opacity:1;fill-rule:nonzero;stroke:none"
       id="text740"><tspan
         x="0 5.2160001 9.224 13.08 17.591999 18.952 22.535999 24.408001 26.944 30.528 34.936001 41.608002 43.84 47.848 50.383999 54.391998 58.832001 62.368"
         y="0"
         sodipodi:role="line"
         id="tspan738">Head circumference</tspan></text>
<text
       transform="matrix(1,0,0,-1,352.5917,363.1066)"
       style="font-variant:normal;font-weight:normal;font-stretch:normal;font-size:4.66400003px;font-family:'Myriad Pro';-inkscape-font-specification:MyriadPro-Regular;writing-mode:lr-tb;fill:#231f20;fill-opacity:1;fill-rule:nonzero;stroke:none"
       id="text744"><tspan
         x="0"
         y="0"
         id="tspan742">a</tspan></text>
<text
       transform="matrix(1,0,0,-1,356.1997,360.4426)"
       style="font-variant:normal;font-weight:normal;font-stretch:normal;font-size:8px;font-family:'Myriad Pro';-inkscape-font-specification:MyriadPro-Regular;writing-mode:lr-tb;fill:#231f20;fill-opacity:1;fill-rule:nonzero;stroke:none"
       id="text748"><tspan
         x="0 2.2720001 5.8559999 12.528"
         y="0"
         sodipodi:role="line"
         id="tspan746">(cm)</tspan></text>
<g
       id="g750"
       transform="translate(375.9403,357.3579)"><path
         d="M 0,0 H 83.337"
         style="fill:none;stroke:#918f90;stroke-width:0.5;stroke-linecap:butt;stroke-linejoin:miter;stroke-miterlimit:10;stroke-dasharray:none;stroke-opacity:1"
         id="path752"
         inkscape:connector-curvature="0" /></g><text
       transform="matrix(1,0,0,-1,377.3407,360.4426)"
       style="font-variant:normal;font-weight:normal;font-stretch:normal;font-size:8px;font-family:'Myriad Pro';-inkscape-font-specification:MyriadPro-Regular;writing-mode:lr-tb;fill:#231f20;fill-opacity:1;fill-rule:nonzero;stroke:none"
       id="text756"><tspan
         x="0 5.2080002 9.2159996 12.384 15.032 18.856001 21.504 23.375999 27.768 32.208 36.063999 37.952 39.304001 43.16 47.632"
         y="0"
         sodipodi:role="line"
         id="tspan754">Gestational age</tspan></text>
<text
       transform="matrix(1,0,0,-1,428.9847,363.1066)"
       style="font-variant:normal;font-weight:normal;font-stretch:normal;font-size:4.66400003px;font-family:'Myriad Pro';-inkscape-font-specification:MyriadPro-Regular;writing-mode:lr-tb;fill:#231f20;fill-opacity:1;fill-rule:nonzero;stroke:none"
       id="text760"><tspan
         x="0"
         y="0"
         id="tspan758">a</tspan></text>
<text
       transform="matrix(1,0,0,-1,432.5927,360.4426)"
       style="font-variant:normal;font-weight:normal;font-stretch:normal;font-size:8px;font-family:'Myriad Pro';-inkscape-font-specification:MyriadPro-Regular;writing-mode:lr-tb;fill:#231f20;fill-opacity:1;fill-rule:nonzero;stroke:none"
       id="text764"><tspan
         x="0 2.2720001 8.0799999 12.088 16.096001 19.848 23.016001"
         y="0"
         sodipodi:role="line"
         id="tspan762">(weeks)</tspan></text>
<g
       id="g766"
       transform="translate(463.2776,357.3579)"><path
         d="M 0,0 H 86.841"
         style="fill:none;stroke:#918f90;stroke-width:0.5;stroke-linecap:butt;stroke-linejoin:miter;stroke-miterlimit:10;stroke-dasharray:none;stroke-opacity:1"
         id="path768"
         inkscape:connector-curvature="0" /></g><text
       transform="matrix(1,0,0,-1,498.3792,360.4426)"
       style="font-variant:normal;font-weight:normal;font-stretch:normal;font-size:8px;font-family:'Myriad Pro';-inkscape-font-specification:MyriadPro-Regular;writing-mode:lr-tb;fill:#231f20;fill-opacity:1;fill-rule:nonzero;stroke:none"
       id="text772"><tspan
         x="0 3.944 9.1120005"
         y="0"
         sodipodi:role="line"
         id="tspan770">SGA</tspan></text>
<text
       transform="matrix(1,0,0,-1,512.3632,363.1066)"
       style="font-variant:normal;font-weight:normal;font-stretch:normal;font-size:4.66400003px;font-family:'Myriad Pro';-inkscape-font-specification:MyriadPro-Regular;writing-mode:lr-tb;fill:#231f20;fill-opacity:1;fill-rule:nonzero;stroke:none"
       id="text776"><tspan
         x="0"
         y="0"
         id="tspan774">b</tspan></text>
<text
       transform="matrix(1,0,0,-1,110.8799,346.2415)"
       style="font-variant:normal;font-weight:normal;font-stretch:normal;font-size:8px;font-family:Symbol;-inkscape-font-specification:Symbol;writing-mode:lr-tb;fill:#231f20;fill-opacity:1;fill-rule:nonzero;stroke:none"
       id="text780"><tspan
         x="0"
         y="0"
         id="tspan778">β</tspan></text>
<text
       transform="matrix(1,0,0,-1,116.6319,346.2415)"
       style="font-variant:normal;font-weight:normal;font-stretch:normal;font-size:8px;font-family:'Myriad Pro';-inkscape-font-specification:MyriadPro-Regular;writing-mode:lr-tb;fill:#231f20;fill-opacity:1;fill-rule:nonzero;stroke:none"
       id="text784"><tspan
         x="0 2.2720001 6.3759999 10.48 16.816 18.167999 22.808001 24.719999"
         y="0"
         sodipodi:role="line"
         id="tspan782">(95% CI)</tspan></text>
<text
       transform="matrix(1,0,0,-1,173.9519,346.2415)"
       style="font-style:italic;font-variant:normal;font-weight:normal;font-stretch:normal;font-size:8px;font-family:'Myriad Pro';-inkscape-font-specification:MyriadPro-It;writing-mode:lr-tb;fill:#231f20;fill-opacity:1;fill-rule:nonzero;stroke:none"
       id="text788"><tspan
         x="0"
         y="0"
         id="tspan786">P</tspan></text>
<text
       transform="matrix(1,0,0,-1,209.1599,346.2415)"
       style="font-variant:normal;font-weight:normal;font-stretch:normal;font-size:8px;font-family:Symbol;-inkscape-font-specification:Symbol;writing-mode:lr-tb;fill:#231f20;fill-opacity:1;fill-rule:nonzero;stroke:none"
       id="text792"><tspan
         x="0"
         y="0"
         id="tspan790">β</tspan></text>
<text
       transform="matrix(1,0,0,-1,214.9119,346.2415)"
       style="font-variant:normal;font-weight:normal;font-stretch:normal;font-size:8px;font-family:'Myriad Pro';-inkscape-font-specification:MyriadPro-Regular;writing-mode:lr-tb;fill:#231f20;fill-opacity:1;fill-rule:nonzero;stroke:none"
       id="text796"><tspan
         x="0 2.2720001 6.3759999 10.48 16.816 18.167999 22.808001 24.719999"
         y="0"
         sodipodi:role="line"
         id="tspan794">(95% CI)</tspan></text>
<text
       transform="matrix(1,0,0,-1,267.8959,346.2415)"
       style="font-style:italic;font-variant:normal;font-weight:normal;font-stretch:normal;font-size:8px;font-family:'Myriad Pro';-inkscape-font-specification:MyriadPro-It;writing-mode:lr-tb;fill:#231f20;fill-opacity:1;fill-rule:nonzero;stroke:none"
       id="text800"><tspan
         x="0"
         y="0"
         id="tspan798">P</tspan></text>
<text
       transform="matrix(1,0,0,-1,294.7199,346.2415)"
       style="font-variant:normal;font-weight:normal;font-stretch:normal;font-size:8px;font-family:Symbol;-inkscape-font-specification:Symbol;writing-mode:lr-tb;fill:#231f20;fill-opacity:1;fill-rule:nonzero;stroke:none"
       id="text804"><tspan
         x="0"
         y="0"
         id="tspan802">β</tspan></text>
<text
       transform="matrix(1,0,0,-1,300.4719,346.2415)"
       style="font-variant:normal;font-weight:normal;font-stretch:normal;font-size:8px;font-family:'Myriad Pro';-inkscape-font-specification:MyriadPro-Regular;writing-mode:lr-tb;fill:#231f20;fill-opacity:1;fill-rule:nonzero;stroke:none"
       id="text808"><tspan
         x="0 2.2720001 6.3759999 10.48 16.816 18.176001 22.816 24.728001"
         y="0"
         sodipodi:role="line"
         id="tspan806">(95% CI)</tspan></text>
<text
       transform="matrix(1,0,0,-1,353.3999,346.2415)"
       style="font-style:italic;font-variant:normal;font-weight:normal;font-stretch:normal;font-size:8px;font-family:'Myriad Pro';-inkscape-font-specification:MyriadPro-It;writing-mode:lr-tb;fill:#231f20;fill-opacity:1;fill-rule:nonzero;stroke:none"
       id="text812"><tspan
         x="0"
         y="0"
         id="tspan810">P</tspan></text>
<text
       transform="matrix(1,0,0,-1,383.7279,346.2415)"
       style="font-variant:normal;font-weight:normal;font-stretch:normal;font-size:8px;font-family:Symbol;-inkscape-font-specification:Symbol;writing-mode:lr-tb;fill:#231f20;fill-opacity:1;fill-rule:nonzero;stroke:none"
       id="text816"><tspan
         x="0"
         y="0"
         id="tspan814">β</tspan></text>
<text
       transform="matrix(1,0,0,-1,389.4799,346.2415)"
       style="font-variant:normal;font-weight:normal;font-stretch:normal;font-size:8px;font-family:'Myriad Pro';-inkscape-font-specification:MyriadPro-Regular;writing-mode:lr-tb;fill:#231f20;fill-opacity:1;fill-rule:nonzero;stroke:none"
       id="text820"><tspan
         x="0 2.2720001 6.3759999 10.48 16.816 18.167999 22.808001 24.719999"
         y="0"
         sodipodi:role="line"
         id="tspan818">(95% CI)</tspan></text>
<text
       transform="matrix(1,0,0,-1,440.7439,346.2415)"
       style="font-style:italic;font-variant:normal;font-weight:normal;font-stretch:normal;font-size:8px;font-family:'Myriad Pro';-inkscape-font-specification:MyriadPro-It;writing-mode:lr-tb;fill:#231f20;fill-opacity:1;fill-rule:nonzero;stroke:none"
       id="text824"><tspan
         x="0"
         y="0"
         id="tspan822">P</tspan></text>
<text
       transform="matrix(1,0,0,-1,472.2879,346.2415)"
       style="font-variant:normal;font-weight:normal;font-stretch:normal;font-size:8px;font-family:'Myriad Pro';-inkscape-font-specification:MyriadPro-Regular;writing-mode:lr-tb;fill:#231f20;fill-opacity:1;fill-rule:nonzero;stroke:none"
       id="text828"><tspan
         x="0 5.5120001 9.816 11.176 13.448 17.552 21.656 27.992001 29.351999 33.992001 35.903999"
         y="0"
         sodipodi:role="line"
         id="tspan826">OR (95% CI)</tspan></text>
<text
       transform="matrix(1,0,0,-1,536.2639,346.2415)"
       style="font-style:italic;font-variant:normal;font-weight:normal;font-stretch:normal;font-size:8px;font-family:'Myriad Pro';-inkscape-font-specification:MyriadPro-It;writing-mode:lr-tb;fill:#231f20;fill-opacity:1;fill-rule:nonzero;stroke:none"
       id="text832"><tspan
         x="0"
         y="0"
         id="tspan830">P</tspan></text>
<text
       transform="matrix(1,0,0,-1,47.1679,332.2415)"
       style="font-variant:normal;font-weight:normal;font-stretch:normal;font-size:8px;font-family:'Myriad Pro';-inkscape-font-specification:MyriadPro-Regular;writing-mode:lr-tb;fill:#231f20;fill-opacity:1;fill-rule:nonzero;stroke:none"
       id="text836"><tspan
         x="0 4.256 8.1520004 13.552"
         y="0"
         sodipodi:role="line"
         id="tspan834">PFOA</tspan></text>
<text
       transform="matrix(1,0,0,-1,78.9439,332.2415)"
       style="font-style:italic;font-variant:normal;font-weight:normal;font-stretch:normal;font-size:8px;font-family:'Myriad Pro';-inkscape-font-specification:MyriadPro-It;writing-mode:lr-tb;fill:#231f20;fill-opacity:1;fill-rule:nonzero;stroke:none"
       id="text840"><tspan
         x="0"
         y="0"
         id="tspan838">N</tspan></text>
<text
       transform="matrix(1,0,0,-1,47.1679,318.2415)"
       style="font-variant:normal;font-weight:normal;font-stretch:normal;font-size:8px;font-family:'Myriad Pro';-inkscape-font-specification:MyriadPro-Regular;writing-mode:lr-tb;fill:#231f20;fill-opacity:1;fill-rule:nonzero;stroke:none"
       id="text846"><tspan
         x="0 4.368 8.7040005 12.424 30.200001 34.304001 50.023998 54.792 58.896 63 67.103996 68.456001 70.727997 75.496002 79.599998 83.704002 87.807999 89.463997 90.823997 95.592003 99.695999 103.8 107.904 119.792 123.896 125.552 129.65601 133.75999 149.48 154.248 158.35201 160.008 164.112 165.464 167.73599 172.504 176.608 178.26401 182.368 184.024 185.384 190.15199 194.256 195.912 200.01601 211.90401 216.008 217.664 221.76801 225.87199 238.26401 243.032 247.136 248.79201 252.896 254.248 256.51999 261.28799 265.392 267.048 271.15201 272.80801 274.168 278.272 279.92801 284.03201 299.24799 303.35199 305.008 309.112 313.216 328.936 333.70401 337.80801 339.46399 343.56799 344.92001 347.19199 351.95999 356.064 357.72 361.82401 363.48001 364.84 368.944 370.60001 374.70401 386.59201 390.69601 392.35199 396.45599 400.56 416.28 420.384 422.04001 426.14401 430.24799 431.60001 433.87201 437.97601 439.63199 443.73599 447.84 451.84 455.944 460.048 461.70401 465.80801 469.91199 482.12 486.224 487.88 491.98401 496.08801"
         y="0"
         sodipodi:role="line"
         id="tspan842">Boys81−526 (−828, −222)0.001−1.6 (−2.9, −0.4)0.012−0.6 (−1.3, 0.1)0.103−0.4 (−1.2, 0.5)0.3656.55 (1.14–37.45)0.035</tspan><tspan
         x="0.032000002 5.1999998 7.072 9.7200003 11.608 30.232 34.335999 50.056 54.824001 58.928001 63.032001 67.136002 68.487999 70.760002 75.528 79.632004 83.736 87.839996 89.496002 90.856003 94.959999 99.064003 103.168 119.824 123.928 125.584 129.688 133.79201 149.51199 154.28 158.384 160.03999 164.144 165.496 167.76801 172.536 176.64 178.29601 182.39999 184.056 185.416 189.52 191.17599 195.28 211.936 216.03999 217.696 221.8 225.90401 238.29601 243.064 247.168 248.82401 252.92799 254.28 256.552 261.32001 265.42401 267.07999 271.18399 272.84 274.20001 278.30399 279.95999 284.064 299.28 303.384 305.04001 309.14401 313.24799 328.96799 333.73599 337.84 339.496 343.60001 344.952 347.224 351.992 356.09601 357.75201 361.85599 363.51199 364.87201 368.97601 370.63199 374.73599 386.62399 390.728 392.384 396.48801 400.59201 416.31201 420.41599 422.07199 426.17599 430.28 431.63199 433.90399 438.008 439.664 443.76801 447.87201 451.87201 455.97601 460.07999 461.73599 465.84 482.15201 486.25601 487.91199 492.01599 496.12"
         y="14"
         sodipodi:role="line"
         id="tspan844">Girls78−156 (−541, 228)0.419−0.8 (−2.4, 0.8)0.340−0.1 (−1.0, 0.7)0.728−0.1 (−1.1, 0.9)0.8024.73 (0.79–28.3)0.089</tspan></text>
<text
       transform="matrix(1,0,0,-1,47.1573,293.3225)"
       style="font-variant:normal;font-weight:300;font-stretch:normal;font-size:4.08099985px;font-family:'Myriad Pro';-inkscape-font-specification:MyriadPro-Light;writing-mode:lr-tb;fill:#231f20;fill-opacity:1;fill-rule:nonzero;stroke:none"
       id="text850"><tspan
         x="0"
         y="0"
         id="tspan848">a</tspan></text>
<text
       transform="matrix(1,0,0,-1,49.0101,290.9915)"
       style="font-variant:normal;font-weight:300;font-stretch:normal;font-size:7px;font-family:'Myriad Pro';-inkscape-font-specification:MyriadPro-Light;writing-mode:lr-tb;fill:#231f20;fill-opacity:1;fill-rule:nonzero;stroke:none"
       id="text854"><tspan
         x="0 4.0250001 7.8330002 9.3310003 13.048 15.659 17.780001 21.174999 24.983 26.208 27.937 31.660999 33.726002 34.951 40.683998 43.862 45.983002 49.377998 51.492001 55.243999 58.422001 59.905998 61.131001 64.308998 68.116997 71.512001 72.737 74.592003 77.623001 81.017998 84.195999 86.261002 88.872002 90.726997 91.945 93.169998 96.921997 100.317 101.78 105.588 109.34 111.503 112.728 114.555 117.677 123.41 125.265 126.483 127.708 131.57201 133.56 136.955 140.819 142.80701 146.202 149.95399 153.70599 156.884 160.636 163.89101 166.97099 168.196 171.731 177.177 178.65401 179.879 181.73399 184.772 188.58 191.037"
         y="0"
         sodipodi:role="line"
         id="tspan852">Adjusted for maternal age (years), height (cm), prepregnancy BMI (kg/m</tspan></text>
<text
       transform="matrix(1,0,0,-1,245.7895,293.3225)"
       style="font-variant:normal;font-weight:300;font-stretch:normal;font-size:4.08099985px;font-family:'Myriad Pro';-inkscape-font-specification:MyriadPro-Light;writing-mode:lr-tb;fill:#231f20;fill-opacity:1;fill-rule:nonzero;stroke:none"
       id="text858"><tspan
         x="0"
         y="0"
         id="tspan856">2</tspan></text>
<text
       transform="matrix(1,0,0,-1,247.781,290.9915)"
       style="font-variant:normal;font-weight:300;font-stretch:normal;font-size:7px;font-family:'Myriad Pro';-inkscape-font-specification:MyriadPro-Light;writing-mode:lr-tb;fill:#231f20;fill-opacity:1;fill-rule:nonzero;stroke:none"
       id="text864"><tspan
         x="0 1.855 3.073 4.2979999 7.6929998 11.501 15.218 18.34 21.518 23.681 25.143999 28.868 32.619999 33.845001 35.700001 39.872002 43.287998 44.506001 45.730999 49.146999 52.646999 56.063 59.479 60.696999 61.922001 66.094002 69.510002 72.926003 74.151001 77.231003 79.085999 80.304001 81.528999 85.392998 88.570999 90.684998 92.148003 94.388 97.468002 98.693001 100.548 103.964 105.189 108.913 110.978 112.203 115.619 117.474 118.692 119.917 122.528 128.261 131.985 135.10001 136.563 140.315 144.123 145.34801 147.959 150.12199 153.3 155.463 159.17999 161.791 163.01601 166.194 168.35699 169.582 172.70399 176.42799 180.17999 183.302 186.69701 190.561 192.724 194.187 197.911 201.66299 202.888 204.743 208.159 209.377 210.60201 214.01801 217.51801 220.93401 222.15199 223.377 227.549 230.965 234.381 235.606 238.728 240.19099 243.99899 246.45599 250.26401 252.119 253.33701 254.562 256.02499 259.77701 261.89801 265.293 267.302 269.388 273.25201 275.23999 278.63501 282.38699 286.13901 289.31699 293.069 296.32401 299.40399"
         y="0"
         sodipodi:role="line"
         id="tspan860">), education (&lt;9, 9–12, &gt;12 y), parity (1 or 2), smoking status at conception (0, 1–9, &gt;10 cig/d), inter-pregnancy </tspan><tspan
         x="-200.627 -199.164 -195.412 -193.291 -189.896 -187.621 -184.457 -181.27901 -179.795 -178.57001 -176.715 -172.543 -169.127 -165.711 -164.493 -163.26801 -159.85201 -156.436 -152.936 -149.52 -146.104 -144.886 -143.661 -139.489 -136.073 -132.657 -131.43201 -125.699 -121.975 -120.12 -118.902 -117.677 -114.499 -110.747 -106.939 -105.714 -101.99 -100.156 -98.399002 -95.788002 -91.924004 -89.809998 -88.347 -84.595001 -80.787003 -79.561996 -76.950996 -73.556 -70.553001 -69.328003 -67.473 -61.740002 -58.562 -57.077999 -53.682999 -51.226002 -49.497002 -46.102001 -40.368999 -37.191002 -35.707001 -32.312 -30.457001 -29.239"
         y="8.4980001"
         sodipodi:role="line"
         id="tspan862">interval (&lt;18, 19–60, &gt;60 mo), and offspring sex (male/female). </tspan></text>
<text
       transform="matrix(1,0,0,-1,219.7799,284.8225)"
       style="font-variant:normal;font-weight:300;font-stretch:normal;font-size:4.08099985px;font-family:'Myriad Pro';-inkscape-font-specification:MyriadPro-Light;writing-mode:lr-tb;fill:#231f20;fill-opacity:1;fill-rule:nonzero;stroke:none"
       id="text868"><tspan
         x="0"
         y="0"
         id="tspan866">b</tspan></text>
<text
       transform="matrix(1,0,0,-1,222.0326,282.4915)"
       style="font-variant:normal;font-weight:300;font-stretch:normal;font-size:7px;font-family:'Myriad Pro';-inkscape-font-specification:MyriadPro-Light;writing-mode:lr-tb;fill:#231f20;fill-opacity:1;fill-rule:nonzero;stroke:none"
       id="text872"><tspan
         x="0 4.0250001 7.8330002 9.3310003 13.048 15.659 17.780001 21.174999 24.983 26.208 27.937 31.660999 33.726002 34.951 40.683998 43.862 45.983002 49.377998 51.492001 55.243999 58.422001 59.905998 61.131001 64.308998 68.116997 71.512001 72.737 74.592003 77.623001 81.017998 84.195999 86.261002 88.872002 90.726997 91.945 93.169998 96.921997 100.317 101.78 105.588 109.34 111.503 112.728 114.555 117.677 123.41 125.265 126.483 127.708 131.57201 133.56 136.955 140.819 142.80701 146.202 149.95399 153.70599 156.884 160.636 163.89101 166.97099 168.196 171.731 177.177 178.65401 179.879 181.73399 184.772 188.58 191.037"
         y="0"
         sodipodi:role="line"
         id="tspan870">Adjusted for maternal age (years), height (cm), prepregnancy BMI (kg/m</tspan></text>
<text
       transform="matrix(1,0,0,-1,418.812,284.8225)"
       style="font-variant:normal;font-weight:300;font-stretch:normal;font-size:4.08099985px;font-family:'Myriad Pro';-inkscape-font-specification:MyriadPro-Light;writing-mode:lr-tb;fill:#231f20;fill-opacity:1;fill-rule:nonzero;stroke:none"
       id="text876"><tspan
         x="0"
         y="0"
         id="tspan874">2</tspan></text>
<text
       transform="matrix(1,0,0,-1,420.8034,282.4915)"
       style="font-variant:normal;font-weight:300;font-stretch:normal;font-size:7px;font-family:'Myriad Pro';-inkscape-font-specification:MyriadPro-Light;writing-mode:lr-tb;fill:#231f20;fill-opacity:1;fill-rule:nonzero;stroke:none"
       id="text884"><tspan
         x="0 1.855 3.073 4.2979999 7.6929998 11.501 15.218 18.34 21.518 23.681 25.143999 28.868 32.619999 33.845001 35.700001 39.872002 43.287998 44.506001 45.730999 49.146999 52.646999 56.063 59.479 60.696999 61.922001 66.094002 69.510002 72.926003 74.151001 77.231003 79.085999 80.304001 81.528999 84.139999 89.873001 93.597 96.711998 98.175003 101.927 105.735 106.96 109.571 111.734 114.912 117.075 120.792 123.403"
         y="0"
         sodipodi:role="line"
         id="tspan878">), education (&lt;9, 9–12, &gt;12 y), smoking status </tspan><tspan
         x="-373.646 -370.46799 -368.30499 -367.07999 -363.95801 -360.23401 -356.48199 -353.35999 -349.965 -346.10101 -343.93799 -342.47501 -338.75101 -334.99899 -333.77399 -331.91901 -328.50299 -327.285 -326.06 -322.64401 -319.14401 -315.728 -314.51001 -313.285 -309.11301 -305.69699 -302.28101 -301.056 -297.93399 -296.47101 -292.66299 -290.20599 -286.39801 -284.543 -283.32501 -282.10001 -278.922 -275.17001 -271.362 -270.13699 -268.67401 -264.922 -262.80099 -259.40601 -257.29199 -253.42799 -251.44 -248.045 -244.293 -240.541 -237.36301 -233.61099 -230.356 -227.276 -226.05099 -224.588 -220.836 -218.715 -215.32001 -213.045 -209.881 -206.703 -205.21899 -203.994 -202.13901 -197.967 -194.55099 -191.13499 -189.91701 -188.692 -185.276 -181.86 -178.36 -174.944 -171.528 -170.31 -169.08501 -164.91299 -161.49699 -158.08099 -156.856 -151.123 -147.399 -145.54401"
         y="8.4980001"
         sodipodi:role="line"
         id="tspan880">at conception (0, 1–9, &gt;10 cig/d), and interpregnancy interval (&lt;18, 19–60, &gt;60 mo).</tspan><tspan
         x="-373.646 -370.13199 -366.89801 -362.29199 -358.19699 -356.979 -355.754 -351.89001 -348.495 -346.20599 -344.37201 -342.888 -339.17099 -335.44699 -333.45901 -329.73499 -326.01099 -322.81201 -320.64899 -317.47101 -313.71899 -309.995 -306.81699 -304.69601 -301.371"
         y="16.996"
         sodipodi:role="line"
         id="tspan882">PFOA, perfluorooctanoate.</tspan></text>
</g></svg>