<?xml version="1.0" encoding="UTF-8" standalone="no"?>
<!-- Created with Inkscape (http://www.inkscape.org/) -->

<svg
   xmlns:dc="http://purl.org/dc/elements/1.1/"
   xmlns:cc="http://creativecommons.org/ns#"
   xmlns:rdf="http://www.w3.org/1999/02/22-rdf-syntax-ns#"
   xmlns:svg="http://www.w3.org/2000/svg"
   xmlns="http://www.w3.org/2000/svg"
   xmlns:sodipodi="http://sodipodi.sourceforge.net/DTD/sodipodi-0.dtd"
   xmlns:inkscape="http://www.inkscape.org/namespaces/inkscape"
   version="1.1"
   id="svg2"
   xml:space="preserve"
   width="793.70135"
   height="1054.488"
   viewBox="0 0 793.70135 1054.488"
   sodipodi:docname="table3.svg"
   inkscape:version="0.92.0 r15299"><metadata
     id="metadata8"><rdf:RDF><cc:Work
         rdf:about=""><dc:format>image/svg+xml</dc:format><dc:type
           rdf:resource="http://purl.org/dc/dcmitype/StillImage" /><dc:title></dc:title></cc:Work></rdf:RDF></metadata><defs
     id="defs6" /><sodipodi:namedview
     pagecolor="#ffffff"
     bordercolor="#666666"
     borderopacity="1"
     objecttolerance="10"
     gridtolerance="10"
     guidetolerance="10"
     inkscape:pageopacity="0"
     inkscape:pageshadow="2"
     inkscape:window-width="1920"
     inkscape:window-height="988"
     id="namedview4"
     showgrid="false"
     inkscape:zoom="1.2660339"
     inkscape:cx="695.38375"
     inkscape:cy="774.1818"
     inkscape:window-x="0"
     inkscape:window-y="27"
     inkscape:window-maximized="1"
     inkscape:current-layer="g10" /><g
     id="g10"
     inkscape:groupmode="layer"
     inkscape:label="fulltext"
     transform="matrix(1.3333333,0,0,-1.3333333,0,1054.488)"><g
       id="g142"
       transform="translate(43.1574,670.7812)"><path
         d="M 0,0 H 40.912"
         style="fill:none;stroke:#918f90;stroke-width:0.5;stroke-linecap:butt;stroke-linejoin:miter;stroke-miterlimit:10;stroke-dasharray:none;stroke-opacity:1"
         id="path144"
         inkscape:connector-curvature="0" /></g><g
       id="g146"
       transform="translate(43.1574,698.9822)"><path
         d="M 0,0 H 40.912"
         style="fill:none;stroke:#918f90;stroke-width:0.5;stroke-linecap:butt;stroke-linejoin:miter;stroke-miterlimit:10;stroke-dasharray:none;stroke-opacity:1"
         id="path148"
         inkscape:connector-curvature="0" /></g><g
       id="g150"
       transform="translate(84.0693,698.9822)"><path
         d="M 0,0 H 70.143"
         style="fill:none;stroke:#918f90;stroke-width:0.5;stroke-linecap:butt;stroke-linejoin:miter;stroke-miterlimit:10;stroke-dasharray:none;stroke-opacity:1"
         id="path152"
         inkscape:connector-curvature="0" /></g><g
       id="g154"
       transform="translate(154.2123,698.9822)"><path
         d="M 0,0 H 30.776"
         style="fill:none;stroke:#918f90;stroke-width:0.5;stroke-linecap:butt;stroke-linejoin:miter;stroke-miterlimit:10;stroke-dasharray:none;stroke-opacity:1"
         id="path156"
         inkscape:connector-curvature="0" /></g><g
       id="g158"
       transform="translate(184.9881,698.9822)"><path
         d="M 0,0 H 62.799"
         style="fill:none;stroke:#918f90;stroke-width:0.5;stroke-linecap:butt;stroke-linejoin:miter;stroke-miterlimit:10;stroke-dasharray:none;stroke-opacity:1"
         id="path160"
         inkscape:connector-curvature="0" /></g><g
       id="g162"
       transform="translate(247.7871,698.9822)"><path
         d="M 0,0 H 30.776"
         style="fill:none;stroke:#918f90;stroke-width:0.5;stroke-linecap:butt;stroke-linejoin:miter;stroke-miterlimit:10;stroke-dasharray:none;stroke-opacity:1"
         id="path164"
         inkscape:connector-curvature="0" /></g><g
       id="g166"
       transform="translate(278.5629,698.9822)"><path
         d="M 0,0 H 62.799"
         style="fill:none;stroke:#918f90;stroke-width:0.5;stroke-linecap:butt;stroke-linejoin:miter;stroke-miterlimit:10;stroke-dasharray:none;stroke-opacity:1"
         id="path168"
         inkscape:connector-curvature="0" /></g><g
       id="g170"
       transform="translate(341.3619,698.9822)"><path
         d="M 0,0 H 30.776"
         style="fill:none;stroke:#918f90;stroke-width:0.5;stroke-linecap:butt;stroke-linejoin:miter;stroke-miterlimit:10;stroke-dasharray:none;stroke-opacity:1"
         id="path172"
         inkscape:connector-curvature="0" /></g><g
       id="g174"
       transform="translate(372.1377,698.9822)"><path
         d="M 0,0 H 62.135"
         style="fill:none;stroke:#918f90;stroke-width:0.5;stroke-linecap:butt;stroke-linejoin:miter;stroke-miterlimit:10;stroke-dasharray:none;stroke-opacity:1"
         id="path176"
         inkscape:connector-curvature="0" /></g><g
       id="g178"
       transform="translate(434.2726,698.9822)"><path
         d="M 0,0 H 30.776"
         style="fill:none;stroke:#918f90;stroke-width:0.5;stroke-linecap:butt;stroke-linejoin:miter;stroke-miterlimit:10;stroke-dasharray:none;stroke-opacity:1"
         id="path180"
         inkscape:connector-curvature="0" /></g><g
       id="g182"
       transform="translate(465.0484,698.9822)"><path
         d="M 0,0 H 61.794"
         style="fill:none;stroke:#918f90;stroke-width:0.5;stroke-linecap:butt;stroke-linejoin:miter;stroke-miterlimit:10;stroke-dasharray:none;stroke-opacity:1"
         id="path184"
         inkscape:connector-curvature="0" /></g><g
       id="g186"
       transform="translate(526.8427,698.9822)"><path
         d="M 0,0 H 25.276"
         style="fill:none;stroke:#918f90;stroke-width:0.5;stroke-linecap:butt;stroke-linejoin:miter;stroke-miterlimit:10;stroke-dasharray:none;stroke-opacity:1"
         id="path188"
         inkscape:connector-curvature="0" /></g><g
       id="g190"
       transform="translate(84.0693,670.7812)"><path
         d="M 0,0 H 70.143"
         style="fill:none;stroke:#918f90;stroke-width:0.5;stroke-linecap:butt;stroke-linejoin:miter;stroke-miterlimit:10;stroke-dasharray:none;stroke-opacity:1"
         id="path192"
         inkscape:connector-curvature="0" /></g><g
       id="g194"
       transform="translate(154.2123,670.7812)"><path
         d="M 0,0 H 30.776"
         style="fill:none;stroke:#918f90;stroke-width:0.5;stroke-linecap:butt;stroke-linejoin:miter;stroke-miterlimit:10;stroke-dasharray:none;stroke-opacity:1"
         id="path196"
         inkscape:connector-curvature="0" /></g><g
       id="g198"
       transform="translate(184.9881,670.7812)"><path
         d="M 0,0 H 62.799"
         style="fill:none;stroke:#918f90;stroke-width:0.5;stroke-linecap:butt;stroke-linejoin:miter;stroke-miterlimit:10;stroke-dasharray:none;stroke-opacity:1"
         id="path200"
         inkscape:connector-curvature="0" /></g><g
       id="g202"
       transform="translate(247.7871,670.7812)"><path
         d="M 0,0 H 30.776"
         style="fill:none;stroke:#918f90;stroke-width:0.5;stroke-linecap:butt;stroke-linejoin:miter;stroke-miterlimit:10;stroke-dasharray:none;stroke-opacity:1"
         id="path204"
         inkscape:connector-curvature="0" /></g><g
       id="g206"
       transform="translate(278.5629,670.7812)"><path
         d="M 0,0 H 62.799"
         style="fill:none;stroke:#918f90;stroke-width:0.5;stroke-linecap:butt;stroke-linejoin:miter;stroke-miterlimit:10;stroke-dasharray:none;stroke-opacity:1"
         id="path208"
         inkscape:connector-curvature="0" /></g><g
       id="g210"
       transform="translate(341.3619,670.7812)"><path
         d="M 0,0 H 30.776"
         style="fill:none;stroke:#918f90;stroke-width:0.5;stroke-linecap:butt;stroke-linejoin:miter;stroke-miterlimit:10;stroke-dasharray:none;stroke-opacity:1"
         id="path212"
         inkscape:connector-curvature="0" /></g><g
       id="g214"
       transform="translate(372.1377,670.7812)"><path
         d="M 0,0 H 62.135"
         style="fill:none;stroke:#918f90;stroke-width:0.5;stroke-linecap:butt;stroke-linejoin:miter;stroke-miterlimit:10;stroke-dasharray:none;stroke-opacity:1"
         id="path216"
         inkscape:connector-curvature="0" /></g><g
       id="g218"
       transform="translate(434.2726,670.7812)"><path
         d="M 0,0 H 30.776"
         style="fill:none;stroke:#918f90;stroke-width:0.5;stroke-linecap:butt;stroke-linejoin:miter;stroke-miterlimit:10;stroke-dasharray:none;stroke-opacity:1"
         id="path220"
         inkscape:connector-curvature="0" /></g><g
       id="g222"
       transform="translate(465.0484,670.7812)"><path
         d="M 0,0 H 61.794"
         style="fill:none;stroke:#918f90;stroke-width:0.5;stroke-linecap:butt;stroke-linejoin:miter;stroke-miterlimit:10;stroke-dasharray:none;stroke-opacity:1"
         id="path224"
         inkscape:connector-curvature="0" /></g><g
       id="g226"
       transform="translate(526.8427,670.7812)"><path
         d="M 0,0 H 25.276"
         style="fill:none;stroke:#918f90;stroke-width:0.5;stroke-linecap:butt;stroke-linejoin:miter;stroke-miterlimit:10;stroke-dasharray:none;stroke-opacity:1"
         id="path228"
         inkscape:connector-curvature="0" /></g><g
       id="g230"
       transform="translate(43.1574,446.7812)"><path
         d="M 0,0 H 40.912"
         style="fill:none;stroke:#918f90;stroke-width:0.5;stroke-linecap:butt;stroke-linejoin:miter;stroke-miterlimit:10;stroke-dasharray:none;stroke-opacity:1"
         id="path232"
         inkscape:connector-curvature="0" /></g><g
       id="g234"
       transform="translate(84.0693,446.7812)"><path
         d="M 0,0 H 70.143"
         style="fill:none;stroke:#918f90;stroke-width:0.5;stroke-linecap:butt;stroke-linejoin:miter;stroke-miterlimit:10;stroke-dasharray:none;stroke-opacity:1"
         id="path236"
         inkscape:connector-curvature="0" /></g><g
       id="g238"
       transform="translate(154.2123,446.7812)"><path
         d="M 0,0 H 30.776"
         style="fill:none;stroke:#918f90;stroke-width:0.5;stroke-linecap:butt;stroke-linejoin:miter;stroke-miterlimit:10;stroke-dasharray:none;stroke-opacity:1"
         id="path240"
         inkscape:connector-curvature="0" /></g><g
       id="g242"
       transform="translate(184.9881,446.7812)"><path
         d="M 0,0 H 62.799"
         style="fill:none;stroke:#918f90;stroke-width:0.5;stroke-linecap:butt;stroke-linejoin:miter;stroke-miterlimit:10;stroke-dasharray:none;stroke-opacity:1"
         id="path244"
         inkscape:connector-curvature="0" /></g><g
       id="g246"
       transform="translate(247.7871,446.7812)"><path
         d="M 0,0 H 30.776"
         style="fill:none;stroke:#918f90;stroke-width:0.5;stroke-linecap:butt;stroke-linejoin:miter;stroke-miterlimit:10;stroke-dasharray:none;stroke-opacity:1"
         id="path248"
         inkscape:connector-curvature="0" /></g><g
       id="g250"
       transform="translate(278.5629,446.7812)"><path
         d="M 0,0 H 62.799"
         style="fill:none;stroke:#918f90;stroke-width:0.5;stroke-linecap:butt;stroke-linejoin:miter;stroke-miterlimit:10;stroke-dasharray:none;stroke-opacity:1"
         id="path252"
         inkscape:connector-curvature="0" /></g><g
       id="g254"
       transform="translate(341.3619,446.7812)"><path
         d="M 0,0 H 30.776"
         style="fill:none;stroke:#918f90;stroke-width:0.5;stroke-linecap:butt;stroke-linejoin:miter;stroke-miterlimit:10;stroke-dasharray:none;stroke-opacity:1"
         id="path256"
         inkscape:connector-curvature="0" /></g><g
       id="g258"
       transform="translate(372.1377,446.7812)"><path
         d="M 0,0 H 62.135"
         style="fill:none;stroke:#918f90;stroke-width:0.5;stroke-linecap:butt;stroke-linejoin:miter;stroke-miterlimit:10;stroke-dasharray:none;stroke-opacity:1"
         id="path260"
         inkscape:connector-curvature="0" /></g><g
       id="g262"
       transform="translate(434.2726,446.7812)"><path
         d="M 0,0 H 30.776"
         style="fill:none;stroke:#918f90;stroke-width:0.5;stroke-linecap:butt;stroke-linejoin:miter;stroke-miterlimit:10;stroke-dasharray:none;stroke-opacity:1"
         id="path264"
         inkscape:connector-curvature="0" /></g><g
       id="g266"
       transform="translate(465.0484,446.7812)"><path
         d="M 0,0 H 61.794"
         style="fill:none;stroke:#918f90;stroke-width:0.5;stroke-linecap:butt;stroke-linejoin:miter;stroke-miterlimit:10;stroke-dasharray:none;stroke-opacity:1"
         id="path268"
         inkscape:connector-curvature="0" /></g><g
       id="g270"
       transform="translate(526.8427,446.7812)"><path
         d="M 0,0 H 25.276"
         style="fill:none;stroke:#918f90;stroke-width:0.5;stroke-linecap:butt;stroke-linejoin:miter;stroke-miterlimit:10;stroke-dasharray:none;stroke-opacity:1"
         id="path272"
         inkscape:connector-curvature="0" /></g><text
       transform="matrix(1,0,0,-1,47.1574,713.9822)"
       style="font-variant:normal;font-weight:bold;font-stretch:normal;font-size:8.5px;font-family:'Myriad Pro';-inkscape-font-specification:MyriadPro-Bold;writing-mode:lr-tb;fill:#231f20;fill-opacity:1;fill-rule:nonzero;stroke:none"
       id="text276"><tspan
         x="0 4.0545001 8.5 13.5405 15.8355 20.281 21.615499 26.290501 28.458"
         y="0"
         sodipodi:role="line"
         id="tspan274">table 3. </tspan></text>
<text
       transform="matrix(1,0,0,-1,79.8229,713.9822)"
       style="font-variant:normal;font-weight:normal;font-stretch:normal;font-size:8.5px;font-family:'Myriad Pro';-inkscape-font-specification:MyriadPro-Regular;writing-mode:lr-tb;fill:#231f20;fill-opacity:1;fill-rule:nonzero;stroke:none"
       id="text280"><tspan
         x="0 4.5984998 8.8144999 11.5855 15.64 17.0425 20.757 25.381001 29.597 32.036499 34.476002 36.422501 40.188 42.134499 46.350498 50.991501 53.762501 57.085999 58.488499"
         y="0"
         sodipodi:role="line"
         id="tspan278">Beta coefficients (</tspan></text>
<text
       transform="matrix(1,0,0,-1,140.6829,713.9822)"
       style="font-variant:normal;font-weight:normal;font-stretch:normal;font-size:8.5px;font-family:Symbol;-inkscape-font-specification:Symbol;writing-mode:lr-tb;fill:#231f20;fill-opacity:1;fill-rule:nonzero;stroke:none"
       id="text284"><tspan
         x="0"
         y="0"
         id="tspan282">β</tspan></text>
<text
       transform="matrix(1,0,0,-1,145.2984,713.9822)"
       style="font-variant:normal;font-weight:normal;font-stretch:normal;font-size:8.5px;font-family:'Myriad Pro';-inkscape-font-specification:MyriadPro-Regular;writing-mode:lr-tb;fill:#231f20;fill-opacity:1;fill-rule:nonzero;stroke:none"
       id="text290"><tspan
         x="0 2.3715 3.7739999 7.8284998 12.5035 17.254999 18.657499 23.2815 28.033001 32.7845 36.108002 37.510502 40.205002 44.225498 46.996498 48.943001 53.567001 56.890499 58.292999 60.5625 66.376503 70.906998 74.230499 76.601997 78.004501 84.218002 86.164497 88.935501 93.610497 95.013 99.331001 103.649 110.3385 111.741 115.4555 120.0795 124.7545 127.194 129.1405 133.892 138.108 142.783 146.4975 150.7135 152.116 154.0625 158.70351 161.42349 165.6395 168.589 172.601 176.6555 178.619 181.9425 183.345 185.71651 190.0345 194.35249 201.04201 202.4445 207.332 209.321 211.6925 213.095 215.424 220.048 222.785 224.1875 228.242 231.56551 234.88901 239.513 243.2785 245.22501 249.2455 252.01649 253.963 258.58701 263.26199 266.58551 267.98801 272.78201 276.99799 279.84549 285.974 290.19 294.40601 299.08099 300.48349 304.96301 308.397 313.55649 317.7045 319.10699 323.1615 327.83649 332.58801 333.99051 338.6145 341.28351 345.99249 350.047 354.72198 359.34601 363.11151 367.7865 369.75 374.37399 377.14499 379.09149 383.76651 387.98251 391.34851"
         y="0"
         sodipodi:role="line"
         id="tspan286">) and odds ratios (ORs) with 95% confidence intervals (95% CI) for associations between PFAS and organochlorines </tspan><tspan
         x="-98.140999 -94.086502 -89.411499 -84.660004 -83.2575 -81.310997 -76.636002 -71.884499 -69.938004 -66.223503 -62.0075 -58.683998 -57.281502 -52.657501 -50.217999 -48.815498 -46.4865 -42.2705 -39.4995 -35.445 -33.481499 -32.078999 -27.421 -24.768999 -20.2045 -13.991 -11.22 -6.5450001 -5.1424999 -2.7709999 2.7795 7.4035001 10.353 16.532499 20.518999 24.684 26.400999"
         y="10.999"
         sodipodi:role="line"
         id="tspan288">and indices of fetal growth (Norway: </tspan></text>
<text
       transform="matrix(1,0,0,-1,173.1019,702.9832)"
       style="font-style:italic;font-variant:normal;font-weight:normal;font-stretch:normal;font-size:8.5px;font-family:'Myriad Pro';-inkscape-font-specification:MyriadPro-It;writing-mode:lr-tb;fill:#231f20;fill-opacity:1;fill-rule:nonzero;stroke:none"
       id="text294"><tspan
         x="0"
         y="0"
         id="tspan292">N</tspan></text>
<text
       transform="matrix(1,0,0,-1,179.8084,702.9832)"
       style="font-variant:normal;font-weight:normal;font-stretch:normal;font-size:8.5px;font-family:'Myriad Pro';-inkscape-font-specification:MyriadPro-Regular;writing-mode:lr-tb;fill:#231f20;fill-opacity:1;fill-rule:nonzero;stroke:none"
       id="text298"><tspan
         x="0 5.0235 6.4260001 10.744 15.062 19.379999 21.097 22.4995 26.5795 32.708 36.924 41.675499 45.891499 50.566502 52.283501"
         y="0"
         sodipodi:role="line"
         id="tspan296">= 265, Sweden: </tspan></text>
<text
       transform="matrix(1,0,0,-1,233.4944,702.9832)"
       style="font-style:italic;font-variant:normal;font-weight:normal;font-stretch:normal;font-size:8.5px;font-family:'Myriad Pro';-inkscape-font-specification:MyriadPro-It;writing-mode:lr-tb;fill:#231f20;fill-opacity:1;fill-rule:nonzero;stroke:none"
       id="text302"><tspan
         x="0"
         y="0"
         id="tspan300">N</tspan></text>
<text
       transform="matrix(1,0,0,-1,240.2094,702.9832)"
       style="font-variant:normal;font-weight:normal;font-stretch:normal;font-size:8.5px;font-family:'Myriad Pro';-inkscape-font-specification:MyriadPro-Regular;writing-mode:lr-tb;fill:#231f20;fill-opacity:1;fill-rule:nonzero;stroke:none"
       id="text306"><tspan
         x="0 5.0235 6.4260001 10.744 15.062 19.379999"
         y="0"
         sodipodi:role="line"
         id="tspan304">= 159)</tspan></text>
<g
       id="g308"
       transform="translate(86.0693,685.8976)"><path
         d="M 0,0 H 96.919"
         style="fill:none;stroke:#231f20;stroke-width:0.5;stroke-linecap:butt;stroke-linejoin:miter;stroke-miterlimit:10;stroke-dasharray:none;stroke-opacity:1"
         id="path310"
         inkscape:connector-curvature="0" /></g><text
       transform="matrix(1,0,0,-1,107.8804,688.9822)"
       style="font-variant:normal;font-weight:normal;font-stretch:normal;font-size:8px;font-family:'Myriad Pro';-inkscape-font-specification:MyriadPro-Regular;writing-mode:lr-tb;fill:#231f20;fill-opacity:1;fill-rule:nonzero;stroke:none"
       id="text314"><tspan
         x="0 4.336 6.2080002 9.0159998 11.664 16.104 17.464001 23.271999 27.280001 29.152 33.624001 38.032001 40.68 42.040001 44.312 48.784"
         y="0"
         sodipodi:role="line"
         id="tspan312">Birth weight (g)</tspan></text>
<text
       transform="matrix(1,0,0,-1,158.9291,691.6462)"
       style="font-variant:normal;font-weight:normal;font-stretch:normal;font-size:4.66400003px;font-family:'Myriad Pro';-inkscape-font-specification:MyriadPro-Regular;writing-mode:lr-tb;fill:#231f20;fill-opacity:1;fill-rule:nonzero;stroke:none"
       id="text318"><tspan
         x="0"
         y="0"
         id="tspan316">a</tspan></text>
<g
       id="g320"
       transform="translate(186.9881,685.8976)"><path
         d="M 0,0 H 89.575"
         style="fill:none;stroke:#231f20;stroke-width:0.5;stroke-linecap:butt;stroke-linejoin:miter;stroke-miterlimit:10;stroke-dasharray:none;stroke-opacity:1"
         id="path322"
         inkscape:connector-curvature="0" /></g><text
       transform="matrix(1,0,0,-1,202.8952,688.9822)"
       style="font-variant:normal;font-weight:normal;font-stretch:normal;font-size:8px;font-family:'Myriad Pro';-inkscape-font-specification:MyriadPro-Regular;writing-mode:lr-tb;fill:#231f20;fill-opacity:1;fill-rule:nonzero;stroke:none"
       id="text326"><tspan
         x="0 4.336 6.2080002 9.0159998 11.664 16.104 17.464001 19.351999 23.360001 27.799999 32.271999 34.919998 39.360001 40.712002 42.984001 46.568001 53.240002"
         y="0"
         sodipodi:role="line"
         id="tspan324">Birth length (cm)</tspan></text>
<text
       transform="matrix(1,0,0,-1,258.4079,691.6462)"
       style="font-variant:normal;font-weight:normal;font-stretch:normal;font-size:4.66400003px;font-family:'Myriad Pro';-inkscape-font-specification:MyriadPro-Regular;writing-mode:lr-tb;fill:#231f20;fill-opacity:1;fill-rule:nonzero;stroke:none"
       id="text330"><tspan
         x="0"
         y="0"
         id="tspan328">a</tspan></text>
<g
       id="g332"
       transform="translate(280.5629,685.8976)"><path
         d="M 0,0 H 89.575"
         style="fill:none;stroke:#231f20;stroke-width:0.5;stroke-linecap:butt;stroke-linejoin:miter;stroke-miterlimit:10;stroke-dasharray:none;stroke-opacity:1"
         id="path334"
         inkscape:connector-curvature="0" /></g><text
       transform="matrix(1,0,0,-1,282.9619,688.9822)"
       style="font-variant:normal;font-weight:normal;font-stretch:normal;font-size:8px;font-family:'Myriad Pro';-inkscape-font-specification:MyriadPro-Regular;writing-mode:lr-tb;fill:#231f20;fill-opacity:1;fill-rule:nonzero;stroke:none"
       id="text338"><tspan
         x="0 5.2160001 9.224 13.08 17.591999 18.952 22.535999 24.408001 26.944 30.528 34.936001 41.608002 43.84 47.848 50.383999 54.391998 58.832001 62.368"
         y="0"
         sodipodi:role="line"
         id="tspan336">Head circumference</tspan></text>
<text
       transform="matrix(1,0,0,-1,349.3341,691.6462)"
       style="font-variant:normal;font-weight:normal;font-stretch:normal;font-size:4.66400003px;font-family:'Myriad Pro';-inkscape-font-specification:MyriadPro-Regular;writing-mode:lr-tb;fill:#231f20;fill-opacity:1;fill-rule:nonzero;stroke:none"
       id="text342"><tspan
         x="0"
         y="0"
         id="tspan340">a</tspan></text>
<text
       transform="matrix(1,0,0,-1,352.9421,688.9822)"
       style="font-variant:normal;font-weight:normal;font-stretch:normal;font-size:8px;font-family:'Myriad Pro';-inkscape-font-specification:MyriadPro-Regular;writing-mode:lr-tb;fill:#231f20;fill-opacity:1;fill-rule:nonzero;stroke:none"
       id="text346"><tspan
         x="0 2.2720001 5.8559999 12.528"
         y="0"
         sodipodi:role="line"
         id="tspan344">(cm)</tspan></text>
<g
       id="g348"
       transform="translate(374.1377,685.8976)"><path
         d="M 0,0 H 88.911"
         style="fill:none;stroke:#231f20;stroke-width:0.5;stroke-linecap:butt;stroke-linejoin:miter;stroke-miterlimit:10;stroke-dasharray:none;stroke-opacity:1"
         id="path350"
         inkscape:connector-curvature="0" /></g><text
       transform="matrix(1,0,0,-1,378.3249,688.9822)"
       style="font-variant:normal;font-weight:normal;font-stretch:normal;font-size:8px;font-family:'Myriad Pro';-inkscape-font-specification:MyriadPro-Regular;writing-mode:lr-tb;fill:#231f20;fill-opacity:1;fill-rule:nonzero;stroke:none"
       id="text354"><tspan
         x="0 5.2080002 9.2159996 12.384 15.032 18.856001 21.504 23.375999 27.768 32.208 36.063999 37.952 39.304001 43.16 47.632"
         y="0"
         sodipodi:role="line"
         id="tspan352">Gestational age</tspan></text>
<text
       transform="matrix(1,0,0,-1,429.9688,691.6462)"
       style="font-variant:normal;font-weight:normal;font-stretch:normal;font-size:4.66400003px;font-family:'Myriad Pro';-inkscape-font-specification:MyriadPro-Regular;writing-mode:lr-tb;fill:#231f20;fill-opacity:1;fill-rule:nonzero;stroke:none"
       id="text358"><tspan
         x="0"
         y="0"
         id="tspan356">a</tspan></text>
<text
       transform="matrix(1,0,0,-1,433.5769,688.9822)"
       style="font-variant:normal;font-weight:normal;font-stretch:normal;font-size:8px;font-family:'Myriad Pro';-inkscape-font-specification:MyriadPro-Regular;writing-mode:lr-tb;fill:#231f20;fill-opacity:1;fill-rule:nonzero;stroke:none"
       id="text362"><tspan
         x="0 2.2720001 8.0799999 12.088 16.096001 19.848 23.016001"
         y="0"
         sodipodi:role="line"
         id="tspan360">(weeks)</tspan></text>
<g
       id="g364"
       transform="translate(467.0485,685.8976)"><path
         d="M 0,0 H 83.07"
         style="fill:none;stroke:#231f20;stroke-width:0.5;stroke-linecap:butt;stroke-linejoin:miter;stroke-miterlimit:10;stroke-dasharray:none;stroke-opacity:1"
         id="path366"
         inkscape:connector-curvature="0" /></g><text
       transform="matrix(1,0,0,-1,500.2646,688.9822)"
       style="font-variant:normal;font-weight:normal;font-stretch:normal;font-size:8px;font-family:'Myriad Pro';-inkscape-font-specification:MyriadPro-Regular;writing-mode:lr-tb;fill:#231f20;fill-opacity:1;fill-rule:nonzero;stroke:none"
       id="text370"><tspan
         x="0 3.944 9.1120005"
         y="0"
         sodipodi:role="line"
         id="tspan368">SGA</tspan></text>
<text
       transform="matrix(1,0,0,-1,514.2486,691.6462)"
       style="font-variant:normal;font-weight:normal;font-stretch:normal;font-size:4.66400003px;font-family:'Myriad Pro';-inkscape-font-specification:MyriadPro-Regular;writing-mode:lr-tb;fill:#231f20;fill-opacity:1;fill-rule:nonzero;stroke:none"
       id="text374"><tspan
         x="0"
         y="0"
         id="tspan372">b</tspan></text>
<text
       transform="matrix(1,0,0,-1,99.7684,674.7812)"
       style="font-variant:normal;font-weight:normal;font-stretch:normal;font-size:8px;font-family:Symbol;-inkscape-font-specification:Symbol;writing-mode:lr-tb;fill:#231f20;fill-opacity:1;fill-rule:nonzero;stroke:none"
       id="text378"><tspan
         x="0"
         y="0"
         id="tspan376">β</tspan></text>
<text
       transform="matrix(1,0,0,-1,105.5204,674.7812)"
       style="font-variant:normal;font-weight:normal;font-stretch:normal;font-size:8px;font-family:'Myriad Pro';-inkscape-font-specification:MyriadPro-Regular;writing-mode:lr-tb;fill:#231f20;fill-opacity:1;fill-rule:nonzero;stroke:none"
       id="text382"><tspan
         x="0 2.2720001 6.3759999 10.48 16.816 18.167999 22.808001 24.719999"
         y="0"
         sodipodi:role="line"
         id="tspan380">(95% CI)</tspan></text>
<text
       transform="matrix(1,0,0,-1,164.0724,674.7812)"
       style="font-style:italic;font-variant:normal;font-weight:normal;font-stretch:normal;font-size:8px;font-family:'Myriad Pro';-inkscape-font-specification:MyriadPro-It;writing-mode:lr-tb;fill:#231f20;fill-opacity:1;fill-rule:nonzero;stroke:none"
       id="text386"><tspan
         x="0"
         y="0"
         id="tspan384">P</tspan></text>
<text
       transform="matrix(1,0,0,-1,197.0164,674.7812)"
       style="font-variant:normal;font-weight:normal;font-stretch:normal;font-size:8px;font-family:Symbol;-inkscape-font-specification:Symbol;writing-mode:lr-tb;fill:#231f20;fill-opacity:1;fill-rule:nonzero;stroke:none"
       id="text390"><tspan
         x="0"
         y="0"
         id="tspan388">β</tspan></text>
<text
       transform="matrix(1,0,0,-1,202.7684,674.7812)"
       style="font-variant:normal;font-weight:normal;font-stretch:normal;font-size:8px;font-family:'Myriad Pro';-inkscape-font-specification:MyriadPro-Regular;writing-mode:lr-tb;fill:#231f20;fill-opacity:1;fill-rule:nonzero;stroke:none"
       id="text394"><tspan
         x="0 2.2720001 6.3759999 10.48 16.816 18.167999 22.808001 24.719999"
         y="0"
         sodipodi:role="line"
         id="tspan392">(95% CI)</tspan></text>
<text
       transform="matrix(1,0,0,-1,257.6484,674.7812)"
       style="font-style:italic;font-variant:normal;font-weight:normal;font-stretch:normal;font-size:8px;font-family:'Myriad Pro';-inkscape-font-specification:MyriadPro-It;writing-mode:lr-tb;fill:#231f20;fill-opacity:1;fill-rule:nonzero;stroke:none"
       id="text398"><tspan
         x="0"
         y="0"
         id="tspan396">P</tspan></text>
<text
       transform="matrix(1,0,0,-1,290.5924,674.7812)"
       style="font-variant:normal;font-weight:normal;font-stretch:normal;font-size:8px;font-family:Symbol;-inkscape-font-specification:Symbol;writing-mode:lr-tb;fill:#231f20;fill-opacity:1;fill-rule:nonzero;stroke:none"
       id="text402"><tspan
         x="0"
         y="0"
         id="tspan400">β</tspan></text>
<text
       transform="matrix(1,0,0,-1,296.3444,674.7812)"
       style="font-variant:normal;font-weight:normal;font-stretch:normal;font-size:8px;font-family:'Myriad Pro';-inkscape-font-specification:MyriadPro-Regular;writing-mode:lr-tb;fill:#231f20;fill-opacity:1;fill-rule:nonzero;stroke:none"
       id="text406"><tspan
         x="0 2.2720001 6.3759999 10.48 16.816 18.167999 22.808001 24.719999"
         y="0"
         sodipodi:role="line"
         id="tspan404">(95% CI)</tspan></text>
<text
       transform="matrix(1,0,0,-1,351.2244,674.7812)"
       style="font-style:italic;font-variant:normal;font-weight:normal;font-stretch:normal;font-size:8px;font-family:'Myriad Pro';-inkscape-font-specification:MyriadPro-It;writing-mode:lr-tb;fill:#231f20;fill-opacity:1;fill-rule:nonzero;stroke:none"
       id="text410"><tspan
         x="0"
         y="0"
         id="tspan408">P</tspan></text>
<text
       transform="matrix(1,0,0,-1,383.8324,674.7812)"
       style="font-variant:normal;font-weight:normal;font-stretch:normal;font-size:8px;font-family:Symbol;-inkscape-font-specification:Symbol;writing-mode:lr-tb;fill:#231f20;fill-opacity:1;fill-rule:nonzero;stroke:none"
       id="text414"><tspan
         x="0"
         y="0"
         id="tspan412">β</tspan></text>
<text
       transform="matrix(1,0,0,-1,389.5844,674.7812)"
       style="font-variant:normal;font-weight:normal;font-stretch:normal;font-size:8px;font-family:'Myriad Pro';-inkscape-font-specification:MyriadPro-Regular;writing-mode:lr-tb;fill:#231f20;fill-opacity:1;fill-rule:nonzero;stroke:none"
       id="text418"><tspan
         x="0 2.2720001 6.3759999 10.48 16.816 18.167999 22.808001 24.719999"
         y="0"
         sodipodi:role="line"
         id="tspan416">(95% CI)</tspan></text>
<text
       transform="matrix(1,0,0,-1,444.1284,674.7812)"
       style="font-style:italic;font-variant:normal;font-weight:normal;font-stretch:normal;font-size:8px;font-family:'Myriad Pro';-inkscape-font-specification:MyriadPro-It;writing-mode:lr-tb;fill:#231f20;fill-opacity:1;fill-rule:nonzero;stroke:none"
       id="text422"><tspan
         x="0"
         y="0"
         id="tspan420">P</tspan></text>
<text
       transform="matrix(1,0,0,-1,473.8564,674.7812)"
       style="font-variant:normal;font-weight:normal;font-stretch:normal;font-size:8px;font-family:'Myriad Pro';-inkscape-font-specification:MyriadPro-Regular;writing-mode:lr-tb;fill:#231f20;fill-opacity:1;fill-rule:nonzero;stroke:none"
       id="text426"><tspan
         x="0 5.5120001 9.816 11.176 13.448 17.552 21.656 27.992001 29.351999 33.992001 35.903999"
         y="0"
         sodipodi:role="line"
         id="tspan424">OR (95% CI)</tspan></text>
<text
       transform="matrix(1,0,0,-1,536.4484,674.7812)"
       style="font-style:italic;font-variant:normal;font-weight:normal;font-stretch:normal;font-size:8px;font-family:'Myriad Pro';-inkscape-font-specification:MyriadPro-It;writing-mode:lr-tb;fill:#231f20;fill-opacity:1;fill-rule:nonzero;stroke:none"
       id="text430"><tspan
         x="0"
         y="0"
         id="tspan428">P</tspan></text>
<text
       transform="matrix(1,0,0,-1,47.1524,660.7812)"
       style="font-variant:normal;font-weight:normal;font-stretch:normal;font-size:8px;font-family:'Myriad Pro';-inkscape-font-specification:MyriadPro-Regular;writing-mode:lr-tb;fill:#231f20;fill-opacity:1;fill-rule:nonzero;stroke:none"
       id="text440"><tspan
         x="0 5.2639999 9.6560001 12.472 18.327999 22.120001"
         y="0"
         sodipodi:role="line"
         id="tspan432">Norway</tspan><tspan
         x="0 4.256 8.1520004 13.552 47.776001 51.880001 55.984001 57.344002 59.616001 64.384003 68.487999 72.592003 74.248001 75.599998 79.704002 83.807999 87.912003 109.904 114.008 115.664 119.768 123.872 144.584 149.35201 153.45599 155.112 159.216 160.576 162.84801 167.616 171.72 173.37601 177.48 179.136 180.496 184.60001 186.256 190.36 203.48 207.584 209.24001 213.34399 217.448 242.92799 247.032 248.688 252.79201 254.15199 256.42401 261.19199 265.29599 266.952 271.056 272.71201 274.064 278.168 279.82401 283.92801 297.056 301.16 302.81601 306.92001 311.02399 331.07199 335.84 339.944 341.60001 345.70401 347.064 349.336 354.104 358.20801 359.86401 363.96799 365.62399 366.97601 371.07999 372.73599 376.84 389.96799 394.07199 395.728 399.832 403.936 419.88 423.98401 425.64001 429.74399 433.84799 435.20001 437.47198 441.57599 443.23199 447.336 451.44 455.44 459.54401 461.20001 465.30399 469.40799 482.28799 486.392 488.048 492.15201 496.25601"
         y="14"
         sodipodi:role="line"
         id="tspan434">PFOA37 (−99, 174)0.590−0.1 (−0.7, 0.4)0.6560.2 (−0.2, 0.5)0.354−0.2 (−0.6, 0.2)0.4310.66 (0.33–1.33)0.246</tspan><tspan
         x="0 4.256 8.1520004 13.664 47.776001 51.880001 55.984001 57.344002 59.616001 64.384003 68.487999 72.592003 74.248001 75.599998 79.704002 83.807999 87.912003 109.904 114.008 115.664 119.768 123.872 144.584 149.35201 153.45599 155.112 159.216 160.576 162.84801 167.616 171.72 173.37601 177.48 179.136 180.496 184.60001 186.256 190.36 203.48 207.584 209.24001 213.34399 217.448 242.92799 247.032 248.688 252.79201 254.15199 256.42401 261.19199 265.29599 266.952 271.056 272.71201 274.064 278.168 279.82401 283.92801 297.056 301.16 302.81601 306.92001 311.02399 326.96799 331.73599 335.84 337.496 341.60001 345.70401 347.056 349.328 354.09601 358.20001 359.85599 363.95999 365.616 366.97601 371.07999 372.73599 376.84 389.96799 394.07199 395.728 399.832 403.936 419.88 423.98401 425.64001 429.74399 433.84799 435.20001 437.47198 441.57599 443.23199 447.336 451.44 455.44 459.54401 461.20001 465.30399 469.40799 482.28799 486.392 488.048 492.15201 496.25601"
         y="28"
         sodipodi:role="line"
         id="tspan436">PFOS74 (−31, 178)0.167−0.0 (−0.4, 0.4)0.9870.2 (−0.1, 0.4)0.189−0.01 (−0.3, 0.3)0.9520.71 (0.42–1.20)0.201</tspan><tspan
         x="0 4.256 8.8959999 13.232 14.592 18.695999 22.799999 43.672001 47.776001 51.880001 55.984001 57.344002 59.616001 64.384003 68.487999 72.592003 76.695999 78.351997 79.704002 83.807999 87.912003 92.015999 109.904 114.008 115.664 119.768 123.872 144.584 149.35201 153.45599 155.112 159.216 160.576 162.84801 167.616 171.72 173.37601 177.48 179.136 180.496 184.60001 186.256 190.36 203.48 207.584 209.24001 213.34399 217.448 242.92799 247.032 248.688 252.79201 254.15199 256.42401 261.19199 265.29599 266.952 271.056 272.71201 274.064 278.168 279.82401 283.92801 297.056 301.16 302.81601 306.92001 311.02399 335.84 339.944 341.60001 345.70401 347.064 349.336 354.104 358.20801 359.86401 363.96799 365.62399 366.97601 371.07999 372.73599 376.84 389.96799 394.07199 395.728 399.832 403.936 419.88 423.98401 425.64001 429.74399 433.84799 435.20001 437.47198 441.57599 443.23199 447.336 451.44 455.44 459.54401 461.20001 465.30399 469.40799 482.28799 486.392 488.048 492.15201 496.25601"
         y="42"
         sodipodi:role="line"
         id="tspan438">PCB 153100 (−104, 304)0.334−0.1 (−1.0, 0.7)0.7720.2 (−0.3, 0.7)0.5070.1 (−0.5, 0.7)0.6930.70 (0.25–1.98)0.502</tspan></text>
<text
       transform="matrix(1,0,0,-1,47.1524,604.7812)"
       style="font-style:italic;font-variant:normal;font-weight:normal;font-stretch:normal;font-size:8px;font-family:'Myriad Pro';-inkscape-font-specification:MyriadPro-It;writing-mode:lr-tb;fill:#231f20;fill-opacity:1;fill-rule:nonzero;stroke:none"
       id="text444"><tspan
         x="0 4.0560002 5.744 9.6079998"
         y="0"
         sodipodi:role="line"
         id="tspan442">p,p’</tspan></text>
<text
       transform="matrix(1,0,0,-1,58.3124,604.7812)"
       style="font-variant:normal;font-weight:normal;font-stretch:normal;font-size:8px;font-family:'Myriad Pro';-inkscape-font-specification:MyriadPro-Regular;writing-mode:lr-tb;fill:#231f20;fill-opacity:1;fill-rule:nonzero;stroke:none"
       id="text450"><tspan
         x="0 2.4560001 7.7839999 13.112 36.616001 40.720001 44.824001 46.183998 48.456001 53.223999 57.327999 61.431999 63.088001 64.440002 68.543999 72.648003 76.751999 98.744003 102.848 104.504 108.608 112.712 138.192 142.29601 143.952 148.056 149.416 151.688 156.45599 160.56 162.216 166.32001 167.976 169.328 173.43201 175.088 179.192 192.32001 196.424 198.08 202.18401 206.28799 231.76801 235.87199 237.528 241.632 242.992 245.26401 250.032 254.136 255.79201 259.896 261.552 262.90399 267.008 268.664 272.76801 285.896 290 291.65601 295.76001 299.86401 315.80801 320.57599 324.67999 326.336 330.44 334.54401 335.896 338.168 342.936 347.04001 348.69601 352.79999 354.45599 355.81601 359.92001 361.57599 365.67999 378.80801 382.91199 384.56799 388.672 392.776 408.72 412.82401 414.48001 418.58401 422.68799 424.04001 426.31201 430.41599 432.07199 436.17599 440.28 444.28 448.384 450.04001 454.14401 458.24799 471.12799 475.23199 476.888 480.992 485.09601"
         y="0"
         sodipodi:role="line"
         id="tspan446">-DDE46 (−47, 139)0.3270.2 (−0.2, 0.6)0.3060.1 (−0.2, 0.3)0.531−0.04 (−0.3, 0.2)0.7470.73 (0.46–1.15)0.174</tspan><tspan
         x="-11.16 -5.9439998 -1.304 34.568001 38.672001 42.776001 44.136002 46.408001 51.175999 55.279999 59.383999 63.487999 65.143997 66.496002 70.599998 74.704002 78.807999 98.744003 102.848 104.504 108.608 112.712 138.192 142.29601 143.952 148.056 149.416 151.688 156.45599 160.56 162.216 166.32001 167.976 169.328 173.43201 175.088 179.192 192.32001 196.424 198.08 202.18401 206.28799 231.76801 235.87199 237.528 241.632 242.992 245.26401 250.032 254.136 255.79201 259.896 261.552 262.90399 267.008 268.664 272.76801 285.896 290 291.65601 295.76001 299.86401 319.91199 324.67999 328.784 330.44 334.54401 335.90399 338.17599 342.944 347.048 348.70401 352.80801 354.46399 355.81601 359.92001 361.57599 365.67999 378.80801 382.91199 384.56799 388.672 392.776 408.72 412.82401 414.48001 418.58401 422.68799 424.04001 426.31201 430.41599 432.07199 436.17599 440.28 444.28 448.384 450.04001 454.14401 458.24799 471.12799 475.23199 476.888 480.992 485.09601"
         y="14"
         sodipodi:role="line"
         id="tspan448">HCB61 (−132, 255)0.5340.1 (−0.7, 0.9)0.7920.1 (−0.4, 0.6)0.626−0.1 (−0.6, 0.5)0.7560.52 (0.20–1.34)0.176</tspan></text>
<text
       transform="matrix(1,0,0,-1,47.1524,576.7812)"
       style="font-style:italic;font-variant:normal;font-weight:normal;font-stretch:normal;font-size:8px;font-family:'Myriad Pro';-inkscape-font-specification:MyriadPro-It;writing-mode:lr-tb;fill:#231f20;fill-opacity:1;fill-rule:nonzero;stroke:none"
       id="text454"><tspan
         x="0 4.2080002"
         y="0"
         sodipodi:role="line"
         id="tspan452">B-</tspan></text>
<text
       transform="matrix(1,0,0,-1,53.8164,576.7812)"
       style="font-variant:normal;font-weight:normal;font-stretch:normal;font-size:8px;font-family:'Myriad Pro';-inkscape-font-specification:MyriadPro-Regular;writing-mode:lr-tb;fill:#231f20;fill-opacity:1;fill-rule:nonzero;stroke:none"
       id="text458"><tspan
         x="0 5.2160001 9.8559999 38.728001 43.495998 47.599998 51.703999 53.063999 55.335999 60.104 64.208 68.311996 72.416 74.071999 75.424004 79.528 83.632004 103.24 107.344 109 113.104 117.208 137.92 142.688 146.79201 148.448 152.552 153.912 156.18401 160.952 165.056 166.71201 170.81599 172.472 173.832 177.936 179.592 183.696 196.81599 200.92 202.576 206.67999 210.784 231.496 236.26401 240.368 242.024 246.12801 247.48 249.752 254.52 258.62399 260.28 264.384 266.04001 267.39999 271.504 273.16 277.26401 290.392 294.496 296.15201 300.25601 304.35999 324.40799 329.17599 333.28 334.936 339.04001 340.39999 342.672 347.44 351.54401 353.20001 357.30399 358.95999 360.31201 364.41599 366.07199 370.17599 383.30399 387.40799 389.064 393.168 397.272 413.216 417.32001 418.97601 423.07999 427.18399 428.53601 430.80801 434.91199 436.56799 440.672 444.776 448.776 452.88 454.53601 458.64001 462.74399 475.62399 479.728 481.384 485.48801 489.59201"
         y="0"
         sodipodi:role="line"
         id="tspan456">HCH−73 (−231, 86)0.368−0.5 (−1.1, 0.2)0.152−0.1 (−0.5, 0.3)0.614−0.1 (−0.6, 0.3)0.5920.76 (0.33–1.71)0.500</tspan></text>
<text
       transform="matrix(1,0,0,-1,47.1524,562.7812)"
       style="font-style:italic;font-variant:normal;font-weight:normal;font-stretch:normal;font-size:8px;font-family:'Myriad Pro';-inkscape-font-specification:MyriadPro-It;writing-mode:lr-tb;fill:#231f20;fill-opacity:1;fill-rule:nonzero;stroke:none"
       id="text462"><tspan
         x="0 2.5039999"
         y="0"
         sodipodi:role="line"
         id="tspan460">t-</tspan></text>
<text
       transform="matrix(1,0,0,-1,52.1124,562.7812)"
       style="font-variant:normal;font-weight:normal;font-stretch:normal;font-size:8px;font-family:'Myriad Pro';-inkscape-font-specification:MyriadPro-Regular;writing-mode:lr-tb;fill:#231f20;fill-opacity:1;fill-rule:nonzero;stroke:none"
       id="text474"><tspan
         x="0 5.2639999 42.816002 46.919998 51.023998 52.383999 54.655998 59.424 63.528 67.632004 69.288002 70.639999 74.744003 78.848 82.952003 104.944 109.048 110.704 114.808 118.912 144.392 148.496 150.15199 154.256 155.616 157.888 162.65601 166.75999 168.416 172.52 174.17599 175.528 179.632 181.28799 185.392 198.52 202.62399 204.28 208.384 212.48801 233.864 237.968 239.62399 243.728 245.088 247.36 252.12801 256.23199 257.888 261.992 266.09601 267.75201 269.104 273.20801 274.86401 278.96799 292.09601 296.20001 297.85599 301.95999 306.064 330.88 334.98401 336.64001 340.74399 342.104 344.37601 349.14401 353.24799 354.90399 359.008 360.664 362.01599 366.12 367.776 371.88 385.008 389.112 390.76801 394.87201 398.97601 414.92001 419.02399 420.67999 424.784 428.888 430.23999 432.51199 436.616 438.272 442.37601 446.48001 450.48001 454.58401 456.23999 460.34399 464.448 477.328 481.43201 483.08801 487.19199 491.29599"
         y="0"
         sodipodi:role="line"
         id="tspan464">NC98 (−56, 253)0.2120.2 (−0.5, 0.8)0.6050.4 (−0.02, 0.8)0.0650.2 (−0.2, 0.7)0.3830.86 (0.40–1.84)0.699</tspan><tspan
         x="-4.96 -1.08 4.7280002 8.7360001 13.248 17.256001"
         y="14"
         sodipodi:role="line"
         id="tspan466">Sweden</tspan><tspan
         x="-4.96 -0.704 3.1919999 8.592 33.952 38.720001 42.824001 46.928001 51.032001 52.383999 54.655998 59.424 63.528 67.632004 71.736 73.391998 74.744003 79.512001 83.615997 87.720001 91.823997 104.944 109.048 110.704 114.808 118.912 134.856 139.62399 143.728 145.384 149.48801 150.84801 153.12 157.888 161.992 163.64799 167.752 169.408 170.75999 175.528 179.632 181.28799 185.392 198.52 202.62399 204.28 208.384 212.48801 233.2 237.968 242.07201 243.728 247.832 249.18401 251.45599 256.224 260.328 261.98401 266.08801 267.74399 269.104 273.20801 274.86401 278.96799 292.09601 296.20001 297.85599 301.95999 306.064 326.112 330.88 334.98401 336.64001 340.74399 342.104 344.37601 349.14401 353.24799 354.90399 359.008 360.664 362.01599 366.12 367.776 371.88 385.008 389.112 390.76801 394.87201 398.97601 414.92001 419.02399 420.67999 424.784 428.888 430.23999 432.51199 436.616 438.272 442.37601 446.48001 450.48001 454.58401 458.68799 460.34399 464.448 477.328 481.43201 483.08801 487.19199 491.29599"
         y="28"
         sodipodi:role="line"
         id="tspan468">PFOA−359 (−596, −122)0.003−1.3 (−2.3, −0.3)0.010−0.4 (−1.0, 0.1)0.115−0.3 (−0.9, 0.3)0.3185.25 (1.68–16.4)0.004</tspan><tspan
         x="-4.96 -0.704 3.1919999 8.7040005 36 40.768002 44.872002 48.976002 53.080002 54.431999 56.703999 61.472 65.575996 69.68 73.783997 75.440002 76.800003 81.568001 85.671997 89.776001 104.944 109.048 110.704 114.808 118.912 134.856 139.62399 143.728 145.384 149.48801 150.84801 153.12 157.888 161.992 163.64799 167.752 169.408 170.75999 175.528 179.632 181.28799 185.392 198.52 202.62399 204.28 208.384 212.48801 229.09599 233.864 237.968 239.62399 243.728 245.08 247.35201 252.12 256.224 257.88 261.98401 263.64001 265 269.104 270.76001 274.86401 278.96799 292.09601 296.20001 297.85599 301.95999 306.064 326.112 330.88 334.98401 336.64001 340.74399 342.104 344.37601 349.14401 353.24799 354.90399 359.008 360.664 362.01599 366.12 367.776 371.88 385.008 389.112 390.76801 394.87201 398.97601 414.92001 419.02399 420.67999 424.784 428.888 430.23999 432.51199 436.616 438.272 442.37601 446.48001 450.48001 454.58401 456.23999 460.34399 464.448 477.328 481.43201 483.08801 487.19199 491.29599"
         y="42"
         sodipodi:role="line"
         id="tspan470">PFOS−292 (−500, −84)0.006−1.2 (−2.1, −0.3)0.007−0.4 (−0.9, 0.04)0.073−0.4 (−0.9, 0.2)0.2012.51 (0.93–6.77)0.068</tspan><tspan
         x="-4.96 -0.704 3.9360001 8.2720003 9.632 13.736 17.84 38.383999 43.152 47.256001 51.360001 52.720001 54.992001 59.759998 63.863998 67.968002 72.071999 73.727997 75.080002 79.183998 83.288002 87.391998 104.944 109.048 110.704 114.808 118.912 144.392 148.496 150.15199 154.256 155.616 157.888 162.65601 166.75999 168.416 172.52 174.17599 175.528 179.632 181.28799 185.392 198.52 202.62399 204.28 208.384 212.48801 233.2 237.968 242.07201 243.728 247.832 249.18401 251.45599 256.224 260.328 261.98401 266.08801 267.74399 269.104 273.20801 274.86401 278.96799 292.09601 296.20001 297.85599 301.95999 306.064 330.88 334.98401 336.64001 340.74399 342.104 344.37601 349.14401 353.24799 354.90399 359.008 360.664 362.01599 366.12 367.776 371.88 385.008 389.112 390.76801 394.87201 398.97601 414.92001 419.02399 420.67999 424.784 428.888 430.23999 432.51199 436.616 438.272 442.37601 446.48001 450.48001 454.58401 458.68799 460.34399 464.448 477.328 481.43201 483.08801 487.19199 491.29599"
         y="56"
         sodipodi:role="line"
         id="tspan472">PCB 153−11 (−374, 352)0.9530.1 (−1.4, 1.6)0.891−0.2 (−1.1, 0.6)0.5580.6 (−0.4, 1.6)0.2225.59 (1.05–29.9)0.044</tspan></text>
<text
       transform="matrix(1,0,0,-1,47.1524,492.7812)"
       style="font-style:italic;font-variant:normal;font-weight:normal;font-stretch:normal;font-size:8px;font-family:'Myriad Pro';-inkscape-font-specification:MyriadPro-It;writing-mode:lr-tb;fill:#231f20;fill-opacity:1;fill-rule:nonzero;stroke:none"
       id="text478"><tspan
         x="0 4.0560002 5.744 9.6079998"
         y="0"
         sodipodi:role="line"
         id="tspan476">p,p’</tspan></text>
<text
       transform="matrix(1,0,0,-1,58.3124,492.7812)"
       style="font-variant:normal;font-weight:normal;font-stretch:normal;font-size:8px;font-family:'Myriad Pro';-inkscape-font-specification:MyriadPro-Regular;writing-mode:lr-tb;fill:#231f20;fill-opacity:1;fill-rule:nonzero;stroke:none"
       id="text484"><tspan
         x="0 2.4560001 7.7839999 13.112 34.568001 38.672001 42.776001 44.136002 46.408001 51.175999 55.279999 59.383999 63.487999 65.143997 66.496002 70.599998 74.704002 78.807999 98.744003 102.848 104.504 108.608 112.712 138.192 142.29601 143.952 148.056 149.416 151.688 156.45599 160.56 162.216 166.32001 167.976 169.328 173.43201 175.088 179.192 192.32001 196.424 198.08 202.18401 206.28799 231.76801 235.87199 237.528 241.632 242.992 245.26401 250.032 254.136 255.79201 259.896 261.552 262.90399 267.008 268.664 272.76801 285.896 290 291.65601 295.76001 299.86401 320.57599 324.67999 326.336 330.44 331.79999 334.07199 338.84 342.944 344.60001 348.70401 352.80801 354.46399 355.81601 359.92001 361.57599 365.67999 378.80801 382.91199 384.56799 388.672 392.776 408.72 412.82401 414.48001 418.58401 422.68799 424.04001 426.31201 430.41599 432.07199 436.17599 440.28 444.28 448.384 450.04001 454.14401 458.24799 471.12799 475.23199 476.888 480.992 485.09601"
         y="0"
         sodipodi:role="line"
         id="tspan480">-DDE38 (−147, 223)0.6880.3 (−0.4, 1.1)0.4000.2 (−0.2, 0.7)0.2730.4 (−0.04, 0.9)0.0721.70 (0.75–3.85)0.200</tspan><tspan
         x="-11.16 -5.9439998 -1.304 32.183998 36.952 41.056 45.16 49.264 50.616001 52.888 57.655998 61.759998 65.863998 69.968002 71.624001 72.984001 77.087997 81.192001 98.744003 102.848 104.504 108.608 112.712 133.424 138.192 142.29601 143.952 148.056 149.416 151.688 156.45599 160.56 162.216 166.32001 167.976 169.336 173.44 175.09599 179.2 192.32001 196.424 198.08 202.18401 206.28799 222.23199 227 231.104 232.75999 236.864 238.216 240.48801 245.256 249.36 251.01601 255.12 256.776 258.13599 262.90399 267.008 268.664 272.76801 285.896 290 291.65601 295.76001 299.86401 324.67999 328.784 330.44 334.54401 335.90399 338.17599 342.944 347.048 348.70401 352.80801 354.46399 355.81601 359.92001 361.57599 365.67999 378.80801 382.91199 384.56799 388.672 392.776 408.72 412.82401 414.48001 418.58401 422.68799 424.04001 426.31201 430.41599 432.07199 436.17599 440.28 444.28 448.384 452.48801 454.14401 458.24799 471.12799 475.23199 476.888 480.992 485.09601"
         y="14"
         sodipodi:role="line"
         id="tspan482">HCB−269 (−595, 57)0.105−1.0 (−2.4, 0.3)0.134−1.0 (−1.7, −0.2)0.0110.1 (−0.7, 1.0)0.7425.62 (1.26–25.1)0.024</tspan></text>
<text
       transform="matrix(1,0,0,-1,47.1524,464.7812)"
       style="font-style:italic;font-variant:normal;font-weight:normal;font-stretch:normal;font-size:8px;font-family:'Myriad Pro';-inkscape-font-specification:MyriadPro-It;writing-mode:lr-tb;fill:#231f20;fill-opacity:1;fill-rule:nonzero;stroke:none"
       id="text488"><tspan
         x="0 4.2080002"
         y="0"
         sodipodi:role="line"
         id="tspan486">B-</tspan></text>
<text
       transform="matrix(1,0,0,-1,53.8164,464.7812)"
       style="font-variant:normal;font-weight:normal;font-stretch:normal;font-size:8px;font-family:'Myriad Pro';-inkscape-font-specification:MyriadPro-Regular;writing-mode:lr-tb;fill:#231f20;fill-opacity:1;fill-rule:nonzero;stroke:none"
       id="text492"><tspan
         x="0 5.2160001 9.8559999 34.624001 39.391998 43.495998 47.599998 51.703999 53.056 55.327999 60.096001 64.199997 68.304001 72.407997 74.064003 75.424004 79.528 83.632004 87.736 103.24 107.344 109 113.104 117.208 137.92 142.688 146.79201 148.448 152.552 153.912 156.18401 160.952 165.056 166.71201 170.81599 172.472 173.832 177.936 179.592 183.696 196.81599 200.92 202.576 206.67999 210.784 231.496 236.26401 240.368 242.024 246.12801 247.48 249.752 254.52 258.62399 260.28 264.384 266.04001 267.39999 271.504 273.16 277.26401 290.392 294.496 296.15201 300.25601 304.35999 329.17599 333.28 334.936 339.04001 340.39999 342.672 347.44 351.54401 353.20001 357.30399 358.95999 360.31201 364.41599 366.07199 370.17599 383.30399 387.40799 389.064 393.168 397.272 413.216 417.32001 418.97601 423.07999 427.18399 428.53601 430.80801 434.91199 436.56799 440.672 444.776 448.776 452.88 456.98401 458.64001 462.74399 475.62399 479.728 481.384 485.48801 489.59201"
         y="0"
         sodipodi:role="line"
         id="tspan490">HCH−161 (−446, 125)0.268−0.4 (−1.6, 0.8)0.537−0.4 (−1.1, 0.2)0.2090.1 (−0.7, 0.8)0.8523.20 (0.84–12.1)0.087</tspan></text>
<text
       transform="matrix(1,0,0,-1,47.1524,450.7812)"
       style="font-style:italic;font-variant:normal;font-weight:normal;font-stretch:normal;font-size:8px;font-family:'Myriad Pro';-inkscape-font-specification:MyriadPro-It;writing-mode:lr-tb;fill:#231f20;fill-opacity:1;fill-rule:nonzero;stroke:none"
       id="text496"><tspan
         x="0 2.5039999"
         y="0"
         sodipodi:role="line"
         id="tspan494">t-</tspan></text>
<text
       transform="matrix(1,0,0,-1,52.1124,450.7812)"
       style="font-variant:normal;font-weight:normal;font-stretch:normal;font-size:8px;font-family:'Myriad Pro';-inkscape-font-specification:MyriadPro-Regular;writing-mode:lr-tb;fill:#231f20;fill-opacity:1;fill-rule:nonzero;stroke:none"
       id="text500"><tspan
         x="0 5.2639999 38.383999 43.152 47.256001 51.360001 52.720001 54.992001 59.759998 63.863998 67.968002 72.071999 73.727997 75.080002 79.183998 83.288002 87.391998 104.944 109.048 110.704 114.808 118.912 139.62399 144.392 148.496 150.15199 154.256 155.616 157.888 162.65601 166.75999 168.416 172.52 174.17599 175.536 179.64 181.29601 185.39999 198.52 202.62399 204.28 208.384 212.48801 233.2 237.968 242.07201 243.728 247.832 249.18401 251.45599 256.224 260.328 261.98401 266.08801 267.74399 269.104 273.20801 274.86401 278.96799 292.09601 296.20001 297.85599 301.95999 306.064 330.88 334.98401 336.64001 340.74399 342.104 344.37601 349.14401 353.24799 354.90399 359.008 360.664 362.01599 366.12 367.776 371.88 385.008 389.112 390.76801 394.87201 398.97601 414.92001 419.02399 420.67999 424.784 428.888 430.23999 432.51199 436.616 438.272 442.37601 446.48001 450.48001 454.58401 456.23999 460.34399 464.448 477.328 481.43201 483.08801 487.19199 491.29599"
         y="0"
         sodipodi:role="line"
         id="tspan498">NC−92 (−379, 195)0.529−0.2 (−1.4, 1.0)0.766−0.4 (−1.1, 0.2)0.2130.3 (−0.5, 1.1)0.4522.04 (0.64–6.55)0.229</tspan></text>
<text
       transform="matrix(1,0,0,-1,47.1575,439.8622)"
       style="font-variant:normal;font-weight:300;font-stretch:normal;font-size:4.08099985px;font-family:'Myriad Pro';-inkscape-font-specification:MyriadPro-Light;writing-mode:lr-tb;fill:#231f20;fill-opacity:1;fill-rule:nonzero;stroke:none"
       id="text504"><tspan
         x="0"
         y="0"
         id="tspan502">a</tspan></text>
<text
       transform="matrix(1,0,0,-1,49.0102,437.5312)"
       style="font-variant:normal;font-weight:300;font-stretch:normal;font-size:7px;font-family:'Myriad Pro';-inkscape-font-specification:MyriadPro-Light;writing-mode:lr-tb;fill:#231f20;fill-opacity:1;fill-rule:nonzero;stroke:none"
       id="text508"><tspan
         x="0 4.0250001 7.8330002 9.3310003 13.048 15.659 17.780001 21.174999 24.983 26.208 27.937 31.660999 33.726002 34.951 40.683998 43.862 45.983002 49.377998 51.492001 55.243999 58.422001 59.905998 61.131001 64.308998 68.116997 71.512001 72.737 74.592003 77.623001 81.017998 84.195999 86.261002 88.872002 90.726997 91.945 93.169998 96.921997 100.317 101.78 105.588 109.34 111.503 112.728 114.555 117.677 123.41 125.265 126.483 127.708 131.57201 133.56 136.955 140.819 142.80701 146.202 149.95399 153.70599 156.884 160.636 163.89101 166.97099 168.196 171.731 177.177 178.65401 179.879 181.73399 184.772 188.58 191.037"
         y="0"
         sodipodi:role="line"
         id="tspan506">Adjusted for maternal age (years), height (cm), prepregnancy BMI (kg/m</tspan></text>
<text
       transform="matrix(1,0,0,-1,245.7896,439.8622)"
       style="font-variant:normal;font-weight:300;font-stretch:normal;font-size:4.08099985px;font-family:'Myriad Pro';-inkscape-font-specification:MyriadPro-Light;writing-mode:lr-tb;fill:#231f20;fill-opacity:1;fill-rule:nonzero;stroke:none"
       id="text512"><tspan
         x="0"
         y="0"
         id="tspan510">2</tspan></text>
<text
       transform="matrix(1,0,0,-1,247.7811,437.5312)"
       style="font-variant:normal;font-weight:300;font-stretch:normal;font-size:7px;font-family:'Myriad Pro';-inkscape-font-specification:MyriadPro-Light;writing-mode:lr-tb;fill:#231f20;fill-opacity:1;fill-rule:nonzero;stroke:none"
       id="text518"><tspan
         x="0 1.855 3.073 4.2979999 7.6929998 11.501 15.218 18.34 21.518 23.681 25.143999 28.868 32.619999 33.845001 35.700001 39.872002 43.287998 44.506001 45.730999 49.146999 52.646999 56.063 59.479 60.696999 61.922001 66.094002 69.510002 72.926003 74.151001 77.231003 79.085999 80.304001 81.528999 85.392998 88.570999 90.684998 92.148003 94.388 97.468002 98.693001 100.548 103.964 105.189 108.913 110.978 112.203 115.619 117.474 118.692 119.917 122.528 128.261 131.985 135.10001 136.563 140.315 144.123 145.34801 147.959 150.12199 153.3 155.463 159.17999 161.791 163.01601 166.194 168.35699 169.582 172.70399 176.42799 180.17999 183.302 186.69701 190.561 192.724 194.187 197.911 201.66299 202.888 204.743 208.159 209.377 210.60201 214.01801 217.51801 220.93401 222.15199 223.377 227.549 230.965 234.381 235.606 238.728 240.19099 243.99899 246.45599 250.26401 252.119 253.33701 254.562 256.02499 259.77701 261.89801 265.293 267.40701 271.271 273.259 276.65399 280.40601 284.15799 287.336 291.08801 294.34299 297.423"
         y="0"
         sodipodi:role="line"
         id="tspan514">), education (&lt;9, 9–12, &gt;12 y), parity (1 or 2), smoking status at conception (0, 1–9, &gt;10 cig/d), interpregnancy </tspan><tspan
         x="-200.627 -199.164 -195.412 -193.291 -189.896 -187.621 -184.457 -181.27901 -179.795 -178.57001 -176.715 -172.543 -169.127 -165.711 -164.493 -163.26801 -159.85201 -156.436 -152.936 -149.52 -146.104 -144.886 -143.661 -139.489 -136.073 -132.657 -131.43201 -125.699 -121.975 -120.12 -118.895 -115.717 -111.965 -108.157 -106.932 -103.208 -101.374 -99.616997 -97.005997 -93.141998 -91.028 -89.565002 -85.813004 -82.004997 -80.779999 -78.168999 -74.774002 -71.771004 -70.545998 -68.691002 -62.958 -59.779999 -58.296001 -54.901001 -52.444 -50.715 -47.32 -41.587002 -38.409 -36.924999 -33.529999 -31.674999 -30.457001"
         y="8.4980001"
         sodipodi:role="line"
         id="tspan516">interval (&lt;18, 19–60, &gt;60 mo) and offspring sex (male/female). </tspan></text>
<text
       transform="matrix(1,0,0,-1,218.5621,431.3622)"
       style="font-variant:normal;font-weight:300;font-stretch:normal;font-size:4.08099985px;font-family:'Myriad Pro';-inkscape-font-specification:MyriadPro-Light;writing-mode:lr-tb;fill:#231f20;fill-opacity:1;fill-rule:nonzero;stroke:none"
       id="text522"><tspan
         x="0"
         y="0"
         id="tspan520">b</tspan></text>
<text
       transform="matrix(1,0,0,-1,220.8147,429.0312)"
       style="font-variant:normal;font-weight:300;font-stretch:normal;font-size:7px;font-family:'Myriad Pro';-inkscape-font-specification:MyriadPro-Light;writing-mode:lr-tb;fill:#231f20;fill-opacity:1;fill-rule:nonzero;stroke:none"
       id="text526"><tspan
         x="0 4.0250001 7.8330002 9.3310003 13.048 15.659 17.780001 21.174999 24.983 26.208 27.937 31.660999 33.726002 34.951 40.683998 43.862 45.983002 49.377998 51.492001 55.243999 58.422001 59.905998 61.131001 64.308998 68.116997 71.512001 72.737 74.592003 77.623001 81.017998 84.195999 86.261002 88.872002 90.726997 91.945 93.169998 96.921997 100.317 101.78 105.588 109.34 111.503 112.728 114.555 117.677 123.41 125.265 126.483 127.708 131.57201 133.56 136.955 140.819 142.80701 146.202 149.95399 153.70599 156.884 160.636 163.89101 166.97099 168.196 171.731 177.177 178.65401 179.879 181.73399 184.772 188.58 191.037"
         y="0"
         sodipodi:role="line"
         id="tspan524">Adjusted for maternal age (years), height (cm), prepregnancy BMI (kg/m</tspan></text>
<text
       transform="matrix(1,0,0,-1,417.5941,431.3622)"
       style="font-variant:normal;font-weight:300;font-stretch:normal;font-size:4.08099985px;font-family:'Myriad Pro';-inkscape-font-specification:MyriadPro-Light;writing-mode:lr-tb;fill:#231f20;fill-opacity:1;fill-rule:nonzero;stroke:none"
       id="text530"><tspan
         x="0"
         y="0"
         id="tspan528">2</tspan></text>
<text
       transform="matrix(1,0,0,-1,419.5856,429.0312)"
       style="font-variant:normal;font-weight:300;font-stretch:normal;font-size:7px;font-family:'Myriad Pro';-inkscape-font-specification:MyriadPro-Light;writing-mode:lr-tb;fill:#231f20;fill-opacity:1;fill-rule:nonzero;stroke:none"
       id="text538"><tspan
         x="0 1.855 3.073 4.2979999 7.6929998 11.501 15.218 18.34 21.518 23.681 25.143999 28.868 32.619999 33.845001 35.700001 39.872002 43.287998 44.506001 45.730999 49.146999 52.646999 56.063 59.479 60.696999 61.922001 66.094002 69.510002 72.926003 74.151001 77.231003 79.085999 80.304001 81.528999 84.139999 89.873001 93.597 96.711998 98.175003 101.927 105.735 106.96 109.571 111.734 114.912 117.075 120.792 123.403"
         y="0"
         sodipodi:role="line"
         id="tspan532">), education (&lt;9, 9–12, &gt;12 y), smoking status </tspan><tspan
         x="-372.42801 -369.25 -367.08701 -365.862 -362.73999 -359.01599 -355.26401 -352.142 -348.74701 -344.883 -342.72 -341.25699 -337.53299 -333.78101 -332.556 -330.70099 -327.285 -326.06699 -324.84201 -321.42599 -317.92599 -314.51001 -313.29199 -312.06699 -307.89499 -304.479 -301.06299 -299.83801 -296.716 -295.25299 -291.44501 -288.98801 -285.17999 -283.32501 -282.10699 -280.88199 -277.70401 -273.952 -270.14401 -268.91901 -267.45599 -263.70401 -261.58301 -258.18799 -256.07401 -252.21001 -250.222 -246.827 -243.075 -239.323 -236.145 -232.39301 -229.138 -226.058 -224.83299 -223.37 -219.618 -217.49699 -214.10201 -211.827 -208.66299 -205.485 -204.00101 -202.776 -200.92101 -196.74899 -193.33299 -189.91701 -188.69901 -187.474 -184.058 -180.642 -177.142 -173.726 -170.31 -169.092 -167.867 -163.69501 -160.27901 -156.86301 -155.638 -149.905 -146.181 -144.326"
         y="8.4980001"
         sodipodi:role="line"
         id="tspan534">at conception (0, 1–9, &gt;10 cig/d), and interpregnancy interval (&lt;18, 19–60, &gt;60 mo).</tspan><tspan
         x="-372.42801 -368.01801 -364.02802 -360.57001 -359.35199 -358.12701 -354.375 -350.98001 -347.97699 -344.79901 -341.677 -337.92499 -336.44101 -332.71701 -330.729 -327.005 -323.14099 -319.746 -315.99399 -313.229 -309.83401 -306.082 -302.68701 -301.46899 -300.24399 -296.73001 -292.73999 -289.28201 -288.064 -286.83899 -282.97501 -279.25101 -277.767 -274.73599 -271.61401 -267.862 -266.37799 -262.65399 -260.54001 -259.077 -255.325 -252.147 -250.026 -246.631 -242.823 -241.59801 -237.73399 -236.271 -232.407 -228.655 -225.25999 -221.578 -218.498 -217.01401 -215.79601 -214.571 -211.05701 -207.823 -203.217 -199.12199 -197.90401 -196.679 -192.815 -189.42 -187.131 -185.297 -183.813 -180.09599 -176.37199 -174.384 -170.66 -166.936 -163.737 -161.57401 -158.396 -154.644 -150.92 -147.742 -145.621 -142.226 -141.008 -139.783 -136.269 -133.035 -128.338 -125.09 -123.872 -122.647 -118.783 -115.388 -113.099 -111.265 -109.781 -106.064 -102.34 -100.352 -96.627998 -93.429001 -91.265999 -88.087997 -84.335999 -80.941002 -79.716003 -77.105003 -73.388 -71.903999 -70.175003 -66.450996 -62.699001 -59.521 -57.400002 -54.075001"
         y="16.996"
         sodipodi:role="line"
         id="tspan536">HCB, hexachlorobenzene; PCB, polychlorinated biphenyl; PFOA, perfluorooctanoate; PFOS, perfluoroctane sulfonate.</tspan></text>
</g></svg>