<?xml version="1.0" encoding="UTF-8" standalone="no"?>
<!-- Created with Inkscape (http://www.inkscape.org/) -->

<svg
   xmlns:dc="http://purl.org/dc/elements/1.1/"
   xmlns:cc="http://creativecommons.org/ns#"
   xmlns:rdf="http://www.w3.org/1999/02/22-rdf-syntax-ns#"
   xmlns:svg="http://www.w3.org/2000/svg"
   xmlns="http://www.w3.org/2000/svg"
   xmlns:sodipodi="http://sodipodi.sourceforge.net/DTD/sodipodi-0.dtd"
   xmlns:inkscape="http://www.inkscape.org/namespaces/inkscape"
   version="1.1"
   id="svg2"
   xml:space="preserve"
   width="768"
   height="1031.9626"
   viewBox="0 0 768 1031.9626"
   sodipodi:docname="table3.svg"
   inkscape:version="0.92.0 r15299"><metadata
     id="metadata8"><rdf:RDF><cc:Work
         rdf:about=""><dc:format>image/svg+xml</dc:format><dc:type
           rdf:resource="http://purl.org/dc/dcmitype/StillImage" /><dc:title></dc:title></cc:Work></rdf:RDF></metadata><defs
     id="defs6" /><sodipodi:namedview
     pagecolor="#ffffff"
     bordercolor="#666666"
     borderopacity="1"
     objecttolerance="10"
     gridtolerance="10"
     guidetolerance="10"
     inkscape:pageopacity="0"
     inkscape:pageshadow="2"
     inkscape:window-width="1920"
     inkscape:window-height="988"
     id="namedview4"
     showgrid="false"
     inkscape:zoom="1.2936685"
     inkscape:cx="822.23866"
     inkscape:cy="374.35794"
     inkscape:window-x="0"
     inkscape:window-y="27"
     inkscape:window-maximized="1"
     inkscape:current-layer="g10" /><g
     id="g10"
     inkscape:groupmode="layer"
     inkscape:label="fulltext"
     transform="matrix(1.3333333,0,0,-1.3333333,0,1031.9627)"><path
       d="M 297.694,71.603 H 539.773 V 274.677 H 297.694 Z"
       style="fill:#e6e6e6;fill-opacity:1;fill-rule:nonzero;stroke:none"
       id="path400"
       inkscape:connector-curvature="0" /><path
       d="m 297.694,274.677 h 242.079 v -4.025 H 297.694 Z"
       style="fill:#ffffff;fill-opacity:1;fill-rule:evenodd;stroke:#ffffff;stroke-width:0.75;stroke-linecap:round;stroke-linejoin:round;stroke-miterlimit:10;stroke-dasharray:none;stroke-opacity:1"
       id="path402"
       inkscape:connector-curvature="0" /><g
       id="g404"
       transform="translate(297.694,270.65199)"><path
         d="M 0,0 H 242.079 V -0.454 H 0"
         style="fill:#000000;fill-opacity:1;fill-rule:evenodd;stroke:#000000;stroke-width:0.75;stroke-linecap:round;stroke-linejoin:round;stroke-miterlimit:10;stroke-dasharray:none;stroke-opacity:1"
         id="path406"
         inkscape:connector-curvature="0" /></g><path
       d="M 539.773,71.603 H 297.694 v 1.02 h 242.079 z"
       style="fill:#ffffff;fill-opacity:1;fill-rule:evenodd;stroke:#ffffff;stroke-width:0.75;stroke-linecap:round;stroke-linejoin:round;stroke-miterlimit:10;stroke-dasharray:none;stroke-opacity:1"
       id="path408"
       inkscape:connector-curvature="0" /><g
       id="g410"
       transform="translate(539.773,72.623993)"><path
         d="M 0,0 H -242.079 V 0.51 H 0"
         style="fill:#000000;fill-opacity:1;fill-rule:evenodd;stroke:#000000;stroke-width:0.75;stroke-linecap:round;stroke-linejoin:round;stroke-miterlimit:10;stroke-dasharray:none;stroke-opacity:1"
         id="path412"
         inkscape:connector-curvature="0" /></g><path
       d="M 457.738,248.485 H 297.694 v 0.454 h 160.044 z"
       style="fill:#000000;fill-opacity:1;fill-rule:evenodd;stroke:#000000;stroke-width:0.75;stroke-linecap:round;stroke-linejoin:round;stroke-miterlimit:10;stroke-dasharray:none;stroke-opacity:1"
       id="path414"
       inkscape:connector-curvature="0" /><path
       d="m 508.309,248.485 h -75.572 v 0.454 h 75.572 z"
       style="fill:#000000;fill-opacity:1;fill-rule:evenodd;stroke:#000000;stroke-width:0.75;stroke-linecap:round;stroke-linejoin:round;stroke-miterlimit:10;stroke-dasharray:none;stroke-opacity:1"
       id="path416"
       inkscape:connector-curvature="0" /><path
       d="M 539.773,248.485 H 483.25 v 0.454 h 56.523 z"
       style="fill:#000000;fill-opacity:1;fill-rule:evenodd;stroke:#000000;stroke-width:0.75;stroke-linecap:round;stroke-linejoin:round;stroke-miterlimit:10;stroke-dasharray:none;stroke-opacity:1"
       id="path418"
       inkscape:connector-curvature="0" /><text
       transform="matrix(1,0,0,-0.96157326,297.6944,300.359)"
       style="font-variant:normal;font-weight:normal;font-size:6.63079977px;font-family:AdvOTb83ee1dd;-inkscape-font-specification:AdvOTb83ee1dd;writing-mode:lr-tb;fill:#000000;fill-opacity:1;fill-rule:nonzero;stroke:none"
       id="text422"><tspan
         x="0 3.3419232 6.9291859 10.934189 13.069306 18.592764"
         y="0"
         sodipodi:role="line"
         id="tspan420">Table3</tspan></text>
<text
       transform="matrix(1,0,0,-0.96157326,297.6944,291.79603)"
       style="font-variant:normal;font-weight:normal;font-size:6.63079977px;font-family:AdvOT863180fb;-inkscape-font-specification:AdvOT863180fb;writing-mode:lr-tb;fill:#000000;fill-opacity:1;fill-rule:nonzero;stroke:none"
       id="text434"><tspan
         x="0 4.3498049 7.4530191 10.556233 14.488298 17.061049 20.442757 23.545971 28.625164 32.351673 35.991982 39.095196 42.821705 46.82671 49.240322 52.688335 56.69334 60.651928 63.344032 66.792046 69.775909 73.157616 75.087181 78.621399 82.003105 86.00811 91.491776 94.389435 97.771149 100.18475 102.11432 105.01198 107.14709 110.52881 113.63202 116.04563 117.9752 121.70171 127.0395 132.70219 134.63176 137.04538 142.62851 144.55807 148.56308 150.97668 154.4247 157.11681 160.59798 164.04599 168.05099 170.4646 172.39417 176.12068 181.68391 185.06563 191.13943 194.86595 198.87096 204.01645 210.09027 213.71068 216.1243 220.1293 223.57732 226.26942 230.71869 234.10039 238.10539"
         y="0"
         sodipodi:role="line"
         id="tspan424">Accuracyofcontentrecallandsatisfactionwithinterventionamongmothersand</tspan><tspan
         x="0 3.5872629 5.5168257 8.20893 10.138494 15.303886 20.966589 24.971592 31.005621 33.697727 37.145741 41.077805 44.804317 47.496422 49.770786 53.2188 59.524693 62.216797 65.66481 68.9338 72.86586 74.795425 78.80043 84.748253 88.680321 92.062027 98.135841 102.0679 106.07291 108.00247 111.45049 116.15173 119.87823 124.88449 128.81656 132.54306 135.44072 137.85434 140.95755 144.33925 147.03136 150.96342 153.86108 158.38992 162.32199 164.25154 166.18111 169.90762 174.60222 177.01584 180.46385 183.36151 187.98318 191.70969 196.20537 198.13493 202.13994 204.55354 208.00157 210.69366 214.1218 217.56981 221.57481 223.98842 225.91798 229.6445 236.00343 238.41704"
         y="8.9051647"
         sodipodi:role="line"
         id="tspan426">girlswhoreportedreadingpamphletorpostcards:pilottestofinterventionto</tspan><tspan
         x="0 2.6921048 6.140121 10.072186 14.00425 17.107464 22.504934 24.434498 28.439501 32.371567 36.098076 39.824585 44.499298 46.91291 50.294617 54.299622 58.304623 60.234188 64.239189 69.782539 73.575356 79.138596 81.552208 85.000229 88.448242 92.347153 95.728859 99.316124 102.76414 105.45625 108.3539 111.84834 115.64115 119.613 123.40582"
         y="17.810329"
         sodipodi:role="line"
         id="tspan428">reduceindoortanningbyteenagers,2009</tspan><tspan
         x="160.04762 166.19437 169.92088 172.33449 176.33949 179.78751 182.47961"
         y="31.48967"
         sodipodi:role="line"
         id="tspan430">Mothers</tspan><tspan
         x="160.04762 162.46123"
         y="40.394833"
         sodipodi:role="line"
         id="tspan432">(n</tspan></text>
<text
       transform="matrix(1,0,0,-0.96157326,466.18966,252.95344)"
       style="font-variant:normal;font-weight:normal;font-size:6.63079977px;font-family:AdvP4C4E74;-inkscape-font-specification:AdvP4C4E74;writing-mode:lr-tb;fill:#000000;fill-opacity:1;fill-rule:nonzero;stroke:none"
       id="text438"><tspan
         x="0"
         y="0"
         id="tspan436">¼</tspan></text>
<text
       transform="matrix(1,0,0,-0.96157326,473.27798,252.95344)"
       style="font-variant:normal;font-weight:normal;font-size:6.63079977px;font-family:AdvOT863180fb;-inkscape-font-specification:AdvOT863180fb;writing-mode:lr-tb;fill:#000000;fill-opacity:1;fill-rule:nonzero;stroke:none"
       id="text446"><tspan
         x="0 3.7928176 7.5856352"
         y="0"
         sodipodi:role="line"
         id="tspan440">45)</tspan><tspan
         x="35.037148 39.658813 41.588379 44.280483 46.210045"
         y="-8.9051647"
         sodipodi:role="line"
         id="tspan442">Girls</tspan><tspan
         x="35.037148 37.45076"
         y="0"
         sodipodi:role="line"
         id="tspan444">(n</tspan></text>
<text
       transform="matrix(1,0,0,-0.96157326,516.70309,252.95344)"
       style="font-variant:normal;font-weight:normal;font-size:6.63079977px;font-family:AdvP4C4E74;-inkscape-font-specification:AdvP4C4E74;writing-mode:lr-tb;fill:#000000;fill-opacity:1;fill-rule:nonzero;stroke:none"
       id="text450"><tspan
         x="0"
         y="0"
         id="tspan448">¼</tspan></text>
<text
       transform="matrix(1,0,0,-0.96157326,523.79142,252.95344)"
       style="font-variant:normal;font-weight:normal;font-size:6.63079977px;font-family:AdvOT863180fb;-inkscape-font-specification:AdvOT863180fb;writing-mode:lr-tb;fill:#000000;fill-opacity:1;fill-rule:nonzero;stroke:none"
       id="text458"><tspan
         x="0 3.7928176 7.5856352"
         y="0"
         sodipodi:role="line"
         id="tspan452">28)</tspan><tspan
         x="-220.13593 -216.40942 -212.96141 -210.2693 -207.16609 -203.71806 -199.71306 -197.29945 -193.91774 -190.33049 -184.87334 -179.21063 -175.20563 -169.45673 -166.35352 -162.627 -159.93489 -157.2428 -153.79477 -150.69156 -148.27795 -146.34839 -140.77188 -138.07977 -134.63176 -131.52855 -128.14684 -126.21728 -124.28771 -120.8397 -114.9184 -111.81518 -108.08867 -104.08366 -101.67006 -98.222038 -94.217033"
         y="13.619663"
         sodipodi:role="line"
         id="tspan454">Percentagewhocorrectlyrecalledcontent</tspan><tspan
         x="-213.73058 -211.72807 -207.72307 -203.791 -200.0645 -196.33798 -191.67653 -189.26292 -185.88121 -181.87622 -177.87122 -175.94165 -171.93665 -166.33362 -162.9519 -158.9469"
         y="22.524828"
         sodipodi:role="line"
         id="tspan456">Indoortanningand</tspan></text>
<text
       transform="matrix(1,0,0,-0.96157326,370.77908,231.29417)"
       style="font-variant:normal;font-weight:normal;font-size:6.63079977px;font-family:AdvPS3FDD77;-inkscape-font-specification:AdvPS3FDD77;writing-mode:lr-tb;fill:#000000;fill-opacity:1;fill-rule:nonzero;stroke:none"
       id="text462"><tspan
         x="0"
         y="0"
         id="tspan460">.</tspan></text>
<text
       transform="matrix(1,0,0,-0.96157326,316.41315,222.7312)"
       style="font-variant:normal;font-weight:normal;font-size:6.63079977px;font-family:AdvOT863180fb;-inkscape-font-specification:AdvOT863180fb;writing-mode:lr-tb;fill:#000000;fill-opacity:1;fill-rule:nonzero;stroke:none"
       id="text506"><tspan
         x="0 6.1467514 9.5947676 11.52433 14.906038 18.911041 22.63755 28.711365 34.06905 36.761154 38.69072 41.588379 141.33549 145.12833 148.92114 150.43959 191.90862 195.70143 199.49425 201.0127"
         y="0"
         sodipodi:role="line"
         id="tspan464">Melanomarisk71.175.0</tspan><tspan
         x="0.0066308002 3.9386952 7.8707595 10.562864 14.567867 19.448137 22.829844 26.834848 32.769413 38.432117 41.124222 43.053783 47.058788 50.71899 52.648552 56.096569 141.34213 145.13495 148.92776 150.44623 191.91524 195.70807 199.50089 201.01933"
         y="8.9051647"
         sodipodi:role="line"
         id="tspan466">Burnsandwrinkles48.978.6</tspan><tspan
         x="0.0132616 6.9159245 10.36394 12.293503 15.880766 19.885769 24.275358 26.204922 29.931431 32.82909 37.769035 40.182648 43.975464 47.701977 51.289238 55.221302 60.10157 62.031136 64.444748 67.892761 73.966576 145.14159 148.9344 150.45285 195.65501 199.44783 200.96629"
         y="17.810329"
         sodipodi:role="line"
         id="tspan468">Weightloss(bogusitem)2.27.1</tspan><tspan
         x="0.0132616 4.7078681 7.121479 11.126482 14.574498 19.288998 24.9517 28.333408 31.920671 36.807571 39.221184 44.917038 46.846603 50.573112 54.299622 59.942432 63.529694 67.256203 70.982712 141.34213 145.13495 148.92776 150.44623 191.90862 195.70143 199.49425 201.0127"
         y="26.715492"
         sodipodi:role="line"
         id="tspan470">Otherwaystolookgood26.771.4</tspan><tspan
         x="0.0066308002 4.7012372 7.1148486 11.119852 14.567867 19.282366 24.94507 28.326778 31.91404 36.800941 39.21455 44.910408 48.497673 51.945686 56.361801 59.949062 61.878624 64.292236 67.673943 73.747757 75.677322 81.70472 141.33549 145.12833 148.92114 150.43959 191.90198 195.69479 199.48763 201.00607"
         y="35.620659"
         sodipodi:role="line"
         id="tspan472">OtherwaystogetvitaminD53.360.7</tspan><tspan
         x="0 3.9320643 7.3800802 10.761788 14.693852 17.107464 22.730383 26.596138 30.528204 33.976219 37.424236 43.42511 49.087811 51.017376 53.430984 59.411968 65.485779 68.9338 70.863358 74.245071 78.250069 81.976578 88.050392 141.32887 146.16272 148.43709 191.89536 195.68817 199.48099 200.99944"
         y="44.525822"
         sodipodi:role="line"
         id="tspan474">BeautyqueenwithmelanomaN/A71.4</tspan><tspan
         x="-0.0066308002 3.9254336 7.3071418 10.204802 15.642057 18.055668 21.437376 27.43162 31.436623 35.163132 39.565983 43.498047 46.190151 49.916664 52.330273 55.77829 58.881504 61.295116 63.224678 66.811943 141.32887 145.12169 148.91451 150.43295 191.90198 196.73584 199.01019"
         y="53.484032"
         sodipodi:role="line"
         id="tspan476">Basetannotprotective64.4N/A</tspan><tspan
         x="0 3.4480159 5.8616271 9.2433348 11.656946 17.120726 19.050289 22.431997 28.0947 32.994862 35.129978 38.856487 43.537834 47.469898 50.851604 53.543709 56.991726 60.996731 63.410339 66.792046 70.690956 74.623024 78.071037 80.763145 86.83696 88.766518 91.664177 94.561836 96.491402 100.21791 141.32887 145.12169 148.91451 150.43295 191.90198 196.73584 199.01019"
         y="62.389198"
         sodipodi:role="line"
         id="tspan478">Statelawsforparentalpermission20.0N/A</tspan><tspan
         x="0 2.0025015 6.0075049 9.9395695 13.871634 16.769293 19.182905 21.87501 27.491297 29.904907 33.286617 35.978722 39.565983 43.014 45.427612 50.281357 52.694969 56.142982 59.591 63.596004 66.977715 70.564972 74.012993 76.705093 141.32887 145.12169 148.91451 150.43295 191.89536 196.7292 199.00357"
         y="71.294365"
         sodipodi:role="line"
         id="tspan480">Industrytargetsteenagers80.0N/A</tspan><tspan
         x="-0.0066308002 3.6535709 5.5831337 9.5151978 14.395467 16.530584 20.257093 24.998116 27.411728 30.793436 32.723 36.383198 38.312763 42.317764 47.900898 53.563602 55.493164 57.906776 63.887756 66.301369 69.749382 73.197403 77.202408 80.584114 84.171371 87.619392 90.311493 141.32224 145.11505 148.90788 150.42633 191.88872 196.72258 198.99693"
         y="80.199524"
         sodipodi:role="line"
         id="tspan482">Tipsfortalkingwithteenagers66.7N/A</tspan><tspan
         x="-12.770921 -8.4211159 -4.8338532 -2.1417484 1.3062676 6.7899394 10.516449 15.177901 18.075562 20.489172 23.181276 26.907787 30.91279 34.500053 36.429615 41.992855 45.374565 48.961826 51.653931 55.101948 60.585621 66.659431 70.041138 72.45475 75.902771 78.594872 80.524437 83.906143 85.835709 90.7425 96.816307 100.26433 103.64603 107.65104"
         y="89.104691"
         sodipodi:role="line"
         id="tspan484">Agreeorstronglyagreematerialsmeant</tspan><tspan
         x="-4.780807 -2.6456892 1.0808204 5.7621651 8.1757765 12.180779 15.628796 23.678587 26.092197 30.163509"
         y="98.009857"
         sodipodi:role="line"
         id="tspan486">forthem(%)</tspan><tspan
         x="141.31561 145.10843 148.90125 150.41969 191.8821 195.67491 199.46773 200.98618"
         y="89.104691"
         sodipodi:role="line"
         id="tspan488">63.689.3</tspan><tspan
         x="-12.777552 -9.5350904 -6.0870743 -2.7053664 -0.0132616 3.9917417 7.4397578 13.414108 16.311768 20.038277 26.112091 31.555977 35.282486 39.943939 45.328148 47.257713 50.984222 55.36055 57.774162 61.84547 141.30898 145.10179 148.89461 150.41307 191.87546 195.66827 199.46109 200.97955"
         y="106.90839"
         sodipodi:role="line"
         id="tspan490">Learnedsomeoralot(%)77.885.7</tspan><tspan
         x="-12.784183 -9.5417213 -7.6121583 -3.9519567 -0.50394082 5.4107327 11.484546 14.866254 17.279865 20.72788 23.419985 25.349548 28.731256 30.66082 35.567612 38.465271 42.19178 48.265594 53.70948 57.435989 62.15712 67.488281 69.417847 73.144356 77.58036 79.993973 84.065285 141.30235 145.09517 148.88799 150.40643 191.86884 195.66165 199.45447 200.97292"
         y="115.81355"
         sodipodi:role="line"
         id="tspan492">Likedmaterialssomeoralot(%)93.392.9</tspan><tspan
         x="-12.790813 -9.1306114 -5.7489038 -3.8193407 -0.1591392 3.2888768 9.2035503 14.866254 16.795816 19.209427 25.243456 28.691471 32.073181 35.176395 41.170639 44.897148 47.310757 51.315762 54.763779 59.425228 62.806938 66.599754 70.326263 74.258331 78.700966 80.630531 84.635529 87.049141 90.497162 93.189262 96.776527 100.22454 104.22955 106.64316 108.57272 112.29923"
         y="124.77176"
         sodipodi:role="line"
         id="tspan494">Talkedwitheachotheraboutintervention</tspan><tspan
         x="-4.8006992 -1.6974849 2.0290248 6.0340281 8.4476395 11.895656 15.900659 20.310141 22.723751 26.795063"
         y="133.67693"
         sodipodi:role="line"
         id="tspan496">content(%)</tspan><tspan
         x="141.29572 145.08853 148.88135 150.39981 191.8622 195.65501 199.44783 200.96629"
         y="124.77176"
         sodipodi:role="line"
         id="tspan498">80.067.9</tspan><tspan
         x="-12.797444 -8.7261324 -5.2781167 -2.8645055 0.51720238 2.4467652 6.4517684 9.8997841 15.82772 19.759785 23.141493 29.215305 33.147369 37.152374 39.081936 42.529953 46.952694 49.366306 53.437618 141.28909 145.08191 148.87473 150.39317 191.8622 196.69604 198.97041"
         y="142.57545"
         sodipodi:role="line"
         id="tspan500">Retainedpamphlet(%)42.4N/A</tspan><tspan
         x="-12.797444 -8.7261324 -5.2781167 -2.8645055 0.51720238 2.4467652 6.4517684 9.8997841 15.82772 19.759785 23.486294 26.383953 28.797564 31.90078 35.282486 37.97459 41.906654 46.83997 49.253582 53.324894 141.28909 145.08191 148.87473 150.39317 191.85556 195.64839 199.44121 200.95966"
         y="151.48064"
         sodipodi:role="line"
         id="tspan502">Retainedpostcards(%)71.250.0</tspan><tspan
         x="-18.751902 -13.918049 -11.643684"
         y="166.10155"
         sodipodi:role="line"
         id="tspan504">N/A</tspan></text>
<text
       transform="matrix(1,0,0,-0.96157326,311.09525,63.0124)"
       style="font-variant:normal;font-weight:normal;font-size:6.63079977px;font-family:AdvP4C4E74;-inkscape-font-specification:AdvP4C4E74;writing-mode:lr-tb;fill:#000000;fill-opacity:1;fill-rule:nonzero;stroke:none"
       id="text510"><tspan
         x="0"
         y="0"
         id="tspan508">¼</tspan></text>
<text
       transform="matrix(1,0,0,-0.96157326,318.18357,63.0124)"
       style="font-variant:normal;font-weight:normal;font-size:6.63079977px;font-family:AdvOT863180fb;-inkscape-font-specification:AdvOT863180fb;writing-mode:lr-tb;fill:#000000;fill-opacity:1;fill-rule:nonzero;stroke:none"
       id="text514"><tspan
         x="0 4.6946063 8.6266708 12.074687 14.972346 17.385958 19.315521 23.04203 27.047033 31.973717 37.636421 41.084438 43.776543 49.207169 53.21217 56.938679 61.34153 64.723236 67.620895 71.281097 74.729118 80.670311 84.39682 89.058273 93.063278 96.789787 101.19264 104.57435 108.50641 112.43848 114.36804 116.2976 119.40082 122.78252 126.57534 128.5049 131.95293"
         y="0"
         sodipodi:role="line"
         id="tspan512">Questionswerenotaskedornotapplicable.</tspan></text>
</g></svg>