<?xml version="1.0" encoding="UTF-8" standalone="no"?>
<!-- Created with Inkscape (http://www.inkscape.org/) -->

<svg
   xmlns:dc="http://purl.org/dc/elements/1.1/"
   xmlns:cc="http://creativecommons.org/ns#"
   xmlns:rdf="http://www.w3.org/1999/02/22-rdf-syntax-ns#"
   xmlns:svg="http://www.w3.org/2000/svg"
   xmlns="http://www.w3.org/2000/svg"
   xmlns:sodipodi="http://sodipodi.sourceforge.net/DTD/sodipodi-0.dtd"
   xmlns:inkscape="http://www.inkscape.org/namespaces/inkscape"
   version="1.1"
   id="svg2"
   xml:space="preserve"
   width="768"
   height="1031.9626"
   viewBox="0 0 768 1031.9626"
   sodipodi:docname="table2.svg"
   inkscape:version="0.92.0 r15299"><metadata
     id="metadata8"><rdf:RDF><cc:Work
         rdf:about=""><dc:format>image/svg+xml</dc:format><dc:type
           rdf:resource="http://purl.org/dc/dcmitype/StillImage" /><dc:title></dc:title></cc:Work></rdf:RDF></metadata><defs
     id="defs6" /><sodipodi:namedview
     pagecolor="#ffffff"
     bordercolor="#666666"
     borderopacity="1"
     objecttolerance="10"
     gridtolerance="10"
     guidetolerance="10"
     inkscape:pageopacity="0"
     inkscape:pageshadow="2"
     inkscape:window-width="1920"
     inkscape:window-height="988"
     id="namedview4"
     showgrid="false"
     inkscape:zoom="1.2936685"
     inkscape:cx="822.23866"
     inkscape:cy="683.55616"
     inkscape:window-x="0"
     inkscape:window-y="27"
     inkscape:window-maximized="1"
     inkscape:current-layer="g10" /><g
     id="g10"
     inkscape:groupmode="layer"
     inkscape:label="fulltext"
     transform="matrix(1.3333333,0,0,-1.3333333,0,1031.9627)"><path
       d="M 297.694,511.483 H 539.773 V 676.799 H 297.694 Z"
       style="fill:#e6e6e6;fill-opacity:1;fill-rule:nonzero;stroke:none"
       id="path286"
       inkscape:connector-curvature="0" /><path
       d="m 297.694,676.8 h 242.079 v -3.969 H 297.694 Z"
       style="fill:#ffffff;fill-opacity:1;fill-rule:evenodd;stroke:#ffffff;stroke-width:0.75;stroke-linecap:round;stroke-linejoin:round;stroke-miterlimit:10;stroke-dasharray:none;stroke-opacity:1"
       id="path288"
       inkscape:connector-curvature="0" /><g
       id="g290"
       transform="translate(297.694,672.83099)"><path
         d="M 0,0 H 242.079 V -0.51 H 0"
         style="fill:#000000;fill-opacity:1;fill-rule:evenodd;stroke:#000000;stroke-width:0.75;stroke-linecap:round;stroke-linejoin:round;stroke-miterlimit:10;stroke-dasharray:none;stroke-opacity:1"
         id="path292"
         inkscape:connector-curvature="0" /></g><path
       d="M 539.773,511.483 H 297.694 v 1.02 h 242.079 z"
       style="fill:#ffffff;fill-opacity:1;fill-rule:evenodd;stroke:#ffffff;stroke-width:0.75;stroke-linecap:round;stroke-linejoin:round;stroke-miterlimit:10;stroke-dasharray:none;stroke-opacity:1"
       id="path294"
       inkscape:connector-curvature="0" /><g
       id="g296"
       transform="translate(539.773,512.504)"><path
         d="M 0,0 H -242.079 V 0.454 H 0"
         style="fill:#000000;fill-opacity:1;fill-rule:evenodd;stroke:#000000;stroke-width:0.75;stroke-linecap:round;stroke-linejoin:round;stroke-miterlimit:10;stroke-dasharray:none;stroke-opacity:1"
         id="path298"
         inkscape:connector-curvature="0" /></g><path
       d="m 367.03,619.767 h -69.335 v 0.51 h 69.335 z"
       style="fill:#000000;fill-opacity:1;fill-rule:evenodd;stroke:#000000;stroke-width:0.75;stroke-linecap:round;stroke-linejoin:round;stroke-miterlimit:10;stroke-dasharray:none;stroke-opacity:1"
       id="path300"
       inkscape:connector-curvature="0" /><g
       id="g302"
       transform="translate(533.82001,659.168)"><path
         d="M 0,0 H -166.791 V 0.51 H 0"
         style="fill:#000000;fill-opacity:1;fill-rule:evenodd;stroke:#000000;stroke-width:0.75;stroke-linecap:round;stroke-linejoin:round;stroke-miterlimit:10;stroke-dasharray:none;stroke-opacity:1"
         id="path304"
         inkscape:connector-curvature="0" /></g><g
       id="g306"
       transform="translate(446.00301,646.07201)"><path
         d="M 0,0 H -78.973 V 0.454 H 0"
         style="fill:#000000;fill-opacity:1;fill-rule:evenodd;stroke:#000000;stroke-width:0.75;stroke-linecap:round;stroke-linejoin:round;stroke-miterlimit:10;stroke-dasharray:none;stroke-opacity:1"
         id="path308"
         inkscape:connector-curvature="0" /></g><g
       id="g310"
       transform="translate(533.82001,646.07201)"><path
         d="M 0,0 H -78.973 V 0.454 H 0"
         style="fill:#000000;fill-opacity:1;fill-rule:evenodd;stroke:#000000;stroke-width:0.75;stroke-linecap:round;stroke-linejoin:round;stroke-miterlimit:10;stroke-dasharray:none;stroke-opacity:1"
         id="path312"
         inkscape:connector-curvature="0" /></g><g
       id="g314"
       transform="translate(403.994,632.92)"><path
         d="M 0,0 H -36.964 V 0.51 H 0"
         style="fill:#000000;fill-opacity:1;fill-rule:evenodd;stroke:#000000;stroke-width:0.75;stroke-linecap:round;stroke-linejoin:round;stroke-miterlimit:10;stroke-dasharray:none;stroke-opacity:1"
         id="path316"
         inkscape:connector-curvature="0" /></g><g
       id="g318"
       transform="translate(446.00301,632.92)"><path
         d="M 0,0 H -33.165 V 0.51 H 0"
         style="fill:#000000;fill-opacity:1;fill-rule:evenodd;stroke:#000000;stroke-width:0.75;stroke-linecap:round;stroke-linejoin:round;stroke-miterlimit:10;stroke-dasharray:none;stroke-opacity:1"
         id="path320"
         inkscape:connector-curvature="0" /></g><g
       id="g322"
       transform="translate(491.811,632.92)"><path
         d="M 0,0 H -36.964 V 0.51 H 0"
         style="fill:#000000;fill-opacity:1;fill-rule:evenodd;stroke:#000000;stroke-width:0.75;stroke-linecap:round;stroke-linejoin:round;stroke-miterlimit:10;stroke-dasharray:none;stroke-opacity:1"
         id="path324"
         inkscape:connector-curvature="0" /></g><g
       id="g326"
       transform="translate(533.82001,632.92)"><path
         d="M 0,0 H -33.165 V 0.51 H 0"
         style="fill:#000000;fill-opacity:1;fill-rule:evenodd;stroke:#000000;stroke-width:0.75;stroke-linecap:round;stroke-linejoin:round;stroke-miterlimit:10;stroke-dasharray:none;stroke-opacity:1"
         id="path328"
         inkscape:connector-curvature="0" /></g><path
       d="m 387.326,619.767 h -29.14 v 0.51 h 29.14 z"
       style="fill:#000000;fill-opacity:1;fill-rule:evenodd;stroke:#000000;stroke-width:0.75;stroke-linecap:round;stroke-linejoin:round;stroke-miterlimit:10;stroke-dasharray:none;stroke-opacity:1"
       id="path330"
       inkscape:connector-curvature="0" /><path
       d="m 412.838,619.767 h -34.356 v 0.51 h 34.356 z"
       style="fill:#000000;fill-opacity:1;fill-rule:evenodd;stroke:#000000;stroke-width:0.75;stroke-linecap:round;stroke-linejoin:round;stroke-miterlimit:10;stroke-dasharray:none;stroke-opacity:1"
       id="path332"
       inkscape:connector-curvature="0" /><path
       d="m 429.279,619.767 h -25.285 v 0.51 h 25.285 z"
       style="fill:#000000;fill-opacity:1;fill-rule:evenodd;stroke:#000000;stroke-width:0.75;stroke-linecap:round;stroke-linejoin:round;stroke-miterlimit:10;stroke-dasharray:none;stroke-opacity:1"
       id="path334"
       inkscape:connector-curvature="0" /><path
       d="m 454.847,619.767 h -34.413 v 0.51 h 34.413 z"
       style="fill:#000000;fill-opacity:1;fill-rule:evenodd;stroke:#000000;stroke-width:0.75;stroke-linecap:round;stroke-linejoin:round;stroke-miterlimit:10;stroke-dasharray:none;stroke-opacity:1"
       id="path336"
       inkscape:connector-curvature="0" /><path
       d="m 475.143,619.767 h -29.14 v 0.51 h 29.14 z"
       style="fill:#000000;fill-opacity:1;fill-rule:evenodd;stroke:#000000;stroke-width:0.75;stroke-linecap:round;stroke-linejoin:round;stroke-miterlimit:10;stroke-dasharray:none;stroke-opacity:1"
       id="path338"
       inkscape:connector-curvature="0" /><path
       d="m 500.655,619.767 h -34.356 v 0.51 h 34.356 z"
       style="fill:#000000;fill-opacity:1;fill-rule:evenodd;stroke:#000000;stroke-width:0.75;stroke-linecap:round;stroke-linejoin:round;stroke-miterlimit:10;stroke-dasharray:none;stroke-opacity:1"
       id="path340"
       inkscape:connector-curvature="0" /><path
       d="m 517.096,619.767 h -25.285 v 0.51 h 25.285 z"
       style="fill:#000000;fill-opacity:1;fill-rule:evenodd;stroke:#000000;stroke-width:0.75;stroke-linecap:round;stroke-linejoin:round;stroke-miterlimit:10;stroke-dasharray:none;stroke-opacity:1"
       id="path342"
       inkscape:connector-curvature="0" /><path
       d="m 539.773,619.767 h -31.521 v 0.51 h 31.521 z"
       style="fill:#000000;fill-opacity:1;fill-rule:evenodd;stroke:#000000;stroke-width:0.75;stroke-linecap:round;stroke-linejoin:round;stroke-miterlimit:10;stroke-dasharray:none;stroke-opacity:1"
       id="path344"
       inkscape:connector-curvature="0" /><text
       transform="matrix(1,0,0,-0.96157326,297.6944,702.5384)"
       style="font-variant:normal;font-weight:normal;font-size:6.63079977px;font-family:AdvOTb83ee1dd;-inkscape-font-specification:AdvOTb83ee1dd;writing-mode:lr-tb;fill:#000000;fill-opacity:1;fill-rule:nonzero;stroke:none"
       id="text348"><tspan
         x="0 3.3419232 6.9291859 10.934189 13.069306 18.592764"
         y="0"
         sodipodi:role="line"
         id="tspan346">Table2</tspan></text>
<text
       transform="matrix(1,0,0,-0.96157326,297.6944,693.97543)"
       style="font-variant:normal;font-weight:normal;font-size:6.63079977px;font-family:AdvOT863180fb;-inkscape-font-specification:AdvOT863180fb;writing-mode:lr-tb;fill:#000000;fill-opacity:1;fill-rule:nonzero;stroke:none"
       id="text390"><tspan
         x="0 3.7265096 7.1745257 9.8666306 12.969845 16.41786 20.422865 22.836475 26.218184 29.646307 34.805069 38.531578 42.291241 46.223309 49.605015 52.297119 55.745136 59.750137 62.16375 66.666061 70.047768 74.052773 79.64917 82.062782 85.510796 88.958817 92.963814 96.345528 99.833328 103.28134 105.97344 110.5487 116.2114 120.21641 125.57409 128.26619 131.71422 134.81743 138.19913 140.12869 142.05826 145.50627 151.08278 153.77489 157.2229 160.32611 163.77412 165.5976 169.18486 171.11443 175.11943 180.27818 184.0047 188.38766 191.07976 194.52779 197.79677 201.72882 203.65839 207.66339 212.93488 216.86694 220.24866 226.32246 230.25453 234.25954 236.1891 239.63712"
         y="0"
         sodipodi:role="line"
         id="tspan350">Percentageofparentsandteenagerswhorecalledreceivingorreadingpamphlet</tspan><tspan
         x="0 3.7265096 8.9582109 12.890275 16.616785 19.514444 21.928055 25.031269 28.412977 31.105083 35.037148 37.934807 42.742138 46.674202 48.603764 50.533325 54.259838 59.17989 61.593502 65.041519 67.939178 72.786293 76.512802 81.233932 83.16349 87.168495 89.582108 93.030121 95.722229 99.150352 102.59837 106.60337 109.01698 110.94655 114.67306 121.25744 123.67105 129.93053 132.62263 136.07065 140.00272 143.93477 146.93852 153.00571 154.93527 158.94028 162.87234 166.59885 170.32536 175.57033 177.98393 181.36565 185.37065 189.37564 191.30521 195.31021 201.47685 205.26967 211.34349 213.7571 217.20511 220.65314 224.65814 228.03984 231.52765 234.97566 237.66777 240.56543"
         y="8.9051647"
         sodipodi:role="line"
         id="tspan352">orpostcards:pilottestofinterventiontoreduceindoortanningbyteenagers,</tspan><tspan
         x="0 3.7928176 7.764667 11.557485"
         y="17.863375"
         sodipodi:role="line"
         id="tspan354">2009</tspan><tspan
         x="69.338272 75.485023 78.866737 80.796295 82.725861 86.173874 92.068657 96.000725 99.382431 105.45625 109.38831 113.39331 115.32288 118.77089 123.19363 126.92014 131.64127 135.57333 139.29985 142.19751 144.61111 147.71432 151.09604 153.78815 157.72021"
         y="31.542715"
         sodipodi:role="line"
         id="tspan356">Mailedpamphletorpostcards</tspan><tspan
         x="69.338272 73.409584 76.857605 157.15659 161.99045"
         y="45.16238"
         sodipodi:role="line"
         id="tspan358">YesNo</tspan><tspan
         x="69.338272 73.064789 76.446495 79.138596 82.586617 86.591614 89.005226 115.14384 118.80405 122.25206 125.70007 129.70508 133.08679 136.67406 140.12207 142.81416 157.14996 160.87646 164.25818 166.95029 170.3983 174.40331 176.81691 202.95552 206.61572 210.06375 213.51176 217.51677 220.89847 224.48573 227.93375 230.62585"
         y="58.841721"
         sodipodi:role="line"
         id="tspan360">ParentsTeenagersParentsTeenagers</tspan><tspan
         x="69.338272 89.634491 115.14915 131.59286 157.16057 177.45679 202.97144 219.41516"
         y="72.521057"
         sodipodi:role="line"
         id="tspan362">N%N%N%N%</tspan><tspan
         x="5.9544582 9.6146603 13.341169 15.754781 19.136488 23.075184 25.767288 29.215305 32.112965 36.045029 39.771538 43.776543 47.708607 51.156624 55.161625 57.575237 69.331642 73.124466 89.628525 93.421341 97.214157 101.00697 102.52543 115.13721 118.93003 131.57497 135.36778 139.1606 142.95341 144.47186 157.14333 160.93614 177.4402 181.23303 185.02585 188.81866 190.33711 202.9489 206.74171 219.38664 223.17947 226.97229 230.76511 232.28355"
         y="86.081047"
         sodipodi:role="line"
         id="tspan364">Totalrespondents87100.069100.031100.028100.0</tspan><tspan
         x="12.359811 15.675211 19.123228 25.197041 28.578749 30.50831 69.331642 73.124466 93.427971 97.220787 101.01361 102.53206 115.13721 118.93003 135.37442 139.16724 142.96005 144.4785 157.14333 160.93614 181.23965 185.03247 188.82529 190.34375 202.95552 206.74834 223.19273 226.98555 230.77837 232.29681"
         y="94.986214"
         sodipodi:role="line"
         id="tspan366">Female8395.45072.52890.32071.4</tspan><tspan
         x="12.359811 18.506563 21.888271 23.817833 73.131096 97.227417 101.02024 102.53869 115.14384 118.93666 135.38104 139.17386 142.96667 144.48514 160.9494 185.04573 188.83855 190.35701 206.76161 223.19936 226.99217 230.78499 232.30345"
         y="103.89137"
         sodipodi:role="line"
         id="tspan368">Male44.61927.539.7828.6</tspan><tspan
         x="12.359811 16.431122 19.879139 22.982353 26.364061 28.293623 30.223186 33.671204 39.572613 42.264721 45.712734 48.815948 52.263966 54.193527 58.125591"
         y="112.79654"
         sodipodi:role="line"
         id="tspan370">Recalledreceipt</tspan><tspan
         x="18.712118 22.027517 25.475534 31.549347 34.931053 36.860619 69.338272 73.131096 93.434601 97.227417 101.02024 102.53869 115.14384 118.93666 135.38104 139.17386 142.96667 144.48514 160.9494 181.24629 185.03911 188.83192 190.35037 206.75497 226.99217 230.78499 232.30345"
         y="121.7017"
         sodipodi:role="line"
         id="tspan372">Female5971.14488.0310.715.0</tspan><tspan
         x="18.712118 24.85887 28.240578 30.170139 73.137726 97.234055 101.02687 102.54532 118.94992 135.38768 139.1805 142.97331 144.49176 160.95604 185.05237 188.84518 190.36363 206.76823 223.20599 226.99881 230.79163 232.31007"
         y="130.60687"
         sodipodi:role="line"
         id="tspan374">Male00.0842.100.0225.0</tspan><tspan
         x="18.712118 22.783428 26.231445 29.613153 35.547718 41.621532 45.003239 47.416851 50.864868 53.556973 55.486534 58.868244 60.797806 65.704597 68.11821 70.047768 74.205284 76.897385 80.345406 83.448616 86.896637 88.826195 92.758263 97.16774 99.859848 103.30786 106.41108 109.79279 111.72235 113.65191 117.09993 121.03199"
         y="139.56508"
         sodipodi:role="line"
         id="tspan376">Readmaterials(ifreceiptrecalled)</tspan><tspan
         x="25.11747 28.432871 31.880886 37.9547 41.336407 43.265968 69.338272 73.131096 93.434601 97.227417 101.02024 102.53869 115.14384 118.93666 135.38104 139.17386 142.96667 144.48514 160.9494 185.04573 188.83855 190.35701 206.76161 226.99881 230.79163 232.31007"
         y="148.47025"
         sodipodi:role="line"
         id="tspan378">Female4576.32863.600.000.0</tspan><tspan
         x="25.11747 31.264221 34.645931 36.575493 69.338272 74.172127 76.446495 118.94329 135.38104 139.17386 142.96667 144.48514 157.14996 161.98381 164.25818 206.76161 226.99881 230.79163 232.31007"
         y="157.37541"
         sodipodi:role="line"
         id="tspan380">MaleN/A337.5N/A00.0</tspan><tspan
         x="5.9610891 9.6212912 13.3478 15.761412 19.14312 23.081816 25.77392 29.221935 32.603645 35.70686 39.711861 43.159878 49.101074 51.514687 53.444248 57.548714 60.240818 63.688835 66.792046 70.240067 72.169624 76.101692 80.564217 83.256325 86.704338 89.807556 93.189262 95.118828 97.048386 100.49641 106.41771 109.79942 113.80442 119.73898 122.43109 125.8791 129.26082 133.19289"
         y="166.28056"
         sodipodi:role="line"
         id="tspan382">Totalreached(ifreceiptrecalledandread)</tspan><tspan
         x="12.366442 15.681842 19.129858 25.203671 28.585379 30.514942 69.338272 73.131096 93.434601 97.227417 101.02024 102.53869 115.14384 118.93666 135.38104 139.17386 142.96667 144.48514 160.9494 185.04573 188.83855 190.35701 206.76161 226.99881 230.79163 232.31007"
         y="175.18575"
         sodipodi:role="line"
         id="tspan384">Female4554.22856.000.000.0</tspan><tspan
         x="12.366442 18.513193 21.894901 23.824465 73.137726 97.234055 101.02687 102.54532 118.94992 135.38768 139.1805 142.97331 144.49176 160.95604 185.05237 188.84518 190.36363 206.76823 227.00543 230.79825 232.31671"
         y="184.0909"
         sodipodi:role="line"
         id="tspan386">Male00.0315.800.000.0</tspan><tspan
         x="0.0066308002 4.8404841 7.1148486"
         y="198.71181"
         sodipodi:role="line"
         id="tspan388">N/A</tspan></text>
<text
       transform="matrix(1,0,0,-0.96157326,311.13503,502.89946)"
       style="font-variant:normal;font-weight:normal;font-size:6.63079977px;font-family:AdvP4C4E74;-inkscape-font-specification:AdvP4C4E74;writing-mode:lr-tb;fill:#000000;fill-opacity:1;fill-rule:nonzero;stroke:none"
       id="text394"><tspan
         x="0"
         y="0"
         id="tspan392">¼</tspan></text>
<text
       transform="matrix(1,0,0,-0.96157326,318.22336,502.89946)"
       style="font-variant:normal;font-weight:normal;font-size:6.63079977px;font-family:AdvOT863180fb;-inkscape-font-specification:AdvOT863180fb;writing-mode:lr-tb;fill:#000000;fill-opacity:1;fill-rule:nonzero;stroke:none"
       id="text398"><tspan
         x="0 4.6946063 8.6266708 12.074687 14.972346 17.385958 19.315521 23.04203 27.047033 31.973717 37.636421 41.084438 43.776543 49.207169 53.21217 56.938679 61.34153 64.723236 67.620895 71.281097 74.729118 80.670311 84.39682 89.058273 93.063278 96.789787 101.19264 104.57435 108.50641 112.43848 114.36804 116.2976 119.40082 122.78252 126.57534 128.5049 131.95293"
         y="0"
         sodipodi:role="line"
         id="tspan396">Questionswerenotaskedornotapplicable.</tspan></text>
</g></svg>