<?xml version="1.0" encoding="UTF-8" standalone="no"?>
<!-- Created with Inkscape (http://www.inkscape.org/) -->

<svg
   xmlns:dc="http://purl.org/dc/elements/1.1/"
   xmlns:cc="http://creativecommons.org/ns#"
   xmlns:rdf="http://www.w3.org/1999/02/22-rdf-syntax-ns#"
   xmlns:svg="http://www.w3.org/2000/svg"
   xmlns="http://www.w3.org/2000/svg"
   xmlns:sodipodi="http://sodipodi.sourceforge.net/DTD/sodipodi-0.dtd"
   xmlns:inkscape="http://www.inkscape.org/namespaces/inkscape"
   version="1.1"
   id="svg2"
   xml:space="preserve"
   width="768"
   height="1031.9626"
   viewBox="0 0 768 1031.9626"
   sodipodi:docname="table4.svg"
   inkscape:version="0.92.0 r15299"><metadata
     id="metadata8"><rdf:RDF><cc:Work
         rdf:about=""><dc:format>image/svg+xml</dc:format><dc:type
           rdf:resource="http://purl.org/dc/dcmitype/StillImage" /><dc:title></dc:title></cc:Work></rdf:RDF></metadata><defs
     id="defs6" /><sodipodi:namedview
     pagecolor="#ffffff"
     bordercolor="#666666"
     borderopacity="1"
     objecttolerance="10"
     gridtolerance="10"
     guidetolerance="10"
     inkscape:pageopacity="0"
     inkscape:pageshadow="2"
     inkscape:window-width="1920"
     inkscape:window-height="988"
     id="namedview4"
     showgrid="false"
     inkscape:zoom="1.2936685"
     inkscape:cx="322.66306"
     inkscape:cy="699.21732"
     inkscape:window-x="0"
     inkscape:window-y="27"
     inkscape:window-maximized="1"
     inkscape:current-layer="g10" /><g
     id="g10"
     inkscape:groupmode="layer"
     inkscape:label="fulltext"
     transform="matrix(1.3333333,0,0,-1.3333333,0,1031.9627)"><path
       d="M 37.644,353.253 H 539.773 V 685.417 H 37.644 Z"
       style="fill:#e6e6e6;fill-opacity:1;fill-rule:nonzero;stroke:none"
       id="path308"
       inkscape:connector-curvature="0" /><path
       d="m 37.644,685.417 h 502.129 v -4.025 H 37.644 Z"
       style="fill:#ffffff;fill-opacity:1;fill-rule:evenodd;stroke:#ffffff;stroke-width:0.75;stroke-linecap:round;stroke-linejoin:round;stroke-miterlimit:10;stroke-dasharray:none;stroke-opacity:1"
       id="path310"
       inkscape:connector-curvature="0" /><g
       id="g312"
       transform="translate(37.643997,681.392)"><path
         d="M 0,0 H 502.129 V -0.454 H 0"
         style="fill:#000000;fill-opacity:1;fill-rule:evenodd;stroke:#000000;stroke-width:0.75;stroke-linecap:round;stroke-linejoin:round;stroke-miterlimit:10;stroke-dasharray:none;stroke-opacity:1"
         id="path314"
         inkscape:connector-curvature="0" /></g><path
       d="M 539.773,353.253 H 37.644 v 1.02 h 502.129 z"
       style="fill:#ffffff;fill-opacity:1;fill-rule:evenodd;stroke:#ffffff;stroke-width:0.75;stroke-linecap:round;stroke-linejoin:round;stroke-miterlimit:10;stroke-dasharray:none;stroke-opacity:1"
       id="path316"
       inkscape:connector-curvature="0" /><g
       id="g318"
       transform="translate(539.773,354.274)"><path
         d="M 0,0 H -502.129 V 0.51 H 0"
         style="fill:#000000;fill-opacity:1;fill-rule:evenodd;stroke:#000000;stroke-width:0.75;stroke-linecap:round;stroke-linejoin:round;stroke-miterlimit:10;stroke-dasharray:none;stroke-opacity:1"
         id="path320"
         inkscape:connector-curvature="0" /></g><path
       d="M 267.194,641.48 H 37.644 v 0.51 h 229.55 z"
       style="fill:#000000;fill-opacity:1;fill-rule:evenodd;stroke:#000000;stroke-width:0.75;stroke-linecap:round;stroke-linejoin:round;stroke-miterlimit:10;stroke-dasharray:none;stroke-opacity:1"
       id="path322"
       inkscape:connector-curvature="0" /><g
       id="g324"
       transform="translate(533.82001,667.786)"><path
         d="M 0,0 H -266.627 V 0.454 H 0"
         style="fill:#000000;fill-opacity:1;fill-rule:evenodd;stroke:#000000;stroke-width:0.75;stroke-linecap:round;stroke-linejoin:round;stroke-miterlimit:10;stroke-dasharray:none;stroke-opacity:1"
         id="path326"
         inkscape:connector-curvature="0" /></g><g
       id="g328"
       transform="translate(380.69299,654.633)"><path
         d="M 0,0 H -113.499 V 0.51 H 0"
         style="fill:#000000;fill-opacity:1;fill-rule:evenodd;stroke:#000000;stroke-width:0.75;stroke-linecap:round;stroke-linejoin:round;stroke-miterlimit:10;stroke-dasharray:none;stroke-opacity:1"
         id="path330"
         inkscape:connector-curvature="0" /></g><g
       id="g332"
       transform="translate(533.82001,654.633)"><path
         d="M 0,0 H -113.556 V 0.51 H 0"
         style="fill:#000000;fill-opacity:1;fill-rule:evenodd;stroke:#000000;stroke-width:0.75;stroke-linecap:round;stroke-linejoin:round;stroke-miterlimit:10;stroke-dasharray:none;stroke-opacity:1"
         id="path334"
         inkscape:connector-curvature="0" /></g><path
       d="M 344.636,641.48 H 227.622 v 0.51 h 117.014 z"
       style="fill:#000000;fill-opacity:1;fill-rule:evenodd;stroke:#000000;stroke-width:0.75;stroke-linecap:round;stroke-linejoin:round;stroke-miterlimit:10;stroke-dasharray:none;stroke-opacity:1"
       id="path336"
       inkscape:connector-curvature="0" /><path
       d="M 420.264,641.48 H 305.121 v 0.51 h 115.143 z"
       style="fill:#000000;fill-opacity:1;fill-rule:evenodd;stroke:#000000;stroke-width:0.75;stroke-linecap:round;stroke-linejoin:round;stroke-miterlimit:10;stroke-dasharray:none;stroke-opacity:1"
       id="path338"
       inkscape:connector-curvature="0" /><path
       d="M 497.707,641.48 H 380.693 v 0.51 h 117.014 z"
       style="fill:#000000;fill-opacity:1;fill-rule:evenodd;stroke:#000000;stroke-width:0.75;stroke-linecap:round;stroke-linejoin:round;stroke-miterlimit:10;stroke-dasharray:none;stroke-opacity:1"
       id="path340"
       inkscape:connector-curvature="0" /><path
       d="m 539.773,641.48 h -81.581 v 0.51 h 81.581 z"
       style="fill:#000000;fill-opacity:1;fill-rule:evenodd;stroke:#000000;stroke-width:0.75;stroke-linecap:round;stroke-linejoin:round;stroke-miterlimit:10;stroke-dasharray:none;stroke-opacity:1"
       id="path342"
       inkscape:connector-curvature="0" /><text
       transform="matrix(1,0,0,-0.96157326,37.6441,702.5384)"
       style="font-variant:normal;font-weight:normal;font-size:6.63079977px;font-family:AdvOTb83ee1dd;-inkscape-font-specification:AdvOTb83ee1dd;writing-mode:lr-tb;fill:#000000;fill-opacity:1;fill-rule:nonzero;stroke:none"
       id="text346"><tspan
         x="0 3.4016004 6.988863 10.993866 13.128984 18.652441"
         y="0"
         sodipodi:role="line"
         id="tspan344">Table4</tspan></text>
<text
       transform="matrix(1,0,0,-0.96157326,37.6441,693.97543)"
       style="font-variant:normal;font-weight:normal;font-size:6.63079977px;font-family:AdvOT863180fb;-inkscape-font-specification:AdvOT863180fb;writing-mode:lr-tb;fill:#000000;fill-opacity:1;fill-rule:nonzero;stroke:none"
       id="text358"><tspan
         x="0 3.9320643 7.6585741 13.732387 17.664452 21.04616 23.738264 25.667828 28.565487 32.291996 38.040901 41.76741 45.58012 47.509682 51.514687 55.446751 59.17326 62.899769 67.349037 69.76265 73.144356 77.149361 81.154358 83.083923 87.088928 92.347153 96.007355 100.01236 103.73887 109.40157 111.22504 114.67306 118.60512 122.19238 125.6404 128.79666 132.17836 134.59198 137.00558 138.93515 141.34877 145.28082 149.21289 152.6609 155.55856 158.78777 162.71983 166.16785 168.85995 171.96317 175.41118 177.21477 180.80202 184.25005 189.8597 193.8647 197.5912 200.28331 206.35713 209.25479 212.47736 215.85907 219.86406 225.5135 229.30632 232.75435 236.75934 239.96866 243.55591 245.48547 249.21199 253.6281 257.42093 260.86893 263.28253 268.94525 272.39325 275.84128 281.51724 287.59106 291.21149 293.62509 297.6301 301.07809 303.7702 308.38525 311.76697 315.77197 321.42139 325.00867 326.93823 329.63034 331.55991 336.10199 341.76468 345.76968 351.12738 356.7901 360.2381 362.80423 367.96298 371.3447 375.3497 380.99915 386.66183 390.10986 392.62292 397.78168 401.78668 405.51321 409.57126 415.64508 419.02676 420.95633 422.88589 426.33392 432.02313 435.9552 439.33691 445.41074 449.3428 453.34781 455.27734 458.72537 462.75027 466.47678 470.91278 474.86475 478.59125 481.48892 483.90253 487.00574 490.38745 492.98672 496.91879 499.81644"
         y="0"
         sodipodi:role="line"
         id="tspan348">Comparisonofindoortanningknowledge,attitudes,perceivednorms,andbehaviorbetweenmothersandgirlswhowereandwerenotmailedpamphletorpostcards:</tspan><tspan
         x="0 3.9320643 5.8616271 7.7911901 11.517699 15.874135 18.287746 21.735762 24.633423 28.910288 32.636799 36.787678 38.717239 42.722244 45.135857 48.58387 51.275978 54.704102 58.152115 62.15712 64.570732 66.50029 70.226799 76.247566 78.661179 84.297363 86.989464 90.437485 94.369545 98.301613 101.40482 106.80229 108.73186 112.73686 116.66892 120.39544 124.12195 128.79666 131.21027 134.59198 138.59698 142.60199 144.53156 148.53654 154.13957 157.82631 163.43596 165.84956 169.29759 172.74561 176.75061 180.13231 183.56044 187.00845 189.70056 192.59822 196.14569 199.93851 203.91035 207.70319"
         y="8.9051647"
         sodipodi:role="line"
         id="tspan350">pilottestofinterventiontoreduceindoortanningbyteenagers,2009</tspan><tspan
         x="229.55167 235.69841 239.08012 241.00969 242.93925 246.38727 252.28204 256.21411 259.59583 265.66965 269.60168 273.60669 275.53625 278.98428 283.40701 287.13354 291.85468 295.78671 299.51324 302.41089 304.82449 307.92773 311.30942 314.00153 317.93359"
         y="22.584505"
         sodipodi:role="line"
         id="tspan352">Mailedpamphletorpostcards</tspan><tspan
         x="229.55167 235.69841 239.42493 241.83853 245.84354 249.29155 251.98366 382.62369 387.24536 389.17493 391.867 393.79657"
         y="36.263844"
         sodipodi:role="line"
         id="tspan354">MothersGirls</tspan><tspan
         x="229.55167 233.62297 237.071 241.96452 244.37813"
         y="49.943188"
         sodipodi:role="line"
         id="tspan356">Yes(n</tspan></text>
<text
       transform="matrix(1,0,0,-0.96157326,288.00322,645.9514)"
       style="font-variant:normal;font-weight:normal;font-size:6.63079977px;font-family:AdvP4C4E74;-inkscape-font-specification:AdvP4C4E74;writing-mode:lr-tb;fill:#000000;fill-opacity:1;fill-rule:nonzero;stroke:none"
       id="text362"><tspan
         x="0"
         y="0"
         id="tspan360">¼</tspan></text>
<text
       transform="matrix(1,0,0,-0.96157326,295.09154,645.9514)"
       style="font-variant:normal;font-weight:normal;font-size:6.63079977px;font-family:AdvOT863180fb;-inkscape-font-specification:AdvOT863180fb;writing-mode:lr-tb;fill:#000000;fill-opacity:1;fill-rule:nonzero;stroke:none"
       id="text366"><tspan
         x="0 3.7928176 7.5856352 49.551968 54.385822 60.09494 62.508553"
         y="0"
         sodipodi:role="line"
         id="tspan364">83)No(n</tspan></text>
<text
       transform="matrix(1,0,0,-0.96157326,363.63412,645.9514)"
       style="font-variant:normal;font-weight:normal;font-size:6.63079977px;font-family:AdvP4C4E74;-inkscape-font-specification:AdvP4C4E74;writing-mode:lr-tb;fill:#000000;fill-opacity:1;fill-rule:nonzero;stroke:none"
       id="text370"><tspan
         x="0"
         y="0"
         id="tspan368">¼</tspan></text>
<text
       transform="matrix(1,0,0,-0.96157326,370.72245,645.9514)"
       style="font-variant:normal;font-weight:normal;font-size:6.63079977px;font-family:AdvOT863180fb;-inkscape-font-specification:AdvOT863180fb;writing-mode:lr-tb;fill:#000000;fill-opacity:1;fill-rule:nonzero;stroke:none"
       id="text374"><tspan
         x="0 3.7928176 7.5856352 49.551968 53.62328 57.071297 61.964825 64.378441"
         y="0"
         sodipodi:role="line"
         id="tspan372">28)Yes(n</tspan></text>
<text
       transform="matrix(1,0,0,-0.96157326,441.08186,645.9514)"
       style="font-variant:normal;font-weight:normal;font-size:6.63079977px;font-family:AdvP4C4E74;-inkscape-font-specification:AdvP4C4E74;writing-mode:lr-tb;fill:#000000;fill-opacity:1;fill-rule:nonzero;stroke:none"
       id="text378"><tspan
         x="0"
         y="0"
         id="tspan376">¼</tspan></text>
<text
       transform="matrix(1,0,0,-0.96157326,448.17019,645.9514)"
       style="font-variant:normal;font-weight:normal;font-size:6.63079977px;font-family:AdvOT863180fb;-inkscape-font-specification:AdvOT863180fb;writing-mode:lr-tb;fill:#000000;fill-opacity:1;fill-rule:nonzero;stroke:none"
       id="text382"><tspan
         x="0 3.7928176 7.5856352 49.551968 54.385822 60.09494 62.508553"
         y="0"
         sodipodi:role="line"
         id="tspan380">50)No(n</tspan></text>
<text
       transform="matrix(1,0,0,-0.96157326,516.71277,645.9514)"
       style="font-variant:normal;font-weight:normal;font-size:6.63079977px;font-family:AdvP4C4E74;-inkscape-font-specification:AdvP4C4E74;writing-mode:lr-tb;fill:#000000;fill-opacity:1;fill-rule:nonzero;stroke:none"
       id="text386"><tspan
         x="0"
         y="0"
         id="tspan384">¼</tspan></text>
<text
       transform="matrix(1,0,0,-0.96157326,523.80109,645.9514)"
       style="font-variant:normal;font-weight:normal;font-size:6.63079977px;font-family:AdvOT863180fb;-inkscape-font-specification:AdvOT863180fb;writing-mode:lr-tb;fill:#000000;fill-opacity:1;fill-rule:nonzero;stroke:none"
       id="text394"><tspan
         x="0 3.7928176 7.5856352"
         y="0"
         sodipodi:role="line"
         id="tspan388">20)</tspan><tspan
         x="-480.12961 -475.85272 -471.84772 -468.12122 -462.45853 -460.52896 -457.08093 -453.14886 -449.56161"
         y="13.559986"
         sodipodi:role="line"
         id="tspan390">Knowledge</tspan><tspan
         x="-473.77728 -470.05078 -466.60275 -463.91068 -460.80743 -457.35944 -453.35443 -450.94083 -447.55911 -443.97183 -438.51471 -432.85199 -428.84698 -423.15112 -419.76944 -416.18216 -413.49005 -410.04205 -406.59402 -400.64621 -396.91968 -392.19855 -386.53586 -383.08783 -380.39572 -374.96512 -371.86191 -368.13538 -365.44327 -362.75119 -359.30316 -356.19995 -351.77719 -349.36359 -345.35858 -341.97687"
         y="22.465151"
         sodipodi:role="line"
         id="tspan392">Percentagewhoagreedorwerecorrectthat</tspan></text>
<text
       transform="matrix(1,0,0,-0.96157326,186.20054,624.34951)"
       style="font-variant:normal;font-weight:normal;font-size:6.63079977px;font-family:AdvPS3FDD77;-inkscape-font-specification:AdvPS3FDD77;writing-mode:lr-tb;fill:#000000;fill-opacity:1;fill-rule:nonzero;stroke:none"
       id="text398"><tspan
         x="0"
         y="0"
         id="tspan396">.</tspan></text>
<text
       transform="matrix(1,0,0,-0.96157326,56.429156,615.78654)"
       style="font-variant:normal;font-weight:normal;font-size:6.63079977px;font-family:AdvOT863180fb;-inkscape-font-specification:AdvOT863180fb;writing-mode:lr-tb;fill:#000000;fill-opacity:1;fill-rule:nonzero;stroke:none"
       id="text402"><tspan
         x="0 3.4480159 7.1082177 9.0377808 15.025393 18.128607 21.510315 25.515318 28.618532 32.066547 36.734631 38.664196 43.590878 46.694092 50.420605 56.494415 62.56823 66.294739 210.77988 214.57269 218.36551 219.88396 288.22098 292.01379 295.80661 297.32507"
         y="0"
         sodipodi:role="line"
         id="tspan400">Skincanceriscommon98.889.3</tspan></text>
<text
       transform="matrix(1,0,0,-0.89688524,357.5621,618.6329)"
       style="font-variant:normal;font-weight:normal;font-size:4.97310019px;font-family:AdvOT863180fb;-inkscape-font-specification:AdvOT863180fb;writing-mode:lr-tb;fill:#000066;fill-opacity:1;fill-rule:nonzero;stroke:none"
       id="text406"><tspan
         x="0"
         y="0"
         id="tspan404">a</tspan></text>
<text
       transform="matrix(1,0,0,-0.96157326,424.0629,615.7983)"
       style="font-variant:normal;font-weight:normal;font-size:6.63079977px;font-family:AdvOT863180fb;-inkscape-font-specification:AdvOT863180fb;writing-mode:lr-tb;fill:#000000;fill-opacity:1;fill-rule:nonzero;stroke:none"
       id="text424"><tspan
         x="0 3.7928176 7.5856352 9.1040888 77.441116 81.233932 85.026749 86.545204"
         y="0"
         sodipodi:role="line"
         id="tspan408">98.095.0</tspan><tspan
         x="-367.65134 -363.99115 -360.60944 -356.60443 -352.59943 -349.1514 -343.27652 -340.37885 -336.71866 -334.78909 -328.76169 -326.83212 -321.9585 -318.02643 -314.64471 -308.57092 -305.18921 -301.60193 -298.15393 -156.87146 -153.07864 -149.28583 -147.76738 -79.430351 -75.637535 -71.844719 -70.326263 -0.0066308002 3.7861867 7.5790043 9.0974579 77.434479 81.227303 85.020119 86.538574"
         y="8.9051647"
         sodipodi:role="line"
         id="tspan410">Tannedskinisdamaged92.885.788.095.0</tspan><tspan
         x="-367.65796 -361.51123 -358.0632 -356.13364 -352.75192 -348.74692 -345.02042 -338.94659 -333.58893 -331.65936 -326.78571 -324.85614 -320.85114 -317.74792 -315.05582 -311.60782 -308.2261 -305.32846 -303.3989 -299.39389 -156.8781 -153.08528 -149.29247 -147.774 -79.436981 -75.644165 -71.851349 -70.332893 -0.0132616 3.779556 7.5723734 9.090827 77.427849 81.220673 85.013489 86.531937"
         y="17.810329"
         sodipodi:role="line"
         id="tspan412">Melanomaisincreasing86.889.390.090.0</tspan><tspan
         x="-367.66461 -365.66211 -361.6571 -357.72504 -353.9985 -350.272 -345.61057 -343.19696 -339.81525 -335.81024 -331.80524 -329.87567 -325.87067 -320.26764 -318.33807 -313.46445 -310.56677 -307.18506 -305.04996 -301.60193 -296.91397 -294.50037 -290.49536 -287.11365 -281.09952 -278.20184 -274.26978 -153.08528 -149.29247 -147.774 -75.644165 -71.851349 -70.332893 3.779556 81.220673 85.013489 86.531937"
         y="26.768539"
         sodipodi:role="line"
         id="tspan414">Indoortanningissaferthansun1.23.604.0</tspan><tspan
         x="-367.67123 -365.66873 -361.66373 -357.73166 -354.00516 -350.27866 -345.61719 -343.20358 -339.82187 -335.81686 -331.81186 -329.88229 -325.87729 -320.27426 -317.17105 -313.44455 -309.51248 -307.58292 -301.68152 -298.57831 -295.19659 -291.26453 -288.36685 -282.91635 -279.81314 -276.43143 -272.42642 -269.32321 -265.87518 -156.89136 -153.09854 -149.30573 -147.78728 -79.450249 -75.657425 -71.864609 -70.346161 -3.8259716 -0.033154 3.7596636 7.5524812 9.0709343 73.615143 77.407959 81.200775 84.993591 86.512047"
         y="35.673702"
         sodipodi:role="line"
         id="tspan416">Indoortanningcouldcausecancer94.096.4100.0100.0</tspan><tspan
         x="-367.67786 -363.74579 -360.36407 -357.46643 -352.02917 -349.61557 -346.23386 -340.23962 -336.30756 -333.61545 -329.88892 -327.47531 -324.02731 -320.9241 -318.51047 -313.59705 -311.46194 -308.76984 -305.04333 -296.98691 -294.08923 -290.15717 -156.89799 -153.10518 -149.31235 -147.7939 -79.456879 -75.664062 -71.871239 -70.352791 -0.033154 3.7596636 7.5524812 9.0709343 77.407959 81.200775 84.993591 86.512047"
         y="44.578869"
         sodipodi:role="line"
         id="tspan418">Basetanprotectsfromsun21.725.036.045.0</tspan><tspan
         x="-367.68448 -363.33469 -361.40512 -358.99152 -355.54349 -352.85138 -348.84637 -345.46469 -343.05106 -341.12152 -337.53424 -334.08621 -329.19269 -326.77908 -321.08322 -319.15366 -315.42715 -311.70065 -306.00479 -302.41754 -298.69101 -294.96451 -289.05646 -285.60846 -281.94824 -280.01868 -277.12103 -156.90462 -152.07077 -149.7964 -79.463509 -74.629654 -72.355293 -0.0397848 3.7530327 7.5458503 9.0643034 77.401329 81.194145 84.986961 86.505417"
         y="53.484032"
         sodipodi:role="line"
         id="tspan420">AlternativestolookgoodexistN/AN/A90.085.0</tspan><tspan
         x="-367.69113 -364.44867 -361.06696 -355.40424 -350.51736 -347.06934 -343.40912 -341.47958 -338.58191 -334.19232 -332.05719 -328.33069 -323.64935 -319.71729 -316.33557 -313.64346 -310.19547 -306.19046 -303.77686 -300.39514 -296.43655 -293.33334 -289.60681 -285.60181 -282.70416 -279.25613 -275.25113 -156.91125 -153.11844 -149.32562 -147.80716 -75.670692"
         y="62.389198"
         sodipodi:role="line"
         id="tspan422">Lawsexistforparentalconsent18.10</tspan></text>
<text
       transform="matrix(1,0,0,-0.89688524,352.233,558.6519)"
       style="font-variant:normal;font-weight:normal;font-size:4.97310019px;font-family:AdvOT863180fb;-inkscape-font-specification:AdvOT863180fb;writing-mode:lr-tb;fill:#000066;fill-opacity:1;fill-rule:nonzero;stroke:none"
       id="text428"><tspan
         x="0"
         y="0"
         id="tspan426">a</tspan></text>
<text
       transform="matrix(1,0,0,-0.96157326,424.0629,555.8171)"
       style="font-variant:normal;font-weight:normal;font-size:6.63079977px;font-family:AdvOT863180fb;-inkscape-font-specification:AdvOT863180fb;writing-mode:lr-tb;fill:#000000;fill-opacity:1;fill-rule:nonzero;stroke:none"
       id="text436"><tspan
         x="0 3.7928176 7.5856352 9.1040888 81.240562 85.033379 86.551834"
         y="0"
         sodipodi:role="line"
         id="tspan430">28.05.0</tspan><tspan
         x="-380.409 -376.0592 -373.64557 -371.23196 -369.3024 -366.88879 -362.95673 -359.02466 -355.57666"
         y="8.9051647"
         sodipodi:role="line"
         id="tspan432">Attitudes</tspan><tspan
         x="-374.0567 -370.33017 -366.88217 -364.19006 -361.08685 -357.63882 -353.63382 -351.22021 -347.8385 -344.25125 -338.7941 -333.13138 -329.1264 -323.43054 -320.04883 -316.46155 -313.76947 -310.32144 -306.87341 -300.9256 -298.51199 -294.50699 -291.12527"
         y="17.810329"
         sodipodi:role="line"
         id="tspan434">Percentagewhoagreedthat</tspan></text>
<text
       transform="matrix(1,0,0,-0.96157326,137.367,538.69116)"
       style="font-variant:normal;font-weight:normal;font-size:6.63079977px;font-family:AdvPS3FDD77;-inkscape-font-specification:AdvPS3FDD77;writing-mode:lr-tb;fill:#000000;fill-opacity:1;fill-rule:nonzero;stroke:none"
       id="text440"><tspan
         x="0"
         y="0"
         id="tspan438">.</tspan></text>
<text
       transform="matrix(1,0,0,-0.96157326,56.411563,530.1282)"
       style="font-variant:normal;font-weight:normal;font-size:6.63079977px;font-family:AdvOT863180fb;-inkscape-font-specification:AdvOT863180fb;writing-mode:lr-tb;fill:#000000;fill-opacity:1;fill-rule:nonzero;stroke:none"
       id="text456"><tspan
         x="0 3.7265096 7.1745257 10.901035 14.833099 16.762663 22.166765 27.829468 29.759031 32.172642 38.206669 40.620281 44.001987 48.006992 52.88726 56.26897 58.961075 64.398331 70.472145 74.198654 76.890755 82.314751 85.696457 88.110069 90.523682 93.21579 96.597496 99.700706 102.11432 104.04388 107.63115 210.77988 214.57269 218.36551 219.88396 288.22098 292.01379 295.80661 297.32507 367.64471 371.43753 375.23035 376.74878 445.08582 448.87863 452.67145 454.18991"
         y="0"
         sodipodi:role="line"
         id="tspan442">Peoplewithtansaremoreattractive77.188.949.070.0</tspan><tspan
         x="0 3.9320643 7.9370675 11.318775 15.323779 18.426992 21.87501 26.755278 30.481787 34.57962 37.477283 41.137482 43.067047 49.094444 52.197659 55.579365 59.58437 62.687584 66.135597 70.80368 74.185387 76.877495 82.314751 85.21241 91.286224 94.667931 96.597496 210.77988 214.57269 218.36551 219.88396 288.22098 292.01379 295.80661 297.32507 367.64471 371.43753 375.23035 376.74878 445.08582 448.87863 452.67145 454.18991"
         y="8.9582109"
         sodipodi:role="line"
         id="tspan444">Chancesofskincanceraresmall24.137.032.030.0</tspan><tspan
         x="0 3.6602015 7.0419097 11.046913 15.051916 18.499931 24.374821 27.27248 30.932682 32.862244 38.889641 40.819206 44.545715 48.272224 51.932426 56.806065 60.811066 64.259087 67.640793 69.570351 71.983963 75.988968 77.918533 81.366547 210.77988 214.57269 218.36551 219.88396 288.22098 292.01379 295.80661 297.32507 367.64471 371.43753 375.23035 376.74878 445.08582 448.87863 452.67145 454.18991"
         y="17.863375"
         sodipodi:role="line"
         id="tspan446">Tannedskinlookshealthier78.666.334.040.0</tspan><tspan
         x="0 2.0025015 6.0075049 9.9395695 13.871634 16.769293 19.182905 21.87501 27.43825 33.512062 36.893772 39.585876 43.246078 46.694092 49.107704 54.02776 56.441368 62.137226 64.550835 67.998856 71.446869 75.451874 78.83358 82.420845 85.868858 88.560966 210.7865 214.57932 218.37213 219.89059 288.2276 292.02045 295.81326 297.3317 367.65134 371.44415 375.23697 376.75543 441.293 445.08582 448.87863 452.67145 454.18991"
         y="26.768539"
         sodipodi:role="line"
         id="tspan448">Industrymarketstoteenagers96.196.490.0100.0</tspan><tspan
         x="0 2.0025015 6.0075049 9.9395695 13.871634 16.769293 19.182905 21.87501 27.43825 29.851862 33.23357 35.925674 39.512936 42.960953 45.374565 47.304127 51.309132 56.918789 59.332397 62.780415 66.228432 70.233437 73.615143 77.202408 80.650421 83.342522 88.209534 90.139091 95.065781 97.96344 101.41145 104.10356 106.03312 109.75964 113.6917 210.77324 214.56606 218.35887 219.87733 288.21436 292.00717 295.79999 297.31845 363.83862 368.67249 370.94684 441.27975 446.11359 448.38797"
         y="35.673702"
         sodipodi:role="line"
         id="tspan450">Industrytargetingteenagersisserious92.285.7N/AN/A</tspan><tspan
         x="0 4.6946063 8.6996098 14.116973 17.704235 21.152252 23.565863 28.459394 31.562609 35.289116 41.36293 45.294994 47.224556 49.154121 55.227932 58.675949 62.680954 65.094566 70.014618 73.741127 79.708847 82.122459 85.504166 89.509171 93.514175 96.962189 102.89675 105.79441 109.45461 111.38418 210.77988 214.57269 218.36551 219.88396 288.22098 292.01379 295.80661 297.32507 367.64471 371.43753 375.23035 376.74878 441.28638 445.07919 448.87201 452.66483 454.18329"
         y="44.578869"
         sodipodi:role="line"
         id="tspan452">Onegetscomplimentsontannedskin80.067.990.0100.0</tspan><tspan
         x="0 2.0025015 6.0075049 9.9395695 13.666079 17.392588 22.054041 24.467651 27.84936 31.854362 35.859367 37.788929 41.793934 47.396957 49.326523 51.256084 53.391201 55.804813 60.665188 63.562847 67.494911 69.424477 72.116577 74.046143 76.459755 210.7865 214.57932 218.37213 219.89059 288.2276 292.02045 295.81326 297.3317"
         y="53.484032"
         sodipodi:role="line"
         id="tspan454">Indoortanningliftsspirits59.584.6</tspan></text>
<text
       transform="matrix(1,0,0,-0.89688524,357.5621,481.5495)"
       style="font-variant:normal;font-weight:normal;font-size:4.97310019px;font-family:AdvOT863180fb;-inkscape-font-specification:AdvOT863180fb;writing-mode:lr-tb;fill:#000066;fill-opacity:1;fill-rule:nonzero;stroke:none"
       id="text460"><tspan
         x="0"
         y="0"
         id="tspan458">a</tspan></text>
<text
       transform="matrix(1,0,0,-0.96157326,424.0629,478.7148)"
       style="font-variant:normal;font-weight:normal;font-size:6.63079977px;font-family:AdvOT863180fb;-inkscape-font-specification:AdvOT863180fb;writing-mode:lr-tb;fill:#000000;fill-opacity:1;fill-rule:nonzero;stroke:none"
       id="text470"><tspan
         x="0 3.7928176 7.5856352 9.1040888 77.441116 81.233932 85.026749 86.545204"
         y="0"
         sodipodi:role="line"
         id="tspan462">57.150.0</tspan><tspan
         x="-367.65134 -365.64883 -361.64383 -357.71176 -353.98526 -350.25876 -345.59729 -343.18369 -339.80197 -335.79697 -331.79196 -329.8624 -325.85739 -320.25436 -318.32483 -313.45117 -310.75906 -307.31107 -305.3815 -301.99979 -298.3396 -296.41003 -292.40503 -156.87146 -153.07864 -149.28583 -147.76738 -79.430351 -75.637535 -71.844719 -70.326263 -0.0066308002 3.7861867 7.5790043 9.0974579 77.434479 81.227303 85.020119 86.538574"
         y="8.9051647"
         sodipodi:role="line"
         id="tspan464">Indoortanningisrelaxing46.361.559.283.3</tspan><tspan
         x="-380.41562 -376.68912 -373.24109 -370.54901 -367.44577 -363.99777 -362.06821 -358.48093 -355.03293 -349.12488 -345.11987 -341.39337 -338.70126 -332.62744"
         y="17.863375"
         sodipodi:role="line"
         id="tspan466">Perceivednorms</tspan><tspan
         x="-374.06332 -370.33682 -366.88879 -364.19669 -361.09348 -357.64545 -353.64044 -351.22684 -347.84512 -344.25787 -338.80072 -333.13803 -329.13303 -323.43716 -319.64435 -316.19632 -314.26675 -312.33719 -308.88919 -305.30191 -301.85391 -295.8862 -293.47256 -289.46756 -286.08588"
         y="26.768539"
         sodipodi:role="line"
         id="tspan468">Percentagewhobelievedthat</tspan></text>
<text
       transform="matrix(1,0,0,-0.96157326,142.40641,452.97489)"
       style="font-variant:normal;font-weight:normal;font-size:6.63079977px;font-family:AdvPS3FDD77;-inkscape-font-specification:AdvPS3FDD77;writing-mode:lr-tb;fill:#000000;fill-opacity:1;fill-rule:nonzero;stroke:none"
       id="text474"><tspan
         x="0"
         y="0"
         id="tspan472">.</tspan></text>
<text
       transform="matrix(1,0,0,-0.96157326,56.404932,444.41192)"
       style="font-variant:normal;font-weight:normal;font-size:6.63079977px;font-family:AdvP4C4E51;-inkscape-font-specification:AdvP4C4E51;writing-mode:lr-tb;fill:#000000;fill-opacity:1;fill-rule:nonzero;stroke:none"
       id="text478"><tspan
         x="0"
         y="0"
         id="tspan476">&gt;</tspan></text>
<text
       transform="matrix(1,0,0,-0.96157326,61.504018,444.41192)"
       style="font-variant:normal;font-weight:normal;font-size:6.63079977px;font-family:AdvOT863180fb;-inkscape-font-specification:AdvOT863180fb;writing-mode:lr-tb;fill:#000000;fill-opacity:1;fill-rule:nonzero;stroke:none"
       id="text482"><tspan
         x="0 3.7928176 7.5856352 13.659448 17.385958 21.483791 25.415857 28.863873 32.31189 35.003994 39.910786 43.84285 46.740509 52.210918 54.140484 58.145485 62.077549 65.804062 69.530571 74.205284 76.618896 80.000603 84.005608 88.010605 89.94017 93.945175 205.68079 209.4736 213.26642 214.78487 283.12189 286.9147 290.70752 292.22598 362.54562 366.33844 370.13126 371.64972 439.98672 443.77954 447.57236 449.09082"
         y="0"
         sodipodi:role="line"
         id="tspan480">50%ofpeersuseindoortanning48.863.055.179.0</tspan></text>
<text
       transform="matrix(1,0,0,-0.89688524,514.4313,447.2503)"
       style="font-variant:normal;font-weight:normal;font-size:4.97310019px;font-family:AdvOT863180fb;-inkscape-font-specification:AdvOT863180fb;writing-mode:lr-tb;fill:#000066;fill-opacity:1;fill-rule:nonzero;stroke:none"
       id="text486"><tspan
         x="0"
         y="0"
         id="tspan484">a</tspan></text>
<text
       transform="matrix(1,0,0,-0.96157326,43.6535,435.855)"
       style="font-variant:normal;font-weight:normal;font-size:6.63079977px;font-family:AdvOT863180fb;-inkscape-font-specification:AdvOT863180fb;writing-mode:lr-tb;fill:#000000;fill-opacity:1;fill-rule:nonzero;stroke:none"
       id="text492"><tspan
         x="0 3.9320643 7.3800802 11.385083 14.766791 18.354053 20.283617 24.010126"
         y="0"
         sodipodi:role="line"
         id="tspan488">Behavior</tspan><tspan
         x="6.3523064 10.078816 13.526832 16.218937 19.322151 22.770166 26.775171 29.188782 32.570488 36.157753 41.614902 47.277603 51.282608"
         y="8.9051647"
         sodipodi:role="line"
         id="tspan490">Percentagewho</tspan></text>
<text
       transform="matrix(1,0,0,-0.96157326,100.63196,427.29203)"
       style="font-variant:normal;font-weight:normal;font-size:6.63079977px;font-family:AdvPS3FDD77;-inkscape-font-specification:AdvPS3FDD77;writing-mode:lr-tb;fill:#000000;fill-opacity:1;fill-rule:nonzero;stroke:none"
       id="text496"><tspan
         x="0"
         y="0"
         id="tspan494">.</tspan></text>
<text
       transform="matrix(1,0,0,-0.96157326,56.411159,418.72906)"
       style="font-variant:normal;font-weight:normal;font-size:6.63079977px;font-family:AdvOT863180fb;-inkscape-font-specification:AdvOT863180fb;writing-mode:lr-tb;fill:#000000;fill-opacity:1;fill-rule:nonzero;stroke:none"
       id="text510"><tspan
         x="0 3.6602015 7.0419097 8.9714727 12.631674 16.079691 21.994364 24.407974 30.103832 32.517445 35.965458 39.413475 43.41848 46.800186 50.387447 53.835464 58.563225 62.289734 66.951187 70.883255 74.264961 76.957062 80.405083 84.410088 88.832825 92.214539 96.007355 99.733864 103.66592 108.04889 109.97845 113.98345 117.91552 121.64203 125.36854 130.10292 132.51654 135.89824 139.90324 143.90825 145.83781 149.84282 210.77988 214.57269 218.36551 219.88396 288.22098 293.05484 295.32919 367.64471 371.43753 375.23035 376.74878 441.28638 446.12024 448.39459"
         y="0"
         sodipodi:role="line"
         id="tspan498">Talkedtoteenagerorparentaboutindoortanning43.4N/A38.0N/A</tspan><tspan
         x="-0.0066308002 3.6535709 7.6585741 9.5881367 13.59314 19.209427 23.141493 26.523199 29.215305 32.663322 36.668324 41.091068 46.753769 50.480282 54.412346 56.341908 62.296368 65.678078 67.607635 69.537201 73.26371 80.88913 82.818695 86.823692 90.75576 94.482269 98.208778 102.88349 105.2971 108.67881 112.68382 116.68882 118.61838 122.62338 210.77324 215.60709 217.88145 288.21436 293.04822 295.32257 367.63806 371.43088 375.22372 376.74216 445.07919 448.87201 452.66483 454.18329"
         y="8.9051647"
         sodipodi:role="line"
         id="tspan500">ThinkparentwouldallowindoortanningN/AN/A44.065.0</tspan><tspan
         x="-0.0132616 6.8894014 10.615911 14.547976 16.477537 22.37895 26.311014 29.208673 34.626038 36.555599 40.560604 44.492668 48.219177 51.945686 56.680077 59.093689 62.475399 66.4804 70.485405 72.41497 76.419968 81.963318 83.892883 88.030502 90.165619 92.857719 94.787285 98.235306 102.2403 108.21465 111.94116 114.07629 116.2114 119.65942 122.35152 125.79954 131.74074 133.87585 136.56796 140.01598 145.45985 148.35751 151.80554 154.7032 157.60086 159.53041 163.25693 210.7666 215.60046 217.87483 288.20773 293.04156 295.31595 367.63144 371.42426 375.21707 376.73553 445.07257 448.86539 452.6582 454.17664"
         y="17.810329"
         sodipodi:role="line"
         id="tspan502">WoulduseindoortanningiffriendofferedfreesessionN/AN/A56.065.0</tspan><tspan
         x="-0.0132616 6.8894014 10.337418 13.029522 18.413733 21.516947 25.243456 29.248459 32.351673 35.79969 38.491795 42.496796 45.944813 51.919163 53.848728 57.986347 60.399956 63.847973 67.29599 71.300995 74.682701 78.269966 81.717979 86.386063 88.799675 92.181381 96.186386 100.19139 103.6394 109.57397 111.50353 115.50854 119.4406 123.16711 126.89362 129.58572 134.45937 138.18587 141.28909 144.3923 147.774 150.67166 152.60123 156.32774 160.33275 163.71445 165.64401 167.57358 210.75998 214.5528 218.34561 219.86406 288.20108 291.9939 295.78671 297.30518 363.82538 368.65921 370.93359 441.26648 446.10034 448.37469"
         y="26.768539"
         sodipodi:role="line"
         id="tspan504">Wereconcernedifteenagertannedindoorsoccasionally56.642.7N/AN/A</tspan><tspan
         x="-0.0198924 6.8827705 10.330787 13.022891 18.407101 21.510315 25.236824 29.241829 32.345043 35.79306 38.485165 42.490166 45.938183 51.912533 53.842094 57.979713 60.393326 63.841343 67.28936 71.294365 74.676071 78.263336 81.711349 86.379433 88.793045 92.174751 96.179756 100.18475 103.63277 109.56734 111.4969 115.50191 119.43397 123.16048 126.88699 129.57909 134.45273 137.14484 140.59285 144.18011 148.11218 150.04175 153.42345 156.11555 158.04512 210.75998 214.5528 218.34561 219.86406 288.20108 291.9939 295.78671 297.30518 363.82538 368.65921 370.93359 441.26648 446.10034 448.37469"
         y="35.673702"
         sodipodi:role="line"
         id="tspan506">Wereconcernedifteenagertannedindoorsregularly96.496.4N/AN/A</tspan><tspan
         x="-0.0198924 6.8827705 10.60928 14.541345 16.470907 22.372318 25.754026 27.68359 29.613153 33.339661 40.965084 43.378693 46.82671 50.274727 54.279728 57.661438 61.248699 64.696716 69.424477 71.838089 77.533943 79.947556 83.329262 89.323509 91.253067 95.258072 99.19014 102.91665 106.64316 109.33526 210.75998 214.5528 218.34561 219.86406 288.20108 291.9939 295.78671 297.30518"
         y="44.578869"
         sodipodi:role="line"
         id="tspan508">Wouldallowteenagertotanindoors25.346.4</tspan></text>
<text
       transform="matrix(1,0,0,-0.89688524,357.5621,378.7086)"
       style="font-variant:normal;font-weight:normal;font-size:4.97310019px;font-family:AdvOT863180fb;-inkscape-font-specification:AdvOT863180fb;writing-mode:lr-tb;fill:#000066;fill-opacity:1;fill-rule:nonzero;stroke:none"
       id="text514"><tspan
         x="0"
         y="0"
         id="tspan512">a</tspan></text>
<text
       transform="matrix(1,0,0,-0.96157326,420.2644,375.8739)"
       style="font-variant:normal;font-weight:normal;font-size:6.63079977px;font-family:AdvOT863180fb;-inkscape-font-specification:AdvOT863180fb;writing-mode:lr-tb;fill:#000000;fill-opacity:1;fill-rule:nonzero;stroke:none"
       id="text524"><tspan
         x="0 4.8338532 7.1082177 77.441116 82.274963 84.549332"
         y="0"
         sodipodi:role="line"
         id="tspan516">N/AN/A</tspan><tspan
         x="-363.85852 -361.85602 -357.85101 -355.43741 -351.98938 -347.98438 -342.0896 -339.67599 -333.92709 -331.51349 -328.13177 -322.13751 -320.20798 -316.20297 -312.2709 -308.54437 -304.81787 -302.12576 -297.25214 -294.35446 -290.62796 -286.90146 -153.07864 -148.2448 -145.97043 -75.637535 -70.80368 -68.52932 3.7861867 7.5790043 11.371822 12.890275 81.227303 85.020119 88.812935 90.33139"
         y="8.9051647"
         sodipodi:role="line"
         id="tspan518">IntendtotanindoorssoonN/AN/A36.060.0</tspan><tspan
         x="-363.86514 -361.86264 -357.85764 -355.44403 -351.99603 -347.99103 -342.09622 -339.68262 -333.93372 -331.52011 -328.1384 -322.14417 -320.2146 -316.20959 -312.27753 -308.55103 -304.82449 -302.13242 -297.25876 -295.32919 -289.32169 -285.31668 -281.86868 -278.20847 -273.78574 -269.99292 -264.20422 -258.1304 -254.4039 -250.3989 -247.98529 -243.98029 -153.08528 -149.29247 -145.49965 -143.98119 -75.644165 -71.851349 -68.058533 -66.540077 3.779556 7.5723734 11.365191 12.883644 81.220673 85.013489 88.806305 90.32476"
         y="17.810329"
         sodipodi:role="line"
         id="tspan520">Intendtotanindoorsinnext12months14.525.044.055.0</tspan><tspan
         x="-382.63693 -377.8031 -375.52872"
         y="32.431244"
         sodipodi:role="line"
         id="tspan522">N/A</tspan></text>
<text
       transform="matrix(1,0,0,-0.96157326,51.061456,344.68888)"
       style="font-variant:normal;font-weight:normal;font-size:6.63079977px;font-family:AdvP4C4E74;-inkscape-font-specification:AdvP4C4E74;writing-mode:lr-tb;fill:#000000;fill-opacity:1;fill-rule:nonzero;stroke:none"
       id="text528"><tspan
         x="0"
         y="0"
         id="tspan526">¼</tspan></text>
<text
       transform="matrix(1,0,0,-0.96157326,58.202828,344.68888)"
       style="font-variant:normal;font-weight:normal;font-size:6.63079977px;font-family:AdvOT863180fb;-inkscape-font-specification:AdvOT863180fb;writing-mode:lr-tb;fill:#000000;fill-opacity:1;fill-rule:nonzero;stroke:none"
       id="text532"><tspan
         x="0 4.6946063 8.6266708 12.074687 14.972346 17.385958 19.315521 23.04203 27.047033 31.91404 37.576744 41.024761 43.716866 49.147491 53.152493 56.879002 61.281853 64.663559 67.561218 71.22142 74.669441 80.610634 84.337143 89.058273 93.063278 96.789787 101.19264 104.57435 108.50641 112.43848 114.36804 116.2976 119.40082 122.78252 126.57534 128.5049 131.95293"
         y="0"
         sodipodi:role="line"
         id="tspan530">Questionswerenotaskedornotapplicable.</tspan></text>
<text
       transform="matrix(1,0,0,-0.89688524,43.5401,338.9668)"
       style="font-variant:normal;font-weight:normal;font-size:4.97310019px;font-family:AdvOT863180fb;-inkscape-font-specification:AdvOT863180fb;writing-mode:lr-tb;fill:#000000;fill-opacity:1;fill-rule:nonzero;stroke:none"
       id="text536"><tspan
         x="0"
         y="0"
         id="tspan534">a</tspan></text>
<text
       transform="matrix(1,0,0,-0.96157326,49.6063,336.1322)"
       style="font-variant:normal;font-weight:normal;font-size:6.63079977px;font-family:AdvOT863180fb;-inkscape-font-specification:AdvOT863180fb;writing-mode:lr-tb;fill:#000000;fill-opacity:1;fill-rule:nonzero;stroke:none"
       id="text540"><tspan
         x="0 4.6946063 6.6241693 8.7592869 10.894404 14.342421 17.034525 20.482542 24.487545 27.590759 33.047909 36.840725 40.288742 42.702351 48.365055 51.813072 55.261086 61.281853 64.869118 67.561218 71.287727 75.219795 79.151863 84.071915 89.734619 93.116325 97.96344 100.8611 103.27471 106.65642 109.07003 110.9996 113.89725 116.31086 118.24043 121.34364 124.72535 126.65491 128.58447 134.1875 137.08516 139.01472 142.60199 146.60699"
         y="0"
         sodipodi:role="line"
         id="tspan538">Differencebetweengroupswasstatisticallysigni</tspan></text>
<text
       transform="matrix(1,0,0,-0.96157326,198.1959,336.1322)"
       style="font-variant:normal;font-weight:normal;font-size:6.63079977px;font-family:'AdvOT863180fb +fb';-inkscape-font-specification:'AdvOT863180fb +fb';writing-mode:lr-tb;fill:#000000;fill-opacity:1;fill-rule:nonzero;stroke:none"
       id="text544"><tspan
         x="0"
         y="0"
         id="tspan542">ﬁ</tspan></text>
<text
       transform="matrix(1,0,0,-0.96157326,202.22079,336.1322)"
       style="font-variant:normal;font-weight:normal;font-size:6.63079977px;font-family:AdvOT863180fb;-inkscape-font-specification:AdvOT863180fb;writing-mode:lr-tb;fill:#000000;fill-opacity:1;fill-rule:nonzero;stroke:none"
       id="text548"><tspan
         x="0 3.1032145 6.4849224 10.489925 14.906038 18.287746"
         y="0"
         sodipodi:role="line"
         id="tspan546">cantat</tspan></text>
<text
       transform="matrix(1,0,0,-0.96157326,224.95781,336.1322)"
       style="font-variant:normal;font-weight:normal;font-size:6.63079977px;font-family:AdvOTb92eb7df;-inkscape-font-specification:AdvOTb92eb7df;writing-mode:lr-tb;fill:#000000;fill-opacity:1;fill-rule:nonzero;stroke:none"
       id="text552"><tspan
         x="0"
         y="0"
         id="tspan550">p</tspan></text>
<text
       transform="matrix(1,0,0,-0.96157326,230.56746,336.1322)"
       style="font-variant:normal;font-weight:normal;font-size:6.63079977px;font-family:AdvP4C4E51;-inkscape-font-specification:AdvP4C4E51;writing-mode:lr-tb;fill:#000000;fill-opacity:1;fill-rule:nonzero;stroke:none"
       id="text556"><tspan
         x="0"
         y="0"
         id="tspan554">&lt;</tspan></text>
<text
       transform="matrix(1,0,0,-0.96157326,237.65579,336.1322)"
       style="font-variant:normal;font-weight:normal;font-size:6.63079977px;font-family:AdvOT863180fb;-inkscape-font-specification:AdvOT863180fb;writing-mode:lr-tb;fill:#000000;fill-opacity:1;fill-rule:nonzero;stroke:none"
       id="text560"><tspan
         x="0 1.5184532 5.3112707 9.1040888"
         y="0"
         sodipodi:role="line"
         id="tspan558">.05.</tspan></text>
</g></svg>