<?xml version="1.0" encoding="UTF-8" standalone="no"?>
<!-- Created with Inkscape (http://www.inkscape.org/) -->

<svg
   xmlns:dc="http://purl.org/dc/elements/1.1/"
   xmlns:cc="http://creativecommons.org/ns#"
   xmlns:rdf="http://www.w3.org/1999/02/22-rdf-syntax-ns#"
   xmlns:svg="http://www.w3.org/2000/svg"
   xmlns="http://www.w3.org/2000/svg"
   xmlns:sodipodi="http://sodipodi.sourceforge.net/DTD/sodipodi-0.dtd"
   xmlns:inkscape="http://www.inkscape.org/namespaces/inkscape"
   version="1.1"
   id="svg2"
   xml:space="preserve"
   width="793.70135"
   height="1065.8267"
   viewBox="0 0 793.70135 1065.8267"
   sodipodi:docname="table1.svg"
   inkscape:version="0.92.0 r15299"><metadata
     id="metadata8"><rdf:RDF><cc:Work
         rdf:about=""><dc:format>image/svg+xml</dc:format><dc:type
           rdf:resource="http://purl.org/dc/dcmitype/StillImage" /><dc:title></dc:title></cc:Work></rdf:RDF></metadata><defs
     id="defs6"><clipPath
       clipPathUnits="userSpaceOnUse"
       id="clipPath22"><path
         d="M 0.03,799.37 H 595.276 V 0 H 0.03 Z"
         id="path20"
         inkscape:connector-curvature="0" /></clipPath></defs><sodipodi:namedview
     pagecolor="#ffffff"
     bordercolor="#666666"
     borderopacity="1"
     objecttolerance="10"
     gridtolerance="10"
     guidetolerance="10"
     inkscape:pageopacity="0"
     inkscape:pageshadow="2"
     inkscape:window-width="1920"
     inkscape:window-height="988"
     id="namedview4"
     showgrid="false"
     inkscape:zoom="0.88569749"
     inkscape:cx="581.82727"
     inkscape:cy="579.91022"
     inkscape:window-x="0"
     inkscape:window-y="27"
     inkscape:window-maximized="1"
     inkscape:current-layer="g10" /><g
     id="g10"
     inkscape:groupmode="layer"
     inkscape:label="fulltext"
     transform="matrix(1.3333333,0,0,-1.3333333,0,1065.8267)"><path
       d="m 119.179,282.946 h 439.12 v 386.897 h -439.12 z"
       style="fill:#d9e7df;fill-opacity:1;fill-rule:nonzero;stroke:none"
       id="path138"
       inkscape:connector-curvature="0" /><g
       id="g140"
       transform="translate(124.97301,297.369)"><path
         d="M 0,0 H 427.532"
         style="fill:none;stroke:#000000;stroke-width:0.25;stroke-linecap:butt;stroke-linejoin:miter;stroke-miterlimit:10;stroke-dasharray:none;stroke-opacity:1"
         id="path142"
         inkscape:connector-curvature="0" /></g><path
       d="m 124.973,625.625 h 32.35 v -11.283 h -32.35 z m 32.35,0 H 550.379 V 614.342 H 157.323 Z m -32.35,-11.283 h 32.35 v -11.283 h -32.35 z m 32.35,0 H 550.379 V 603.059 H 157.323 Z m -32.35,-22.566 H 550.379 V 580.437 H 124.973 Z m 0,-11.339 h 32.35 v -11.283 h -32.35 z m 32.35,0 H 550.379 V 569.154 H 157.323 Z m -32.35,-11.283 h 32.35 V 557.87 h -32.35 z m 32.35,0 H 550.379 V 557.87 H 157.323 Z m -32.35,-11.284 h 32.35 v -28.283 h -32.35 z m 32.35,0 H 550.379 V 529.587 H 157.323 Z m -32.35,-28.283 h 32.35 v -11.283 h -32.35 z m 32.35,0 H 550.379 V 518.304 H 157.323 Z m -32.35,-11.283 H 550.379 V 506.965 H 124.973 Z m 0,-11.339 h 32.35 v -11.283 h -32.35 z m 32.35,0 H 550.379 V 495.682 H 157.323 Z m -32.35,-11.283 H 550.379 V 484.343 H 124.973 Z m 0,-11.339 h 32.35 v -28.284 h -32.35 z m 32.35,0 H 550.379 V 456.059 H 157.323 Z m -32.35,-39.567 h 32.35 v -11.283 h -32.35 z m 32.35,0 H 550.379 V 433.493 H 157.323 Z m -32.35,-11.283 h 32.35 V 413.71 h -32.35 z m 32.35,0 H 550.379 V 413.71 H 157.323 Z m -32.35,-19.783 h 32.35 v -11.283 h -32.35 z m 32.35,0 H 550.379 V 402.427 H 157.323 Z m -32.35,-11.283 h 32.35 v -11.283 h -32.35 z m 32.35,0 H 550.379 V 391.144 H 157.323 Z m -32.35,-11.283 h 32.35 v -19.783 h -32.35 z m 32.35,0 H 550.379 V 371.361 H 157.323 Z m -32.35,-19.783 h 32.35 v -11.284 h -32.35 z m 32.35,0 H 550.379 V 360.077 H 157.323 Z m -32.35,-22.567 h 32.35 v -11.283 h -32.35 z m 32.35,0 H 550.379 V 337.511 H 157.323 Z m -32.35,-11.283 h 32.35 v -11.283 h -32.35 z m 32.35,0 H 550.379 V 326.228 H 157.323 Z m -32.35,-11.283 h 32.35 v -11.283 h -32.35 z m 32.35,0 H 550.379 V 314.945 H 157.323 Z m -32.35,-11.283 h 32.35 v -11.283 h -32.35 z m 32.35,0 H 550.379 V 303.662 H 157.323 Z"
       style="fill:#ffffff;fill-opacity:1;fill-rule:nonzero;stroke:none"
       id="path144"
       inkscape:connector-curvature="0" /><g
       id="g146"
       transform="translate(124.97301,644.83299)"><path
         d="M 0,0 H 32.35 425.406"
         style="fill:none;stroke:#000000;stroke-width:0.25;stroke-linecap:butt;stroke-linejoin:miter;stroke-miterlimit:10;stroke-dasharray:none;stroke-opacity:1"
         id="path148"
         inkscape:connector-curvature="0" /></g><text
       transform="matrix(1,0,0,-1,127.808,657.868)"
       style="font-variant:normal;font-weight:bold;font-size:7px;font-family:Shaker2Lancet;-inkscape-font-specification:Shaker2Lancet-Bold;writing-mode:lr-tb;fill:#000000;fill-opacity:1;fill-rule:nonzero;stroke:none"
       id="text158"><tspan
         x="0 1.778 4.4169998 7.5879998 13.349"
         y="0"
         sodipodi:role="line"
         id="tspan150">Item </tspan><tspan
         x="0 3.78 7.448 13.209 16.884001 20.055"
         y="8.4980001"
         sodipodi:role="line"
         id="tspan152">number</tspan><tspan
         x="32.347 35.931 39.654999 42.826 45.612 49.007 50.652 52.409 55.09 57.729 59.016998 60.773998 63.412998 66.584"
         y="0"
         sodipodi:role="line"
         id="tspan154">Checklist item</tspan><tspan
         x="0 4.4583001 8.1325998 9.8888998 13.0592 15.8445 18.4828 20.2391 23.6614 26.831699 29.511999 30.799999 34.033298 37.812599 41.5359 42.823898 45.147202 48.814499 52.5938 56.317101 58.073399 61.852699"
         y="22.049999"
         sodipodi:role="line"
         id="tspan156">Objectives and funding</tspan></text>
<text
       transform="matrix(1,0,0,-1,127.808,617.744)"
       style="font-variant:normal;font-weight:normal;font-size:7px;font-family:Shaker2Lancet;-inkscape-font-specification:Shaker2Lancet-Regular;writing-mode:lr-tb;fill:#000000;fill-opacity:1;fill-rule:nonzero;stroke:none"
       id="text164"><tspan
         x="0 32.347 36.491001 39.549999 41.327999 43.105999 46.696999 49.756001 50.889999 53.235001 56.784 59.842999 61.166 62.755001 66.346001 69.824997 71.414001 74.073997 77.125999 79.471001 83.013 85.140999 87.310997 89.831001 92.000999 93.533997 94.857002 98.329002 101.871 105.343 108.829 110.327 113.379 115.724 117.313 120.855 124.446 126.966 128.289 130.459 132.048 135.63901 138.299 139.797 143.283 146.76199 148.351 151.942 155.39301 156.716 159.76801 163.21899 166.278 167.811 169.134 171.65401 174.713 177.77901 179.312 180.63499 183.687 187.278 190.757 192.08 195.53101 198.59 202.132 205.58299 207.711 210.763 214.235 217.784 219.373 222.033 223.356 226.41499 230.006 232.351 233.94 236.285 237.87399 240.933 243.453 245.623 247.15601 248.479 251.53101 255.12199 258.60101 259.73499 262.07999 263.66901 269.20599 272.26501 273.58801 277.06 280.11899 282.24701 283.836 287.37799 290.85699 293.02701 295.547 297.71701 299.04001 301.133 304.67499 306.80301 308.00699 312.767 316.31601 317.905 320.565 324.11401 325.43701 328.496 331.01599 333.36099 334.95001 340.487 343.539 345.884 348.94299 351.46301 352.66699 357.427 360.48599 362.61401 365.673 366.996 372.53299 375.57101 379.04999 382.10901"
         y="0"
         sodipodi:role="line"
         id="tspan160">1Deﬁ ne the indicator(s), populations (including age, sex, and geographic entities), and time period(s) for which estimates were made.</tspan><tspan
         x="0 32.347 35.335999 36.924999 39.445 41.790001 42.924 45.269001 48.818001 51.876999 53.200001 55.292999 58.778999 62.369999 65.848999 67.438004 71.028999 74.480003 75.803001 78.322998 81.864998 85.350998 87.478996 90.139 93.197998 95.718002 97.041 99.134003 102.676 104.804 105.938 108.283 111.832 114.891 116.095 120.855 124.397 126.525 129.577"
         y="11.284"
         sodipodi:role="line"
         id="tspan162">2List the funding sources for the work.</tspan></text>
<text
       transform="matrix(1,0,0,-1,127.808,595.176)"
       style="font-variant:normal;font-weight:bold;font-size:7px;font-family:Shaker2Lancet;-inkscape-font-specification:Shaker2Lancet-Bold;writing-mode:lr-tb;fill:#000000;fill-opacity:1;fill-rule:nonzero;stroke:none"
       id="text168"><tspan
         x="0 4.277 7.5110002 10.15 13.384 14.672 16.429001 20.209 23.926001 27.594 30.233"
         y="0"
         sodipodi:role="line"
         id="tspan166">Data inputs</tspan></text>
<text
       transform="matrix(1,0,0,-1,127.808,583.836)"
       style="font-style:italic;font-variant:normal;font-size:7px;font-family:Shaker2Lancet;-inkscape-font-specification:Shaker2Lancet-Italic;writing-mode:lr-tb;fill:#000000;fill-opacity:1;fill-rule:nonzero;stroke:none"
       id="text172"><tspan
         x="0 2.842 5.9569998 7.9239998 9.0860004 12.201 13.65 15.099 16.261 19.396999 22.511999 24.801001 27.916 29.077999 30.513 33.880001 37.036999 40.396999 42.686001 45.143002 46.305 48.313999 50.280998 53.396 58.583 59.744999 64.931999 68.292 69.740997 72.029999 73.464996 76.622002 78.070999 80.751999 81.914001 84.371002 87.486 90.846001 92.813004 95.319 98 100.457 101.556 103.845 107.219 110.334 112.623 113.785 116.9 118.867 121.548 122.71 125.167 128.037 131.40401 133.69299 137.067 139.748 142.205 143.64 146.097 148.778 151.914 153.076 156.19099 158.64799 159.81 162.967 166.082 168.049 170.338 171.5 174.61501 176.62399 177.72301 180.01199 183.386 186.067 187.229 189.686 191.97501 195.33501 198.47099 201.341"
         y="0"
         sodipodi:role="line"
         id="tspan170">For all data inputs from multiple sources that are synthesised as part of the study:</tspan></text>
<text
       transform="matrix(1,0,0,-1,127.808,572.552)"
       style="font-variant:normal;font-weight:normal;font-size:7px;font-family:Shaker2Lancet;-inkscape-font-specification:Shaker2Lancet-Regular;writing-mode:lr-tb;fill:#000000;fill-opacity:1;fill-rule:nonzero;stroke:none"
       id="text186"><tspan
         x="0 32.347 36.491001 39.549999 42.07 44.73 46.858002 48.446999 51.897999 54.957001 56.279999 59.828999 63.370998 68.130997 69.264999 71.610001 75.158997 78.218002 79.421997 82.901001 85.953003 88.297997 91.349998 92.554001 97.314003 100.373 102.501 105.56 106.883 108.472 111.951 115.01 118.601 120.946 122.535 124.306 126.084 129.14301 132.62199 133.94501 136.99699 140.588 144.067 145.39 148.939 152.481 157.241 158.375 160.72 164.269 167.328 168.532 172.011 175.063 177.408 180.46001 181.664 186.424 189.483 191.61099 194.67 195.993 199.045 201.705 204.36501 207.424 209.944 212.464 215.52299 219.002"
         y="0"
         sodipodi:role="line"
         id="tspan174">3Describe how the data were identiﬁ ed and how the data were accessed.</tspan><tspan
         x="0 32.347 35.546001 39.018002 42.077 44.737 46.326 48.418999 51.415001 52.549 54.894001 58.443001 61.501999 62.825001 64.414001 68.004997 70.665001 72.163002 75.649002 78.168999 79.758003 83.300003 86.890999 88.213997 91.265999 94.857002 98.335999 99.658997 102.718 105.728 108.388 109.886 113.372 115.892 117.481 121.023 124.614 125.937 128.597 130.72501 132.314 134.659 137.718 139.84599 141.435 144.487 146.02 147.343 148.96001 152.439 155.498 159.089 161.43401 163.02299 165.116 168.112 169.435 172.487 173.985 175.483 176.806 179.858 183.33701 185.661 189.21001 192.752 195.412 196.735 199.79401 202.797 205.457 206.955 210.44099 212.961 214.55 218.092 221.683 224.203"
         y="11.284"
         sodipodi:role="line"
         id="tspan176">4Specify the inclusion and exclusion criteria. Identify all ad-hoc exclusions.</tspan><tspan
         x="0 32.347 35.784 37.911999 41.453999 44.555 46.144001 49.623001 52.681999 54.005001 55.594002 59.185001 61.278 64.82 66.947998 72.485001 75.537003 77.882004 79.471001 83.013 86.603996 87.927002 90.978996 94.43 97.972 101.458 103.803 105.126 108.178 109.676 111.174 112.497 114.086 117.677 120.337 121.835 125.321 128.8 131.85899 135.338 136.535 140.01401 143.06599 145.411 148.463 149.786 152.306 155.84801 159.334 161.46201 164.12199 167.181 169.701 171.024 174.076 177.66701 181.146 182.28 184.625 188.174 191.233 192.82201 194.95 196.27299 201.81 204.862 206.451 210.04201 211.36501 214.02499 217.57401 220.62601 222.754 225.806 228.466 230.811 233.87 235.998 237.58701 240.10699 242.452 244.041 246.701 249.22099 250.754 252.077 255.101 258.64301 260.771 262.09399 265.15302 268.20499 270.86499 274.414 275.61801 279.09698 282.14899 284.49399 287.54599 288.86899 291.38901 294.931 298.41699 300.54501 303.20499 306.26401 307.46799 310.95401 313.474 316.53299 320.01199 321.54501 322.86801 324.996 328.05499 331.52701 335.069 337.19699 339.54199 340.86499 342.99301 346.052 348.14499 351.20401 353.332 356.39099 359.98199 362.642 365.70099 367.02399 368.61301 372.20401 374.297 377.83899 379.96701 385.504 388.556 390.901 392.48999 396.03201 399.62299 400.82001 404.362 406.48999"
         y="22.568001"
         sodipodi:role="line"
         id="tspan178">5Provide information about all included data sources and their main characteristics. For each data source used, report reference information or </tspan><tspan
         x="32.347 35.007 38.549 42.139999 44.485001 47.536999 50.196999 52.542 53.865002 57.456001 60.507999 66.044998 69.103996 71.294998 72.884003 76.474998 78.995003 81.339996 82.929001 85.274002 88.760002 91.105003 92.694 96.236 99.827003 101.36 102.683 106.155 109.697 113.169 116.655 118.153 121.205 123.55 125.139 128.681 132.272 133.595 135.72301 138.782 142.254 144.382 147.44099 149.961 153.02 156.61099 158.95599 162.015 165.494 167.02699 168.224 171.703 174.755 177.10001 180.15199 181.47501 184.13499 187.677 189.175 190.673 193.73199 196.392 198.737 200.326 203.868 207.459 208.782 214.319 217.37801 219.72301 223.272 226.814 230.293 231.826 232.90401 235.89999 238.959 242.011 244.13901 246.30901 248.82899 250.99899 252.203 255.745 257.83801 259.04199 262.521 265.573 267.918 270.97 272.293 274.953 278.495 279.99301 281.491 284.54999 287.20999 289.55499 291.14401 294.686 298.27701 299.81 301.133 303.65302 306.71201 309.77802 311.10101 314.15302 317.74399 321.22299 322.54599 325.59799 329.04901 332.108 333.431 335.55899 338.61099 342.202 345.65302 348.71201 350.245 351.44901 354.92801 356.517 359.569 363.01999 366.61099 370.13901 372.659 375.004 376.59299 379.25299 380.57599 383.23599 385.36401 386.953 389.298 392.35699 394.48499 396.07401 399.12601 400.32999 403.87201 406"
         y="31.066"
         sodipodi:role="line"
         id="tspan180">contact name/institution, population represented, data collection method, year(s) of data collection, sex and age range, diagnostic criteria or </tspan><tspan
         x="32.347 37.883999 40.943001 43.994999 46.514999 50.000999 52.129002 55.188 60.724998 63.784 67.375 69.720001 71.042999 76.580002 79.639 81.984001 85.532997 89.074997 92.554001 94.086998 95.410004 98.461998 102.053 105.532 106.855 109.375 112.427 117.964 121.436 122.934 125.993 127.316 129.836 131.425 134.092 137.151 138.68401 140.007 143.05901 145.57899 146.90199 149.03 152.089 153.58701 156.646 159.74699 162.799 166.39 168.735"
         y="39.563999"
         sodipodi:role="line"
         id="tspan182">measurement method, and sample size, as relevant.</tspan><tspan
         x="0 32.347 33.964001 37.443001 40.501999 44.092999 46.438 48.027 50.119999 53.116001 54.438999 57.491001 61.082001 64.560997 65.764999 69.244003 72.303001 74.822998 77.483002 79.611 81.199997 84.651001 87.709999 89.032997 92.084999 95.676003 98.671997 99.995003 102.655 105.707 108.052 111.111 114.562 118.104 120.232 121.821 124.88 127.4 128.604 132.146 134.239 135.562 137.151 140.742 144.214 147.7 150.045 151.24899 154.728 157.78 160.125 163.177 164.311 166.65601 170.205 173.257 175.60201 176.925 180.474 183.526 186.627 189.686 191.009 194.481 198.02299 200.368 203.427 207.01801 209.36301 210.952 214.004 215.502 217 219.996 221.319 222.908 228.44501 231.91701 235.459 237.58701 239.93201 242.98399 246.575 248.92 250.243 253.694 255.283 258.33499 260.85501 263.914 266.43399 267.75699 269.927 272.98599 276.43701 277.97 279.293 282.74399 285.79599 288.31601 291.375 294.854 296.05801 299.60001 303.19101 304.51401 307.17401 310.72299 313.77499 315.90302 318.95499 321.61499 323.95999 327.01901 329.147 330.73599 333.25601 335.60101 337.19 339.85001 342.37 343.69299 345.19101 346.78 349.29999 351.64499 354.70401 358.16901 359.492 361.08099 364.672 365.995 367.58401 369.92899 372.98801 378.52499 379.84799 383.24301 385.41299"
         y="50.848"
         sodipodi:role="line"
         id="tspan184">6Identify and describe any categories of input data that have potentially important biases (eg, based on characteristics listed in item 5).</tspan></text>
<text
       transform="matrix(1,0,0,-1,127.808,510.364)"
       style="font-style:italic;font-variant:normal;font-size:7px;font-family:Shaker2Lancet;-inkscape-font-specification:Shaker2Lancet-Italic;writing-mode:lr-tb;fill:#000000;fill-opacity:1;fill-rule:nonzero;stroke:none"
       id="text190"><tspan
         x="0 2.8427 5.9583998 7.9260998 9.0881004 12.2248 15.3405 17.630199 20.745899 21.9079 23.343599 26.7113 29.868999 33.229698 35.519402 37.9771 39.076099 41.365799 44.740501 47.856201 50.145901 51.307899 53.814602 56.930302 60.298 62.5877 64.555397 65.991096 69.120796 72.481499 74.771202 77.452904 78.551903 80.841599 83.957298 85.056297 87.346001 90.720703 93.402397 94.5644 97.680099 101.0478 104.1635 105.6972 108.5679 111.0256 112.4613 114.919 116.081 119.2107 122.5714 124.8611 125.9391 130.4478 133.1295 135.0972 137.7789 138.9409 142.30859 145.4243 147.714 148.87601 151.33369 154.20441 157.5721 159.8618 163.2365 165.9182 168.3759 169.8116 172.2693 174.951 178.08771 179.24969 182.3654 184.8231 185.98511 189.14281 192.2585 194.2262 196.5159 197.6779 200.79359 202.8033 203.9023 206.192 209.5667 212.2484 213.4104 215.8681 218.15781 221.51849 224.6552 227.52589"
         y="0"
         sodipodi:role="line"
         id="tspan188">For data inputs that contribute to the analysis but were not synthesised as part of the study:</tspan></text>
<text
       transform="matrix(1,0,0,-1,127.808,499.08)"
       style="font-variant:normal;font-weight:normal;font-size:7px;font-family:Shaker2Lancet;-inkscape-font-specification:Shaker2Lancet-Regular;writing-mode:lr-tb;fill:#000000;fill-opacity:1;fill-rule:nonzero;stroke:none"
       id="text194"><tspan
         x="0 32.347 36.491001 39.549999 42.07 44.73 46.858002 48.446999 51.897999 54.957001 56.279999 59.332001 62.923 66.402 67.724998 71.176003 72.764999 75.865997 78.925003 80.248001 82.767998 86.309998 89.795998 91.924004 94.584 97.642998 100.163 101.486 103.579 107.121 109.249 110.572 113.624 117.215 120.211 121.415 124.957 127.302 130.851 133.91 136.03799 137.242 140.72099 143.77299 146.118 149.17 150.493 152.082 155.673 159.145 162.631 164.976 167.496"
         y="0"
         sodipodi:role="line"
         id="tspan192">7Describe and give sources for any other data inputs.</tspan></text>
<text
       transform="matrix(1,0,0,-1,127.808,487.74)"
       style="font-style:italic;font-variant:normal;font-size:7px;font-family:Shaker2Lancet;-inkscape-font-specification:Shaker2Lancet-Italic;writing-mode:lr-tb;fill:#000000;fill-opacity:1;fill-rule:nonzero;stroke:none"
       id="text198"><tspan
         x="0 2.842 5.9569998 7.9239998 9.0860004 12.201 13.65 15.099 16.261 19.396999 22.511999 24.801001 27.916 29.077999 30.513 33.880001 37.036999 40.396999 42.686001 45.143002"
         y="0"
         sodipodi:role="line"
         id="tspan196">For all data inputs:</tspan></text>
<text
       transform="matrix(1,0,0,-1,127.808,476.456)"
       style="font-variant:normal;font-weight:normal;font-size:7px;font-family:Shaker2Lancet;-inkscape-font-specification:Shaker2Lancet-Regular;writing-mode:lr-tb;fill:#000000;fill-opacity:1;fill-rule:nonzero;stroke:none"
       id="text206"><tspan
         x="0 32.347 35.784 37.911999 41.453999 44.555 46.144001 49.623001 52.681999 54.005001 57.056999 58.555 60.053001 61.257 64.736 67.788002 70.133003 73.184998 74.508003 76.097 79.688004 83.160004 86.646004 88.990997 91.511002 92.834 94.422997 98.014 99.336998 102.389 103.712 105.483 107.261 108.759 111.818 113.141 115.234 118.776 120.904 126.441 129.493 131.838 133.161 135.254 137.382 140.924 146.461 147.66499 152.425 155.974 157.563 160.22301 163.772 164.976 168.455 171.507 173.85201 176.90401 178.22701 180.88699 183.939 187.53 188.853 192.304 195.36301 196.686 199.745 201.54401 205.142 207.802 209.39101 212.45 216.041 218.386 219.884 222.88 224.203 227.26199 230.328 232.673 234.80099 237.853 240.513 242.858 245.91701 249.396 250.71899 252.88901 255.948 259.39899 260.93201 262.255 265.30701 266.63 269.14999 272.62201 274.75 277.80899 280.86099 284.34 286.85999 290.409 293.46799 296.52701 298.87201 300.19501 302.323 305.375 307.72 311.26901 314.328 316.45599 317.59 319.935 323.48401 326.53601 330.12701 331.45001 334.50201 335.82501 339.26199 343.40601 346.479 348.64899 350.18201 351.505 353.09399 356.685 359.345 360.84299 364.32901 367.80801 369.397 372.98801 376.439 377.76199 380.814 382.31201 383.81 385.133 387.26099 390.32001 391.81799 394.87701 397.978 401.03 404.621 406.966"
         y="0"
         sodipodi:role="line"
         id="tspan200">8Provide all data inputs in a ﬁ le format from which data can be eﬃ ciently extracted (eg, a spreadsheet rather than a PDF), including all relevant </tspan><tspan
         x="32.347 37.883999 40.943001 43.287998 46.34 48.664001 52.143002 55.195 57.540001 60.591999 61.915001 63.412998 65.001999 67.522003 69.866997 72.926003 76.404999 77.727997 79.317001 82.907997 84.231003 85.82 88.165001 91.223999 96.761002 98.084 101.479 103.012 104.335 107.366 110.908 113.036 114.359 117.411 121.002 123.998 125.202 128.681 131.733 134.078 137.13 138.453 140.04201 143.633 147.105 150.591 152.936 155.45599 156.59 158.935 162.48399 165.536 167.881 169.20399 171.864 174.916 178.507 182.09801 185.64 187.985 189.308 192.759 195.81799 197.14101 199.661 203.21001 206.26199 208.39 211.44901 214.92799 216.25101 219.702 222.761 225.42101 228.47301 231.959 234.479 237.53799 238.735 242.27699 244.37 245.69299 248.752 251.097 254.646 256.23499 258.89499 261.94699 263.44501 264.64899 268.19101 270.319 271.642 273.14001 276.19901 279.64999 282.702 284.20001 285.52301 287.651 290.70999 293.76199 296.28201 299.82401 303.41501 305.935 307.46799 308.79099 311.311 314.797 317.457 321.00601 322.32901 325.38101 327.901 329.035 331.38 334.92899 336.51801 338.646 342.125 344.44901 347.92099 350.97299 353.10101 355.44601 358.44199 359.65302 363.19501 367.95499 371.54599 374.60501 376.733 379.25299 382.802 384.39099 387.828 389.36099 390.68399 394.15601 396.284 399.82599 402.927 404.51599 407.995 411.05399 412.37701 415.42899"
         y="8.4980001"
         sodipodi:role="line"
         id="tspan202">meta-data listed in item 5. For any data inputs that cannot be shared because of ethical or legal reasons, such as third-party ownership, provide a </tspan><tspan
         x="32.347 35.007 38.549 42.139999 44.485001 47.536999 50.196999 52.542 53.865002 57.456001 60.507999 66.044998 69.103996 70.307999 73.849998 75.977997 77.112 79.457001 83.005997 86.065002 87.388 90.978996 94.030998 99.568001 102.627 103.831 107.373 109.466 110.6 112.945 116.494 119.553 120.876 122.465 126.056 128.576 130.92101 132.50999 134.855 138.341 140.686 142.27499 145.817 149.408 150.54201 152.88699 156.436 159.48801 161.83299 163.15601 165.284 168.343 170.688 173.74001 175.32899 178.92 181.44 182.57401 184.91901 188.468 191.52699 192.85001 194.978 196.567 200.01801 203.567 205.912 207.04601 209.39101 212.933 214.067 216.412 219.961 223.02 224.224 227.703 230.755 233.10001 236.15199"
         y="16.996"
         sodipodi:role="line"
         id="tspan204">contact name or the name of the institution that retains the right to the data.</tspan></text>
<text
       transform="matrix(1,0,0,-1,127.808,448.176)"
       style="font-variant:normal;font-weight:bold;font-size:7px;font-family:Shaker2Lancet;-inkscape-font-specification:Shaker2Lancet-Bold;writing-mode:lr-tb;fill:#000000;fill-opacity:1;fill-rule:nonzero;stroke:none"
       id="text210"><tspan
         x="0 4.277 7.5110002 10.15 13.384 14.672 17.906 21.686001 24.92 26.565001 29.910999 32.591999 34.348999"
         y="0"
         sodipodi:role="line"
         id="tspan208">Data analysis</tspan></text>
<text
       transform="matrix(1,0,0,-1,127.808,436.892)"
       style="font-variant:normal;font-weight:normal;font-size:7px;font-family:Shaker2Lancet;-inkscape-font-specification:Shaker2Lancet-Regular;writing-mode:lr-tb;fill:#000000;fill-opacity:1;fill-rule:nonzero;stroke:none"
       id="text228"><tspan
         x="0 32.347 35.784 37.911999 41.453999 44.555 46.144001 49.623001 52.681999 54.005001 57.056999 58.380001 61.040001 64.582001 68.172997 70.833 73.891998 77.363998 79.709 83.195 86.247002 87.745003 88.948997 92.490997 95.592003 98.651001 100.779 103.88 105.469 108.528 113.288 114.492 118.034 120.127 121.261 123.606 127.155 130.214 131.418 134.897 137.94901 140.29401 143.34599 144.66901 147.72099 151.312 154.364 155.862 158.858 161.37801 162.967 165.487 166.81 172.347 175.40601 177.75101 181.3 184.842 188.321 189.854 190.995 195.097 196.30099 199.78 201.369 204.42101 207.87199 210 213.052 218.589 219.912 225.44901 228.50101 231.49699 232.82001 236.271 239.33 240.653 244.202 247.261 248.759 252.231 254.32401 257.81 259.30801"
         y="0"
         sodipodi:role="line"
         id="tspan212">9Provide a conceptual overview of the data analysis method. A diagram may be helpful.</tspan><tspan
         x="0 3.171 32.347 35.784 37.911999 41.453999 44.555 46.144001 49.623001 52.681999 54.005001 57.056999 58.261002 61.740002 64.799004 67.143997 70.195999 71.785004 73.282997 76.342003 79.820999 81.025002 84.503998 87.563004 90.083 92.742996 94.871002 96.459999 99.931999 102.277 103.866 107.408 110.999 112.203 115.745 117.838 119.161 122.213 123.711 125.209 126.532 129.052 131.397 134.45599 137.92799 140.448 141.65199 145.194 147.287 148.42101 150.76601 154.315 157.37399 158.69701 161.74899 165.34 168.392 169.89 172.886 175.40601 176.995 179.515 181.048 182.371 183.96001 187.55099 190.211 191.709 195.19501 198.674 200.263 203.854 207.30499 208.62801 214.16499 217.217 219.562 223.11099 226.17 231.707 234.759 237.104 238.69299 241.353 244.405 245.903 247.226 249.319 252.86099 254.989 260.526 264.01199 265.51001 268.56201 271.621 273.15399 274.099 277.634 281.18301 282.772 285.29199 286.496 289.97501 293.034 295.55399 298.21399 300.34201 301.931 305.40302 307.74799 309.33701 312.879 316.47 317.793 320.31299 323.862 327.40399 330.89001 332.388 335.867 337.19 339.85001 343.392 346.49301 349.552 351.38599 352.91901 354.22101 357.27301 359.793 361.116 363.24399 366.30301 367.80099 370.85999 373.961 377.013 380.604 382.94901 384.48199 385.686 389.16501 392.21701 394.56201 397.61401"
         y="11.284"
         sodipodi:role="line"
         id="tspan214">10Provide a detailed description of all steps of the analysis, including mathematical formulae. This description should cover, as relevant, data </tspan><tspan
         x="32.347 35.007 36.505001 39.563999 42.616001 46.207001 47.796001 51.387001 54.838001 56.370998 57.575001 61.054001 64.106003 66.450996 69.502998 70.825996 74.297997 76.426003 79.485001 81.808998 85.280998 87.408997 90.950996 93.611 96.669998 99.190002 101.71 103.299 106.89 110.341 111.874 113.078 116.557 119.609 121.954 125.006 126.329 129.381 132.86 134.442 137.92799 140.448 142.793 148.33 151.38901 154.98 157.325 159.845 161.168 164.22 167.811 171.28999 172.494 177.254 180.313 181.90199 185.353 188.90199 191.24699 192.836 196.427 199.87801 201.082 204.62399 206.717 207.92101 211.39999 214.452 216.797 219.849 221.172 223.692 227.23399 230.72 232.84801 235.508 238.567 241.08701 242.62 243.94299 246.995 250.586 254.065 255.388 260.92499 263.97699 266.32199 269.871 272.92999 278.46701 281.51901 283.86401 285.453 288.11301 291.16501 292.66299 293.867 297.409 299.53699 300.85999 303.38 305.72501 308.77701 311.12201 312.711 315.23099 317.57599 319.16501 321.82501 324.87701 326.375 327.698 333.23499 336.77701 340.25601 343.315 344.81299 346.983 349.50299 351.673"
         y="19.782"
         sodipodi:role="line"
         id="tspan216">cleaning, data pre-processing, data adjustments and weighting of data sources, and mathematical or statistical model(s).</tspan><tspan
         x="0 3.171 32.347 36.491001 39.549999 42.07 44.73 46.858002 48.446999 51.897999 54.957001 56.279999 59.828999 63.370998 68.130997 69.454002 72.113998 75.166 78.757004 82.236 83.824997 87.304001 90.356003 92.700996 95.760002 97.083 102.62 106.162 109.641 112.7 114.198 116.718 117.922 122.682 125.741 127.869 130.92799 132.25101 135.31 138.411 141.463 142.961 146.44701 149.49899 151.84399 154.903 158.382 159.705 162.757 166.34801 169.827 171.14999 174.69901 178.241 183.00101 184.13499 186.48 190.02901 193.088 194.411 196.18201 197.96001 201.55099 204.603 206.101 207.424 212.961 216.50301 219.98199 223.041 224.539 226.709 229.229 231.399 232.603 237.36301 240.422 242.55 245.60899 246.93201 249.452 252.511 254.009 257.06799 259.728 262.073 265.13199 268.61099"
         y="31.066"
         sodipodi:role="line"
         id="tspan218">11Describe how candidate models were evaluated and how the ﬁ nal model(s) were selected.</tspan><tspan
         x="0 3.171 32.347 35.784 37.911999 41.453999 44.555 46.144001 49.623001 52.681999 53.816002 56.160999 59.709999 62.769001 64.092003 66.220001 69.278999 71.799004 75.285004 76.782997 79.127998 81.648003 82.851997 86.393997 88.487 89.809998 92.862 96.453003 97.776001 100.835 103.936 106.988 108.486 111.972 115.024 117.369 118.958 122.5 126.091 127.295 130.83701 132.92999 134.25301 139.78999 143.332 146.811 149.87 151.368 152.69099 156.16299 159.222 161.35001 163.44299 166.985 169.11301 174.64999 177.702 181.293 183.953 187.01199 188.545 189.868 191.457 193.55 194.754 198.233 201.77499 205.366 208.425 209.95799 211.28101 214.33299 216.853 218.05701 222.817 225.87601 227.37399 228.87199 230.19501 233.24699 235.767 236.901 239.246 242.795 245.854 247.177 249.30499 252.364 254.884 258.37 259.86801 262.21301 264.733 265.93701 269.479 271.57199 272.89499 275.94699 279.53799 282.534 283.85699 285.98499 289.04401 290.54199 293.60101 296.702 299.754 303.345 305.69 307.013 309.53299 312.59201 316.18301 318.703 320.29199 322.63699 324.22601 327.327 328.91599 331.26099 334.25699 335.57999 338.63199 342.22299 345.27499 346.77301 349.76901 352.27499 353.86401 356.384"
         y="42.349998"
         sodipodi:role="line"
         id="tspan220">12Provide the results of an evaluation of model performance, if done, as well as the results of any relevant sensitivity analysis.</tspan><tspan
         x="0 3.171 32.347 36.491001 39.549999 42.07 44.73 46.858002 48.446999 51.897999 54.957001 56.279999 61.817001 64.875999 67.221001 70.769997 74.311996 77.791 80.310997 81.514999 85.056999 87.150002 88.473 91.133003 94.184998 95.682999 98.343002 101.829 103.327 106.379 108.724 110.313 113.904 117.355 118.559 122.045 125.636 128.29601 131.355 133.483 135.828 138.88 140.46899 144.06 146.405 149.401 150.605 154.147 156.24001 157.37399 159.71899 163.26801 166.327 167.64999 170.709 173.229 175.57401 177.16299 182.7 185.752 188.097 191.15601 193.67599 195.209 196.532 199.731 202.076 205.12801 207.47301 210.532 211.73599 216.496 220.045 221.634 224.29401 227.843 229.166 231.686 235.228 238.714 240.842 243.502 246.561 249.08099 250.285 253.827 255.92 257.12399 260.60999 264.20099 266.86099 269.92001 272.048 274.39301 277.44501 279.034 282.625 284.97 287.966 289.17001 293.92999 296.98901 299.117 302.17599 303.70901 305.03201 308.08401 311.67499 315.15399 316.358 321.11801 324.177 326.30499 329.36401 330.68701 334.27802 337.82001 340.16501 341.698 343.021 346.073 348.733 351.39301 354.935 358.42099 362.01199 364.35699 367.40201 370.88101 372.20401 374.297 377.83899 379.96701 381.29001 382.879 386.47 387.604 389.94901 393.49799 396.55701"
         y="53.633999"
         sodipodi:role="line"
         id="tspan222">13Describe methods of calculating uncertainty of the estimates. State which sources of uncertainty were, and were not, accounted for in the </tspan><tspan
         x="32.347 35.833 39.424 42.084 45.143002 47.271 49.616001 52.667999 54.257 57.848 60.193001 63.188999 64.512001 67.564003 71.154999 74.207001 75.705002 78.700996 81.221001 82.809998 85.330002"
         y="62.132"
         sodipodi:role="line"
         id="tspan224">uncertainty analysis.</tspan><tspan
         x="0 3.171 32.347 35.546001 37.890999 40.943001 43.287998 46.347 47.669998 51.219002 54.761002 59.521 60.844002 63.896 67.487 70.539001 72.037003 75.032997 77.377998 78.967003 81.626999 84.679001 86.177002 87.380997 90.922997 93.051003 94.374001 96.893997 99.238998 102.291 104.636 106.225 108.745 111.09 112.679 115.339 118.391 119.889 121.212 123.732 127.274 130.75999 132.888 135.548 138.60699 139.92999 142.59 146.132 149.61099 152.67 153.87399 157.36 159.88 162.939 166.418 167.552 169.897 173.439 174.76199 178.213 181.272 184.86301 187.922 190.05 193.10201 195.44701 198.506 199.82899 202.888 205.408 207.75301 209.342 214.879 217.931 220.276 223.33501 225.855 227.17799 229.838 232.89 236.481 237.804 241.255 244.314 245.63699 248.689 251.349 254.009 257.06799 259.58801 262.108 265.16699 268.646"
         y="73.416"
         sodipodi:role="line"
         id="tspan226">14State how analytical or statistical source code used to generate estimates can be accessed.</tspan></text>
<text
       transform="matrix(1,0,0,-1,127.808,352.192)"
       style="font-variant:normal;font-weight:bold;font-size:7px;font-family:Shaker2Lancet;-inkscape-font-specification:Shaker2Lancet-Bold;writing-mode:lr-tb;fill:#000000;fill-opacity:1;fill-rule:nonzero;stroke:none"
       id="text232"><tspan
         x="0 3.7030001 6.8740001 9.5550003 13.223 14.868 17.507 20.188 21.476 24.709999 28.49 32.214001 33.438999 37.162998 38.919998 41.601002 44.387001 48.055 50.736 53.417 55.174 58.827999"
         y="0"
         sodipodi:role="line"
         id="tspan230">Results and discussion</tspan></text>
<text
       transform="matrix(1,0,0,-1,127.808,340.908)"
       style="font-variant:normal;font-weight:normal;font-size:7px;font-family:Shaker2Lancet;-inkscape-font-specification:Shaker2Lancet-Regular;writing-mode:lr-tb;fill:#000000;fill-opacity:1;fill-rule:nonzero;stroke:none"
       id="text242"><tspan
         x="0 3.171 32.347 35.784 37.911999 41.453999 44.555 46.144001 49.623001 52.681999 54.005001 57.477001 60.963001 64.414001 65.912003 67.500999 70.021004 73.57 76.628998 80.108002 81.431 84.489998 87.010002 89.355003 90.944 96.481003 99.532997 101.878 104.937 107.457 108.78 110.369 113.96 115.283 118.335 119.658 121.429 123.207 124.705 127.764 129.08701 131.17999 134.722 136.85001 142.38699 145.439 147.784 149.10699 151.2 153.328 156.87 162.407 163.61099 168.371 171.92 173.509 176.16901 179.718 180.922 184.401 187.453 189.798 192.85001 194.173 196.83299 199.88499 203.476 204.799 208.25 211.30901 212.632 215.69099 217.49001 221.088 223.748 225.33701 228.396 231.987 234.332 235.83 238.826 240.149 243.20799 246.274 248.619 250.74699 253.799 256.45901 258.80399 261.86301 265.34201"
         y="0"
         sodipodi:role="line"
         id="tspan234">15Provide published estimates in a ﬁ le format from which data can be eﬃ ciently extracted.</tspan><tspan
         x="0 3.171 32.347 35.875 38.933998 42.405998 45.948002 48.076 50.421001 51.743999 54.796001 56 59.451 62.937 65.988998 69.580002 71.925003 73.514 75.859001 78.911003 81.255997 82.845001 85.945999 89.004997 90.328003 95.864998 98.924004 101.976 104.496 107.982 110.11 113.169 114.373 117.915 120.008 121.142 123.487 127.036 130.095 131.299 134.785 138.37601 141.036 144.095 146.22301 148.56799 151.62 153.209 156.8 159.145 162.14101 163.345 166.88699 168.98 170.114 172.459 176.008 179.067 180.39 183.44901 185.96899 188.314 189.903 195.44 198.492 200.83701 203.896 206.416 207.739 209.909 212.968 216.41901 217.952 219.15601 222.642 226.233 228.89301 231.952 234.08 236.425 239.47701 241.06599 244.657 247.002 249.998 251.321 252.91 256.50101 258.84601 261.905 264.03299 267.134 270.186 271.68399 274.20401 276.37399"
         y="11.284"
         sodipodi:role="line"
         id="tspan236">16Report a quantitative measure of the uncertainty of the estimates (eg, uncertainty intervals).</tspan><tspan
         x="0 3.171 32.347 33.964001 37.555 39.900002 42.959 45.087002 48.558998 50.687 53.745998 56.091 57.414001 59.542 62.601002 65.121002 68.607002 70.105003 72.449997 74.970001 76.292999 77.882004 81.473 82.795998 84.293999 85.883003 89.334 92.883003 95.227997 96.431999 99.973999 102.067 103.39 106.449 109.515 111.104 113.624 115.969 117.558 121.149 124.6 125.923 128.98199 132.08299 133.672 137.151 140.21001 143.80099 146.461 149.52 151.05299 152.37601 153.993 156.086 157.28999 160.776 164.248 167.72701 170.77901 173.12399 174.713 178.304 181.755 183.078 186.13 187.453 190.925 193.05299 196.112 199.213 200.802 204.34399 207.83 210.35001 211.673 214.19299 217.252 219.597 220.80099 224.343 226.436 227.759 230.81799 233.338 235.683 237.272 242.80901 245.86099 248.20599 251.265 253.785 255.31799 256.522 260.00101 263.06 265.57999 268.23999 270.36801 271.957 275.40799 278.46701 279.60101 281.94601 285.495 288.55399 289.87701 292.005 295.064 298.116 300.63599 304.17801 307.76901 310.289 311.612 313.70499 317.24701 319.375 320.698 323.358 326.90701 329.95901 333.54999 337.00101 340.06 342.57999 343.90302 345.492 349.09 350.41299 353.47198 355.992 358.33701 359.92599 365.46301 368.51501 370.85999 373.91901 376.439"
         y="22.568001"
         sodipodi:role="line"
         id="tspan238">17Interpret results in light of existing evidence. If updating a previous set of estimates, describe the reasons for changes in estimates.</tspan><tspan
         x="0 3.171 32.347 36.407001 37.911999 40.348 42.924 46.326 48.762001 51.198002 52.437 53.851002 55.355999 60.808998 62.313999 64.574997 67.542999 69.804001 71.308998 74.766998 78.274002 80.709999 81.830002 85.288002 87.296997 88.347 90.608002 94.072998 97.047997 98.287003 101.262 103.698 105.959 107.464 112.917 115.885 118.146 121.121 123.557 125.006 126.245 127.778 131.285 133.86099 135.27499 138.677 142.07201 145.047 146.286 149.254 150.37399 153.769 155.274 157.71001 160.286 163.688 166.12399 168.56 170.065 173.52299 177.03 178.14999 181.608 183.617 184.856 187.82401 191.33099 194.243 195.48199 200.935 204.39301 207.78799 210.763 212.177 213.591 215.09599 218.603 221.97 223.209 226.177 228.61301 231.049 234.451 239.90401 243.29201 245.55299 247.058 250.51601 254.02299 256.45901 257.57901 261.03699 263.08099 264.20099 267.59601 270.564 272.82501 275.793 277.03201 278.44601 279.95099 285.40399 286.909 289.17001 292.138 294.39899 295.90399 299.362 302.86899 305.30499 306.35501 308.616 312.08099 315.04901 317.31 318.54901 321.517 323.44199 325.37051 328.34549 330.92151 333.1825 334.418 335.923 339.42999 341.69101 344.66599 346.70999 350.09799 352.142 355.117 357.37799 360.34601 362.60699 364.112 367.57001 371.077 372.19351 375.65149 377.66049 378.707 380.96799 384.43301 387.40799 388.65399 391.71301 394.233 396.578 398.16699 403.70401 406.75601 409.10101 412.16 414.67999"
         y="33.852001"
         sodipodi:role="line"
         id="tspan240">18Discuss limitations of the estimates. Include a discussion of any modelling assumptions or data limitations that aﬀ ect interpretation of the estimates.</tspan></text>
<text
       transform="matrix(1,0,0,-1,124.973,288.73)"
       style="font-style:italic;font-variant:normal;font-weight:bold;font-size:7px;font-family:Shaker2Lancet;-inkscape-font-specification:Shaker2Lancet-BoldItalic;writing-mode:lr-tb;fill:#000000;fill-opacity:1;fill-rule:nonzero;stroke:none"
       id="text246"><tspan
         x="0 3.1429999 6.4749999 9.7930002 11.375 14.287 15.946"
         y="0"
         sodipodi:role="line"
         id="tspan244">Table: </tspan></text>
<text
       transform="matrix(1,0,0,-1,142.053,288.73)"
       style="font-variant:normal;font-weight:bold;font-size:7px;font-family:Shaker2Lancet;-inkscape-font-specification:Shaker2Lancet-Bold;writing-mode:lr-tb;fill:#000000;fill-opacity:1;fill-rule:nonzero;stroke:none"
       id="text250"><tspan
         x="0 4.158 8.0430002 11.655 16.114 19.488001 23.254 24.542 27.327999 31.052 34.223 37.008999 40.403999 42.049 43.806 46.487 49.125999 50.351002 54.005001 56.328999 57.617001 59.374001 63.153999 65.477997 69.132004 71.442001 77.203003 80.436996 83.075996 84.833 88.487 92.266998 93.359001 95.998001 99.722 102.956 105.595 106.883 109.564 113.288 116.942 120.61 122.255 125.979 127.267 130.942 134.11301 135.401 137.158 140.938 143.724 145.369 149.037 152.761 155.93201 159.65601 160.944 162.701 166.481 167.769 170.07899 173.25 176.967 180.621 182.931 185.57001 188.25101 189.476 193.13 195.45399 196.742 200.41701 202.062 205.716 209.39101 212.625 214.27 215.558 219.282 222.453 225.687 227.332 229.97099 233.69501 234.983 238.15401 240.83501 243.474 245.231 250.992 254.226 256.86499 260.03601"
         y="0"
         sodipodi:role="line"
         id="tspan248">GATHER checklist of information that should be included in reports of global health estimates</tspan></text>
<g
       id="g252"
       transform="translate(119.179,669.843)"><path
         d="M 439.12,0 H 0 v -386.897 h 439.12 z"
         style="fill:none;stroke:#00703c;stroke-width:0.25;stroke-linecap:butt;stroke-linejoin:miter;stroke-miterlimit:4;stroke-dasharray:none;stroke-opacity:1"
         id="path254"
         inkscape:connector-curvature="0" /></g><g
       id="g256"
       transform="translate(119.179,669.843)"><path
         d="M 0,0 Z"
         style="fill:none;stroke:#00703c;stroke-width:0.25;stroke-linecap:butt;stroke-linejoin:miter;stroke-miterlimit:4;stroke-dasharray:none;stroke-opacity:1"
         id="path258"
         inkscape:connector-curvature="0" /></g></g></svg>