<?xml version="1.0" encoding="UTF-8" standalone="no"?>
<!-- Created with Inkscape (http://www.inkscape.org/) -->

<svg
   xmlns:dc="http://purl.org/dc/elements/1.1/"
   xmlns:cc="http://creativecommons.org/ns#"
   xmlns:rdf="http://www.w3.org/1999/02/22-rdf-syntax-ns#"
   xmlns:svg="http://www.w3.org/2000/svg"
   xmlns="http://www.w3.org/2000/svg"
   xmlns:sodipodi="http://sodipodi.sourceforge.net/DTD/sodipodi-0.dtd"
   xmlns:inkscape="http://www.inkscape.org/namespaces/inkscape"
   version="1.1"
   id="svg2"
   xml:space="preserve"
   width="793.70135"
   height="1054.488"
   viewBox="0 0 793.70135 1054.488"
   sodipodi:docname="table1.svg"
   inkscape:version="0.92.0 r15299"><metadata
     id="metadata8"><rdf:RDF><cc:Work
         rdf:about=""><dc:format>image/svg+xml</dc:format><dc:type
           rdf:resource="http://purl.org/dc/dcmitype/StillImage" /><dc:title></dc:title></cc:Work></rdf:RDF></metadata><defs
     id="defs6"><clipPath
       clipPathUnits="userSpaceOnUse"
       id="clipPath120"><path
         d="M 51.023998,737.008 H 544.479 V 505.927 H 51.023998"
         id="path118"
         inkscape:connector-curvature="0" /></clipPath><clipPath
       clipPathUnits="userSpaceOnUse"
       id="clipPath466"><path
         d="m 51.023998,55.049 h 38.098 V 44.901 h -38.098 z"
         id="path464"
         inkscape:connector-curvature="0" /></clipPath><clipPath
       clipPathUnits="userSpaceOnUse"
       id="clipPath482"><path
         d="m 51.023998,55.049 h 38.098 V 44.901 h -38.098 z"
         id="path480"
         inkscape:connector-curvature="0" /></clipPath><clipPath
       clipPathUnits="userSpaceOnUse"
       id="clipPath500"><path
         d="m 51.023998,55.049 h 38.098 V 44.901 h -38.098 z"
         id="path498"
         inkscape:connector-curvature="0" /></clipPath></defs><sodipodi:namedview
     pagecolor="#ffffff"
     bordercolor="#666666"
     borderopacity="1"
     objecttolerance="10"
     gridtolerance="10"
     guidetolerance="10"
     inkscape:pageopacity="0"
     inkscape:pageshadow="2"
     inkscape:window-width="1920"
     inkscape:window-height="988"
     id="namedview4"
     showgrid="false"
     inkscape:zoom="1.2660339"
     inkscape:cx="262.53235"
     inkscape:cy="174.01647"
     inkscape:window-x="0"
     inkscape:window-y="27"
     inkscape:window-maximized="1"
     inkscape:current-layer="g10" /><g
     id="g10"
     inkscape:groupmode="layer"
     inkscape:label="fulltext"
     transform="matrix(1.3333333,0,0,-1.3333333,0,1054.488)"><path
       d="M 178.58299,227.509 H 544.252 v -0.567 H 178.58299 Z"
       style="fill:#131413;fill-opacity:1;fill-rule:evenodd;stroke:#131413;stroke-width:0.75;stroke-linecap:round;stroke-linejoin:round;stroke-miterlimit:10;stroke-dasharray:none;stroke-opacity:1"
       id="path238"
       inkscape:connector-curvature="0" /><path
       d="m 544.25201,135.213 h -365.669 v 0.567 h 365.669 z"
       style="fill:#131413;fill-opacity:1;fill-rule:evenodd;stroke:#131413;stroke-width:0.75;stroke-linecap:round;stroke-linejoin:round;stroke-miterlimit:10;stroke-dasharray:none;stroke-opacity:1"
       id="path240"
       inkscape:connector-curvature="0" /><g
       id="g242"
       transform="translate(261.354,206.41901)"><path
         d="M 0,0 H -82.772003 V 0.56699997 H 0"
         style="fill:#131413;fill-opacity:1;fill-rule:evenodd;stroke:#131413;stroke-width:0.75;stroke-linecap:round;stroke-linejoin:round;stroke-miterlimit:10;stroke-dasharray:none;stroke-opacity:1"
         id="path244"
         inkscape:connector-curvature="0" /></g><g
       id="g246"
       transform="translate(359.09299,206.41901)"><path
         d="M 0,0 H -97.738998 V 0.56699997 H 0"
         style="fill:#131413;fill-opacity:1;fill-rule:evenodd;stroke:#131413;stroke-width:0.75;stroke-linecap:round;stroke-linejoin:round;stroke-miterlimit:10;stroke-dasharray:none;stroke-opacity:1"
         id="path248"
         inkscape:connector-curvature="0" /></g><g
       id="g250"
       transform="translate(470.55099,206.41901)"><path
         d="M 0,0 H -111.458 V 0.56699997 H 0"
         style="fill:#131413;fill-opacity:1;fill-rule:evenodd;stroke:#131413;stroke-width:0.75;stroke-linecap:round;stroke-linejoin:round;stroke-miterlimit:10;stroke-dasharray:none;stroke-opacity:1"
         id="path252"
         inkscape:connector-curvature="0" /></g><g
       id="g254"
       transform="translate(544.25201,206.41901)"><path
         d="M 0,0 H -73.700996 V 0.56699997 H 0"
         style="fill:#131413;fill-opacity:1;fill-rule:evenodd;stroke:#131413;stroke-width:0.75;stroke-linecap:round;stroke-linejoin:round;stroke-miterlimit:10;stroke-dasharray:none;stroke-opacity:1"
         id="path256"
         inkscape:connector-curvature="0" /></g><text
       transform="matrix(1,0,0,-1,51.023602,222.0094)"
       style="font-variant:normal;font-weight:normal;font-size:8.46819973px;font-family:XcsqsyAdvTTb8864ccf;-inkscape-font-specification:XcsqsyAdvTTb8864ccf;writing-mode:lr-tb;fill:#131413;fill-opacity:1;fill-rule:nonzero;stroke:none"
       id="text260"><tspan
         x="0 4.8192525 9.0541992 13.55166 15.838921 21.657421"
         y="0"
         sodipodi:role="line"
         id="tspan258">Table1</tspan></text>
<text
       transform="matrix(1,0,0,-1,82.144235,222.0094)"
       style="font-variant:normal;font-weight:normal;font-size:8.46819973px;font-family:LrwjxxAdvTT3713a231;-inkscape-font-specification:LrwjxxAdvTT3713a231;writing-mode:lr-tb;fill:#131413;fill-opacity:1;fill-rule:nonzero;stroke:none"
       id="text270"><tspan
         x="0 4.9877696 7.5366979 10.263458 13.769293 17.469896 19.553074 25.048935 29.283035 34.059101 40.139267 47.498131 54.357372 57.930954 62.165054"
         y="0"
         sodipodi:role="line"
         id="tspan262">EffectsofDMFand</tspan><tspan
         x="-31.120634 -23.626276 -16.326689 -9.4674473 -5.2333469 1.0754617 3.3618758 5.8938675 9.594471 13.659206 16.919464 19.044981 22.618563 26.852661 31.239189 38.733547 44.22094 50.174084 56.25425"
         y="9.9755392"
         sodipodi:role="line"
         id="tspan264">MMFontransientMCAO-</tspan><tspan
         x="-31.120634 -28.834219 -24.769484 -20.535383 -16.496052 -12.922472 -9.2218695 -2.8876557 1.3464441 5.3857756 7.6721892 11.736925 15.310506 17.59692 19.730906 23.965006 29.706446 32.966702 35.09222 37.700424 41.401028 44.500389"
         y="19.951078"
         sodipodi:role="line"
         id="tspan266">inducedoxidativestress</tspan><tspan
         x="96.43586 102.51602 105.05648 109.29058 113.32992 179.20404 183.87849 189.80623 198.07965 200.68787 206.76804 208.85121 215.37172 221.72287 225.95697 228.47203 232.70613 234.82318 238.52377 240.60696 244.84105 276.944 284.31134 290.39151 298.5972 301.20538 305.43948 311.80759 316.04169 318.09946 320.38586 326.72009 333.1813 337.41541 339.93048 344.16458 346.28162 349.85519 352.1416 356.20636 388.41092 394.36404 399.03851 407.23572"
         y="7.8754253"
         sodipodi:role="line"
         id="tspan268">GroupSOD(U/mgprotein)MDA(nmol/mgprotein)GSH(</tspan></text>
<text
       transform="matrix(1,0,0,-1,491.97969,214.13397)"
       style="font-variant:normal;font-weight:normal;font-size:8.46819973px;font-family:'MygyxcAdvTT3713a231 3';-inkscape-font-specification:'MygyxcAdvTT3713a231 3';writing-mode:lr-tb;fill:#131413;fill-opacity:1;fill-rule:nonzero;stroke:none"
       id="text274"><tspan
         x="0"
         y="0"
         id="tspan272">μ</tspan></text>
<text
       transform="matrix(1,0,0,-1,497.07754,214.13397)"
       style="font-variant:normal;font-weight:normal;font-size:8.46819973px;font-family:LrwjxxAdvTT3713a231;-inkscape-font-specification:LrwjxxAdvTT3713a231;writing-mode:lr-tb;fill:#131413;fill-opacity:1;fill-rule:nonzero;stroke:none"
       id="text284"><tspan
         x="0 6.520514 10.602186 12.753109 15.039523 21.373735 25.607836 28.1737 32.407799 34.465572 38.166176 40.308632 44.542732"
         y="0"
         sodipodi:role="line"
         id="tspan276">mol/gprotein)</tspan><tspan
         x="-318.49747 -313.39706 -309.69391 -305.62665 -303.50705 -299.80389 -297.66739 -235.7623 -231.52567 -227.45839 -225.33879 -221.27151 -215.4852 -209.30934 -205.07269 -203.18175 -198.94511 -137.98 -133.74336 -131.85242 -127.61577 -121.87179 -115.69593 -111.62865 -109.50906 -105.44179 -26.524096 -22.45682 -20.337229 -16.269953 -10.432822 -4.3077736 -0.07113339 1.8790931 6.1157331"
         y="20.526917"
         sodipodi:role="line"
         id="tspan278">Vehicle92.04±4.203.98±0.658.54±2.96</tspan><tspan
         x="-318.49747 -312.4173 -305.11771 -298.25845 -294.02435 -287.71555 -281.19504 -277.11337 -274.96243 -270.72833 -235.72928 -231.87625 -227.64215 -223.60281 -221.48576 -217.42104 -211.63725 -205.45546 -201.22136 -199.27368 -195.03958 -191.00024 -137.98932 -133.75522 -131.86681 -127.63271 -121.89127 -115.70948 -111.62781 -109.51076 -105.44602 -101.21192 -26.53087 -22.449198 -20.332148 -16.267412 -10.424355 -4.301846 -0.06774611 1.8799398 6.1140399 10.153371"
         y="33.229218"
         sodipodi:role="line"
         id="tspan280">DMF30mg/kg114.46±6.57*2.96±0.58*9.99±2.91*</tspan><tspan
         x="-318.49747 -312.4173 -305.11771 -298.25845 -294.02435 -287.71555 -281.19504 -277.11337 -274.96243 -270.72833 -235.72928 -231.49518 -227.45584 -223.22174 -221.27406 -217.03996 -211.34933 -205.16754 -200.93344 -199.04503 -194.81093 -190.77161 -186.53751"
         y="45.931515"
         sodipodi:role="line"
         id="tspan282">DMF45mg/kg131.98±6.13**</tspan></text>
<text
       transform="matrix(1,0,0,-0.88882066,314.5889,172.0062)"
       style="font-variant:normal;font-weight:normal;font-size:6.35099983px;font-family:LrwjxxAdvTT3713a231;-inkscape-font-specification:LrwjxxAdvTT3713a231;writing-mode:lr-tb;fill:#131413;fill-opacity:1;fill-rule:nonzero;stroke:none"
       id="text288"><tspan
         x="0"
         y="0"
         id="tspan286">#</tspan></text>
<text
       transform="matrix(1,0,0,-1,359.0928,168.20779)"
       style="font-variant:normal;font-weight:normal;font-size:8.46819973px;font-family:LrwjxxAdvTT3713a231;-inkscape-font-specification:LrwjxxAdvTT3713a231;writing-mode:lr-tb;fill:#131413;fill-opacity:1;fill-rule:nonzero;stroke:none"
       id="text292"><tspan
         x="0 4.2340999 6.1225085 10.356608 16.098047 22.279833 26.361506 28.478556 32.543293 36.77739 40.816723"
         y="0"
         sodipodi:role="line"
         id="tspan290">2.18±0.39**</tspan></text>
<text
       transform="matrix(1,0,0,-0.88882066,404.05029,172.0062)"
       style="font-variant:normal;font-weight:normal;font-size:6.35099983px;font-family:LrwjxxAdvTT3713a231;-inkscape-font-specification:LrwjxxAdvTT3713a231;writing-mode:lr-tb;fill:#131413;fill-opacity:1;fill-rule:nonzero;stroke:none"
       id="text296"><tspan
         x="0"
         y="0"
         id="tspan294">#</tspan></text>
<text
       transform="matrix(1,0,0,-1,470.55109,168.20779)"
       style="font-variant:normal;font-weight:normal;font-size:8.46819973px;font-family:LrwjxxAdvTT3713a231;-inkscape-font-specification:LrwjxxAdvTT3713a231;writing-mode:lr-tb;fill:#131413;fill-opacity:1;fill-rule:nonzero;stroke:none"
       id="text300"><tspan
         x="0 3.8547244 8.090518 9.9806204 14.216413 19.959547 26.134558 30.217924 32.336666 36.39463 40.630421 44.671448"
         y="0"
         sodipodi:role="line"
         id="tspan298">11.96±2.16**</tspan></text>
<text
       transform="matrix(1,0,0,-0.88882066,519.36359,172.0062)"
       style="font-variant:normal;font-weight:normal;font-size:6.35099983px;font-family:LrwjxxAdvTT3713a231;-inkscape-font-specification:LrwjxxAdvTT3713a231;writing-mode:lr-tb;fill:#131413;fill-opacity:1;fill-rule:nonzero;stroke:none"
       id="text304"><tspan
         x="0"
         y="0"
         id="tspan302">#</tspan></text>
<text
       transform="matrix(1,0,0,-1,178.5826,155.50861)"
       style="font-variant:normal;font-weight:normal;font-size:8.46819973px;font-family:LrwjxxAdvTT3713a231;-inkscape-font-specification:LrwjxxAdvTT3713a231;writing-mode:lr-tb;fill:#131413;fill-opacity:1;fill-rule:nonzero;stroke:none"
       id="text310"><tspan
         x="0 7.4943566 14.793945 21.653187 25.887287 32.196095 38.71661 42.798283 44.949203 49.183304 82.759712 86.993813 91.03315 95.26725 97.214935 101.44904 107.13966 113.32145 117.55555 119.44395 123.67805 127.71739 180.50815 184.74225 186.63066 190.86475 196.60619 202.78798 206.86964 208.98669 213.05144 217.28554 291.96658 296.04825 300.28235 302.23004 306.46414 312.15479 318.33655 322.57065 324.51834 328.75244 332.79178"
         y="0"
         sodipodi:role="line"
         id="tspan306">MMF30mg/kg109.98±5.96*2.99±0.57*10.07±1.87*</tspan><tspan
         x="-8.1300004e-06 7.4943485 14.793937 21.653179 25.887278 32.196087 38.716602 42.798275 44.949196 49.183296 82.759705 86.993805 91.033142 95.267242 97.214928 101.44903 107.13966 113.32144 117.55554 119.44395 123.67805 127.71738 131.95148"
         y="12.7023"
         sodipodi:role="line"
         id="tspan308">MMF45mg/kg125.46±5.91**</tspan></text>
<text
       transform="matrix(1,0,0,-0.88882066,314.5889,146.55119)"
       style="font-variant:normal;font-weight:normal;font-size:6.35099983px;font-family:LrwjxxAdvTT3713a231;-inkscape-font-specification:LrwjxxAdvTT3713a231;writing-mode:lr-tb;fill:#131413;fill-opacity:1;fill-rule:nonzero;stroke:none"
       id="text314"><tspan
         x="0"
         y="0"
         id="tspan312">#</tspan></text>
<text
       transform="matrix(1,0,0,-1,359.0928,142.8094)"
       style="font-variant:normal;font-weight:normal;font-size:8.46819973px;font-family:LrwjxxAdvTT3713a231;-inkscape-font-specification:LrwjxxAdvTT3713a231;writing-mode:lr-tb;fill:#131413;fill-opacity:1;fill-rule:nonzero;stroke:none"
       id="text318"><tspan
         x="0 4.2340999 6.1225085 10.356608 16.098047 22.279833 26.361506 28.478556 32.543293 36.77739 40.816723"
         y="0"
         sodipodi:role="line"
         id="tspan316">2.21±0.51**</tspan></text>
<text
       transform="matrix(1,0,0,-0.88882066,404.05029,146.55119)"
       style="font-variant:normal;font-weight:normal;font-size:6.35099983px;font-family:LrwjxxAdvTT3713a231;-inkscape-font-specification:LrwjxxAdvTT3713a231;writing-mode:lr-tb;fill:#131413;fill-opacity:1;fill-rule:nonzero;stroke:none"
       id="text322"><tspan
         x="0"
         y="0"
         id="tspan320">#</tspan></text>
<text
       transform="matrix(1,0,0,-1,470.55109,142.8094)"
       style="font-variant:normal;font-weight:normal;font-size:8.46819973px;font-family:LrwjxxAdvTT3713a231;-inkscape-font-specification:LrwjxxAdvTT3713a231;writing-mode:lr-tb;fill:#131413;fill-opacity:1;fill-rule:nonzero;stroke:none"
       id="text326"><tspan
         x="0 3.8547244 8.090518 9.9806204 14.216413 19.959547 26.134558 30.217924 32.336666 36.39463 40.630421 44.671448"
         y="0"
         sodipodi:role="line"
         id="tspan324">11.64±1.22**</tspan></text>
<text
       transform="matrix(1,0,0,-0.88882066,519.36359,146.55119)"
       style="font-variant:normal;font-weight:normal;font-size:6.35099983px;font-family:LrwjxxAdvTT3713a231;-inkscape-font-specification:LrwjxxAdvTT3713a231;writing-mode:lr-tb;fill:#131413;fill-opacity:1;fill-rule:nonzero;stroke:none"
       id="text330"><tspan
         x="0"
         y="0"
         id="tspan328">#</tspan></text>
<text
       transform="matrix(1,0,0,-1,176.5417,122.5134)"
       style="font-variant:normal;font-weight:normal;font-size:8.46819973px;font-family:LrwjxxAdvTT3713a231;-inkscape-font-specification:LrwjxxAdvTT3713a231;writing-mode:lr-tb;fill:#131413;fill-opacity:1;fill-rule:nonzero;stroke:none"
       id="text334"><tspan
         x="0 6.0801673 9.5775337 11.863948 17.681601 21.382204 23.914196 29.808064 34.042164 36.608028 40.181606 43.441864 46.981571 51.063244 53.349659 56.906303 63.308262 67.008865 72.377701 78.779663 82.480263 85.977631 91.820686 98.002472 102.54143 107.65622 114.95581"
         y="0"
         sodipodi:role="line"
         id="tspan332">Dataarepresentedasmean±SEM.</tspan></text>
<text
       transform="matrix(1,0,0,-1,295.82477,122.5134)"
       style="font-variant:normal;font-weight:normal;font-size:8.46819973px;font-family:GxsvwdAdvTT50a2f13e;-inkscape-font-specification:GxsvwdAdvTT50a2f13e;writing-mode:lr-tb;fill:#131413;fill-opacity:1;fill-rule:nonzero;stroke:none"
       id="text338"><tspan
         x="0"
         y="0"
         id="tspan336">n</tspan></text>
<text
       transform="matrix(1,0,0,-1,301.66783,122.5134)"
       style="font-variant:normal;font-weight:normal;font-size:8.46819973px;font-family:LrwjxxAdvTT3713a231;-inkscape-font-specification:LrwjxxAdvTT3713a231;writing-mode:lr-tb;fill:#131413;fill-opacity:1;fill-rule:nonzero;stroke:none"
       id="text342"><tspan
         x="0 6.3494563 12.75819 16.990597 20.520142 25.336853 29.56926 32.082623 36.315029 40.361134"
         y="0"
         sodipodi:role="line"
         id="tspan340">=8pergroup</tspan></text>
<text
       transform="matrix(1,0,0,-1,176.55018,109.70101)"
       style="font-variant:normal;font-weight:normal;font-size:8.46819973px;font-family:GxsvwdAdvTT50a2f13e;-inkscape-font-specification:GxsvwdAdvTT50a2f13e;writing-mode:lr-tb;fill:#131413;fill-opacity:1;fill-rule:nonzero;stroke:none"
       id="text346"><tspan
         x="0 6.0801673 12.871663"
         y="0"
         sodipodi:role="line"
         id="tspan344">DMF</tspan></text>
<text
       transform="matrix(1,0,0,-1,196.28108,109.70101)"
       style="font-variant:normal;font-weight:normal;font-size:8.46819973px;font-family:LrwjxxAdvTT3713a231;-inkscape-font-specification:LrwjxxAdvTT3713a231;writing-mode:lr-tb;fill:#131413;fill-opacity:1;fill-rule:nonzero;stroke:none"
       id="text350"><tspan
         x="0 4.2340999 6.3511496 12.871663 16.385967 18.67238 22.737116 26.971216 30.900461 33.62722 37.700424 44.102383 47.802986 50.33498 54.035583 56.178036 59.751617"
         y="0"
         sodipodi:role="line"
         id="tspan348">dimethylfumarate,</tspan></text>
<text
       transform="matrix(1,0,0,-1,259.94501,109.70101)"
       style="font-variant:normal;font-weight:normal;font-size:8.46819973px;font-family:GxsvwdAdvTT50a2f13e;-inkscape-font-specification:GxsvwdAdvTT50a2f13e;writing-mode:lr-tb;fill:#131413;fill-opacity:1;fill-rule:nonzero;stroke:none"
       id="text354"><tspan
         x="0 6.9608603 13.718484"
         y="0"
         sodipodi:role="line"
         id="tspan352">MMF</tspan></text>
<text
       transform="matrix(1,0,0,-1,280.58201,109.70101)"
       style="font-variant:normal;font-weight:normal;font-size:8.46819973px;font-family:LrwjxxAdvTT3713a231;-inkscape-font-specification:LrwjxxAdvTT3713a231;writing-mode:lr-tb;fill:#131413;fill-opacity:1;fill-rule:nonzero;stroke:none"
       id="text358"><tspan
         x="0 6.4070401 10.637753 14.682165 18.912878 25.243704 28.94092 31.037645 35.268356 39.312771 43.391056 45.995872 50.226585 56.557411 60.127605 62.850979 66.412704 68.56871 72.265923"
         y="0"
         sodipodi:role="line"
         id="tspan356">monomethylfumarate,</tspan></text>
<text
       transform="matrix(1,0,0,-1,356.66032,109.70101)"
       style="font-variant:normal;font-weight:normal;font-size:8.46819973px;font-family:GxsvwdAdvTT50a2f13e;-inkscape-font-specification:GxsvwdAdvTT50a2f13e;writing-mode:lr-tb;fill:#131413;fill-opacity:1;fill-rule:nonzero;stroke:none"
       id="text362"><tspan
         x="0 6.9608603 12.414381 17.529173"
         y="0"
         sodipodi:role="line"
         id="tspan360">MCAO</tspan></text>
<text
       transform="matrix(1,0,0,-1,381.94636,109.70101)"
       style="font-variant:normal;font-weight:normal;font-size:8.46819973px;font-family:LrwjxxAdvTT3713a231;-inkscape-font-specification:LrwjxxAdvTT3713a231;writing-mode:lr-tb;fill:#131413;fill-opacity:1;fill-rule:nonzero;stroke:none"
       id="text366"><tspan
         x="0 6.520514 8.6714363 12.905537 16.894058 19.180471 24.600121 28.1737 31.874304 34.406296 38.106899 42.171635 44.779839 48.480442 52.485901 56.059483 58.786243 60.877888 64.578491 67.169762 73.122902 77.357002 80.888245 84.588844 86.672028 90.90612 93.988548 96.274963 100.3397 104.5738"
         y="0"
         sodipodi:role="line"
         id="tspan364">middlecerebralarteryocclusion,</tspan></text>
<text
       transform="matrix(1,0,0,-1,490.28851,109.70101)"
       style="font-variant:normal;font-weight:normal;font-size:8.46819973px;font-family:GxsvwdAdvTT50a2f13e;-inkscape-font-specification:GxsvwdAdvTT50a2f13e;writing-mode:lr-tb;fill:#131413;fill-opacity:1;fill-rule:nonzero;stroke:none"
       id="text370"><tspan
         x="0 4.2340999 10.144903"
         y="0"
         sodipodi:role="line"
         id="tspan368">SOD</tspan></text>
<text
       transform="matrix(1,0,0,-1,508.25803,109.70101)"
       style="font-variant:normal;font-weight:normal;font-size:8.46819973px;font-family:LrwjxxAdvTT3713a231;-inkscape-font-specification:LrwjxxAdvTT3713a231;writing-mode:lr-tb;fill:#131413;fill-opacity:1;fill-rule:nonzero;stroke:none"
       id="text376"><tspan
         x="0 3.260257 7.3165245 11.550625 15.081863 17.690069 21.92417 25.963501 28.249914 32.314651"
         y="0"
         sodipodi:role="line"
         id="tspan372">superoxide</tspan><tspan
         x="-331.70786 -327.47375 -325.35672 -322.09647 -315.77917 -311.54507 -309.42804 -305.85446 -302.59421 -299.05447"
         y="9.9247303"
         sodipodi:role="line"
         id="tspan374">dismutase,</tspan></text>
<text
       transform="matrix(1,0,0,-1,213.51385,99.77628)"
       style="font-variant:normal;font-weight:normal;font-size:8.46819973px;font-family:GxsvwdAdvTT50a2f13e;-inkscape-font-specification:GxsvwdAdvTT50a2f13e;writing-mode:lr-tb;fill:#131413;fill-opacity:1;fill-rule:nonzero;stroke:none"
       id="text380"><tspan
         x="0 6.9608603 12.812387"
         y="0"
         sodipodi:role="line"
         id="tspan378">MDA</tspan></text>
<text
       transform="matrix(1,0,0,-1,233.64277,99.77628)"
       style="font-variant:normal;font-weight:normal;font-size:8.46819973px;font-family:LrwjxxAdvTT3713a231;-inkscape-font-specification:LrwjxxAdvTT3713a231;writing-mode:lr-tb;fill:#131413;fill-opacity:1;fill-rule:nonzero;stroke:none"
       id="text384"><tspan
         x="0 6.520514 10.034817 12.321231 16.385967 20.620066 24.659397 26.945812 30.443178 32.729591 36.794327 40.367908 44.602009 48.641338 52.875439 56.406677"
         y="0"
         sodipodi:role="line"
         id="tspan382">malondialdehyde,</tspan></text>
<text
       transform="matrix(1,0,0,-1,294.35976,99.77628)"
       style="font-variant:normal;font-weight:normal;font-size:8.46819973px;font-family:GxsvwdAdvTT50a2f13e;-inkscape-font-specification:GxsvwdAdvTT50a2f13e;writing-mode:lr-tb;fill:#131413;fill-opacity:1;fill-rule:nonzero;stroke:none"
       id="text388"><tspan
         x="0 5.9531446 10.187244"
         y="0"
         sodipodi:role="line"
         id="tspan386">GSH</tspan></text>
<text
       transform="matrix(1,0,0,-1,312.72728,99.77628)"
       style="font-variant:normal;font-weight:normal;font-size:8.46819973px;font-family:LrwjxxAdvTT3713a231;-inkscape-font-specification:LrwjxxAdvTT3713a231;writing-mode:lr-tb;fill:#131413;fill-opacity:1;fill-rule:nonzero;stroke:none"
       id="text394"><tspan
         x="0 4.2340999 6.3511496 10.58525 12.702299 16.275881 18.562294 22.627029 24.913445 28.97818 33.059853"
         y="0"
         sodipodi:role="line"
         id="tspan390">glutathione</tspan><tspan
         x="-136.17711"
         y="12.812386"
         id="tspan392">*</tspan></text>
<text
       transform="matrix(1,0,0,-1,180.69112,86.963894)"
       style="font-variant:normal;font-weight:normal;font-size:8.46819973px;font-family:GxsvwdAdvTT50a2f13e;-inkscape-font-specification:GxsvwdAdvTT50a2f13e;writing-mode:lr-tb;fill:#131413;fill-opacity:1;fill-rule:nonzero;stroke:none"
       id="text398"><tspan
         x="0"
         y="0"
         id="tspan396">p</tspan></text>
<text
       transform="matrix(1,0,0,-1,186.53418,86.963894)"
       style="font-variant:normal;font-weight:normal;font-size:8.46819973px;font-family:LrwjxxAdvTT3713a231;-inkscape-font-specification:LrwjxxAdvTT3713a231;writing-mode:lr-tb;fill:#131413;fill-opacity:1;fill-rule:nonzero;stroke:none"
       id="text402"><tspan
         x="0 6.3511496 10.432822 12.549872 16.614609 20.848707 24.947317 29.028988"
         y="0"
         sodipodi:role="line"
         id="tspan400">&lt;0.05;**</tspan></text>
<text
       transform="matrix(1,0,0,-1,219.69565,86.963894)"
       style="font-variant:normal;font-weight:normal;font-size:8.46819973px;font-family:GxsvwdAdvTT50a2f13e;-inkscape-font-specification:GxsvwdAdvTT50a2f13e;writing-mode:lr-tb;fill:#131413;fill-opacity:1;fill-rule:nonzero;stroke:none"
       id="text406"><tspan
         x="0"
         y="0"
         id="tspan404">p</tspan></text>
<text
       transform="matrix(1,0,0,-1,225.5387,86.963894)"
       style="font-variant:normal;font-weight:normal;font-size:8.46819973px;font-family:LrwjxxAdvTT3713a231;-inkscape-font-specification:LrwjxxAdvTT3713a231;writing-mode:lr-tb;fill:#131413;fill-opacity:1;fill-rule:nonzero;stroke:none"
       id="text410"><tspan
         x="0 6.3511496 10.58525 12.473659 16.707758 20.747089 24.769484 28.343065 33.500198 37.200802 41.265537 47.667496 51.901596 55.432835 58.041042 61.741646 67.737129 70.023544 76.069839 78.356255 82.42099 87.976128 92.210228 95.741463 99.975563 102.03334 105.73394 107.8764 113.43153 117.66563 120.2315 124.4656 128.45412 132.68822 136.78683"
         y="0"
         sodipodi:role="line"
         id="tspan408">&lt;0.01,ascomparedtothevehiclegroup;#</tspan></text>
<text
       transform="matrix(1,0,0,-1,366.47495,86.963894)"
       style="font-variant:normal;font-weight:normal;font-size:8.46819973px;font-family:GxsvwdAdvTT50a2f13e;-inkscape-font-specification:GxsvwdAdvTT50a2f13e;writing-mode:lr-tb;fill:#131413;fill-opacity:1;fill-rule:nonzero;stroke:none"
       id="text414"><tspan
         x="0"
         y="0"
         id="tspan412">p</tspan></text>
<text
       transform="matrix(1,0,0,-1,372.25873,86.963894)"
       style="font-variant:normal;font-weight:normal;font-size:8.46819973px;font-family:LrwjxxAdvTT3713a231;-inkscape-font-specification:LrwjxxAdvTT3713a231;writing-mode:lr-tb;fill:#131413;fill-opacity:1;fill-rule:nonzero;stroke:none"
       id="text420"><tspan
         x="0 6.3511496 10.58525 12.532935 16.767035 20.806366 24.777952 28.478556 32.543293 38.945251 43.179352 46.71059 49.318794 51.605209 54.704571 58.938671 62.978001 68.075859 72.309959 75.841194 78.127609 84.004539 87.705147 91.202515 97.32502 103.40519 110.70477 117.28457 121.51867 127.54803 133.94998 140.07249 143.7731 147.83783 153.90106 159.98123 167.34009"
         y="0"
         sodipodi:role="line"
         id="tspan416">&lt;0.01,comparisonsbetweenDMF45mgandDMF</tspan><tspan
         x="-195.7001 -191.466 -185.1572 -178.63667 -172.28552 -168.05142 -165.48557 -161.40388 -157.16978 -150.80171 -146.56761 -141.79153 -134.29718 -126.9976 -120.07908 -115.99741 -109.53617 -103.13421 -96.732254 -93.031647 -88.966911 -82.564949 -75.070595 -67.771004 -60.911766 -56.677666 -50.309578 -43.907619 -37.505661 -33.271561 -30.705698 -26.471598 -22.432266"
         y="9.9755392"
         sodipodi:role="line"
         id="tspan418">30mggrouporMMF45mgandMMF30mggroup</tspan></text>
</g></svg>