<?xml version="1.0" encoding="UTF-8" standalone="no"?>
<!-- Created with Inkscape (http://www.inkscape.org/) -->

<svg
   xmlns:dc="http://purl.org/dc/elements/1.1/"
   xmlns:cc="http://creativecommons.org/ns#"
   xmlns:rdf="http://www.w3.org/1999/02/22-rdf-syntax-ns#"
   xmlns:svg="http://www.w3.org/2000/svg"
   xmlns="http://www.w3.org/2000/svg"
   xmlns:sodipodi="http://sodipodi.sourceforge.net/DTD/sodipodi-0.dtd"
   xmlns:inkscape="http://www.inkscape.org/namespaces/inkscape"
   version="1.1"
   id="svg2"
   xml:space="preserve"
   width="793.70135"
   height="1065.8267"
   viewBox="0 0 793.70135 1065.8267"
   sodipodi:docname="table2.svg"
   inkscape:version="0.92.0 r15299"><metadata
     id="metadata8"><rdf:RDF><cc:Work
         rdf:about=""><dc:format>image/svg+xml</dc:format><dc:type
           rdf:resource="http://purl.org/dc/dcmitype/StillImage" /><dc:title></dc:title></cc:Work></rdf:RDF></metadata><defs
     id="defs6"><clipPath
       clipPathUnits="userSpaceOnUse"
       id="clipPath22"><path
         d="M 0.03,799.37 H 595.276 V 0 H 0.03 Z"
         id="path20"
         inkscape:connector-curvature="0" /></clipPath></defs><sodipodi:namedview
     pagecolor="#ffffff"
     bordercolor="#666666"
     borderopacity="1"
     objecttolerance="10"
     gridtolerance="10"
     guidetolerance="10"
     inkscape:pageopacity="0"
     inkscape:pageshadow="2"
     inkscape:window-width="1920"
     inkscape:window-height="988"
     id="namedview4"
     showgrid="false"
     inkscape:zoom="1.2525654"
     inkscape:cx="361.82444"
     inkscape:cy="305.47362"
     inkscape:window-x="0"
     inkscape:window-y="27"
     inkscape:window-maximized="1"
     inkscape:current-layer="g10" /><g
     id="g10"
     inkscape:groupmode="layer"
     inkscape:label="fulltext"
     transform="matrix(1.3333333,0,0,-1.3333333,0,1065.8267)"><path
       d="M 36.975,47.703 H 566.804 V 373.898 H 36.975 Z"
       style="fill:#f5e0dc;fill-opacity:1;fill-rule:nonzero;stroke:none"
       id="path156"
       inkscape:connector-curvature="0" /><g
       id="g158"
       transform="translate(42.770004,62.126999)"><path
         d="M 0,0 H 518.24"
         style="fill:none;stroke:#000000;stroke-width:0.25;stroke-linecap:butt;stroke-linejoin:miter;stroke-miterlimit:10;stroke-dasharray:none;stroke-opacity:1"
         id="path160"
         inkscape:connector-curvature="0" /></g><path
       d="M 42.77,314.42 H 96.945 V 277.637 H 42.77 Z m 54.175,0 h 43.653 V 277.637 H 96.945 Z m 43.653,0 h 61.229 v -36.783 h -61.229 z m 61.229,0 h 3 v -36.783 h -3 z m 3,0 h 42.495 v -36.783 h -42.495 z m 42.495,0 h 60.591 v -36.783 h -60.591 z m 60.591,0 h 3 v -36.783 h -3 z m 3,0 h 38.267 v -36.783 h -38.267 z m 38.267,0 h 59.882 V 277.637 H 349.18 Z m 59.882,0 h 3 v -36.783 h -3 z m 3,0 h 68.268 v -36.783 h -68.268 z m 68.268,0 h 56.126 V 277.637 H 480.33 Z m 56.126,0 H 561.01 V 277.637 H 536.456 Z M 42.77,266.354 H 96.945 V 238.07 H 42.77 Z m 54.175,0 h 43.653 V 238.07 H 96.945 Z m 43.653,0 h 61.229 V 238.07 h -61.229 z m 61.229,0 h 3 V 238.07 h -3 z m 3,0 h 42.495 V 238.07 h -42.495 z m 42.495,0 h 60.591 V 238.07 h -60.591 z m 60.591,0 h 3 V 238.07 h -3 z m 3,0 H 349.18 V 238.07 h -38.267 z m 38.267,0 h 59.882 V 238.07 H 349.18 Z m 59.882,0 h 3 V 238.07 h -3 z m 3,0 H 480.33 V 238.07 h -68.268 z m 68.268,0 h 56.126 V 238.07 H 480.33 Z m 56.126,0 H 561.01 V 238.07 H 536.456 Z M 42.77,238.07 H 96.945 V 218.287 H 42.77 Z m 54.175,0 h 43.653 V 218.287 H 96.945 Z m 43.653,0 h 61.229 v -19.783 h -61.229 z m 61.229,0 h 3 v -19.783 h -3 z m 3,0 h 42.495 v -19.783 h -42.495 z m 42.495,0 h 60.591 v -19.783 h -60.591 z m 60.591,0 h 3 v -19.783 h -3 z m 3,0 h 38.267 v -19.783 h -38.267 z m 38.267,0 h 59.882 V 218.287 H 349.18 Z m 59.882,0 h 3 v -19.783 h -3 z m 3,0 h 68.268 v -19.783 h -68.268 z m 68.268,0 h 56.126 V 218.287 H 480.33 Z m 56.126,0 H 561.01 V 218.287 H 536.456 Z M 42.77,218.287 H 96.945 V 190.004 H 42.77 Z m 54.175,0 h 43.653 V 190.004 H 96.945 Z m 43.653,0 h 61.229 v -28.283 h -61.229 z m 61.229,0 h 3 v -28.283 h -3 z m 3,0 h 42.495 v -28.283 h -42.495 z m 42.495,0 h 60.591 v -28.283 h -60.591 z m 60.591,0 h 3 v -28.283 h -3 z m 3,0 h 38.267 v -28.283 h -38.267 z m 38.267,0 h 59.882 V 190.004 H 349.18 Z m 59.882,0 h 3 v -28.283 h -3 z m 3,0 h 68.268 v -28.283 h -68.268 z m 68.268,0 h 56.126 V 190.004 H 480.33 Z m 56.126,0 H 561.01 V 190.004 H 536.456 Z M 42.77,190.004 H 96.945 V 170.221 H 42.77 Z m 54.175,0 h 43.653 V 170.221 H 96.945 Z m 43.653,0 h 61.229 v -19.783 h -61.229 z m 61.229,0 h 3 v -19.783 h -3 z m 3,0 h 42.495 v -19.783 h -42.495 z m 42.495,0 h 60.591 v -19.783 h -60.591 z m 60.591,0 h 3 v -19.783 h -3 z m 3,0 h 38.267 v -19.783 h -38.267 z m 38.267,0 h 59.882 V 170.221 H 349.18 Z m 59.882,0 h 3 v -19.783 h -3 z m 3,0 h 68.268 v -19.783 h -68.268 z m 68.268,0 h 56.126 V 170.221 H 480.33 Z m 56.126,0 H 561.01 V 170.221 H 536.456 Z M 42.77,170.221 H 96.945 V 141.938 H 42.77 Z m 54.175,0 h 43.653 V 141.938 H 96.945 Z m 43.653,0 h 61.229 v -28.283 h -61.229 z m 61.229,0 h 3 v -28.283 h -3 z m 3,0 h 42.495 v -28.283 h -42.495 z m 42.495,0 h 60.591 v -28.283 h -60.591 z m 60.591,0 h 3 v -28.283 h -3 z m 3,0 h 38.267 v -28.283 h -38.267 z m 38.267,0 h 59.882 V 141.938 H 349.18 Z m 59.882,0 h 3 v -28.283 h -3 z m 3,0 h 68.268 v -28.283 h -68.268 z m 68.268,0 h 56.126 V 141.938 H 480.33 Z m 56.126,0 H 561.01 V 141.938 H 536.456 Z M 42.77,141.938 H 96.945 V 122.155 H 42.77 Z m 54.175,0 h 43.653 V 122.155 H 96.945 Z m 43.653,0 h 61.229 v -19.783 h -61.229 z m 61.229,0 h 3 v -19.783 h -3 z m 3,0 h 42.495 v -19.783 h -42.495 z m 42.495,0 h 60.591 v -19.783 h -60.591 z m 60.591,0 h 3 v -19.783 h -3 z m 3,0 h 38.267 v -19.783 h -38.267 z m 38.267,0 h 59.882 V 122.155 H 349.18 Z m 59.882,0 h 3 v -19.783 h -3 z m 3,0 h 68.268 v -19.783 h -68.268 z m 68.268,0 h 56.126 V 122.155 H 480.33 Z m 56.126,0 H 561.01 V 122.155 H 536.456 Z M 42.77,122.155 H 96.945 V 102.371 H 42.77 Z m 54.175,0 h 43.653 V 102.371 H 96.945 Z m 43.653,0 h 61.229 v -19.784 h -61.229 z m 61.229,0 h 3 v -19.784 h -3 z m 3,0 h 42.495 v -19.784 h -42.495 z m 42.495,0 h 60.591 v -19.784 h -60.591 z m 60.591,0 h 3 v -19.784 h -3 z m 3,0 h 38.267 v -19.784 h -38.267 z m 38.267,0 h 59.882 V 102.371 H 349.18 Z m 59.882,0 h 3 v -19.784 h -3 z m 3,0 h 68.268 v -19.784 h -68.268 z m 68.268,0 h 56.126 V 102.371 H 480.33 Z m 56.126,0 H 561.01 V 102.371 H 536.456 Z M 42.77,102.371 H 96.945 V 82.588 H 42.77 Z m 54.175,0 h 43.653 V 82.588 H 96.945 Z m 43.653,0 h 61.229 V 82.588 h -61.229 z m 61.229,0 h 3 V 82.588 h -3 z m 3,0 h 42.495 V 82.588 h -42.495 z m 42.495,0 h 60.591 V 82.588 h -60.591 z m 60.591,0 h 3 V 82.588 h -3 z m 3,0 H 349.18 V 82.588 h -38.267 z m 38.267,0 h 59.882 V 82.588 H 349.18 Z m 59.882,0 h 3 V 82.588 h -3 z m 3,0 H 480.33 V 82.588 h -68.268 z m 68.268,0 h 56.126 V 82.588 H 480.33 Z m 56.126,0 H 561.01 V 82.588 h -24.554 z"
       style="fill:#ffffff;fill-opacity:1;fill-rule:nonzero;stroke:none"
       id="path162"
       inkscape:connector-curvature="0" /><g
       id="g164"
       transform="translate(42.770004,326.83701)"><path
         d="M 0,0 H 54.175"
         style="fill:none;stroke:#000000;stroke-width:0.25;stroke-linecap:butt;stroke-linejoin:miter;stroke-miterlimit:10;stroke-dasharray:none;stroke-opacity:1"
         id="path166"
         inkscape:connector-curvature="0" /></g><g
       id="g168"
       transform="translate(96.945007,340.388)"><path
         d="m 0,0 h 43.653 61.229"
         style="fill:none;stroke:#000000;stroke-width:0.25;stroke-linecap:butt;stroke-linejoin:miter;stroke-miterlimit:10;stroke-dasharray:none;stroke-opacity:1"
         id="path170"
         inkscape:connector-curvature="0" /></g><g
       id="g172"
       transform="translate(204.827,340.388)"><path
         d="m 0,0 h 42.495 60.591"
         style="fill:none;stroke:#000000;stroke-width:0.25;stroke-linecap:butt;stroke-linejoin:miter;stroke-miterlimit:10;stroke-dasharray:none;stroke-opacity:1"
         id="path174"
         inkscape:connector-curvature="0" /></g><g
       id="g176"
       transform="translate(310.91299,340.388)"><path
         d="M 0,0 H 38.267 98.149"
         style="fill:none;stroke:#000000;stroke-width:0.25;stroke-linecap:butt;stroke-linejoin:miter;stroke-miterlimit:10;stroke-dasharray:none;stroke-opacity:1"
         id="path178"
         inkscape:connector-curvature="0" /></g><g
       id="g180"
       transform="translate(96.945007,326.83701)"><path
         d="m 0,0 h 43.653 61.229 3 42.495 60.591 3 38.267 59.882 3 68.268 56.126 24.554"
         style="fill:none;stroke:#000000;stroke-width:0.25;stroke-linecap:butt;stroke-linejoin:miter;stroke-miterlimit:10;stroke-dasharray:none;stroke-opacity:1"
         id="path182"
         inkscape:connector-curvature="0" /></g><text
       transform="matrix(1,0,0,-1,99.7794,361.923)"
       style="font-variant:normal;font-weight:bold;font-size:7px;font-family:Shaker2Lancet;-inkscape-font-specification:Shaker2Lancet-Bold;writing-mode:lr-tb;fill:#000000;fill-opacity:1;fill-rule:nonzero;stroke:none"
       id="text196"><tspan
         x="0 5.684 8.8549995 12.089 15.869 17.157 19.424999 22.736 27.013 29.281 30.569 33.25 36.035999 39.689999 42 45.171001 46.459 49.693001 52.332001 53.619999 57.294998 60.528999 63.209999 66.380997 68.026001 69.782997 73.563004 107.877 113.561 116.732 119.966 123.746 125.034 127.302 130.61301 134.89 137.158 138.446 141.127 143.91299 147.567 149.877 153.048 154.336 157.57001 160.209 161.49699 165.004 168.882 170.17 175.931 179.58501 183.36501 186.004 189.728 213.96201 217.54601 221.27 224.504 228.284 231.959 235.13 236.418 238.742 241.052 244.70599 250.467 251.755 255.42999 258.664 261.345 264.51599 266.16101 267.918 271.698 274.86899 276.15701 278.42499 283.45099 315.112 320.79599 323.96701 327.20099 330.98099 332.20599 335.92999 337.68701 339.86401 342.034 345.20499 347.51501 350.686 354.466 357.25201 360.423"
         y="0"
         sodipodi:role="line"
         id="tspan184">Mean (SD) score at baselineMean (SD) score at 24 monthsChange from baseline (%)Mean diﬀ erence </tspan><tspan
         x="315.11899 318.7933 321.96359 324.6019 329.7952 332.96552 336.1358 339.9151 341.14011 344.8634 347.1727 350.84 354.51431 357.19461 358.4826 361.71591 364.35419"
         y="8.4980001"
         sodipodi:role="line"
         id="tspan186">between drugs at </tspan><tspan
         x="315.11899 318.62601 322.504 323.79199 329.55301 333.207 336.987 339.62601 343.35001 346.03101 347.319 349.58701 353.49301 356.99301 362.01901 363.125 366.70901 368.487 371.168"
         y="16.996"
         sodipodi:role="line"
         id="tspan188">24 months (95% CIs)</tspan><tspan
         x="383.39001 386.76401 388.93399 391.104 394.27499 397.061 399.70001 400.98801 403.66901 405.42599 408.31 411.48099"
         y="-0.0070000002"
         sodipodi:role="line"
         id="tspan190">Eﬀ ect size </tspan><tspan
         x="383.39001 387.0643 390.23459 392.87289 398.06619 401.23651 404.4068 408.1861 409.4111 413.1344 415.4437 419.11099 422.78531 425.46561 426.7536 429.98691 432.62521"
         y="8.4910002"
         sodipodi:role="line"
         id="tspan192">between drugs at </tspan><tspan
         x="383.39001 386.897 390.77499 392.06299 397.82401 401.478 405.258 407.897 411.621 414.302 415.59"
         y="16.989"
         sodipodi:role="line"
         id="tspan194">24 months (</tspan></text>
<text
       transform="matrix(1,0,0,-1,517.6374,344.934)"
       style="font-style:italic;font-variant:normal;font-weight:bold;font-size:7px;font-family:Shaker2Lancet;-inkscape-font-specification:Shaker2Lancet-BoldItalic;writing-mode:lr-tb;fill:#000000;fill-opacity:1;fill-rule:nonzero;stroke:none"
       id="text200"><tspan
         x="0"
         y="0"
         id="tspan198">d</tspan></text>
<text
       transform="matrix(1,0,0,-1,520.9764,344.934)"
       style="font-variant:normal;font-weight:bold;font-size:7px;font-family:Shaker2Lancet;-inkscape-font-specification:Shaker2Lancet-Bold;writing-mode:lr-tb;fill:#000000;fill-opacity:1;fill-rule:nonzero;stroke:none"
       id="text208"><tspan
         x="0"
         y="0"
         id="tspan202">)</tspan><tspan
         x="18.319 22.035999"
         y="-17.003"
         sodipodi:role="line"
         id="tspan204">p </tspan><tspan
         x="18.319 21.742001 24.976 26.621 30.289 33.459999"
         y="-8.5050001"
         sodipodi:role="line"
         id="tspan206">value*</tspan></text>
<text
       transform="matrix(1,0,0,-1,99.7864,331.389)"
       style="font-variant:normal;font-weight:normal;font-size:7px;font-family:Shaker2Lancet;-inkscape-font-specification:Shaker2Lancet-Regular;writing-mode:lr-tb;fill:#000000;fill-opacity:1;fill-rule:nonzero;stroke:none"
       id="text212"><tspan
         x="0 4.0879998 7.1469998 10.738 13.083 16.135 21.672001 23.261 25.921 27.51 43.652 49.084 52.143002 54.487999 58.036999 61.033001 62.530998 66.002998 68.130997 71.190002 74.668999 78.260002 79.848999 82.369003 85.911003 87.408997 90.950996 94.542 107.877 111.965 115.024 118.615 120.96 124.012 129.549 131.138 133.798 135.38699 150.37399 155.806 158.86501 161.21001 164.759 167.755 169.25301 172.72501 174.853 177.912 181.39101 184.98199 186.571 189.091 192.633 194.131 197.673 201.26401 213.96201 218.05 221.10899 224.7 227.045 230.097 235.634 237.22301 239.883 241.472 252.231 257.66299 260.72198 263.06699 266.616 269.612 271.10999 274.582 276.70999 279.76901 283.24799 286.83899 288.42801 290.948 294.48999 295.98801 299.53 303.121"
         y="0"
         sodipodi:role="line"
         id="tspan210">GentamicinMethylprednisoloneGentamicinMethylprednisoloneGentamicinMethylprednisolone</tspan></text>
<text
       transform="matrix(1,0,0,-1,45.6134,317.837)"
       style="font-variant:normal;font-weight:bold;font-size:7px;font-family:Shaker2Lancet;-inkscape-font-specification:Shaker2Lancet-Bold;writing-mode:lr-tb;fill:#000000;fill-opacity:1;fill-rule:nonzero;stroke:none"
       id="text216"><tspan
         x="0 3.612 5.9219999 7.6789999 13.44 16.674 18.983999 22.33 23.618 26.789 30.569 34.292999 38.009998 41.664001 43.421001 47.201"
         y="0"
         sodipodi:role="line"
         id="tspan214">Primary endpoint</tspan></text>
<text
       transform="matrix(1,0,0,-1,45.6134,306.553)"
       style="font-variant:normal;font-weight:normal;font-size:7px;font-family:Shaker2Lancet;-inkscape-font-specification:Shaker2Lancet-Regular;writing-mode:lr-tb;fill:#000000;fill-opacity:1;fill-rule:nonzero;stroke:none"
       id="text228"><tspan
         x="0 4.5219998 8.0080004 13.545 16.996 20.055 22.183001 23.386299 26.928301 29.021299"
         y="0"
         sodipodi:role="line"
         id="tspan218">Number of </tspan><tspan
         x="0 3.1003001 6.1585999 8.2859001 10.6302 12.2185 15.6688 19.2101 20.5331 23.5844 25.928699 28.273001 31.324301 33.983601 37.034901 39.554199"
         y="8.4980001"
         sodipodi:role="line"
         id="tspan220">vertigo attacks </tspan><tspan
         x="0 1.589 5.1799998 6.5029998 9.9750004 12.103 15.162 18.263 19.851999 23.393999 26.879999 29.4"
         y="16.996"
         sodipodi:role="line"
         id="tspan222">in previous </tspan><tspan
         x="0 3.8080001 5.131 10.668 14.21 17.801001 20.146 23.695"
         y="25.493999"
         sodipodi:role="line"
         id="tspan224">6 months</tspan><tspan
         x="56.384998 59.556 63.342999 64.875999 68.663002 69.986 72.155998 75.327003 79.135002 80.667999 83.894997 100.016 103.187 106.995 108.528 112.245 113.568 115.738 118.909 122.297 123.83 127.225 167.839 171.22701 172.75999 176.155 177.478 179.64799 183.043 184.576 188.37 210.55299 213.724 215.257 219.065 220.388 222.558 225.93201 227.465 231.18201 273.29401 277.08801 280.315 306.418 310.20499 313.82401 369.29901 371.94501 375.564 377.09698 380.884 382.207 384.37701 387.02301 390.397 391.92999 395.647 396.78101 399.12601 402.668 403.991 407.16199 408.69501 412.50299 442.11301 445.73199 447.26501 450.436 493.69601 497.315 498.84799 502.24301"
         y="-0.0070000002"
         sodipodi:role="line"
         id="tspan226">19·9 (16·7)16·4 (12·5)2·5 (5·8)1·6 (3·4)87%90%–0·9 (–3·4 to 1·6)0·190·51</tspan></text>
<text
       transform="matrix(1,0,0,-1,45.6274,269.775)"
       style="font-variant:normal;font-weight:bold;font-size:7px;font-family:Shaker2Lancet;-inkscape-font-specification:Shaker2Lancet-Bold;writing-mode:lr-tb;fill:#000000;fill-opacity:1;fill-rule:nonzero;stroke:none"
       id="text232"><tspan
         x="0 3.3110001 6.4819999 9.2679996 12.922 16.702 20.426001 23.66 25.969999 29.316 30.604 33.775002 37.555 41.278999 44.995998 48.650002 50.407001 54.187 56.826"
         y="0"
         sodipodi:role="line"
         id="tspan230">Secondary endpoints</tspan></text>
<text
       transform="matrix(1,0,0,-1,45.6274,258.491)"
       style="font-variant:normal;font-weight:normal;font-size:7px;font-family:Shaker2Lancet;-inkscape-font-specification:Shaker2Lancet-Regular;writing-mode:lr-tb;fill:#000000;fill-opacity:1;fill-rule:nonzero;stroke:none"
       id="text288"><tspan
         x="0 4.5219998 8.0080004 13.545 16.996 20.055 22.183001 23.386299 26.928301 29.021299"
         y="0"
         sodipodi:role="line"
         id="tspan234">Number of </tspan><tspan
         x="0 3.1003001 6.1585999 8.2859001 10.6302 12.2185 15.6688 19.2101 20.5331 23.5844 25.928699 28.273001 31.324301 33.983601 37.034901 39.554199 40.877201 42.4655 46.055801"
         y="8.4980001"
         sodipodi:role="line"
         id="tspan236">vertigo attacks in </tspan><tspan
         x="0 3.4719999 5.5999999 8.6590004 11.76 13.349 16.891001 20.377001 22.896999 24.219999 27.391001 28.714001 34.250999 37.792999 41.383999 43.729"
         y="16.996"
         sodipodi:role="line"
         id="tspan238">previous 1 month</tspan><tspan
         x="59.535 63.342999 64.875999 68.663002 69.986 72.155998 75.383003 76.916 80.290001 103.6 106.995 108.528 111.923 113.246 115.416 119.224 120.757 124.152 167.608 171.22701 172.75999 175.987 177.31 179.48 182.868 184.401 188.19501 210.105 213.724 215.257 218.65199 219.97501 222.145 225.31599 226.849 230.56599 272.909 276.69601 280.315 306.418 310.20499 313.37601 369.29901 371.94501 375.564 377.09698 380.48499 381.80801 383.978 386.62399 389.79501 391.328 395.04501 396.17899 398.52399 402.06601 403.38901 407.008 408.54099 412.328 442.11301 445.73199 447.26501 450.884 493.69601 497.315 498.84799 502.565"
         y="-0.0070000002"
         sodipodi:role="line"
         id="tspan240">6·9 (7·3)5·5 (6·5)0·7 (2·8)0·5 (1·4)90%91%–0·2 (–1·4 to 0·9)0·090·47</tspan><tspan
         x="0.014 3.668 6.7270002 8.8549995 11.2 12.789 16.24 19.782 21.105 24.304001 27.299999 32.837002 36.308998 38.653999 42.195999 47.733002"
         y="28.273001"
         sodipodi:role="line"
         id="tspan242">Vertigo Symptom </tspan><tspan
         x="0.014 3.2130001 5.8730001 8.9250002 10.423 13.482 14.805 17.325001 19.985001 23.527 25.655001 28.714001 30.037001 32.207001 35.826 38.472 42.279999 45.898998"
         y="36.771"
         sodipodi:role="line"
         id="tspan244">Scale score (0–60)</tspan><tspan
         x="56.251999 59.639999 63.356998 64.889999 68.116997 69.440002 71.610001 74.780998 78.168999 79.702003 83.510002 100.45 103.838 107.009 108.542 112.336 113.659 115.829 119 122.619 124.152 127.547 167.44701 171.241 172.774 176.162 177.485 179.655 182.826 185.99699 187.53 191.24699 210.343 213.73801 215.271 218.645 219.968 222.138 225.946 227.479 230.853 273.29401 277.10199 280.32901 306.43201 309.659 313.46701 369.31299 371.95901 375.34698 376.88 380.66699 381.98999 384.16 386.806 390.03299 391.56601 395.37399 396.508 398.853 402.39499 403.71799 406.88901 408.422 411.64899 442.12701 445.746 447.27899 450.65302 493.70999 497.32901 498.862 501.746"
         y="28.273001"
         sodipodi:role="line"
         id="tspan246">24·7 (12·6)21·8 (10·5)8·2 (11·4)5·3 (6·3)67%76%–2·9 (–7·6 to 1·7)0·310·74</tspan><tspan
         x="0.028000001 4.1719999 5.7610002 8.4280005 11.095 12.684 16.275 19.334 21.854 24.374001"
         y="48.055"
         sodipodi:role="line"
         id="tspan248">Dizziness </tspan><tspan
         x="0.028000001 4.3119998 7.3639998 10.955 14.434 16.023001 18.683001 21.735001 25.207001 26.530001 29.729 32.389 35.441002 36.938999 39.998001"
         y="56.553001"
         sodipodi:role="line"
         id="tspan250">Handicap Scale </tspan><tspan
         x="0.028000001 2.5480001 5.2080002 8.75 10.878 13.937 15.26 17.43 21.049 23.695 26.865999 30.485001 34.104"
         y="65.051003"
         sodipodi:role="line"
         id="tspan252">score (0–100)</tspan><tspan
         x="56.188999 59.584 63.370998 64.903999 68.278 69.600998 71.771004 75.158997 78.778 80.310997 84.119003 100.457 103.852 107.023 108.556 112.175 113.498 115.668 119.056 122.675 124.208 127.603 164.14301 167.53101 171.248 172.78101 176.17599 177.49899 179.66901 183.05701 186.86501 188.39799 191.625 206.76601 209.937 213.745 215.278 218.65199 219.97501 222.145 225.31599 229.12399 230.657 233.884 273.15399 276.54901 280.336 306.439 310.24701 314.04099 369.32001 371.966 375.76001 377.293 380.681 382.004 384.17401 387.345 391.13199 392.66501 395.892 397.026 399.371 402.91299 404.23599 407.60999 409.14301 412.517 442.134 445.75299 447.28601 450.66 493.71701 497.336 498.86899 502.65601"
         y="48.048"
         sodipodi:role="line"
         id="tspan254">59·3 (20·6)51·0 (20·5)24·5 (26·7)16·3 (16·7)59%68%–8·2 (19·7 to 3·3)0·370·99</tspan><tspan
         x="0.035 3.0093 6.4945998 10.0849 12.7442 15.0885 16.6768 20.2181 23.808399 26.859699 28.357 29.68 32.668301 35.726601 38.8269 41.885201 43.3825"
         y="76.328003"
         sodipodi:role="line"
         id="tspan256">Functional Level </tspan><tspan
         x="0.035 3.234 5.8940001 8.9460001 10.444 13.503 14.826 17.346001 20.006001 23.548 25.676001 28.735001 30.058001 32.228001 35.847 38.493 42.300999"
         y="84.825996"
         sodipodi:role="line"
         id="tspan258">Scale score (0–6)</tspan><tspan
         x="59.660999 63.377998 64.911003 68.529999 69.852997 72.023003 75.641998 77.175003 80.961998 103.656 107.03 108.563 111.958 113.281 115.451 119.07 120.603 124.39 167.87399 171.26199 172.795 176.183 177.506 179.67599 182.847 184.38 187.754 210.588 213.759 215.29201 219.07899 220.40199 222.57201 226.19099 227.724 231.511 273.23801 276.95499 280.35001 306.453 310.17001 313.978 369.33401 371.98001 375.599 377.13199 380.50601 381.82901 383.99899 386.64499 390.26401 391.797 395.58401 396.71799 399.06299 402.60501 403.92801 407.547 409.07999 412.46799 442.14801 445.767 447.29999 450.68799 493.73099 497.35001 498.883 502.67001"
         y="76.328003"
         sodipodi:role="line"
         id="tspan260">4·0 (0·9)3·5 (0·9)2·2 (1·3)1·9 (0·9)45%46%–0·3 (–0·9 to 0·2)0·270·98</tspan><tspan
         x="0.048999999 3.5840001 5.1729999 8.7639999 12.355 13.944 16.289 19.775 22.295 23.375799 27.6598 30.7118 34.302799 37.781799 39.3708 42.0308 45.082802 48.554798"
         y="96.110001"
         sodipodi:role="line"
         id="tspan262">Tinnitus Handicap </tspan><tspan
         x="0.048999999 1.6653 5.2556 8.3558998 11.4142 15.0045 17.348801 20.8901 23.017401 26.012699 27.335699 29.855 32.514301 36.055599 38.182899 41.241199"
         y="104.608"
         sodipodi:role="line"
         id="tspan264">Inventory score </tspan><tspan
         x="0.048999999 2.2190001 5.8379998 8.4840002 11.655 15.274 18.893"
         y="113.106"
         sodipodi:role="line"
         id="tspan266">(0–100)</tspan><tspan
         x="56.279999 59.997002 63.391998 64.925003 68.152 69.474998 71.644997 75.018997 78.638 80.170998 83.544998 99.883003 103.257 107.044 108.577 112.294 113.617 115.787 119.175 122.57 124.103 127.82 164.48599 167.87399 171.269 172.802 176.589 177.912 180.082 183.47 187.257 188.78999 192.185 206.80099 209.972 213.76601 215.299 218.47 219.793 221.963 225.351 228.97 230.50301 234.297 273.26599 276.983 280.35699 306.45999 309.85501 313.57199 369.341 371.987 375.21399 376.74701 380.54099 381.86401 384.034 386.67999 390.06799 393.23901 394.772 398.146 399.28 401.625 405.16699 406.48999 409.88501 411.418 415.22601 442.155 445.77399 447.30701 450.681 493.73801 497.35699 498.89001 502.285"
         y="96.102997"
         sodipodi:role="line"
         id="tspan268">45·7 (30·3)39·4 (25·4)25·9 (29·5)18·1 (20·8)43%54%–7·8 (–21·3 to 5·6)0·310·57</tspan><tspan
         x="0.056000002 4.1559 7.6398001 9.7657003 12.8156 14.3115 15.6345 18.607401 22.091299 23.5872 25.083099 28.672001 31.728901 34.246799 36.764702"
         y="124.383"
         sodipodi:role="line"
         id="tspan270">Aural Fullness </tspan><tspan
         x="0.056000002 3.2550001 5.915 8.967 10.465 13.524 14.847 17.367001 20.027 23.569 25.697001 28.756001 30.079 32.249001 35.868 38.514 41.685001 45.304001"
         y="132.881"
         sodipodi:role="line"
         id="tspan272">Scale score (0–10)</tspan><tspan
         x="59.591 63.398998 64.931999 68.739998 70.063004 72.233002 75.607002 77.139999 80.310997 103.656 107.051 108.584 111.958 113.281 115.451 118.825 120.358 123.977 167.909 171.283 172.81599 176.211 177.534 179.70399 183.092 184.625 188.41901 210.392 213.78 215.313 219.10001 220.423 222.593 225.981 227.51401 231.32201 273.427 277.14401 280.371 306.474 310.19101 313.586 369.35501 372.00101 375.62 377.15302 380.961 382.284 384.45401 387.10001 390.48801 392.021 395.64001 396.77399 399.11899 402.66101 403.98401 407.603 409.13599 412.92999 442.16901 445.78799 447.32101 450.70901 493.75201 497.371 498.90399 502.29901"
         y="124.383"
         sodipodi:role="line"
         id="tspan274">6·6 (3·1)5·3 (3·0)3·5 (2·8)2·9 (2·6)47%45%–0·6 (–2·0 to 0·8)0·220·50</tspan><tspan
         x="0.07 3.507 6.993 9.1210003 12.18 14.462 16.806999 20.349001 23.940001 26.999001"
         y="144.16499"
         sodipodi:role="line"
         id="tspan276">Pure-tone </tspan><tspan
         x="0.07 3.1206 6.2202001 9.2777996 11.4044 14.455 17.9046 20.9622 22.2852 24.4538 27.9314 31.612"
         y="152.66299"
         sodipodi:role="line"
         id="tspan278">average (dB)</tspan><tspan
         x="56.847 60.242001 63.412998 64.945999 68.341003 69.664001 71.834 75.004997 78.176003 79.709 83.083 100.296 103.691 107.065 108.598 111.972 113.295 115.465 118.853 122.024 123.557 126.945 163.786 167.50301 171.28999 172.823 176.53999 177.86301 180.033 183.20399 186.998 188.53101 191.702 206.26199 209.979 213.787 215.32001 219.10699 220.42999 222.60001 225.98801 229.705 231.23801 234.85699 276.66101 280.37799 306.48099 309.65201 313.04001 369.362 372.008 375.396 376.92899 380.646 384.04099 385.36401 387.534 390.17999 393.35101 396.72501 398.258 401.97501 403.10901 405.45401 408.996 410.319 414.11301 415.646 419.04099 442.17599 445.79501 447.328 450.49899 493.759 497.37799 498.91101 502.082"
         y="144.16499"
         sodipodi:role="line"
         id="tspan280">51·5 (11·3)53·3 (21·2)49·4 (18·1)46·9 (24·0)4%12%–2·45 (–13·4 to 8·5)0·120·18</tspan><tspan
         x="0.077 3.22 6.6360002 9.6389999 12.642 15.246 18.795"
         y="163.94701"
         sodipodi:role="line"
         id="tspan282">Speech </tspan><tspan
         x="0.077 3.5 5.033 7.4970002 10.101 12.173 13.706 19.187 20.719999 24.254999 27.250999 29.540001 31.073 34.558998 38.094002 39.361 41.474998 46.235001"
         y="172.44501"
         sodipodi:role="line"
         id="tspan284">discrimination (%)</tspan><tspan
         x="57.021999 60.249001 63.419998 64.953003 68.124001 72.940002 74.263 76.432999 79.820999 82.991997 84.525002 87.751999 99.869003 103.677 107.072 108.605 112.224 117.04 118.363 120.533 123.921 127.708 129.241 132.61501 164.09399 167.90199 171.297 172.83 176.44901 181.265 182.588 184.758 188.132 191.75101 193.284 196.455 206.759 209.98599 213.79401 215.327 218.701 223.517 224.84 227.00999 230.39799 234.185 235.718 239.435 276.59799 280.38501 285.20099 306.48801 309.659 313.05399 369.36899 372.54001 375.711 377.24399 380.61801 381.94101 384.11099 386.75699 390.474 392.00699 395.17801 396.31201 398.65701 402.19901 403.522 406.91 410.71799 412.25101 415.478 439.53699 442.18301 445.802 447.33499 450.70901 493.76599 497.38501 498.918 502.08899"
         y="163.94701"
         sodipodi:role="line"
         id="tspan286">71·1% (21·7)65·0% (29·3)65·0% (30·1)76·3% (29·4)9%†15%11·3 (–4·1 to 26·7)–0·380·13</tspan></text>
<text
       transform="matrix(1,0,0,-1,42.7695,69.584)"
       style="font-variant:normal;font-weight:normal;font-size:6.5px;font-family:Shaker2Lancet;-inkscape-font-specification:Shaker2Lancet-Regular;writing-mode:lr-tb;fill:#000000;fill-opacity:1;fill-rule:nonzero;stroke:none"
       id="text292"><tspan
         x="0 2.7365 5.5510001 8.8400002 10.816 11.934 15.1645 17.140499 20.377501 23.582001 24.394501 27.6315 28.268499 30.445999 31.921499 37.063 39.9035 41.132 42.607498 45.942001 48.119499 50.959999 52.936001 55.77 58.240002 60.4175 61.893002 65.181999 68.516502 69.745003 71.688499 73.664497 76.953499 82.095001 83.323502 86.528 89.3685 92.703003 95.543503 97.519501 100.3535 101.7445 102.973 104.364 105.8395 109.174 112.0145 114.8485 116.8245 118.053 123.1945 126.4835 129.714 132.5545 133.9455 135.174 138.008 141.3425 144.1765 145.5675 148.3495 150.6895 152.16499 154.505 155.9285 157.157 160.0495 164.2485 167.53751 169.715 172.5555 174.89549 176.12399 178.95799 180.076 184.496 187.785 189.761 192.101 194.9415 198.276 199.7515 203.086 206.2905 207.40849 210.69749 212.64101 213.86951 216.2095 219.4335 222.274 225.1145 227.5845 230.88 231.998 235.2285 236.70399 239.04401 241.51401 243.49001 244.9655 250.10699 251.5825 254.91701 257.75101 259.9285 261.40399 264.69299 268.0275 269.25601 270.73151 274.06601 275.11899 277.29651 280.59201 283.4325 284.66101 287.86551 290.70599 294.0405 296.21799 299.052 304.19351 305.66901 308.13901 309.6145 312.94901 314.17099 317.005 318.98099 324.1225 325.35101 328.185 330.36249 331.591 334.737 338.18851 339.41699 344.5585 347.8475 351.18201 353.3595 356.655 358.995 360.22351 362.69351 365.98251 371.12399 374.34799 377.18201 379.15799 381.9985 385.229 386.34052 390.7605 392.23599 394.41351 397.70901 398.9375 402.142 404.97601 407.31601 410.15649 411.54749 413.02301 416.35751 419.198"
         y="0"
         sodipodi:role="line"
         id="tspan290">*For drug × time interaction from general linear model analysis. †Notes a worsening of speech discrimination in the gentamicin arm at 24 months compared with baseline.</tspan></text>
<text
       transform="matrix(1,0,0,-1,42.7695,53.498)"
       style="font-style:italic;font-variant:normal;font-weight:bold;font-size:7px;font-family:Shaker2Lancet;-inkscape-font-specification:Shaker2Lancet-BoldItalic;writing-mode:lr-tb;fill:#000000;fill-opacity:1;fill-rule:nonzero;stroke:none"
       id="text296"><tspan
         x="0 3.1429999 6.4749999 9.7930002 11.375 14.245 15.379 19.004999"
         y="0"
         sodipodi:role="line"
         id="tspan294">Table 2:</tspan></text>
<text
       transform="matrix(1,0,0,-1,64.7215,53.498)"
       style="font-variant:normal;font-weight:bold;font-size:7px;font-family:Shaker2Lancet;-inkscape-font-specification:Shaker2Lancet-Bold;writing-mode:lr-tb;fill:#000000;fill-opacity:1;fill-rule:nonzero;stroke:none"
       id="text300"><tspan
         x="0 3.612 5.9219999 7.6789999 13.44 16.674 18.983999 22.33 23.618 26.851999 30.632 34.355999 35.644001 38.325001 41.495998 44.282001 47.936001 51.716 55.439999 58.674 60.984001 64.330002 65.555 69.209 72.876999 75.515999 78.302002 81.956001 87.717003 90.888 93.569"
         y="0"
         sodipodi:role="line"
         id="tspan298">Primary and secondary outcomes </tspan></text>
<g
       id="g302"
       transform="translate(36.975006,373.89799)"><path
         d="M 529.829,0 H 0 v -326.195 h 529.829 z"
         style="fill:none;stroke:#b30838;stroke-width:0.25;stroke-linecap:butt;stroke-linejoin:miter;stroke-miterlimit:4;stroke-dasharray:none;stroke-opacity:1"
         id="path304"
         inkscape:connector-curvature="0" /></g><g
       id="g306"
       transform="translate(36.975006,373.89799)"><path
         d="M 0,0 Z"
         style="fill:none;stroke:#b30838;stroke-width:0.25;stroke-linecap:butt;stroke-linejoin:miter;stroke-miterlimit:4;stroke-dasharray:none;stroke-opacity:1"
         id="path308"
         inkscape:connector-curvature="0" /></g></g></svg>